<?xml version="1.0" encoding="UTF-8" standalone="no"?>
<!DOCTYPE svg PUBLIC "-//W3C//DTD SVG 1.1//EN" "http://www.w3.org/Graphics/SVG/1.1/DTD/svg11.dtd">
<svg width="100%" height="100%" viewBox="0 0 2126 2126" version="1.1" xmlns="http://www.w3.org/2000/svg" xmlns:xlink="http://www.w3.org/1999/xlink" xml:space="preserve" xmlns:serif="http://www.serif.com/" style="fill-rule:evenodd;clip-rule:evenodd;stroke-linejoin:round;stroke-miterlimit:2;">
    <g id="path24" transform="matrix(-3.22616,0,0,3.22616,2230.25,-1006.24)">
        <path d="M358.107,866.629C358.063,850.768 320.749,836.745 354.836,838.117C369.838,837.234 422.486,829.896 389.48,853.185C384.97,868.348 372.625,871.859 358.107,866.629ZM329.315,831.42C320.262,812.368 363.954,821.583 375.914,817.028C385.447,815.81 429.546,811.171 408.83,826.442C382.425,828.886 355.745,830.67 329.315,831.42ZM325,812.429C325.493,792.009 365.804,804.282 382.657,798.376C392.022,795.277 433.683,791.056 410.968,806.723C383.188,810.322 354.88,813.197 326.997,813.76L325,812.429ZM322.771,793.186C309.543,772.822 355.399,782.255 368.41,776.993C382.284,779.534 419.238,761.518 417.518,781.357C393.875,789.739 367.256,788.518 342.347,792.371C335.851,792.885 329.289,794.144 322.771,793.186ZM315.635,769.266C308.669,738.128 289.196,711.8 280.802,681.283C279.104,666.76 266.996,663.851 252.577,663.719C230.781,649.358 216.633,622.603 212.27,597.037C215.101,579.087 220.448,569.702 212.026,552.464C215.189,524.501 230.84,492.25 257.314,480.485C275.689,485.858 276.752,467.395 288.45,458.601C311.219,448.042 336.122,444.299 360.554,440.01C376.852,451.242 391.677,435.303 409.11,440.417C428.424,450.387 443.74,461.679 465.197,466.935C482.434,483.713 501.924,502.875 507.414,527.084C516.853,546.567 487.211,563.066 491.209,575.34C514.286,594.27 512.866,632.558 489.311,650.517C481.704,671.68 456.92,677.178 445.363,690.864C429.841,712.849 431.161,749.231 412.911,764.775C380.625,766.707 347.887,771.722 315.635,769.266L315.635,769.266ZM367,753.923C380.29,748.781 409.255,761.238 408.077,739.643C404.192,729.988 430.807,696.19 416.617,702.26C391.599,706.024 368.883,701.998 343.656,704.23C334.257,698.477 308.449,689.926 304.972,697.51C324.704,712.019 318.137,752.292 342.661,755.3C350.785,755.082 358.891,754.438 367,753.923ZM366.012,685.923C382.107,681.859 382.659,635.375 399,662.642C396.482,676.156 384.858,695.71 409,686.507C422.074,673.793 432.821,665.087 452.086,665.263C466.53,648.497 492.199,632.267 489.933,606.804C486.738,580.698 447.446,571.658 434.037,595.113C432.836,617.852 401.604,610.546 415.993,590.834C427.625,572.812 386.595,585.403 374.702,581.431C351.025,585.626 312.677,569.331 304.413,599.861C282.273,607.809 302.71,572.006 280.414,581.532C265.569,582.671 249.118,580.151 234.958,583.007C222.571,593.561 234.125,629.246 247.794,604.139C269.956,595.274 261.634,621.16 250.244,627.863C243.916,650.828 279.914,656.386 277.879,630.178C280.396,610.452 337.065,598.585 318.544,625.341C285.804,622.824 278.201,674.63 312.382,678.141C334.686,668.347 343.783,696.281 366.012,685.923ZM308.8,658.382C299.893,636.415 351.242,643.244 340.821,613.419C332.344,603.746 325.751,573.815 347.169,587.486C352.137,611.661 397.058,622.127 379.095,650.087C363.093,656.992 363.62,611.314 353.005,639.098C344.77,652.609 324.279,667.393 308.8,658.382ZM428.073,657.794C412.497,644.718 376.509,631.375 387.722,601.051C409.485,589.156 405.319,647.793 431.853,629.717C435.622,609.44 490.775,597.868 472.776,624.526C441.05,617.872 451.346,668.202 428.073,657.794ZM272.337,559.179C269.672,534.362 292.675,548.841 295.709,563.599C353.378,562.909 411.204,564.933 468.749,561.793C501.018,551.136 490.928,511.616 468.504,497.439C458.302,468.413 421.945,485.359 409.15,458.916C374.434,443.064 415.305,492.885 386.391,490.836C379.964,470.911 358.379,441.982 335.165,465.658C314.462,464.954 278.006,473.5 291.635,504.507C295.689,519.109 341.561,521.949 314.704,536.385C289.029,539.174 277.394,512.536 266.871,497.433C239.522,498.591 251.715,525.089 263,535.94C254.116,562.231 229.162,509.323 230.1,546.771C225.774,571.493 255.973,562.917 271.348,564.42C276.035,565.598 272.154,561.381 272.337,559.179L272.337,559.179ZM378.248,559.179C369.252,538.187 389.878,513.405 411.003,509.701C417.825,497.894 435.184,494.55 434.247,514.706C434.302,534.226 488.202,535.75 458.295,551.417C432.249,556.524 417.757,505.774 397.081,539.314C392.22,547.257 393.584,569.308 378.248,559.179ZM329.182,549.928C323.518,534.243 349.84,509.267 323.6,496.056C304.689,497.729 290.252,471.379 317.151,474.983C335.577,475.267 347.569,496.654 353.912,506.742C360.661,498.508 365.982,472.159 378.695,491.218C378.228,518.766 348.222,526.528 339.154,550.152C336.497,552.884 331.71,552.763 329.182,549.928L329.182,549.928ZM194.699,753.56C189.582,731.925 227.895,721.573 241.118,705.89C270.703,701.426 238.108,729.932 227.53,735.667C217.546,741.658 207.514,756.024 194.699,753.56ZM568.5,703.507C550.403,689.035 524.855,681.237 511.481,662.411C519.23,645.41 540.225,667.058 550.828,672.229C560.736,682.527 574.782,682.246 581.66,695.223C583.369,703.046 574.761,707.044 568.5,703.507ZM128,690.702C126.356,668.452 166.831,671.622 182.404,661.084C202.362,646.104 213.313,674.193 187.528,674.812C168.296,679.502 147.464,694.297 128,690.702ZM598.614,611.983C579.063,602.196 547.013,607.275 535,588.824C551.327,574.249 583.396,596.799 605.207,598.436C618.562,601.113 609.16,617.622 598.614,611.983ZM161.5,596.128C148.485,591.77 97.86,600.6 115.527,578.076C140.537,578.856 165.678,581.532 190.387,585.018C201.499,606.053 171.643,594.955 161.5,596.128ZM520.223,499.145C515.905,477.924 554.812,479.838 568.768,469.706C583.532,454.664 609.802,473.605 583.5,480.702C562.754,486.308 541.64,501.145 520.223,499.145ZM194,496.412C173.203,483.129 141.728,481.935 126.213,463.279C138.485,445.85 164.31,470.015 180.928,473.368C189.348,476.674 211.974,481.962 204.828,496.951C201.307,498.09 197.42,497.702 194,496.412ZM478.116,458.818C477.633,435.731 512.617,422.7 525.639,403.952C538.1,384.723 556.469,405.413 536.275,415.697C517.073,427.894 501.158,460.094 478.116,458.818ZM252.5,439.758C234.062,419.814 209.744,401.812 196.666,378.708C210.418,357.79 229.942,396.882 242.85,405.675C250.466,412.914 281.61,441.365 252.5,439.758ZM432.771,432.452C433.457,409.682 438.801,375.311 455.898,360.348C472.064,375.537 445.443,408.576 444.928,430.158C441.704,433.148 436.851,435.187 432.771,432.452ZM341.391,412.723C335.159,389.355 340.191,362.15 337.598,337.313C330.121,316.543 358.504,313.072 354.1,335.081C350.11,360.392 355.208,387.176 349.844,411.952L346.055,413.554L341.391,412.723Z" style="fill-rule:nonzero;"/>
    </g>
    <g transform="matrix(-1,0,0,1,2266.83,520.886)">
        <path d="M223.221,1465.01L293.265,1465.01C306.562,1465.01 315.427,1467.33 319.86,1471.96C324.086,1476.91 326.045,1485.78 325.735,1498.56C325.735,1505.78 325.014,1511.39 323.571,1515.41C322.128,1519.64 319.602,1522.79 315.994,1524.85C309.397,1528.25 299.244,1529.85 285.534,1529.64L223.221,1529.64L223.221,1465.01ZM299.914,1568.6C324.756,1568.81 343.002,1564.28 354.65,1555C365.783,1545.72 371.349,1528.2 371.349,1502.43C371.555,1487.07 369.133,1474.39 364.082,1464.39C358.825,1454.7 348.053,1448.82 331.766,1446.76L331.766,1445.37C345.991,1441.87 355.32,1435.68 359.752,1426.82C363.979,1417.95 365.937,1406.61 365.628,1392.8C365.628,1367.34 359.855,1350.48 348.31,1342.24C336.662,1334.4 319.138,1330.69 295.739,1331.1L177.607,1331.1L177.607,1568.6L299.914,1568.6ZM223.221,1370.07L287.544,1370.07C293.213,1370.07 298.161,1370.17 302.388,1370.38C306.614,1370.79 309.964,1371.98 312.438,1373.93C317.592,1377.23 320.169,1385.02 320.169,1397.28C320.375,1409.76 318.468,1418.41 314.448,1423.26C310.016,1428.1 301.46,1430.53 288.781,1430.53L223.221,1430.53L223.221,1370.07Z" style="fill-rule:nonzero;"/>
        <path d="M447.423,1370.07L564.472,1370.07L564.472,1331.1L401.81,1331.1L401.81,1568.6L565.4,1568.6L565.4,1529.64L447.423,1529.64L447.423,1466.71L558.442,1466.71L558.442,1429.29L447.423,1429.29L447.423,1370.07Z" style="fill-rule:nonzero;"/>
        <path d="M898.921,1410.58L898.921,1397.59C898.921,1380.69 896.808,1367.39 892.581,1357.7C888.149,1348.42 881.706,1341.77 873.253,1337.75C865.11,1333.53 855.111,1331 843.257,1330.18C831.196,1329.56 817.692,1329.25 802.746,1329.25C768.11,1328.84 742.855,1334.76 726.981,1347.03C711.003,1360.02 703.117,1385.12 703.323,1422.33L703.323,1476.76C702.705,1511.19 708.941,1535.88 722.033,1550.82C735.124,1565.87 762.028,1572.42 802.746,1570.46C817.692,1570.05 831.196,1569.33 843.257,1568.3C855.317,1567.26 865.677,1564.64 874.336,1560.41C883.201,1556.18 890.056,1549.33 894.901,1539.85C899.333,1530.05 901.549,1516.39 901.549,1498.87L901.549,1483.41L855.936,1483.41L855.936,1496.4C855.936,1504.64 854.956,1511.09 852.998,1515.72C850.936,1520.78 847.689,1524.38 843.257,1526.55C838.824,1528.61 833.309,1529.95 826.712,1530.57C819.806,1531.19 811.817,1531.5 802.746,1531.5C779.758,1531.7 764.863,1528.14 758.06,1520.83C751.566,1513.2 748.525,1497.89 748.937,1474.9L748.937,1422.33C748.525,1399.55 751.875,1384.65 758.987,1377.65C765.997,1371.15 780.583,1368.01 802.746,1368.21C822.331,1368.01 835.835,1369.35 843.257,1372.23C850.266,1375.84 853.616,1384.3 853.307,1397.59L853.307,1410.58L898.921,1410.58Z" style="fill-rule:nonzero;"/>
        <path d="M1046.74,1490.06C1057.77,1490.26 1065.6,1493.46 1070.24,1499.64C1074.67,1505.73 1076.89,1513.92 1076.89,1524.23L1076.89,1568.6L1122.51,1568.6L1122.51,1524.23C1122.71,1507.32 1120.08,1494.44 1114.62,1485.57C1108.85,1476.71 1098.07,1471.66 1082.3,1470.42L1082.3,1469.18C1092.4,1467.53 1100.39,1464.7 1106.27,1460.68C1111.84,1456.86 1115.96,1452.12 1118.64,1446.45C1121.42,1440.68 1123.12,1434.03 1123.74,1426.51C1124.15,1419.09 1124.36,1411.04 1124.36,1402.38C1124.57,1375.79 1119.21,1357.08 1108.28,1346.26C1096.84,1335.95 1078.23,1330.9 1052.46,1331.1L931.237,1331.1L931.237,1568.6L976.85,1568.6L976.85,1490.06L1046.74,1490.06ZM976.85,1451.09L976.85,1370.07L1040.09,1370.07C1056.17,1369.86 1066.84,1372.18 1072.1,1377.03C1076.74,1382.28 1078.95,1393.16 1078.75,1409.65C1078.95,1426.56 1076.22,1437.74 1070.55,1443.21C1064.68,1448.67 1053.49,1451.3 1037,1451.09L976.85,1451.09Z" style="fill-rule:nonzero;"/>
        <path d="M1203.99,1370.07L1321.04,1370.07L1321.04,1331.1L1158.38,1331.1L1158.38,1568.6L1321.97,1568.6L1321.97,1529.64L1203.99,1529.64L1203.99,1466.71L1315.01,1466.71L1315.01,1429.29L1203.99,1429.29L1203.99,1370.07Z" style="fill-rule:nonzero;"/>
        <path d="M1500.4,1523.61L1515.86,1568.6L1562.1,1568.6L1481.69,1331.1L1414.59,1331.1L1335.73,1568.6L1382.89,1568.6L1397.73,1523.61L1500.4,1523.61ZM1490.2,1489.13L1408.25,1489.13L1448.76,1365.89L1449.38,1365.89L1490.2,1489.13Z" style="fill-rule:nonzero;"/>
        <path d="M1677.13,1370.07L1746.72,1370.07L1746.72,1331.1L1561.79,1331.1L1561.79,1370.07L1631.52,1370.07L1631.52,1568.6L1677.13,1568.6L1677.13,1370.07Z" style="fill-rule:nonzero;"/>
        <rect x="1767.9" y="1331.1" width="45.614" height="237.5" style="fill-rule:nonzero;"/>
        <path d="M2005.09,1331.1L1941.69,1530.57L1940.77,1530.57L1877.53,1331.1L1830.83,1331.1L1906.9,1568.6L1975.56,1568.6L2052.25,1331.1L2005.09,1331.1Z" style="fill-rule:nonzero;"/>
        <path d="M2112.09,1370.07L2229.14,1370.07L2229.14,1331.1L2066.47,1331.1L2066.47,1568.6L2230.07,1568.6L2230.07,1529.64L2112.09,1529.64L2112.09,1466.71L2223.11,1466.71L2223.11,1429.29L2112.09,1429.29L2112.09,1370.07Z" style="fill-rule:nonzero;"/>
    </g>
</svg>
