  0
SECTION
  2
HEADER
  9
$ACADVER
  1
AC1014
  9
$HANDSEED
  5
FFFF
  9
$MEASUREMENT
 70
     1
  0
ENDSEC
  0
SECTION
  2
TABLES
  0
TABLE
  2
VPORT
  5
8
330
0
100
AcDbSymbolTable
 70
     4
  0
VPORT
  5
2E
330
8
100
AcDbSymbolTableRecord
100
AcDbViewportTableRecord
  2
*ACTIVE
 70
     0
 10
0.0
 20
0.0
 11
1.0
 21
1.0
 12
210.0
 22
148.5
 13
0.0
 23
0.0
 14
10.0
 24
10.0
 15
10.0
 25
10.0
 16
0.0
 26
0.0
 36
1.0
 17
0.0
 27
0.0
 37
0.0
 40
341.0
 41
1.24
 42
50.0
 43
0.0
 44
0.0
 50
0.0
 51
0.0
 71
     0
 72
   100
 73
     1
 74
     3
 75
     0
 76
     0
 77
     0
 78
     0
  0
ENDTAB
  0
TABLE
  2
LTYPE
  5
5
330
0
100
AcDbSymbolTable
 70
     1
  0
LTYPE
  5
14
330
5
100
AcDbSymbolTableRecord
100
AcDbLinetypeTableRecord
  2
BYBLOCK
 70
     0
  3

 72
    65
 73
     0
 40
0.0
  0
LTYPE
  5
15
330
5
100
AcDbSymbolTableRecord
100
AcDbLinetypeTableRecord
  2
BYLAYER
 70
     0
  3

 72
    65
 73
     0
 40
0.0
  0
LTYPE
  5
16
330
5
100
AcDbSymbolTableRecord
100
AcDbLinetypeTableRecord
  2
CONTINUOUS
 70
     0
  3
Solid line
 72
    65
 73
     0
 40
0.0
  0
ENDTAB
  0
TABLE
  2
LAYER
  5
2
100
AcDbSymbolTable
 70
1
  0
LAYER
  5
50
100
AcDbSymbolTableRecord
100
AcDbLayerTableRecord
  2
0
 70
0
  6
CONTINUOUS
  0
ENDTAB
  0
TABLE
  2
STYLE
  5
3
330
0
100
AcDbSymbolTable
 70
     1
  0
STYLE
  5
11
330
3
100
AcDbSymbolTableRecord
100
AcDbTextStyleTableRecord
  2
STANDARD
 70
     0
 40
0.0
 41
1.0
 50
0.0
 71
     0
 42
2.5
  3
txt
  4

  0
ENDTAB
  0
TABLE
  2
VIEW
  5
6
330
0
100
AcDbSymbolTable
 70
     0
  0
ENDTAB
  0
TABLE
  2
UCS
  5
7
330
0
100
AcDbSymbolTable
 70
     0
  0
ENDTAB
  0
TABLE
  2
APPID
  5
9
330
0
100
AcDbSymbolTable
 70
     2
  0
APPID
  5
12
330
9
100
AcDbSymbolTableRecord
100
AcDbRegAppTableRecord
  2
ACAD
 70
     0
  0
ENDTAB
  0
TABLE
  2
DIMSTYLE
  5
A
330
0
100
AcDbSymbolTable
 70
     1
  0
DIMSTYLE
105
27
330
A
100
AcDbSymbolTableRecord
100
AcDbDimStyleTableRecord
  2
ISO-25
 70
     0
  3

  4

  5

  6

  7

 40
1.0
 41
2.5
 42
0.625
 43
3.75
 44
1.25
 45
0.0
 46
0.0
 47
0.0
 48
0.0
140
2.5
141
2.5
142
0.0
143
0.03937007874016
144
1.0
145
0.0
146
1.0
147
0.625
 71
     0
 72
     0
 73
     0
 74
     0
 75
     0
 76
     0
 77
     1
 78
     8
170
     0
171
     3
172
     1
173
     0
174
     0
175
     0
176
     0
177
     0
178
     0
270
     2
271
     2
272
     2
273
     2
274
     3
340
11
275
     0
280
     0
281
     0
282
     0
283
     0
284
     8
285
     0
286
     0
287
     3
288
     0
  0
ENDTAB
  0
TABLE
  2
BLOCK_RECORD
  5
1
330
0
100
AcDbSymbolTable
 70
     1
  0
BLOCK_RECORD
  5
1F
330
1
100
AcDbSymbolTableRecord
100
AcDbBlockTableRecord
  2
*MODEL_SPACE
  0
BLOCK_RECORD
  5
1B
330
1
100
AcDbSymbolTableRecord
100
AcDbBlockTableRecord
  2
*PAPER_SPACE
  0
ENDTAB
  0
ENDSEC
  0
SECTION
  2
BLOCKS
  0
BLOCK
  5
20
330
1F
100
AcDbEntity
  8
0
100
AcDbBlockBegin
  2
*MODEL_SPACE
 70
     0
 10
0.0
 20
0.0
 30
0.0
  3
*MODEL_SPACE
  1

  0
ENDBLK
  5
21
330
1F
100
AcDbEntity
  8
0
100
AcDbBlockEnd
  0
BLOCK
  5
1C
330
1B
100
AcDbEntity
 67
     1
  8
0
100
AcDbBlockBegin
  2
*PAPER_SPACE
  1

  0
ENDBLK
  5
1D
330
1B
100
AcDbEntity
 67
     1
  8
0
100
AcDbBlockEnd
  0
ENDSEC
  0
SECTION
  2
ENTITIES
  0
SPLINE
  5
100
100
AcDbEntity
  8
0
 62
7
100
AcDbSpline
 70
8
 71
3
 72
8
 73
4
 74
0
 40
0
 40
0
 40
0
 40
0
 40
1
 40
1
 40
1
 40
1
 10
806.204617
 20
252.267084
 30
0.0
 10
806.311080
 20
290.644676
 30
0.0
 10
896.596778
 20
324.575006
 30
0.0
 10
814.119194
 20
321.255288
 30
0.0
  0
SPLINE
  5
101
100
AcDbEntity
  8
0
 62
7
100
AcDbSpline
 70
8
 71
3
 72
8
 73
4
 74
0
 40
0
 40
0
 40
0
 40
0
 40
1
 40
1
 40
1
 40
1
 10
814.119194
 20
321.255288
 30
0.0
 10
777.820055
 20
323.391812
 30
0.0
 10
650.431905
 20
341.146983
 30
0.0
 10
730.293881
 20
284.796455
 30
0.0
  0
SPLINE
  5
102
100
AcDbEntity
  8
0
 62
7
100
AcDbSpline
 70
8
 71
3
 72
8
 73
4
 74
0
 40
0
 40
0
 40
0
 40
0
 40
1
 40
1
 40
1
 40
1
 10
730.293881
 20
284.796455
 30
0.0
 10
741.206367
 20
248.107758
 30
0.0
 10
771.076575
 20
239.612472
 30
0.0
 10
806.204617
 20
252.267084
 30
0.0
  0
SPLINE
  5
103
100
AcDbEntity
  8
0
 62
7
100
AcDbSpline
 70
8
 71
3
 72
8
 73
4
 74
0
 40
0
 40
0
 40
0
 40
0
 40
1
 40
1
 40
1
 40
1
 10
875.870314
 20
337.459482
 30
0.0
 10
897.775133
 20
383.558081
 30
0.0
 10
792.057099
 20
361.261284
 30
0.0
 10
763.118445
 20
372.282652
 30
0.0
  0
SPLINE
  5
104
100
AcDbEntity
  8
0
 62
7
100
AcDbSpline
 70
8
 71
3
 72
8
 73
4
 74
0
 40
0
 40
0
 40
0
 40
0
 40
1
 40
1
 40
1
 40
1
 10
763.118445
 20
372.282652
 30
0.0
 10
740.052208
 20
375.229749
 30
0.0
 10
633.349389
 20
386.454366
 30
0.0
 10
683.474235
 20
349.504350
 30
0.0
  0
SPLINE
  5
105
100
AcDbEntity
  8
0
 62
7
100
AcDbSpline
 70
8
 71
3
 72
8
 73
4
 74
0
 40
0
 40
0
 40
0
 40
0
 40
1
 40
1
 40
1
 40
1
 10
683.474235
 20
349.504350
 30
0.0
 10
747.364299
 20
343.590799
 30
0.0
 10
811.919759
 20
339.274197
 30
0.0
 10
875.870314
 20
337.459482
 30
0.0
  0
LWPOLYLINE
  5
106
100
AcDbEntity
  8
0
 62
7
100
AcDbPolyline
 90
1
 70
1
 10
806.204617
 20
252.267084
 30
0.0
  0
SPLINE
  5
107
100
AcDbEntity
  8
0
 62
7
100
AcDbSpline
 70
8
 71
3
 72
8
 73
4
 74
0
 40
0
 40
0
 40
0
 40
0
 40
1
 40
1
 40
1
 40
1
 10
886.310974
 20
383.410484
 30
0.0
 10
885.118101
 20
432.819123
 30
0.0
 10
787.580802
 20
403.123128
 30
0.0
 10
746.802948
 20
417.413403
 30
0.0
  0
SPLINE
  5
108
100
AcDbEntity
  8
0
 62
7
100
AcDbSpline
 70
8
 71
3
 72
8
 73
4
 74
0
 40
0
 40
0
 40
0
 40
0
 40
1
 40
1
 40
1
 40
1
 10
746.802948
 20
417.413403
 30
0.0
 10
724.143207
 20
424.911805
 30
0.0
 10
623.339421
 20
435.125021
 30
0.0
 10
678.301088
 20
397.216836
 30
0.0
  0
SPLINE
  5
109
100
AcDbEntity
  8
0
 62
7
100
AcDbSpline
 70
8
 71
3
 72
8
 73
4
 74
0
 40
0
 40
0
 40
0
 40
0
 40
1
 40
1
 40
1
 40
1
 10
678.301088
 20
397.216836
 30
0.0
 10
745.518129
 20
388.508624
 30
0.0
 10
814.012730
 20
381.552216
 30
0.0
 10
881.478993
 20
380.189970
 30
0.0
  0
LWPOLYLINE
  5
10a
100
AcDbEntity
  8
0
 62
7
100
AcDbPolyline
 90
1
 70
1
 10
875.870314
 20
337.459482
 30
0.0
  0
SPLINE
  5
10b
100
AcDbEntity
  8
0
 62
7
100
AcDbSpline
 70
8
 71
3
 72
8
 73
4
 74
0
 40
0
 40
0
 40
0
 40
0
 40
1
 40
1
 40
1
 40
1
 10
891.704307
 20
429.971231
 30
0.0
 10
923.711039
 20
479.244371
 30
0.0
 10
812.756948
 20
456.420096
 30
0.0
 10
781.275273
 20
469.152136
 30
0.0
  0
SPLINE
  5
10c
100
AcDbEntity
  8
0
 62
7
100
AcDbSpline
 70
8
 71
3
 72
8
 73
4
 74
0
 40
0
 40
0
 40
0
 40
0
 40
1
 40
1
 40
1
 40
1
 10
781.275273
 20
469.152136
 30
0.0
 10
747.705466
 20
463.003882
 30
0.0
 10
658.290831
 20
506.595755
 30
0.0
 10
662.452577
 20
458.592915
 30
0.0
  0
SPLINE
  5
10d
100
AcDbEntity
  8
0
 62
7
100
AcDbSpline
 70
8
 71
3
 72
8
 73
4
 74
0
 40
0
 40
0
 40
0
 40
0
 40
1
 40
1
 40
1
 40
1
 10
662.452577
 20
458.592915
 30
0.0
 10
719.659651
 20
438.311661
 30
0.0
 10
784.067514
 20
441.266017
 30
0.0
 10
844.337827
 20
431.943221
 30
0.0
  0
SPLINE
  5
10e
100
AcDbEntity
  8
0
 62
7
100
AcDbSpline
 70
8
 71
3
 72
8
 73
4
 74
0
 40
0
 40
0
 40
0
 40
0
 40
1
 40
1
 40
1
 40
1
 10
844.337827
 20
431.943221
 30
0.0
 10
860.055678
 20
430.699536
 30
0.0
 10
875.933224
 20
427.653235
 30
0.0
 10
891.704307
 20
429.971231
 30
0.0
  0
LWPOLYLINE
  5
10f
100
AcDbEntity
  8
0
 62
7
100
AcDbPolyline
 90
2
 70
0
 10
881.478993
 20
380.189970
 30
0.0
 10
886.310974
 20
383.410484
 30
0.0
  0
SPLINE
  5
110
100
AcDbEntity
  8
0
 62
7
100
AcDbSpline
 70
8
 71
3
 72
8
 73
4
 74
0
 40
0
 40
0
 40
0
 40
0
 40
1
 40
1
 40
1
 40
1
 10
908.970714
 20
487.848539
 30
0.0
 10
925.825787
 20
563.190665
 30
0.0
 10
972.943046
 20
626.894418
 30
0.0
 10
993.253335
 20
700.733960
 30
0.0
  0
SPLINE
  5
111
100
AcDbEntity
  8
0
 62
7
100
AcDbSpline
 70
8
 71
3
 72
8
 73
4
 74
0
 40
0
 40
0
 40
0
 40
0
 40
1
 40
1
 40
1
 40
1
 10
993.253335
 20
700.733960
 30
0.0
 10
997.361850
 20
735.874100
 30
0.0
 10
1026.658608
 20
742.912774
 30
0.0
 10
1061.547108
 20
743.232164
 30
0.0
  0
SPLINE
  5
112
100
AcDbEntity
  8
0
 62
7
100
AcDbSpline
 70
8
 71
3
 72
8
 73
4
 74
0
 40
0
 40
0
 40
0
 40
0
 40
1
 40
1
 40
1
 40
1
 10
1061.547108
 20
743.232164
 30
0.0
 10
1114.285144
 20
777.980326
 30
0.0
 10
1148.517927
 20
842.717257
 30
0.0
 10
1159.074728
 20
904.577260
 30
0.0
  0
SPLINE
  5
113
100
AcDbEntity
  8
0
 62
7
100
AcDbSpline
 70
8
 71
3
 72
8
 73
4
 74
0
 40
0
 40
0
 40
0
 40
0
 40
1
 40
1
 40
1
 40
1
 10
1159.074728
 20
904.577260
 30
0.0
 10
1152.224784
 20
948.009438
 30
0.0
 10
1139.287076
 20
970.717571
 30
0.0
 10
1159.665116
 20
1012.426979
 30
0.0
  0
SPLINE
  5
114
100
AcDbEntity
  8
0
 62
7
100
AcDbSpline
 70
8
 71
3
 72
8
 73
4
 74
0
 40
0
 40
0
 40
0
 40
0
 40
1
 40
1
 40
1
 40
1
 10
1159.665116
 20
1012.426979
 30
0.0
 10
1152.011858
 20
1080.086811
 30
0.0
 10
1114.142386
 20
1158.121973
 30
0.0
 10
1050.085368
 20
1186.588802
 30
0.0
  0
SPLINE
  5
115
100
AcDbEntity
  8
0
 62
7
100
AcDbSpline
 70
8
 71
3
 72
8
 73
4
 74
0
 40
0
 40
0
 40
0
 40
0
 40
1
 40
1
 40
1
 40
1
 10
1050.085368
 20
1186.588802
 30
0.0
 10
1005.624852
 20
1173.588184
 30
0.0
 10
1003.052796
 20
1218.261627
 30
0.0
 10
974.748082
 20
1239.539764
 30
0.0
  0
SPLINE
  5
116
100
AcDbEntity
  8
0
 62
7
100
AcDbSpline
 70
8
 71
3
 72
8
 73
4
 74
0
 40
0
 40
0
 40
0
 40
0
 40
1
 40
1
 40
1
 40
1
 10
974.748082
 20
1239.539764
 30
0.0
 10
919.655756
 20
1265.088531
 30
0.0
 10
859.399961
 20
1274.145169
 30
0.0
 10
800.283807
 20
1284.522918
 30
0.0
  0
SPLINE
  5
117
100
AcDbEntity
  8
0
 62
7
100
AcDbSpline
 70
8
 71
3
 72
8
 73
4
 74
0
 40
0
 40
0
 40
0
 40
0
 40
1
 40
1
 40
1
 40
1
 10
800.283807
 20
1284.522918
 30
0.0
 10
760.848841
 20
1257.345747
 30
0.0
 10
724.977976
 20
1295.912069
 30
0.0
 10
682.796742
 20
1283.538133
 30
0.0
  0
SPLINE
  5
118
100
AcDbEntity
  8
0
 62
7
100
AcDbSpline
 70
8
 71
3
 72
8
 73
4
 74
0
 40
0
 40
0
 40
0
 40
0
 40
1
 40
1
 40
1
 40
1
 10
682.796742
 20
1283.538133
 30
0.0
 10
636.064202
 20
1259.414523
 30
0.0
 10
599.005303
 20
1232.092174
 30
0.0
 10
547.087519
 20
1219.374652
 30
0.0
  0
SPLINE
  5
119
100
AcDbEntity
  8
0
 62
7
100
AcDbSpline
 70
8
 71
3
 72
8
 73
4
 74
0
 40
0
 40
0
 40
0
 40
0
 40
1
 40
1
 40
1
 40
1
 10
547.087519
 20
1219.374652
 30
0.0
 10
505.380530
 20
1178.778269
 30
0.0
 10
458.222138
 20
1132.413512
 30
0.0
 10
444.938424
 20
1073.836933
 30
0.0
  0
SPLINE
  5
11a
100
AcDbEntity
  8
0
 62
7
100
AcDbSpline
 70
8
 71
3
 72
8
 73
4
 74
0
 40
0
 40
0
 40
0
 40
0
 40
1
 40
1
 40
1
 40
1
 10
444.938424
 20
1073.836933
 30
0.0
 10
422.099632
 20
1026.695478
 30
0.0
 10
493.822006
 20
986.774169
 30
0.0
 10
484.148365
 20
957.075754
 30
0.0
  0
SPLINE
  5
11b
100
AcDbEntity
  8
0
 62
7
100
AcDbSpline
 70
8
 71
3
 72
8
 73
4
 74
0
 40
0
 40
0
 40
0
 40
0
 40
1
 40
1
 40
1
 40
1
 10
484.148365
 20
957.075754
 30
0.0
 10
428.310796
 20
911.272348
 30
0.0
 10
431.746656
 20
818.629941
 30
0.0
 10
488.740804
 20
775.175986
 30
0.0
  0
SPLINE
  5
11c
100
AcDbEntity
  8
0
 62
7
100
AcDbSpline
 70
8
 71
3
 72
8
 73
4
 74
0
 40
0
 40
0
 40
0
 40
0
 40
1
 40
1
 40
1
 40
1
 10
488.740804
 20
775.175986
 30
0.0
 10
507.146852
 20
723.969570
 30
0.0
 10
567.114713
 20
710.666499
 30
0.0
 10
595.078260
 20
677.551581
 30
0.0
  0
SPLINE
  5
11d
100
AcDbEntity
  8
0
 62
7
100
AcDbSpline
 70
8
 71
3
 72
8
 73
4
 74
0
 40
0
 40
0
 40
0
 40
0
 40
1
 40
1
 40
1
 40
1
 10
595.078260
 20
677.551581
 30
0.0
 10
632.635601
 20
624.356237
 30
0.0
 10
629.441703
 20
536.325625
 30
0.0
 10
673.599766
 20
498.715052
 30
0.0
  0
SPLINE
  5
11e
100
AcDbEntity
  8
0
 62
7
100
AcDbSpline
 70
8
 71
3
 72
8
 73
4
 74
0
 40
0
 40
0
 40
0
 40
0
 40
1
 40
1
 40
1
 40
1
 10
673.599766
 20
498.715052
 30
0.0
 10
751.719615
 20
494.040347
 30
0.0
 10
830.933132
 20
481.905953
 30
0.0
 10
908.970714
 20
487.848539
 30
0.0
  0
LWPOLYLINE
  5
11f
100
AcDbEntity
  8
0
 62
7
100
AcDbPolyline
 90
1
 70
1
 10
891.704307
 20
429.971231
 30
0.0
  0
SPLINE
  5
120
100
AcDbEntity
  8
0
 62
7
100
AcDbSpline
 70
8
 71
3
 72
8
 73
4
 74
0
 40
0
 40
0
 40
0
 40
0
 40
1
 40
1
 40
1
 40
1
 10
784.686937
 20
524.972768
 30
0.0
 10
752.530188
 20
537.414454
 30
0.0
 10
682.445897
 20
507.273248
 30
0.0
 10
685.296209
 20
559.524941
 30
0.0
  0
SPLINE
  5
121
100
AcDbEntity
  8
0
 62
7
100
AcDbSpline
 70
8
 71
3
 72
8
 73
4
 74
0
 40
0
 40
0
 40
0
 40
0
 40
1
 40
1
 40
1
 40
1
 10
685.296209
 20
559.524941
 30
0.0
 10
694.696432
 20
582.886371
 30
0.0
 10
630.298248
 20
664.664685
 30
0.0
 10
664.632655
 20
649.977592
 30
0.0
  0
SPLINE
  5
122
100
AcDbEntity
  8
0
 62
7
100
AcDbSpline
 70
8
 71
3
 72
8
 73
4
 74
0
 40
0
 40
0
 40
0
 40
0
 40
1
 40
1
 40
1
 40
1
 10
664.632655
 20
649.977592
 30
0.0
 10
725.166706
 20
640.870143
 30
0.0
 10
780.130792
 20
650.611533
 30
0.0
 10
841.170544
 20
645.210941
 30
0.0
  0
SPLINE
  5
123
100
AcDbEntity
  8
0
 62
7
100
AcDbSpline
 70
8
 71
3
 72
8
 73
4
 74
0
 40
0
 40
0
 40
0
 40
0
 40
1
 40
1
 40
1
 40
1
 10
841.170544
 20
645.210941
 30
0.0
 10
863.912552
 20
659.131014
 30
0.0
 10
926.358103
 20
679.821184
 30
0.0
 10
934.771122
 20
661.470787
 30
0.0
  0
SPLINE
  5
124
100
AcDbEntity
  8
0
 62
7
100
AcDbSpline
 70
8
 71
3
 72
8
 73
4
 74
0
 40
0
 40
0
 40
0
 40
0
 40
1
 40
1
 40
1
 40
1
 10
934.771122
 20
661.470787
 30
0.0
 10
887.027181
 20
626.364521
 30
0.0
 10
902.916825
 20
528.919168
 30
0.0
 10
843.578066
 20
521.640951
 30
0.0
  0
SPLINE
  5
125
100
AcDbEntity
  8
0
 62
7
100
AcDbSpline
 70
8
 71
3
 72
8
 73
4
 74
0
 40
0
 40
0
 40
0
 40
0
 40
1
 40
1
 40
1
 40
1
 10
843.578066
 20
521.640951
 30
0.0
 10
823.921074
 20
522.168428
 30
0.0
 10
804.307635
 20
523.726664
 30
0.0
 10
784.686937
 20
524.972768
 30
0.0
  0
LWPOLYLINE
  5
126
100
AcDbEntity
  8
0
 62
7
100
AcDbPolyline
 90
1
 70
1
 10
908.970714
 20
487.848539
 30
0.0
  0
SPLINE
  5
127
100
AcDbEntity
  8
0
 62
7
100
AcDbSpline
 70
8
 71
3
 72
8
 73
4
 74
0
 40
0
 40
0
 40
0
 40
0
 40
1
 40
1
 40
1
 40
1
 10
787.077521
 20
689.506923
 30
0.0
 10
748.133738
 20
699.340258
 30
0.0
 10
746.798108
 20
811.813871
 30
0.0
 10
707.259099
 20
745.838095
 30
0.0
  0
SPLINE
  5
128
100
AcDbEntity
  8
0
 62
7
100
AcDbSpline
 70
8
 71
3
 72
8
 73
4
 74
0
 40
0
 40
0
 40
0
 40
0
 40
1
 40
1
 40
1
 40
1
 10
707.259099
 20
745.838095
 30
0.0
 10
713.351702
 20
713.139351
 30
0.0
 10
741.477364
 20
665.826103
 30
0.0
 10
683.062900
 20
688.093865
 30
0.0
  0
SPLINE
  5
129
100
AcDbEntity
  8
0
 62
7
100
AcDbSpline
 70
8
 71
3
 72
8
 73
4
 74
0
 40
0
 40
0
 40
0
 40
0
 40
1
 40
1
 40
1
 40
1
 10
683.062900
 20
688.093865
 30
0.0
 10
651.428789
 20
718.856913
 30
0.0
 10
625.425133
 20
739.922124
 30
0.0
 10
578.811156
 20
739.496271
 30
0.0
  0
SPLINE
  5
12a
100
AcDbEntity
  8
0
 62
7
100
AcDbSpline
 70
8
 71
3
 72
8
 73
4
 74
0
 40
0
 40
0
 40
0
 40
0
 40
1
 40
1
 40
1
 40
1
 10
578.811156
 20
739.496271
 30
0.0
 10
543.862165
 20
780.063619
 30
0.0
 10
481.752941
 20
819.334050
 30
0.0
 10
487.235800
 20
880.944832
 30
0.0
  0
SPLINE
  5
12b
100
AcDbEntity
  8
0
 62
7
100
AcDbSpline
 70
8
 71
3
 72
8
 73
4
 74
0
 40
0
 40
0
 40
0
 40
0
 40
1
 40
1
 40
1
 40
1
 10
487.235800
 20
880.944832
 30
0.0
 10
494.966486
 20
944.111430
 30
0.0
 10
590.038192
 20
965.984794
 30
0.0
 10
622.482876
 20
909.232609
 30
0.0
  0
SPLINE
  5
12c
100
AcDbEntity
  8
0
 62
7
100
AcDbSpline
 70
8
 71
3
 72
8
 73
4
 74
0
 40
0
 40
0
 40
0
 40
0
 40
1
 40
1
 40
1
 40
1
 10
622.482876
 20
909.232609
 30
0.0
 10
625.388839
 20
854.212871
 30
0.0
 10
700.958409
 20
871.890614
 30
0.0
 10
666.142498
 20
919.586162
 30
0.0
  0
SPLINE
  5
12d
100
AcDbEntity
  8
0
 62
7
100
AcDbSpline
 70
8
 71
3
 72
8
 73
4
 74
0
 40
0
 40
0
 40
0
 40
0
 40
1
 40
1
 40
1
 40
1
 10
666.142498
 20
919.586162
 30
0.0
 10
637.997479
 20
963.192553
 30
0.0
 10
737.274484
 20
932.727118
 30
0.0
 10
766.051024
 20
942.337849
 30
0.0
  0
SPLINE
  5
12e
100
AcDbEntity
  8
0
 62
7
100
AcDbSpline
 70
8
 71
3
 72
8
 73
4
 74
0
 40
0
 40
0
 40
0
 40
0
 40
1
 40
1
 40
1
 40
1
 10
766.051024
 20
942.337849
 30
0.0
 10
823.340365
 20
932.187543
 30
0.0
 10
916.127950
 20
971.615250
 30
0.0
 10
936.123689
 20
897.744253
 30
0.0
  0
SPLINE
  5
12f
100
AcDbEntity
  8
0
 62
7
100
AcDbSpline
 70
8
 71
3
 72
8
 73
4
 74
0
 40
0
 40
0
 40
0
 40
0
 40
1
 40
1
 40
1
 40
1
 10
936.123689
 20
897.744253
 30
0.0
 10
989.694074
 20
878.513114
 30
0.0
 10
940.244302
 20
965.142766
 30
0.0
 10
994.192148
 20
942.093467
 30
0.0
  0
SPLINE
  5
130
100
AcDbEntity
  8
0
 62
7
100
AcDbSpline
 70
8
 71
3
 72
8
 73
4
 74
0
 40
0
 40
0
 40
0
 40
0
 40
1
 40
1
 40
1
 40
1
 10
994.192148
 20
942.093467
 30
0.0
 10
1030.111406
 20
939.337520
 30
0.0
 10
1069.916573
 20
945.434962
 30
0.0
 10
1104.178391
 20
938.524528
 30
0.0
  0
SPLINE
  5
131
100
AcDbEntity
  8
0
 62
7
100
AcDbSpline
 70
8
 71
3
 72
8
 73
4
 74
0
 40
0
 40
0
 40
0
 40
0
 40
1
 40
1
 40
1
 40
1
 10
1104.178391
 20
938.524528
 30
0.0
 10
1134.150223
 20
912.987859
 30
0.0
 10
1106.193935
 20
826.643722
 30
0.0
 10
1073.120150
 20
887.393119
 30
0.0
  0
SPLINE
  5
132
100
AcDbEntity
  8
0
 62
7
100
AcDbSpline
 70
8
 71
3
 72
8
 73
4
 74
0
 40
0
 40
0
 40
0
 40
0
 40
1
 40
1
 40
1
 40
1
 10
1073.120150
 20
887.393119
 30
0.0
 10
1019.496533
 20
908.843050
 30
0.0
 10
1039.632610
 20
846.208768
 30
0.0
 10
1067.192081
 20
829.990056
 30
0.0
  0
SPLINE
  5
133
100
AcDbEntity
  8
0
 62
7
100
AcDbSpline
 70
8
 71
3
 72
8
 73
4
 74
0
 40
0
 40
0
 40
0
 40
0
 40
1
 40
1
 40
1
 40
1
 10
1067.192081
 20
829.990056
 30
0.0
 10
1082.503436
 20
774.423484
 30
0.0
 10
995.401958
 20
760.975237
 30
0.0
 10
1000.325884
 20
824.388636
 30
0.0
  0
SPLINE
  5
134
100
AcDbEntity
  8
0
 62
7
100
AcDbSpline
 70
8
 71
3
 72
8
 73
4
 74
0
 40
0
 40
0
 40
0
 40
0
 40
1
 40
1
 40
1
 40
1
 10
1000.325884
 20
824.388636
 30
0.0
 10
994.235701
 20
872.118059
 30
0.0
 10
857.118259
 20
900.831688
 30
0.0
 10
901.932040
 20
836.092338
 30
0.0
  0
SPLINE
  5
135
100
AcDbEntity
  8
0
 62
7
100
AcDbSpline
 70
8
 71
3
 72
8
 73
4
 74
0
 40
0
 40
0
 40
0
 40
0
 40
1
 40
1
 40
1
 40
1
 10
901.932040
 20
836.092338
 30
0.0
 10
981.150396
 20
842.182521
 30
0.0
 10
999.546767
 20
716.831691
 30
0.0
 10
916.841738
 20
708.336405
 30
0.0
  0
SPLINE
  5
136
100
AcDbEntity
  8
0
 62
7
100
AcDbSpline
 70
8
 71
3
 72
8
 73
4
 74
0
 40
0
 40
0
 40
0
 40
0
 40
1
 40
1
 40
1
 40
1
 10
916.841738
 20
708.336405
 30
0.0
 10
862.874535
 20
732.034163
 30
0.0
 10
840.863253
 20
664.444500
 30
0.0
 10
787.077521
 20
689.506923
 30
0.0
  0
LWPOLYLINE
  5
137
100
AcDbEntity
  8
0
 62
7
100
AcDbPolyline
 90
1
 70
1
 10
784.686937
 20
524.972768
 30
0.0
  0
SPLINE
  5
138
100
AcDbEntity
  8
0
 62
7
100
AcDbSpline
 70
8
 71
3
 72
8
 73
4
 74
0
 40
0
 40
0
 40
0
 40
0
 40
1
 40
1
 40
1
 40
1
 10
925.508817
 20
756.145676
 30
0.0
 10
947.060371
 20
809.297466
 30
0.0
 10
822.815308
 20
792.773882
 30
0.0
 10
848.030167
 20
864.939046
 30
0.0
  0
SPLINE
  5
139
100
AcDbEntity
  8
0
 62
7
100
AcDbSpline
 70
8
 71
3
 72
8
 73
4
 74
0
 40
0
 40
0
 40
0
 40
0
 40
1
 40
1
 40
1
 40
1
 10
848.030167
 20
864.939046
 30
0.0
 10
868.541285
 20
888.344030
 30
0.0
 10
884.493839
 20
960.765674
 30
0.0
 10
832.670420
 20
927.687050
 30
0.0
  0
SPLINE
  5
13a
100
AcDbEntity
  8
0
 62
7
100
AcDbSpline
 70
8
 71
3
 72
8
 73
4
 74
0
 40
0
 40
0
 40
0
 40
0
 40
1
 40
1
 40
1
 40
1
 10
832.670420
 20
927.687050
 30
0.0
 10
820.649748
 20
869.192738
 30
0.0
 10
711.958001
 20
843.868996
 30
0.0
 10
755.421634
 20
776.216423
 30
0.0
  0
SPLINE
  5
13b
100
AcDbEntity
  8
0
 62
7
100
AcDbSpline
 70
8
 71
3
 72
8
 73
4
 74
0
 40
0
 40
0
 40
0
 40
0
 40
1
 40
1
 40
1
 40
1
 10
755.421634
 20
776.216423
 30
0.0
 10
794.140392
 20
759.508947
 30
0.0
 10
792.865252
 20
870.032346
 30
0.0
 10
818.549518
 20
802.805626
 30
0.0
  0
SPLINE
  5
13c
100
AcDbEntity
  8
0
 62
7
100
AcDbSpline
 70
8
 71
3
 72
8
 73
4
 74
0
 40
0
 40
0
 40
0
 40
0
 40
1
 40
1
 40
1
 40
1
 10
818.549518
 20
802.805626
 30
0.0
 10
838.475088
 20
770.114141
 30
0.0
 10
888.055520
 20
734.342480
 30
0.0
 10
925.508817
 20
756.145676
 30
0.0
  0
LWPOLYLINE
  5
13d
100
AcDbEntity
  8
0
 62
7
100
AcDbPolyline
 90
1
 70
1
 10
787.077521
 20
689.506923
 30
0.0
  0
SPLINE
  5
13e
100
AcDbEntity
  8
0
 62
7
100
AcDbSpline
 70
8
 71
3
 72
8
 73
4
 74
0
 40
0
 40
0
 40
0
 40
0
 40
1
 40
1
 40
1
 40
1
 10
636.913489
 20
757.568412
 30
0.0
 10
674.601489
 20
789.207362
 30
0.0
 10
761.678771
 20
821.492351
 30
0.0
 10
734.547573
 20
894.864906
 30
0.0
  0
SPLINE
  5
13f
100
AcDbEntity
  8
0
 62
7
100
AcDbSpline
 70
8
 71
3
 72
8
 73
4
 74
0
 40
0
 40
0
 40
0
 40
0
 40
1
 40
1
 40
1
 40
1
 10
734.547573
 20
894.864906
 30
0.0
 10
681.889384
 20
923.646285
 30
0.0
 10
691.969521
 20
781.767031
 30
0.0
 10
627.767326
 20
825.504081
 30
0.0
  0
SPLINE
  5
140
100
AcDbEntity
  8
0
 62
7
100
AcDbSpline
 70
8
 71
3
 72
8
 73
4
 74
0
 40
0
 40
0
 40
0
 40
0
 40
1
 40
1
 40
1
 40
1
 10
627.767326
 20
825.504081
 30
0.0
 10
618.647778
 20
874.566714
 30
0.0
 10
485.198480
 20
902.566556
 30
0.0
 10
528.749219
 20
838.064328
 30
0.0
  0
SPLINE
  5
141
100
AcDbEntity
  8
0
 62
7
100
AcDbSpline
 70
8
 71
3
 72
8
 73
4
 74
0
 40
0
 40
0
 40
0
 40
0
 40
1
 40
1
 40
1
 40
1
 10
528.749219
 20
838.064328
 30
0.0
 10
605.514081
 20
854.164479
 30
0.0
 10
580.601674
 20
732.385008
 30
0.0
 10
636.913489
 20
757.568412
 30
0.0
  0
LWPOLYLINE
  5
142
100
AcDbEntity
  8
0
 62
7
100
AcDbPolyline
 90
1
 70
1
 10
925.508817
 20
756.145676
 30
0.0
  0
SPLINE
  5
143
100
AcDbEntity
  8
0
 62
7
100
AcDbSpline
 70
8
 71
3
 72
8
 73
4
 74
0
 40
0
 40
0
 40
0
 40
0
 40
1
 40
1
 40
1
 40
1
 10
1013.735418
 20
996.179231
 30
0.0
 10
1020.183705
 20
1056.226939
 30
0.0
 10
964.525188
 20
1021.193262
 30
0.0
 10
957.184061
 20
985.484511
 30
0.0
  0
SPLINE
  5
144
100
AcDbEntity
  8
0
 62
7
100
AcDbSpline
 70
8
 71
3
 72
8
 73
4
 74
0
 40
0
 40
0
 40
0
 40
0
 40
1
 40
1
 40
1
 40
1
 10
957.184061
 20
985.484511
 30
0.0
 10
817.646999
 20
987.154049
 30
0.0
 10
677.730057
 20
982.256738
 30
0.0
 10
538.493029
 20
989.854345
 30
0.0
  0
SPLINE
  5
145
100
AcDbEntity
  8
0
 62
7
100
AcDbSpline
 70
8
 71
3
 72
8
 73
4
 74
0
 40
0
 40
0
 40
0
 40
0
 40
1
 40
1
 40
1
 40
1
 10
538.493029
 20
989.854345
 30
0.0
 10
460.414313
 20
1015.640234
 30
0.0
 10
484.828278
 20
1111.263614
 30
0.0
 10
539.085836
 20
1145.566566
 30
0.0
  0
SPLINE
  5
146
100
AcDbEntity
  8
0
 62
7
100
AcDbSpline
 70
8
 71
3
 72
8
 73
4
 74
0
 40
0
 40
0
 40
0
 40
0
 40
1
 40
1
 40
1
 40
1
 10
539.085836
 20
1145.566566
 30
0.0
 10
563.770798
 20
1215.798454
 30
0.0
 10
651.740920
 20
1174.795574
 30
0.0
 10
682.699957
 20
1238.777584
 30
0.0
  0
SPLINE
  5
147
100
AcDbEntity
  8
0
 62
7
100
AcDbSpline
 70
8
 71
3
 72
8
 73
4
 74
0
 40
0
 40
0
 40
0
 40
0
 40
1
 40
1
 40
1
 40
1
 10
682.699957
 20
1238.777584
 30
0.0
 10
766.699482
 20
1277.133399
 30
0.0
 10
667.807196
 20
1156.585515
 30
0.0
 10
737.768087
 20
1161.543316
 30
0.0
  0
SPLINE
  5
148
100
AcDbEntity
  8
0
 62
7
100
AcDbSpline
 70
8
 71
3
 72
8
 73
4
 74
0
 40
0
 40
0
 40
0
 40
0
 40
1
 40
1
 40
1
 40
1
 10
737.768087
 20
1161.543316
 30
0.0
 10
753.318984
 20
1209.754243
 30
0.0
 10
805.546480
 20
1279.751428
 30
0.0
 10
861.715537
 20
1222.464507
 30
0.0
  0
SPLINE
  5
149
100
AcDbEntity
  8
0
 62
7
100
AcDbSpline
 70
8
 71
3
 72
8
 73
4
 74
0
 40
0
 40
0
 40
0
 40
0
 40
1
 40
1
 40
1
 40
1
 10
861.715537
 20
1222.464507
 30
0.0
 10
911.808929
 20
1224.167919
 30
0.0
 10
1000.018593
 20
1203.489847
 30
0.0
 10
967.041593
 20
1128.464692
 30
0.0
  0
SPLINE
  5
14a
100
AcDbEntity
  8
0
 62
7
100
AcDbSpline
 70
8
 71
3
 72
8
 73
4
 74
0
 40
0
 40
0
 40
0
 40
0
 40
1
 40
1
 40
1
 40
1
 10
967.041593
 20
1128.464692
 30
0.0
 10
957.232453
 20
1093.133402
 30
0.0
 10
846.239648
 20
1086.261681
 30
0.0
 10
911.223381
 20
1051.332048
 30
0.0
  0
SPLINE
  5
14b
100
AcDbEntity
  8
0
 62
7
100
AcDbSpline
 70
8
 71
3
 72
8
 73
4
 74
0
 40
0
 40
0
 40
0
 40
0
 40
1
 40
1
 40
1
 40
1
 10
911.223381
 20
1051.332048
 30
0.0
 10
973.347122
 20
1044.583728
 30
0.0
 10
1001.499400
 20
1109.037564
 30
0.0
 10
1026.961061
 20
1145.581083
 30
0.0
  0
SPLINE
  5
14c
100
AcDbEntity
  8
0
 62
7
100
AcDbSpline
 70
8
 71
3
 72
8
 73
4
 74
0
 40
0
 40
0
 40
0
 40
0
 40
1
 40
1
 40
1
 40
1
 10
1026.961061
 20
1145.581083
 30
0.0
 10
1093.135246
 20
1142.779163
 30
0.0
 10
1063.632820
 20
1078.664075
 30
0.0
 10
1036.327409
 20
1052.408779
 30
0.0
  0
SPLINE
  5
14d
100
AcDbEntity
  8
0
 62
7
100
AcDbSpline
 70
8
 71
3
 72
8
 73
4
 74
0
 40
0
 40
0
 40
0
 40
0
 40
1
 40
1
 40
1
 40
1
 10
1036.327409
 20
1052.408779
 30
0.0
 10
1057.823313
 20
988.794551
 30
0.0
 10
1118.202508
 20
1116.811802
 30
0.0
 10
1115.932905
 20
1026.201875
 30
0.0
  0
SPLINE
  5
14e
100
AcDbEntity
  8
0
 62
7
100
AcDbSpline
 70
8
 71
3
 72
8
 73
4
 74
0
 40
0
 40
0
 40
0
 40
0
 40
1
 40
1
 40
1
 40
1
 10
1115.932905
 20
1026.201875
 30
0.0
 10
1126.400181
 20
966.384031
 30
0.0
 10
1053.330079
 20
987.134692
 30
0.0
 10
1016.128422
 20
983.498003
 30
0.0
  0
SPLINE
  5
14f
100
AcDbEntity
  8
0
 62
7
100
AcDbSpline
 70
8
 71
3
 72
8
 73
4
 74
0
 40
0
 40
0
 40
0
 40
0
 40
1
 40
1
 40
1
 40
1
 10
1016.128422
 20
983.498003
 30
0.0
 10
1004.787664
 20
980.647691
 30
0.0
 10
1014.178208
 20
990.851228
 30
0.0
 10
1013.735418
 20
996.179231
 30
0.0
  0
LWPOLYLINE
  5
150
100
AcDbEntity
  8
0
 62
7
100
AcDbPolyline
 90
1
 70
1
 10
636.913489
 20
757.568412
 30
0.0
  0
SPLINE
  5
151
100
AcDbEntity
  8
0
 62
7
100
AcDbSpline
 70
8
 71
3
 72
8
 73
4
 74
0
 40
0
 40
0
 40
0
 40
0
 40
1
 40
1
 40
1
 40
1
 10
757.471052
 20
996.179231
 30
0.0
 10
779.237953
 20
1046.971893
 30
0.0
 10
729.330872
 20
1106.934914
 30
0.0
 10
678.216401
 20
1115.897186
 30
0.0
  0
SPLINE
  5
152
100
AcDbEntity
  8
0
 62
7
100
AcDbSpline
 70
8
 71
3
 72
8
 73
4
 74
0
 40
0
 40
0
 40
0
 40
0
 40
1
 40
1
 40
1
 40
1
 10
678.216401
 20
1115.897186
 30
0.0
 10
661.709754
 20
1144.465639
 30
0.0
 10
619.707572
 20
1152.556848
 30
0.0
 10
621.974755
 20
1103.786988
 30
0.0
  0
SPLINE
  5
153
100
AcDbEntity
  8
0
 62
7
100
AcDbSpline
 70
8
 71
3
 72
8
 73
4
 74
0
 40
0
 40
0
 40
0
 40
0
 40
1
 40
1
 40
1
 40
1
 10
621.974755
 20
1103.786988
 30
0.0
 10
621.841676
 20
1056.556007
 30
0.0
 10
491.424162
 20
1052.868507
 30
0.0
 10
563.787735
 20
1014.960321
 30
0.0
  0
SPLINE
  5
154
100
AcDbEntity
  8
0
 62
7
100
AcDbSpline
 70
8
 71
3
 72
8
 73
4
 74
0
 40
0
 40
0
 40
0
 40
0
 40
1
 40
1
 40
1
 40
1
 10
563.787735
 20
1014.960321
 30
0.0
 10
626.809156
 20
1002.603322
 30
0.0
 10
661.874288
 20
1125.399034
 30
0.0
 10
711.902350
 20
1044.244981
 30
0.0
  0
SPLINE
  5
155
100
AcDbEntity
  8
0
 62
7
100
AcDbSpline
 70
8
 71
3
 72
8
 73
4
 74
0
 40
0
 40
0
 40
0
 40
0
 40
1
 40
1
 40
1
 40
1
 10
711.902350
 20
1044.244981
 30
0.0
 10
723.664122
 20
1025.025940
 30
0.0
 10
720.363761
 20
971.670901
 30
0.0
 10
757.471052
 20
996.179231
 30
0.0
  0
LWPOLYLINE
  5
156
100
AcDbEntity
  8
0
 62
7
100
AcDbPolyline
 90
1
 70
1
 10
1013.735418
 20
996.179231
 30
0.0
  0
SPLINE
  5
157
100
AcDbEntity
  8
0
 62
7
100
AcDbSpline
 70
8
 71
3
 72
8
 73
4
 74
0
 40
0
 40
0
 40
0
 40
0
 40
1
 40
1
 40
1
 40
1
 10
876.192123
 20
1018.563135
 30
0.0
 10
889.896850
 20
1056.514874
 30
0.0
 10
826.207615
 20
1116.947301
 30
0.0
 10
889.698442
 20
1148.912900
 30
0.0
  0
SPLINE
  5
158
100
AcDbEntity
  8
0
 62
7
100
AcDbSpline
 70
8
 71
3
 72
8
 73
4
 74
0
 40
0
 40
0
 40
0
 40
0
 40
1
 40
1
 40
1
 40
1
 10
889.698442
 20
1148.912900
 30
0.0
 10
935.455874
 20
1144.864876
 30
0.0
 10
970.387927
 20
1208.621861
 30
0.0
 10
905.302571
 20
1199.901551
 30
0.0
  0
SPLINE
  5
159
100
AcDbEntity
  8
0
 62
7
100
AcDbSpline
 70
8
 71
3
 72
8
 73
4
 74
0
 40
0
 40
0
 40
0
 40
0
 40
1
 40
1
 40
1
 40
1
 10
905.302571
 20
1199.901551
 30
0.0
 10
860.718654
 20
1199.214379
 30
0.0
 10
831.702572
 20
1147.465967
 30
0.0
 10
816.354922
 20
1123.056841
 30
0.0
  0
SPLINE
  5
15a
100
AcDbEntity
  8
0
 62
7
100
AcDbSpline
 70
8
 71
3
 72
8
 73
4
 74
0
 40
0
 40
0
 40
0
 40
0
 40
1
 40
1
 40
1
 40
1
 10
816.354922
 20
1123.056841
 30
0.0
 10
800.024907
 20
1142.979992
 30
0.0
 10
787.150110
 20
1206.734557
 30
0.0
 10
756.389482
 20
1160.619021
 30
0.0
  0
SPLINE
  5
15b
100
AcDbEntity
  8
0
 62
7
100
AcDbSpline
 70
8
 71
3
 72
8
 73
4
 74
0
 40
0
 40
0
 40
0
 40
0
 40
1
 40
1
 40
1
 40
1
 10
756.389482
 20
1160.619021
 30
0.0
 10
757.519444
 20
1093.963331
 30
0.0
 10
830.122560
 20
1075.182242
 30
0.0
 10
852.063673
 20
1018.021140
 30
0.0
  0
SPLINE
  5
15c
100
AcDbEntity
  8
0
 62
7
100
AcDbSpline
 70
8
 71
3
 72
8
 73
4
 74
0
 40
0
 40
0
 40
0
 40
0
 40
1
 40
1
 40
1
 40
1
 10
852.063673
 20
1018.021140
 30
0.0
 10
858.492603
 20
1011.410739
 30
0.0
 10
870.075324
 20
1011.703513
 30
0.0
 10
876.192123
 20
1018.563135
 30
0.0
  0
LWPOLYLINE
  5
15d
100
AcDbEntity
  8
0
 62
7
100
AcDbPolyline
 90
1
 70
1
 10
757.471052
 20
996.179231
 30
0.0
  0
SPLINE
  5
15e
100
AcDbEntity
  8
0
 62
7
100
AcDbSpline
 70
8
 71
3
 72
8
 73
4
 74
0
 40
0
 40
0
 40
0
 40
0
 40
1
 40
1
 40
1
 40
1
 10
1201.589870
 20
525.851090
 30
0.0
 10
1213.971065
 20
578.199567
 30
0.0
 10
1121.268167
 20
603.247473
 30
0.0
 10
1089.273533
 20
641.194372
 30
0.0
  0
SPLINE
  5
15f
100
AcDbEntity
  8
0
 62
7
100
AcDbSpline
 70
8
 71
3
 72
8
 73
4
 74
0
 40
0
 40
0
 40
0
 40
0
 40
1
 40
1
 40
1
 40
1
 10
1089.273533
 20
641.194372
 30
0.0
 10
1017.689077
 20
651.995555
 30
0.0
 10
1096.556589
 20
583.021870
 30
0.0
 10
1122.151328
 20
569.145349
 30
0.0
  0
SPLINE
  5
160
100
AcDbEntity
  8
0
 62
7
100
AcDbSpline
 70
8
 71
3
 72
8
 73
4
 74
0
 40
0
 40
0
 40
0
 40
0
 40
1
 40
1
 40
1
 40
1
 10
1122.151328
 20
569.145349
 30
0.0
 10
1146.308814
 20
554.649406
 30
0.0
 10
1170.582441
 20
519.889146
 30
0.0
 10
1201.589870
 20
525.851090
 30
0.0
  0
LWPOLYLINE
  5
161
100
AcDbEntity
  8
0
 62
7
100
AcDbPolyline
 90
1
 70
1
 10
876.192123
 20
1018.563135
 30
0.0
  0
SPLINE
  5
162
100
AcDbEntity
  8
0
 62
7
100
AcDbSpline
 70
8
 71
3
 72
8
 73
4
 74
0
 40
0
 40
0
 40
0
 40
0
 40
1
 40
1
 40
1
 40
1
 10
297.133521
 20
646.960326
 30
0.0
 10
340.921383
 20
681.977066
 30
0.0
 10
402.737833
 20
700.845262
 30
0.0
 10
435.097830
 20
746.397027
 30
0.0
  0
SPLINE
  5
163
100
AcDbEntity
  8
0
 62
7
100
AcDbSpline
 70
8
 71
3
 72
8
 73
4
 74
0
 40
0
 40
0
 40
0
 40
0
 40
1
 40
1
 40
1
 40
1
 10
435.097830
 20
746.397027
 30
0.0
 10
416.348195
 20
787.532985
 30
0.0
 10
365.548275
 20
735.153053
 30
0.0
 10
339.893045
 20
722.641198
 30
0.0
  0
SPLINE
  5
164
100
AcDbEntity
  8
0
 62
7
100
AcDbSpline
 70
8
 71
3
 72
8
 73
4
 74
0
 40
0
 40
0
 40
0
 40
0
 40
1
 40
1
 40
1
 40
1
 10
339.893045
 20
722.641198
 30
0.0
 10
315.919450
 20
697.723952
 30
0.0
 10
281.933469
 20
698.403866
 30
0.0
 10
265.291323
 20
667.004458
 30
0.0
  0
SPLINE
  5
165
100
AcDbEntity
  8
0
 62
7
100
AcDbSpline
 70
8
 71
3
 72
8
 73
4
 74
0
 40
0
 40
0
 40
0
 40
0
 40
1
 40
1
 40
1
 40
1
 10
265.291323
 20
667.004458
 30
0.0
 10
261.156192
 20
648.075771
 30
0.0
 10
281.984281
 20
638.402131
 30
0.0
 10
297.133521
 20
646.960326
 30
0.0
  0
LWPOLYLINE
  5
166
100
AcDbEntity
  8
0
 62
7
100
AcDbPolyline
 90
1
 70
1
 10
1201.589870
 20
525.851090
 30
0.0
  0
SPLINE
  5
167
100
AcDbEntity
  8
0
 62
7
100
AcDbSpline
 70
8
 71
3
 72
8
 73
4
 74
0
 40
0
 40
0
 40
0
 40
0
 40
1
 40
1
 40
1
 40
1
 10
1362.976100
 20
677.943559
 30
0.0
 10
1366.953955
 20
731.780103
 30
0.0
 10
1269.019838
 20
724.109908
 30
0.0
 10
1231.339097
 20
749.607862
 30
0.0
  0
SPLINE
  5
168
100
AcDbEntity
  8
0
 62
7
100
AcDbSpline
 70
8
 71
3
 72
8
 73
4
 74
0
 40
0
 40
0
 40
0
 40
0
 40
1
 40
1
 40
1
 40
1
 10
1231.339097
 20
749.607862
 30
0.0
 10
1183.048323
 20
785.853769
 30
0.0
 10
1156.551065
 20
717.889065
 30
0.0
 10
1218.940965
 20
716.391320
 30
0.0
  0
SPLINE
  5
169
100
AcDbEntity
  8
0
 62
7
100
AcDbSpline
 70
8
 71
3
 72
8
 73
4
 74
0
 40
0
 40
0
 40
0
 40
0
 40
1
 40
1
 40
1
 40
1
 10
1218.940965
 20
716.391320
 30
0.0
 10
1265.475095
 20
705.043303
 30
0.0
 10
1315.880617
 20
669.245026
 30
0.0
 10
1362.976100
 20
677.943559
 30
0.0
  0
LWPOLYLINE
  5
16a
100
AcDbEntity
  8
0
 62
7
100
AcDbPolyline
 90
1
 70
1
 10
297.133521
 20
646.960326
 30
0.0
  0
SPLINE
  5
16b
100
AcDbEntity
  8
0
 62
7
100
AcDbSpline
 70
8
 71
3
 72
8
 73
4
 74
0
 40
0
 40
0
 40
0
 40
0
 40
1
 40
1
 40
1
 40
1
 10
224.269087
 20
868.413621
 30
0.0
 10
271.575076
 20
892.094441
 30
0.0
 10
349.123895
 20
879.805191
 30
0.0
 10
378.190789
 20
924.449598
 30
0.0
  0
SPLINE
  5
16c
100
AcDbEntity
  8
0
 62
7
100
AcDbSpline
 70
8
 71
3
 72
8
 73
4
 74
0
 40
0
 40
0
 40
0
 40
0
 40
1
 40
1
 40
1
 40
1
 10
378.190789
 20
924.449598
 30
0.0
 10
338.685654
 20
959.715559
 30
0.0
 10
261.090863
 20
905.153130
 30
0.0
 10
208.316532
 20
901.192212
 30
0.0
  0
SPLINE
  5
16d
100
AcDbEntity
  8
0
 62
7
100
AcDbSpline
 70
8
 71
3
 72
8
 73
4
 74
0
 40
0
 40
0
 40
0
 40
0
 40
1
 40
1
 40
1
 40
1
 10
208.316532
 20
901.192212
 30
0.0
 10
176.002508
 20
894.714889
 30
0.0
 10
198.751775
 20
854.769384
 30
0.0
 10
224.269087
 20
868.413621
 30
0.0
  0
LWPOLYLINE
  5
16e
100
AcDbEntity
  8
0
 62
7
100
AcDbPolyline
 90
1
 70
1
 10
1362.976100
 20
677.943559
 30
0.0
  0
SPLINE
  5
16f
100
AcDbEntity
  8
0
 62
7
100
AcDbSpline
 70
8
 71
3
 72
8
 73
4
 74
0
 40
0
 40
0
 40
0
 40
0
 40
1
 40
1
 40
1
 40
1
 10
1281.918832
 20
906.776695
 30
0.0
 10
1313.410185
 20
917.321398
 30
0.0
 10
1435.903444
 20
895.956154
 30
0.0
 10
1393.156019
 20
950.455673
 30
0.0
  0
SPLINE
  5
170
100
AcDbEntity
  8
0
 62
7
100
AcDbSpline
 70
8
 71
3
 72
8
 73
4
 74
0
 40
0
 40
0
 40
0
 40
0
 40
1
 40
1
 40
1
 40
1
 10
1393.156019
 20
950.455673
 30
0.0
 10
1332.641325
 20
948.568370
 30
0.0
 10
1271.809660
 20
942.093467
 30
0.0
 10
1212.023271
 20
933.658672
 30
0.0
  0
SPLINE
  5
171
100
AcDbEntity
  8
0
 62
7
100
AcDbSpline
 70
8
 71
3
 72
8
 73
4
 74
0
 40
0
 40
0
 40
0
 40
0
 40
1
 40
1
 40
1
 40
1
 10
1212.023271
 20
933.658672
 30
0.0
 10
1185.136455
 20
882.761967
 30
0.0
 10
1257.376627
 20
909.614909
 30
0.0
 10
1281.918832
 20
906.776695
 30
0.0
  0
LWPOLYLINE
  5
172
100
AcDbEntity
  8
0
 62
7
100
AcDbPolyline
 90
1
 70
1
 10
224.269087
 20
868.413621
 30
0.0
  0
SPLINE
  5
173
100
AcDbEntity
  8
0
 62
7
100
AcDbSpline
 70
8
 71
3
 72
8
 73
4
 74
0
 40
0
 40
0
 40
0
 40
0
 40
1
 40
1
 40
1
 40
1
 10
413.945512
 20
1141.438694
 30
0.0
 10
424.393431
 20
1192.785449
 30
0.0
 10
330.253279
 20
1188.154296
 30
0.0
 10
296.485063
 20
1212.669885
 30
0.0
  0
SPLINE
  5
174
100
AcDbEntity
  8
0
 62
7
100
AcDbSpline
 70
8
 71
3
 72
8
 73
4
 74
0
 40
0
 40
0
 40
0
 40
0
 40
1
 40
1
 40
1
 40
1
 10
296.485063
 20
1212.669885
 30
0.0
 10
260.761794
 20
1249.065808
 30
0.0
 10
197.198379
 20
1203.235787
 30
0.0
 10
260.839222
 20
1186.063744
 30
0.0
  0
SPLINE
  5
175
100
AcDbEntity
  8
0
 62
7
100
AcDbSpline
 70
8
 71
3
 72
8
 73
4
 74
0
 40
0
 40
0
 40
0
 40
0
 40
1
 40
1
 40
1
 40
1
 10
260.839222
 20
1186.063744
 30
0.0
 10
311.036657
 20
1172.499355
 30
0.0
 10
362.124512
 20
1136.599454
 30
0.0
 10
413.945512
 20
1141.438694
 30
0.0
  0
LWPOLYLINE
  5
176
100
AcDbEntity
  8
0
 62
7
100
AcDbPolyline
 90
1
 70
1
 10
1281.918832
 20
906.776695
 30
0.0
  0
SPLINE
  5
177
100
AcDbEntity
  8
0
 62
7
100
AcDbSpline
 70
8
 71
3
 72
8
 73
4
 74
0
 40
0
 40
0
 40
0
 40
0
 40
1
 40
1
 40
1
 40
1
 10
1203.281184
 20
1148.051515
 30
0.0
 10
1253.602020
 20
1180.191327
 30
0.0
 10
1329.759557
 20
1183.080353
 30
0.0
 10
1367.299960
 20
1228.220782
 30
0.0
  0
SPLINE
  5
178
100
AcDbEntity
  8
0
 62
7
100
AcDbSpline
 70
8
 71
3
 72
8
 73
4
 74
0
 40
0
 40
0
 40
0
 40
0
 40
1
 40
1
 40
1
 40
1
 10
1367.299960
 20
1228.220782
 30
0.0
 10
1337.606385
 20
1270.392338
 30
0.0
 10
1275.119700
 20
1211.922223
 30
0.0
 10
1234.910456
 20
1203.809237
 30
0.0
  0
SPLINE
  5
179
100
AcDbEntity
  8
0
 62
7
100
AcDbSpline
 70
8
 71
3
 72
8
 73
4
 74
0
 40
0
 40
0
 40
0
 40
0
 40
1
 40
1
 40
1
 40
1
 10
1234.910456
 20
1203.809237
 30
0.0
 10
1214.537256
 20
1195.809973
 30
0.0
 10
1159.790936
 20
1183.015023
 30
0.0
 10
1177.081540
 20
1146.747340
 30
0.0
  0
SPLINE
  5
17a
100
AcDbEntity
  8
0
 62
7
100
AcDbSpline
 70
8
 71
3
 72
8
 73
4
 74
0
 40
0
 40
0
 40
0
 40
0
 40
1
 40
1
 40
1
 40
1
 10
1177.081540
 20
1146.747340
 30
0.0
 10
1185.601022
 20
1143.991393
 30
0.0
 10
1195.006084
 20
1144.930206
 30
0.0
 10
1203.281184
 20
1148.051515
 30
0.0
  0
LWPOLYLINE
  5
17b
100
AcDbEntity
  8
0
 62
7
100
AcDbPolyline
 90
1
 70
1
 10
413.945512
 20
1141.438694
 30
0.0
  0
SPLINE
  5
17c
100
AcDbEntity
  8
0
 62
7
100
AcDbSpline
 70
8
 71
3
 72
8
 73
4
 74
0
 40
0
 40
0
 40
0
 40
0
 40
1
 40
1
 40
1
 40
1
 10
515.828449
 20
1239.014707
 30
0.0
 10
516.997125
 20
1294.876472
 30
0.0
 10
432.349142
 20
1326.406539
 30
0.0
 10
400.840851
 20
1371.769574
 30
0.0
  0
SPLINE
  5
17d
100
AcDbEntity
  8
0
 62
7
100
AcDbSpline
 70
8
 71
3
 72
8
 73
4
 74
0
 40
0
 40
0
 40
0
 40
0
 40
1
 40
1
 40
1
 40
1
 10
400.840851
 20
1371.769574
 30
0.0
 10
370.689967
 20
1418.296445
 30
0.0
 10
326.243969
 20
1368.234509
 30
0.0
 10
375.105773
 20
1343.351138
 30
0.0
  0
SPLINE
  5
17e
100
AcDbEntity
  8
0
 62
7
100
AcDbSpline
 70
8
 71
3
 72
8
 73
4
 74
0
 40
0
 40
0
 40
0
 40
0
 40
1
 40
1
 40
1
 40
1
 10
375.105773
 20
1343.351138
 30
0.0
 10
421.567315
 20
1313.839034
 30
0.0
 10
460.075566
 20
1235.927272
 30
0.0
 10
515.828449
 20
1239.014707
 30
0.0
  0
LWPOLYLINE
  5
17f
100
AcDbEntity
  8
0
 62
7
100
AcDbPolyline
 90
1
 70
1
 10
1203.281184
 20
1148.051515
 30
0.0
  0
SPLINE
  5
180
100
AcDbEntity
  8
0
 62
7
100
AcDbSpline
 70
8
 71
3
 72
8
 73
4
 74
0
 40
0
 40
0
 40
0
 40
0
 40
1
 40
1
 40
1
 40
1
 10
1061.733419
 20
1285.132663
 30
0.0
 10
1106.346371
 20
1333.389563
 30
0.0
 10
1165.186688
 20
1376.947561
 30
0.0
 10
1196.830478
 20
1432.850459
 30
0.0
  0
SPLINE
  5
181
100
AcDbEntity
  8
0
 62
7
100
AcDbSpline
 70
8
 71
3
 72
8
 73
4
 74
0
 40
0
 40
0
 40
0
 40
0
 40
1
 40
1
 40
1
 40
1
 10
1196.830478
 20
1432.850459
 30
0.0
 10
1163.555864
 20
1483.464069
 30
0.0
 10
1116.315205
 20
1388.876287
 30
0.0
 10
1085.082751
 20
1367.600569
 30
0.0
  0
SPLINE
  5
182
100
AcDbEntity
  8
0
 62
7
100
AcDbSpline
 70
8
 71
3
 72
8
 73
4
 74
0
 40
0
 40
0
 40
0
 40
0
 40
1
 40
1
 40
1
 40
1
 10
1085.082751
 20
1367.600569
 30
0.0
 10
1066.654925
 20
1350.084940
 30
0.0
 10
991.298282
 20
1281.244333
 30
0.0
 10
1061.733419
 20
1285.132663
 30
0.0
  0
LWPOLYLINE
  5
183
100
AcDbEntity
  8
0
 62
7
100
AcDbPolyline
 90
1
 70
1
 10
515.828449
 20
1239.014707
 30
0.0
  0
SPLINE
  5
184
100
AcDbEntity
  8
0
 62
7
100
AcDbSpline
 70
8
 71
3
 72
8
 73
4
 74
0
 40
0
 40
0
 40
0
 40
0
 40
1
 40
1
 40
1
 40
1
 10
625.546114
 20
1302.810406
 30
0.0
 10
623.886255
 20
1357.905152
 30
0.0
 10
610.955806
 20
1441.069908
 30
0.0
 10
569.587564
 20
1477.274681
 30
0.0
  0
SPLINE
  5
185
100
AcDbEntity
  8
0
 62
7
100
AcDbSpline
 70
8
 71
3
 72
8
 73
4
 74
0
 40
0
 40
0
 40
0
 40
0
 40
1
 40
1
 40
1
 40
1
 10
569.587564
 20
1477.274681
 30
0.0
 10
530.471989
 20
1440.523074
 30
0.0
 10
594.884691
 20
1360.581251
 30
0.0
 10
596.130795
 20
1308.361014
 30
0.0
  0
SPLINE
  5
186
100
AcDbEntity
  8
0
 62
7
100
AcDbSpline
 70
8
 71
3
 72
8
 73
4
 74
0
 40
0
 40
0
 40
0
 40
0
 40
1
 40
1
 40
1
 40
1
 10
596.130795
 20
1308.361014
 30
0.0
 10
603.931650
 20
1301.126350
 30
0.0
 10
615.674065
 20
1296.192745
 30
0.0
 10
625.546114
 20
1302.810406
 30
0.0
  0
LWPOLYLINE
  5
187
100
AcDbEntity
  8
0
 62
7
100
AcDbPolyline
 90
1
 70
1
 10
1061.733419
 20
1285.132663
 30
0.0
  0
SPLINE
  5
188
100
AcDbEntity
  8
0
 62
7
100
AcDbSpline
 70
8
 71
3
 72
8
 73
4
 74
0
 40
0
 40
0
 40
0
 40
0
 40
1
 40
1
 40
1
 40
1
 10
846.650983
 20
1350.547087
 30
0.0
 10
861.730055
 20
1407.088766
 30
0.0
 10
849.554527
 20
1472.914526
 30
0.0
 10
855.828602
 20
1533.010626
 30
0.0
  0
SPLINE
  5
189
100
AcDbEntity
  8
0
 62
7
100
AcDbSpline
 70
8
 71
3
 72
8
 73
4
 74
0
 40
0
 40
0
 40
0
 40
0
 40
1
 40
1
 40
1
 40
1
 10
855.828602
 20
1533.010626
 30
0.0
 10
873.920100
 20
1583.266132
 30
0.0
 10
805.244028
 20
1591.664633
 30
0.0
 10
815.900034
 20
1538.411218
 30
0.0
  0
SPLINE
  5
18a
100
AcDbEntity
  8
0
 62
7
100
AcDbSpline
 70
8
 71
3
 72
8
 73
4
 74
0
 40
0
 40
0
 40
0
 40
0
 40
1
 40
1
 40
1
 40
1
 10
815.900034
 20
1538.411218
 30
0.0
 10
825.554317
 20
1477.168218
 30
0.0
 10
813.219095
 20
1412.361118
 30
0.0
 10
826.197936
 20
1352.412614
 30
0.0
  0
LWPOLYLINE
  5
18b
100
AcDbEntity
  8
0
 62
7
100
AcDbPolyline
 90
1
 70
1
 10
625.546114
 20
1302.810406
 30
0.0
  0
LWPOLYLINE
  5
18c
100
AcDbEntity
  8
0
 62
7
100
AcDbPolyline
 90
3
 70
0
 10
826.197936
 20
1352.412614
 30
0.0
 10
835.365876
 20
1348.536383
 30
0.0
 10
846.650983
 20
1350.547087
 30
0.0
  0
SPLINE
  5
18d
100
AcDbEntity
  8
0
 62
7
100
AcDbSpline
 70
8
 71
3
 72
8
 73
4
 74
0
 40
0
 40
0
 40
0
 40
0
 40
1
 40
1
 40
1
 40
1
 10
1480.173706
 20
105.077950
 30
0.0
 10
1470.200956
 20
105.077950
 30
0.0
 10
1463.552207
 20
103.337950
 30
0.0
 10
1460.227457
 20
99.865450
 30
0.0
  0
SPLINE
  5
18e
100
AcDbEntity
  8
0
 62
7
100
AcDbSpline
 70
8
 71
3
 72
8
 73
4
 74
0
 40
0
 40
0
 40
0
 40
0
 40
1
 40
1
 40
1
 40
1
 10
1460.227457
 20
99.865450
 30
0.0
 10
1457.057957
 20
96.152950
 30
0.0
 10
1455.588707
 20
89.500450
 30
0.0
 10
1455.821207
 20
79.915450
 30
0.0
  0
SPLINE
  5
18f
100
AcDbEntity
  8
0
 62
7
100
AcDbSpline
 70
8
 71
3
 72
8
 73
4
 74
0
 40
0
 40
0
 40
0
 40
0
 40
1
 40
1
 40
1
 40
1
 10
1455.821207
 20
79.915450
 30
0.0
 10
1455.821207
 20
74.500451
 30
0.0
 10
1456.361957
 20
70.292951
 30
0.0
 10
1457.444207
 20
67.277951
 30
0.0
  0
SPLINE
  5
190
100
AcDbEntity
  8
0
 62
7
100
AcDbSpline
 70
8
 71
3
 72
8
 73
4
 74
0
 40
0
 40
0
 40
0
 40
0
 40
1
 40
1
 40
1
 40
1
 10
1457.444207
 20
67.277951
 30
0.0
 10
1458.526457
 20
64.105451
 30
0.0
 10
1460.420957
 20
61.742951
 30
0.0
 10
1463.126957
 20
60.197951
 30
0.0
  0
SPLINE
  5
191
100
AcDbEntity
  8
0
 62
7
100
AcDbSpline
 70
8
 71
3
 72
8
 73
4
 74
0
 40
0
 40
0
 40
0
 40
0
 40
1
 40
1
 40
1
 40
1
 10
1463.126957
 20
60.197951
 30
0.0
 10
1468.074707
 20
57.647951
 30
0.0
 10
1475.689456
 20
56.447951
 30
0.0
 10
1485.971956
 20
56.605451
 30
0.0
  0
LWPOLYLINE
  5
192
100
AcDbEntity
  8
0
 62
7
100
AcDbPolyline
 90
2
 70
0
 10
1532.706705
 20
105.077950
 30
0.0
 10
1480.173706
 20
105.077950
 30
0.0
  0
SPLINE
  5
193
100
AcDbEntity
  8
0
 62
7
100
AcDbSpline
 70
8
 71
3
 72
8
 73
4
 74
0
 40
0
 40
0
 40
0
 40
0
 40
1
 40
1
 40
1
 40
1
 10
1475.186956
 20
27.385452
 30
0.0
 10
1456.555457
 20
27.227952
 30
0.0
 10
1442.870957
 20
30.625452
 30
0.0
 10
1434.134958
 20
37.585452
 30
0.0
  0
SPLINE
  5
194
100
AcDbEntity
  8
0
 62
7
100
AcDbSpline
 70
8
 71
3
 72
8
 73
4
 74
0
 40
0
 40
0
 40
0
 40
0
 40
1
 40
1
 40
1
 40
1
 10
1434.134958
 20
37.585452
 30
0.0
 10
1425.785208
 20
44.545451
 30
0.0
 10
1421.610708
 20
57.685451
 30
0.0
 10
1421.610708
 20
77.012950
 30
0.0
  0
SPLINE
  5
195
100
AcDbEntity
  8
0
 62
7
100
AcDbSpline
 70
8
 71
3
 72
8
 73
4
 74
0
 40
0
 40
0
 40
0
 40
0
 40
1
 40
1
 40
1
 40
1
 10
1421.610708
 20
77.012950
 30
0.0
 10
1421.456208
 20
88.532950
 30
0.0
 10
1423.272708
 20
98.042950
 30
0.0
 10
1427.060958
 20
105.542950
 30
0.0
  0
SPLINE
  5
196
100
AcDbEntity
  8
0
 62
7
100
AcDbSpline
 70
8
 71
3
 72
8
 73
4
 74
0
 40
0
 40
0
 40
0
 40
0
 40
1
 40
1
 40
1
 40
1
 10
1427.060958
 20
105.542950
 30
0.0
 10
1431.003708
 20
112.810449
 30
0.0
 10
1439.082707
 20
117.220449
 30
0.0
 10
1451.297957
 20
118.765449
 30
0.0
  0
LWPOLYLINE
  5
197
100
AcDbEntity
  8
0
 62
7
100
AcDbPolyline
 90
3
 70
0
 10
1485.971956
 20
56.605451
 30
0.0
 10
1532.706705
 20
56.605451
 30
0.0
 10
1532.706705
 20
105.077950
 30
0.0
  0
SPLINE
  5
198
100
AcDbEntity
  8
0
 62
7
100
AcDbSpline
 70
8
 71
3
 72
8
 73
4
 74
0
 40
0
 40
0
 40
0
 40
0
 40
1
 40
1
 40
1
 40
1
 10
1451.297957
 20
119.807949
 30
0.0
 10
1440.629207
 20
122.432949
 30
0.0
 10
1433.632458
 20
127.075449
 30
0.0
 10
1430.308458
 20
133.720449
 30
0.0
  0
SPLINE
  5
199
100
AcDbEntity
  8
0
 62
7
100
AcDbSpline
 70
8
 71
3
 72
8
 73
4
 74
0
 40
0
 40
0
 40
0
 40
0
 40
1
 40
1
 40
1
 40
1
 10
1430.308458
 20
133.720449
 30
0.0
 10
1427.138208
 20
140.372949
 30
0.0
 10
1425.669708
 20
148.877948
 30
0.0
 10
1425.901458
 20
159.235448
 30
0.0
  0
SPLINE
  5
19a
100
AcDbEntity
  8
0
 62
7
100
AcDbSpline
 70
8
 71
3
 72
8
 73
4
 74
0
 40
0
 40
0
 40
0
 40
0
 40
1
 40
1
 40
1
 40
1
 10
1425.901458
 20
159.235448
 30
0.0
 10
1425.901458
 20
178.330447
 30
0.0
 10
1430.231208
 20
190.975447
 30
0.0
 10
1438.889957
 20
197.155447
 30
0.0
  0
SPLINE
  5
19b
100
AcDbEntity
  8
0
 62
7
100
AcDbSpline
 70
8
 71
3
 72
8
 73
4
 74
0
 40
0
 40
0
 40
0
 40
0
 40
1
 40
1
 40
1
 40
1
 10
1438.889957
 20
197.155447
 30
0.0
 10
1447.625957
 20
203.035447
 30
0.0
 10
1460.768957
 20
205.817947
 30
0.0
 10
1478.318206
 20
205.510447
 30
0.0
  0
LWPOLYLINE
  5
19c
100
AcDbEntity
  8
0
 62
7
100
AcDbPolyline
 90
2
 70
0
 10
1451.297957
 20
118.765449
 30
0.0
 10
1451.297957
 20
119.807949
 30
0.0
  0
LWPOLYLINE
  5
19d
100
AcDbEntity
  8
0
 62
7
100
AcDbPolyline
 90
4
 70
0
 10
1478.318206
 20
205.510447
 30
0.0
 10
1566.917204
 20
205.510447
 30
0.0
 10
1566.917204
 20
27.385452
 30
0.0
 10
1475.186956
 20
27.385452
 30
0.0
  0
SPLINE
  5
19e
100
AcDbEntity
  8
0
 62
7
100
AcDbSpline
 70
8
 71
3
 72
8
 73
4
 74
0
 40
0
 40
0
 40
0
 40
0
 40
1
 40
1
 40
1
 40
1
 10
1484.464456
 20
176.282948
 30
0.0
 10
1480.212706
 20
176.282948
 30
0.0
 10
1476.501706
 20
176.207948
 30
0.0
 10
1473.331456
 20
176.050448
 30
0.0
  0
SPLINE
  5
19f
100
AcDbEntity
  8
0
 62
7
100
AcDbSpline
 70
8
 71
3
 72
8
 73
4
 74
0
 40
0
 40
0
 40
0
 40
0
 40
1
 40
1
 40
1
 40
1
 10
1473.331456
 20
176.050448
 30
0.0
 10
1470.161956
 20
175.742948
 30
0.0
 10
1467.649457
 20
174.850448
 30
0.0
 10
1465.793957
 20
173.387948
 30
0.0
  0
SPLINE
  5
1a0
100
AcDbEntity
  8
0
 62
7
100
AcDbSpline
 70
8
 71
3
 72
8
 73
4
 74
0
 40
0
 40
0
 40
0
 40
0
 40
1
 40
1
 40
1
 40
1
 10
1465.793957
 20
173.387948
 30
0.0
 10
1461.928457
 20
170.912948
 30
0.0
 10
1459.995707
 20
165.070448
 30
0.0
 10
1459.995707
 20
155.875448
 30
0.0
  0
SPLINE
  5
1a1
100
AcDbEntity
  8
0
 62
7
100
AcDbSpline
 70
8
 71
3
 72
8
 73
4
 74
0
 40
0
 40
0
 40
0
 40
0
 40
1
 40
1
 40
1
 40
1
 10
1459.995707
 20
155.875448
 30
0.0
 10
1459.841207
 20
146.515448
 30
0.0
 10
1461.271457
 20
140.027949
 30
0.0
 10
1464.286457
 20
136.390449
 30
0.0
  0
SPLINE
  5
1a2
100
AcDbEntity
  8
0
 62
7
100
AcDbSpline
 70
8
 71
3
 72
8
 73
4
 74
0
 40
0
 40
0
 40
0
 40
0
 40
1
 40
1
 40
1
 40
1
 10
1464.286457
 20
136.390449
 30
0.0
 10
1467.610457
 20
132.760449
 30
0.0
 10
1474.027456
 20
130.937949
 30
0.0
 10
1483.536706
 20
130.937949
 30
0.0
  0
LWPOLYLINE
  5
1a3
100
AcDbEntity
  8
0
 62
7
100
AcDbPolyline
 90
2
 70
0
 10
1532.706705
 20
176.282948
 30
0.0
 10
1484.464456
 20
176.282948
 30
0.0
  0
LWPOLYLINE
  5
1a4
100
AcDbEntity
  8
0
 62
7
100
AcDbPolyline
 90
3
 70
0
 10
1483.536706
 20
130.937949
 30
0.0
 10
1532.706705
 20
130.937949
 30
0.0
 10
1532.706705
 20
176.282948
 30
0.0
  0
LWPOLYLINE
  5
1a5
100
AcDbEntity
  8
0
 62
7
100
AcDbPolyline
 90
12
 70
1
 10
1364.555210
 20
176.282948
 30
0.0
 10
1276.768462
 20
176.282948
 30
0.0
 10
1276.768462
 20
205.510447
 30
0.0
 10
1398.764959
 20
205.510447
 30
0.0
 10
1398.764959
 20
27.385452
 30
0.0
 10
1276.072462
 20
27.385452
 30
0.0
 10
1276.072462
 20
56.605451
 30
0.0
 10
1364.555210
 20
56.605451
 30
0.0
 10
1364.555210
 20
103.802950
 30
0.0
 10
1281.290962
 20
103.802950
 30
0.0
 10
1281.290962
 20
131.867949
 30
0.0
 10
1364.555210
 20
131.867949
 30
0.0
  0
SPLINE
  5
1a6
100
AcDbEntity
  8
0
 62
7
100
AcDbSpline
 70
8
 71
3
 72
8
 73
4
 74
0
 40
0
 40
0
 40
0
 40
0
 40
1
 40
1
 40
1
 40
1
 10
1025.931720
 20
155.642948
 30
0.0
 10
1025.931720
 20
168.317948
 30
0.0
 10
1027.516470
 20
178.292947
 30
0.0
 10
1030.686719
 20
185.560447
 30
0.0
  0
SPLINE
  5
1a7
100
AcDbEntity
  8
0
 62
7
100
AcDbSpline
 70
8
 71
3
 72
8
 73
4
 74
0
 40
0
 40
0
 40
0
 40
0
 40
1
 40
1
 40
1
 40
1
 10
1030.686719
 20
185.560447
 30
0.0
 10
1034.010719
 20
192.520447
 30
0.0
 10
1038.842969
 20
197.507947
 30
0.0
 10
1045.182719
 20
200.522947
 30
0.0
  0
SPLINE
  5
1a8
100
AcDbEntity
  8
0
 62
7
100
AcDbSpline
 70
8
 71
3
 72
8
 73
4
 74
0
 40
0
 40
0
 40
0
 40
0
 40
1
 40
1
 40
1
 40
1
 10
1045.182719
 20
200.522947
 30
0.0
 10
1051.289969
 20
203.687947
 30
0.0
 10
1058.789219
 20
205.585447
 30
0.0
 10
1067.679718
 20
206.200447
 30
0.0
  0
SPLINE
  5
1a9
100
AcDbEntity
  8
0
 62
7
100
AcDbSpline
 70
8
 71
3
 72
8
 73
4
 74
0
 40
0
 40
0
 40
0
 40
0
 40
1
 40
1
 40
1
 40
1
 10
1067.679718
 20
206.200447
 30
0.0
 10
1076.725468
 20
206.665447
 30
0.0
 10
1086.853468
 20
206.897947
 30
0.0
 10
1098.062967
 20
206.897947
 30
0.0
  0
SPLINE
  5
1aa
100
AcDbEntity
  8
0
 62
7
100
AcDbSpline
 70
8
 71
3
 72
8
 73
4
 74
0
 40
0
 40
0
 40
0
 40
0
 40
1
 40
1
 40
1
 40
1
 10
1098.062967
 20
206.897947
 30
0.0
 10
1124.039967
 20
207.205447
 30
0.0
 10
1142.981216
 20
202.765447
 30
0.0
 10
1154.886716
 20
193.562947
 30
0.0
  0
SPLINE
  5
1ab
100
AcDbEntity
  8
0
 62
7
100
AcDbSpline
 70
8
 71
3
 72
8
 73
4
 74
0
 40
0
 40
0
 40
0
 40
0
 40
1
 40
1
 40
1
 40
1
 10
1154.886716
 20
193.562947
 30
0.0
 10
1166.870215
 20
183.820447
 30
0.0
 10
1172.784715
 20
164.995448
 30
0.0
 10
1172.630215
 20
137.087949
 30
0.0
  0
LWPOLYLINE
  5
1ac
100
AcDbEntity
  8
0
 62
7
100
AcDbPolyline
 90
2
 70
0
 10
1025.931720
 20
145.900448
 30
0.0
 10
1025.931720
 20
155.642948
 30
0.0
  0
SPLINE
  5
1ad
100
AcDbEntity
  8
0
 62
7
100
AcDbSpline
 70
8
 71
3
 72
8
 73
4
 74
0
 40
0
 40
0
 40
0
 40
0
 40
1
 40
1
 40
1
 40
1
 10
1172.630215
 20
96.265450
 30
0.0
 10
1173.093715
 20
70.442951
 30
0.0
 10
1168.416715
 20
51.925451
 30
0.0
 10
1158.597716
 20
40.720452
 30
0.0
  0
SPLINE
  5
1ae
100
AcDbEntity
  8
0
 62
7
100
AcDbSpline
 70
8
 71
3
 72
8
 73
4
 74
0
 40
0
 40
0
 40
0
 40
0
 40
1
 40
1
 40
1
 40
1
 10
1158.597716
 20
40.720452
 30
0.0
 10
1148.779466
 20
29.432952
 30
0.0
 10
1128.601467
 20
24.520452
 30
0.0
 10
1098.062967
 20
25.990452
 30
0.0
  0
SPLINE
  5
1af
100
AcDbEntity
  8
0
 62
7
100
AcDbSpline
 70
8
 71
3
 72
8
 73
4
 74
0
 40
0
 40
0
 40
0
 40
0
 40
1
 40
1
 40
1
 40
1
 10
1098.062967
 20
25.990452
 30
0.0
 10
1086.853468
 20
26.297952
 30
0.0
 10
1076.725468
 20
26.837952
 30
0.0
 10
1067.679718
 20
27.610452
 30
0.0
  0
SPLINE
  5
1b0
100
AcDbEntity
  8
0
 62
7
100
AcDbSpline
 70
8
 71
3
 72
8
 73
4
 74
0
 40
0
 40
0
 40
0
 40
0
 40
1
 40
1
 40
1
 40
1
 10
1067.679718
 20
27.610452
 30
0.0
 10
1058.634719
 20
28.390452
 30
0.0
 10
1050.864719
 20
30.355452
 30
0.0
 10
1044.370469
 20
33.527952
 30
0.0
  0
SPLINE
  5
1b1
100
AcDbEntity
  8
0
 62
7
100
AcDbSpline
 70
8
 71
3
 72
8
 73
4
 74
0
 40
0
 40
0
 40
0
 40
0
 40
1
 40
1
 40
1
 40
1
 10
1044.370469
 20
33.527952
 30
0.0
 10
1037.721719
 20
36.700452
 30
0.0
 10
1032.580469
 20
41.837952
 30
0.0
 10
1028.946720
 20
48.947951
 30
0.0
  0
SPLINE
  5
1b2
100
AcDbEntity
  8
0
 62
7
100
AcDbSpline
 70
8
 71
3
 72
8
 73
4
 74
0
 40
0
 40
0
 40
0
 40
0
 40
1
 40
1
 40
1
 40
1
 10
1028.946720
 20
48.947951
 30
0.0
 10
1025.622720
 20
56.297951
 30
0.0
 10
1023.960720
 20
66.542951
 30
0.0
 10
1023.960720
 20
79.682950
 30
0.0
  0
LWPOLYLINE
  5
1b3
100
AcDbEntity
  8
0
 62
7
100
AcDbPolyline
 90
2
 70
0
 10
1172.630215
 20
137.087949
 30
0.0
 10
1172.630215
 20
96.265450
 30
0.0
  0
SPLINE
  5
1b4
100
AcDbEntity
  8
0
 62
7
100
AcDbSpline
 70
8
 71
3
 72
8
 73
4
 74
0
 40
0
 40
0
 40
0
 40
0
 40
1
 40
1
 40
1
 40
1
 10
1058.170469
 20
81.535450
 30
0.0
 10
1058.170469
 20
75.355451
 30
0.0
 10
1058.905469
 20
70.517951
 30
0.0
 10
1060.373969
 20
67.045451
 30
0.0
  0
SPLINE
  5
1b5
100
AcDbEntity
  8
0
 62
7
100
AcDbSpline
 70
8
 71
3
 72
8
 73
4
 74
0
 40
0
 40
0
 40
0
 40
0
 40
1
 40
1
 40
1
 40
1
 10
1060.373969
 20
67.045451
 30
0.0
 10
1061.920469
 20
63.250451
 30
0.0
 10
1064.355718
 20
60.550451
 30
0.0
 10
1067.679718
 20
58.922951
 30
0.0
  0
SPLINE
  5
1b6
100
AcDbEntity
  8
0
 62
7
100
AcDbSpline
 70
8
 71
3
 72
8
 73
4
 74
0
 40
0
 40
0
 40
0
 40
0
 40
1
 40
1
 40
1
 40
1
 10
1067.679718
 20
58.922951
 30
0.0
 10
1071.004468
 20
57.377951
 30
0.0
 10
1075.140718
 20
56.372951
 30
0.0
 10
1080.088468
 20
55.907951
 30
0.0
  0
SPLINE
  5
1b7
100
AcDbEntity
  8
0
 62
7
100
AcDbSpline
 70
8
 71
3
 72
8
 73
4
 74
0
 40
0
 40
0
 40
0
 40
0
 40
1
 40
1
 40
1
 40
1
 10
1080.088468
 20
55.907951
 30
0.0
 10
1085.267968
 20
55.442951
 30
0.0
 10
1091.259718
 20
55.210451
 30
0.0
 10
1098.062967
 20
55.210451
 30
0.0
  0
SPLINE
  5
1b8
100
AcDbEntity
  8
0
 62
7
100
AcDbSpline
 70
8
 71
3
 72
8
 73
4
 74
0
 40
0
 40
0
 40
0
 40
0
 40
1
 40
1
 40
1
 40
1
 10
1098.062967
 20
55.210451
 30
0.0
 10
1115.303967
 20
55.060451
 30
0.0
 10
1126.475217
 20
57.730451
 30
0.0
 10
1131.577466
 20
63.212951
 30
0.0
  0
SPLINE
  5
1b9
100
AcDbEntity
  8
0
 62
7
100
AcDbSpline
 70
8
 71
3
 72
8
 73
4
 74
0
 40
0
 40
0
 40
0
 40
0
 40
1
 40
1
 40
1
 40
1
 10
1131.577466
 20
63.212951
 30
0.0
 10
1136.447966
 20
68.935451
 30
0.0
 10
1138.728716
 20
80.417950
 30
0.0
 10
1138.419716
 20
97.660450
 30
0.0
  0
LWPOLYLINE
  5
1ba
100
AcDbEntity
  8
0
 62
7
100
AcDbPolyline
 90
4
 70
0
 10
1023.960720
 20
79.682950
 30
0.0
 10
1023.960720
 20
91.277950
 30
0.0
 10
1058.170469
 20
91.277950
 30
0.0
 10
1058.170469
 20
81.535450
 30
0.0
  0
SPLINE
  5
1bb
100
AcDbEntity
  8
0
 62
7
100
AcDbSpline
 70
8
 71
3
 72
8
 73
4
 74
0
 40
0
 40
0
 40
0
 40
0
 40
1
 40
1
 40
1
 40
1
 10
1138.419716
 20
137.087949
 30
0.0
 10
1138.728716
 20
154.172948
 30
0.0
 10
1136.216216
 20
165.347948
 30
0.0
 10
1130.882216
 20
170.597948
 30
0.0
  0
SPLINE
  5
1bc
100
AcDbEntity
  8
0
 62
7
100
AcDbSpline
 70
8
 71
3
 72
8
 73
4
 74
0
 40
0
 40
0
 40
0
 40
0
 40
1
 40
1
 40
1
 40
1
 10
1130.882216
 20
170.597948
 30
0.0
 10
1125.624717
 20
175.472948
 30
0.0
 10
1114.685217
 20
177.827947
 30
0.0
 10
1098.062967
 20
177.677947
 30
0.0
  0
SPLINE
  5
1bd
100
AcDbEntity
  8
0
 62
7
100
AcDbSpline
 70
8
 71
3
 72
8
 73
4
 74
0
 40
0
 40
0
 40
0
 40
0
 40
1
 40
1
 40
1
 40
1
 10
1098.062967
 20
177.677947
 30
0.0
 10
1083.374218
 20
177.827947
 30
0.0
 10
1073.246218
 20
176.822948
 30
0.0
 10
1067.679718
 20
174.662948
 30
0.0
  0
SPLINE
  5
1be
100
AcDbEntity
  8
0
 62
7
100
AcDbSpline
 70
8
 71
3
 72
8
 73
4
 74
0
 40
0
 40
0
 40
0
 40
0
 40
1
 40
1
 40
1
 40
1
 10
1067.679718
 20
174.662948
 30
0.0
 10
1062.422969
 20
171.955448
 30
0.0
 10
1059.910469
 20
165.610448
 30
0.0
 10
1060.142219
 20
155.642948
 30
0.0
  0
LWPOLYLINE
  5
1bf
100
AcDbEntity
  8
0
 62
7
100
AcDbPolyline
 90
2
 70
0
 10
1138.419716
 20
97.660450
 30
0.0
 10
1138.419716
 20
137.087949
 30
0.0
  0
SPLINE
  5
1c0
100
AcDbEntity
  8
0
 62
7
100
AcDbSpline
 70
8
 71
3
 72
8
 73
4
 74
0
 40
0
 40
0
 40
0
 40
0
 40
1
 40
1
 40
1
 40
1
 10
915.067473
 20
86.290450
 30
0.0
 10
906.794973
 20
86.140450
 30
0.0
 10
900.922473
 20
83.740450
 30
0.0
 10
897.442473
 20
79.105450
 30
0.0
  0
SPLINE
  5
1c1
100
AcDbEntity
  8
0
 62
7
100
AcDbSpline
 70
8
 71
3
 72
8
 73
4
 74
0
 40
0
 40
0
 40
0
 40
0
 40
1
 40
1
 40
1
 40
1
 10
897.442473
 20
79.105450
 30
0.0
 10
894.119974
 20
74.537951
 30
0.0
 10
892.454974
 20
68.395451
 30
0.0
 10
892.454974
 20
60.662951
 30
0.0
  0
LWPOLYLINE
  5
1c2
100
AcDbEntity
  8
0
 62
7
100
AcDbPolyline
 90
3
 70
0
 10
1060.142219
 20
155.642948
 30
0.0
 10
1060.142219
 20
145.900448
 30
0.0
 10
1025.931720
 20
145.900448
 30
0.0
  0
SPLINE
  5
1c3
100
AcDbEntity
  8
0
 62
7
100
AcDbSpline
 70
8
 71
3
 72
8
 73
4
 74
0
 40
0
 40
0
 40
0
 40
0
 40
1
 40
1
 40
1
 40
1
 10
858.239975
 20
60.662951
 30
0.0
 10
858.089975
 20
73.345451
 30
0.0
 10
860.062475
 20
83.005450
 30
0.0
 10
864.157474
 20
89.657950
 30
0.0
  0
SPLINE
  5
1c4
100
AcDbEntity
  8
0
 62
7
100
AcDbSpline
 70
8
 71
3
 72
8
 73
4
 74
0
 40
0
 40
0
 40
0
 40
0
 40
1
 40
1
 40
1
 40
1
 10
864.157474
 20
89.657950
 30
0.0
 10
868.484974
 20
96.302950
 30
0.0
 10
876.569974
 20
100.090450
 30
0.0
 10
888.397474
 20
101.020450
 30
0.0
  0
LWPOLYLINE
  5
1c5
100
AcDbEntity
  8
0
 62
7
100
AcDbPolyline
 90
4
 70
0
 10
892.454974
 20
60.662951
 30
0.0
 10
892.454974
 20
27.385452
 30
0.0
 10
858.239975
 20
27.385452
 30
0.0
 10
858.239975
 20
60.662951
 30
0.0
  0
SPLINE
  5
1c6
100
AcDbEntity
  8
0
 62
7
100
AcDbSpline
 70
8
 71
3
 72
8
 73
4
 74
0
 40
0
 40
0
 40
0
 40
0
 40
1
 40
1
 40
1
 40
1
 10
888.397474
 20
101.950450
 30
0.0
 10
880.822474
 20
103.187950
 30
0.0
 10
874.829974
 20
105.310450
 30
0.0
 10
870.419974
 20
108.325450
 30
0.0
  0
SPLINE
  5
1c7
100
AcDbEntity
  8
0
 62
7
100
AcDbSpline
 70
8
 71
3
 72
8
 73
4
 74
0
 40
0
 40
0
 40
0
 40
0
 40
1
 40
1
 40
1
 40
1
 10
870.419974
 20
108.325450
 30
0.0
 10
866.242474
 20
111.190449
 30
0.0
 10
863.152474
 20
114.745449
 30
0.0
 10
861.142474
 20
118.997949
 30
0.0
  0
SPLINE
  5
1c8
100
AcDbEntity
  8
0
 62
7
100
AcDbSpline
 70
8
 71
3
 72
8
 73
4
 74
0
 40
0
 40
0
 40
0
 40
0
 40
1
 40
1
 40
1
 40
1
 10
861.142474
 20
118.997949
 30
0.0
 10
859.057475
 20
123.325449
 30
0.0
 10
857.782475
 20
128.312949
 30
0.0
 10
857.317475
 20
133.952949
 30
0.0
  0
SPLINE
  5
1c9
100
AcDbEntity
  8
0
 62
7
100
AcDbSpline
 70
8
 71
3
 72
8
 73
4
 74
0
 40
0
 40
0
 40
0
 40
0
 40
1
 40
1
 40
1
 40
1
 10
857.317475
 20
133.952949
 30
0.0
 10
857.009975
 20
139.517949
 30
0.0
 10
856.852475
 20
145.555448
 30
0.0
 10
856.852475
 20
152.050448
 30
0.0
  0
SPLINE
  5
1ca
100
AcDbEntity
  8
0
 62
7
100
AcDbSpline
 70
8
 71
3
 72
8
 73
4
 74
0
 40
0
 40
0
 40
0
 40
0
 40
1
 40
1
 40
1
 40
1
 10
856.852475
 20
152.050448
 30
0.0
 10
856.694975
 20
171.992948
 30
0.0
 10
860.714974
 20
186.025447
 30
0.0
 10
868.912474
 20
194.140447
 30
0.0
  0
SPLINE
  5
1cb
100
AcDbEntity
  8
0
 62
7
100
AcDbSpline
 70
8
 71
3
 72
8
 73
4
 74
0
 40
0
 40
0
 40
0
 40
0
 40
1
 40
1
 40
1
 40
1
 10
868.912474
 20
194.140447
 30
0.0
 10
877.492474
 20
201.872947
 30
0.0
 10
891.449974
 20
205.660447
 30
0.0
 10
910.777473
 20
205.510447
 30
0.0
  0
LWPOLYLINE
  5
1cc
100
AcDbEntity
  8
0
 62
7
100
AcDbPolyline
 90
2
 70
0
 10
888.397474
 20
101.020450
 30
0.0
 10
888.397474
 20
101.950450
 30
0.0
  0
LWPOLYLINE
  5
1cd
100
AcDbEntity
  8
0
 62
7
100
AcDbPolyline
 90
6
 70
0
 10
910.777473
 20
205.510447
 30
0.0
 10
1001.694720
 20
205.510447
 30
0.0
 10
1001.694720
 20
27.385452
 30
0.0
 10
967.484971
 20
27.385452
 30
0.0
 10
967.484971
 20
86.290450
 30
0.0
 10
915.067473
 20
86.290450
 30
0.0
  0
SPLINE
  5
1ce
100
AcDbEntity
  8
0
 62
7
100
AcDbSpline
 70
8
 71
3
 72
8
 73
4
 74
0
 40
0
 40
0
 40
0
 40
0
 40
1
 40
1
 40
1
 40
1
 10
920.054973
 20
176.282948
 30
0.0
 10
907.994973
 20
176.440448
 30
0.0
 10
899.992473
 20
174.700448
 30
0.0
 10
896.047473
 20
171.062948
 30
0.0
  0
SPLINE
  5
1cf
100
AcDbEntity
  8
0
 62
7
100
AcDbSpline
 70
8
 71
3
 72
8
 73
4
 74
0
 40
0
 40
0
 40
0
 40
0
 40
1
 40
1
 40
1
 40
1
 10
896.047473
 20
171.062948
 30
0.0
 10
892.567474
 20
167.125448
 30
0.0
 10
890.909974
 20
158.965448
 30
0.0
 10
891.059974
 20
146.597948
 30
0.0
  0
SPLINE
  5
1d0
100
AcDbEntity
  8
0
 62
7
100
AcDbSpline
 70
8
 71
3
 72
8
 73
4
 74
0
 40
0
 40
0
 40
0
 40
0
 40
1
 40
1
 40
1
 40
1
 10
891.059974
 20
146.597948
 30
0.0
 10
890.909974
 20
133.915449
 30
0.0
 10
892.957474
 20
125.530449
 30
0.0
 10
897.209973
 20
121.427949
 30
0.0
  0
SPLINE
  5
1d1
100
AcDbEntity
  8
0
 62
7
100
AcDbSpline
 70
8
 71
3
 72
8
 73
4
 74
0
 40
0
 40
0
 40
0
 40
0
 40
1
 40
1
 40
1
 40
1
 10
897.209973
 20
121.427949
 30
0.0
 10
901.612473
 20
117.332949
 30
0.0
 10
910.004973
 20
115.360449
 30
0.0
 10
922.372473
 20
115.517949
 30
0.0
  0
LWPOLYLINE
  5
1d2
100
AcDbEntity
  8
0
 62
7
100
AcDbPolyline
 90
3
 70
0
 10
967.484971
 20
115.517949
 30
0.0
 10
967.484971
 20
176.282948
 30
0.0
 10
920.054973
 20
176.282948
 30
0.0
  0
LWPOLYLINE
  5
1d3
100
AcDbEntity
  8
0
 62
7
100
AcDbPolyline
 90
2
 70
0
 10
922.372473
 20
115.517949
 30
0.0
 10
967.484971
 20
115.517949
 30
0.0
  0
LWPOLYLINE
  5
1d4
100
AcDbEntity
  8
0
 62
7
100
AcDbPolyline
 90
12
 70
1
 10
797.129976
 20
176.282948
 30
0.0
 10
709.342479
 20
176.282948
 30
0.0
 10
709.342479
 20
205.510447
 30
0.0
 10
831.337475
 20
205.510447
 30
0.0
 10
831.337475
 20
27.385452
 30
0.0
 10
708.644979
 20
27.385452
 30
0.0
 10
708.644979
 20
56.605451
 30
0.0
 10
797.129976
 20
56.605451
 30
0.0
 10
797.129976
 20
103.802950
 30
0.0
 10
713.864979
 20
103.802950
 30
0.0
 10
713.864979
 20
131.867949
 30
0.0
 10
797.129976
 20
131.867949
 30
0.0
  0
LWPOLYLINE
  5
1d5
100
AcDbEntity
  8
0
 62
7
100
AcDbPolyline
 90
8
 70
1
 10
574.822483
 20
61.127951
 30
0.0
 10
563.227483
 20
27.385452
 30
0.0
 10
528.547484
 20
27.385452
 30
0.0
 10
588.854983
 20
205.510447
 30
0.0
 10
639.179981
 20
205.510447
 30
0.0
 10
698.324979
 20
27.385452
 30
0.0
 10
662.954980
 20
27.385452
 30
0.0
 10
651.824981
 20
61.127951
 30
0.0
  0
LWPOLYLINE
  5
1d6
100
AcDbEntity
  8
0
 62
7
100
AcDbPolyline
 90
4
 70
1
 10
582.472483
 20
86.987950
 30
0.0
 10
643.934981
 20
86.987950
 30
0.0
 10
613.552482
 20
179.417947
 30
0.0
 10
613.087482
 20
179.417947
 30
0.0
  0
LWPOLYLINE
  5
1d7
100
AcDbEntity
  8
0
 62
7
100
AcDbPolyline
 90
8
 70
1
 10
442.274987
 20
176.282948
 30
0.0
 10
390.082488
 20
176.282948
 30
0.0
 10
390.082488
 20
205.510447
 30
0.0
 10
528.779984
 20
205.510447
 30
0.0
 10
528.779984
 20
176.282948
 30
0.0
 10
476.482486
 20
176.282948
 30
0.0
 10
476.482486
 20
27.385452
 30
0.0
 10
442.274987
 20
27.385452
 30
0.0
  0
LWPOLYLINE
  5
1d8
100
AcDbEntity
  8
0
 62
7
100
AcDbPolyline
 90
4
 70
1
 10
374.197489
 20
205.510447
 30
0.0
 10
339.986991
 20
205.510447
 30
0.0
 10
339.986991
 20
27.385452
 30
0.0
 10
374.197489
 20
27.385452
 30
0.0
  0
LWPOLYLINE
  5
1d9
100
AcDbEntity
  8
0
 62
7
100
AcDbPolyline
 90
8
 70
1
 10
196.304994
 20
205.510447
 30
0.0
 10
243.854993
 20
55.907951
 30
0.0
 10
244.544993
 20
55.907951
 30
0.0
 10
291.974991
 20
205.510447
 30
0.0
 10
326.999990
 20
205.510447
 30
0.0
 10
269.947492
 20
27.385452
 30
0.0
 10
218.452494
 20
27.385452
 30
0.0
 10
160.934995
 20
205.510447
 30
0.0
  0
LWPOLYLINE
  5
1da
100
AcDbEntity
  8
0
 62
7
100
AcDbPolyline
 90
12
 70
1
 10
116.054997
 20
176.282948
 30
0.0
 10
28.267499
 20
176.282948
 30
0.0
 10
28.267499
 20
205.510447
 30
0.0
 10
150.269996
 20
205.510447
 30
0.0
 10
150.269996
 20
27.385452
 30
0.0
 10
27.569999
 20
27.385452
 30
0.0
 10
27.569999
 20
56.605451
 30
0.0
 10
116.054997
 20
56.605451
 30
0.0
 10
116.054997
 20
103.802950
 30
0.0
 10
32.789999
 20
103.802950
 30
0.0
 10
32.789999
 20
131.867949
 30
0.0
 10
116.054997
 20
131.867949
 30
0.0
  0
ENDSEC
  0
SECTION
  2
OBJECTS
  0
DICTIONARY
  5
C
330
0
100
AcDbDictionary
  3
ACAD_GROUP
350
D
  3
ACAD_MLINESTYLE
350
17
  0
DICTIONARY
  5
D
330
C
100
AcDbDictionary
  0
DICTIONARY
  5
1A
330
C
100
AcDbDictionary
  0
DICTIONARY
  5
17
330
C
100
AcDbDictionary
  3
STANDARD
350
18
  0
DICTIONARY
  5
19
330
C
100
AcDbDictionary
  0
ENDSEC
  0
EOF
