  0
SECTION
  2
HEADER
  9
$ACADVER
  1
AC1014
  9
$HANDSEED
  5
FFFF
  9
$MEASUREMENT
 70
     1
  0
ENDSEC
  0
SECTION
  2
TABLES
  0
TABLE
  2
VPORT
  5
8
330
0
100
AcDbSymbolTable
 70
     4
  0
VPORT
  5
2E
330
8
100
AcDbSymbolTableRecord
100
AcDbViewportTableRecord
  2
*ACTIVE
 70
     0
 10
0.0
 20
0.0
 11
1.0
 21
1.0
 12
210.0
 22
148.5
 13
0.0
 23
0.0
 14
10.0
 24
10.0
 15
10.0
 25
10.0
 16
0.0
 26
0.0
 36
1.0
 17
0.0
 27
0.0
 37
0.0
 40
341.0
 41
1.24
 42
50.0
 43
0.0
 44
0.0
 50
0.0
 51
0.0
 71
     0
 72
   100
 73
     1
 74
     3
 75
     0
 76
     0
 77
     0
 78
     0
  0
ENDTAB
  0
TABLE
  2
LTYPE
  5
5
330
0
100
AcDbSymbolTable
 70
     1
  0
LTYPE
  5
14
330
5
100
AcDbSymbolTableRecord
100
AcDbLinetypeTableRecord
  2
BYBLOCK
 70
     0
  3

 72
    65
 73
     0
 40
0.0
  0
LTYPE
  5
15
330
5
100
AcDbSymbolTableRecord
100
AcDbLinetypeTableRecord
  2
BYLAYER
 70
     0
  3

 72
    65
 73
     0
 40
0.0
  0
LTYPE
  5
16
330
5
100
AcDbSymbolTableRecord
100
AcDbLinetypeTableRecord
  2
CONTINUOUS
 70
     0
  3
Solid line
 72
    65
 73
     0
 40
0.0
  0
ENDTAB
  0
TABLE
  2
LAYER
  5
2
100
AcDbSymbolTable
 70
1
  0
LAYER
  5
50
100
AcDbSymbolTableRecord
100
AcDbLayerTableRecord
  2
0
 70
0
  6
CONTINUOUS
  0
ENDTAB
  0
TABLE
  2
STYLE
  5
3
330
0
100
AcDbSymbolTable
 70
     1
  0
STYLE
  5
11
330
3
100
AcDbSymbolTableRecord
100
AcDbTextStyleTableRecord
  2
STANDARD
 70
     0
 40
0.0
 41
1.0
 50
0.0
 71
     0
 42
2.5
  3
txt
  4

  0
ENDTAB
  0
TABLE
  2
VIEW
  5
6
330
0
100
AcDbSymbolTable
 70
     0
  0
ENDTAB
  0
TABLE
  2
UCS
  5
7
330
0
100
AcDbSymbolTable
 70
     0
  0
ENDTAB
  0
TABLE
  2
APPID
  5
9
330
0
100
AcDbSymbolTable
 70
     2
  0
APPID
  5
12
330
9
100
AcDbSymbolTableRecord
100
AcDbRegAppTableRecord
  2
ACAD
 70
     0
  0
ENDTAB
  0
TABLE
  2
DIMSTYLE
  5
A
330
0
100
AcDbSymbolTable
 70
     1
  0
DIMSTYLE
105
27
330
A
100
AcDbSymbolTableRecord
100
AcDbDimStyleTableRecord
  2
ISO-25
 70
     0
  3

  4

  5

  6

  7

 40
1.0
 41
2.5
 42
0.625
 43
3.75
 44
1.25
 45
0.0
 46
0.0
 47
0.0
 48
0.0
140
2.5
141
2.5
142
0.0
143
0.03937007874016
144
1.0
145
0.0
146
1.0
147
0.625
 71
     0
 72
     0
 73
     0
 74
     0
 75
     0
 76
     0
 77
     1
 78
     8
170
     0
171
     3
172
     1
173
     0
174
     0
175
     0
176
     0
177
     0
178
     0
270
     2
271
     2
272
     2
273
     2
274
     3
340
11
275
     0
280
     0
281
     0
282
     0
283
     0
284
     8
285
     0
286
     0
287
     3
288
     0
  0
ENDTAB
  0
TABLE
  2
BLOCK_RECORD
  5
1
330
0
100
AcDbSymbolTable
 70
     1
  0
BLOCK_RECORD
  5
1F
330
1
100
AcDbSymbolTableRecord
100
AcDbBlockTableRecord
  2
*MODEL_SPACE
  0
BLOCK_RECORD
  5
1B
330
1
100
AcDbSymbolTableRecord
100
AcDbBlockTableRecord
  2
*PAPER_SPACE
  0
ENDTAB
  0
ENDSEC
  0
SECTION
  2
BLOCKS
  0
BLOCK
  5
20
330
1F
100
AcDbEntity
  8
0
100
AcDbBlockBegin
  2
*MODEL_SPACE
 70
     0
 10
0.0
 20
0.0
 30
0.0
  3
*MODEL_SPACE
  1

  0
ENDBLK
  5
21
330
1F
100
AcDbEntity
  8
0
100
AcDbBlockEnd
  0
BLOCK
  5
1C
330
1B
100
AcDbEntity
 67
     1
  8
0
100
AcDbBlockBegin
  2
*PAPER_SPACE
  1

  0
ENDBLK
  5
1D
330
1B
100
AcDbEntity
 67
     1
  8
0
100
AcDbBlockEnd
  0
ENDSEC
  0
SECTION
  2
ENTITIES
  0
SPLINE
  5
100
100
AcDbEntity
  8
0
 62
7
100
AcDbSpline
 70
8
 71
3
 72
8
 73
4
 74
0
 40
0
 40
0
 40
0
 40
0
 40
1
 40
1
 40
1
 40
1
 10
100.328885
 20
88.980390
 30
0.0
 10
100.292906
 20
74.722535
 30
0.0
 10
100.473699
 20
60.456684
 30
0.0
 10
100.272219
 20
46.203725
 30
0.0
  0
SPLINE
  5
101
100
AcDbEntity
  8
0
 62
7
100
AcDbSpline
 70
8
 71
3
 72
8
 73
4
 74
0
 40
0
 40
0
 40
0
 40
0
 40
1
 40
1
 40
1
 40
1
 10
100.272219
 20
46.203725
 30
0.0
 10
99.062439
 20
43.300420
 30
0.0
 10
94.499457
 20
43.200869
 30
0.0
 10
91.976460
 20
41.231061
 30
0.0
  0
SPLINE
  5
102
100
AcDbEntity
  8
0
 62
7
100
AcDbSpline
 70
8
 71
3
 72
8
 73
4
 74
0
 40
0
 40
0
 40
0
 40
0
 40
1
 40
1
 40
1
 40
1
 10
91.976460
 20
41.231061
 30
0.0
 10
89.385103
 20
39.825104
 30
0.0
 10
86.574277
 20
39.022166
 30
0.0
 10
83.909165
 20
37.675777
 30
0.0
  0
SPLINE
  5
103
100
AcDbEntity
  8
0
 62
7
100
AcDbSpline
 70
8
 71
3
 72
8
 73
4
 74
0
 40
0
 40
0
 40
0
 40
0
 40
1
 40
1
 40
1
 40
1
 10
83.909165
 20
37.675777
 30
0.0
 10
81.085746
 20
36.245340
 30
0.0
 10
78.339682
 20
35.109477
 30
0.0
 10
75.526158
 20
33.985854
 30
0.0
  0
SPLINE
  5
104
100
AcDbEntity
  8
0
 62
7
100
AcDbSpline
 70
8
 71
3
 72
8
 73
4
 74
0
 40
0
 40
0
 40
0
 40
0
 40
1
 40
1
 40
1
 40
1
 10
75.526158
 20
33.985854
 30
0.0
 10
72.470677
 20
32.951990
 30
0.0
 10
69.331547
 20
30.049501
 30
0.0
 10
66.011624
 20
30.672920
 30
0.0
  0
SPLINE
  5
105
100
AcDbEntity
  8
0
 62
7
100
AcDbSpline
 70
8
 71
3
 72
8
 73
4
 74
0
 40
0
 40
0
 40
0
 40
0
 40
1
 40
1
 40
1
 40
1
 10
66.011624
 20
30.672920
 30
0.0
 10
58.871317
 20
34.027470
 30
0.0
 10
51.541223
 20
37.058886
 30
0.0
 10
44.440582
 20
40.458315
 30
0.0
  0
SPLINE
  5
106
100
AcDbEntity
  8
0
 62
7
100
AcDbSpline
 70
8
 71
3
 72
8
 73
4
 74
0
 40
0
 40
0
 40
0
 40
0
 40
1
 40
1
 40
1
 40
1
 10
44.440582
 20
40.458315
 30
0.0
 10
41.519572
 20
42.162925
 30
0.0
 10
37.852906
 20
42.775736
 30
0.0
 10
35.231597
 20
44.938935
 30
0.0
  0
SPLINE
  5
107
100
AcDbEntity
  8
0
 62
7
100
AcDbSpline
 70
8
 71
3
 72
8
 73
4
 74
0
 40
0
 40
0
 40
0
 40
0
 40
1
 40
1
 40
1
 40
1
 10
35.231597
 20
44.938935
 30
0.0
 10
34.829177
 20
47.618658
 30
0.0
 10
33.774915
 20
51.793281
 30
0.0
 10
36.024115
 20
53.731265
 30
0.0
  0
SPLINE
  5
108
100
AcDbEntity
  8
0
 62
7
100
AcDbSpline
 70
8
 71
3
 72
8
 73
4
 74
0
 40
0
 40
0
 40
0
 40
0
 40
1
 40
1
 40
1
 40
1
 10
36.024115
 20
53.731265
 30
0.0
 10
37.678950
 20
54.790425
 30
0.0
 10
40.570008
 20
55.231877
 30
0.0
 10
40.421956
 20
56.785529
 30
0.0
  0
SPLINE
  5
109
100
AcDbEntity
  8
0
 62
7
100
AcDbSpline
 70
8
 71
3
 72
8
 73
4
 74
0
 40
0
 40
0
 40
0
 40
0
 40
1
 40
1
 40
1
 40
1
 10
40.421956
 20
56.785529
 30
0.0
 10
41.011915
 20
68.016048
 30
0.0
 10
40.364750
 20
79.283858
 30
0.0
 10
40.867730
 20
90.522292
 30
0.0
  0
SPLINE
  5
10a
100
AcDbEntity
  8
0
 62
7
100
AcDbSpline
 70
8
 71
3
 72
8
 73
4
 74
0
 40
0
 40
0
 40
0
 40
0
 40
1
 40
1
 40
1
 40
1
 10
40.867730
 20
90.522292
 30
0.0
 10
41.853903
 20
93.378024
 30
0.0
 10
46.546588
 20
93.582512
 30
0.0
 10
49.011840
 20
95.363092
 30
0.0
  0
SPLINE
  5
10b
100
AcDbEntity
  8
0
 62
7
100
AcDbSpline
 70
8
 71
3
 72
8
 73
4
 74
0
 40
0
 40
0
 40
0
 40
0
 40
1
 40
1
 40
1
 40
1
 10
49.011840
 20
95.363092
 30
0.0
 10
52.679495
 20
96.402422
 30
0.0
 10
54.520339
 20
98.947098
 30
0.0
 10
57.727199
 20
100.775821
 30
0.0
  0
SPLINE
  5
10c
100
AcDbEntity
  8
0
 62
7
100
AcDbSpline
 70
8
 71
3
 72
8
 73
4
 74
0
 40
0
 40
0
 40
0
 40
0
 40
1
 40
1
 40
1
 40
1
 10
57.727199
 20
100.775821
 30
0.0
 10
60.856795
 20
101.898139
 30
0.0
 10
64.260368
 20
102.497649
 30
0.0
 10
67.604576
 20
103.414663
 30
0.0
  0
SPLINE
  5
10d
100
AcDbEntity
  8
0
 62
7
100
AcDbSpline
 70
8
 71
3
 72
8
 73
4
 74
0
 40
0
 40
0
 40
0
 40
0
 40
1
 40
1
 40
1
 40
1
 10
67.604576
 20
103.414663
 30
0.0
 10
70.894816
 20
102.553300
 30
0.0
 10
74.208442
 20
101.794997
 30
0.0
 10
77.393445
 20
100.607890
 30
0.0
  0
SPLINE
  5
10e
100
AcDbEntity
  8
0
 62
7
100
AcDbSpline
 70
8
 71
3
 72
8
 73
4
 74
0
 40
0
 40
0
 40
0
 40
0
 40
1
 40
1
 40
1
 40
1
 10
77.393445
 20
100.607890
 30
0.0
 10
80.411148
 20
99.229758
 30
0.0
 10
82.347695
 20
96.450974
 30
0.0
 10
85.728781
 20
95.613765
 30
0.0
  0
SPLINE
  5
10f
100
AcDbEntity
  8
0
 62
7
100
AcDbSpline
 70
8
 71
3
 72
8
 73
4
 74
0
 40
0
 40
0
 40
0
 40
0
 40
1
 40
1
 40
1
 40
1
 10
85.728781
 20
95.613765
 30
0.0
 10
88.347121
 20
94.719681
 30
0.0
 10
90.679432
 20
93.168151
 30
0.0
 10
93.541527
 20
92.079289
 30
0.0
  0
SPLINE
  5
110
100
AcDbEntity
  8
0
 62
7
100
AcDbSpline
 70
8
 71
3
 72
8
 73
4
 74
0
 40
0
 40
0
 40
0
 40
0
 40
1
 40
1
 40
1
 40
1
 10
93.541527
 20
92.079289
 30
0.0
 10
95.643575
 20
90.800382
 30
0.0
 10
98.054140
 20
90.022577
 30
0.0
 10
100.328885
 20
88.980390
 30
0.0
  0
SPLINE
  5
111
100
AcDbEntity
  8
0
 62
7
100
AcDbSpline
 70
8
 71
3
 72
8
 73
4
 74
0
 40
0
 40
0
 40
0
 40
0
 40
1
 40
1
 40
1
 40
1
 10
65.890197
 20
32.863047
 30
0.0
 10
68.194624
 20
35.052358
 30
0.0
 10
65.371206
 20
38.682713
 30
0.0
 10
62.271652
 20
39.117637
 30
0.0
  0
SPLINE
  5
112
100
AcDbEntity
  8
0
 62
7
100
AcDbSpline
 70
8
 71
3
 72
8
 73
4
 74
0
 40
0
 40
0
 40
0
 40
0
 40
1
 40
1
 40
1
 40
1
 10
62.271652
 20
39.117637
 30
0.0
 10
60.135784
 20
39.876511
 30
0.0
 10
58.329570
 20
41.049094
 30
0.0
 10
56.155835
 20
41.719841
 30
0.0
  0
SPLINE
  5
113
100
AcDbEntity
  8
0
 62
7
100
AcDbSpline
 70
8
 71
3
 72
8
 73
4
 74
0
 40
0
 40
0
 40
0
 40
0
 40
1
 40
1
 40
1
 40
1
 10
56.155835
 20
41.719841
 30
0.0
 10
53.399606
 20
43.178837
 30
0.0
 10
50.344216
 20
44.776552
 30
0.0
 10
47.225953
 20
45.836528
 30
0.0
  0
SPLINE
  5
114
100
AcDbEntity
  8
0
 62
7
100
AcDbSpline
 70
8
 71
3
 72
8
 73
4
 74
0
 40
0
 40
0
 40
0
 40
0
 40
1
 40
1
 40
1
 40
1
 10
47.225953
 20
45.836528
 30
0.0
 10
45.321248
 20
46.933223
 30
0.0
 10
43.219740
 20
47.484019
 30
0.0
 10
41.419732
 20
48.638650
 30
0.0
  0
SPLINE
  5
115
100
AcDbEntity
  8
0
 62
7
100
AcDbSpline
 70
8
 71
3
 72
8
 73
4
 74
0
 40
0
 40
0
 40
0
 40
0
 40
1
 40
1
 40
1
 40
1
 10
41.419732
 20
48.638650
 30
0.0
 10
39.323080
 20
48.537467
 30
0.0
 10
35.653356
 20
53.018903
 30
0.0
 10
35.985348
 20
48.809192
 30
0.0
  0
SPLINE
  5
116
100
AcDbEntity
  8
0
 62
7
100
AcDbSpline
 70
8
 71
3
 72
8
 73
4
 74
0
 40
0
 40
0
 40
0
 40
0
 40
1
 40
1
 40
1
 40
1
 10
35.985348
 20
48.809192
 30
0.0
 10
36.053978
 20
45.875696
 30
0.0
 10
37.275630
 20
46.324492
 30
0.0
 10
39.399265
 20
44.769208
 30
0.0
  0
SPLINE
  5
117
100
AcDbEntity
  8
0
 62
7
100
AcDbSpline
 70
8
 71
3
 72
8
 73
4
 74
0
 40
0
 40
0
 40
0
 40
0
 40
1
 40
1
 40
1
 40
1
 10
39.399265
 20
44.769208
 30
0.0
 10
40.845783
 20
45.027878
 30
0.0
 10
43.057476
 20
42.650073
 30
0.0
 10
45.168159
 20
42.403643
 30
0.0
  0
SPLINE
  5
118
100
AcDbEntity
  8
0
 62
7
100
AcDbSpline
 70
8
 71
3
 72
8
 73
4
 74
0
 40
0
 40
0
 40
0
 40
0
 40
1
 40
1
 40
1
 40
1
 10
45.168159
 20
42.403643
 30
0.0
 10
47.842626
 20
41.163333
 30
0.0
 10
50.698875
 20
39.642321
 30
0.0
 10
53.578959
 20
38.412619
 30
0.0
  0
SPLINE
  5
119
100
AcDbEntity
  8
0
 62
7
100
AcDbSpline
 70
8
 71
3
 72
8
 73
4
 74
0
 40
0
 40
0
 40
0
 40
0
 40
1
 40
1
 40
1
 40
1
 10
53.578959
 20
38.412619
 30
0.0
 10
55.817726
 20
37.406499
 30
0.0
 10
57.955213
 20
36.641097
 30
0.0
 10
59.896707
 20
35.485650
 30
0.0
  0
SPLINE
  5
11a
100
AcDbEntity
  8
0
 62
7
100
AcDbSpline
 70
8
 71
3
 72
8
 73
4
 74
0
 40
0
 40
0
 40
0
 40
0
 40
1
 40
1
 40
1
 40
1
 10
59.896707
 20
35.485650
 30
0.0
 10
62.000913
 20
34.916087
 30
0.0
 10
63.910476
 20
33.691280
 30
0.0
 10
65.890197
 20
32.863047
 30
0.0
  0
LWPOLYLINE
  5
11b
100
AcDbEntity
  8
0
 62
7
100
AcDbPolyline
 90
1
 70
1
 10
100.328885
 20
88.980390
 30
0.0
  0
SPLINE
  5
11c
100
AcDbEntity
  8
0
 62
7
100
AcDbSpline
 70
8
 71
3
 72
8
 73
4
 74
0
 40
0
 40
0
 40
0
 40
0
 40
1
 40
1
 40
1
 40
1
 10
68.935783
 20
32.852439
 30
0.0
 10
71.525340
 20
33.599073
 30
0.0
 10
74.072623
 20
35.250644
 30
0.0
 10
76.640594
 20
36.221676
 30
0.0
  0
SPLINE
  5
11d
100
AcDbEntity
  8
0
 62
7
100
AcDbSpline
 70
8
 71
3
 72
8
 73
4
 74
0
 40
0
 40
0
 40
0
 40
0
 40
1
 40
1
 40
1
 40
1
 10
76.640594
 20
36.221676
 30
0.0
 10
79.458615
 20
37.610497
 30
0.0
 10
82.456530
 20
38.588874
 30
0.0
 10
85.179208
 20
40.089486
 30
0.0
  0
SPLINE
  5
11e
100
AcDbEntity
  8
0
 62
7
100
AcDbSpline
 70
8
 71
3
 72
8
 73
4
 74
0
 40
0
 40
0
 40
0
 40
0
 40
1
 40
1
 40
1
 40
1
 10
85.179208
 20
40.089486
 30
0.0
 10
87.651835
 20
41.298788
 30
0.0
 10
89.841131
 20
42.313884
 30
0.0
 10
92.259791
 20
43.306132
 30
0.0
  0
SPLINE
  5
11f
100
AcDbEntity
  8
0
 62
7
100
AcDbSpline
 70
8
 71
3
 72
8
 73
4
 74
0
 40
0
 40
0
 40
0
 40
0
 40
1
 40
1
 40
1
 40
1
 10
92.259791
 20
43.306132
 30
0.0
 10
94.686545
 20
44.748809
 30
0.0
 10
99.402437
 20
45.125798
 30
0.0
 10
98.655881
 20
48.773289
 30
0.0
  0
SPLINE
  5
120
100
AcDbEntity
  8
0
 62
7
100
AcDbSpline
 70
8
 71
3
 72
8
 73
4
 74
0
 40
0
 40
0
 40
0
 40
0
 40
1
 40
1
 40
1
 40
1
 10
98.655881
 20
48.773289
 30
0.0
 10
98.759320
 20
60.836937
 30
0.0
 10
98.773711
 20
72.909153
 30
0.0
 10
98.421121
 20
84.969945
 30
0.0
  0
SPLINE
  5
121
100
AcDbEntity
  8
0
 62
7
100
AcDbSpline
 70
8
 71
3
 72
8
 73
4
 74
0
 40
0
 40
0
 40
0
 40
0
 40
1
 40
1
 40
1
 40
1
 10
98.421121
 20
84.969945
 30
0.0
 10
97.846363
 20
88.251790
 30
0.0
 10
93.269889
 20
83.581940
 30
0.0
 10
91.141757
 20
83.494547
 30
0.0
  0
SPLINE
  5
122
100
AcDbEntity
  8
0
 62
7
100
AcDbSpline
 70
8
 71
3
 72
8
 73
4
 74
0
 40
0
 40
0
 40
0
 40
0
 40
1
 40
1
 40
1
 40
1
 10
91.141757
 20
83.494547
 30
0.0
 10
88.845424
 20
82.143099
 30
0.0
 10
86.199201
 20
81.220455
 30
0.0
 10
83.616839
 20
80.060765
 30
0.0
  0
SPLINE
  5
123
100
AcDbEntity
  8
0
 62
7
100
AcDbSpline
 70
8
 71
3
 72
8
 73
4
 74
0
 40
0
 40
0
 40
0
 40
0
 40
1
 40
1
 40
1
 40
1
 10
83.616839
 20
80.060765
 30
0.0
 10
80.658501
 20
78.210826
 30
0.0
 10
76.205253
 20
77.718211
 30
0.0
 10
74.523255
 20
74.840202
 30
0.0
  0
SPLINE
  5
124
100
AcDbEntity
  8
0
 62
7
100
AcDbSpline
 70
8
 71
3
 72
8
 73
4
 74
0
 40
0
 40
0
 40
0
 40
0
 40
1
 40
1
 40
1
 40
1
 10
74.523255
 20
74.840202
 30
0.0
 10
74.260611
 20
63.604787
 30
0.0
 10
74.507964
 20
52.361212
 30
0.0
 10
74.362251
 20
41.127429
 30
0.0
  0
SPLINE
  5
125
100
AcDbEntity
  8
0
 62
7
100
AcDbSpline
 70
8
 71
3
 72
8
 73
4
 74
0
 40
0
 40
0
 40
0
 40
0
 40
1
 40
1
 40
1
 40
1
 10
74.362251
 20
41.127429
 30
0.0
 10
73.345856
 20
37.976062
 30
0.0
 10
67.730501
 20
38.974838
 30
0.0
 10
67.879812
 20
35.101317
 30
0.0
  0
SPLINE
  5
126
100
AcDbEntity
  8
0
 62
7
100
AcDbSpline
 70
8
 71
3
 72
8
 73
4
 74
0
 40
0
 40
0
 40
0
 40
0
 40
1
 40
1
 40
1
 40
1
 10
67.879812
 20
35.101317
 30
0.0
 10
67.955367
 20
34.353867
 30
0.0
 10
67.353625
 20
32.512986
 30
0.0
 10
68.935783
 20
32.852439
 30
0.0
  0
LWPOLYLINE
  5
127
100
AcDbEntity
  8
0
 62
7
100
AcDbPolyline
 90
1
 70
1
 10
65.890197
 20
32.863047
 30
0.0
  0
SPLINE
  5
128
100
AcDbEntity
  8
0
 62
7
100
AcDbSpline
 70
8
 71
3
 72
8
 73
4
 74
0
 40
0
 40
0
 40
0
 40
0
 40
1
 40
1
 40
1
 40
1
 10
67.637856
 20
39.528898
 30
0.0
 10
69.252394
 20
39.954031
 30
0.0
 10
73.231624
 20
40.893239
 30
0.0
 10
69.404404
 20
41.570514
 30
0.0
  0
SPLINE
  5
129
100
AcDbEntity
  8
0
 62
7
100
AcDbSpline
 70
8
 71
3
 72
8
 73
4
 74
0
 40
0
 40
0
 40
0
 40
0
 40
1
 40
1
 40
1
 40
1
 10
69.404404
 20
41.570514
 30
0.0
 10
66.972252
 20
42.947911
 30
0.0
 10
64.183014
 20
44.237997
 30
0.0
 10
61.568991
 20
45.320820
 30
0.0
  0
SPLINE
  5
12a
100
AcDbEntity
  8
0
 62
7
100
AcDbSpline
 70
8
 71
3
 72
8
 73
4
 74
0
 40
0
 40
0
 40
0
 40
0
 40
1
 40
1
 40
1
 40
1
 10
61.568991
 20
45.320820
 30
0.0
 10
59.681465
 20
46.291036
 30
0.0
 10
57.587782
 20
46.960967
 30
0.0
 10
55.794250
 20
48.071534
 30
0.0
  0
SPLINE
  5
12b
100
AcDbEntity
  8
0
 62
7
100
AcDbSpline
 70
8
 71
3
 72
8
 73
4
 74
0
 40
0
 40
0
 40
0
 40
0
 40
1
 40
1
 40
1
 40
1
 10
55.794250
 20
48.071534
 30
0.0
 10
53.032265
 20
48.714537
 30
0.0
 10
50.758779
 20
50.462395
 30
0.0
 10
48.092137
 20
51.396708
 30
0.0
  0
SPLINE
  5
12c
100
AcDbEntity
  8
0
 62
7
100
AcDbSpline
 70
8
 71
3
 72
8
 73
4
 74
0
 40
0
 40
0
 40
0
 40
0
 40
1
 40
1
 40
1
 40
1
 10
48.092137
 20
51.396708
 30
0.0
 10
46.073740
 20
52.356316
 30
0.0
 10
44.187473
 20
53.311845
 30
0.0
 10
42.088393
 20
54.083774
 30
0.0
  0
SPLINE
  5
12d
100
AcDbEntity
  8
0
 62
7
100
AcDbSpline
 70
8
 71
3
 72
8
 73
4
 74
0
 40
0
 40
0
 40
0
 40
0
 40
1
 40
1
 40
1
 40
1
 10
42.088393
 20
54.083774
 30
0.0
 10
38.936850
 20
54.548891
 30
0.0
 10
37.937726
 20
51.493811
 30
0.0
 10
41.419732
 20
51.188629
 30
0.0
  0
SPLINE
  5
12e
100
AcDbEntity
  8
0
 62
7
100
AcDbSpline
 70
8
 71
3
 72
8
 73
4
 74
0
 40
0
 40
0
 40
0
 40
0
 40
1
 40
1
 40
1
 40
1
 10
41.419732
 20
51.188629
 30
0.0
 10
43.293765
 20
50.073982
 30
0.0
 10
45.329253
 20
49.324084
 30
0.0
 10
47.422846
 20
48.437915
 30
0.0
  0
SPLINE
  5
12f
100
AcDbEntity
  8
0
 62
7
100
AcDbSpline
 70
8
 71
3
 72
8
 73
4
 74
0
 40
0
 40
0
 40
0
 40
0
 40
1
 40
1
 40
1
 40
1
 10
47.422846
 20
48.437915
 30
0.0
 10
50.216582
 20
47.146198
 30
0.0
 10
53.010048
 20
45.702705
 30
0.0
 10
55.788853
 20
44.671289
 30
0.0
  0
SPLINE
  5
130
100
AcDbEntity
  8
0
 62
7
100
AcDbSpline
 70
8
 71
3
 72
8
 73
4
 74
0
 40
0
 40
0
 40
0
 40
0
 40
1
 40
1
 40
1
 40
1
 10
55.788853
 20
44.671289
 30
0.0
 10
57.592279
 20
43.563986
 30
0.0
 10
59.680026
 20
42.885079
 30
0.0
 10
61.576636
 20
41.920575
 30
0.0
  0
SPLINE
  5
131
100
AcDbEntity
  8
0
 62
7
100
AcDbSpline
 70
8
 71
3
 72
8
 73
4
 74
0
 40
0
 40
0
 40
0
 40
0
 40
1
 40
1
 40
1
 40
1
 10
61.576636
 20
41.920575
 30
0.0
 10
63.771059
 20
41.485651
 30
0.0
 10
65.310942
 20
39.437507
 30
0.0
 10
67.637856
 20
39.528898
 30
0.0
  0
LWPOLYLINE
  5
132
100
AcDbEntity
  8
0
 62
7
100
AcDbPolyline
 90
1
 70
1
 10
68.935783
 20
32.852439
 30
0.0
  0
SPLINE
  5
133
100
AcDbEntity
  8
0
 62
7
100
AcDbSpline
 70
8
 71
3
 72
8
 73
4
 74
0
 40
0
 40
0
 40
0
 40
0
 40
1
 40
1
 40
1
 40
1
 10
72.563322
 20
42.486875
 30
0.0
 10
73.654372
 20
45.485651
 30
0.0
 10
72.807976
 20
49.136406
 30
0.0
 10
73.128186
 20
52.371820
 30
0.0
  0
SPLINE
  5
134
100
AcDbEntity
  8
0
 62
7
100
AcDbSpline
 70
8
 71
3
 72
8
 73
4
 74
0
 40
0
 40
0
 40
0
 40
0
 40
1
 40
1
 40
1
 40
1
 10
73.128186
 20
52.371820
 30
0.0
 10
73.069721
 20
59.944240
 30
0.0
 10
73.348555
 20
67.533796
 30
0.0
 10
72.880833
 20
75.095281
 30
0.0
  0
SPLINE
  5
135
100
AcDbEntity
  8
0
 62
7
100
AcDbSpline
 70
8
 71
3
 72
8
 73
4
 74
0
 40
0
 40
0
 40
0
 40
0
 40
1
 40
1
 40
1
 40
1
 10
72.880833
 20
75.095281
 30
0.0
 10
70.937091
 20
77.643792
 30
0.0
 10
66.714106
 20
78.292099
 30
0.0
 10
63.824127
 20
80.021026
 30
0.0
  0
SPLINE
  5
136
100
AcDbEntity
  8
0
 62
7
100
AcDbSpline
 70
8
 71
3
 72
8
 73
4
 74
0
 40
0
 40
0
 40
0
 40
0
 40
1
 40
1
 40
1
 40
1
 10
63.824127
 20
80.021026
 30
0.0
 10
61.427055
 20
81.040120
 30
0.0
 10
59.284531
 20
82.067946
 30
0.0
 10
57.096494
 20
83.577779
 30
0.0
  0
SPLINE
  5
137
100
AcDbEntity
  8
0
 62
7
100
AcDbSpline
 70
8
 71
3
 72
8
 73
4
 74
0
 40
0
 40
0
 40
0
 40
0
 40
1
 40
1
 40
1
 40
1
 10
57.096494
 20
83.577779
 30
0.0
 10
53.757953
 20
84.446485
 30
0.0
 10
50.385502
 20
86.169129
 30
0.0
 10
47.120266
 20
87.648689
 30
0.0
  0
SPLINE
  5
138
100
AcDbEntity
  8
0
 62
7
100
AcDbSpline
 70
8
 71
3
 72
8
 73
4
 74
0
 40
0
 40
0
 40
0
 40
0
 40
1
 40
1
 40
1
 40
1
 10
47.120266
 20
87.648689
 30
0.0
 10
44.945272
 20
88.488020
 30
0.0
 10
41.875760
 20
90.864927
 30
0.0
 10
42.634098
 20
86.898301
 30
0.0
  0
SPLINE
  5
139
100
AcDbEntity
  8
0
 62
7
100
AcDbSpline
 70
8
 71
3
 72
8
 73
4
 74
0
 40
0
 40
0
 40
0
 40
0
 40
1
 40
1
 40
1
 40
1
 10
42.634098
 20
86.898301
 30
0.0
 10
42.582649
 20
82.435959
 30
0.0
 10
42.346719
 20
77.942119
 30
0.0
 10
42.760113
 20
73.497729
 30
0.0
  0
SPLINE
  5
13a
100
AcDbEntity
  8
0
 62
7
100
AcDbSpline
 70
8
 71
3
 72
8
 73
4
 74
0
 40
0
 40
0
 40
0
 40
0
 40
1
 40
1
 40
1
 40
1
 10
42.760113
 20
73.497729
 30
0.0
 10
43.983924
 20
75.311438
 30
0.0
 10
47.074843
 20
75.897892
 30
0.0
 10
48.971274
 20
77.260112
 30
0.0
  0
SPLINE
  5
13b
100
AcDbEntity
  8
0
 62
7
100
AcDbSpline
 70
8
 71
3
 72
8
 73
4
 74
0
 40
0
 40
0
 40
0
 40
0
 40
1
 40
1
 40
1
 40
1
 10
48.971274
 20
77.260112
 30
0.0
 10
51.539334
 20
78.197362
 30
0.0
 10
54.795935
 20
79.142936
 30
0.0
 10
57.576808
 20
78.017109
 30
0.0
  0
SPLINE
  5
13c
100
AcDbEntity
  8
0
 62
7
100
AcDbSpline
 70
8
 71
3
 72
8
 73
4
 74
0
 40
0
 40
0
 40
0
 40
0
 40
1
 40
1
 40
1
 40
1
 10
57.576808
 20
78.017109
 30
0.0
 10
60.950789
 20
76.960071
 30
0.0
 10
63.201698
 20
74.164069
 30
0.0
 10
65.469248
 20
71.812784
 30
0.0
  0
SPLINE
  5
13d
100
AcDbEntity
  8
0
 62
7
100
AcDbSpline
 70
8
 71
3
 72
8
 73
4
 74
0
 40
0
 40
0
 40
0
 40
0
 40
1
 40
1
 40
1
 40
1
 10
65.469248
 20
71.812784
 30
0.0
 10
66.947967
 20
68.822168
 30
0.0
 10
68.239597
 20
65.634163
 30
0.0
 10
67.812352
 20
62.293485
 30
0.0
  0
SPLINE
  5
13e
100
AcDbEntity
  8
0
 62
7
100
AcDbSpline
 70
8
 71
3
 72
8
 73
4
 74
0
 40
0
 40
0
 40
0
 40
0
 40
1
 40
1
 40
1
 40
1
 10
67.812352
 20
62.293485
 30
0.0
 10
67.863621
 20
59.435876
 30
0.0
 10
67.842934
 20
55.611314
 30
0.0
 10
64.847718
 20
54.189038
 30
0.0
  0
SPLINE
  5
13f
100
AcDbEntity
  8
0
 62
7
100
AcDbSpline
 70
8
 71
3
 72
8
 73
4
 74
0
 40
0
 40
0
 40
0
 40
0
 40
1
 40
1
 40
1
 40
1
 10
64.847718
 20
54.189038
 30
0.0
 10
62.342710
 20
53.311029
 30
0.0
 10
59.983325
 20
51.848768
 30
0.0
 10
56.987569
 20
51.785937
 30
0.0
  0
SPLINE
  5
140
100
AcDbEntity
  8
0
 62
7
100
AcDbSpline
 70
8
 71
3
 72
8
 73
4
 74
0
 40
0
 40
0
 40
0
 40
0
 40
1
 40
1
 40
1
 40
1
 10
56.987569
 20
51.785937
 30
0.0
 10
52.287689
 20
51.386100
 30
0.0
 10
57.599115
 20
49.784305
 30
0.0
 10
59.096093
 20
49.005031
 30
0.0
  0
SPLINE
  5
141
100
AcDbEntity
  8
0
 62
7
100
AcDbSpline
 70
8
 71
3
 72
8
 73
4
 74
0
 40
0
 40
0
 40
0
 40
0
 40
1
 40
1
 40
1
 40
1
 10
59.096093
 20
49.005031
 30
0.0
 10
61.892618
 20
47.807152
 30
0.0
 10
64.763168
 20
45.867536
 30
0.0
 10
67.821347
 20
45.217189
 30
0.0
  0
SPLINE
  5
142
100
AcDbEntity
  8
0
 62
7
100
AcDbSpline
 70
8
 71
3
 72
8
 73
4
 74
0
 40
0
 40
0
 40
0
 40
0
 40
1
 40
1
 40
1
 40
1
 10
67.821347
 20
45.217189
 30
0.0
 10
69.440382
 20
44.352236
 30
0.0
 10
71.221322
 20
43.664353
 30
0.0
 10
72.563322
 20
42.486875
 30
0.0
  0
LWPOLYLINE
  5
143
100
AcDbEntity
  8
0
 62
7
100
AcDbPolyline
 90
1
 70
1
 10
67.637856
 20
39.528898
 30
0.0
  0
SPLINE
  5
144
100
AcDbEntity
  8
0
 62
7
100
AcDbSpline
 70
8
 71
3
 72
8
 73
4
 74
0
 40
0
 40
0
 40
0
 40
0
 40
1
 40
1
 40
1
 40
1
 10
54.957478
 20
52.708825
 30
0.0
 10
58.377781
 20
52.751257
 30
0.0
 10
60.086943
 20
56.471372
 30
0.0
 10
60.245519
 20
59.082551
 30
0.0
  0
SPLINE
  5
145
100
AcDbEntity
  8
0
 62
7
100
AcDbSpline
 70
8
 71
3
 72
8
 73
4
 74
0
 40
0
 40
0
 40
0
 40
0
 40
1
 40
1
 40
1
 40
1
 10
60.245519
 20
59.082551
 30
0.0
 10
59.893918
 20
60.964232
 30
0.0
 10
59.239558
 20
64.115599
 30
0.0
 10
57.921393
 20
64.970760
 30
0.0
  0
SPLINE
  5
146
100
AcDbEntity
  8
0
 62
7
100
AcDbSpline
 70
8
 71
3
 72
8
 73
4
 74
0
 40
0
 40
0
 40
0
 40
0
 40
1
 40
1
 40
1
 40
1
 10
57.921393
 20
64.970760
 30
0.0
 10
58.866280
 20
61.825921
 30
0.0
 10
59.146284
 20
58.237997
 30
0.0
 10
56.905898
 20
55.475043
 30
0.0
  0
SPLINE
  5
147
100
AcDbEntity
  8
0
 62
7
100
AcDbSpline
 70
8
 71
3
 72
8
 73
4
 74
0
 40
0
 40
0
 40
0
 40
0
 40
1
 40
1
 40
1
 40
1
 10
56.905898
 20
55.475043
 30
0.0
 10
53.841063
 20
55.200870
 30
0.0
 10
49.907796
 20
54.553787
 30
0.0
 10
47.622617
 20
56.865496
 30
0.0
  0
SPLINE
  5
148
100
AcDbEntity
  8
0
 62
7
100
AcDbSpline
 70
8
 71
3
 72
8
 73
4
 74
0
 40
0
 40
0
 40
0
 40
0
 40
1
 40
1
 40
1
 40
1
 10
47.622617
 20
56.865496
 30
0.0
 10
48.860100
 20
54.944648
 30
0.0
 10
52.171748
 20
52.685978
 30
0.0
 10
54.957478
 20
52.708825
 30
0.0
  0
LWPOLYLINE
  5
149
100
AcDbEntity
  8
0
 62
7
100
AcDbPolyline
 90
1
 70
1
 10
72.563322
 20
42.486875
 30
0.0
  0
SPLINE
  5
14a
100
AcDbEntity
  8
0
 62
7
100
AcDbSpline
 70
8
 71
3
 72
8
 73
4
 74
0
 40
0
 40
0
 40
0
 40
0
 40
1
 40
1
 40
1
 40
1
 10
46.311108
 20
54.672922
 30
0.0
 10
45.908418
 20
56.313069
 30
0.0
 10
43.338739
 20
58.252685
 30
0.0
 10
42.692564
 20
60.440364
 30
0.0
  0
SPLINE
  5
14b
100
AcDbEntity
  8
0
 62
7
100
AcDbSpline
 70
8
 71
3
 72
8
 73
4
 74
0
 40
0
 40
0
 40
0
 40
0
 40
1
 40
1
 40
1
 40
1
 10
42.692564
 20
60.440364
 30
0.0
 10
42.090192
 20
57.395076
 30
0.0
 10
43.133751
 20
55.718210
 30
0.0
 10
46.311108
 20
54.672922
 30
0.0
  0
LWPOLYLINE
  5
14c
100
AcDbEntity
  8
0
 62
7
100
AcDbPolyline
 90
1
 70
1
 10
54.957478
 20
52.708825
 30
0.0
  0
SPLINE
  5
14d
100
AcDbEntity
  8
0
 62
7
100
AcDbSpline
 70
8
 71
3
 72
8
 73
4
 74
0
 40
0
 40
0
 40
0
 40
0
 40
1
 40
1
 40
1
 40
1
 10
44.659602
 20
61.232694
 30
0.0
 10
44.492751
 20
64.433020
 30
0.0
 10
42.948641
 20
68.471372
 30
0.0
 10
45.766663
 20
70.921230
 30
0.0
  0
SPLINE
  5
14e
100
AcDbEntity
  8
0
 62
7
100
AcDbSpline
 70
8
 71
3
 72
8
 73
4
 74
0
 40
0
 40
0
 40
0
 40
0
 40
1
 40
1
 40
1
 40
1
 10
45.766663
 20
70.921230
 30
0.0
 10
47.216329
 20
72.195811
 30
0.0
 10
55.133144
 20
70.402258
 30
0.0
 10
50.930037
 20
72.845914
 30
0.0
  0
SPLINE
  5
14f
100
AcDbEntity
  8
0
 62
7
100
AcDbSpline
 70
8
 71
3
 72
8
 73
4
 74
0
 40
0
 40
0
 40
0
 40
0
 40
1
 40
1
 40
1
 40
1
 10
50.930037
 20
72.845914
 30
0.0
 10
47.757087
 20
75.425024
 30
0.0
 10
43.038048
 20
72.865008
 30
0.0
 10
42.727193
 20
69.315926
 30
0.0
  0
SPLINE
  5
150
100
AcDbEntity
  8
0
 62
7
100
AcDbSpline
 70
8
 71
3
 72
8
 73
4
 74
0
 40
0
 40
0
 40
0
 40
0
 40
1
 40
1
 40
1
 40
1
 10
42.727193
 20
69.315926
 30
0.0
 10
42.351936
 20
66.635387
 30
0.0
 10
42.922826
 20
63.288997
 30
0.0
 10
44.659602
 20
61.232694
 30
0.0
  0
LWPOLYLINE
  5
151
100
AcDbEntity
  8
0
 62
7
100
AcDbPolyline
 90
1
 70
1
 10
46.311108
 20
54.672922
 30
0.0
  0
SPLINE
  5
152
100
AcDbEntity
  8
0
 62
7
100
AcDbSpline
 70
8
 71
3
 72
8
 73
4
 74
0
 40
0
 40
0
 40
0
 40
0
 40
1
 40
1
 40
1
 40
1
 10
56.526054
 20
60.907112
 30
0.0
 10
56.598641
 20
63.006664
 30
0.0
 10
54.932743
 20
65.456276
 30
0.0
 10
53.249486
 20
67.064599
 30
0.0
  0
SPLINE
  5
153
100
AcDbEntity
  8
0
 62
7
100
AcDbSpline
 70
8
 71
3
 72
8
 73
4
 74
0
 40
0
 40
0
 40
0
 40
0
 40
1
 40
1
 40
1
 40
1
 10
53.249486
 20
67.064599
 30
0.0
 10
51.100576
 20
69.838569
 30
0.0
 10
53.203253
 20
64.205358
 30
0.0
 10
54.179532
 20
63.413844
 30
0.0
  0
SPLINE
  5
154
100
AcDbEntity
  8
0
 62
7
100
AcDbSpline
 70
8
 71
3
 72
8
 73
4
 74
0
 40
0
 40
0
 40
0
 40
0
 40
1
 40
1
 40
1
 40
1
 10
54.179532
 20
63.413844
 30
0.0
 10
54.883003
 20
62.552971
 30
0.0
 10
55.377168
 20
61.358357
 30
0.0
 10
56.526054
 20
60.907112
 30
0.0
  0
LWPOLYLINE
  5
155
100
AcDbEntity
  8
0
 62
7
100
AcDbPolyline
 90
1
 70
1
 10
44.659602
 20
61.232694
 30
0.0
  0
SPLINE
  5
156
100
AcDbEntity
  8
0
 62
7
100
AcDbSpline
 70
8
 71
3
 72
8
 73
4
 74
0
 40
0
 40
0
 40
0
 40
0
 40
1
 40
1
 40
1
 40
1
 10
74.089713
 20
77.910132
 30
0.0
 10
76.120703
 20
78.844608
 30
0.0
 10
78.090530
 20
79.711846
 30
0.0
 10
80.183584
 20
80.660683
 30
0.0
  0
SPLINE
  5
157
100
AcDbEntity
  8
0
 62
7
100
AcDbSpline
 70
8
 71
3
 72
8
 73
4
 74
0
 40
0
 40
0
 40
0
 40
0
 40
1
 40
1
 40
1
 40
1
 10
80.183584
 20
80.660683
 30
0.0
 10
82.780337
 20
81.535429
 30
0.0
 10
85.574972
 20
83.068191
 30
0.0
 10
87.972944
 20
84.344731
 30
0.0
  0
SPLINE
  5
158
100
AcDbEntity
  8
0
 62
7
100
AcDbSpline
 70
8
 71
3
 72
8
 73
4
 74
0
 40
0
 40
0
 40
0
 40
0
 40
1
 40
1
 40
1
 40
1
 10
87.972944
 20
84.344731
 30
0.0
 10
90.848531
 20
85.296995
 30
0.0
 10
93.346344
 20
86.855625
 30
0.0
 10
96.346057
 20
87.776881
 30
0.0
  0
SPLINE
  5
159
100
AcDbEntity
  8
0
 62
7
100
AcDbSpline
 70
8
 71
3
 72
8
 73
4
 74
0
 40
0
 40
0
 40
0
 40
0
 40
1
 40
1
 40
1
 40
1
 10
96.346057
 20
87.776881
 30
0.0
 10
96.653674
 20
89.474964
 30
0.0
 10
91.700324
 20
90.233103
 30
0.0
 10
89.847428
 20
91.312418
 30
0.0
  0
SPLINE
  5
15a
100
AcDbEntity
  8
0
 62
7
100
AcDbSpline
 70
8
 71
3
 72
8
 73
4
 74
0
 40
0
 40
0
 40
0
 40
0
 40
1
 40
1
 40
1
 40
1
 10
89.847428
 20
91.312418
 30
0.0
 10
87.817337
 20
92.750035
 30
0.0
 10
85.145928
 20
93.635960
 30
0.0
 10
82.934145
 20
94.784144
 30
0.0
  0
SPLINE
  5
15b
100
AcDbEntity
  8
0
 62
7
100
AcDbSpline
 70
8
 71
3
 72
8
 73
4
 74
0
 40
0
 40
0
 40
0
 40
0
 40
1
 40
1
 40
1
 40
1
 10
82.934145
 20
94.784144
 30
0.0
 10
80.609930
 20
94.959012
 30
0.0
 10
82.098543
 20
89.948159
 30
0.0
 10
81.505796
 20
88.108664
 30
0.0
  0
SPLINE
  5
15c
100
AcDbEntity
  8
0
 62
7
100
AcDbSpline
 70
8
 71
3
 72
8
 73
4
 74
0
 40
0
 40
0
 40
0
 40
0
 40
1
 40
1
 40
1
 40
1
 10
81.505796
 20
88.108664
 30
0.0
 10
82.222669
 20
84.111112
 30
0.0
 10
77.089426
 20
82.731920
 30
0.0
 10
73.729927
 20
82.206502
 30
0.0
  0
SPLINE
  5
15d
100
AcDbEntity
  8
0
 62
7
100
AcDbSpline
 70
8
 71
3
 72
8
 73
4
 74
0
 40
0
 40
0
 40
0
 40
0
 40
1
 40
1
 40
1
 40
1
 10
73.729927
 20
82.206502
 30
0.0
 10
71.448886
 20
81.402830
 30
0.0
 10
67.704416
 20
82.172148
 30
0.0
 10
66.178925
 20
81.451463
 30
0.0
  0
SPLINE
  5
15e
100
AcDbEntity
  8
0
 62
7
100
AcDbSpline
 70
8
 71
3
 72
8
 73
4
 74
0
 40
0
 40
0
 40
0
 40
0
 40
1
 40
1
 40
1
 40
1
 10
66.178925
 20
81.451463
 30
0.0
 10
68.747795
 20
80.114049
 30
0.0
 10
71.637773
 20
79.092752
 30
0.0
 10
74.089713
 20
77.910132
 30
0.0
  0
LWPOLYLINE
  5
15f
100
AcDbEntity
  8
0
 62
7
100
AcDbPolyline
 90
1
 70
1
 10
56.526054
 20
60.907112
 30
0.0
  0
SPLINE
  5
160
100
AcDbEntity
  8
0
 62
7
100
AcDbSpline
 70
8
 71
3
 72
8
 73
4
 74
0
 40
0
 40
0
 40
0
 40
0
 40
1
 40
1
 40
1
 40
1
 10
52.683633
 20
87.870149
 30
0.0
 10
53.035053
 20
90.217273
 30
0.0
 10
53.263427
 20
93.729962
 30
0.0
 10
53.337183
 20
95.435470
 30
0.0
  0
SPLINE
  5
161
100
AcDbEntity
  8
0
 62
7
100
AcDbSpline
 70
8
 71
3
 72
8
 73
4
 74
0
 40
0
 40
0
 40
0
 40
0
 40
1
 40
1
 40
1
 40
1
 10
53.337183
 20
95.435470
 30
0.0
 10
50.453141
 20
94.430819
 30
0.0
 10
47.970530
 20
93.098954
 30
0.0
 10
45.310094
 20
91.795894
 30
0.0
  0
SPLINE
  5
162
100
AcDbEntity
  8
0
 62
7
100
AcDbSpline
 70
8
 71
3
 72
8
 73
4
 74
0
 40
0
 40
0
 40
0
 40
0
 40
1
 40
1
 40
1
 40
1
 10
45.310094
 20
91.795894
 30
0.0
 10
44.940145
 20
90.163744
 30
0.0
 10
49.822977
 20
89.368069
 30
0.0
 10
51.477451
 20
87.977208
 30
0.0
  0
SPLINE
  5
163
100
AcDbEntity
  8
0
 62
7
100
AcDbSpline
 70
8
 71
3
 72
8
 73
4
 74
0
 40
0
 40
0
 40
0
 40
0
 40
1
 40
1
 40
1
 40
1
 10
51.477451
 20
87.977208
 30
0.0
 10
51.800898
 20
87.739672
 30
0.0
 10
52.323757
 20
87.611479
 30
0.0
 10
52.683633
 20
87.870149
 30
0.0
  0
LWPOLYLINE
  5
164
100
AcDbEntity
  8
0
 62
7
100
AcDbPolyline
 90
1
 70
1
 10
74.089713
 20
77.910132
 30
0.0
  0
SPLINE
  5
165
100
AcDbEntity
  8
0
 62
7
100
AcDbSpline
 70
8
 71
3
 72
8
 73
4
 74
0
 40
0
 40
0
 40
0
 40
0
 40
1
 40
1
 40
1
 40
1
 10
69.404404
 20
90.325474
 30
0.0
 10
72.869140
 20
90.601117
 30
0.0
 10
76.379749
 20
91.394344
 30
0.0
 10
78.632008
 20
93.989938
 30
0.0
  0
SPLINE
  5
166
100
AcDbEntity
  8
0
 62
7
100
AcDbSpline
 70
8
 71
3
 72
8
 73
4
 74
0
 40
0
 40
0
 40
0
 40
0
 40
1
 40
1
 40
1
 40
1
 10
78.632008
 20
93.989938
 30
0.0
 10
81.912354
 20
96.756400
 30
0.0
 10
75.953403
 20
98.711929
 30
0.0
 10
73.794689
 20
100.055054
 30
0.0
  0
SPLINE
  5
167
100
AcDbEntity
  8
0
 62
7
100
AcDbSpline
 70
8
 71
3
 72
8
 73
4
 74
0
 40
0
 40
0
 40
0
 40
0
 40
1
 40
1
 40
1
 40
1
 10
73.794689
 20
100.055054
 30
0.0
 10
69.381018
 20
101.316580
 30
0.0
 10
64.294547
 20
101.383084
 30
0.0
 10
59.998616
 20
99.718049
 30
0.0
  0
SPLINE
  5
168
100
AcDbEntity
  8
0
 62
7
100
AcDbSpline
 70
8
 71
3
 72
8
 73
4
 74
0
 40
0
 40
0
 40
0
 40
0
 40
1
 40
1
 40
1
 40
1
 10
59.998616
 20
99.718049
 30
0.0
 10
57.088849
 20
98.554442
 30
0.0
 10
52.586311
 20
95.555421
 30
0.0
 10
56.849052
 20
93.066723
 30
0.0
  0
SPLINE
  5
169
100
AcDbEntity
  8
0
 62
7
100
AcDbSpline
 70
8
 71
3
 72
8
 73
4
 74
0
 40
0
 40
0
 40
0
 40
0
 40
1
 40
1
 40
1
 40
1
 10
56.849052
 20
93.066723
 30
0.0
 10
59.563905
 20
91.251219
 30
0.0
 10
62.921965
 20
90.463214
 30
0.0
 10
66.375907
 20
90.303687
 30
0.0
  0
SPLINE
  5
16a
100
AcDbEntity
  8
0
 62
7
100
AcDbSpline
 70
8
 71
3
 72
8
 73
4
 74
0
 40
0
 40
0
 40
0
 40
0
 40
1
 40
1
 40
1
 40
1
 10
66.375907
 20
90.303687
 30
0.0
 10
67.385106
 20
90.273495
 30
0.0
 10
68.396104
 20
90.275290
 30
0.0
 10
69.404404
 20
90.325474
 30
0.0
  0
LWPOLYLINE
  5
16b
100
AcDbEntity
  8
0
 62
7
100
AcDbPolyline
 90
1
 70
1
 10
52.683633
 20
87.870149
 30
0.0
  0
SPLINE
  5
16c
100
AcDbEntity
  8
0
 62
7
100
AcDbSpline
 70
8
 71
3
 72
8
 73
4
 74
0
 40
0
 40
0
 40
0
 40
0
 40
1
 40
1
 40
1
 40
1
 10
30.576954
 20
111.773373
 30
0.0
 10
30.576954
 20
108.547349
 30
0.0
 10
29.528486
 20
107.015861
 30
0.0
 10
24.794182
 20
107.015861
 30
0.0
  0
LWPOLYLINE
  5
16d
100
AcDbEntity
  8
0
 62
7
100
AcDbPolyline
 90
1
 70
1
 10
69.404404
 20
90.325474
 30
0.0
  0
SPLINE
  5
16e
100
AcDbEntity
  8
0
 62
7
100
AcDbSpline
 70
8
 71
3
 72
8
 73
4
 74
0
 40
0
 40
0
 40
0
 40
0
 40
1
 40
1
 40
1
 40
1
 10
20.059877
 20
107.015861
 30
0.0
 10
15.731322
 20
107.015861
 30
0.0
 10
14.344872
 20
108.775697
 30
0.0
 10
14.344872
 20
111.806229
 30
0.0
  0
LWPOLYLINE
  5
16f
100
AcDbEntity
  8
0
 62
7
100
AcDbPolyline
 90
2
 70
0
 10
24.794182
 20
107.015861
 30
0.0
 10
20.059877
 20
107.015861
 30
0.0
  0
SPLINE
  5
170
100
AcDbEntity
  8
0
 62
7
100
AcDbSpline
 70
8
 71
3
 72
8
 73
4
 74
0
 40
0
 40
0
 40
0
 40
0
 40
1
 40
1
 40
1
 40
1
 10
14.344872
 20
114.966952
 30
0.0
 10
14.344872
 20
118.942497
 30
0.0
 10
16.745694
 20
119.594273
 30
0.0
 10
20.668501
 20
119.594273
 30
0.0
  0
LWPOLYLINE
  5
171
100
AcDbEntity
  8
0
 62
7
100
AcDbPolyline
 90
2
 70
0
 10
14.344872
 20
111.806229
 30
0.0
 10
14.344872
 20
114.966952
 30
0.0
  0
SPLINE
  5
172
100
AcDbEntity
  8
0
 62
7
100
AcDbSpline
 70
8
 71
3
 72
8
 73
4
 74
0
 40
0
 40
0
 40
0
 40
0
 40
1
 40
1
 40
1
 40
1
 10
24.591307
 20
119.594273
 30
0.0
 10
28.581881
 20
119.594273
 30
0.0
 10
30.576954
 20
118.877196
 30
0.0
 10
30.576954
 20
115.032252
 30
0.0
  0
LWPOLYLINE
  5
173
100
AcDbEntity
  8
0
 62
7
100
AcDbPolyline
 90
2
 70
0
 10
20.668501
 20
119.594273
 30
0.0
 10
24.591307
 20
119.594273
 30
0.0
  0
LWPOLYLINE
  5
174
100
AcDbEntity
  8
0
 62
7
100
AcDbPolyline
 90
3
 70
0
 10
30.576954
 20
115.032252
 30
0.0
 10
30.576954
 20
111.773373
 30
0.0
 10
30.576954
 20
111.773373
 30
0.0
  0
SPLINE
  5
175
100
AcDbEntity
  8
0
 62
7
100
AcDbSpline
 70
8
 71
3
 72
8
 73
4
 74
0
 40
0
 40
0
 40
0
 40
0
 40
1
 40
1
 40
1
 40
1
 10
14.209338
 20
107.635192
 30
0.0
 10
15.054932
 20
105.614563
 30
0.0
 10
17.422084
 20
104.734851
 30
0.0
 10
20.465626
 20
104.734851
 30
0.0
  0
LWPOLYLINE
  5
176
100
AcDbEntity
  8
0
 62
7
100
AcDbPolyline
 90
4
 70
0
 10
11.436437
 20
104.995643
 30
0.0
 10
14.141997
 20
104.995643
 30
0.0
 10
14.141997
 20
107.635192
 30
0.0
 10
14.209338
 20
107.635192
 30
0.0
  0
SPLINE
  5
177
100
AcDbEntity
  8
0
 62
7
100
AcDbSpline
 70
8
 71
3
 72
8
 73
4
 74
0
 40
0
 40
0
 40
0
 40
0
 40
1
 40
1
 40
1
 40
1
 10
24.523540
 20
104.734851
 30
0.0
 10
29.799127
 20
104.734851
 30
0.0
 10
33.484963
 20
106.005957
 30
0.0
 10
33.484963
 20
111.740928
 30
0.0
  0
LWPOLYLINE
  5
178
100
AcDbEntity
  8
0
 62
7
100
AcDbPolyline
 90
2
 70
0
 10
20.465626
 20
104.734851
 30
0.0
 10
24.523540
 20
104.734851
 30
0.0
  0
SPLINE
  5
179
100
AcDbEntity
  8
0
 62
7
100
AcDbSpline
 70
8
 71
3
 72
8
 73
4
 74
0
 40
0
 40
0
 40
0
 40
0
 40
1
 40
1
 40
1
 40
1
 10
33.484963
 20
114.673714
 30
0.0
 10
33.484963
 20
119.985256
 30
0.0
 10
31.354781
 20
121.875283
 30
0.0
 10
24.354762
 20
121.875283
 30
0.0
  0
LWPOLYLINE
  5
17a
100
AcDbEntity
  8
0
 62
7
100
AcDbPolyline
 90
2
 70
0
 10
33.484963
 20
111.740928
 30
0.0
 10
33.484963
 20
114.673714
 30
0.0
  0
SPLINE
  5
17b
100
AcDbEntity
  8
0
 62
7
100
AcDbSpline
 70
8
 71
3
 72
8
 73
4
 74
0
 40
0
 40
0
 40
0
 40
0
 40
1
 40
1
 40
1
 40
1
 10
19.924770
 20
121.875283
 30
0.0
 10
16.610587
 20
121.875283
 30
0.0
 10
15.021262
 20
121.125761
 30
0.0
 10
14.412639
 20
119.398781
 30
0.0
  0
LWPOLYLINE
  5
17c
100
AcDbEntity
  8
0
 62
7
100
AcDbPolyline
 90
2
 70
0
 10
24.354762
 20
121.875283
 30
0.0
 10
19.924770
 20
121.875283
 30
0.0
  0
LWPOLYLINE
  5
17d
100
AcDbEntity
  8
0
 62
7
100
AcDbPolyline
 90
6
 70
0
 10
14.412639
 20
119.398781
 30
0.0
 10
14.344872
 20
119.398781
 30
0.0
 10
14.344872
 20
128.588123
 30
0.0
 10
11.436437
 20
128.588123
 30
0.0
 10
11.436437
 20
104.995643
 30
0.0
 10
11.436437
 20
104.995643
 30
0.0
  0
LWPOLYLINE
  5
17e
100
AcDbEntity
  8
0
 62
7
100
AcDbPolyline
 90
5
 70
1
 10
38.591345
 20
104.995643
 30
0.0
 10
41.499780
 20
104.995643
 30
0.0
 10
41.499780
 20
121.614491
 30
0.0
 10
38.591345
 20
121.614491
 30
0.0
 10
38.591345
 20
104.995643
 30
0.0
  0
SPLINE
  5
17f
100
AcDbEntity
  8
0
 62
7
100
AcDbSpline
 70
8
 71
3
 72
8
 73
4
 74
0
 40
0
 40
0
 40
0
 40
0
 40
1
 40
1
 40
1
 40
1
 10
48.939644
 20
109.981092
 30
0.0
 10
48.939644
 20
107.276653
 30
0.0
 10
50.224657
 20
104.734851
 30
0.0
 10
55.669022
 20
104.734851
 30
0.0
  0
LWPOLYLINE
  5
180
100
AcDbEntity
  8
0
 62
7
100
AcDbPolyline
 90
5
 70
1
 10
38.591345
 20
125.524735
 30
0.0
 10
41.499780
 20
125.524735
 30
0.0
 10
41.499780
 20
128.588123
 30
0.0
 10
38.591345
 20
128.588123
 30
0.0
 10
38.591345
 20
125.524735
 30
0.0
  0
SPLINE
  5
181
100
AcDbEntity
  8
0
 62
7
100
AcDbSpline
 70
8
 71
3
 72
8
 73
4
 74
0
 40
0
 40
0
 40
0
 40
0
 40
1
 40
1
 40
1
 40
1
 10
57.258347
 20
104.734851
 30
0.0
 10
63.548305
 20
104.734851
 30
0.0
 10
63.886713
 20
107.374399
 30
0.0
 10
63.886713
 20
110.698169
 30
0.0
  0
LWPOLYLINE
  5
182
100
AcDbEntity
  8
0
 62
7
100
AcDbPolyline
 90
2
 70
0
 10
55.669022
 20
104.734851
 30
0.0
 10
57.258347
 20
104.734851
 30
0.0
  0
SPLINE
  5
183
100
AcDbEntity
  8
0
 62
7
100
AcDbSpline
 70
8
 71
3
 72
8
 73
4
 74
0
 40
0
 40
0
 40
0
 40
0
 40
1
 40
1
 40
1
 40
1
 10
61.519561
 20
111.284644
 30
0.0
 10
61.519561
 20
107.797828
 30
0.0
 10
60.910512
 20
107.015861
 30
0.0
 10
57.055472
 20
107.015861
 30
0.0
  0
LWPOLYLINE
  5
184
100
AcDbEntity
  8
0
 62
7
100
AcDbPolyline
 90
4
 70
0
 10
63.886713
 20
110.698169
 30
0.0
 10
63.886713
 20
112.522895
 30
0.0
 10
61.519561
 20
112.522895
 30
0.0
 10
61.519561
 20
111.284644
 30
0.0
  0
SPLINE
  5
185
100
AcDbEntity
  8
0
 62
7
100
AcDbSpline
 70
8
 71
3
 72
8
 73
4
 74
0
 40
0
 40
0
 40
0
 40
0
 40
1
 40
1
 40
1
 40
1
 10
56.142537
 20
107.015861
 30
0.0
 10
52.963888
 20
107.015861
 30
0.0
 10
51.847652
 20
107.960874
 30
0.0
 10
51.847652
 20
111.056707
 30
0.0
  0
LWPOLYLINE
  5
186
100
AcDbEntity
  8
0
 62
7
100
AcDbPolyline
 90
2
 70
0
 10
57.055472
 20
107.015861
 30
0.0
 10
56.142537
 20
107.015861
 30
0.0
  0
SPLINE
  5
187
100
AcDbEntity
  8
0
 62
7
100
AcDbSpline
 70
8
 71
3
 72
8
 73
4
 74
0
 40
0
 40
0
 40
0
 40
0
 40
1
 40
1
 40
1
 40
1
 10
66.794722
 20
109.720710
 30
0.0
 10
66.794722
 20
104.734851
 30
0.0
 10
70.818965
 20
104.734851
 30
0.0
 10
75.113850
 20
104.734851
 30
0.0
  0
LWPOLYLINE
  5
188
100
AcDbEntity
  8
0
 62
7
100
AcDbPolyline
 90
13
 70
0
 10
51.847652
 20
111.056707
 30
0.0
 10
51.847652
 20
119.333480
 30
0.0
 10
63.379101
 20
119.333480
 30
0.0
 10
63.379101
 20
121.614491
 30
0.0
 10
51.847652
 20
121.614491
 30
0.0
 10
51.847652
 20
125.557591
 30
0.0
 10
48.939644
 20
125.557591
 30
0.0
 10
48.939644
 20
121.614491
 30
0.0
 10
45.151945
 20
121.614491
 30
0.0
 10
45.151945
 20
119.333480
 30
0.0
 10
48.939644
 20
119.333480
 30
0.0
 10
48.939644
 20
109.981092
 30
0.0
 10
48.939644
 20
109.981092
 30
0.0
  0
SPLINE
  5
189
100
AcDbEntity
  8
0
 62
7
100
AcDbSpline
 70
8
 71
3
 72
8
 73
4
 74
0
 40
0
 40
0
 40
0
 40
0
 40
1
 40
1
 40
1
 40
1
 10
80.456778
 20
104.734851
 30
0.0
 10
84.007506
 20
104.734851
 30
0.0
 10
88.471595
 20
104.897897
 30
0.0
 10
88.471595
 20
109.557664
 30
0.0
  0
LWPOLYLINE
  5
18a
100
AcDbEntity
  8
0
 62
7
100
AcDbPolyline
 90
2
 70
0
 10
75.113850
 20
104.734851
 30
0.0
 10
80.456778
 20
104.734851
 30
0.0
  0
SPLINE
  5
18b
100
AcDbEntity
  8
0
 62
7
100
AcDbSpline
 70
8
 71
3
 72
8
 73
4
 74
0
 40
0
 40
0
 40
0
 40
0
 40
1
 40
1
 40
1
 40
1
 10
88.471595
 20
109.622964
 30
0.0
 10
88.471595
 20
114.119684
 30
0.0
 10
85.495393
 20
114.543523
 30
0.0
 10
81.133168
 20
114.543523
 30
0.0
  0
LWPOLYLINE
  5
18c
100
AcDbEntity
  8
0
 62
7
100
AcDbPolyline
 90
2
 70
0
 10
88.471595
 20
109.557664
 30
0.0
 10
88.471595
 20
109.622964
 30
0.0
  0
SPLINE
  5
18d
100
AcDbEntity
  8
0
 62
7
100
AcDbSpline
 70
8
 71
3
 72
8
 73
4
 74
0
 40
0
 40
0
 40
0
 40
0
 40
1
 40
1
 40
1
 40
1
 10
73.456759
 20
114.543523
 30
0.0
 10
70.413217
 20
114.543523
 30
0.0
 10
69.939701
 20
115.325490
 30
0.0
 10
69.939701
 20
116.693932
 30
0.0
  0
LWPOLYLINE
  5
18e
100
AcDbEntity
  8
0
 62
7
100
AcDbPolyline
 90
2
 70
0
 10
81.133168
 20
114.543523
 30
0.0
 10
73.456759
 20
114.543523
 30
0.0
  0
SPLINE
  5
18f
100
AcDbEntity
  8
0
 62
7
100
AcDbSpline
 70
8
 71
3
 72
8
 73
4
 74
0
 40
0
 40
0
 40
0
 40
0
 40
1
 40
1
 40
1
 40
1
 10
69.939701
 20
117.313263
 30
0.0
 10
69.939701
 20
119.203290
 30
0.0
 10
70.852636
 20
119.594273
 30
0.0
 10
75.012413
 20
119.594273
 30
0.0
  0
LWPOLYLINE
  5
190
100
AcDbEntity
  8
0
 62
7
100
AcDbPolyline
 90
2
 70
0
 10
69.939701
 20
116.693932
 30
0.0
 10
69.939701
 20
117.313263
 30
0.0
  0
SPLINE
  5
191
100
AcDbEntity
  8
0
 62
7
100
AcDbSpline
 70
8
 71
3
 72
8
 73
4
 74
0
 40
0
 40
0
 40
0
 40
0
 40
1
 40
1
 40
1
 40
1
 10
80.084699
 20
119.594273
 30
0.0
 10
83.263775
 20
119.594273
 30
0.0
 10
85.022304
 20
119.528972
 30
0.0
 10
85.022304
 20
116.987169
 30
0.0
  0
LWPOLYLINE
  5
192
100
AcDbEntity
  8
0
 62
7
100
AcDbPolyline
 90
2
 70
0
 10
75.012413
 20
119.594273
 30
0.0
 10
80.084699
 20
119.594273
 30
0.0
  0
SPLINE
  5
193
100
AcDbEntity
  8
0
 62
7
100
AcDbSpline
 70
8
 71
3
 72
8
 73
4
 74
0
 40
0
 40
0
 40
0
 40
0
 40
1
 40
1
 40
1
 40
1
 10
87.727438
 20
117.704246
 30
0.0
 10
87.727438
 20
120.050557
 30
0.0
 10
86.814503
 20
121.875283
 30
0.0
 10
80.253903
 20
121.875283
 30
0.0
  0
LWPOLYLINE
  5
194
100
AcDbEntity
  8
0
 62
7
100
AcDbPolyline
 90
4
 70
0
 10
85.022304
 20
116.987169
 30
0.0
 10
85.022304
 20
116.824533
 30
0.0
 10
87.727438
 20
116.824533
 30
0.0
 10
87.727438
 20
117.704246
 30
0.0
  0
SPLINE
  5
195
100
AcDbEntity
  8
0
 62
7
100
AcDbSpline
 70
8
 71
3
 72
8
 73
4
 74
0
 40
0
 40
0
 40
0
 40
0
 40
1
 40
1
 40
1
 40
1
 10
75.790240
 20
121.875283
 30
0.0
 10
68.621017
 20
121.875283
 30
0.0
 10
67.031693
 20
120.376240
 30
0.0
 10
67.031693
 20
117.671801
 30
0.0
  0
LWPOLYLINE
  5
196
100
AcDbEntity
  8
0
 62
7
100
AcDbPolyline
 90
2
 70
0
 10
80.253903
 20
121.875283
 30
0.0
 10
75.790240
 20
121.875283
 30
0.0
  0
SPLINE
  5
197
100
AcDbEntity
  8
0
 62
7
100
AcDbSpline
 70
8
 71
3
 72
8
 73
4
 74
0
 40
0
 40
0
 40
0
 40
0
 40
1
 40
1
 40
1
 40
1
 10
67.031693
 20
116.693932
 30
0.0
 10
67.031693
 20
113.533209
 30
0.0
 10
68.553251
 20
112.262513
 30
0.0
 10
72.645261
 20
112.262513
 30
0.0
  0
LWPOLYLINE
  5
198
100
AcDbEntity
  8
0
 62
7
100
AcDbPolyline
 90
2
 70
0
 10
67.031693
 20
117.671801
 30
0.0
 10
67.031693
 20
116.693932
 30
0.0
  0
SPLINE
  5
199
100
AcDbEntity
  8
0
 62
7
100
AcDbSpline
 70
8
 71
3
 72
8
 73
4
 74
0
 40
0
 40
0
 40
0
 40
0
 40
1
 40
1
 40
1
 40
1
 10
81.606683
 20
112.262513
 30
0.0
 10
85.089645
 20
112.262513
 30
0.0
 10
85.563160
 20
111.382390
 30
0.0
 10
85.563160
 20
109.785600
 30
0.0
  0
LWPOLYLINE
  5
19a
100
AcDbEntity
  8
0
 62
7
100
AcDbPolyline
 90
2
 70
0
 10
72.645261
 20
112.262513
 30
0.0
 10
81.606683
 20
112.262513
 30
0.0
  0
SPLINE
  5
19b
100
AcDbEntity
  8
0
 62
7
100
AcDbSpline
 70
8
 71
3
 72
8
 73
4
 74
0
 40
0
 40
0
 40
0
 40
0
 40
1
 40
1
 40
1
 40
1
 10
85.563160
 20
109.655410
 30
0.0
 10
85.563160
 20
107.178908
 30
0.0
 10
84.176710
 20
107.015861
 30
0.0
 10
79.814484
 20
107.015861
 30
0.0
  0
LWPOLYLINE
  5
19c
100
AcDbEntity
  8
0
 62
7
100
AcDbPolyline
 90
2
 70
0
 10
85.563160
 20
109.785600
 30
0.0
 10
85.563160
 20
109.655410
 30
0.0
  0
SPLINE
  5
19d
100
AcDbEntity
  8
0
 62
7
100
AcDbSpline
 70
8
 71
3
 72
8
 73
4
 74
0
 40
0
 40
0
 40
0
 40
0
 40
1
 40
1
 40
1
 40
1
 10
73.591866
 20
107.015861
 30
0.0
 10
70.616091
 20
107.015861
 30
0.0
 10
69.500282
 20
107.863129
 30
0.0
 10
69.500282
 20
109.916202
 30
0.0
  0
LWPOLYLINE
  5
19e
100
AcDbEntity
  8
0
 62
7
100
AcDbPolyline
 90
2
 70
0
 10
79.814484
 20
107.015861
 30
0.0
 10
73.591866
 20
107.015861
 30
0.0
  0
LWPOLYLINE
  5
19f
100
AcDbEntity
  8
0
 62
7
100
AcDbPolyline
 90
5
 70
0
 10
69.500282
 20
109.916202
 30
0.0
 10
69.500282
 20
110.730614
 30
0.0
 10
66.794722
 20
110.730614
 30
0.0
 10
66.794722
 20
109.720710
 30
0.0
 10
66.794722
 20
109.720710
 30
0.0
  0
SPLINE
  5
1a0
100
AcDbEntity
  8
0
 62
7
100
AcDbSpline
 70
8
 71
3
 72
8
 73
4
 74
0
 40
0
 40
0
 40
0
 40
0
 40
1
 40
1
 40
1
 40
1
 10
119.580422
 20
108.965028
 30
0.0
 10
119.662254
 20
109.438151
 30
0.0
 10
119.716809
 20
109.911274
 30
0.0
 10
119.716809
 20
110.331827
 30
0.0
  0
LWPOLYLINE
  5
1a1
100
AcDbEntity
  8
0
 62
7
100
AcDbPolyline
 90
3
 70
0
 10
122.581344
 20
104.995643
 30
0.0
 10
123.563324
 20
106.940703
 30
0.0
 10
119.580422
 20
108.965028
 30
0.0
  0
SPLINE
  5
1a2
100
AcDbEntity
  8
0
 62
7
100
AcDbSpline
 70
8
 71
3
 72
8
 73
4
 74
0
 40
0
 40
0
 40
0
 40
0
 40
1
 40
1
 40
1
 40
1
 10
101.984905
 20
117.850043
 30
0.0
 10
101.057053
 20
118.323166
 30
0.0
 10
101.029775
 20
118.901427
 30
0.0
 10
101.029775
 20
120.137214
 30
0.0
  0
SPLINE
  5
1a3
100
AcDbEntity
  8
0
 62
7
100
AcDbSpline
 70
8
 71
3
 72
8
 73
4
 74
0
 40
0
 40
0
 40
0
 40
0
 40
1
 40
1
 40
1
 40
1
 10
101.029775
 20
120.137214
 30
0.0
 10
101.029775
 20
121.372590
 30
0.0
 10
101.466637
 20
122.134844
 30
0.0
 10
103.566984
 20
122.134844
 30
0.0
  0
LWPOLYLINE
  5
1a4
100
AcDbEntity
  8
0
 62
7
100
AcDbPolyline
 90
5
 70
0
 10
119.716809
 20
110.331827
 30
0.0
 10
119.716809
 20
114.353781
 30
0.0
 10
117.206877
 20
114.353781
 30
0.0
 10
117.206877
 20
110.095266
 30
0.0
 10
101.984905
 20
117.850043
 30
0.0
  0
SPLINE
  5
1a5
100
AcDbEntity
  8
0
 62
7
100
AcDbSpline
 70
8
 71
3
 72
8
 73
4
 74
0
 40
0
 40
0
 40
0
 40
0
 40
1
 40
1
 40
1
 40
1
 10
112.432936
 20
122.134844
 30
0.0
 10
113.879055
 20
122.134844
 30
0.0
 10
115.024699
 20
121.582867
 30
0.0
 10
115.024699
 20
119.821799
 30
0.0
  0
LWPOLYLINE
  5
1a6
100
AcDbEntity
  8
0
 62
7
100
AcDbPolyline
 90
2
 70
0
 10
103.566984
 20
122.134844
 30
0.0
 10
112.432936
 20
122.134844
 30
0.0
  0
SPLINE
  5
1a7
100
AcDbEntity
  8
0
 62
7
100
AcDbSpline
 70
8
 71
3
 72
8
 73
4
 74
0
 40
0
 40
0
 40
0
 40
0
 40
1
 40
1
 40
1
 40
1
 10
117.534204
 20
119.979507
 30
0.0
 10
117.534204
 20
122.581682
 30
0.0
 10
116.224897
 20
124.238022
 30
0.0
 10
112.405659
 20
124.238022
 30
0.0
  0
LWPOLYLINE
  5
1a8
100
AcDbEntity
  8
0
 62
7
100
AcDbPolyline
 90
4
 70
0
 10
115.024699
 20
119.821799
 30
0.0
 10
115.024699
 20
118.402020
 30
0.0
 10
117.534204
 20
118.402020
 30
0.0
 10
117.534204
 20
119.979507
 30
0.0
  0
SPLINE
  5
1a9
100
AcDbEntity
  8
0
 62
7
100
AcDbSpline
 70
8
 71
3
 72
8
 73
4
 74
0
 40
0
 40
0
 40
0
 40
0
 40
1
 40
1
 40
1
 40
1
 10
102.775944
 20
124.238022
 30
0.0
 10
100.184181
 20
124.238022
 30
0.0
 10
98.356607
 20
123.133658
 30
0.0
 10
98.356607
 20
120.400060
 30
0.0
  0
SPLINE
  5
1aa
100
AcDbEntity
  8
0
 62
7
100
AcDbSpline
 70
8
 71
3
 72
8
 73
4
 74
0
 40
0
 40
0
 40
0
 40
0
 40
1
 40
1
 40
1
 40
1
 10
98.356607
 20
120.400060
 30
0.0
 10
98.356607
 20
117.692336
 30
0.0
 10
98.711211
 20
117.429490
 30
0.0
 10
100.511508
 20
116.299252
 30
0.0
  0
LWPOLYLINE
  5
1ab
100
AcDbEntity
  8
0
 62
7
100
AcDbPolyline
 90
2
 70
0
 10
112.405659
 20
124.238022
 30
0.0
 10
102.775944
 20
124.238022
 30
0.0
  0
SPLINE
  5
1ac
100
AcDbEntity
  8
0
 62
7
100
AcDbSpline
 70
8
 71
3
 72
8
 73
4
 74
0
 40
0
 40
0
 40
0
 40
0
 40
1
 40
1
 40
1
 40
1
 10
100.511508
 20
116.246683
 30
0.0
 10
96.610438
 20
116.246683
 30
0.0
 10
95.683012
 20
114.537773
 30
0.0
 10
95.683012
 20
111.041511
 30
0.0
  0
SPLINE
  5
1ad
100
AcDbEntity
  8
0
 62
7
100
AcDbSpline
 70
8
 71
3
 72
8
 73
4
 74
0
 40
0
 40
0
 40
0
 40
0
 40
1
 40
1
 40
1
 40
1
 10
95.683012
 20
111.041511
 30
0.0
 10
95.683012
 20
106.677857
 30
0.0
 10
97.128705
 20
104.785366
 30
0.0
 10
102.830499
 20
104.785366
 30
0.0
  0
LWPOLYLINE
  5
1ae
100
AcDbEntity
  8
0
 62
7
100
AcDbPolyline
 90
2
 70
0
 10
100.511508
 20
116.299252
 30
0.0
 10
100.511508
 20
116.246683
 30
0.0
  0
SPLINE
  5
1af
100
AcDbEntity
  8
0
 62
7
100
AcDbSpline
 70
8
 71
3
 72
8
 73
4
 74
0
 40
0
 40
0
 40
0
 40
0
 40
1
 40
1
 40
1
 40
1
 10
112.378381
 20
104.785366
 30
0.0
 10
115.051976
 20
104.785366
 30
0.0
 10
117.670590
 20
105.048212
 30
0.0
 10
118.898492
 20
106.835565
 30
0.0
  0
LWPOLYLINE
  5
1b0
100
AcDbEntity
  8
0
 62
7
100
AcDbPolyline
 90
2
 70
0
 10
102.830499
 20
104.785366
 30
0.0
 10
112.378381
 20
104.785366
 30
0.0
  0
SPLINE
  5
1b1
100
AcDbEntity
  8
0
 62
7
100
AcDbSpline
 70
8
 71
3
 72
8
 73
4
 74
0
 40
0
 40
0
 40
0
 40
0
 40
1
 40
1
 40
1
 40
1
 10
116.443115
 20
107.966213
 30
0.0
 10
116.143065
 20
107.177265
 30
0.0
 10
114.588263
 20
106.888134
 30
0.0
 10
112.023778
 20
106.888134
 30
0.0
  0
LWPOLYLINE
  5
1b2
100
AcDbEntity
  8
0
 62
7
100
AcDbPolyline
 90
3
 70
0
 10
118.898492
 20
106.835565
 30
0.0
 10
122.581344
 20
104.995643
 30
0.0
 10
122.581344
 20
104.995643
 30
0.0
  0
SPLINE
  5
1b3
100
AcDbEntity
  8
0
 62
7
100
AcDbSpline
 70
8
 71
3
 72
8
 73
4
 74
0
 40
0
 40
0
 40
0
 40
0
 40
1
 40
1
 40
1
 40
1
 10
102.885053
 20
106.888134
 30
0.0
 10
98.956706
 20
106.888134
 30
0.0
 10
98.356607
 20
108.255344
 30
0.0
 10
98.356607
 20
110.436966
 30
0.0
  0
LWPOLYLINE
  5
1b4
100
AcDbEntity
  8
0
 62
7
100
AcDbPolyline
 90
2
 70
0
 10
112.023778
 20
106.888134
 30
0.0
 10
102.885053
 20
106.888134
 30
0.0
  0
SPLINE
  5
1b5
100
AcDbEntity
  8
0
 62
7
100
AcDbSpline
 70
8
 71
3
 72
8
 73
4
 74
0
 40
0
 40
0
 40
0
 40
0
 40
1
 40
1
 40
1
 40
1
 10
98.356607
 20
111.725322
 30
0.0
 10
98.356607
 20
114.774335
 30
0.0
 10
100.893389
 20
115.037181
 30
0.0
 10
101.603023
 20
115.037181
 30
0.0
  0
LWPOLYLINE
  5
1b6
100
AcDbEntity
  8
0
 62
7
100
AcDbPolyline
 90
2
 70
0
 10
98.356607
 20
110.436966
 30
0.0
 10
98.356607
 20
111.725322
 30
0.0
  0
SPLINE
  5
1b7
100
AcDbEntity
  8
0
 62
7
100
AcDbSpline
 70
8
 71
3
 72
8
 73
4
 74
0
 40
0
 40
0
 40
0
 40
0
 40
1
 40
1
 40
1
 40
1
 10
22.658297
 20
13.854455
 30
0.0
 10
22.658297
 20
10.628021
 30
0.0
 10
21.610255
 20
9.096532
 30
0.0
 10
16.875525
 20
9.096532
 30
0.0
  0
LWPOLYLINE
  5
1b8
100
AcDbEntity
  8
0
 62
7
100
AcDbPolyline
 90
4
 70
0
 10
101.603023
 20
115.037181
 30
0.0
 10
102.421340
 20
115.037181
 30
0.0
 10
116.443115
 20
107.966213
 30
0.0
 10
116.443115
 20
107.966213
 30
0.0
  0
SPLINE
  5
1b9
100
AcDbEntity
  8
0
 62
7
100
AcDbSpline
 70
8
 71
3
 72
8
 73
4
 74
0
 40
0
 40
0
 40
0
 40
0
 40
1
 40
1
 40
1
 40
1
 10
12.141221
 20
9.096532
 30
0.0
 10
7.812665
 20
9.096532
 30
0.0
 10
6.426215
 20
10.856368
 30
0.0
 10
6.426215
 20
13.886900
 30
0.0
  0
LWPOLYLINE
  5
1ba
100
AcDbEntity
  8
0
 62
7
100
AcDbPolyline
 90
2
 70
0
 10
16.875525
 20
9.096532
 30
0.0
 10
12.141221
 20
9.096532
 30
0.0
  0
SPLINE
  5
1bb
100
AcDbEntity
  8
0
 62
7
100
AcDbSpline
 70
8
 71
3
 72
8
 73
4
 74
0
 40
0
 40
0
 40
0
 40
0
 40
1
 40
1
 40
1
 40
1
 10
6.426215
 20
17.047623
 30
0.0
 10
6.426215
 20
21.023168
 30
0.0
 10
8.827463
 20
21.674944
 30
0.0
 10
12.750270
 20
21.674944
 30
0.0
  0
LWPOLYLINE
  5
1bc
100
AcDbEntity
  8
0
 62
7
100
AcDbPolyline
 90
2
 70
0
 10
6.426215
 20
13.886900
 30
0.0
 10
6.426215
 20
17.047623
 30
0.0
  0
SPLINE
  5
1bd
100
AcDbEntity
  8
0
 62
7
100
AcDbSpline
 70
8
 71
3
 72
8
 73
4
 74
0
 40
0
 40
0
 40
0
 40
0
 40
1
 40
1
 40
1
 40
1
 10
16.672650
 20
21.674944
 30
0.0
 10
20.663224
 20
21.674944
 30
0.0
 10
22.658297
 20
20.957868
 30
0.0
 10
22.658297
 20
17.112924
 30
0.0
  0
LWPOLYLINE
  5
1be
100
AcDbEntity
  8
0
 62
7
100
AcDbPolyline
 90
2
 70
0
 10
12.750270
 20
21.674944
 30
0.0
 10
16.672650
 20
21.674944
 30
0.0
  0
LWPOLYLINE
  5
1bf
100
AcDbEntity
  8
0
 62
7
100
AcDbPolyline
 90
3
 70
0
 10
22.658297
 20
17.112924
 30
0.0
 10
22.658297
 20
13.854455
 30
0.0
 10
22.658297
 20
13.854455
 30
0.0
  0
SPLINE
  5
1c0
100
AcDbEntity
  8
0
 62
7
100
AcDbSpline
 70
8
 71
3
 72
8
 73
4
 74
0
 40
0
 40
0
 40
0
 40
0
 40
1
 40
1
 40
1
 40
1
 10
6.291107
 20
9.715863
 30
0.0
 10
7.136275
 20
7.695645
 30
0.0
 10
9.503853
 20
6.815522
 30
0.0
 10
12.546969
 20
6.815522
 30
0.0
  0
LWPOLYLINE
  5
1c1
100
AcDbEntity
  8
0
 62
7
100
AcDbPolyline
 90
4
 70
0
 10
3.518206
 20
7.076315
 30
0.0
 10
6.223340
 20
7.076315
 30
0.0
 10
6.223340
 20
9.715863
 30
0.0
 10
6.291107
 20
9.715863
 30
0.0
  0
SPLINE
  5
1c2
100
AcDbEntity
  8
0
 62
7
100
AcDbSpline
 70
8
 71
3
 72
8
 73
4
 74
0
 40
0
 40
0
 40
0
 40
0
 40
1
 40
1
 40
1
 40
1
 10
16.605310
 20
6.815522
 30
0.0
 10
21.880470
 20
6.815522
 30
0.0
 10
25.566732
 20
8.086629
 30
0.0
 10
25.566732
 20
13.821599
 30
0.0
  0
LWPOLYLINE
  5
1c3
100
AcDbEntity
  8
0
 62
7
100
AcDbPolyline
 90
2
 70
0
 10
12.546969
 20
6.815522
 30
0.0
 10
16.605310
 20
6.815522
 30
0.0
  0
SPLINE
  5
1c4
100
AcDbEntity
  8
0
 62
7
100
AcDbSpline
 70
8
 71
3
 72
8
 73
4
 74
0
 40
0
 40
0
 40
0
 40
0
 40
1
 40
1
 40
1
 40
1
 10
25.566732
 20
16.754385
 30
0.0
 10
25.566732
 20
22.065928
 30
0.0
 10
23.436125
 20
23.955954
 30
0.0
 10
16.436106
 20
23.955954
 30
0.0
  0
LWPOLYLINE
  5
1c5
100
AcDbEntity
  8
0
 62
7
100
AcDbPolyline
 90
2
 70
0
 10
25.566732
 20
13.821599
 30
0.0
 10
25.566732
 20
16.754385
 30
0.0
  0
SPLINE
  5
1c6
100
AcDbEntity
  8
0
 62
7
100
AcDbSpline
 70
8
 71
3
 72
8
 73
4
 74
0
 40
0
 40
0
 40
0
 40
0
 40
1
 40
1
 40
1
 40
1
 10
12.006113
 20
23.955954
 30
0.0
 10
8.691930
 20
23.955954
 30
0.0
 10
7.102605
 20
23.206433
 30
0.0
 10
6.493982
 20
21.479452
 30
0.0
  0
LWPOLYLINE
  5
1c7
100
AcDbEntity
  8
0
 62
7
100
AcDbPolyline
 90
2
 70
0
 10
16.436106
 20
23.955954
 30
0.0
 10
12.006113
 20
23.955954
 30
0.0
  0
LWPOLYLINE
  5
1c8
100
AcDbEntity
  8
0
 62
7
100
AcDbPolyline
 90
6
 70
0
 10
6.493982
 20
21.479452
 30
0.0
 10
6.426215
 20
21.479452
 30
0.0
 10
6.426215
 20
30.668794
 30
0.0
 10
3.518206
 20
30.668794
 30
0.0
 10
3.518206
 20
7.076315
 30
0.0
 10
3.518206
 20
7.076315
 30
0.0
  0
SPLINE
  5
1c9
100
AcDbEntity
  8
0
 62
7
100
AcDbSpline
 70
8
 71
3
 72
8
 73
4
 74
0
 40
0
 40
0
 40
0
 40
0
 40
1
 40
1
 40
1
 40
1
 10
33.412345
 20
17.634098
 30
0.0
 10
33.412345
 20
19.784917
 30
0.0
 10
34.900233
 20
21.674944
 30
0.0
 10
37.977445
 20
21.674944
 30
0.0
  0
LWPOLYLINE
  5
1ca
100
AcDbEntity
  8
0
 62
7
100
AcDbPolyline
 90
3
 70
0
 10
30.503910
 20
7.076315
 30
0.0
 10
33.412345
 20
7.076315
 30
0.0
 10
33.412345
 20
17.634098
 30
0.0
  0
SPLINE
  5
1cb
100
AcDbEntity
  8
0
 62
7
100
AcDbSpline
 70
8
 71
3
 72
8
 73
4
 74
0
 40
0
 40
0
 40
0
 40
0
 40
1
 40
1
 40
1
 40
1
 10
39.769644
 20
21.674944
 30
0.0
 10
44.943794
 20
21.674944
 30
0.0
 10
45.823058
 20
21.023168
 30
0.0
 10
45.823058
 20
16.917432
 30
0.0
  0
LWPOLYLINE
  5
1cc
100
AcDbEntity
  8
0
 62
7
100
AcDbPolyline
 90
2
 70
0
 10
37.977445
 20
21.674944
 30
0.0
 10
39.769644
 20
21.674944
 30
0.0
  0
SPLINE
  5
1cd
100
AcDbEntity
  8
0
 62
7
100
AcDbSpline
 70
8
 71
3
 72
8
 73
4
 74
0
 40
0
 40
0
 40
0
 40
0
 40
1
 40
1
 40
1
 40
1
 10
48.528192
 20
18.188128
 30
0.0
 10
48.528192
 20
22.261419
 30
0.0
 10
46.735993
 20
23.955954
 30
0.0
 10
41.291628
 20
23.955954
 30
0.0
  0
LWPOLYLINE
  5
1ce
100
AcDbEntity
  8
0
 62
7
100
AcDbPolyline
 90
4
 70
0
 10
45.823058
 20
16.917432
 30
0.0
 10
45.823058
 20
16.200355
 30
0.0
 10
48.528192
 20
16.200355
 30
0.0
 10
48.528192
 20
18.188128
 30
0.0
  0
SPLINE
  5
1cf
100
AcDbEntity
  8
0
 62
7
100
AcDbSpline
 70
8
 71
3
 72
8
 73
4
 74
0
 40
0
 40
0
 40
0
 40
0
 40
1
 40
1
 40
1
 40
1
 10
38.552398
 20
23.955954
 30
0.0
 10
36.557324
 20
23.955954
 30
0.0
 10
34.358950
 20
23.434780
 30
0.0
 10
33.276811
 20
21.283961
 30
0.0
  0
LWPOLYLINE
  5
1d0
100
AcDbEntity
  8
0
 62
7
100
AcDbPolyline
 90
2
 70
0
 10
41.291628
 20
23.955954
 30
0.0
 10
38.552398
 20
23.955954
 30
0.0
  0
LWPOLYLINE
  5
1d1
100
AcDbEntity
  8
0
 62
7
100
AcDbPolyline
 90
6
 70
0
 10
33.276811
 20
21.283961
 30
0.0
 10
33.209471
 20
21.283961
 30
0.0
 10
33.209471
 20
23.695162
 30
0.0
 10
30.503910
 20
23.695162
 30
0.0
 10
30.503910
 20
7.076315
 30
0.0
 10
30.503910
 20
7.076315
 30
0.0
  0
LWPOLYLINE
  5
1d2
100
AcDbEntity
  8
0
 62
7
100
AcDbPolyline
 90
5
 70
1
 10
52.383658
 20
7.076315
 30
0.0
 10
55.291666
 20
7.076315
 30
0.0
 10
55.291666
 20
23.695162
 30
0.0
 10
52.383658
 20
23.695162
 30
0.0
 10
52.383658
 20
7.076315
 30
0.0
  0
SPLINE
  5
1d3
100
AcDbEntity
  8
0
 62
7
100
AcDbSpline
 70
8
 71
3
 72
8
 73
4
 74
0
 40
0
 40
0
 40
0
 40
0
 40
1
 40
1
 40
1
 40
1
 10
60.398049
 20
13.528362
 30
0.0
 10
60.398049
 20
7.499743
 30
0.0
 10
65.030916
 20
6.815522
 30
0.0
 10
67.635039
 20
6.815522
 30
0.0
  0
LWPOLYLINE
  5
1d4
100
AcDbEntity
  8
0
 62
7
100
AcDbPolyline
 90
5
 70
1
 10
52.383658
 20
27.605817
 30
0.0
 10
55.291666
 20
27.605817
 30
0.0
 10
55.291666
 20
30.668794
 30
0.0
 10
52.383658
 20
30.668794
 30
0.0
 10
52.383658
 20
27.605817
 30
0.0
  0
SPLINE
  5
1d5
100
AcDbEntity
  8
0
 62
7
100
AcDbSpline
 70
8
 71
3
 72
8
 73
4
 74
0
 40
0
 40
0
 40
0
 40
0
 40
1
 40
1
 40
1
 40
1
 10
74.195213
 20
6.815522
 30
0.0
 10
79.605907
 20
6.815522
 30
0.0
 10
81.770184
 20
8.444756
 30
0.0
 10
81.770184
 20
12.648649
 30
0.0
  0
LWPOLYLINE
  5
1d6
100
AcDbEntity
  8
0
 62
7
100
AcDbPolyline
 90
2
 70
0
 10
67.635039
 20
6.815522
 30
0.0
 10
74.195213
 20
6.815522
 30
0.0
  0
SPLINE
  5
1d7
100
AcDbEntity
  8
0
 62
7
100
AcDbSpline
 70
8
 71
3
 72
8
 73
4
 74
0
 40
0
 40
0
 40
0
 40
0
 40
1
 40
1
 40
1
 40
1
 10
79.065050
 20
12.583348
 30
0.0
 10
79.065050
 20
9.878910
 30
0.0
 10
76.799335
 20
9.096532
 30
0.0
 10
74.093775
 20
9.096532
 30
0.0
  0
LWPOLYLINE
  5
1d8
100
AcDbEntity
  8
0
 62
7
100
AcDbPolyline
 90
4
 70
0
 10
81.770184
 20
12.648649
 30
0.0
 10
81.770184
 20
13.137378
 30
0.0
 10
79.065050
 20
13.137378
 30
0.0
 10
79.065050
 20
12.583348
 30
0.0
  0
SPLINE
  5
1d9
100
AcDbEntity
  8
0
 62
7
100
AcDbSpline
 70
8
 71
3
 72
8
 73
4
 74
0
 40
0
 40
0
 40
0
 40
0
 40
1
 40
1
 40
1
 40
1
 10
69.190267
 20
9.096532
 30
0.0
 10
65.673636
 20
9.096532
 30
0.0
 10
63.306484
 20
9.943800
 30
0.0
 10
63.306484
 20
13.658553
 30
0.0
  0
LWPOLYLINE
  5
1da
100
AcDbEntity
  8
0
 62
7
100
AcDbPolyline
 90
2
 70
0
 10
74.093775
 20
9.096532
 30
0.0
 10
69.190267
 20
9.096532
 30
0.0
  0
SPLINE
  5
1db
100
AcDbEntity
  8
0
 62
7
100
AcDbSpline
 70
8
 71
3
 72
8
 73
4
 74
0
 40
0
 40
0
 40
0
 40
0
 40
1
 40
1
 40
1
 40
1
 10
63.306484
 20
17.145369
 30
0.0
 10
63.306484
 20
21.283961
 30
0.0
 10
65.876510
 20
21.674944
 30
0.0
 10
68.615740
 20
21.674944
 30
0.0
  0
LWPOLYLINE
  5
1dc
100
AcDbEntity
  8
0
 62
7
100
AcDbPolyline
 90
2
 70
0
 10
63.306484
 20
13.658553
 30
0.0
 10
63.306484
 20
17.145369
 30
0.0
  0
SPLINE
  5
1dd
100
AcDbEntity
  8
0
 62
7
100
AcDbSpline
 70
8
 71
3
 72
8
 73
4
 74
0
 40
0
 40
0
 40
0
 40
0
 40
1
 40
1
 40
1
 40
1
 10
73.958668
 20
21.674944
 30
0.0
 10
76.866676
 20
21.674944
 30
0.0
 10
78.760739
 20
21.023168
 30
0.0
 10
78.760739
 20
18.253429
 30
0.0
  0
LWPOLYLINE
  5
1de
100
AcDbEntity
  8
0
 62
7
100
AcDbPolyline
 90
2
 70
0
 10
68.615740
 20
21.674944
 30
0.0
 10
73.958668
 20
21.674944
 30
0.0
  0
SPLINE
  5
1df
100
AcDbEntity
  8
0
 62
7
100
AcDbSpline
 70
8
 71
3
 72
8
 73
4
 74
0
 40
0
 40
0
 40
0
 40
0
 40
1
 40
1
 40
1
 40
1
 10
81.465873
 20
18.318730
 30
0.0
 10
81.465873
 20
21.837991
 30
0.0
 10
79.335692
 20
23.955954
 30
0.0
 10
73.924997
 20
23.955954
 30
0.0
  0
LWPOLYLINE
  5
1e0
100
AcDbEntity
  8
0
 62
7
100
AcDbPolyline
 90
4
 70
0
 10
78.760739
 20
18.253429
 30
0.0
 10
78.760739
 20
17.862445
 30
0.0
 10
81.465873
 20
17.862445
 30
0.0
 10
81.465873
 20
18.318730
 30
0.0
  0
SPLINE
  5
1e1
100
AcDbEntity
  8
0
 62
7
100
AcDbSpline
 70
8
 71
3
 72
8
 73
4
 74
0
 40
0
 40
0
 40
0
 40
0
 40
1
 40
1
 40
1
 40
1
 10
69.055160
 20
23.955954
 30
0.0
 10
64.794371
 20
23.955954
 30
0.0
 10
60.398049
 20
23.271733
 30
0.0
 10
60.398049
 20
17.243115
 30
0.0
  0
LWPOLYLINE
  5
1e2
100
AcDbEntity
  8
0
 62
7
100
AcDbPolyline
 90
2
 70
0
 10
73.924997
 20
23.955954
 30
0.0
 10
69.055160
 20
23.955954
 30
0.0
  0
LWPOLYLINE
  5
1e3
100
AcDbEntity
  8
0
 62
7
100
AcDbPolyline
 90
3
 70
0
 10
60.398049
 20
17.243115
 30
0.0
 10
60.398049
 20
13.528362
 30
0.0
 10
60.398049
 20
13.528362
 30
0.0
  0
SPLINE
  5
1e4
100
AcDbEntity
  8
0
 62
7
100
AcDbSpline
 70
8
 71
3
 72
8
 73
4
 74
0
 40
0
 40
0
 40
0
 40
0
 40
1
 40
1
 40
1
 40
1
 10
109.804357
 20
11.801382
 30
0.0
 10
109.804357
 20
6.815522
 30
0.0
 10
113.828601
 20
6.815522
 30
0.0
 10
118.123486
 20
6.815522
 30
0.0
  0
LWPOLYLINE
  5
1e5
100
AcDbEntity
  8
0
 62
7
100
AcDbPolyline
 90
16
 70
1
 10
86.234273
 20
7.076315
 30
0.0
 10
89.142282
 20
7.076315
 30
0.0
 10
89.142282
 20
15.125151
 30
0.0
 10
90.393625
 20
15.125151
 30
0.0
 10
102.872105
 20
7.076315
 30
0.0
 10
107.403534
 20
7.076315
 30
0.0
 10
107.471301
 20
7.141615
 30
0.0
 10
93.302059
 20
16.265656
 30
0.0
 10
105.205586
 20
23.630272
 30
0.0
 10
105.137820
 20
23.695162
 30
0.0
 10
100.606390
 20
23.695162
 30
0.0
 10
90.562829
 20
17.406161
 30
0.0
 10
89.142282
 20
17.406161
 30
0.0
 10
89.142282
 20
30.668794
 30
0.0
 10
86.234273
 20
30.668794
 30
0.0
 10
86.234273
 20
7.076315
 30
0.0
  0
SPLINE
  5
1e6
100
AcDbEntity
  8
0
 62
7
100
AcDbSpline
 70
8
 71
3
 72
8
 73
4
 74
0
 40
0
 40
0
 40
0
 40
0
 40
1
 40
1
 40
1
 40
1
 10
123.466413
 20
6.815522
 30
0.0
 10
127.017141
 20
6.815522
 30
0.0
 10
131.481230
 20
6.978569
 30
0.0
 10
131.481230
 20
11.638335
 30
0.0
  0
LWPOLYLINE
  5
1e7
100
AcDbEntity
  8
0
 62
7
100
AcDbPolyline
 90
2
 70
0
 10
118.123486
 20
6.815522
 30
0.0
 10
123.466413
 20
6.815522
 30
0.0
  0
SPLINE
  5
1e8
100
AcDbEntity
  8
0
 62
7
100
AcDbSpline
 70
8
 71
3
 72
8
 73
4
 74
0
 40
0
 40
0
 40
0
 40
0
 40
1
 40
1
 40
1
 40
1
 10
131.481230
 20
11.703636
 30
0.0
 10
131.481230
 20
16.200355
 30
0.0
 10
128.505455
 20
16.624195
 30
0.0
 10
124.142803
 20
16.624195
 30
0.0
  0
LWPOLYLINE
  5
1e9
100
AcDbEntity
  8
0
 62
7
100
AcDbPolyline
 90
2
 70
0
 10
131.481230
 20
11.638335
 30
0.0
 10
131.481230
 20
11.703636
 30
0.0
  0
SPLINE
  5
1ea
100
AcDbEntity
  8
0
 62
7
100
AcDbSpline
 70
8
 71
3
 72
8
 73
4
 74
0
 40
0
 40
0
 40
0
 40
0
 40
1
 40
1
 40
1
 40
1
 10
116.466394
 20
16.624195
 30
0.0
 10
113.422852
 20
16.624195
 30
0.0
 10
112.949336
 20
17.406161
 30
0.0
 10
112.949336
 20
18.774603
 30
0.0
  0
LWPOLYLINE
  5
1eb
100
AcDbEntity
  8
0
 62
7
100
AcDbPolyline
 90
2
 70
0
 10
124.142803
 20
16.624195
 30
0.0
 10
116.466394
 20
16.624195
 30
0.0
  0
SPLINE
  5
1ec
100
AcDbEntity
  8
0
 62
7
100
AcDbSpline
 70
8
 71
3
 72
8
 73
4
 74
0
 40
0
 40
0
 40
0
 40
0
 40
1
 40
1
 40
1
 40
1
 10
112.949336
 20
19.393934
 30
0.0
 10
112.949336
 20
21.283961
 30
0.0
 10
113.862697
 20
21.674944
 30
0.0
 10
118.022048
 20
21.674944
 30
0.0
  0
LWPOLYLINE
  5
1ed
100
AcDbEntity
  8
0
 62
7
100
AcDbPolyline
 90
2
 70
0
 10
112.949336
 20
18.774603
 30
0.0
 10
112.949336
 20
19.393934
 30
0.0
  0
SPLINE
  5
1ee
100
AcDbEntity
  8
0
 62
7
100
AcDbSpline
 70
8
 71
3
 72
8
 73
4
 74
0
 40
0
 40
0
 40
0
 40
0
 40
1
 40
1
 40
1
 40
1
 10
123.094761
 20
21.674944
 30
0.0
 10
126.273410
 20
21.674944
 30
0.0
 10
128.031939
 20
21.609643
 30
0.0
 10
128.031939
 20
19.068251
 30
0.0
  0
LWPOLYLINE
  5
1ef
100
AcDbEntity
  8
0
 62
7
100
AcDbPolyline
 90
2
 70
0
 10
118.022048
 20
21.674944
 30
0.0
 10
123.094761
 20
21.674944
 30
0.0
  0
SPLINE
  5
1f0
100
AcDbEntity
  8
0
 62
7
100
AcDbSpline
 70
8
 71
3
 72
8
 73
4
 74
0
 40
0
 40
0
 40
0
 40
0
 40
1
 40
1
 40
1
 40
1
 10
130.737073
 20
19.784917
 30
0.0
 10
130.737073
 20
22.131228
 30
0.0
 10
129.824138
 20
23.955954
 30
0.0
 10
123.263538
 20
23.955954
 30
0.0
  0
LWPOLYLINE
  5
1f1
100
AcDbEntity
  8
0
 62
7
100
AcDbPolyline
 90
4
 70
0
 10
128.031939
 20
19.068251
 30
0.0
 10
128.031939
 20
18.905205
 30
0.0
 10
130.737073
 20
18.905205
 30
0.0
 10
130.737073
 20
19.784917
 30
0.0
  0
SPLINE
  5
1f2
100
AcDbEntity
  8
0
 62
7
100
AcDbSpline
 70
8
 71
3
 72
8
 73
4
 74
0
 40
0
 40
0
 40
0
 40
0
 40
1
 40
1
 40
1
 40
1
 10
118.799876
 20
23.955954
 30
0.0
 10
111.630653
 20
23.955954
 30
0.0
 10
110.041328
 20
22.456911
 30
0.0
 10
110.041328
 20
19.752472
 30
0.0
  0
LWPOLYLINE
  5
1f3
100
AcDbEntity
  8
0
 62
7
100
AcDbPolyline
 90
2
 70
0
 10
123.263538
 20
23.955954
 30
0.0
 10
118.799876
 20
23.955954
 30
0.0
  0
SPLINE
  5
1f4
100
AcDbEntity
  8
0
 62
7
100
AcDbSpline
 70
8
 71
3
 72
8
 73
4
 74
0
 40
0
 40
0
 40
0
 40
0
 40
1
 40
1
 40
1
 40
1
 10
110.041328
 20
18.774603
 30
0.0
 10
110.041328
 20
15.613880
 30
0.0
 10
111.562886
 20
14.343184
 30
0.0
 10
115.654896
 20
14.343184
 30
0.0
  0
LWPOLYLINE
  5
1f5
100
AcDbEntity
  8
0
 62
7
100
AcDbPolyline
 90
2
 70
0
 10
110.041328
 20
19.752472
 30
0.0
 10
110.041328
 20
18.774603
 30
0.0
  0
SPLINE
  5
1f6
100
AcDbEntity
  8
0
 62
7
100
AcDbSpline
 70
8
 71
3
 72
8
 73
4
 74
0
 40
0
 40
0
 40
0
 40
0
 40
1
 40
1
 40
1
 40
1
 10
124.616319
 20
14.343184
 30
0.0
 10
128.099280
 20
14.343184
 30
0.0
 10
128.572795
 20
13.463061
 30
0.0
 10
128.572795
 20
11.866682
 30
0.0
  0
LWPOLYLINE
  5
1f7
100
AcDbEntity
  8
0
 62
7
100
AcDbPolyline
 90
2
 70
0
 10
115.654896
 20
14.343184
 30
0.0
 10
124.616319
 20
14.343184
 30
0.0
  0
SPLINE
  5
1f8
100
AcDbEntity
  8
0
 62
7
100
AcDbSpline
 70
8
 71
3
 72
8
 73
4
 74
0
 40
0
 40
0
 40
0
 40
0
 40
1
 40
1
 40
1
 40
1
 10
128.572795
 20
11.736081
 30
0.0
 10
128.572795
 20
9.259579
 30
0.0
 10
127.186345
 20
9.096532
 30
0.0
 10
122.824119
 20
9.096532
 30
0.0
  0
LWPOLYLINE
  5
1f9
100
AcDbEntity
  8
0
 62
7
100
AcDbPolyline
 90
2
 70
0
 10
128.572795
 20
11.866682
 30
0.0
 10
128.572795
 20
11.736081
 30
0.0
  0
SPLINE
  5
1fa
100
AcDbEntity
  8
0
 62
7
100
AcDbSpline
 70
8
 71
3
 72
8
 73
4
 74
0
 40
0
 40
0
 40
0
 40
0
 40
1
 40
1
 40
1
 40
1
 10
116.601501
 20
9.096532
 30
0.0
 10
113.625726
 20
9.096532
 30
0.0
 10
112.509917
 20
9.943800
 30
0.0
 10
112.509917
 20
11.996873
 30
0.0
  0
LWPOLYLINE
  5
1fb
100
AcDbEntity
  8
0
 62
7
100
AcDbPolyline
 90
2
 70
0
 10
122.824119
 20
9.096532
 30
0.0
 10
116.601501
 20
9.096532
 30
0.0
  0
LWPOLYLINE
  5
1fc
100
AcDbEntity
  8
0
 62
7
100
AcDbPolyline
 90
5
 70
0
 10
112.509917
 20
11.996873
 30
0.0
 10
112.509917
 20
12.811696
 30
0.0
 10
109.804357
 20
12.811696
 30
0.0
 10
109.804357
 20
11.801382
 30
0.0
 10
109.804357
 20
11.801382
 30
0.0
  0
ENDSEC
  0
SECTION
  2
OBJECTS
  0
DICTIONARY
  5
C
330
0
100
AcDbDictionary
  3
ACAD_GROUP
350
D
  3
ACAD_MLINESTYLE
350
17
  0
DICTIONARY
  5
D
330
C
100
AcDbDictionary
  0
DICTIONARY
  5
1A
330
C
100
AcDbDictionary
  0
DICTIONARY
  5
17
330
C
100
AcDbDictionary
  3
STANDARD
350
18
  0
DICTIONARY
  5
19
330
C
100
AcDbDictionary
  0
ENDSEC
  0
EOF
