<?xml version="1.0" encoding="UTF-8" standalone="no"?>
<!DOCTYPE svg PUBLIC "-//W3C//DTD SVG 1.1//EN" "http://www.w3.org/Graphics/SVG/1.1/DTD/svg11.dtd">
<svg width="100%" height="100%" viewBox="0 0 511 511" version="1.1" xmlns="http://www.w3.org/2000/svg" xmlns:xlink="http://www.w3.org/1999/xlink" xml:space="preserve" xmlns:serif="http://www.serif.com/" style="fill-rule:evenodd;clip-rule:evenodd;stroke-linejoin:round;stroke-miterlimit:2;">
    <g transform="matrix(1,0,0,1,-816.044,-803.44)">
        <g id="BITS---BRICKS">
            <g>
                <g id="Form" transform="matrix(0.339955,0,0,0.308407,710.124,745.939)">
                    <path d="M1427,752.892C1426.6,927.622 1428.61,1102.45 1426.37,1277.12C1412.92,1312.7 1362.19,1313.92 1334.14,1338.06C1305.33,1355.29 1274.08,1365.13 1244.45,1381.63C1213.06,1399.16 1182.53,1413.08 1151.25,1426.85C1117.28,1439.52 1082.38,1475.09 1045.47,1467.45C966.086,1426.34 884.592,1389.19 805.649,1347.53C773.174,1326.64 732.409,1319.13 703.266,1292.62C698.792,1259.78 687.071,1208.62 712.077,1184.87C730.475,1171.89 762.617,1166.48 760.971,1147.44C767.53,1009.81 760.335,871.723 765.927,733.996C776.891,698.999 829.063,696.493 856.471,674.672C897.247,661.935 917.713,630.75 953.366,608.339C988.16,594.585 1026,587.238 1063.18,576C1099.76,586.556 1136.6,595.849 1172.01,610.397C1205.56,627.286 1227.09,661.34 1264.68,671.6C1293.79,682.557 1319.72,701.571 1351.54,714.915C1374.91,730.588 1401.71,740.12 1427,752.892ZM1044.12,1440.61C1069.74,1413.78 1038.35,1369.29 1003.89,1363.96C980.144,1354.66 960.063,1340.29 935.896,1332.07C905.253,1314.19 871.284,1294.61 836.616,1281.62C815.44,1268.18 792.076,1261.43 772.064,1247.28C748.754,1248.52 707.955,1193.6 711.646,1245.19C712.409,1281.14 725.991,1275.64 749.601,1294.7C765.683,1291.53 790.272,1320.67 813.738,1323.69C843.472,1338.89 875.227,1357.53 907.247,1372.6C932.137,1384.93 955.901,1394.31 977.486,1408.47C1000.88,1415.45 1022.11,1430.46 1044.12,1440.61ZM1077.98,1440.74C1106.77,1431.59 1135.09,1411.35 1163.64,1399.45C1194.97,1382.43 1228.3,1370.44 1258.57,1352.05C1286.06,1337.23 1310.4,1324.79 1337.29,1312.63C1364.27,1294.95 1416.7,1290.33 1408.4,1245.63C1409.55,1097.79 1409.71,949.845 1405.79,802.04C1399.4,761.821 1348.52,819.05 1324.86,820.121C1299.33,836.683 1269.91,847.99 1241.2,862.202C1208.31,884.873 1158.8,890.91 1140.1,926.18C1137.18,1063.87 1139.93,1201.66 1138.31,1339.33C1127.01,1377.95 1064.58,1365.71 1066.24,1413.18C1067.08,1422.34 1060.39,1444.9 1077.98,1440.74ZM1063.55,1358.92C1081.5,1353.71 1125.74,1342.2 1083.19,1333.9C1056.15,1317.02 1025.14,1301.21 996.078,1287.94C975.093,1276.05 951.816,1267.84 931.876,1254.23C901.169,1246.35 875.893,1224.93 846.246,1213.48C823.806,1201.72 802.835,1190.01 779.498,1180.55C744.46,1174.85 733.352,1212.29 772.064,1216.03C792.899,1229.69 815.529,1238.88 838.805,1249.74C869.865,1265.57 900.922,1283.26 931.816,1295.9C951.866,1309.47 975.077,1317.79 996.163,1329.61C1020.56,1334.94 1037.68,1360.04 1063.55,1358.92ZM1118.31,1322.67C1130.44,1285.92 1121.03,1241.18 1124.59,1201.53C1123.94,1108.73 1127.04,1015.72 1121.84,923.054C1100.23,891.822 1053.28,883.877 1021.15,862.689C994.5,850.2 970.68,837.604 946.354,819.101C909.237,808.455 871.743,787.344 835.441,769.212C811.26,758.926 777.134,729.797 785.565,778.408C784.993,833.094 782.37,888.166 786.966,942.632C800.572,920.405 834.936,913.218 856.02,896.524C884.571,885.038 920.777,873.45 951.694,887.247C989.205,900.201 1014.23,934.466 1039.44,963.281C1055.88,999.931 1070.24,1039 1065.49,1079.94C1066.06,1114.96 1065.83,1161.83 1032.53,1179.26C1004.68,1190.02 978.449,1207.94 945.143,1208.71C892.891,1213.61 951.942,1233.24 968.585,1242.79C999.676,1257.47 1031.59,1281.24 1065.59,1289.21C1083.59,1299.81 1103.39,1308.24 1118.31,1322.67ZM922.573,1197.4C960.599,1196.88 979.601,1151.29 981.364,1119.29C977.455,1096.23 970.18,1057.61 955.525,1047.13C966.03,1085.67 969.143,1129.64 944.235,1163.5C910.161,1166.86 866.432,1174.79 841.026,1146.46C854.784,1170 891.602,1197.68 922.573,1197.4ZM826.445,1173.33C821.968,1153.23 793.399,1129.46 786.215,1102.65C779.518,1139.97 791.12,1160.52 826.445,1173.33ZM808.084,1092.94C806.229,1053.72 789.062,1004.23 820.392,974.207C836.509,958.587 924.526,980.567 877.797,950.62C842.521,919.013 790.056,950.386 786.6,993.88C782.428,1026.73 788.775,1067.74 808.084,1092.94ZM940.012,1096.93C940.819,1071.2 922.298,1041.18 903.584,1021.47C879.693,987.475 903.07,1056.51 913.924,1066.21C921.745,1076.76 927.239,1091.4 940.012,1096.93ZM1135.28,888.558C1157.86,877.106 1179.76,866.478 1203.03,854.85C1231.9,844.13 1262.97,825.346 1289.63,809.702C1321.6,798.032 1349.37,778.931 1382.72,767.641C1386.14,746.831 1331.07,737.54 1310.47,724.313C1287.9,706.695 1258.2,695.838 1233.61,681.767C1207.77,679.624 1224.32,741.032 1217.73,763.575C1225.7,812.565 1168.63,829.467 1131.28,835.906C1105.92,845.755 1064.29,836.327 1047.33,845.159C1075.89,861.549 1108.02,874.065 1135.28,888.558ZM897.293,766.498C901.2,737.734 903.739,694.686 904.559,673.785C872.495,686.097 844.894,702.419 815.316,718.388C811.203,738.39 865.489,748.141 883.883,765.186C887.479,768.097 893.292,769.668 897.293,766.498ZM1083.19,736.408C1121.71,733.03 1160.74,723.309 1185.78,691.5C1222.25,657.597 1156,633.632 1132,617.172C1082.93,601.712 1026.38,600.897 978.619,621.302C946.269,635.562 896.211,672.315 943.603,702.814C973.786,725.063 1011.12,734.72 1049.52,736.675C1060.74,737.045 1071.98,737.023 1083.19,736.408Z" style="fill-rule:nonzero;"/>
                </g>
                <g transform="matrix(1.61086,0,0,1.55224,785.114,803.667)">
                    <path d="M90.943,56.9C90.943,64.755 88.483,68.484 77.375,68.484L66.267,68.484C56.111,68.484 52.858,64.199 52.858,56.82L52.858,49.124C52.858,39.444 58.491,37.857 67.695,37.857L76.899,37.857C86.262,37.857 90.943,39.603 90.943,48.965L90.943,56.9ZM46.034,73.403L52.382,73.403L52.382,66.976L52.54,66.976C54.524,71.896 60.078,74.038 67.219,74.038L76.74,74.038C89.118,74.038 97.766,70.943 97.766,56.979L97.766,49.838C97.766,36.905 92.768,32.303 76.344,32.303L65.95,32.303C58.174,32.303 54.445,34.128 53.017,38.333L52.858,38.333L52.858,15.958L46.034,15.958L46.034,73.403Z" style="fill-rule:nonzero;"/>
                    <path d="M109.747,73.403L116.571,73.403L116.571,32.938L109.747,32.938L109.747,73.403ZM109.747,23.417L116.571,23.417L116.571,15.958L109.747,15.958L109.747,23.417Z" style="fill-rule:nonzero;"/>
                    <path d="M134.027,61.264C134.027,67.849 137.042,74.038 149.816,74.038L153.545,74.038C168.303,74.038 169.097,67.611 169.097,59.518L169.097,55.075L163.543,55.075L163.543,58.09C163.543,66.58 162.114,68.484 153.069,68.484L150.927,68.484C143.469,68.484 140.85,66.183 140.85,58.645L140.85,38.492L167.906,38.492L167.906,32.938L140.85,32.938L140.85,23.337L134.027,23.337L134.027,32.938L125.14,32.938L125.14,38.492L134.027,38.492L134.027,61.264Z" style="fill-rule:nonzero;"/>
                    <path d="M175.92,61.898C175.92,74.038 185.362,74.038 195.439,74.038L207.975,74.038C216.306,74.038 226.78,73.641 226.78,62.295L226.78,62.136C226.78,51.187 219.797,50.155 209.562,50.155L191.551,50.155C184.41,50.155 183.299,48.251 183.299,44.919L183.299,43.411C183.299,38.809 185.441,37.857 195.201,37.857L207.102,37.857C214.561,37.857 218.687,38.016 218.687,44.205L218.687,44.601L225.034,44.601L225.034,42.459C225.034,36.746 222.892,32.303 207.499,32.303L197.026,32.303C180.205,32.303 176.476,35.953 176.476,42.538L176.476,44.919C176.476,52.615 180.046,55.709 189.647,55.709L210.673,55.709C218.845,55.709 219.956,57.852 219.956,61.74L219.956,62.057C219.956,68.087 216.703,68.484 206.468,68.484L191.868,68.484C184.886,68.484 182.268,66.421 182.268,61.422L182.268,59.439L175.92,59.439L175.92,61.898Z" style="fill-rule:nonzero;"/>
                    <path d="M306.811,73.403L309.115,68.667L299.77,63.738C299.962,62.586 300.09,61.434 300.09,60.41L300.09,50.617L294.201,50.617L294.201,60.986L258.486,42.104C256.309,40.952 256.245,39.544 256.245,36.535C256.245,33.527 257.27,31.671 262.198,31.671L283,31.671C286.393,31.671 289.081,33.015 289.081,37.303L289.081,40.76L294.969,40.76L294.969,36.919C294.969,30.583 291.897,26.55 282.936,26.55L260.342,26.55C254.261,26.55 249.973,29.239 249.973,35.895C249.973,42.488 250.805,43.128 255.029,45.88L255.029,46.008C245.876,46.008 243.7,50.169 243.7,58.682C243.7,69.307 247.092,73.915 260.47,73.915L282.872,73.915C289.145,73.915 295.289,73.275 298.17,68.923L306.811,73.403ZM292.409,66.17C291.705,68.091 288.057,68.795 282.04,68.795L260.598,68.795C251.381,68.795 249.973,65.466 249.973,60.154L249.973,57.017C249.973,49.593 255.925,48.953 257.59,48.953L259.51,48.953L292.409,66.17Z" style="fill-rule:nonzero;"/>
                </g>
                <g transform="matrix(1.61086,0,0,1.55224,588.015,636.361)">
                    <path d="M194.72,403.105C194.72,410.961 192.261,414.69 181.152,414.69L170.044,414.69C159.888,414.69 156.635,410.405 156.635,403.026L156.635,395.33C156.635,385.65 162.269,384.063 171.473,384.063L180.676,384.063C190.039,384.063 194.72,385.809 194.72,395.171L194.72,403.105ZM149.812,419.609L156.159,419.609L156.159,413.182L156.318,413.182C158.301,418.101 163.856,420.244 170.996,420.244L180.518,420.244C192.895,420.244 201.544,417.149 201.544,403.185L201.544,396.044C201.544,383.111 196.545,378.509 180.121,378.509L169.727,378.509C161.951,378.509 158.222,380.334 156.794,384.539L156.635,384.539L156.635,362.164L149.812,362.164L149.812,419.609Z" style="fill-rule:nonzero;"/>
                    <path d="M213.128,419.609L219.952,419.609L219.952,393.902C219.952,388.665 223.443,384.063 230.663,384.063L234.868,384.063C247.008,384.063 249.071,385.65 249.071,395.647L249.071,397.393L255.418,397.393L255.418,392.553C255.418,382.635 251.213,378.509 238.439,378.509L232.012,378.509C227.331,378.509 222.173,379.778 219.634,385.015L219.476,385.015L219.476,379.144L213.128,379.144L213.128,419.609Z" style="fill-rule:nonzero;"/>
                    <path d="M264.464,419.609L271.287,419.609L271.287,379.144L264.464,379.144L264.464,419.609ZM264.464,369.622L271.287,369.622L271.287,362.164L264.464,362.164L264.464,369.622Z" style="fill-rule:nonzero;"/>
                    <path d="M283.268,403.899C283.268,418.578 294.138,420.244 300.248,420.244L315.64,420.244C328.335,420.244 333.413,416.277 333.413,406.041L333.413,404.851L327.066,404.851L327.066,406.2C327.066,412.785 321.75,414.69 315.402,414.69L303.897,414.69C295.646,414.69 290.092,412.627 290.092,403.582L290.092,395.092C290.092,385.015 296.122,384.063 302.549,384.063L315.085,384.063C321.908,384.063 326.352,385.65 326.352,392.394L326.352,393.346L332.699,393.346L332.699,392.235C332.699,383.666 327.701,378.509 315.006,378.509L303.58,378.509C293.583,378.509 283.268,380.175 283.268,394.854L283.268,403.899Z" style="fill-rule:nonzero;"/>
                    <path d="M343.887,419.609L350.71,419.609L350.71,400.011L353.646,400.011L382.924,419.609L393.556,419.609L393.715,419.45L360.47,397.234L388.399,379.302L388.24,379.144L377.608,379.144L354.043,394.457L350.71,394.457L350.71,362.164L343.887,362.164L343.887,419.609Z" style="fill-rule:nonzero;"/>
                    <path d="M399.189,408.104C399.189,420.244 408.631,420.244 418.708,420.244L431.244,420.244C439.575,420.244 450.049,419.847 450.049,408.501L450.049,408.342C450.049,397.393 443.067,396.361 432.831,396.361L414.82,396.361C407.679,396.361 406.568,394.457 406.568,391.125L406.568,389.617C406.568,385.015 408.711,384.063 418.47,384.063L430.372,384.063C437.83,384.063 441.956,384.222 441.956,390.41L441.956,390.807L448.303,390.807L448.303,388.665C448.303,382.952 446.161,378.509 430.768,378.509L420.295,378.509C403.474,378.509 399.745,382.159 399.745,388.744L399.745,391.125C399.745,398.821 403.315,401.915 412.916,401.915L433.942,401.915C442.114,401.915 443.225,404.058 443.225,407.945L443.225,408.263C443.225,414.293 439.972,414.69 429.737,414.69L415.137,414.69C408.155,414.69 405.537,412.627 405.537,407.628L405.537,405.644L399.189,405.644L399.189,408.104Z" style="fill-rule:nonzero;"/>
                </g>
            </g>
        </g>
    </g>
</svg>
