  0
SECTION
  2
HEADER
  9
$ACADVER
  1
AC1014
  9
$HANDSEED
  5
FFFF
  9
$MEASUREMENT
 70
     1
  0
ENDSEC
  0
SECTION
  2
TABLES
  0
TABLE
  2
VPORT
  5
8
330
0
100
AcDbSymbolTable
 70
     4
  0
VPORT
  5
2E
330
8
100
AcDbSymbolTableRecord
100
AcDbViewportTableRecord
  2
*ACTIVE
 70
     0
 10
0.0
 20
0.0
 11
1.0
 21
1.0
 12
210.0
 22
148.5
 13
0.0
 23
0.0
 14
10.0
 24
10.0
 15
10.0
 25
10.0
 16
0.0
 26
0.0
 36
1.0
 17
0.0
 27
0.0
 37
0.0
 40
341.0
 41
1.24
 42
50.0
 43
0.0
 44
0.0
 50
0.0
 51
0.0
 71
     0
 72
   100
 73
     1
 74
     3
 75
     0
 76
     0
 77
     0
 78
     0
  0
ENDTAB
  0
TABLE
  2
LTYPE
  5
5
330
0
100
AcDbSymbolTable
 70
     1
  0
LTYPE
  5
14
330
5
100
AcDbSymbolTableRecord
100
AcDbLinetypeTableRecord
  2
BYBLOCK
 70
     0
  3

 72
    65
 73
     0
 40
0.0
  0
LTYPE
  5
15
330
5
100
AcDbSymbolTableRecord
100
AcDbLinetypeTableRecord
  2
BYLAYER
 70
     0
  3

 72
    65
 73
     0
 40
0.0
  0
LTYPE
  5
16
330
5
100
AcDbSymbolTableRecord
100
AcDbLinetypeTableRecord
  2
CONTINUOUS
 70
     0
  3
Solid line
 72
    65
 73
     0
 40
0.0
  0
ENDTAB
  0
TABLE
  2
LAYER
  5
2
100
AcDbSymbolTable
 70
1
  0
LAYER
  5
50
100
AcDbSymbolTableRecord
100
AcDbLayerTableRecord
  2
0
 70
0
  6
CONTINUOUS
  0
ENDTAB
  0
TABLE
  2
STYLE
  5
3
330
0
100
AcDbSymbolTable
 70
     1
  0
STYLE
  5
11
330
3
100
AcDbSymbolTableRecord
100
AcDbTextStyleTableRecord
  2
STANDARD
 70
     0
 40
0.0
 41
1.0
 50
0.0
 71
     0
 42
2.5
  3
txt
  4

  0
ENDTAB
  0
TABLE
  2
VIEW
  5
6
330
0
100
AcDbSymbolTable
 70
     0
  0
ENDTAB
  0
TABLE
  2
UCS
  5
7
330
0
100
AcDbSymbolTable
 70
     0
  0
ENDTAB
  0
TABLE
  2
APPID
  5
9
330
0
100
AcDbSymbolTable
 70
     2
  0
APPID
  5
12
330
9
100
AcDbSymbolTableRecord
100
AcDbRegAppTableRecord
  2
ACAD
 70
     0
  0
ENDTAB
  0
TABLE
  2
DIMSTYLE
  5
A
330
0
100
AcDbSymbolTable
 70
     1
  0
DIMSTYLE
105
27
330
A
100
AcDbSymbolTableRecord
100
AcDbDimStyleTableRecord
  2
ISO-25
 70
     0
  3

  4

  5

  6

  7

 40
1.0
 41
2.5
 42
0.625
 43
3.75
 44
1.25
 45
0.0
 46
0.0
 47
0.0
 48
0.0
140
2.5
141
2.5
142
0.0
143
0.03937007874016
144
1.0
145
0.0
146
1.0
147
0.625
 71
     0
 72
     0
 73
     0
 74
     0
 75
     0
 76
     0
 77
     1
 78
     8
170
     0
171
     3
172
     1
173
     0
174
     0
175
     0
176
     0
177
     0
178
     0
270
     2
271
     2
272
     2
273
     2
274
     3
340
11
275
     0
280
     0
281
     0
282
     0
283
     0
284
     8
285
     0
286
     0
287
     3
288
     0
  0
ENDTAB
  0
TABLE
  2
BLOCK_RECORD
  5
1
330
0
100
AcDbSymbolTable
 70
     1
  0
BLOCK_RECORD
  5
1F
330
1
100
AcDbSymbolTableRecord
100
AcDbBlockTableRecord
  2
*MODEL_SPACE
  0
BLOCK_RECORD
  5
1B
330
1
100
AcDbSymbolTableRecord
100
AcDbBlockTableRecord
  2
*PAPER_SPACE
  0
ENDTAB
  0
ENDSEC
  0
SECTION
  2
BLOCKS
  0
BLOCK
  5
20
330
1F
100
AcDbEntity
  8
0
100
AcDbBlockBegin
  2
*MODEL_SPACE
 70
     0
 10
0.0
 20
0.0
 30
0.0
  3
*MODEL_SPACE
  1

  0
ENDBLK
  5
21
330
1F
100
AcDbEntity
  8
0
100
AcDbBlockEnd
  0
BLOCK
  5
1C
330
1B
100
AcDbEntity
 67
     1
  8
0
100
AcDbBlockBegin
  2
*PAPER_SPACE
  1

  0
ENDBLK
  5
1D
330
1B
100
AcDbEntity
 67
     1
  8
0
100
AcDbBlockEnd
  0
ENDSEC
  0
SECTION
  2
ENTITIES
  0
SPLINE
  5
100
100
AcDbEntity
  8
0
 62
7
100
AcDbSpline
 70
8
 71
3
 72
8
 73
4
 74
0
 40
0
 40
0
 40
0
 40
0
 40
1
 40
1
 40
1
 40
1
 10
17.261417
 20
2.137833
 30
0.0
 10
15.456958
 20
0.817563
 30
0.0
 10
13.208000
 20
0.031750
 30
0.0
 10
10.787062
 20
0.031750
 30
0.0
  0
SPLINE
  5
101
100
AcDbEntity
  8
0
 62
7
100
AcDbSpline
 70
8
 71
3
 72
8
 73
4
 74
0
 40
0
 40
0
 40
0
 40
0
 40
1
 40
1
 40
1
 40
1
 10
10.787062
 20
0.031750
 30
0.0
 10
4.886854
 20
0.031750
 30
0.0
 10
0.031750
 20
4.706938
 30
0.0
 10
0.031750
 20
10.390188
 30
0.0
  0
SPLINE
  5
102
100
AcDbEntity
  8
0
 62
7
100
AcDbSpline
 70
8
 71
3
 72
8
 73
4
 74
0
 40
0
 40
0
 40
0
 40
0
 40
1
 40
1
 40
1
 40
1
 10
0.031750
 20
10.390188
 30
0.0
 10
0.031750
 20
16.073438
 30
0.0
 10
4.886854
 20
20.748625
 30
0.0
 10
10.787063
 20
20.748625
 30
0.0
  0
SPLINE
  5
103
100
AcDbEntity
  8
0
 62
7
100
AcDbSpline
 70
8
 71
3
 72
8
 73
4
 74
0
 40
0
 40
0
 40
0
 40
0
 40
1
 40
1
 40
1
 40
1
 10
10.787063
 20
19.483917
 30
0.0
 10
5.609167
 20
19.483917
 30
0.0
 10
1.346729
 20
15.377583
 30
0.0
 10
1.346729
 20
10.390188
 30
0.0
  0
SPLINE
  5
104
100
AcDbEntity
  8
0
 62
7
100
AcDbSpline
 70
8
 71
3
 72
8
 73
4
 74
0
 40
0
 40
0
 40
0
 40
0
 40
1
 40
1
 40
1
 40
1
 10
1.346729
 20
10.390188
 30
0.0
 10
1.346729
 20
5.402792
 30
0.0
 10
5.609167
 20
1.296458
 30
0.0
 10
10.787062
 20
1.296458
 30
0.0
  0
SPLINE
  5
105
100
AcDbEntity
  8
0
 62
7
100
AcDbSpline
 70
8
 71
3
 72
8
 73
4
 74
0
 40
0
 40
0
 40
0
 40
0
 40
1
 40
1
 40
1
 40
1
 10
10.787062
 20
1.296458
 30
0.0
 10
12.911667
 20
1.296458
 30
0.0
 10
14.885458
 20
1.987021
 30
0.0
 10
16.470312
 20
3.145896
 30
0.0
  0
LWPOLYLINE
  5
106
100
AcDbEntity
  8
0
 62
7
100
AcDbPolyline
 90
2
 70
0
 10
10.787063
 20
20.748625
 30
0.0
 10
10.787063
 20
19.483917
 30
0.0
  0
SPLINE
  5
107
100
AcDbEntity
  8
0
 62
7
100
AcDbSpline
 70
8
 71
3
 72
8
 73
4
 74
0
 40
0
 40
0
 40
0
 40
0
 40
1
 40
1
 40
1
 40
1
 10
16.470312
 20
3.145896
 30
0.0
 10
14.885458
 20
1.987021
 30
0.0
 10
12.911667
 20
1.296458
 30
0.0
 10
10.787062
 20
1.296458
 30
0.0
  0
SPLINE
  5
108
100
AcDbEntity
  8
0
 62
7
100
AcDbSpline
 70
8
 71
3
 72
8
 73
4
 74
0
 40
0
 40
0
 40
0
 40
0
 40
1
 40
1
 40
1
 40
1
 10
10.787062
 20
1.296458
 30
0.0
 10
5.609167
 20
1.296458
 30
0.0
 10
1.346729
 20
5.402792
 30
0.0
 10
1.346729
 20
10.390188
 30
0.0
  0
SPLINE
  5
109
100
AcDbEntity
  8
0
 62
7
100
AcDbSpline
 70
8
 71
3
 72
8
 73
4
 74
0
 40
0
 40
0
 40
0
 40
0
 40
1
 40
1
 40
1
 40
1
 10
1.346729
 20
10.390188
 30
0.0
 10
1.346729
 20
15.377583
 30
0.0
 10
5.609167
 20
19.483917
 30
0.0
 10
10.787063
 20
19.483917
 30
0.0
  0
SPLINE
  5
10a
100
AcDbEntity
  8
0
 62
7
100
AcDbSpline
 70
8
 71
3
 72
8
 73
4
 74
0
 40
0
 40
0
 40
0
 40
0
 40
1
 40
1
 40
1
 40
1
 10
10.787063
 20
19.483917
 30
0.0
 10
13.382625
 20
19.483917
 30
0.0
 10
15.732125
 20
18.452042
 30
0.0
 10
17.462500
 20
16.795750
 30
0.0
  0
LWPOLYLINE
  5
10b
100
AcDbEntity
  8
0
 62
7
100
AcDbPolyline
 90
3
 70
0
 10
16.470312
 20
3.145896
 30
0.0
 10
17.261417
 20
2.137833
 30
0.0
 10
17.261417
 20
2.137833
 30
0.0
  0
SPLINE
  5
10c
100
AcDbEntity
  8
0
 62
7
100
AcDbSpline
 70
8
 71
3
 72
8
 73
4
 74
0
 40
0
 40
0
 40
0
 40
0
 40
1
 40
1
 40
1
 40
1
 10
16.835438
 20
16.184563
 30
0.0
 10
15.266458
 20
17.687396
 30
0.0
 10
13.139208
 20
18.621375
 30
0.0
 10
10.787063
 20
18.621375
 30
0.0
  0
SPLINE
  5
10d
100
AcDbEntity
  8
0
 62
7
100
AcDbSpline
 70
8
 71
3
 72
8
 73
4
 74
0
 40
0
 40
0
 40
0
 40
0
 40
1
 40
1
 40
1
 40
1
 10
10.787063
 20
18.621375
 30
0.0
 10
6.098646
 20
18.621375
 30
0.0
 10
2.241021
 20
14.906625
 30
0.0
 10
2.241021
 20
10.390188
 30
0.0
  0
SPLINE
  5
10e
100
AcDbEntity
  8
0
 62
7
100
AcDbSpline
 70
8
 71
3
 72
8
 73
4
 74
0
 40
0
 40
0
 40
0
 40
0
 40
1
 40
1
 40
1
 40
1
 10
2.241021
 20
10.390188
 30
0.0
 10
2.241021
 20
5.873750
 30
0.0
 10
6.098646
 20
2.159000
 30
0.0
 10
10.787063
 20
2.159000
 30
0.0
  0
SPLINE
  5
10f
100
AcDbEntity
  8
0
 62
7
100
AcDbSpline
 70
8
 71
3
 72
8
 73
4
 74
0
 40
0
 40
0
 40
0
 40
0
 40
1
 40
1
 40
1
 40
1
 10
10.787063
 20
2.159000
 30
0.0
 10
12.710583
 20
2.159000
 30
0.0
 10
14.499167
 20
2.783417
 30
0.0
 10
15.933208
 20
3.833813
 30
0.0
  0
LWPOLYLINE
  5
110
100
AcDbEntity
  8
0
 62
7
100
AcDbPolyline
 90
2
 70
0
 10
17.462500
 20
16.795750
 30
0.0
 10
16.835438
 20
16.184563
 30
0.0
  0
SPLINE
  5
111
100
AcDbEntity
  8
0
 62
7
100
AcDbSpline
 70
8
 71
3
 72
8
 73
4
 74
0
 40
0
 40
0
 40
0
 40
0
 40
1
 40
1
 40
1
 40
1
 10
16.470312
 20
3.145896
 30
0.0
 10
14.885458
 20
1.987021
 30
0.0
 10
12.911667
 20
1.296458
 30
0.0
 10
10.787062
 20
1.296458
 30
0.0
  0
SPLINE
  5
112
100
AcDbEntity
  8
0
 62
7
100
AcDbSpline
 70
8
 71
3
 72
8
 73
4
 74
0
 40
0
 40
0
 40
0
 40
0
 40
1
 40
1
 40
1
 40
1
 10
10.787062
 20
1.296458
 30
0.0
 10
5.609167
 20
1.296458
 30
0.0
 10
1.346729
 20
5.402792
 30
0.0
 10
1.346729
 20
10.390188
 30
0.0
  0
SPLINE
  5
113
100
AcDbEntity
  8
0
 62
7
100
AcDbSpline
 70
8
 71
3
 72
8
 73
4
 74
0
 40
0
 40
0
 40
0
 40
0
 40
1
 40
1
 40
1
 40
1
 10
1.346729
 20
10.390188
 30
0.0
 10
1.346729
 20
15.377583
 30
0.0
 10
5.609167
 20
19.483917
 30
0.0
 10
10.787063
 20
19.483917
 30
0.0
  0
SPLINE
  5
114
100
AcDbEntity
  8
0
 62
7
100
AcDbSpline
 70
8
 71
3
 72
8
 73
4
 74
0
 40
0
 40
0
 40
0
 40
0
 40
1
 40
1
 40
1
 40
1
 10
10.787063
 20
19.483917
 30
0.0
 10
13.382625
 20
19.483917
 30
0.0
 10
15.732125
 20
18.452042
 30
0.0
 10
17.462500
 20
16.795750
 30
0.0
  0
LWPOLYLINE
  5
115
100
AcDbEntity
  8
0
 62
7
100
AcDbPolyline
 90
3
 70
0
 10
15.933208
 20
3.833813
 30
0.0
 10
16.470312
 20
3.145896
 30
0.0
 10
16.470312
 20
3.145896
 30
0.0
  0
SPLINE
  5
116
100
AcDbEntity
  8
0
 62
7
100
AcDbSpline
 70
8
 71
3
 72
8
 73
4
 74
0
 40
0
 40
0
 40
0
 40
0
 40
1
 40
1
 40
1
 40
1
 10
16.835438
 20
16.184563
 30
0.0
 10
15.266458
 20
17.687396
 30
0.0
 10
13.139208
 20
18.621375
 30
0.0
 10
10.787063
 20
18.621375
 30
0.0
  0
SPLINE
  5
117
100
AcDbEntity
  8
0
 62
7
100
AcDbSpline
 70
8
 71
3
 72
8
 73
4
 74
0
 40
0
 40
0
 40
0
 40
0
 40
1
 40
1
 40
1
 40
1
 10
10.787063
 20
18.621375
 30
0.0
 10
6.098646
 20
18.621375
 30
0.0
 10
2.241021
 20
14.906625
 30
0.0
 10
2.241021
 20
10.390188
 30
0.0
  0
SPLINE
  5
118
100
AcDbEntity
  8
0
 62
7
100
AcDbSpline
 70
8
 71
3
 72
8
 73
4
 74
0
 40
0
 40
0
 40
0
 40
0
 40
1
 40
1
 40
1
 40
1
 10
2.241021
 20
10.390188
 30
0.0
 10
2.241021
 20
5.873750
 30
0.0
 10
6.098646
 20
2.159000
 30
0.0
 10
10.787063
 20
2.159000
 30
0.0
  0
SPLINE
  5
119
100
AcDbEntity
  8
0
 62
7
100
AcDbSpline
 70
8
 71
3
 72
8
 73
4
 74
0
 40
0
 40
0
 40
0
 40
0
 40
1
 40
1
 40
1
 40
1
 10
10.787063
 20
2.159000
 30
0.0
 10
12.710583
 20
2.159000
 30
0.0
 10
14.499167
 20
2.783417
 30
0.0
 10
15.933208
 20
3.833813
 30
0.0
  0
LWPOLYLINE
  5
11a
100
AcDbEntity
  8
0
 62
7
100
AcDbPolyline
 90
2
 70
0
 10
17.462500
 20
16.795750
 30
0.0
 10
16.835438
 20
16.184563
 30
0.0
  0
SPLINE
  5
11b
100
AcDbEntity
  8
0
 62
7
100
AcDbSpline
 70
8
 71
3
 72
8
 73
4
 74
0
 40
0
 40
0
 40
0
 40
0
 40
1
 40
1
 40
1
 40
1
 10
10.787063
 20
2.159000
 30
0.0
 10
6.098646
 20
2.159000
 30
0.0
 10
2.241021
 20
5.873750
 30
0.0
 10
2.241021
 20
10.390188
 30
0.0
  0
SPLINE
  5
11c
100
AcDbEntity
  8
0
 62
7
100
AcDbSpline
 70
8
 71
3
 72
8
 73
4
 74
0
 40
0
 40
0
 40
0
 40
0
 40
1
 40
1
 40
1
 40
1
 10
2.241021
 20
10.390188
 30
0.0
 10
2.241021
 20
14.906625
 30
0.0
 10
6.098646
 20
18.621375
 30
0.0
 10
10.787063
 20
18.621375
 30
0.0
  0
SPLINE
  5
11d
100
AcDbEntity
  8
0
 62
7
100
AcDbSpline
 70
8
 71
3
 72
8
 73
4
 74
0
 40
0
 40
0
 40
0
 40
0
 40
1
 40
1
 40
1
 40
1
 10
10.787063
 20
18.621375
 30
0.0
 10
13.133917
 20
18.621375
 30
0.0
 10
15.274396
 20
17.690042
 30
0.0
 10
16.824854
 20
16.192500
 30
0.0
  0
LWPOLYLINE
  5
11e
100
AcDbEntity
  8
0
 62
7
100
AcDbPolyline
 90
3
 70
0
 10
15.933208
 20
3.833813
 30
0.0
 10
16.470312
 20
3.145896
 30
0.0
 10
16.470312
 20
3.145896
 30
0.0
  0
SPLINE
  5
11f
100
AcDbEntity
  8
0
 62
7
100
AcDbSpline
 70
8
 71
3
 72
8
 73
4
 74
0
 40
0
 40
0
 40
0
 40
0
 40
1
 40
1
 40
1
 40
1
 10
14.922500
 20
14.393333
 30
0.0
 10
13.856229
 20
15.414625
 30
0.0
 10
12.393083
 20
16.049625
 30
0.0
 10
10.787063
 20
16.049625
 30
0.0
  0
SPLINE
  5
120
100
AcDbEntity
  8
0
 62
7
100
AcDbSpline
 70
8
 71
3
 72
8
 73
4
 74
0
 40
0
 40
0
 40
0
 40
0
 40
1
 40
1
 40
1
 40
1
 10
10.787063
 20
16.049625
 30
0.0
 10
7.564438
 20
16.049625
 30
0.0
 10
4.910667
 20
13.493750
 30
0.0
 10
4.910667
 20
10.390188
 30
0.0
  0
SPLINE
  5
121
100
AcDbEntity
  8
0
 62
7
100
AcDbSpline
 70
8
 71
3
 72
8
 73
4
 74
0
 40
0
 40
0
 40
0
 40
0
 40
1
 40
1
 40
1
 40
1
 10
4.910667
 20
10.390188
 30
0.0
 10
4.910667
 20
7.286625
 30
0.0
 10
7.564438
 20
4.730750
 30
0.0
 10
10.787063
 20
4.730750
 30
0.0
  0
LWPOLYLINE
  5
122
100
AcDbEntity
  8
0
 62
7
100
AcDbPolyline
 90
2
 70
0
 10
16.824854
 20
16.192500
 30
0.0
 10
14.922500
 20
14.393333
 30
0.0
  0
SPLINE
  5
123
100
AcDbEntity
  8
0
 62
7
100
AcDbSpline
 70
8
 71
3
 72
8
 73
4
 74
0
 40
0
 40
0
 40
0
 40
0
 40
1
 40
1
 40
1
 40
1
 10
10.787063
 20
2.159000
 30
0.0
 10
6.098646
 20
2.159000
 30
0.0
 10
2.241021
 20
5.873750
 30
0.0
 10
2.241021
 20
10.390188
 30
0.0
  0
SPLINE
  5
124
100
AcDbEntity
  8
0
 62
7
100
AcDbSpline
 70
8
 71
3
 72
8
 73
4
 74
0
 40
0
 40
0
 40
0
 40
0
 40
1
 40
1
 40
1
 40
1
 10
2.241021
 20
10.390188
 30
0.0
 10
2.241021
 20
14.906625
 30
0.0
 10
6.098646
 20
18.621375
 30
0.0
 10
10.787063
 20
18.621375
 30
0.0
  0
SPLINE
  5
125
100
AcDbEntity
  8
0
 62
7
100
AcDbSpline
 70
8
 71
3
 72
8
 73
4
 74
0
 40
0
 40
0
 40
0
 40
0
 40
1
 40
1
 40
1
 40
1
 10
10.787063
 20
18.621375
 30
0.0
 10
13.133917
 20
18.621375
 30
0.0
 10
15.274396
 20
17.690042
 30
0.0
 10
16.824854
 20
16.192500
 30
0.0
  0
LWPOLYLINE
  5
126
100
AcDbEntity
  8
0
 62
7
100
AcDbPolyline
 90
4
 70
0
 10
10.787063
 20
4.730750
 30
0.0
 10
10.787063
 20
2.159000
 30
0.0
 10
10.787063
 20
2.159000
 30
0.0
 10
10.787063
 20
2.159000
 30
0.0
  0
SPLINE
  5
127
100
AcDbEntity
  8
0
 62
7
100
AcDbSpline
 70
8
 71
3
 72
8
 73
4
 74
0
 40
0
 40
0
 40
0
 40
0
 40
1
 40
1
 40
1
 40
1
 10
14.922500
 20
14.393333
 30
0.0
 10
13.856229
 20
15.414625
 30
0.0
 10
12.393083
 20
16.049625
 30
0.0
 10
10.787063
 20
16.049625
 30
0.0
  0
SPLINE
  5
128
100
AcDbEntity
  8
0
 62
7
100
AcDbSpline
 70
8
 71
3
 72
8
 73
4
 74
0
 40
0
 40
0
 40
0
 40
0
 40
1
 40
1
 40
1
 40
1
 10
10.787063
 20
16.049625
 30
0.0
 10
7.564438
 20
16.049625
 30
0.0
 10
4.910667
 20
13.493750
 30
0.0
 10
4.910667
 20
10.390188
 30
0.0
  0
SPLINE
  5
129
100
AcDbEntity
  8
0
 62
7
100
AcDbSpline
 70
8
 71
3
 72
8
 73
4
 74
0
 40
0
 40
0
 40
0
 40
0
 40
1
 40
1
 40
1
 40
1
 10
4.910667
 20
10.390188
 30
0.0
 10
4.910667
 20
7.286625
 30
0.0
 10
7.564438
 20
4.730750
 30
0.0
 10
10.787063
 20
4.730750
 30
0.0
  0
LWPOLYLINE
  5
12a
100
AcDbEntity
  8
0
 62
7
100
AcDbPolyline
 90
2
 70
0
 10
16.824854
 20
16.192500
 30
0.0
 10
14.922500
 20
14.393333
 30
0.0
  0
SPLINE
  5
12b
100
AcDbEntity
  8
0
 62
7
100
AcDbSpline
 70
8
 71
3
 72
8
 73
4
 74
0
 40
0
 40
0
 40
0
 40
0
 40
1
 40
1
 40
1
 40
1
 10
14.800792
 20
10.390188
 30
0.0
 10
14.800792
 20
8.270875
 30
0.0
 10
12.988396
 20
6.524625
 30
0.0
 10
10.787062
 20
6.524625
 30
0.0
  0
SPLINE
  5
12c
100
AcDbEntity
  8
0
 62
7
100
AcDbSpline
 70
8
 71
3
 72
8
 73
4
 74
0
 40
0
 40
0
 40
0
 40
0
 40
1
 40
1
 40
1
 40
1
 10
10.787062
 20
6.524625
 30
0.0
 10
8.585729
 20
6.524625
 30
0.0
 10
6.773333
 20
8.268229
 30
0.0
 10
6.773333
 20
10.390188
 30
0.0
  0
SPLINE
  5
12d
100
AcDbEntity
  8
0
 62
7
100
AcDbSpline
 70
8
 71
3
 72
8
 73
4
 74
0
 40
0
 40
0
 40
0
 40
0
 40
1
 40
1
 40
1
 40
1
 10
6.773333
 20
10.390188
 30
0.0
 10
6.773333
 20
12.512146
 30
0.0
 10
8.585729
 20
14.255750
 30
0.0
 10
10.787062
 20
14.255750
 30
0.0
  0
SPLINE
  5
12e
100
AcDbEntity
  8
0
 62
7
100
AcDbSpline
 70
8
 71
3
 72
8
 73
4
 74
0
 40
0
 40
0
 40
0
 40
0
 40
1
 40
1
 40
1
 40
1
 10
10.787062
 20
14.255750
 30
0.0
 10
12.988396
 20
14.255750
 30
0.0
 10
14.800792
 20
12.509500
 30
0.0
 10
14.800792
 20
10.390188
 30
0.0
  0
LWPOLYLINE
  5
12f
100
AcDbEntity
  8
0
 62
7
100
AcDbPolyline
 90
4
 70
0
 10
10.787063
 20
4.730750
 30
0.0
 10
10.787063
 20
2.159000
 30
0.0
 10
10.787063
 20
2.159000
 30
0.0
 10
10.787063
 20
2.159000
 30
0.0
  0
SPLINE
  5
130
100
AcDbEntity
  8
0
 62
7
100
AcDbSpline
 70
8
 71
3
 72
8
 73
4
 74
0
 40
0
 40
0
 40
0
 40
0
 40
1
 40
1
 40
1
 40
1
 10
13.845646
 20
10.390188
 30
0.0
 10
13.845646
 20
8.773583
 30
0.0
 10
12.464521
 20
7.445375
 30
0.0
 10
10.787062
 20
7.445375
 30
0.0
  0
SPLINE
  5
131
100
AcDbEntity
  8
0
 62
7
100
AcDbSpline
 70
8
 71
3
 72
8
 73
4
 74
0
 40
0
 40
0
 40
0
 40
0
 40
1
 40
1
 40
1
 40
1
 10
10.787062
 20
7.445375
 30
0.0
 10
9.109604
 20
7.445375
 30
0.0
 10
7.728479
 20
8.776229
 30
0.0
 10
7.728479
 20
10.390188
 30
0.0
  0
SPLINE
  5
132
100
AcDbEntity
  8
0
 62
7
100
AcDbSpline
 70
8
 71
3
 72
8
 73
4
 74
0
 40
0
 40
0
 40
0
 40
0
 40
1
 40
1
 40
1
 40
1
 10
7.728479
 20
10.390188
 30
0.0
 10
7.728479
 20
12.004146
 30
0.0
 10
9.109604
 20
13.335000
 30
0.0
 10
10.787062
 20
13.335000
 30
0.0
  0
SPLINE
  5
133
100
AcDbEntity
  8
0
 62
7
100
AcDbSpline
 70
8
 71
3
 72
8
 73
4
 74
0
 40
0
 40
0
 40
0
 40
0
 40
1
 40
1
 40
1
 40
1
 10
10.787062
 20
13.335000
 30
0.0
 10
12.464521
 20
13.335000
 30
0.0
 10
13.845646
 20
12.004146
 30
0.0
 10
13.845646
 20
10.390188
 30
0.0
  0
LWPOLYLINE
  5
134
100
AcDbEntity
  8
0
 62
7
100
AcDbPolyline
 90
1
 70
1
 10
14.800792
 20
10.390188
 30
0.0
  0
SPLINE
  5
135
100
AcDbEntity
  8
0
 62
7
100
AcDbSpline
 70
8
 71
3
 72
8
 73
4
 74
0
 40
0
 40
0
 40
0
 40
0
 40
1
 40
1
 40
1
 40
1
 10
14.800792
 20
10.390188
 30
0.0
 10
14.800792
 20
8.270875
 30
0.0
 10
12.988396
 20
6.524625
 30
0.0
 10
10.787062
 20
6.524625
 30
0.0
  0
SPLINE
  5
136
100
AcDbEntity
  8
0
 62
7
100
AcDbSpline
 70
8
 71
3
 72
8
 73
4
 74
0
 40
0
 40
0
 40
0
 40
0
 40
1
 40
1
 40
1
 40
1
 10
10.787062
 20
6.524625
 30
0.0
 10
8.585729
 20
6.524625
 30
0.0
 10
6.773333
 20
8.268229
 30
0.0
 10
6.773333
 20
10.390188
 30
0.0
  0
SPLINE
  5
137
100
AcDbEntity
  8
0
 62
7
100
AcDbSpline
 70
8
 71
3
 72
8
 73
4
 74
0
 40
0
 40
0
 40
0
 40
0
 40
1
 40
1
 40
1
 40
1
 10
6.773333
 20
10.390188
 30
0.0
 10
6.773333
 20
12.512146
 30
0.0
 10
8.585729
 20
14.255750
 30
0.0
 10
10.787062
 20
14.255750
 30
0.0
  0
SPLINE
  5
138
100
AcDbEntity
  8
0
 62
7
100
AcDbSpline
 70
8
 71
3
 72
8
 73
4
 74
0
 40
0
 40
0
 40
0
 40
0
 40
1
 40
1
 40
1
 40
1
 10
10.787062
 20
14.255750
 30
0.0
 10
12.988396
 20
14.255750
 30
0.0
 10
14.800792
 20
12.509500
 30
0.0
 10
14.800792
 20
10.390188
 30
0.0
  0
LWPOLYLINE
  5
139
100
AcDbEntity
  8
0
 62
7
100
AcDbPolyline
 90
1
 70
1
 10
13.845646
 20
10.390188
 30
0.0
  0
SPLINE
  5
13a
100
AcDbEntity
  8
0
 62
7
100
AcDbSpline
 70
8
 71
3
 72
8
 73
4
 74
0
 40
0
 40
0
 40
0
 40
0
 40
1
 40
1
 40
1
 40
1
 10
13.845646
 20
10.390188
 30
0.0
 10
13.845646
 20
8.773583
 30
0.0
 10
12.464521
 20
7.445375
 30
0.0
 10
10.787062
 20
7.445375
 30
0.0
  0
SPLINE
  5
13b
100
AcDbEntity
  8
0
 62
7
100
AcDbSpline
 70
8
 71
3
 72
8
 73
4
 74
0
 40
0
 40
0
 40
0
 40
0
 40
1
 40
1
 40
1
 40
1
 10
10.787062
 20
7.445375
 30
0.0
 10
9.109604
 20
7.445375
 30
0.0
 10
7.728479
 20
8.776229
 30
0.0
 10
7.728479
 20
10.390188
 30
0.0
  0
SPLINE
  5
13c
100
AcDbEntity
  8
0
 62
7
100
AcDbSpline
 70
8
 71
3
 72
8
 73
4
 74
0
 40
0
 40
0
 40
0
 40
0
 40
1
 40
1
 40
1
 40
1
 10
7.728479
 20
10.390188
 30
0.0
 10
7.728479
 20
12.004146
 30
0.0
 10
9.109604
 20
13.335000
 30
0.0
 10
10.787062
 20
13.335000
 30
0.0
  0
SPLINE
  5
13d
100
AcDbEntity
  8
0
 62
7
100
AcDbSpline
 70
8
 71
3
 72
8
 73
4
 74
0
 40
0
 40
0
 40
0
 40
0
 40
1
 40
1
 40
1
 40
1
 10
10.787062
 20
13.335000
 30
0.0
 10
12.464521
 20
13.335000
 30
0.0
 10
13.845646
 20
12.004146
 30
0.0
 10
13.845646
 20
10.390188
 30
0.0
  0
LWPOLYLINE
  5
13e
100
AcDbEntity
  8
0
 62
7
100
AcDbPolyline
 90
1
 70
1
 10
14.800792
 20
10.390188
 30
0.0
  0
SPLINE
  5
13f
100
AcDbEntity
  8
0
 62
7
100
AcDbSpline
 70
8
 71
3
 72
8
 73
4
 74
0
 40
0
 40
0
 40
0
 40
0
 40
1
 40
1
 40
1
 40
1
 10
13.845646
 20
10.390188
 30
0.0
 10
13.845646
 20
8.773583
 30
0.0
 10
12.464521
 20
7.445375
 30
0.0
 10
10.787062
 20
7.445375
 30
0.0
  0
SPLINE
  5
140
100
AcDbEntity
  8
0
 62
7
100
AcDbSpline
 70
8
 71
3
 72
8
 73
4
 74
0
 40
0
 40
0
 40
0
 40
0
 40
1
 40
1
 40
1
 40
1
 10
10.787062
 20
7.445375
 30
0.0
 10
9.109604
 20
7.445375
 30
0.0
 10
7.728479
 20
8.776229
 30
0.0
 10
7.728479
 20
10.390188
 30
0.0
  0
SPLINE
  5
141
100
AcDbEntity
  8
0
 62
7
100
AcDbSpline
 70
8
 71
3
 72
8
 73
4
 74
0
 40
0
 40
0
 40
0
 40
0
 40
1
 40
1
 40
1
 40
1
 10
7.728479
 20
10.390188
 30
0.0
 10
7.728479
 20
12.004146
 30
0.0
 10
9.109604
 20
13.335000
 30
0.0
 10
10.787062
 20
13.335000
 30
0.0
  0
SPLINE
  5
142
100
AcDbEntity
  8
0
 62
7
100
AcDbSpline
 70
8
 71
3
 72
8
 73
4
 74
0
 40
0
 40
0
 40
0
 40
0
 40
1
 40
1
 40
1
 40
1
 10
10.787062
 20
13.335000
 30
0.0
 10
12.464521
 20
13.335000
 30
0.0
 10
13.845646
 20
12.004146
 30
0.0
 10
13.845646
 20
10.390188
 30
0.0
  0
SPLINE
  5
143
100
AcDbEntity
  8
0
 62
7
100
AcDbSpline
 70
8
 71
3
 72
8
 73
4
 74
0
 40
0
 40
0
 40
0
 40
0
 40
1
 40
1
 40
1
 40
1
 10
10.787063
 20
10.689167
 30
0.0
 10
10.661856
 20
10.689167
 30
0.0
 10
10.548978
 20
10.616323
 30
0.0
 10
10.501064
 20
10.504602
 30
0.0
  0
SPLINE
  5
144
100
AcDbEntity
  8
0
 62
7
100
AcDbSpline
 70
8
 71
3
 72
8
 73
4
 74
0
 40
0
 40
0
 40
0
 40
0
 40
1
 40
1
 40
1
 40
1
 10
10.501064
 20
10.504602
 30
0.0
 10
10.453150
 20
10.392881
 30
0.0
 10
10.479635
 20
10.264285
 30
0.0
 10
10.568169
 20
10.178777
 30
0.0
  0
SPLINE
  5
145
100
AcDbEntity
  8
0
 62
7
100
AcDbSpline
 70
8
 71
3
 72
8
 73
4
 74
0
 40
0
 40
0
 40
0
 40
0
 40
1
 40
1
 40
1
 40
1
 10
10.568169
 20
10.178777
 30
0.0
 10
10.656703
 20
10.093270
 30
0.0
 10
10.789851
 20
10.067690
 30
0.0
 10
10.905527
 20
10.113967
 30
0.0
  0
SPLINE
  5
146
100
AcDbEntity
  8
0
 62
7
100
AcDbSpline
 70
8
 71
3
 72
8
 73
4
 74
0
 40
0
 40
0
 40
0
 40
0
 40
1
 40
1
 40
1
 40
1
 10
10.905527
 20
10.113967
 30
0.0
 10
11.021203
 20
10.160243
 30
0.0
 10
11.096625
 20
10.269262
 30
0.0
 10
11.096625
 20
10.390188
 30
0.0
  0
SPLINE
  5
147
100
AcDbEntity
  8
0
 62
7
100
AcDbSpline
 70
8
 71
3
 72
8
 73
4
 74
0
 40
0
 40
0
 40
0
 40
0
 40
1
 40
1
 40
1
 40
1
 10
11.096625
 20
10.390188
 30
0.0
 10
11.096625
 20
10.469482
 30
0.0
 10
11.064010
 20
10.545528
 30
0.0
 10
11.005956
 20
10.601598
 30
0.0
  0
SPLINE
  5
148
100
AcDbEntity
  8
0
 62
7
100
AcDbSpline
 70
8
 71
3
 72
8
 73
4
 74
0
 40
0
 40
0
 40
0
 40
0
 40
1
 40
1
 40
1
 40
1
 10
11.005956
 20
10.601598
 30
0.0
 10
10.947902
 20
10.657667
 30
0.0
 10
10.869164
 20
10.689167
 30
0.0
 10
10.787063
 20
10.689167
 30
0.0
  0
LWPOLYLINE
  5
149
100
AcDbEntity
  8
0
 62
7
100
AcDbPolyline
 90
2
 70
1
 10
13.845646
 20
10.390188
 30
0.0
 10
13.845646
 20
10.390188
 30
0.0
  0
SPLINE
  5
14a
100
AcDbEntity
  8
0
 62
7
100
AcDbSpline
 70
8
 71
3
 72
8
 73
4
 74
0
 40
0
 40
0
 40
0
 40
0
 40
1
 40
1
 40
1
 40
1
 10
12.924896
 20
10.390188
 30
0.0
 10
12.924896
 20
9.260417
 30
0.0
 10
11.959167
 20
8.331729
 30
0.0
 10
10.787063
 20
8.331729
 30
0.0
  0
SPLINE
  5
14b
100
AcDbEntity
  8
0
 62
7
100
AcDbSpline
 70
8
 71
3
 72
8
 73
4
 74
0
 40
0
 40
0
 40
0
 40
0
 40
1
 40
1
 40
1
 40
1
 10
10.787063
 20
8.331729
 30
0.0
 10
9.614958
 20
8.331729
 30
0.0
 10
8.649229
 20
9.260417
 30
0.0
 10
8.649229
 20
10.390188
 30
0.0
  0
SPLINE
  5
14c
100
AcDbEntity
  8
0
 62
7
100
AcDbSpline
 70
8
 71
3
 72
8
 73
4
 74
0
 40
0
 40
0
 40
0
 40
0
 40
1
 40
1
 40
1
 40
1
 10
8.649229
 20
10.390188
 30
0.0
 10
8.649229
 20
11.519958
 30
0.0
 10
9.614958
 20
12.448646
 30
0.0
 10
10.787063
 20
12.448646
 30
0.0
  0
SPLINE
  5
14d
100
AcDbEntity
  8
0
 62
7
100
AcDbSpline
 70
8
 71
3
 72
8
 73
4
 74
0
 40
0
 40
0
 40
0
 40
0
 40
1
 40
1
 40
1
 40
1
 10
10.787063
 20
12.448646
 30
0.0
 10
11.959167
 20
12.448646
 30
0.0
 10
12.924896
 20
11.519958
 30
0.0
 10
12.924896
 20
10.390188
 30
0.0
  0
LWPOLYLINE
  5
14e
100
AcDbEntity
  8
0
 62
7
100
AcDbPolyline
 90
1
 70
1
 10
10.787063
 20
10.689167
 30
0.0
  0
SPLINE
  5
14f
100
AcDbEntity
  8
0
 62
7
100
AcDbSpline
 70
8
 71
3
 72
8
 73
4
 74
0
 40
0
 40
0
 40
0
 40
0
 40
1
 40
1
 40
1
 40
1
 10
12.649729
 20
10.390188
 30
0.0
 10
12.649729
 20
9.405938
 30
0.0
 10
11.808354
 20
8.596313
 30
0.0
 10
10.787063
 20
8.596313
 30
0.0
  0
SPLINE
  5
150
100
AcDbEntity
  8
0
 62
7
100
AcDbSpline
 70
8
 71
3
 72
8
 73
4
 74
0
 40
0
 40
0
 40
0
 40
0
 40
1
 40
1
 40
1
 40
1
 10
10.787063
 20
8.596313
 30
0.0
 10
9.765771
 20
8.596313
 30
0.0
 10
8.924396
 20
9.405938
 30
0.0
 10
8.924396
 20
10.390188
 30
0.0
  0
SPLINE
  5
151
100
AcDbEntity
  8
0
 62
7
100
AcDbSpline
 70
8
 71
3
 72
8
 73
4
 74
0
 40
0
 40
0
 40
0
 40
0
 40
1
 40
1
 40
1
 40
1
 10
8.924396
 20
10.390188
 30
0.0
 10
8.924396
 20
11.374438
 30
0.0
 10
9.765771
 20
12.184063
 30
0.0
 10
10.787063
 20
12.184063
 30
0.0
  0
SPLINE
  5
152
100
AcDbEntity
  8
0
 62
7
100
AcDbSpline
 70
8
 71
3
 72
8
 73
4
 74
0
 40
0
 40
0
 40
0
 40
0
 40
1
 40
1
 40
1
 40
1
 10
10.787063
 20
12.184063
 30
0.0
 10
11.808354
 20
12.184063
 30
0.0
 10
12.649729
 20
11.374438
 30
0.0
 10
12.649729
 20
10.390188
 30
0.0
  0
LWPOLYLINE
  5
153
100
AcDbEntity
  8
0
 62
7
100
AcDbPolyline
 90
1
 70
1
 10
12.924896
 20
10.390188
 30
0.0
  0
SPLINE
  5
154
100
AcDbEntity
  8
0
 62
7
100
AcDbSpline
 70
8
 71
3
 72
8
 73
4
 74
0
 40
0
 40
0
 40
0
 40
0
 40
1
 40
1
 40
1
 40
1
 10
16.663458
 20
10.390188
 30
0.0
 10
16.663458
 20
7.286625
 30
0.0
 10
14.009687
 20
4.730750
 30
0.0
 10
10.787062
 20
4.730750
 30
0.0
  0
SPLINE
  5
155
100
AcDbEntity
  8
0
 62
7
100
AcDbSpline
 70
8
 71
3
 72
8
 73
4
 74
0
 40
0
 40
0
 40
0
 40
0
 40
1
 40
1
 40
1
 40
1
 10
10.787062
 20
4.730750
 30
0.0
 10
7.564437
 20
4.730750
 30
0.0
 10
4.910667
 20
7.286625
 30
0.0
 10
4.910667
 20
10.390188
 30
0.0
  0
SPLINE
  5
156
100
AcDbEntity
  8
0
 62
7
100
AcDbSpline
 70
8
 71
3
 72
8
 73
4
 74
0
 40
0
 40
0
 40
0
 40
0
 40
1
 40
1
 40
1
 40
1
 10
4.910667
 20
10.390188
 30
0.0
 10
4.910667
 20
13.493750
 30
0.0
 10
7.564437
 20
16.049625
 30
0.0
 10
10.787062
 20
16.049625
 30
0.0
  0
SPLINE
  5
157
100
AcDbEntity
  8
0
 62
7
100
AcDbSpline
 70
8
 71
3
 72
8
 73
4
 74
0
 40
0
 40
0
 40
0
 40
0
 40
1
 40
1
 40
1
 40
1
 10
10.787062
 20
16.049625
 30
0.0
 10
14.009687
 20
16.049625
 30
0.0
 10
16.663458
 20
13.493750
 30
0.0
 10
16.663458
 20
10.390188
 30
0.0
  0
LWPOLYLINE
  5
158
100
AcDbEntity
  8
0
 62
7
100
AcDbPolyline
 90
1
 70
1
 10
12.649729
 20
10.390188
 30
0.0
  0
LWPOLYLINE
  5
159
100
AcDbEntity
  8
0
 62
7
100
AcDbPolyline
 90
1
 70
1
 10
16.663458
 20
10.390188
 30
0.0
  0
LWPOLYLINE
  5
15a
100
AcDbEntity
  8
0
 62
7
100
AcDbPolyline
 90
4
 70
1
 10
10.625667
 20
19.314583
 30
0.0
 10
10.929937
 20
19.314583
 30
0.0
 10
10.929937
 20
18.780125
 30
0.0
 10
10.625667
 20
18.780125
 30
0.0
  0
LWPOLYLINE
  5
15b
100
AcDbEntity
  8
0
 62
7
100
AcDbPolyline
 90
4
 70
1
 10
1.516063
 20
10.511896
 30
0.0
 10
2.071687
 20
10.511896
 30
0.0
 10
2.071687
 20
10.218208
 30
0.0
 10
1.516063
 20
10.218208
 30
0.0
  0
SPLINE
  5
15c
100
AcDbEntity
  8
0
 62
7
100
AcDbSpline
 70
8
 71
3
 72
8
 73
4
 74
0
 40
0
 40
0
 40
0
 40
0
 40
1
 40
1
 40
1
 40
1
 10
13.559896
 20
15.740063
 30
0.0
 10
13.189479
 20
15.925271
 30
0.0
 10
12.795250
 20
16.070792
 30
0.0
 10
12.382500
 20
16.171333
 30
0.0
  0
LWPOLYLINE
  5
15d
100
AcDbEntity
  8
0
 62
7
100
AcDbPolyline
 90
4
 70
1
 10
10.633604
 20
1.989667
 30
0.0
 10
10.937875
 20
1.989667
 30
0.0
 10
10.937875
 20
1.455208
 30
0.0
 10
10.633604
 20
1.455208
 30
0.0
  0
SPLINE
  5
15e
100
AcDbEntity
  8
0
 62
7
100
AcDbSpline
 70
8
 71
3
 72
8
 73
4
 74
0
 40
0
 40
0
 40
0
 40
0
 40
1
 40
1
 40
1
 40
1
 10
12.861396
 20
18.044583
 30
0.0
 10
13.424958
 20
17.907000
 30
0.0
 10
13.964708
 20
17.708563
 30
0.0
 10
14.488583
 20
17.454563
 30
0.0
  0
LWPOLYLINE
  5
15f
100
AcDbEntity
  8
0
 62
7
100
AcDbPolyline
 90
2
 70
0
 10
12.382500
 20
16.171333
 30
0.0
 10
12.861396
 20
18.044583
 30
0.0
  0
SPLINE
  5
160
100
AcDbEntity
  8
0
 62
7
100
AcDbSpline
 70
8
 71
3
 72
8
 73
4
 74
0
 40
0
 40
0
 40
0
 40
0
 40
1
 40
1
 40
1
 40
1
 10
13.559896
 20
15.740063
 30
0.0
 10
13.189479
 20
15.925271
 30
0.0
 10
12.795250
 20
16.070792
 30
0.0
 10
12.382500
 20
16.171333
 30
0.0
  0
LWPOLYLINE
  5
161
100
AcDbEntity
  8
0
 62
7
100
AcDbPolyline
 90
3
 70
0
 10
14.488583
 20
17.454563
 30
0.0
 10
13.562542
 20
15.737417
 30
0.0
 10
13.559896
 20
15.740063
 30
0.0
  0
SPLINE
  5
162
100
AcDbEntity
  8
0
 62
7
100
AcDbSpline
 70
8
 71
3
 72
8
 73
4
 74
0
 40
0
 40
0
 40
0
 40
0
 40
1
 40
1
 40
1
 40
1
 10
12.861396
 20
18.044583
 30
0.0
 10
13.424958
 20
17.907000
 30
0.0
 10
13.964708
 20
17.708563
 30
0.0
 10
14.488583
 20
17.454563
 30
0.0
  0
LWPOLYLINE
  5
163
100
AcDbEntity
  8
0
 62
7
100
AcDbPolyline
 90
2
 70
0
 10
12.382500
 20
16.171333
 30
0.0
 10
12.861396
 20
18.044583
 30
0.0
  0
SPLINE
  5
164
100
AcDbEntity
  8
0
 62
7
100
AcDbSpline
 70
8
 71
3
 72
8
 73
4
 74
0
 40
0
 40
0
 40
0
 40
0
 40
1
 40
1
 40
1
 40
1
 10
15.009812
 20
17.179396
 30
0.0
 10
15.499292
 20
16.901583
 30
0.0
 10
15.946438
 20
16.568208
 30
0.0
 10
16.359188
 20
16.192500
 30
0.0
  0
LWPOLYLINE
  5
165
100
AcDbEntity
  8
0
 62
7
100
AcDbPolyline
 90
3
 70
0
 10
14.488583
 20
17.454563
 30
0.0
 10
13.562542
 20
15.737417
 30
0.0
 10
13.559896
 20
15.740063
 30
0.0
  0
SPLINE
  5
166
100
AcDbEntity
  8
0
 62
7
100
AcDbSpline
 70
8
 71
3
 72
8
 73
4
 74
0
 40
0
 40
0
 40
0
 40
0
 40
1
 40
1
 40
1
 40
1
 10
14.991292
 20
14.787563
 30
0.0
 10
14.689667
 20
15.062729
 30
0.0
 10
14.353646
 20
15.306146
 30
0.0
 10
13.991167
 20
15.512521
 30
0.0
  0
LWPOLYLINE
  5
167
100
AcDbEntity
  8
0
 62
7
100
AcDbPolyline
 90
2
 70
0
 10
16.359188
 20
16.192500
 30
0.0
 10
14.991292
 20
14.787563
 30
0.0
  0
SPLINE
  5
168
100
AcDbEntity
  8
0
 62
7
100
AcDbSpline
 70
8
 71
3
 72
8
 73
4
 74
0
 40
0
 40
0
 40
0
 40
0
 40
1
 40
1
 40
1
 40
1
 10
15.009812
 20
17.179396
 30
0.0
 10
15.499292
 20
16.901583
 30
0.0
 10
15.946438
 20
16.568208
 30
0.0
 10
16.359188
 20
16.192500
 30
0.0
  0
LWPOLYLINE
  5
169
100
AcDbEntity
  8
0
 62
7
100
AcDbPolyline
 90
3
 70
0
 10
13.991167
 20
15.512521
 30
0.0
 10
15.009812
 20
17.179396
 30
0.0
 10
15.009812
 20
17.179396
 30
0.0
  0
SPLINE
  5
16a
100
AcDbEntity
  8
0
 62
7
100
AcDbSpline
 70
8
 71
3
 72
8
 73
4
 74
0
 40
0
 40
0
 40
0
 40
0
 40
1
 40
1
 40
1
 40
1
 10
14.991292
 20
14.787563
 30
0.0
 10
14.689667
 20
15.062729
 30
0.0
 10
14.353646
 20
15.306146
 30
0.0
 10
13.991167
 20
15.512521
 30
0.0
  0
LWPOLYLINE
  5
16b
100
AcDbEntity
  8
0
 62
7
100
AcDbPolyline
 90
2
 70
0
 10
16.359188
 20
16.192500
 30
0.0
 10
14.991292
 20
14.787563
 30
0.0
  0
SPLINE
  5
16c
100
AcDbEntity
  8
0
 62
7
100
AcDbSpline
 70
8
 71
3
 72
8
 73
4
 74
0
 40
0
 40
0
 40
0
 40
0
 40
1
 40
1
 40
1
 40
1
 10
10.895542
 20
18.269479
 30
0.0
 10
10.755313
 20
18.277417
 30
0.0
 10
10.617729
 20
18.280063
 30
0.0
 10
10.474854
 20
18.280063
 30
0.0
  0
SPLINE
  5
16d
100
AcDbEntity
  8
0
 62
7
100
AcDbSpline
 70
8
 71
3
 72
8
 73
4
 74
0
 40
0
 40
0
 40
0
 40
0
 40
1
 40
1
 40
1
 40
1
 10
10.474854
 20
18.280063
 30
0.0
 10
8.411104
 20
18.280063
 30
0.0
 10
6.537854
 20
17.459854
 30
0.0
 10
5.175250
 20
16.142229
 30
0.0
  0
LWPOLYLINE
  5
16e
100
AcDbEntity
  8
0
 62
7
100
AcDbPolyline
 90
3
 70
0
 10
13.991167
 20
15.512521
 30
0.0
 10
15.009812
 20
17.179396
 30
0.0
 10
15.009812
 20
17.179396
 30
0.0
  0
SPLINE
  5
16f
100
AcDbEntity
  8
0
 62
7
100
AcDbSpline
 70
8
 71
3
 72
8
 73
4
 74
0
 40
0
 40
0
 40
0
 40
0
 40
1
 40
1
 40
1
 40
1
 10
5.574771
 20
15.779750
 30
0.0
 10
5.670021
 20
15.885583
 30
0.0
 10
6.212417
 20
16.401521
 30
0.0
 10
6.617229
 20
16.650229
 30
0.0
  0
SPLINE
  5
170
100
AcDbEntity
  8
0
 62
7
100
AcDbSpline
 70
8
 71
3
 72
8
 73
4
 74
0
 40
0
 40
0
 40
0
 40
0
 40
1
 40
1
 40
1
 40
1
 10
6.617229
 20
16.650229
 30
0.0
 10
7.172854
 20
16.994188
 30
0.0
 10
7.728479
 20
17.237604
 30
0.0
 10
7.728479
 20
17.237604
 30
0.0
  0
LWPOLYLINE
  5
171
100
AcDbEntity
  8
0
 62
7
100
AcDbPolyline
 90
2
 70
0
 10
5.175250
 20
16.142229
 30
0.0
 10
5.574771
 20
15.779750
 30
0.0
  0
SPLINE
  5
172
100
AcDbEntity
  8
0
 62
7
100
AcDbSpline
 70
8
 71
3
 72
8
 73
4
 74
0
 40
0
 40
0
 40
0
 40
0
 40
1
 40
1
 40
1
 40
1
 10
7.929562
 20
16.830146
 30
0.0
 10
7.929562
 20
16.830146
 30
0.0
 10
7.469188
 20
16.644938
 30
0.0
 10
6.881812
 20
16.293042
 30
0.0
  0
SPLINE
  5
173
100
AcDbEntity
  8
0
 62
7
100
AcDbSpline
 70
8
 71
3
 72
8
 73
4
 74
0
 40
0
 40
0
 40
0
 40
0
 40
1
 40
1
 40
1
 40
1
 10
6.881812
 20
16.293042
 30
0.0
 10
6.347354
 20
15.970250
 30
0.0
 10
5.947833
 20
15.549563
 30
0.0
 10
5.884333
 20
15.480771
 30
0.0
  0
LWPOLYLINE
  5
174
100
AcDbEntity
  8
0
 62
7
100
AcDbPolyline
 90
2
 70
0
 10
7.728479
 20
17.237604
 30
0.0
 10
7.929562
 20
16.830146
 30
0.0
  0
SPLINE
  5
175
100
AcDbEntity
  8
0
 62
7
100
AcDbSpline
 70
8
 71
3
 72
8
 73
4
 74
0
 40
0
 40
0
 40
0
 40
0
 40
1
 40
1
 40
1
 40
1
 10
6.596063
 20
14.808729
 30
0.0
 10
7.596188
 20
15.750646
 30
0.0
 10
8.964083
 20
16.351250
 30
0.0
 10
10.474854
 20
16.351250
 30
0.0
  0
SPLINE
  5
176
100
AcDbEntity
  8
0
 62
7
100
AcDbSpline
 70
8
 71
3
 72
8
 73
4
 74
0
 40
0
 40
0
 40
0
 40
0
 40
1
 40
1
 40
1
 40
1
 10
10.474854
 20
16.351250
 30
0.0
 10
10.612438
 20
16.351250
 30
0.0
 10
10.744729
 20
16.345958
 30
0.0
 10
10.898188
 20
16.335375
 30
0.0
  0
LWPOLYLINE
  5
177
100
AcDbEntity
  8
0
 62
7
100
AcDbPolyline
 90
2
 70
0
 10
5.884333
 20
15.480771
 30
0.0
 10
6.596063
 20
14.808729
 30
0.0
  0
SPLINE
  5
178
100
AcDbEntity
  8
0
 62
7
100
AcDbSpline
 70
8
 71
3
 72
8
 73
4
 74
0
 40
0
 40
0
 40
0
 40
0
 40
1
 40
1
 40
1
 40
1
 10
10.895542
 20
18.269479
 30
0.0
 10
10.755313
 20
18.277417
 30
0.0
 10
10.617729
 20
18.280063
 30
0.0
 10
10.474854
 20
18.280063
 30
0.0
  0
SPLINE
  5
179
100
AcDbEntity
  8
0
 62
7
100
AcDbSpline
 70
8
 71
3
 72
8
 73
4
 74
0
 40
0
 40
0
 40
0
 40
0
 40
1
 40
1
 40
1
 40
1
 10
10.474854
 20
18.280063
 30
0.0
 10
8.411104
 20
18.280063
 30
0.0
 10
6.537854
 20
17.459854
 30
0.0
 10
5.175250
 20
16.142229
 30
0.0
  0
LWPOLYLINE
  5
17a
100
AcDbEntity
  8
0
 62
7
100
AcDbPolyline
 90
3
 70
0
 10
10.898188
 20
16.335375
 30
0.0
 10
10.898188
 20
18.269479
 30
0.0
 10
10.895542
 20
18.269479
 30
0.0
  0
SPLINE
  5
17b
100
AcDbEntity
  8
0
 62
7
100
AcDbSpline
 70
8
 71
3
 72
8
 73
4
 74
0
 40
0
 40
0
 40
0
 40
0
 40
1
 40
1
 40
1
 40
1
 10
5.574771
 20
15.779750
 30
0.0
 10
5.670021
 20
15.885583
 30
0.0
 10
6.212417
 20
16.401521
 30
0.0
 10
6.617229
 20
16.650229
 30
0.0
  0
SPLINE
  5
17c
100
AcDbEntity
  8
0
 62
7
100
AcDbSpline
 70
8
 71
3
 72
8
 73
4
 74
0
 40
0
 40
0
 40
0
 40
0
 40
1
 40
1
 40
1
 40
1
 10
6.617229
 20
16.650229
 30
0.0
 10
7.172854
 20
16.994188
 30
0.0
 10
7.728479
 20
17.237604
 30
0.0
 10
7.728479
 20
17.237604
 30
0.0
  0
LWPOLYLINE
  5
17d
100
AcDbEntity
  8
0
 62
7
100
AcDbPolyline
 90
2
 70
0
 10
5.175250
 20
16.142229
 30
0.0
 10
5.574771
 20
15.779750
 30
0.0
  0
SPLINE
  5
17e
100
AcDbEntity
  8
0
 62
7
100
AcDbSpline
 70
8
 71
3
 72
8
 73
4
 74
0
 40
0
 40
0
 40
0
 40
0
 40
1
 40
1
 40
1
 40
1
 10
7.929562
 20
16.830146
 30
0.0
 10
7.929562
 20
16.830146
 30
0.0
 10
7.469188
 20
16.644938
 30
0.0
 10
6.881812
 20
16.293042
 30
0.0
  0
SPLINE
  5
17f
100
AcDbEntity
  8
0
 62
7
100
AcDbSpline
 70
8
 71
3
 72
8
 73
4
 74
0
 40
0
 40
0
 40
0
 40
0
 40
1
 40
1
 40
1
 40
1
 10
6.881812
 20
16.293042
 30
0.0
 10
6.347354
 20
15.970250
 30
0.0
 10
5.947833
 20
15.549563
 30
0.0
 10
5.884333
 20
15.480771
 30
0.0
  0
LWPOLYLINE
  5
180
100
AcDbEntity
  8
0
 62
7
100
AcDbPolyline
 90
2
 70
0
 10
7.728479
 20
17.237604
 30
0.0
 10
7.929562
 20
16.830146
 30
0.0
  0
SPLINE
  5
181
100
AcDbEntity
  8
0
 62
7
100
AcDbSpline
 70
8
 71
3
 72
8
 73
4
 74
0
 40
0
 40
0
 40
0
 40
0
 40
1
 40
1
 40
1
 40
1
 10
6.596063
 20
14.808729
 30
0.0
 10
7.596188
 20
15.750646
 30
0.0
 10
8.964083
 20
16.351250
 30
0.0
 10
10.474854
 20
16.351250
 30
0.0
  0
SPLINE
  5
182
100
AcDbEntity
  8
0
 62
7
100
AcDbSpline
 70
8
 71
3
 72
8
 73
4
 74
0
 40
0
 40
0
 40
0
 40
0
 40
1
 40
1
 40
1
 40
1
 10
10.474854
 20
16.351250
 30
0.0
 10
10.612438
 20
16.351250
 30
0.0
 10
10.744729
 20
16.345958
 30
0.0
 10
10.898188
 20
16.335375
 30
0.0
  0
LWPOLYLINE
  5
183
100
AcDbEntity
  8
0
 62
7
100
AcDbPolyline
 90
2
 70
0
 10
5.884333
 20
15.480771
 30
0.0
 10
6.596063
 20
14.808729
 30
0.0
  0
LWPOLYLINE
  5
184
100
AcDbEntity
  8
0
 62
7
100
AcDbPolyline
 90
3
 70
0
 10
10.898188
 20
16.335375
 30
0.0
 10
10.898188
 20
18.269479
 30
0.0
 10
10.895542
 20
18.269479
 30
0.0
  0
SPLINE
  5
185
100
AcDbEntity
  8
0
 62
7
100
AcDbSpline
 70
8
 71
3
 72
8
 73
4
 74
0
 40
0
 40
0
 40
0
 40
0
 40
1
 40
1
 40
1
 40
1
 10
7.876646
 20
13.438188
 30
0.0
 10
7.876646
 20
13.438188
 30
0.0
 10
8.297333
 20
13.811250
 30
0.0
 10
8.961437
 20
14.149917
 30
0.0
  0
SPLINE
  5
186
100
AcDbEntity
  8
0
 62
7
100
AcDbSpline
 70
8
 71
3
 72
8
 73
4
 74
0
 40
0
 40
0
 40
0
 40
0
 40
1
 40
1
 40
1
 40
1
 10
8.961437
 20
14.149917
 30
0.0
 10
9.506479
 20
14.427729
 30
0.0
 10
10.361083
 20
14.496521
 30
0.0
 10
10.361083
 20
14.496521
 30
0.0
  0
LWPOLYLINE
  5
187
100
AcDbEntity
  8
0
 62
7
100
AcDbPolyline
 90
2
 70
0
 10
7.006167
 20
14.261042
 30
0.0
 10
7.876646
 20
13.438188
 30
0.0
  0
SPLINE
  5
188
100
AcDbEntity
  8
0
 62
7
100
AcDbSpline
 70
8
 71
3
 72
8
 73
4
 74
0
 40
0
 40
0
 40
0
 40
0
 40
1
 40
1
 40
1
 40
1
 10
10.321396
 20
15.668625
 30
0.0
 10
10.321396
 20
15.668625
 30
0.0
 10
9.310688
 20
15.673917
 30
0.0
 10
8.397875
 20
15.221479
 30
0.0
  0
SPLINE
  5
189
100
AcDbEntity
  8
0
 62
7
100
AcDbSpline
 70
8
 71
3
 72
8
 73
4
 74
0
 40
0
 40
0
 40
0
 40
0
 40
1
 40
1
 40
1
 40
1
 10
8.397875
 20
15.221479
 30
0.0
 10
7.503583
 20
14.776979
 30
0.0
 10
7.006167
 20
14.263688
 30
0.0
 10
7.006167
 20
14.263688
 30
0.0
  0
LWPOLYLINE
  5
18a
100
AcDbEntity
  8
0
 62
7
100
AcDbPolyline
 90
2
 70
0
 10
10.361083
 20
14.496521
 30
0.0
 10
10.321396
 20
15.668625
 30
0.0
  0
SPLINE
  5
18b
100
AcDbEntity
  8
0
 62
7
100
AcDbSpline
 70
8
 71
3
 72
8
 73
4
 74
0
 40
0
 40
0
 40
0
 40
0
 40
1
 40
1
 40
1
 40
1
 10
7.876646
 20
13.438188
 30
0.0
 10
7.876646
 20
13.438188
 30
0.0
 10
8.297333
 20
13.811250
 30
0.0
 10
8.961437
 20
14.149917
 30
0.0
  0
SPLINE
  5
18c
100
AcDbEntity
  8
0
 62
7
100
AcDbSpline
 70
8
 71
3
 72
8
 73
4
 74
0
 40
0
 40
0
 40
0
 40
0
 40
1
 40
1
 40
1
 40
1
 10
8.961437
 20
14.149917
 30
0.0
 10
9.506479
 20
14.427729
 30
0.0
 10
10.361083
 20
14.496521
 30
0.0
 10
10.361083
 20
14.496521
 30
0.0
  0
LWPOLYLINE
  5
18d
100
AcDbEntity
  8
0
 62
7
100
AcDbPolyline
 90
3
 70
0
 10
7.006167
 20
14.263688
 30
0.0
 10
7.006167
 20
14.261042
 30
0.0
 10
7.876646
 20
13.438188
 30
0.0
  0
SPLINE
  5
18e
100
AcDbEntity
  8
0
 62
7
100
AcDbSpline
 70
8
 71
3
 72
8
 73
4
 74
0
 40
0
 40
0
 40
0
 40
0
 40
1
 40
1
 40
1
 40
1
 10
10.321396
 20
15.668625
 30
0.0
 10
10.321396
 20
15.668625
 30
0.0
 10
9.310688
 20
15.673917
 30
0.0
 10
8.397875
 20
15.221479
 30
0.0
  0
SPLINE
  5
18f
100
AcDbEntity
  8
0
 62
7
100
AcDbSpline
 70
8
 71
3
 72
8
 73
4
 74
0
 40
0
 40
0
 40
0
 40
0
 40
1
 40
1
 40
1
 40
1
 10
8.397875
 20
15.221479
 30
0.0
 10
7.503583
 20
14.776979
 30
0.0
 10
7.006167
 20
14.263688
 30
0.0
 10
7.006167
 20
14.263688
 30
0.0
  0
LWPOLYLINE
  5
190
100
AcDbEntity
  8
0
 62
7
100
AcDbPolyline
 90
2
 70
0
 10
10.361083
 20
14.496521
 30
0.0
 10
10.321396
 20
15.668625
 30
0.0
  0
LWPOLYLINE
  5
191
100
AcDbEntity
  8
0
 62
7
100
AcDbPolyline
 90
2
 70
0
 10
7.006167
 20
14.263688
 30
0.0
 10
7.006167
 20
14.261042
 30
0.0
  0
SPLINE
  5
192
100
AcDbEntity
  8
0
 62
7
100
AcDbSpline
 70
8
 71
3
 72
8
 73
4
 74
0
 40
0
 40
0
 40
0
 40
0
 40
1
 40
1
 40
1
 40
1
 10
7.622646
 20
7.585604
 30
0.0
 10
7.622646
 20
7.585604
 30
0.0
 10
7.233708
 20
7.990417
 30
0.0
 10
6.884458
 20
8.630708
 30
0.0
  0
SPLINE
  5
193
100
AcDbEntity
  8
0
 62
7
100
AcDbSpline
 70
8
 71
3
 72
8
 73
4
 74
0
 40
0
 40
0
 40
0
 40
0
 40
1
 40
1
 40
1
 40
1
 10
6.884458
 20
8.630708
 30
0.0
 10
6.596063
 20
9.157229
 30
0.0
 10
6.524625
 20
9.977438
 30
0.0
 10
6.524625
 20
9.977438
 30
0.0
  0
LWPOLYLINE
  5
194
100
AcDbEntity
  8
0
 62
7
100
AcDbPolyline
 90
2
 70
0
 10
6.768042
 20
6.746875
 30
0.0
 10
7.622646
 20
7.585604
 30
0.0
  0
SPLINE
  5
195
100
AcDbEntity
  8
0
 62
7
100
AcDbSpline
 70
8
 71
3
 72
8
 73
4
 74
0
 40
0
 40
0
 40
0
 40
0
 40
1
 40
1
 40
1
 40
1
 10
5.307542
 20
9.937750
 30
0.0
 10
5.307542
 20
9.937750
 30
0.0
 10
5.302250
 20
8.964083
 30
0.0
 10
5.773208
 20
8.085667
 30
0.0
  0
SPLINE
  5
196
100
AcDbEntity
  8
0
 62
7
100
AcDbSpline
 70
8
 71
3
 72
8
 73
4
 74
0
 40
0
 40
0
 40
0
 40
0
 40
1
 40
1
 40
1
 40
1
 10
5.773208
 20
8.085667
 30
0.0
 10
6.236229
 20
7.223125
 30
0.0
 10
6.768042
 20
6.744229
 30
0.0
 10
6.768042
 20
6.744229
 30
0.0
  0
LWPOLYLINE
  5
197
100
AcDbEntity
  8
0
 62
7
100
AcDbPolyline
 90
2
 70
0
 10
6.524625
 20
9.977438
 30
0.0
 10
5.307542
 20
9.937750
 30
0.0
  0
SPLINE
  5
198
100
AcDbEntity
  8
0
 62
7
100
AcDbSpline
 70
8
 71
3
 72
8
 73
4
 74
0
 40
0
 40
0
 40
0
 40
0
 40
1
 40
1
 40
1
 40
1
 10
7.622646
 20
7.585604
 30
0.0
 10
7.622646
 20
7.585604
 30
0.0
 10
7.233708
 20
7.990417
 30
0.0
 10
6.884458
 20
8.630708
 30
0.0
  0
SPLINE
  5
199
100
AcDbEntity
  8
0
 62
7
100
AcDbSpline
 70
8
 71
3
 72
8
 73
4
 74
0
 40
0
 40
0
 40
0
 40
0
 40
1
 40
1
 40
1
 40
1
 10
6.884458
 20
8.630708
 30
0.0
 10
6.596063
 20
9.157229
 30
0.0
 10
6.524625
 20
9.977438
 30
0.0
 10
6.524625
 20
9.977438
 30
0.0
  0
LWPOLYLINE
  5
19a
100
AcDbEntity
  8
0
 62
7
100
AcDbPolyline
 90
3
 70
0
 10
6.768042
 20
6.744229
 30
0.0
 10
6.768042
 20
6.746875
 30
0.0
 10
7.622646
 20
7.585604
 30
0.0
  0
SPLINE
  5
19b
100
AcDbEntity
  8
0
 62
7
100
AcDbSpline
 70
8
 71
3
 72
8
 73
4
 74
0
 40
0
 40
0
 40
0
 40
0
 40
1
 40
1
 40
1
 40
1
 10
5.307542
 20
9.937750
 30
0.0
 10
5.307542
 20
9.937750
 30
0.0
 10
5.302250
 20
8.964083
 30
0.0
 10
5.773208
 20
8.085667
 30
0.0
  0
SPLINE
  5
19c
100
AcDbEntity
  8
0
 62
7
100
AcDbSpline
 70
8
 71
3
 72
8
 73
4
 74
0
 40
0
 40
0
 40
0
 40
0
 40
1
 40
1
 40
1
 40
1
 10
5.773208
 20
8.085667
 30
0.0
 10
6.236229
 20
7.223125
 30
0.0
 10
6.768042
 20
6.744229
 30
0.0
 10
6.768042
 20
6.744229
 30
0.0
  0
LWPOLYLINE
  5
19d
100
AcDbEntity
  8
0
 62
7
100
AcDbPolyline
 90
2
 70
0
 10
6.524625
 20
9.977438
 30
0.0
 10
5.307542
 20
9.937750
 30
0.0
  0
LWPOLYLINE
  5
19e
100
AcDbEntity
  8
0
 62
7
100
AcDbPolyline
 90
2
 70
0
 10
6.768042
 20
6.744229
 30
0.0
 10
6.768042
 20
6.746875
 30
0.0
  0
SPLINE
  5
19f
100
AcDbEntity
  8
0
 62
7
100
AcDbSpline
 70
8
 71
3
 72
8
 73
4
 74
0
 40
0
 40
0
 40
0
 40
0
 40
1
 40
1
 40
1
 40
1
 10
13.673667
 20
7.318375
 30
0.0
 10
13.673667
 20
7.318375
 30
0.0
 10
13.252979
 20
6.945313
 30
0.0
 10
12.588875
 20
6.606646
 30
0.0
  0
SPLINE
  5
1a0
100
AcDbEntity
  8
0
 62
7
100
AcDbSpline
 70
8
 71
3
 72
8
 73
4
 74
0
 40
0
 40
0
 40
0
 40
0
 40
1
 40
1
 40
1
 40
1
 10
12.588875
 20
6.606646
 30
0.0
 10
12.043833
 20
6.328833
 30
0.0
 10
11.189229
 20
6.260042
 30
0.0
 10
11.189229
 20
6.260042
 30
0.0
  0
LWPOLYLINE
  5
1a1
100
AcDbEntity
  8
0
 62
7
100
AcDbPolyline
 90
2
 70
0
 10
14.544146
 20
6.495521
 30
0.0
 10
13.673667
 20
7.318375
 30
0.0
  0
SPLINE
  5
1a2
100
AcDbEntity
  8
0
 62
7
100
AcDbSpline
 70
8
 71
3
 72
8
 73
4
 74
0
 40
0
 40
0
 40
0
 40
0
 40
1
 40
1
 40
1
 40
1
 10
11.228917
 20
5.087938
 30
0.0
 10
11.228917
 20
5.087938
 30
0.0
 10
12.239625
 20
5.082646
 30
0.0
 10
13.149792
 20
5.537729
 30
0.0
  0
SPLINE
  5
1a3
100
AcDbEntity
  8
0
 62
7
100
AcDbSpline
 70
8
 71
3
 72
8
 73
4
 74
0
 40
0
 40
0
 40
0
 40
0
 40
1
 40
1
 40
1
 40
1
 10
13.149792
 20
5.537729
 30
0.0
 10
14.044083
 20
5.982229
 30
0.0
 10
14.541500
 20
6.495521
 30
0.0
 10
14.541500
 20
6.495521
 30
0.0
  0
LWPOLYLINE
  5
1a4
100
AcDbEntity
  8
0
 62
7
100
AcDbPolyline
 90
2
 70
0
 10
11.189229
 20
6.260042
 30
0.0
 10
11.228917
 20
5.087938
 30
0.0
  0
LWPOLYLINE
  5
1a5
100
AcDbEntity
  8
0
 62
7
100
AcDbPolyline
 90
2
 70
0
 10
14.541500
 20
6.495521
 30
0.0
 10
14.544146
 20
6.495521
 30
0.0
  0
SPLINE
  5
1a6
100
AcDbEntity
  8
0
 62
7
100
AcDbSpline
 70
8
 71
3
 72
8
 73
4
 74
0
 40
0
 40
0
 40
0
 40
0
 40
1
 40
1
 40
1
 40
1
 10
13.927667
 20
13.221229
 30
0.0
 10
13.927667
 20
13.221229
 30
0.0
 10
14.321896
 20
12.821708
 30
0.0
 10
14.684375
 20
12.189354
 30
0.0
  0
SPLINE
  5
1a7
100
AcDbEntity
  8
0
 62
7
100
AcDbSpline
 70
8
 71
3
 72
8
 73
4
 74
0
 40
0
 40
0
 40
0
 40
0
 40
1
 40
1
 40
1
 40
1
 10
14.684375
 20
12.189354
 30
0.0
 10
14.983354
 20
11.668125
 30
0.0
 10
15.068021
 20
10.847917
 30
0.0
 10
15.068021
 20
10.847917
 30
0.0
  0
LWPOLYLINE
  5
1a8
100
AcDbEntity
  8
0
 62
7
100
AcDbPolyline
 90
2
 70
0
 10
14.766396
 20
14.073188
 30
0.0
 10
13.927667
 20
13.221229
 30
0.0
  0
SPLINE
  5
1a9
100
AcDbEntity
  8
0
 62
7
100
AcDbSpline
 70
8
 71
3
 72
8
 73
4
 74
0
 40
0
 40
0
 40
0
 40
0
 40
1
 40
1
 40
1
 40
1
 10
16.282458
 20
10.908771
 30
0.0
 10
16.282458
 20
10.908771
 30
0.0
 10
16.269229
 20
11.882438
 30
0.0
 10
15.782396
 20
12.752917
 30
0.0
  0
SPLINE
  5
1aa
100
AcDbEntity
  8
0
 62
7
100
AcDbSpline
 70
8
 71
3
 72
8
 73
4
 74
0
 40
0
 40
0
 40
0
 40
0
 40
1
 40
1
 40
1
 40
1
 10
15.782396
 20
12.752917
 30
0.0
 10
15.303500
 20
13.607521
 30
0.0
 10
14.763750
 20
14.075833
 30
0.0
 10
14.763750
 20
14.075833
 30
0.0
  0
LWPOLYLINE
  5
1ab
100
AcDbEntity
  8
0
 62
7
100
AcDbPolyline
 90
2
 70
0
 10
15.068021
 20
10.847917
 30
0.0
 10
16.282458
 20
10.908771
 30
0.0
  0
SPLINE
  5
1ac
100
AcDbEntity
  8
0
 62
7
100
AcDbSpline
 70
8
 71
3
 72
8
 73
4
 74
0
 40
0
 40
0
 40
0
 40
0
 40
1
 40
1
 40
1
 40
1
 10
10.162646
 20
13.472583
 30
0.0
 10
9.564687
 20
13.377333
 30
0.0
 10
8.990542
 20
13.123333
 30
0.0
 10
8.538104
 20
12.686771
 30
0.0
  0
LWPOLYLINE
  5
1ad
100
AcDbEntity
  8
0
 62
7
100
AcDbPolyline
 90
2
 70
0
 10
14.763750
 20
14.075833
 30
0.0
 10
14.766396
 20
14.073188
 30
0.0
  0
SPLINE
  5
1ae
100
AcDbEntity
  8
0
 62
7
100
AcDbSpline
 70
8
 71
3
 72
8
 73
4
 74
0
 40
0
 40
0
 40
0
 40
0
 40
1
 40
1
 40
1
 40
1
 10
8.210021
 20
13.001625
 30
0.0
 10
8.733896
 20
13.506979
 30
0.0
 10
9.384771
 20
13.803313
 30
0.0
 10
10.072688
 20
13.911792
 30
0.0
  0
LWPOLYLINE
  5
1af
100
AcDbEntity
  8
0
 62
7
100
AcDbPolyline
 90
2
 70
0
 10
8.538104
 20
12.686771
 30
0.0
 10
8.210021
 20
13.001625
 30
0.0
  0
SPLINE
  5
1b0
100
AcDbEntity
  8
0
 62
7
100
AcDbSpline
 70
8
 71
3
 72
8
 73
4
 74
0
 40
0
 40
0
 40
0
 40
0
 40
1
 40
1
 40
1
 40
1
 10
10.162646
 20
13.472583
 30
0.0
 10
9.564687
 20
13.377333
 30
0.0
 10
8.990542
 20
13.123333
 30
0.0
 10
8.538104
 20
12.686771
 30
0.0
  0
LWPOLYLINE
  5
1b1
100
AcDbEntity
  8
0
 62
7
100
AcDbPolyline
 90
3
 70
0
 10
10.072688
 20
13.911792
 30
0.0
 10
10.160000
 20
13.472583
 30
0.0
 10
10.162646
 20
13.472583
 30
0.0
  0
SPLINE
  5
1b2
100
AcDbEntity
  8
0
 62
7
100
AcDbSpline
 70
8
 71
3
 72
8
 73
4
 74
0
 40
0
 40
0
 40
0
 40
0
 40
1
 40
1
 40
1
 40
1
 10
8.210021
 20
13.001625
 30
0.0
 10
8.733896
 20
13.506979
 30
0.0
 10
9.384771
 20
13.803313
 30
0.0
 10
10.072688
 20
13.911792
 30
0.0
  0
LWPOLYLINE
  5
1b3
100
AcDbEntity
  8
0
 62
7
100
AcDbPolyline
 90
2
 70
0
 10
8.538104
 20
12.686771
 30
0.0
 10
8.210021
 20
13.001625
 30
0.0
  0
SPLINE
  5
1b4
100
AcDbEntity
  8
0
 62
7
100
AcDbSpline
 70
8
 71
3
 72
8
 73
4
 74
0
 40
0
 40
0
 40
0
 40
0
 40
1
 40
1
 40
1
 40
1
 10
7.516813
 20
10.747375
 30
0.0
 10
7.424208
 20
10.170583
 30
0.0
 10
7.498292
 20
9.567333
 30
0.0
 10
7.789333
 20
9.017000
 30
0.0
  0
LWPOLYLINE
  5
1b5
100
AcDbEntity
  8
0
 62
7
100
AcDbPolyline
 90
3
 70
0
 10
10.072688
 20
13.911792
 30
0.0
 10
10.160000
 20
13.472583
 30
0.0
 10
10.162646
 20
13.472583
 30
0.0
  0
SPLINE
  5
1b6
100
AcDbEntity
  8
0
 62
7
100
AcDbSpline
 70
8
 71
3
 72
8
 73
4
 74
0
 40
0
 40
0
 40
0
 40
0
 40
1
 40
1
 40
1
 40
1
 10
7.376583
 20
8.813271
 30
0.0
 10
7.040563
 20
9.450917
 30
0.0
 10
6.947958
 20
10.136188
 30
0.0
 10
7.053792
 20
10.800292
 30
0.0
  0
LWPOLYLINE
  5
1b7
100
AcDbEntity
  8
0
 62
7
100
AcDbPolyline
 90
2
 70
0
 10
7.789333
 20
9.017000
 30
0.0
 10
7.376583
 20
8.813271
 30
0.0
  0
SPLINE
  5
1b8
100
AcDbEntity
  8
0
 62
7
100
AcDbSpline
 70
8
 71
3
 72
8
 73
4
 74
0
 40
0
 40
0
 40
0
 40
0
 40
1
 40
1
 40
1
 40
1
 10
7.516813
 20
10.747375
 30
0.0
 10
7.424208
 20
10.170583
 30
0.0
 10
7.498292
 20
9.567333
 30
0.0
 10
7.789333
 20
9.017000
 30
0.0
  0
LWPOLYLINE
  5
1b9
100
AcDbEntity
  8
0
 62
7
100
AcDbPolyline
 90
3
 70
0
 10
7.053792
 20
10.800292
 30
0.0
 10
7.514167
 20
10.744729
 30
0.0
 10
7.516813
 20
10.747375
 30
0.0
  0
SPLINE
  5
1ba
100
AcDbEntity
  8
0
 62
7
100
AcDbSpline
 70
8
 71
3
 72
8
 73
4
 74
0
 40
0
 40
0
 40
0
 40
0
 40
1
 40
1
 40
1
 40
1
 10
7.376583
 20
8.813271
 30
0.0
 10
7.040563
 20
9.450917
 30
0.0
 10
6.947958
 20
10.136188
 30
0.0
 10
7.053792
 20
10.800292
 30
0.0
  0
LWPOLYLINE
  5
1bb
100
AcDbEntity
  8
0
 62
7
100
AcDbPolyline
 90
2
 70
0
 10
7.789333
 20
9.017000
 30
0.0
 10
7.376583
 20
8.813271
 30
0.0
  0
SPLINE
  5
1bc
100
AcDbEntity
  8
0
 62
7
100
AcDbSpline
 70
8
 71
3
 72
8
 73
4
 74
0
 40
0
 40
0
 40
0
 40
0
 40
1
 40
1
 40
1
 40
1
 10
8.964083
 20
7.749646
 30
0.0
 10
9.453563
 20
7.410979
 30
0.0
 10
10.046229
 20
7.199313
 30
0.0
 10
10.689167
 20
7.199313
 30
0.0
  0
LWPOLYLINE
  5
1bd
100
AcDbEntity
  8
0
 62
7
100
AcDbPolyline
 90
3
 70
0
 10
7.053792
 20
10.800292
 30
0.0
 10
7.514167
 20
10.744729
 30
0.0
 10
7.516813
 20
10.747375
 30
0.0
  0
SPLINE
  5
1be
100
AcDbEntity
  8
0
 62
7
100
AcDbSpline
 70
8
 71
3
 72
8
 73
4
 74
0
 40
0
 40
0
 40
0
 40
0
 40
1
 40
1
 40
1
 40
1
 10
10.689167
 20
6.752167
 30
0.0
 10
9.948333
 20
6.752167
 30
0.0
 10
9.271000
 20
6.985000
 30
0.0
 10
8.704792
 20
7.379229
 30
0.0
  0
LWPOLYLINE
  5
1bf
100
AcDbEntity
  8
0
 62
7
100
AcDbPolyline
 90
2
 70
0
 10
10.689167
 20
7.199313
 30
0.0
 10
10.689167
 20
6.752167
 30
0.0
  0
SPLINE
  5
1c0
100
AcDbEntity
  8
0
 62
7
100
AcDbSpline
 70
8
 71
3
 72
8
 73
4
 74
0
 40
0
 40
0
 40
0
 40
0
 40
1
 40
1
 40
1
 40
1
 10
8.964083
 20
7.749646
 30
0.0
 10
9.453563
 20
7.410979
 30
0.0
 10
10.046229
 20
7.199313
 30
0.0
 10
10.689167
 20
7.199313
 30
0.0
  0
LWPOLYLINE
  5
1c1
100
AcDbEntity
  8
0
 62
7
100
AcDbPolyline
 90
3
 70
0
 10
8.704792
 20
7.379229
 30
0.0
 10
8.966729
 20
7.749646
 30
0.0
 10
8.964083
 20
7.749646
 30
0.0
  0
SPLINE
  5
1c2
100
AcDbEntity
  8
0
 62
7
100
AcDbSpline
 70
8
 71
3
 72
8
 73
4
 74
0
 40
0
 40
0
 40
0
 40
0
 40
1
 40
1
 40
1
 40
1
 10
10.689167
 20
6.752167
 30
0.0
 10
9.948333
 20
6.752167
 30
0.0
 10
9.271000
 20
6.985000
 30
0.0
 10
8.704792
 20
7.379229
 30
0.0
  0
LWPOLYLINE
  5
1c3
100
AcDbEntity
  8
0
 62
7
100
AcDbPolyline
 90
2
 70
0
 10
10.689167
 20
7.199313
 30
0.0
 10
10.689167
 20
6.752167
 30
0.0
  0
SPLINE
  5
1c4
100
AcDbEntity
  8
0
 62
7
100
AcDbSpline
 70
8
 71
3
 72
8
 73
4
 74
0
 40
0
 40
0
 40
0
 40
0
 40
1
 40
1
 40
1
 40
1
 10
13.202708
 20
8.233833
 30
0.0
 10
13.628687
 20
8.646583
 30
0.0
 10
13.938250
 20
9.178396
 30
0.0
 10
14.038792
 20
9.786938
 30
0.0
  0
LWPOLYLINE
  5
1c5
100
AcDbEntity
  8
0
 62
7
100
AcDbPolyline
 90
3
 70
0
 10
8.704792
 20
7.379229
 30
0.0
 10
8.966729
 20
7.749646
 30
0.0
 10
8.964083
 20
7.749646
 30
0.0
  0
SPLINE
  5
1c6
100
AcDbEntity
  8
0
 62
7
100
AcDbSpline
 70
8
 71
3
 72
8
 73
4
 74
0
 40
0
 40
0
 40
0
 40
0
 40
1
 40
1
 40
1
 40
1
 10
14.496521
 20
9.718146
 30
0.0
 10
14.380104
 20
9.011708
 30
0.0
 10
14.036146
 20
8.405813
 30
0.0
 10
13.544021
 20
7.926917
 30
0.0
  0
LWPOLYLINE
  5
1c7
100
AcDbEntity
  8
0
 62
7
100
AcDbPolyline
 90
2
 70
0
 10
14.038792
 20
9.786938
 30
0.0
 10
14.496521
 20
9.718146
 30
0.0
  0
SPLINE
  5
1c8
100
AcDbEntity
  8
0
 62
7
100
AcDbSpline
 70
8
 71
3
 72
8
 73
4
 74
0
 40
0
 40
0
 40
0
 40
0
 40
1
 40
1
 40
1
 40
1
 10
13.202708
 20
8.233833
 30
0.0
 10
13.628687
 20
8.646583
 30
0.0
 10
13.938250
 20
9.178396
 30
0.0
 10
14.038792
 20
9.786938
 30
0.0
  0
LWPOLYLINE
  5
1c9
100
AcDbEntity
  8
0
 62
7
100
AcDbPolyline
 90
3
 70
0
 10
13.544021
 20
7.926917
 30
0.0
 10
13.205354
 20
8.233833
 30
0.0
 10
13.202708
 20
8.233833
 30
0.0
  0
SPLINE
  5
1ca
100
AcDbEntity
  8
0
 62
7
100
AcDbSpline
 70
8
 71
3
 72
8
 73
4
 74
0
 40
0
 40
0
 40
0
 40
0
 40
1
 40
1
 40
1
 40
1
 10
14.496521
 20
9.718146
 30
0.0
 10
14.380104
 20
9.011708
 30
0.0
 10
14.036146
 20
8.405813
 30
0.0
 10
13.544021
 20
7.926917
 30
0.0
  0
LWPOLYLINE
  5
1cb
100
AcDbEntity
  8
0
 62
7
100
AcDbPolyline
 90
2
 70
0
 10
14.038792
 20
9.786938
 30
0.0
 10
14.496521
 20
9.718146
 30
0.0
  0
SPLINE
  5
1cc
100
AcDbEntity
  8
0
 62
7
100
AcDbSpline
 70
8
 71
3
 72
8
 73
4
 74
0
 40
0
 40
0
 40
0
 40
0
 40
1
 40
1
 40
1
 40
1
 10
13.660438
 20
11.895667
 30
0.0
 10
13.393208
 20
12.416896
 30
0.0
 10
12.972521
 20
12.871979
 30
0.0
 10
12.406313
 20
13.163021
 30
0.0
  0
LWPOLYLINE
  5
1cd
100
AcDbEntity
  8
0
 62
7
100
AcDbPolyline
 90
3
 70
0
 10
13.544021
 20
7.926917
 30
0.0
 10
13.205354
 20
8.233833
 30
0.0
 10
13.202708
 20
8.233833
 30
0.0
  0
SPLINE
  5
1ce
100
AcDbEntity
  8
0
 62
7
100
AcDbSpline
 70
8
 71
3
 72
8
 73
4
 74
0
 40
0
 40
0
 40
0
 40
0
 40
1
 40
1
 40
1
 40
1
 10
12.623271
 20
13.557250
 30
0.0
 10
13.276792
 20
13.221229
 30
0.0
 10
13.760979
 20
12.710583
 30
0.0
 10
14.070542
 20
12.107333
 30
0.0
  0
LWPOLYLINE
  5
1cf
100
AcDbEntity
  8
0
 62
7
100
AcDbPolyline
 90
2
 70
0
 10
12.406313
 20
13.163021
 30
0.0
 10
12.623271
 20
13.557250
 30
0.0
  0
SPLINE
  5
1d0
100
AcDbEntity
  8
0
 62
7
100
AcDbSpline
 70
8
 71
3
 72
8
 73
4
 74
0
 40
0
 40
0
 40
0
 40
0
 40
1
 40
1
 40
1
 40
1
 10
13.660438
 20
11.895667
 30
0.0
 10
13.393208
 20
12.416896
 30
0.0
 10
12.972521
 20
12.871979
 30
0.0
 10
12.406313
 20
13.163021
 30
0.0
  0
LWPOLYLINE
  5
1d1
100
AcDbEntity
  8
0
 62
7
100
AcDbPolyline
 90
3
 70
0
 10
14.070542
 20
12.107333
 30
0.0
 10
13.660438
 20
11.898313
 30
0.0
 10
13.660438
 20
11.895667
 30
0.0
  0
SPLINE
  5
1d2
100
AcDbEntity
  8
0
 62
7
100
AcDbSpline
 70
8
 71
3
 72
8
 73
4
 74
0
 40
0
 40
0
 40
0
 40
0
 40
1
 40
1
 40
1
 40
1
 10
12.623271
 20
13.557250
 30
0.0
 10
13.276792
 20
13.221229
 30
0.0
 10
13.760979
 20
12.710583
 30
0.0
 10
14.070542
 20
12.107333
 30
0.0
  0
LWPOLYLINE
  5
1d3
100
AcDbEntity
  8
0
 62
7
100
AcDbPolyline
 90
2
 70
0
 10
12.406313
 20
13.163021
 30
0.0
 10
12.623271
 20
13.557250
 30
0.0
  0
LWPOLYLINE
  5
1d4
100
AcDbEntity
  8
0
 62
7
100
AcDbPolyline
 90
3
 70
0
 10
14.070542
 20
12.107333
 30
0.0
 10
13.660438
 20
11.898313
 30
0.0
 10
13.660438
 20
11.895667
 30
0.0
  0
ENDSEC
  0
SECTION
  2
OBJECTS
  0
DICTIONARY
  5
C
330
0
100
AcDbDictionary
  3
ACAD_GROUP
350
D
  3
ACAD_MLINESTYLE
350
17
  0
DICTIONARY
  5
D
330
C
100
AcDbDictionary
  0
DICTIONARY
  5
1A
330
C
100
AcDbDictionary
  0
DICTIONARY
  5
17
330
C
100
AcDbDictionary
  3
STANDARD
350
18
  0
DICTIONARY
  5
19
330
C
100
AcDbDictionary
  0
ENDSEC
  0
EOF
