<?xml version="1.0" encoding="UTF-8" standalone="no"?>
<!-- Created with Inkscape (http://www.inkscape.org/) -->
<svg
   xmlns:dc="http://purl.org/dc/elements/1.1/"
   xmlns:cc="http://creativecommons.org/ns#"
   xmlns:rdf="http://www.w3.org/1999/02/22-rdf-syntax-ns#"
   xmlns:svg="http://www.w3.org/2000/svg"
   xmlns="http://www.w3.org/2000/svg"
   xmlns:sodipodi="http://sodipodi.sourceforge.net/DTD/sodipodi-0.dtd"
   xmlns:inkscape="http://www.inkscape.org/namespaces/inkscape"
   width="1133.8583"
   height="1393.1942"
   id="svg3514"
   sodipodi:version="0.32"
   inkscape:version="0.46"
   version="1.0"
   sodipodi:docname="c-base-logo-plott.svg"
   inkscape:output_extension="org.inkscape.output.svg.inkscape">
  <defs
     id="defs3516">
    <inkscape:perspective
       sodipodi:type="inkscape:persp3d"
       inkscape:vp_x="0 : 526.18109 : 1"
       inkscape:vp_y="0 : 1000 : 0"
       inkscape:vp_z="744.09448 : 526.18109 : 1"
       inkscape:persp3d-origin="372.04724 : 350.78739 : 1"
       id="perspective3522" />
  </defs>
  <sodipodi:namedview
     id="base"
     pagecolor="#ffffff"
     bordercolor="#666666"
     borderopacity="1.0"
     inkscape:pageopacity="0.0"
     inkscape:pageshadow="2"
     inkscape:zoom="0.39262293"
     inkscape:cx="566.92914"
     inkscape:cy="696.59711"
     inkscape:document-units="px"
     inkscape:current-layer="layer1"
     showgrid="false"
     inkscape:window-width="1276"
     inkscape:window-height="756"
     inkscape:window-x="4"
     inkscape:window-y="22" />
  <metadata
     id="metadata3519">
    <rdf:RDF>
      <cc:Work
         rdf:about="">
        <dc:format>image/svg+xml</dc:format>
        <dc:type
           rdf:resource="http://purl.org/dc/dcmitype/StillImage" />
      </cc:Work>
    </rdf:RDF>
  </metadata>
  <g
     inkscape:label="Ebene 1"
     inkscape:groupmode="layer"
     id="layer1"
     transform="translate(-490.21372,124.2349)">
    <path
       id="path4501"
       style="fill:#000000;fill-opacity:1;fill-rule:evenodd;stroke:none;stroke-opacity:1"
       d="M 1455.8177,572.94957 C 1455.8177,715.59618 1337.5271,833.00569 1193.8036,833.00569 C 1050.0731,833.00569 931.78248,715.59618 931.78248,572.94957 C 931.78248,430.28899 1050.0731,312.8795 1193.8036,312.8795 C 1337.5271,312.8795 1455.8177,430.28899 1455.8177,572.94957 zM 1192.0575,-124.2349 C 807.07455,-124.2349 490.21372,190.24998 490.21372,572.35885 C 490.21372,954.4747 807.07457,1268.9526 1192.0575,1268.9526 C 1351.2491,1268.9526 1498.9021,1215.2042 1617.2137,1125.1089 L 1567.8699,1058.5151 C 1567.976,1058.434 1568.0764,1058.3462 1568.1825,1058.2651 L 1534.5262,1013.4213 C 1439.6531,1086.2378 1320.8966,1129.798 1192.87,1129.8901 L 1192.9012,958.1401 C 1406.0725,958.1057 1581.4949,783.95094 1581.4949,572.35885 C 1581.495,464.87105 1536.2121,367.0414 1463.7137,296.79635 L 1588.6512,174.79635 C 1588.5985,174.74467 1588.5476,174.69176 1588.4949,174.6401 L 1626.4949,137.2651 C 1514.5272,27.2153 1360.8929,-41.14115 1192.4637,-41.14115 C 1192.3282,-41.14115 1192.193,-41.141239 1192.0575,-41.14115 L 1192.0575,-124.2349 zM 915.9787,283.29286 L 864.71431,231.00053 C 864.71431,231.00053 897.14703,196.16927 941.4186,170.85525 C 985.69715,145.53424 1020.2767,132.54856 1020.2767,132.54856 L 1006.5008,101.00394 C 1006.5008,101.00394 964.71168,118.23427 922.70581,142.98885 C 888.56683,163.10021 840.72892,208.08504 840.72892,208.08504 L 813.40797,182.79201 C 813.40797,182.79201 907.49641,87.263048 1031.1505,51.858448 C 1148.3502,18.299888 1249.2077,31.593128 1249.2077,31.593128 L 1232.9704,175.33066 C 1232.9704,175.33066 1146.7908,166.30292 1059.9609,194.9735 C 976.68339,222.46929 915.9787,283.29286 915.9787,283.29286M 1297.0176,183.62414 C 1297.0176,183.62414 1319.6115,190.70787 1341.464,197.55385 C 1363.6872,204.5187 1387.0852,220.77701 1387.0852,220.77701 L 1456.0974,100.03194 C 1456.0974,100.03194 1429.196,83.773618 1397.6094,71.004728 C 1366.0298,58.235898 1335.618,52.431788 1335.618,52.431788 L 1297.0176,183.62414M 1399.7562,228.34325 C 1399.7562,228.34325 1417.8117,238.7276 1428.6086,246.31481 C 1442.6432,256.18867 1462.4469,276.9224 1462.4469,276.9224 L 1561.3743,177.2397 C 1561.3743,177.2397 1543.5147,158.79263 1516.3406,138.34561 C 1489.1595,117.8986 1471.2508,109.79392 1471.2508,109.79392 L 1399.7562,228.34325M 1445.8739,833.66301 L 1383.9175,771.03529 C 1383.9175,771.03529 1352.9532,798.39121 1304.2972,822.84512 C 1264.3542,842.92151 1202.3908,846.96335 1202.3908,846.96335 L 1203.7963,934.5205 C 1203.7963,934.5205 1277.0601,936.11486 1343.7227,903.4304 C 1409.2385,871.30538 1445.8739,833.66301 1445.8739,833.66301M 1141.8329,10.474838 L 1122.0502,12.537658 L 1118.2671,-23.258482 L 1138.0498,-25.321462 L 1141.8329,10.474838M 1307.0803,-17.188802 L 1326.5343,-13.090972 L 1318.9891,22.117918 L 1299.5421,18.013048 L 1307.0803,-17.188802M 1340.1144,-9.7903224 L 1359.3237,-4.6855424 L 1349.9393,30.082708 L 1330.73,24.971048 L 1340.1144,-9.7903224M 1370.8059,-1.0913424 L 1389.7215,5.0064776 L 1378.519,39.236388 L 1359.6034,33.138568 L 1370.8059,-1.0913424M 604.51136,428.51981 L 609.65808,409.45038 L 644.68514,418.77181 L 639.53842,437.83426 L 604.51136,428.51981M 969.43884,53.417798 L 951.27149,61.452448 L 936.5306,28.565248 L 954.69797,20.537458 L 969.43884,53.417798M 907.86004,42.963448 L 925.57985,33.998748 L 942.04096,66.067828 L 924.32115,75.025658 L 907.86004,42.963448M 879.92371,58.347658 L 897.14003,48.480888 L 915.27242,79.647908 L 898.0561,89.521728 L 879.92371,58.347658M 853.61671,75.571018 L 870.29459,64.823128 L 890.04232,95.004088 L 873.36444,105.75907 L 853.61671,75.571018M 827.64537,93.710418 L 843.72885,82.109338 L 865.04298,111.22745 L 848.95949,122.82853 L 827.64537,93.710418M 802.47119,113.24837 L 817.92534,100.82912 L 840.74291,128.80041 L 825.29577,141.21967 L 802.47119,113.24837M 779.20607,134.34572 L 793.98191,121.13627 L 818.24701,147.88383 L 803.46417,161.09327 L 779.20607,134.34572M 756.82904,155.9885 L 770.88461,142.03083 L 796.52729,167.47771 L 782.46473,181.43539 L 756.82904,155.9885M 735.04639,179.1907 L 748.35374,164.52675 L 775.29708,188.61003 L 761.98975,203.27398 L 735.04639,179.1907M 715.38956,203.64459 L 727.89973,188.30235 L 756.08081,210.9521 L 743.57065,226.28737 L 715.38956,203.64459M 696.18028,229.25931 L 707.87228,213.29469 L 737.20718,234.44798 L 725.51517,250.41959 L 696.18028,229.25931M 719.56428,258.61519 L 708.7324,275.17418 L 678.32761,255.55932 L 689.15949,239.0073 L 719.56428,258.61519M 662.76158,282.7614 L 672.70538,265.67094 L 704.11014,283.66347 L 694.16635,300.75393 L 662.76158,282.7614M 647.91582,310.6278 L 656.94355,293.04085 L 689.25738,309.38309 L 680.22965,326.96303 L 647.91582,310.6278M 634.42665,339.3753 L 642.51735,321.34781 L 675.64237,335.98378 L 667.55167,354.01828 L 634.42665,339.3753M 623.34304,368.66125 L 630.46872,350.23515 L 664.32097,363.12991 L 657.19529,381.55602 L 623.34304,368.66125M 613.30834,398.02411 L 619.45502,379.25536 L 653.93664,390.37396 L 647.78995,409.14968 L 613.30834,398.02411M 625.57374,623.35384 L 627.64362,642.98271 L 591.58863,646.73784 L 589.51176,627.109 L 625.57374,623.35384M 588.07124,615.65475 L 587.02931,595.94198 L 623.24514,594.06091 L 624.28007,613.77368 L 588.07124,615.65475M 954.32035,1125.3756 L 936.153,1117.3479 L 950.90086,1084.4746 L 969.06822,1092.4954 L 954.32035,1125.3756M 643.97187,824.78912 L 635.88117,806.75462 L 669.00617,792.11865 L 677.09687,810.15313 L 643.97187,824.78912M 657.95751,853.08907 L 648.92978,835.50212 L 681.24361,819.1599 L 690.27135,836.74684 L 657.95751,853.08907M 673.46061,880.81562 L 663.52379,863.72516 L 694.92158,845.72563 L 704.86537,862.82308 L 673.46061,880.81562M 690.81678,906.92681 L 679.9849,890.37481 L 710.39669,870.77392 L 721.22858,887.32594 L 690.81678,906.92681M 708.85128,932.24784 L 697.16627,916.28322 L 726.50116,895.12992 L 738.18616,911.09454 L 708.85128,932.24784M 728.53607,957.23319 L 716.01892,941.89793 L 744.2,919.24118 L 756.71715,934.58344 L 728.53607,957.23319M 749.78726,980.33048 L 736.48691,965.65955 L 763.43027,941.57626 L 776.7376,956.2472 L 749.78726,980.33048M 770.37413,1004.3438 L 756.31856,990.38617 L 781.95425,964.93928 L 796.01681,978.89696 L 770.37413,1004.3438M 793.75813,1025.9587 L 778.9823,1012.7562 L 803.24041,986.00865 L 818.02324,999.21811 L 793.75813,1025.9587M 818.38686,1045.4756 L 802.93271,1033.0494 L 825.75729,1005.0851 L 841.21144,1017.5043 L 818.38686,1045.4756M 843.79878,1064.3842 L 827.7083,1052.7831 L 849.02242,1023.665 L 865.1129,1035.2661 L 843.79878,1064.3842M 873.36444,1041.175 L 890.03532,1051.93 L 870.29459,1082.104 L 853.62369,1071.3561 L 873.36444,1041.175M 897.69946,1097.5582 L 880.47614,1087.6843 L 898.60853,1056.5173 L 915.83186,1066.3842 L 897.69946,1097.5582M 925.35608,1111.9844 L 907.63626,1103.0266 L 924.09737,1070.9575 L 941.81719,1079.9223 L 925.35608,1111.9844M 1139.1896,1171.4863 L 1119.4139,1169.4164 L 1123.204,1133.6271 L 1142.9797,1135.69 L 1139.1896,1171.4863M 1170.6713,1172.8988 L 1150.8187,1171.8639 L 1152.7138,1135.9208 L 1172.5734,1136.9557 L 1170.6713,1172.8988M 1182.0766,1172.8639 L 1201.9628,1172.8639 L 1201.9628,1136.8726 L 1182.0766,1136.8726 L 1182.0766,1172.8639 zM 1233.8515,1172.1786 L 1213.9919,1173.2065 L 1212.0898,1137.2634 L 1231.9494,1136.2355 L 1233.8515,1172.1786M 1265.1653,1168.6822 L 1245.3896,1170.7451 L 1241.5995,1134.9558 L 1261.3752,1132.8929 L 1265.1653,1168.6822M 1297.1715,1164.3886 L 1277.5356,1167.4724 L 1271.8645,1131.9279 L 1291.5003,1128.8371 L 1297.1715,1164.3886M 1328.5413,1158.3188 L 1309.0873,1162.4236 L 1301.549,1127.2147 L 1320.996,1123.1169 L 1328.5413,1158.3188M 1358.9181,1150.0113 L 1339.7088,1155.1161 L 1330.3245,1120.3548 L 1349.5337,1115.243 L 1358.9181,1150.0113M 1389.267,1140.7249 L 1370.3584,1146.8226 L 1359.1489,1112.5927 L 1378.0645,1106.495 L 1389.267,1140.7249M 1419.2872,1129.865 L 1400.7212,1136.9348 L 1387.7285,1103.3342 L 1406.2945,1096.2575 L 1419.2872,1129.865M 1447.9857,1116.9353 L 1429.8254,1124.963 L 1415.0705,1092.0828 L 1433.2378,1084.055 L 1447.9857,1116.9353M 1476.0059,1103.2154 L 1458.2931,1112.1732 L 1441.825,1080.1041 L 1459.5448,1071.1463 L 1476.0059,1103.2154M 1503.9423,1087.8242 L 1486.7259,1097.698 L 1468.5936,1066.524 L 1485.8169,1056.6571 L 1503.9423,1087.8242M 1530.2563,1070.6008 L 1513.5784,1081.3558 L 1493.8306,1051.1678 L 1510.5015,1040.4198 L 1530.2563,1070.6008M 1390.8963,572.36219 C 1390.8963,680.63206 1301.1224,769.73462 1192.0484,769.73462 C 1082.9673,769.73462 993.19346,680.63206 993.19346,572.36219 C 993.19346,464.09929 1082.9673,374.99674 1192.0484,374.99674 C 1301.1224,374.99674 1390.8963,464.09929 1390.8963,572.36219M 939.50955,309.78866 L 1001.473,372.41638 C 1001.473,372.41638 1032.4372,345.06046 1081.0933,320.60655 C 1121.0363,300.53016 1182.9927,296.48832 1182.9927,296.48832 L 1181.5871,208.93118 C 1181.5871,208.93118 1108.3233,207.33681 1041.6607,240.02127 C 976.14495,272.14629 939.50955,309.78866 939.50955,309.78866M 1457.2442,314.95636 L 1394.141,376.45824 C 1394.141,376.45824 1421.7067,407.19169 1446.3424,455.48414 C 1466.5656,495.12645 1470.6355,556.62833 1470.6355,556.62833 L 1558.8499,555.23676 C 1558.8499,555.23676 1560.4653,482.51839 1527.5291,416.3453 C 1495.1663,351.32603 1457.2442,314.95636 1457.2442,314.95636M 930.7895,829.46033 L 993.89275,767.96543 C 993.89275,767.96543 966.32703,737.23198 941.69131,688.93255 C 921.46108,649.29023 917.39126,587.79534 917.39126,587.79534 L 829.17678,589.18691 C 829.17678,589.18691 827.56843,661.90528 860.49764,728.07837 C 892.86743,793.09764 930.7895,829.46033 930.7895,829.46033M 1304.5,573.39712 C 1304.5,512.74137 1254.2006,462.82659 1193.0903,462.82659 C 1131.98,462.82659 1081.6876,512.74137 1081.6876,573.39712 C 1081.6876,634.05288 1131.98,683.96765 1193.0903,683.96765 C 1254.2006,683.96765 1304.5,634.05288 1304.5,573.39712 zM 1326.2127,572.36219 C 1326.2127,645.41621 1265.6408,705.53351 1192.0484,705.53351 C 1118.4489,705.53351 1057.8771,645.41621 1057.8771,572.36219 C 1057.8771,499.32215 1118.4489,439.19785 1192.0484,439.19785 C 1265.6408,439.19785 1326.2127,499.32215 1326.2127,572.36219M 1181.8319,392.22705 L 1202.4327,392.22705 L 1202.7544,424.25419 L 1181.5312,424.25419 L 1181.8319,392.22705M 1223.5301,394.5207 L 1243.5785,399.25484 L 1236.5157,430.49178 L 1215.8589,425.61079 L 1223.5301,394.5207M 1263.1234,405.87006 L 1281.5425,415.09358 L 1267.466,443.83409 L 1248.4805,434.33084 L 1263.1234,405.87006M 1302.1364,427.49885 L 1317.9332,440.7083 L 1297.7029,465.46289 L 1281.4167,451.84786 L 1302.1364,427.49885M 1331.9958,456.76382 L 1344.3381,473.2599 L 1318.9262,492.69295 L 1306.2132,475.70038 L 1331.9958,456.76382M 1355.121,490.97971 L 1363.3376,509.86033 L 1334.1425,522.89495 L 1325.6812,503.43392 L 1355.121,490.97971M 1370.3863,530.36328 L 1374.0296,550.63549 L 1342.6458,556.59336 L 1338.8837,535.70581 L 1370.3863,530.36328M 1374.8268,572.43911 L 1373.7149,593.00499 L 1341.7857,591.57147 L 1342.9325,570.38321 L 1374.8268,572.43911M 1370.6101,613.27019 L 1364.7991,633.01793 L 1334.0656,624.24892 L 1340.0585,603.88582 L 1370.6101,613.27019M 1355.7504,654.31808 L 1345.5548,672.20571 L 1317.6395,656.63269 L 1328.1567,638.19961 L 1355.7504,654.31808M 1332.723,690.10034 L 1318.6814,705.15589 L 1295.1016,683.58303 L 1309.5767,668.06595 L 1332.723,690.10034M 1302.9476,718.62407 L 1285.8151,730.05035 L 1267.8646,703.61048 L 1285.5145,691.83457 L 1302.9476,718.62407M 1265.6548,738.35083 L 1246.3616,745.53246 L 1234.9354,715.61017 L 1254.823,708.21176 L 1265.6548,738.35083M 1224.8517,751.28755 L 1204.4187,753.83993 L 1200.167,722.1065 L 1221.2224,719.4842 L 1224.8517,751.28755M 1184.1675,754.53222 L 1163.6995,752.30851 L 1166.8952,720.47017 L 1187.9856,722.75683 L 1184.1675,754.53222M 1142.0916,747.91001 L 1122.6796,741.04307 L 1133.0919,710.79211 L 1153.0914,717.86886 L 1142.0916,747.91001M 1103.0088,732.37895 L 1085.7015,721.2324 L 1102.785,694.20514 L 1120.6237,705.69435 L 1103.0088,732.37895M 1069.0936,708.54042 L 1054.8142,693.71564 L 1077.6668,671.36657 L 1092.3797,686.6459 L 1069.0936,708.54042M 1040.6328,676.52728 L 1030.1505,658.81445 L 1057.5065,642.31839 L 1068.3034,660.57665 L 1040.6328,676.52728M 1020.906,640.2555 L 1014.7803,620.60568 L 1045.1991,610.89264 L 1051.5066,631.13686 L 1020.906,640.2555M 1010.4028,600.13768 L 1008.9623,579.60675 L 1040.8006,577.18023 L 1042.2901,598.33353 L 1010.4028,600.13768M 1070.0096,440.33069 L 1085.8134,427.12824 L 1106.659,451.47026 L 1090.3797,465.07829 L 1070.0096,440.33069M 1103.2046,415.91875 L 1121.6167,406.69521 L 1136.2876,435.17698 L 1117.3091,444.68022 L 1103.2046,415.91875M 1140.3994,399.44364 L 1160.4408,394.70252 L 1168.1189,425.78561 L 1147.4691,430.6666 L 1140.3994,399.44364M 1009.249,557.93599 L 1012.5706,537.62183 L 1044.1222,542.58675 L 1040.6957,563.51626 L 1009.249,557.93599M 1017.8851,518.1748 L 1025.787,499.17529 L 1055.3527,511.32183 L 1047.213,530.90174 L 1017.8851,518.1748M 1207.3557,820.69832 C 1207.3557,820.69832 1179.783,823.8381 1139.819,814.91525 C 1100.0508,806.03436 1070.7718,787.69918 1070.7718,787.69918 L 1088.5966,755.92379 C 1088.5966,755.92379 1120.6377,771.42688 1144.8188,776.83234 C 1167.5176,781.90912 1204.5795,781.18886 1204.5795,781.18886 L 1207.3557,820.69832M 1435.979,634.13678 C 1435.979,634.13678 1430.4687,661.13608 1409.5601,696.10018 C 1388.7705,730.89647 1362.1488,752.87493 1362.1488,752.87493 L 1337.3033,726.22526 C 1337.3033,726.22526 1362.0509,700.77139 1374.7149,679.61111 C 1386.5887,659.75849 1397.3507,624.54962 1397.3507,624.54962 L 1435.979,634.13678M 958.91464,662.58359 C 958.91464,662.58359 947.39046,637.52831 943.59336,597.04684 C 939.81024,556.76819 948.32751,523.45439 948.32751,523.45439 L 984.27061,530.38426 C 984.27061,530.38426 979.32669,565.41831 981.61334,589.92116 C 983.76712,612.91357 995.90668,647.67489 995.90668,647.67489 L 958.91464,662.58359M 1021.3675,391.0103 C 1021.3675,391.0103 1040.458,371.01783 1076.8556,352.36096 C 1113.0644,333.78804 1147.3712,329.15178 1147.3712,329.15178 L 1154.364,364.75226 C 1154.364,364.75226 1119.7845,373.31847 1097.7502,384.60488 C 1077.0794,395.19901 1049.15,419.39418 1049.15,419.39418 L 1021.3675,391.0103M 1311.7166,353.55674 C 1311.7166,353.55674 1336.7718,365.3956 1365.9039,393.98925 C 1394.8892,422.42905 1409.9308,453.3793 1409.9308,453.3793 L 1377.9456,470.88933 C 1377.9456,470.88933 1359.051,440.89711 1341.4291,423.58987 C 1324.891,407.34553 1293.0737,388.46491 1293.0737,388.46491 L 1311.7166,353.55674M 1211.929,572.36219 C 1211.929,583.19407 1202.9502,592.10292 1192.0484,592.10292 C 1181.1396,592.10292 1172.1608,583.19407 1172.1608,572.36219 C 1172.1608,561.5373 1181.1396,552.62844 1192.0484,552.62844 C 1202.9502,552.62844 1211.929,561.5373 1211.929,572.36219" />
  </g>
</svg>
