  0
SECTION
  2
HEADER
  9
$ACADVER
  1
AC1014
  9
$HANDSEED
  5
FFFF
  9
$MEASUREMENT
 70
     1
  0
ENDSEC
  0
SECTION
  2
TABLES
  0
TABLE
  2
VPORT
  5
8
330
0
100
AcDbSymbolTable
 70
     4
  0
VPORT
  5
2E
330
8
100
AcDbSymbolTableRecord
100
AcDbViewportTableRecord
  2
*ACTIVE
 70
     0
 10
0.0
 20
0.0
 11
1.0
 21
1.0
 12
210.0
 22
148.5
 13
0.0
 23
0.0
 14
10.0
 24
10.0
 15
10.0
 25
10.0
 16
0.0
 26
0.0
 36
1.0
 17
0.0
 27
0.0
 37
0.0
 40
341.0
 41
1.24
 42
50.0
 43
0.0
 44
0.0
 50
0.0
 51
0.0
 71
     0
 72
   100
 73
     1
 74
     3
 75
     0
 76
     0
 77
     0
 78
     0
  0
ENDTAB
  0
TABLE
  2
LTYPE
  5
5
330
0
100
AcDbSymbolTable
 70
     1
  0
LTYPE
  5
14
330
5
100
AcDbSymbolTableRecord
100
AcDbLinetypeTableRecord
  2
BYBLOCK
 70
     0
  3

 72
    65
 73
     0
 40
0.0
  0
LTYPE
  5
15
330
5
100
AcDbSymbolTableRecord
100
AcDbLinetypeTableRecord
  2
BYLAYER
 70
     0
  3

 72
    65
 73
     0
 40
0.0
  0
LTYPE
  5
16
330
5
100
AcDbSymbolTableRecord
100
AcDbLinetypeTableRecord
  2
CONTINUOUS
 70
     0
  3
Solid line
 72
    65
 73
     0
 40
0.0
  0
ENDTAB
  0
TABLE
  2
LAYER
  5
2
100
AcDbSymbolTable
 70
2
  0
LAYER
  5
50
100
AcDbSymbolTableRecord
100
AcDbLayerTableRecord
  2
0
 70
0
  6
CONTINUOUS
  0
LAYER
  5
51
100
AcDbSymbolTableRecord
100
AcDbLayerTableRecord
  2
Ebene_1
 70
0
  6
CONTINUOUS
  0
ENDTAB
  0
TABLE
  2
STYLE
  5
3
330
0
100
AcDbSymbolTable
 70
     1
  0
STYLE
  5
11
330
3
100
AcDbSymbolTableRecord
100
AcDbTextStyleTableRecord
  2
STANDARD
 70
     0
 40
0.0
 41
1.0
 50
0.0
 71
     0
 42
2.5
  3
txt
  4

  0
ENDTAB
  0
TABLE
  2
VIEW
  5
6
330
0
100
AcDbSymbolTable
 70
     0
  0
ENDTAB
  0
TABLE
  2
UCS
  5
7
330
0
100
AcDbSymbolTable
 70
     0
  0
ENDTAB
  0
TABLE
  2
APPID
  5
9
330
0
100
AcDbSymbolTable
 70
     2
  0
APPID
  5
12
330
9
100
AcDbSymbolTableRecord
100
AcDbRegAppTableRecord
  2
ACAD
 70
     0
  0
ENDTAB
  0
TABLE
  2
DIMSTYLE
  5
A
330
0
100
AcDbSymbolTable
 70
     1
  0
DIMSTYLE
105
27
330
A
100
AcDbSymbolTableRecord
100
AcDbDimStyleTableRecord
  2
ISO-25
 70
     0
  3

  4

  5

  6

  7

 40
1.0
 41
2.5
 42
0.625
 43
3.75
 44
1.25
 45
0.0
 46
0.0
 47
0.0
 48
0.0
140
2.5
141
2.5
142
0.0
143
0.03937007874016
144
1.0
145
0.0
146
1.0
147
0.625
 71
     0
 72
     0
 73
     0
 74
     0
 75
     0
 76
     0
 77
     1
 78
     8
170
     0
171
     3
172
     1
173
     0
174
     0
175
     0
176
     0
177
     0
178
     0
270
     2
271
     2
272
     2
273
     2
274
     3
340
11
275
     0
280
     0
281
     0
282
     0
283
     0
284
     8
285
     0
286
     0
287
     3
288
     0
  0
ENDTAB
  0
TABLE
  2
BLOCK_RECORD
  5
1
330
0
100
AcDbSymbolTable
 70
     1
  0
BLOCK_RECORD
  5
1F
330
1
100
AcDbSymbolTableRecord
100
AcDbBlockTableRecord
  2
*MODEL_SPACE
  0
BLOCK_RECORD
  5
1B
330
1
100
AcDbSymbolTableRecord
100
AcDbBlockTableRecord
  2
*PAPER_SPACE
  0
ENDTAB
  0
ENDSEC
  0
SECTION
  2
BLOCKS
  0
BLOCK
  5
20
330
1F
100
AcDbEntity
  8
0
100
AcDbBlockBegin
  2
*MODEL_SPACE
 70
     0
 10
0.0
 20
0.0
 30
0.0
  3
*MODEL_SPACE
  1

  0
ENDBLK
  5
21
330
1F
100
AcDbEntity
  8
0
100
AcDbBlockEnd
  0
BLOCK
  5
1C
330
1B
100
AcDbEntity
 67
     1
  8
0
100
AcDbBlockBegin
  2
*PAPER_SPACE
  1

  0
ENDBLK
  5
1D
330
1B
100
AcDbEntity
 67
     1
  8
0
100
AcDbBlockEnd
  0
ENDSEC
  0
SECTION
  2
ENTITIES
  0
SPLINE
  5
100
100
AcDbEntity
  8
Ebene_1
 62
7
100
AcDbSpline
 70
8
 71
3
 72
8
 73
4
 74
0
 40
0
 40
0
 40
0
 40
0
 40
1
 40
1
 40
1
 40
1
 10
255.482646
 20
184.152548
 30
0.0
 10
255.482646
 20
146.410632
 30
0.0
 10
224.184924
 20
115.346033
 30
0.0
 10
186.158082
 20
115.346033
 30
0.0
  0
SPLINE
  5
101
100
AcDbEntity
  8
Ebene_1
 62
7
100
AcDbSpline
 70
8
 71
3
 72
8
 73
4
 74
0
 40
0
 40
0
 40
0
 40
0
 40
1
 40
1
 40
1
 40
1
 10
186.158082
 20
115.346033
 30
0.0
 10
148.129387
 20
115.346033
 30
0.0
 10
116.831660
 20
146.410632
 30
0.0
 10
116.831660
 20
184.152548
 30
0.0
  0
SPLINE
  5
102
100
AcDbEntity
  8
Ebene_1
 62
7
100
AcDbSpline
 70
8
 71
3
 72
8
 73
4
 74
0
 40
0
 40
0
 40
0
 40
0
 40
1
 40
1
 40
1
 40
1
 10
116.831660
 20
184.152548
 30
0.0
 10
116.831660
 20
221.898160
 30
0.0
 10
148.129387
 20
252.962754
 30
0.0
 10
186.158082
 20
252.962754
 30
0.0
  0
SPLINE
  5
103
100
AcDbEntity
  8
Ebene_1
 62
7
100
AcDbSpline
 70
8
 71
3
 72
8
 73
4
 74
0
 40
0
 40
0
 40
0
 40
0
 40
1
 40
1
 40
1
 40
1
 10
186.158082
 20
252.962754
 30
0.0
 10
224.184924
 20
252.962754
 30
0.0
 10
255.482646
 20
221.898160
 30
0.0
 10
255.482646
 20
184.152548
 30
0.0
  0
SPLINE
  5
104
100
AcDbEntity
  8
Ebene_1
 62
7
100
AcDbSpline
 70
8
 71
3
 72
8
 73
4
 74
0
 40
0
 40
0
 40
0
 40
0
 40
1
 40
1
 40
1
 40
1
 10
185.696093
 20
368.615939
 30
0.0
 10
83.836021
 20
368.615939
 30
0.0
 10
-0.000074
 20
285.408481
 30
0.0
 10
-0.000074
 20
184.308843
 30
0.0
  0
SPLINE
  5
105
100
AcDbEntity
  8
Ebene_1
 62
7
100
AcDbSpline
 70
8
 71
3
 72
8
 73
4
 74
0
 40
0
 40
0
 40
0
 40
0
 40
1
 40
1
 40
1
 40
1
 10
-0.000074
 20
184.308843
 30
0.0
 10
-0.000074
 20
83.207357
 30
0.0
 10
83.836026
 20
0.001746
 30
0.0
 10
185.696093
 20
0.001746
 30
0.0
  0
SPLINE
  5
106
100
AcDbEntity
  8
Ebene_1
 62
7
100
AcDbSpline
 70
8
 71
3
 72
8
 73
4
 74
0
 40
0
 40
0
 40
0
 40
0
 40
1
 40
1
 40
1
 40
1
 10
185.696093
 20
0.001746
 30
0.0
 10
227.815537
 20
0.001746
 30
0.0
 10
266.882060
 20
14.222677
 30
0.0
 10
298.185337
 20
38.060392
 30
0.0
  0
LWPOLYLINE
  5
107
100
AcDbEntity
  8
Ebene_1
 62
7
100
AcDbPolyline
 90
1
 70
1
 10
255.482646
 20
184.152548
 30
0.0
  0
SPLINE
  5
108
100
AcDbEntity
  8
Ebene_1
 62
7
100
AcDbSpline
 70
8
 71
3
 72
8
 73
4
 74
0
 40
0
 40
0
 40
0
 40
0
 40
1
 40
1
 40
1
 40
1
 10
285.129790
 20
55.680001
 30
0.0
 10
285.157863
 20
55.701459
 30
0.0
 10
285.184427
 20
55.724690
 30
0.0
 10
285.212499
 20
55.746147
 30
0.0
  0
LWPOLYLINE
  5
109
100
AcDbEntity
  8
Ebene_1
 62
7
100
AcDbPolyline
 90
2
 70
0
 10
298.185337
 20
38.060392
 30
0.0
 10
285.129790
 20
55.680001
 30
0.0
  0
SPLINE
  5
10a
100
AcDbEntity
  8
Ebene_1
 62
7
100
AcDbSpline
 70
8
 71
3
 72
8
 73
4
 74
0
 40
0
 40
0
 40
0
 40
0
 40
1
 40
1
 40
1
 40
1
 10
276.307603
 20
67.611069
 30
0.0
 10
251.205762
 20
48.345037
 30
0.0
 10
219.784771
 20
36.819734
 30
0.0
 10
185.911067
 20
36.795366
 30
0.0
  0
LWPOLYLINE
  5
10b
100
AcDbEntity
  8
Ebene_1
 62
7
100
AcDbPolyline
 90
2
 70
0
 10
285.212499
 20
55.746147
 30
0.0
 10
276.307603
 20
67.611069
 30
0.0
  0
SPLINE
  5
10c
100
AcDbEntity
  8
Ebene_1
 62
7
100
AcDbSpline
 70
8
 71
3
 72
8
 73
4
 74
0
 40
0
 40
0
 40
0
 40
0
 40
1
 40
1
 40
1
 40
1
 10
185.919322
 20
82.237554
 30
0.0
 10
242.320895
 20
82.246655
 30
0.0
 10
288.734738
 20
128.325102
 30
0.0
 10
288.734738
 20
184.308843
 30
0.0
  0
SPLINE
  5
10d
100
AcDbEntity
  8
Ebene_1
 62
7
100
AcDbSpline
 70
8
 71
3
 72
8
 73
4
 74
0
 40
0
 40
0
 40
0
 40
0
 40
1
 40
1
 40
1
 40
1
 10
288.734738
 20
184.308843
 30
0.0
 10
288.734765
 20
212.748323
 30
0.0
 10
276.753664
 20
238.632418
 30
0.0
 10
257.571796
 20
257.218087
 30
0.0
  0
LWPOLYLINE
  5
10e
100
AcDbEntity
  8
Ebene_1
 62
7
100
AcDbPolyline
 90
2
 70
0
 10
185.911067
 20
36.795366
 30
0.0
 10
185.919322
 20
82.237554
 30
0.0
  0
SPLINE
  5
10f
100
AcDbEntity
  8
Ebene_1
 62
7
100
AcDbSpline
 70
8
 71
3
 72
8
 73
4
 74
0
 40
0
 40
0
 40
0
 40
0
 40
1
 40
1
 40
1
 40
1
 10
290.628176
 20
289.497254
 30
0.0
 10
290.614232
 20
289.510928
 30
0.0
 10
290.600765
 20
289.524927
 30
0.0
 10
290.586821
 20
289.538595
 30
0.0
  0
LWPOLYLINE
  5
110
100
AcDbEntity
  8
Ebene_1
 62
7
100
AcDbPolyline
 90
2
 70
0
 10
257.571796
 20
257.218087
 30
0.0
 10
290.628176
 20
289.497254
 30
0.0
  0
SPLINE
  5
111
100
AcDbEntity
  8
Ebene_1
 62
7
100
AcDbSpline
 70
8
 71
3
 72
8
 73
4
 74
0
 40
0
 40
0
 40
0
 40
0
 40
1
 40
1
 40
1
 40
1
 10
300.640988
 20
299.427397
 30
0.0
 10
271.016201
 20
328.544740
 30
0.0
 10
230.367126
 20
346.630718
 30
0.0
 10
185.803566
 20
346.630718
 30
0.0
  0
SPLINE
  5
112
100
AcDbEntity
  8
Ebene_1
 62
7
100
AcDbSpline
 70
8
 71
3
 72
8
 73
4
 74
0
 40
0
 40
0
 40
0
 40
0
 40
1
 40
1
 40
1
 40
1
 10
185.803566
 20
346.630718
 30
0.0
 10
185.767715
 20
346.630718
 30
0.0
 10
185.731944
 20
346.630741
 30
0.0
 10
185.696093
 20
346.630718
 30
0.0
  0
LWPOLYLINE
  5
113
100
AcDbEntity
  8
Ebene_1
 62
7
100
AcDbPolyline
 90
2
 70
0
 10
290.586821
 20
289.538595
 30
0.0
 10
300.640988
 20
299.427397
 30
0.0
  0
LWPOLYLINE
  5
114
100
AcDbEntity
  8
Ebene_1
 62
7
100
AcDbPolyline
 90
3
 70
0
 10
185.696093
 20
346.630718
 30
0.0
 10
185.696093
 20
368.615939
 30
0.0
 10
185.696093
 20
368.615939
 30
0.0
  0
SPLINE
  5
115
100
AcDbEntity
  8
Ebene_1
 62
7
100
AcDbSpline
 70
8
 71
3
 72
8
 73
4
 74
0
 40
0
 40
0
 40
0
 40
0
 40
1
 40
1
 40
1
 40
1
 10
99.086540
 20
274.626565
 30
0.0
 10
99.086540
 20
274.626565
 30
0.0
 10
107.667698
 20
283.842336
 30
0.0
 10
119.381217
 20
290.540003
 30
0.0
  0
SPLINE
  5
116
100
AcDbEntity
  8
Ebene_1
 62
7
100
AcDbSpline
 70
8
 71
3
 72
8
 73
4
 74
0
 40
0
 40
0
 40
0
 40
0
 40
1
 40
1
 40
1
 40
1
 10
119.381217
 20
290.540003
 30
0.0
 10
131.096583
 20
297.239521
 30
0.0
 10
140.245756
 20
300.675315
 30
0.0
 10
140.245756
 20
300.675315
 30
0.0
  0
LWPOLYLINE
  5
117
100
AcDbEntity
  8
Ebene_1
 62
7
100
AcDbPolyline
 90
2
 70
0
 10
112.650244
 20
260.790886
 30
0.0
 10
99.086540
 20
274.626565
 30
0.0
  0
SPLINE
  5
118
100
AcDbEntity
  8
Ebene_1
 62
7
100
AcDbSpline
 70
8
 71
3
 72
8
 73
4
 74
0
 40
0
 40
0
 40
0
 40
0
 40
1
 40
1
 40
1
 40
1
 10
136.600883
 20
309.021496
 30
0.0
 10
136.600883
 20
309.021496
 30
0.0
 10
125.544178
 20
304.462638
 30
0.0
 10
114.430125
 20
297.912988
 30
0.0
  0
SPLINE
  5
119
100
AcDbEntity
  8
Ebene_1
 62
7
100
AcDbSpline
 70
8
 71
3
 72
8
 73
4
 74
0
 40
0
 40
0
 40
0
 40
0
 40
1
 40
1
 40
1
 40
1
 10
114.430125
 20
297.912988
 30
0.0
 10
105.397520
 20
292.591858
 30
0.0
 10
92.740406
 20
280.689621
 30
0.0
 10
92.740406
 20
280.689621
 30
0.0
  0
LWPOLYLINE
  5
11a
100
AcDbEntity
  8
Ebene_1
 62
7
100
AcDbPolyline
 90
2
 70
0
 10
140.245756
 20
300.675315
 30
0.0
 10
136.600883
 20
309.021496
 30
0.0
  0
SPLINE
  5
11b
100
AcDbEntity
  8
Ebene_1
 62
7
100
AcDbSpline
 70
8
 71
3
 72
8
 73
4
 74
0
 40
0
 40
0
 40
0
 40
0
 40
1
 40
1
 40
1
 40
1
 10
85.511738
 20
287.381736
 30
0.0
 10
85.511738
 20
287.381736
 30
0.0
 10
110.405971
 20
312.657107
 30
0.0
 10
143.122782
 20
322.024574
 30
0.0
  0
SPLINE
  5
11c
100
AcDbEntity
  8
Ebene_1
 62
7
100
AcDbSpline
 70
8
 71
3
 72
8
 73
4
 74
0
 40
0
 40
0
 40
0
 40
0
 40
1
 40
1
 40
1
 40
1
 10
143.122782
 20
322.024574
 30
0.0
 10
174.131870
 20
330.903610
 30
0.0
 10
200.817083
 20
327.386440
 30
0.0
 10
200.817083
 20
327.386440
 30
0.0
  0
LWPOLYLINE
  5
11d
100
AcDbEntity
  8
Ebene_1
 62
7
100
AcDbPolyline
 90
2
 70
0
 10
92.740406
 20
280.689621
 30
0.0
 10
85.511738
 20
287.381736
 30
0.0
  0
SPLINE
  5
11e
100
AcDbEntity
  8
Ebene_1
 62
7
100
AcDbSpline
 70
8
 71
3
 72
8
 73
4
 74
0
 40
0
 40
0
 40
0
 40
0
 40
1
 40
1
 40
1
 40
1
 10
196.520964
 20
289.355885
 30
0.0
 10
196.520964
 20
289.355885
 30
0.0
 10
173.719278
 20
291.744474
 30
0.0
 10
150.745534
 20
284.158716
 30
0.0
  0
SPLINE
  5
11f
100
AcDbEntity
  8
Ebene_1
 62
7
100
AcDbSpline
 70
8
 71
3
 72
8
 73
4
 74
0
 40
0
 40
0
 40
0
 40
0
 40
1
 40
1
 40
1
 40
1
 10
150.745534
 20
284.158716
 30
0.0
 10
128.711693
 20
276.883789
 30
0.0
 10
112.650244
 20
260.790886
 30
0.0
 10
112.650244
 20
260.790886
 30
0.0
  0
SPLINE
  5
120
100
AcDbEntity
  8
Ebene_1
 62
7
100
AcDbSpline
 70
8
 71
3
 72
8
 73
4
 74
0
 40
0
 40
0
 40
0
 40
0
 40
1
 40
1
 40
1
 40
1
 10
213.466786
 20
287.161568
 30
0.0
 10
213.466786
 20
287.161568
 30
0.0
 10
219.444755
 20
285.287331
 30
0.0
 10
225.226562
 20
283.475999
 30
0.0
  0
SPLINE
  5
121
100
AcDbEntity
  8
Ebene_1
 62
7
100
AcDbSpline
 70
8
 71
3
 72
8
 73
4
 74
0
 40
0
 40
0
 40
0
 40
0
 40
1
 40
1
 40
1
 40
1
 10
225.226562
 20
283.475999
 30
0.0
 10
231.106451
 20
281.633216
 30
0.0
 10
237.297172
 20
277.331538
 30
0.0
 10
237.297172
 20
277.331538
 30
0.0
  0
LWPOLYLINE
  5
122
100
AcDbEntity
  8
Ebene_1
 62
7
100
AcDbPolyline
 90
2
 70
0
 10
200.817083
 20
327.386440
 30
0.0
 10
196.520964
 20
289.355885
 30
0.0
  0
SPLINE
  5
123
100
AcDbEntity
  8
Ebene_1
 62
7
100
AcDbSpline
 70
8
 71
3
 72
8
 73
4
 74
0
 40
0
 40
0
 40
0
 40
0
 40
1
 40
1
 40
1
 40
1
 10
255.556650
 20
309.278671
 30
0.0
 10
255.556650
 20
309.278671
 30
0.0
 10
248.438987
 20
313.580352
 30
0.0
 10
240.081700
 20
316.958787
 30
0.0
  0
SPLINE
  5
124
100
AcDbEntity
  8
Ebene_1
 62
7
100
AcDbSpline
 70
8
 71
3
 72
8
 73
4
 74
0
 40
0
 40
0
 40
0
 40
0
 40
1
 40
1
 40
1
 40
1
 10
240.081700
 20
316.958787
 30
0.0
 10
231.726264
 20
320.337207
 30
0.0
 10
223.679808
 20
321.872878
 30
0.0
 10
223.679808
 20
321.872878
 30
0.0
  0
LWPOLYLINE
  5
125
100
AcDbEntity
  8
Ebene_1
 62
7
100
AcDbPolyline
 90
2
 70
0
 10
237.297172
 20
277.331538
 30
0.0
 10
255.556650
 20
309.278671
 30
0.0
  0
SPLINE
  5
126
100
AcDbEntity
  8
Ebene_1
 62
7
100
AcDbSpline
 70
8
 71
3
 72
8
 73
4
 74
0
 40
0
 40
0
 40
0
 40
0
 40
1
 40
1
 40
1
 40
1
 10
240.649707
 20
275.329637
 30
0.0
 10
240.649707
 20
275.329637
 30
0.0
 10
245.426891
 20
272.582111
 30
0.0
 10
248.283571
 20
270.574662
 30
0.0
  0
SPLINE
  5
127
100
AcDbEntity
  8
Ebene_1
 62
7
100
AcDbSpline
 70
8
 71
3
 72
8
 73
4
 74
0
 40
0
 40
0
 40
0
 40
0
 40
1
 40
1
 40
1
 40
1
 10
248.283571
 20
270.574662
 30
0.0
 10
251.996893
 20
267.962203
 30
0.0
 10
257.236621
 20
262.476403
 30
0.0
 10
257.236621
 20
262.476403
 30
0.0
  0
LWPOLYLINE
  5
128
100
AcDbEntity
  8
Ebene_1
 62
7
100
AcDbPolyline
 90
2
 70
0
 10
223.679808
 20
321.872878
 30
0.0
 10
213.466786
 20
287.161568
 30
0.0
  0
SPLINE
  5
129
100
AcDbEntity
  8
Ebene_1
 62
7
100
AcDbSpline
 70
8
 71
3
 72
8
 73
4
 74
0
 40
0
 40
0
 40
0
 40
0
 40
1
 40
1
 40
1
 40
1
 10
283.411163
 20
288.850784
 30
0.0
 10
283.411163
 20
288.850784
 30
0.0
 10
278.685810
 20
293.731572
 30
0.0
 10
271.495996
 20
299.141512
 30
0.0
  0
SPLINE
  5
12a
100
AcDbEntity
  8
Ebene_1
 62
7
100
AcDbSpline
 70
8
 71
3
 72
8
 73
4
 74
0
 40
0
 40
0
 40
0
 40
0
 40
1
 40
1
 40
1
 40
1
 10
271.495996
 20
299.141512
 30
0.0
 10
264.304330
 20
304.551450
 30
0.0
 10
259.565987
 20
306.695814
 30
0.0
 10
259.565987
 20
306.695814
 30
0.0
  0
LWPOLYLINE
  5
12b
100
AcDbEntity
  8
Ebene_1
 62
7
100
AcDbPolyline
 90
2
 70
0
 10
257.236621
 20
262.476403
 30
0.0
 10
283.411163
 20
288.850784
 30
0.0
  0
LWPOLYLINE
  5
12c
100
AcDbEntity
  8
Ebene_1
 62
7
100
AcDbPolyline
 90
2
 70
0
 10
259.565987
 20
306.695814
 30
0.0
 10
240.649707
 20
275.329637
 30
0.0
  0
SPLINE
  5
12d
100
AcDbEntity
  8
Ebene_1
 62
7
100
AcDbSpline
 70
8
 71
3
 72
8
 73
4
 74
0
 40
0
 40
0
 40
0
 40
0
 40
1
 40
1
 40
1
 40
1
 10
236.459051
 20
131.742368
 30
0.0
 10
236.459051
 20
131.742368
 30
0.0
 10
228.266413
 20
124.504447
 30
0.0
 10
215.392847
 20
118.034350
 30
0.0
  0
SPLINE
  5
12e
100
AcDbEntity
  8
Ebene_1
 62
7
100
AcDbSpline
 70
8
 71
3
 72
8
 73
4
 74
0
 40
0
 40
0
 40
0
 40
0
 40
1
 40
1
 40
1
 40
1
 10
215.392847
 20
118.034350
 30
0.0
 10
204.824595
 20
112.722472
 30
0.0
 10
188.430112
 20
111.653069
 30
0.0
 10
188.430112
 20
111.653069
 30
0.0
  0
LWPOLYLINE
  5
12f
100
AcDbEntity
  8
Ebene_1
 62
7
100
AcDbPolyline
 90
2
 70
0
 10
252.851682
 20
115.172117
 30
0.0
 10
236.459051
 20
131.742368
 30
0.0
  0
SPLINE
  5
130
100
AcDbEntity
  8
Ebene_1
 62
7
100
AcDbSpline
 70
8
 71
3
 72
8
 73
4
 74
0
 40
0
 40
0
 40
0
 40
0
 40
1
 40
1
 40
1
 40
1
 10
188.801984
 20
88.486906
 30
0.0
 10
188.801984
 20
88.486906
 30
0.0
 10
208.186364
 20
88.065065
 30
0.0
 10
225.824177
 20
96.712828
 30
0.0
  0
SPLINE
  5
131
100
AcDbEntity
  8
Ebene_1
 62
7
100
AcDbSpline
 70
8
 71
3
 72
8
 73
4
 74
0
 40
0
 40
0
 40
0
 40
0
 40
1
 40
1
 40
1
 40
1
 10
225.824177
 20
96.712828
 30
0.0
 10
243.158566
 20
105.212573
 30
0.0
 10
252.851682
 20
115.172117
 30
0.0
 10
252.851682
 20
115.172117
 30
0.0
  0
LWPOLYLINE
  5
132
100
AcDbEntity
  8
Ebene_1
 62
7
100
AcDbPolyline
 90
2
 70
0
 10
188.430112
 20
111.653069
 30
0.0
 10
188.801984
 20
88.486906
 30
0.0
  0
LWPOLYLINE
  5
133
100
AcDbEntity
  8
Ebene_1
 62
7
100
AcDbPolyline
 90
4
 70
1
 10
172.407501
 20
332.973987
 30
0.0
 10
167.173328
 20
332.428200
 30
0.0
 10
166.172383
 20
341.899262
 30
0.0
 10
171.406555
 20
342.445092
 30
0.0
  0
LWPOLYLINE
  5
134
100
AcDbEntity
  8
Ebene_1
 62
7
100
AcDbPolyline
 90
4
 70
1
 10
216.129209
 20
340.293326
 30
0.0
 10
221.276413
 20
339.209108
 30
0.0
 10
219.280079
 20
329.893423
 30
0.0
 10
214.134726
 20
330.979503
 30
0.0
  0
LWPOLYLINE
  5
135
100
AcDbEntity
  8
Ebene_1
 62
7
100
AcDbPolyline
 90
4
 70
1
 10
224.869481
 20
338.335811
 30
0.0
 10
229.951941
 20
336.985171
 30
0.0
 10
227.468986
 20
327.786072
 30
0.0
 10
222.386525
 20
329.138532
 30
0.0
  0
LWPOLYLINE
  5
136
100
AcDbEntity
  8
Ebene_1
 62
7
100
AcDbPolyline
 90
4
 70
1
 10
232.989940
 20
336.034206
 30
0.0
 10
237.994693
 20
334.420824
 30
0.0
 10
235.030698
 20
325.364161
 30
0.0
 10
230.025945
 20
326.977542
 30
0.0
  0
LWPOLYLINE
  5
137
100
AcDbEntity
  8
Ebene_1
 62
7
100
AcDbPolyline
 90
4
 70
1
 10
30.241176
 20
222.366255
 30
0.0
 10
31.602913
 20
227.411709
 30
0.0
 10
40.870489
 20
224.945414
 30
0.0
 10
39.508753
 20
219.901807
 30
0.0
  0
LWPOLYLINE
  5
138
100
AcDbEntity
  8
Ebene_1
 62
7
100
AcDbPolyline
 90
4
 70
1
 10
126.794906
 20
321.611996
 30
0.0
 10
121.988128
 20
319.486161
 30
0.0
 10
118.087934
 20
328.187566
 30
0.0
 10
122.894717
 20
330.311586
 30
0.0
  0
LWPOLYLINE
  5
139
100
AcDbEntity
  8
Ebene_1
 62
7
100
AcDbPolyline
 90
4
 70
1
 10
110.502181
 20
324.378043
 30
0.0
 10
115.190548
 20
326.749953
 30
0.0
 10
119.545883
 20
318.265009
 30
0.0
 10
114.857517
 20
315.894916
 30
0.0
  0
LWPOLYLINE
  5
13a
100
AcDbEntity
  8
Ebene_1
 62
7
100
AcDbPolyline
 90
4
 70
1
 10
103.110694
 20
320.307637
 30
0.0
 10
107.665845
 20
322.918220
 30
0.0
 10
112.463374
 20
314.671946
 30
0.0
 10
107.908222
 20
312.059498
 30
0.0
  0
LWPOLYLINE
  5
13b
100
AcDbEntity
  8
Ebene_1
 62
7
100
AcDbPolyline
 90
4
 70
1
 10
96.150300
 20
315.750623
 30
0.0
 10
100.562989
 20
318.594336
 30
0.0
 10
105.787910
 20
310.608957
 30
0.0
 10
101.375221
 20
307.763368
 30
0.0
  0
LWPOLYLINE
  5
13c
100
AcDbEntity
  8
Ebene_1
 62
7
100
AcDbPolyline
 90
4
 70
1
 10
89.278717
 20
310.951240
 30
0.0
 10
93.534137
 20
314.020693
 30
0.0
 10
99.173501
 20
306.316526
 30
0.0
 10
94.918078
 20
303.247073
 30
0.0
  0
LWPOLYLINE
  5
13d
100
AcDbEntity
  8
Ebene_1
 62
7
100
AcDbPolyline
 90
4
 70
1
 10
82.618048
 20
305.781824
 30
0.0
 10
86.706959
 20
309.067750
 30
0.0
 10
92.744107
 20
301.667013
 30
0.0
 10
88.657052
 20
298.381084
 30
0.0
  0
LWPOLYLINE
  5
13e
100
AcDbEntity
  8
Ebene_1
 62
7
100
AcDbPolyline
 90
4
 70
1
 10
76.462485
 20
300.199817
 30
0.0
 10
80.371926
 20
303.694817
 30
0.0
 10
86.792067
 20
296.617858
 30
0.0
 10
82.880774
 20
293.122861
 30
0.0
  0
LWPOLYLINE
  5
13f
100
AcDbEntity
  8
Ebene_1
 62
7
100
AcDbPolyline
 90
4
 70
1
 10
70.541896
 20
294.473498
 30
0.0
 10
74.260766
 20
298.166465
 30
0.0
 10
81.045391
 20
291.433644
 30
0.0
 10
77.324672
 20
287.740675
 30
0.0
  0
LWPOLYLINE
  5
140
100
AcDbEntity
  8
Ebene_1
 62
7
100
AcDbPolyline
 90
4
 70
1
 10
64.778570
 20
288.334582
 30
0.0
 10
68.299473
 20
292.214419
 30
0.0
 10
75.428232
 20
285.842385
 30
0.0
 10
71.907334
 20
281.962548
 30
0.0
  0
LWPOLYLINE
  5
141
100
AcDbEntity
  8
Ebene_1
 62
7
100
AcDbPolyline
 90
4
 70
1
 10
59.577700
 20
281.864491
 30
0.0
 10
62.887683
 20
285.923792
 30
0.0
 10
70.343927
 20
279.931045
 30
0.0
 10
67.033947
 20
275.873588
 30
0.0
  0
LWPOLYLINE
  5
142
100
AcDbEntity
  8
Ebene_1
 62
7
100
AcDbPolyline
 90
4
 70
1
 10
54.495245
 20
275.087263
 30
0.0
 10
57.588753
 20
279.311235
 30
0.0
 10
65.350279
 20
273.714427
 30
0.0
 10
62.256768
 20
269.488605
 30
0.0
  0
LWPOLYLINE
  5
143
100
AcDbEntity
  8
Ebene_1
 62
7
100
AcDbPolyline
 90
4
 70
1
 10
60.682262
 20
267.320186
 30
0.0
 10
57.816327
 20
262.938953
 30
0.0
 10
49.771726
 20
268.128718
 30
0.0
 10
52.637661
 20
272.508107
 30
0.0
  0
LWPOLYLINE
  5
144
100
AcDbEntity
  8
Ebene_1
 62
7
100
AcDbPolyline
 90
4
 70
1
 10
45.653214
 20
260.931501
 30
0.0
 10
48.284178
 20
265.453352
 30
0.0
 10
56.593354
 20
260.692829
 30
0.0
 10
53.962393
 20
256.170978
 30
0.0
  0
LWPOLYLINE
  5
145
100
AcDbEntity
  8
Ebene_1
 62
7
100
AcDbPolyline
 90
4
 70
1
 10
41.725273
 20
253.558516
 30
0.0
 10
44.113860
 20
258.211730
 30
0.0
 10
52.663561
 20
253.887846
 30
0.0
 10
50.274974
 20
249.236487
 30
0.0
  0
LWPOLYLINE
  5
146
100
AcDbEntity
  8
Ebene_1
 62
7
100
AcDbPolyline
 90
4
 70
1
 10
38.156264
 20
245.952407
 30
0.0
 10
40.296928
 20
250.722180
 30
0.0
 10
49.061256
 20
246.849747
 30
0.0
 10
46.920592
 20
242.078118
 30
0.0
  0
LWPOLYLINE
  5
147
100
AcDbEntity
  8
Ebene_1
 62
7
100
AcDbPolyline
 90
4
 70
1
 10
35.223725
 20
238.203833
 30
0.0
 10
37.109061
 20
243.079072
 30
0.0
 10
46.065802
 20
239.667333
 30
0.0
 10
44.180466
 20
234.792091
 30
0.0
  0
LWPOLYLINE
  5
148
100
AcDbEntity
  8
Ebene_1
 62
7
100
AcDbPolyline
 90
4
 70
1
 10
32.568711
 20
230.434909
 30
0.0
 10
34.195020
 20
235.400808
 30
0.0
 10
43.318282
 20
232.459011
 30
0.0
 10
41.691970
 20
227.491269
 30
0.0
  0
LWPOLYLINE
  5
149
100
AcDbEntity
  8
Ebene_1
 62
7
100
AcDbPolyline
 90
4
 70
1
 10
35.813931
 20
170.816418
 30
0.0
 10
36.361587
 20
165.622946
 30
0.0
 10
26.822038
 20
164.629402
 30
0.0
 10
26.272532
 20
169.822865
 30
0.0
  0
LWPOLYLINE
  5
14a
100
AcDbEntity
  8
Ebene_1
 62
7
100
AcDbPolyline
 90
4
 70
1
 10
25.891395
 20
172.853469
 30
0.0
 10
25.615717
 20
178.069139
 30
0.0
 10
35.197822
 20
178.566839
 30
0.0
 10
35.471648
 20
173.351169
 30
0.0
  0
LWPOLYLINE
  5
14b
100
AcDbEntity
  8
Ebene_1
 62
7
100
AcDbPolyline
 90
4
 70
1
 10
122.794805
 20
37.989827
 30
0.0
 10
117.988027
 20
40.113823
 30
0.0
 10
121.890065
 20
48.811550
 30
0.0
 10
126.696846
 20
46.689380
 30
0.0
  0
LWPOLYLINE
  5
14c
100
AcDbEntity
  8
Ebene_1
 62
7
100
AcDbPolyline
 90
4
 70
1
 10
40.681770
 20
117.520000
 30
0.0
 10
38.541105
 20
122.291628
 30
0.0
 10
47.305428
 20
126.164062
 30
0.0
 10
49.446093
 20
121.392439
 30
0.0
  0
LWPOLYLINE
  5
14d
100
AcDbEntity
  8
Ebene_1
 62
7
100
AcDbPolyline
 90
4
 70
1
 10
44.382137
 20
110.032305
 30
0.0
 10
41.993550
 20
114.685519
 30
0.0
 10
50.543251
 20
119.009398
 30
0.0
 10
52.931841
 20
114.356187
 30
0.0
  0
LWPOLYLINE
  5
14e
100
AcDbEntity
  8
Ebene_1
 62
7
100
AcDbPolyline
 90
4
 70
1
 10
48.483999
 20
102.696322
 30
0.0
 10
45.854882
 20
107.218173
 30
0.0
 10
54.162214
 20
111.980549
 30
0.0
 10
56.793175
 20
107.456848
 30
0.0
  0
LWPOLYLINE
  5
14f
100
AcDbEntity
  8
Ebene_1
 62
7
100
AcDbPolyline
 90
4
 70
1
 10
53.076152
 20
95.787737
 30
0.0
 10
50.210217
 20
100.167120
 30
0.0
 10
58.256670
 20
105.353189
 30
0.0
 10
61.122608
 20
100.973800
 30
0.0
  0
LWPOLYLINE
  5
150
100
AcDbEntity
  8
Ebene_1
 62
7
100
AcDbPolyline
 90
4
 70
1
 10
57.847780
 20
89.088214
 30
0.0
 10
54.756121
 20
93.312186
 30
0.0
 10
62.517644
 20
98.908997
 30
0.0
 10
65.609301
 20
94.685025
 30
0.0
  0
LWPOLYLINE
  5
151
100
AcDbEntity
  8
Ebene_1
 62
7
100
AcDbPolyline
 90
4
 70
1
 10
63.056048
 20
82.477507
 30
0.0
 10
59.744218
 20
86.534961
 30
0.0
 10
67.200463
 20
92.529559
 30
0.0
 10
70.512292
 20
88.470253
 30
0.0
  0
LWPOLYLINE
  5
152
100
AcDbEntity
  8
Ebene_1
 62
7
100
AcDbPolyline
 90
4
 70
1
 10
68.678758
 20
76.366349
 30
0.0
 10
65.159707
 20
80.248032
 30
0.0
 10
72.288471
 20
86.620070
 30
0.0
 10
75.809369
 20
82.738383
 30
0.0
  0
LWPOLYLINE
  5
153
100
AcDbEntity
  8
Ebene_1
 62
7
100
AcDbPolyline
 90
4
 70
1
 10
74.125701
 20
70.012825
 30
0.0
 10
70.406832
 20
73.705781
 30
0.0
 10
77.189608
 20
80.438604
 30
0.0
 10
80.910327
 20
76.745634
 30
0.0
  0
LWPOLYLINE
  5
154
100
AcDbEntity
  8
Ebene_1
 62
7
100
AcDbPolyline
 90
4
 70
1
 10
80.312718
 20
64.293882
 30
0.0
 10
76.403279
 20
67.787044
 30
0.0
 10
82.821571
 20
74.864000
 30
0.0
 10
86.732861
 20
71.368997
 30
0.0
  0
LWPOLYLINE
  5
155
100
AcDbEntity
  8
Ebene_1
 62
7
100
AcDbPolyline
 90
4
 70
1
 10
86.829069
 20
59.130036
 30
0.0
 10
82.740159
 20
62.417801
 30
0.0
 10
88.779162
 20
69.816689
 30
0.0
 10
92.868073
 20
66.530776
 30
0.0
  0
LWPOLYLINE
  5
156
100
AcDbEntity
  8
Ebene_1
 62
7
100
AcDbPolyline
 90
4
 70
1
 10
93.552640
 20
54.127135
 30
0.0
 10
89.295367
 20
57.196593
 30
0.0
 10
94.934728
 20
64.900757
 30
0.0
 10
99.192001
 20
61.831299
 30
0.0
  0
LWPOLYLINE
  5
157
100
AcDbEntity
  8
Ebene_1
 62
7
100
AcDbPolyline
 90
4
 70
1
 10
101.375221
 20
60.267903
 30
0.0
 10
105.786058
 20
57.422309
 30
0.0
 10
100.562989
 20
49.438772
 30
0.0
 10
96.152147
 20
52.282487
 30
0.0
  0
LWPOLYLINE
  5
158
100
AcDbEntity
  8
Ebene_1
 62
7
100
AcDbPolyline
 90
4
 70
1
 10
107.813861
 20
45.349848
 30
0.0
 10
103.256858
 20
47.962317
 30
0.0
 10
108.054386
 20
56.208586
 30
0.0
 10
112.611392
 20
53.597969
 30
0.0
  0
LWPOLYLINE
  5
159
100
AcDbEntity
  8
Ebene_1
 62
7
100
AcDbPolyline
 90
4
 70
1
 10
115.131342
 20
41.532916
 30
0.0
 10
110.442973
 20
43.903000
 30
0.0
 10
114.798308
 20
52.387950
 30
0.0
 10
119.486677
 20
50.016013
 30
0.0
  0
LWPOLYLINE
  5
15a
100
AcDbEntity
  8
Ebene_1
 62
7
100
AcDbPolyline
 90
4
 70
1
 10
171.708127
 20
25.789705
 30
0.0
 10
166.475807
 20
26.337366
 30
0.0
 10
167.478604
 20
35.806618
 30
0.0
 10
172.710925
 20
35.260809
 30
0.0
  0
LWPOLYLINE
  5
15b
100
AcDbEntity
  8
Ebene_1
 62
7
100
AcDbPolyline
 90
4
 70
1
 10
180.037661
 20
25.415981
 30
0.0
 10
174.784994
 20
25.689798
 30
0.0
 10
175.286405
 20
35.199743
 30
0.0
 10
180.540925
 20
34.925926
 30
0.0
  0
LWPOLYLINE
  5
15c
100
AcDbEntity
  8
Ebene_1
 62
7
100
AcDbPolyline
 90
5
 70
1
 10
183.055313
 20
25.425215
 30
0.0
 10
188.316870
 20
25.425215
 30
0.0
 10
188.316870
 20
34.947913
 30
0.0
 10
183.055313
 20
34.947913
 30
0.0
 10
183.055313
 20
25.425215
 30
0.0
  0
LWPOLYLINE
  5
15d
100
AcDbEntity
  8
Ebene_1
 62
7
100
AcDbPolyline
 90
4
 70
1
 10
196.754089
 20
25.606534
 30
0.0
 10
191.499569
 20
25.334569
 30
0.0
 10
190.996305
 20
34.844514
 30
0.0
 10
196.250825
 20
35.116479
 30
0.0
  0
LWPOLYLINE
  5
15e
100
AcDbEntity
  8
Ebene_1
 62
7
100
AcDbPolyline
 90
4
 70
1
 10
205.039198
 20
26.531623
 30
0.0
 10
199.806877
 20
25.985814
 30
0.0
 10
198.804080
 20
35.455066
 30
0.0
 10
204.036401
 20
36.000875
 30
0.0
  0
LWPOLYLINE
  5
15f
100
AcDbEntity
  8
Ebene_1
 62
7
100
AcDbPolyline
 90
4
 70
1
 10
213.507505
 20
27.667638
 30
0.0
 10
208.312173
 20
26.851716
 30
0.0
 10
206.811695
 20
36.256198
 30
0.0
 10
212.007000
 20
37.073972
 30
0.0
  0
LWPOLYLINE
  5
160
100
AcDbEntity
  8
Ebene_1
 62
7
100
AcDbPolyline
 90
4
 70
1
 10
221.807431
 20
29.273606
 30
0.0
 10
216.660227
 20
28.187544
 30
0.0
 10
214.665719
 20
37.503232
 30
0.0
 10
219.811071
 20
38.587442
 30
0.0
  0
LWPOLYLINE
  5
161
100
AcDbEntity
  8
Ebene_1
 62
7
100
AcDbPolyline
 90
4
 70
1
 10
229.844626
 20
31.471632
 30
0.0
 10
224.762166
 20
30.120987
 30
0.0
 10
222.279236
 20
39.318247
 30
0.0
 10
227.361671
 20
40.670745
 30
0.0
  0
LWPOLYLINE
  5
162
100
AcDbEntity
  8
Ebene_1
 62
7
100
AcDbPolyline
 90
4
 70
1
 10
237.874440
 20
33.928659
 30
0.0
 10
232.871539
 20
32.315309
 30
0.0
 10
229.905692
 20
41.371970
 30
0.0
 10
234.910445
 20
42.985320
 30
0.0
  0
LWPOLYLINE
  5
163
100
AcDbEntity
  8
Ebene_1
 62
7
100
AcDbPolyline
 90
4
 70
1
 10
245.817284
 20
36.802007
 30
0.0
 10
240.905030
 20
34.931456
 30
0.0
 10
237.467378
 20
43.821615
 30
0.0
 10
242.379632
 20
45.693991
 30
0.0
  0
LWPOLYLINE
  5
164
100
AcDbEntity
  8
Ebene_1
 62
7
100
AcDbPolyline
 90
4
 70
1
 10
253.410429
 20
40.222990
 30
0.0
 10
248.605516
 20
38.098995
 30
0.0
 10
244.701616
 20
46.798548
 30
0.0
 10
249.508380
 20
48.922570
 30
0.0
  0
LWPOLYLINE
  5
165
100
AcDbEntity
  8
Ebene_1
 62
7
100
AcDbPolyline
 90
4
 70
1
 10
260.824107
 20
43.853047
 30
0.0
 10
256.137595
 20
41.482962
 30
0.0
 10
251.780410
 20
49.967912
 30
0.0
 10
256.468774
 20
52.337996
 30
0.0
  0
LWPOLYLINE
  5
166
100
AcDbEntity
  8
Ebene_1
 62
7
100
AcDbPolyline
 90
4
 70
1
 10
268.215613
 20
47.925302
 30
0.0
 10
263.660440
 20
45.312859
 30
0.0
 10
258.862936
 20
53.560980
 30
0.0
 10
263.419934
 20
56.171597
 30
0.0
  0
SPLINE
  5
167
100
AcDbEntity
  8
Ebene_1
 62
7
100
AcDbSpline
 70
8
 71
3
 72
8
 73
4
 74
0
 40
0
 40
0
 40
0
 40
0
 40
1
 40
1
 40
1
 40
1
 10
238.305525
 20
184.307959
 30
0.0
 10
238.305525
 20
155.661556
 30
0.0
 10
214.552847
 20
132.086503
 30
0.0
 10
185.693685
 20
132.086503
 30
0.0
  0
SPLINE
  5
168
100
AcDbEntity
  8
Ebene_1
 62
7
100
AcDbSpline
 70
8
 71
3
 72
8
 73
4
 74
0
 40
0
 40
0
 40
0
 40
0
 40
1
 40
1
 40
1
 40
1
 10
185.693685
 20
132.086503
 30
0.0
 10
156.832644
 20
132.086503
 30
0.0
 10
133.079982
 20
155.661556
 30
0.0
 10
133.079982
 20
184.307959
 30
0.0
  0
SPLINE
  5
169
100
AcDbEntity
  8
Ebene_1
 62
7
100
AcDbSpline
 70
8
 71
3
 72
8
 73
4
 74
0
 40
0
 40
0
 40
0
 40
0
 40
1
 40
1
 40
1
 40
1
 10
133.079982
 20
184.307959
 30
0.0
 10
133.079982
 20
212.952518
 30
0.0
 10
156.832644
 20
236.527568
 30
0.0
 10
185.693685
 20
236.527568
 30
0.0
  0
SPLINE
  5
16a
100
AcDbEntity
  8
Ebene_1
 62
7
100
AcDbSpline
 70
8
 71
3
 72
8
 73
4
 74
0
 40
0
 40
0
 40
0
 40
0
 40
1
 40
1
 40
1
 40
1
 10
185.693685
 20
236.527568
 30
0.0
 10
214.552847
 20
236.527568
 30
0.0
 10
238.305525
 20
212.952518
 30
0.0
 10
238.305525
 20
184.307959
 30
0.0
  0
LWPOLYLINE
  5
16b
100
AcDbEntity
  8
Ebene_1
 62
7
100
AcDbPolyline
 90
4
 70
1
 10
275.177859
 20
52.482327
 30
0.0
 10
270.765164
 20
49.636733
 30
0.0
 10
265.540225
 20
57.623975
 30
0.0
 10
269.951068
 20
60.467716
 30
0.0
  0
SPLINE
  5
16c
100
AcDbEntity
  8
Ebene_1
 62
7
100
AcDbSpline
 70
8
 71
3
 72
8
 73
4
 74
0
 40
0
 40
0
 40
0
 40
0
 40
1
 40
1
 40
1
 40
1
 10
135.270610
 20
237.210288
 30
0.0
 10
135.270610
 20
237.210288
 30
0.0
 10
143.463222
 20
244.448208
 30
0.0
 10
156.336815
 20
250.918305
 30
0.0
  0
SPLINE
  5
16d
100
AcDbEntity
  8
Ebene_1
 62
7
100
AcDbSpline
 70
8
 71
3
 72
8
 73
4
 74
0
 40
0
 40
0
 40
0
 40
0
 40
1
 40
1
 40
1
 40
1
 10
156.336815
 20
250.918305
 30
0.0
 10
166.905067
 20
256.230183
 30
0.0
 10
183.297698
 20
257.299587
 30
0.0
 10
183.297698
 20
257.299587
 30
0.0
  0
LWPOLYLINE
  5
16e
100
AcDbEntity
  8
Ebene_1
 62
7
100
AcDbPolyline
 90
2
 70
0
 10
118.876114
 20
253.780539
 30
0.0
 10
135.270610
 20
237.210288
 30
0.0
  0
SPLINE
  5
16f
100
AcDbEntity
  8
Ebene_1
 62
7
100
AcDbSpline
 70
8
 71
3
 72
8
 73
4
 74
0
 40
0
 40
0
 40
0
 40
0
 40
1
 40
1
 40
1
 40
1
 10
182.925799
 20
280.465747
 30
0.0
 10
182.925799
 20
280.465747
 30
0.0
 10
163.541419
 20
280.887591
 30
0.0
 10
145.903606
 20
272.239827
 30
0.0
  0
SPLINE
  5
170
100
AcDbEntity
  8
Ebene_1
 62
7
100
AcDbSpline
 70
8
 71
3
 72
8
 73
4
 74
0
 40
0
 40
0
 40
0
 40
0
 40
1
 40
1
 40
1
 40
1
 10
145.903606
 20
272.239827
 30
0.0
 10
128.569231
 20
263.740082
 30
0.0
 10
118.876114
 20
253.780539
 30
0.0
 10
118.876114
 20
253.780539
 30
0.0
  0
LWPOLYLINE
  5
171
100
AcDbEntity
  8
Ebene_1
 62
7
100
AcDbPolyline
 90
2
 70
0
 10
183.297698
 20
257.299587
 30
0.0
 10
182.925799
 20
280.465747
 30
0.0
  0
SPLINE
  5
172
100
AcDbEntity
  8
Ebene_1
 62
7
100
AcDbSpline
 70
8
 71
3
 72
8
 73
4
 74
0
 40
0
 40
0
 40
0
 40
0
 40
1
 40
1
 40
1
 40
1
 10
239.164019
 20
236.140879
 30
0.0
 10
239.164019
 20
236.140879
 30
0.0
 10
246.457444
 20
228.009320
 30
0.0
 10
252.975639
 20
215.231943
 30
0.0
  0
SPLINE
  5
173
100
AcDbEntity
  8
Ebene_1
 62
7
100
AcDbSpline
 70
8
 71
3
 72
8
 73
4
 74
0
 40
0
 40
0
 40
0
 40
0
 40
1
 40
1
 40
1
 40
1
 10
252.975639
 20
215.231943
 30
0.0
 10
258.326361
 20
204.743248
 30
0.0
 10
259.403189
 20
188.470876
 30
0.0
 10
259.403189
 20
188.470876
 30
0.0
  0
LWPOLYLINE
  5
174
100
AcDbEntity
  8
Ebene_1
 62
7
100
AcDbPolyline
 90
2
 70
0
 10
255.860074
 20
252.413251
 30
0.0
 10
239.164019
 20
236.140879
 30
0.0
  0
SPLINE
  5
175
100
AcDbEntity
  8
Ebene_1
 62
7
100
AcDbSpline
 70
8
 71
3
 72
8
 73
4
 74
0
 40
0
 40
0
 40
0
 40
0
 40
1
 40
1
 40
1
 40
1
 10
282.743249
 20
188.839062
 30
0.0
 10
282.743249
 20
188.839062
 30
0.0
 10
283.170656
 20
208.079131
 30
0.0
 10
274.456287
 20
225.587428
 30
0.0
  0
SPLINE
  5
176
100
AcDbEntity
  8
Ebene_1
 62
7
100
AcDbSpline
 70
8
 71
3
 72
8
 73
4
 74
0
 40
0
 40
0
 40
0
 40
0
 40
1
 40
1
 40
1
 40
1
 10
274.456287
 20
225.587428
 30
0.0
 10
265.893629
 20
242.790443
 30
0.0
 10
255.860074
 20
252.413251
 30
0.0
 10
255.860074
 20
252.413251
 30
0.0
  0
LWPOLYLINE
  5
177
100
AcDbEntity
  8
Ebene_1
 62
7
100
AcDbPolyline
 90
2
 70
0
 10
259.403189
 20
188.470876
 30
0.0
 10
282.743249
 20
188.839062
 30
0.0
  0
SPLINE
  5
178
100
AcDbEntity
  8
Ebene_1
 62
7
100
AcDbSpline
 70
8
 71
3
 72
8
 73
4
 74
0
 40
0
 40
0
 40
0
 40
0
 40
1
 40
1
 40
1
 40
1
 10
133.265003
 20
132.554602
 30
0.0
 10
133.265003
 20
132.554602
 30
0.0
 10
125.971573
 20
140.686160
 30
0.0
 10
119.453372
 20
153.465384
 30
0.0
  0
SPLINE
  5
179
100
AcDbEntity
  8
Ebene_1
 62
7
100
AcDbSpline
 70
8
 71
3
 72
8
 73
4
 74
0
 40
0
 40
0
 40
0
 40
0
 40
1
 40
1
 40
1
 40
1
 10
119.453372
 20
153.465384
 30
0.0
 10
114.100790
 20
163.954082
 30
0.0
 10
113.023983
 20
180.224605
 30
0.0
 10
113.023983
 20
180.224605
 30
0.0
  0
LWPOLYLINE
  5
17a
100
AcDbEntity
  8
Ebene_1
 62
7
100
AcDbPolyline
 90
2
 70
0
 10
116.568934
 20
116.284076
 30
0.0
 10
133.265003
 20
132.554602
 30
0.0
  0
SPLINE
  5
17b
100
AcDbEntity
  8
Ebene_1
 62
7
100
AcDbSpline
 70
8
 71
3
 72
8
 73
4
 74
0
 40
0
 40
0
 40
0
 40
0
 40
1
 40
1
 40
1
 40
1
 10
89.683902
 20
179.856418
 30
0.0
 10
89.683902
 20
179.856418
 30
0.0
 10
89.258360
 20
160.616350
 30
0.0
 10
97.970880
 20
143.108053
 30
0.0
  0
SPLINE
  5
17c
100
AcDbEntity
  8
Ebene_1
 62
7
100
AcDbSpline
 70
8
 71
3
 72
8
 73
4
 74
0
 40
0
 40
0
 40
0
 40
0
 40
1
 40
1
 40
1
 40
1
 10
97.970880
 20
143.108053
 30
0.0
 10
106.535387
 20
125.905038
 30
0.0
 10
116.568934
 20
116.284076
 30
0.0
 10
116.568934
 20
116.284076
 30
0.0
  0
SPLINE
  5
17d
100
AcDbEntity
  8
Ebene_1
 62
7
100
AcDbSpline
 70
8
 71
3
 72
8
 73
4
 74
0
 40
0
 40
0
 40
0
 40
0
 40
1
 40
1
 40
1
 40
1
 10
215.446504
 20
184.034134
 30
0.0
 10
215.446504
 20
200.082634
 30
0.0
 10
202.138121
 20
213.289253
 30
0.0
 10
185.969354
 20
213.289253
 30
0.0
  0
SPLINE
  5
17e
100
AcDbEntity
  8
Ebene_1
 62
7
100
AcDbSpline
 70
8
 71
3
 72
8
 73
4
 74
0
 40
0
 40
0
 40
0
 40
0
 40
1
 40
1
 40
1
 40
1
 10
185.969354
 20
213.289253
 30
0.0
 10
169.800588
 20
213.289253
 30
0.0
 10
156.494057
 20
200.082634
 30
0.0
 10
156.494057
 20
184.034134
 30
0.0
  0
SPLINE
  5
17f
100
AcDbEntity
  8
Ebene_1
 62
7
100
AcDbSpline
 70
8
 71
3
 72
8
 73
4
 74
0
 40
0
 40
0
 40
0
 40
0
 40
1
 40
1
 40
1
 40
1
 10
156.494057
 20
184.034134
 30
0.0
 10
156.494057
 20
167.985631
 30
0.0
 10
169.800588
 20
154.779014
 30
0.0
 10
185.969354
 20
154.779014
 30
0.0
  0
SPLINE
  5
180
100
AcDbEntity
  8
Ebene_1
 62
7
100
AcDbSpline
 70
8
 71
3
 72
8
 73
4
 74
0
 40
0
 40
0
 40
0
 40
0
 40
1
 40
1
 40
1
 40
1
 10
185.969354
 20
154.779014
 30
0.0
 10
202.138121
 20
154.779014
 30
0.0
 10
215.446504
 20
167.985631
 30
0.0
 10
215.446504
 20
184.034134
 30
0.0
  0
LWPOLYLINE
  5
181
100
AcDbEntity
  8
Ebene_1
 62
7
100
AcDbPolyline
 90
2
 70
0
 10
113.023983
 20
180.224605
 30
0.0
 10
89.683902
 20
179.856418
 30
0.0
  0
SPLINE
  5
182
100
AcDbEntity
  8
Ebene_1
 62
7
100
AcDbSpline
 70
8
 71
3
 72
8
 73
4
 74
0
 40
0
 40
0
 40
0
 40
0
 40
1
 40
1
 40
1
 40
1
 10
221.191323
 20
184.307959
 30
0.0
 10
221.191323
 20
164.979083
 30
0.0
 10
205.165008
 20
149.073047
 30
0.0
 10
185.693685
 20
149.073047
 30
0.0
  0
SPLINE
  5
183
100
AcDbEntity
  8
Ebene_1
 62
7
100
AcDbSpline
 70
8
 71
3
 72
8
 73
4
 74
0
 40
0
 40
0
 40
0
 40
0
 40
1
 40
1
 40
1
 40
1
 10
185.693685
 20
149.073047
 30
0.0
 10
166.220484
 20
149.073047
 30
0.0
 10
150.194195
 20
164.979083
 30
0.0
 10
150.194195
 20
184.307959
 30
0.0
  0
SPLINE
  5
184
100
AcDbEntity
  8
Ebene_1
 62
7
100
AcDbSpline
 70
8
 71
3
 72
8
 73
4
 74
0
 40
0
 40
0
 40
0
 40
0
 40
1
 40
1
 40
1
 40
1
 10
150.194195
 20
184.307959
 30
0.0
 10
150.194195
 20
203.633136
 30
0.0
 10
166.220484
 20
219.541024
 30
0.0
 10
185.693685
 20
219.541024
 30
0.0
  0
SPLINE
  5
185
100
AcDbEntity
  8
Ebene_1
 62
7
100
AcDbSpline
 70
8
 71
3
 72
8
 73
4
 74
0
 40
0
 40
0
 40
0
 40
0
 40
1
 40
1
 40
1
 40
1
 10
185.693685
 20
219.541024
 30
0.0
 10
205.165008
 20
219.541024
 30
0.0
 10
221.191323
 20
203.633136
 30
0.0
 10
221.191323
 20
184.307959
 30
0.0
  0
LWPOLYLINE
  5
186
100
AcDbEntity
  8
Ebene_1
 62
7
100
AcDbPolyline
 90
1
 70
1
 10
215.446504
 20
184.034134
 30
0.0
  0
LWPOLYLINE
  5
187
100
AcDbEntity
  8
Ebene_1
 62
7
100
AcDbPolyline
 90
4
 70
1
 10
182.990569
 20
231.968715
 30
0.0
 10
188.441198
 20
231.968715
 30
0.0
 10
188.526314
 20
223.494867
 30
0.0
 10
182.911009
 20
223.494867
 30
0.0
  0
LWPOLYLINE
  5
188
100
AcDbEntity
  8
Ebene_1
 62
7
100
AcDbPolyline
 90
4
 70
1
 10
194.023218
 20
231.361853
 30
0.0
 10
199.327691
 20
230.109279
 30
0.0
 10
197.458991
 20
221.844505
 30
0.0
 10
191.993546
 20
223.135933
 30
0.0
  0
LWPOLYLINE
  5
189
100
AcDbEntity
  8
Ebene_1
 62
7
100
AcDbPolyline
 90
4
 70
1
 10
204.498945
 20
228.359002
 30
0.0
 10
209.372332
 20
225.918612
 30
0.0
 10
205.647925
 20
218.314352
 30
0.0
 10
200.624678
 20
220.828754
 30
0.0
  0
LWPOLYLINE
  5
18a
100
AcDbEntity
  8
Ebene_1
 62
7
100
AcDbPolyline
 90
4
 70
1
 10
214.821135
 20
222.636384
 30
0.0
 10
219.000705
 20
219.141384
 30
0.0
 10
213.648105
 20
212.591732
 30
0.0
 10
209.339048
 20
216.194042
 30
0.0
  0
LWPOLYLINE
  5
18b
100
AcDbEntity
  8
Ebene_1
 62
7
100
AcDbPolyline
 90
4
 70
1
 10
222.721435
 20
214.893361
 30
0.0
 10
225.987001
 20
210.528773
 30
0.0
 10
219.263436
 20
205.387112
 30
0.0
 10
215.899788
 20
209.883063
 30
0.0
  0
LWPOLYLINE
  5
18c
100
AcDbEntity
  8
Ebene_1
 62
7
100
AcDbPolyline
 90
4
 70
1
 10
228.839977
 20
205.840407
 30
0.0
 10
231.013953
 20
200.844909
 30
0.0
 10
223.289416
 20
197.396166
 30
0.0
 10
221.050697
 20
202.545230
 30
0.0
  0
LWPOLYLINE
  5
18d
100
AcDbEntity
  8
Ebene_1
 62
7
100
AcDbPolyline
 90
4
 70
1
 10
232.878921
 20
195.420170
 30
0.0
 10
233.842878
 20
190.056482
 30
0.0
 10
225.539247
 20
188.480129
 30
0.0
 10
224.543858
 20
194.006626
 30
0.0
  0
LWPOLYLINE
  5
18e
100
AcDbEntity
  8
Ebene_1
 62
7
100
AcDbPolyline
 90
4
 70
1
 10
234.053803
 20
184.287607
 30
0.0
 10
233.759613
 20
178.846218
 30
0.0
 10
225.311679
 20
179.225504
 30
0.0
 10
225.615103
 20
184.831564
 30
0.0
  0
LWPOLYLINE
  5
18f
100
AcDbEntity
  8
Ebene_1
 62
7
100
AcDbPolyline
 90
4
 70
1
 10
232.938135
 20
173.484384
 30
0.0
 10
231.400641
 20
168.259461
 30
0.0
 10
223.269069
 20
170.579595
 30
0.0
 10
224.854691
 20
175.967332
 30
0.0
  0
LWPOLYLINE
  5
190
100
AcDbEntity
  8
Ebene_1
 62
7
100
AcDbPolyline
 90
4
 70
1
 10
229.006506
 20
162.623796
 30
0.0
 10
226.308920
 20
157.891028
 30
0.0
 10
218.922997
 20
162.011389
 30
0.0
 10
221.705673
 20
166.888475
 30
0.0
  0
LWPOLYLINE
  5
191
100
AcDbEntity
  8
Ebene_1
 62
7
100
AcDbPolyline
 90
4
 70
1
 10
222.913840
 20
153.156407
 30
0.0
 10
219.198666
 20
149.172959
 30
0.0
 10
212.959844
 20
154.880778
 30
0.0
 10
216.789714
 20
158.986339
 30
0.0
  0
LWPOLYLINE
  5
192
100
AcDbEntity
  8
Ebene_1
 62
7
100
AcDbPolyline
 90
4
 70
1
 10
215.035765
 20
145.609503
 30
0.0
 10
210.502791
 20
142.586300
 30
0.0
 10
205.753388
 20
149.581849
 30
0.0
 10
210.423257
 20
152.697558
 30
0.0
  0
LWPOLYLINE
  5
193
100
AcDbEntity
  8
Ebene_1
 62
7
100
AcDbPolyline
 90
4
 70
1
 10
205.168712
 20
140.390131
 30
0.0
 10
200.064053
 20
138.489992
 30
0.0
 10
197.040870
 20
146.406931
 30
0.0
 10
202.302798
 20
148.364427
 30
0.0
  0
LWPOLYLINE
  5
194
100
AcDbEntity
  8
Ebene_1
 62
7
100
AcDbPolyline
 90
4
 70
1
 10
194.372891
 20
136.967291
 30
0.0
 10
188.966660
 20
136.291974
 30
0.0
 10
187.841731
 20
144.688110
 30
0.0
 10
193.412639
 20
145.381927
 30
0.0
  0
LWPOLYLINE
  5
195
100
AcDbEntity
  8
Ebene_1
 62
7
100
AcDbPolyline
 90
4
 70
1
 10
183.608530
 20
136.108805
 30
0.0
 10
178.193039
 20
136.697162
 30
0.0
 10
179.038567
 20
145.121056
 30
0.0
 10
184.618736
 20
144.516044
 30
0.0
  0
LWPOLYLINE
  5
196
100
AcDbEntity
  8
Ebene_1
 62
7
100
AcDbPolyline
 90
4
 70
1
 10
172.475948
 20
137.860932
 30
0.0
 10
167.339857
 20
139.677809
 30
0.0
 10
170.094778
 20
147.681709
 30
0.0
 10
175.386312
 20
145.809319
 30
0.0
  0
LWPOLYLINE
  5
197
100
AcDbEntity
  8
Ebene_1
 62
7
100
AcDbPolyline
 90
4
 70
1
 10
162.135291
 20
141.970191
 30
0.0
 10
157.556068
 20
144.919382
 30
0.0
 10
162.076077
 20
152.070345
 30
0.0
 10
166.795900
 20
149.030492
 30
0.0
  0
LWPOLYLINE
  5
198
100
AcDbEntity
  8
Ebene_1
 62
7
100
AcDbPolyline
 90
4
 70
1
 10
153.161894
 20
148.277469
 30
0.0
 10
149.383803
 20
152.199859
 30
0.0
 10
155.430220
 20
158.113050
 30
0.0
 10
159.323008
 20
154.070394
 30
0.0
  0
LWPOLYLINE
  5
199
100
AcDbEntity
  8
Ebene_1
 62
7
100
AcDbPolyline
 90
4
 70
1
 10
145.631641
 20
156.747612
 30
0.0
 10
142.858199
 20
161.434132
 30
0.0
 10
150.096141
 20
165.798714
 30
0.0
 10
152.952820
 20
160.967883
 30
0.0
  0
LWPOLYLINE
  5
19a
100
AcDbEntity
  8
Ebene_1
 62
7
100
AcDbPolyline
 90
4
 70
1
 10
140.412258
 20
166.344521
 30
0.0
 10
138.791500
 20
171.543535
 30
0.0
 10
146.839808
 20
174.113444
 30
0.0
 10
148.508667
 20
168.757161
 30
0.0
  0
LWPOLYLINE
  5
19b
100
AcDbEntity
  8
Ebene_1
 62
7
100
AcDbPolyline
 90
4
 70
1
 10
137.633287
 20
176.959027
 30
0.0
 10
137.252154
 20
182.391169
 30
0.0
 10
145.676038
 20
183.033186
 30
0.0
 10
146.070135
 20
177.436375
 30
0.0
  0
LWPOLYLINE
  5
19c
100
AcDbEntity
  8
Ebene_1
 62
7
100
AcDbPolyline
 90
4
 70
1
 10
153.404253
 20
219.241293
 30
0.0
 10
157.585675
 20
222.734442
 30
0.0
 10
163.101073
 20
216.293949
 30
0.0
 10
158.793841
 20
212.693491
 30
0.0
  0
LWPOLYLINE
  5
19d
100
AcDbEntity
  8
Ebene_1
 62
7
100
AcDbPolyline
 90
4
 70
1
 10
162.187096
 20
225.700286
 30
0.0
 10
167.058631
 20
228.140681
 30
0.0
 10
170.940307
 20
220.604879
 30
0.0
 10
165.918912
 20
218.090480
 30
0.0
  0
LWPOLYLINE
  5
19e
100
AcDbEntity
  8
Ebene_1
 62
7
100
AcDbPolyline
 90
4
 70
1
 10
172.028220
 20
230.059325
 30
0.0
 10
177.330841
 20
231.313747
 30
0.0
 10
179.362338
 20
223.089679
 30
0.0
 10
173.898745
 20
221.798250
 30
0.0
  0
LWPOLYLINE
  5
19f
100
AcDbEntity
  8
Ebene_1
 62
7
100
AcDbPolyline
 90
4
 70
1
 10
137.328010
 20
188.124891
 30
0.0
 10
138.206850
 20
193.499679
 30
0.0
 10
146.554878
 20
192.186044
 30
0.0
 10
145.648283
 20
186.648445
 30
0.0
  0
SPLINE
  5
1a0
100
AcDbEntity
  8
Ebene_1
 62
7
100
AcDbSpline
 70
8
 71
3
 72
8
 73
4
 74
0
 40
0
 40
0
 40
0
 40
0
 40
1
 40
1
 40
1
 40
1
 10
189.743741
 20
118.602358
 30
0.0
 10
189.743741
 20
118.602358
 30
0.0
 10
182.448465
 20
117.771624
 30
0.0
 10
171.874656
 20
120.132462
 30
0.0
  0
SPLINE
  5
1a1
100
AcDbEntity
  8
Ebene_1
 62
7
100
AcDbSpline
 70
8
 71
3
 72
8
 73
4
 74
0
 40
0
 40
0
 40
0
 40
0
 40
1
 40
1
 40
1
 40
1
 10
171.874656
 20
120.132462
 30
0.0
 10
161.352653
 20
122.482197
 30
0.0
 10
153.605918
 20
127.333380
 30
0.0
 10
153.605918
 20
127.333380
 30
0.0
  0
LWPOLYLINE
  5
1a2
100
AcDbEntity
  8
Ebene_1
 62
7
100
AcDbPolyline
 90
4
 70
1
 10
139.612979
 20
198.645039
 30
0.0
 10
141.703690
 20
203.671993
 30
0.0
 10
149.526281
 20
200.458221
 30
0.0
 10
147.372652
 20
195.277703
 30
0.0
  0
SPLINE
  5
1a3
100
AcDbEntity
  8
Ebene_1
 62
7
100
AcDbSpline
 70
8
 71
3
 72
8
 73
4
 74
0
 40
0
 40
0
 40
0
 40
0
 40
1
 40
1
 40
1
 40
1
 10
158.322063
 20
135.740619
 30
0.0
 10
158.322063
 20
135.740619
 30
0.0
 10
166.799604
 20
131.638760
 30
0.0
 10
173.197520
 20
130.208565
 30
0.0
  0
SPLINE
  5
1a4
100
AcDbEntity
  8
Ebene_1
 62
7
100
AcDbSpline
 70
8
 71
3
 72
8
 73
4
 74
0
 40
0
 40
0
 40
0
 40
0
 40
1
 40
1
 40
1
 40
1
 10
173.197520
 20
130.208565
 30
0.0
 10
179.203244
 20
128.865334
 30
0.0
 10
189.009205
 20
129.055902
 30
0.0
 10
189.009205
 20
129.055902
 30
0.0
  0
LWPOLYLINE
  5
1a5
100
AcDbEntity
  8
Ebene_1
 62
7
100
AcDbPolyline
 90
2
 70
0
 10
153.605918
 20
127.333380
 30
0.0
 10
158.322063
 20
135.740619
 30
0.0
  0
SPLINE
  5
1a6
100
AcDbEntity
  8
Ebene_1
 62
7
100
AcDbSpline
 70
8
 71
3
 72
8
 73
4
 74
0
 40
0
 40
0
 40
0
 40
0
 40
1
 40
1
 40
1
 40
1
 10
250.233656
 20
167.963432
 30
0.0
 10
250.233656
 20
167.963432
 30
0.0
 10
248.775723
 20
160.819867
 30
0.0
 10
243.243656
 20
151.568949
 30
0.0
  0
SPLINE
  5
1a7
100
AcDbEntity
  8
Ebene_1
 62
7
100
AcDbSpline
 70
8
 71
3
 72
8
 73
4
 74
0
 40
0
 40
0
 40
0
 40
0
 40
1
 40
1
 40
1
 40
1
 10
243.243656
 20
151.568949
 30
0.0
 10
237.743074
 20
142.362431
 30
0.0
 10
230.699416
 20
136.547296
 30
0.0
 10
230.699416
 20
136.547296
 30
0.0
  0
LWPOLYLINE
  5
1a8
100
AcDbEntity
  8
Ebene_1
 62
7
100
AcDbPolyline
 90
2
 70
0
 10
189.009205
 20
129.055902
 30
0.0
 10
189.743741
 20
118.602358
 30
0.0
  0
SPLINE
  5
1a9
100
AcDbEntity
  8
Ebene_1
 62
7
100
AcDbSpline
 70
8
 71
3
 72
8
 73
4
 74
0
 40
0
 40
0
 40
0
 40
0
 40
1
 40
1
 40
1
 40
1
 10
224.125711
 20
143.598355
 30
0.0
 10
224.125711
 20
143.598355
 30
0.0
 10
230.673513
 20
150.333025
 30
0.0
 10
234.024196
 20
155.931682
 30
0.0
  0
SPLINE
  5
1aa
100
AcDbEntity
  8
Ebene_1
 62
7
100
AcDbSpline
 70
8
 71
3
 72
8
 73
4
 74
0
 40
0
 40
0
 40
0
 40
0
 40
1
 40
1
 40
1
 40
1
 10
234.024196
 20
155.931682
 30
0.0
 10
237.165806
 20
161.184355
 30
0.0
 10
240.013252
 20
170.500035
 30
0.0
 10
240.013252
 20
170.500035
 30
0.0
  0
LWPOLYLINE
  5
1ab
100
AcDbEntity
  8
Ebene_1
 62
7
100
AcDbPolyline
 90
2
 70
0
 10
230.699416
 20
136.547296
 30
0.0
 10
224.125711
 20
143.598355
 30
0.0
  0
SPLINE
  5
1ac
100
AcDbEntity
  8
Ebene_1
 62
7
100
AcDbSpline
 70
8
 71
3
 72
8
 73
4
 74
0
 40
0
 40
0
 40
0
 40
0
 40
1
 40
1
 40
1
 40
1
 10
124.010378
 20
160.436880
 30
0.0
 10
124.010378
 20
160.436880
 30
0.0
 10
120.961272
 20
167.066090
 30
0.0
 10
119.956622
 20
177.776812
 30
0.0
  0
SPLINE
  5
1ad
100
AcDbEntity
  8
Ebene_1
 62
7
100
AcDbSpline
 70
8
 71
3
 72
8
 73
4
 74
0
 40
0
 40
0
 40
0
 40
0
 40
1
 40
1
 40
1
 40
1
 10
119.956622
 20
177.776812
 30
0.0
 10
118.955672
 20
188.433871
 30
0.0
 10
121.209200
 20
197.248148
 30
0.0
 10
121.209200
 20
197.248148
 30
0.0
  0
LWPOLYLINE
  5
1ae
100
AcDbEntity
  8
Ebene_1
 62
7
100
AcDbPolyline
 90
2
 70
0
 10
240.013252
 20
170.500035
 30
0.0
 10
250.233656
 20
167.963432
 30
0.0
  0
SPLINE
  5
1af
100
AcDbEntity
  8
Ebene_1
 62
7
100
AcDbSpline
 70
8
 71
3
 72
8
 73
4
 74
0
 40
0
 40
0
 40
0
 40
0
 40
1
 40
1
 40
1
 40
1
 10
130.719145
 20
195.414620
 30
0.0
 10
130.719145
 20
195.414620
 30
0.0
 10
129.411066
 20
186.145194
 30
0.0
 10
130.016075
 20
179.662148
 30
0.0
  0
SPLINE
  5
1b0
100
AcDbEntity
  8
Ebene_1
 62
7
100
AcDbSpline
 70
8
 71
3
 72
8
 73
4
 74
0
 40
0
 40
0
 40
0
 40
0
 40
1
 40
1
 40
1
 40
1
 10
130.016075
 20
179.662148
 30
0.0
 10
130.585930
 20
173.578740
 30
0.0
 10
133.797855
 20
164.381474
 30
0.0
 10
133.797855
 20
164.381474
 30
0.0
  0
LWPOLYLINE
  5
1b1
100
AcDbEntity
  8
Ebene_1
 62
7
100
AcDbPolyline
 90
2
 70
0
 10
121.209200
 20
197.248148
 30
0.0
 10
130.719145
 20
195.414620
 30
0.0
  0
SPLINE
  5
1b2
100
AcDbEntity
  8
Ebene_1
 62
7
100
AcDbSpline
 70
8
 71
3
 72
8
 73
4
 74
0
 40
0
 40
0
 40
0
 40
0
 40
1
 40
1
 40
1
 40
1
 10
140.534364
 20
232.290646
 30
0.0
 10
140.534364
 20
232.290646
 30
0.0
 10
145.585392
 20
237.580321
 30
0.0
 10
155.215590
 20
242.516618
 30
0.0
  0
SPLINE
  5
1b3
100
AcDbEntity
  8
Ebene_1
 62
7
100
AcDbSpline
 70
8
 71
3
 72
8
 73
4
 74
0
 40
0
 40
0
 40
0
 40
0
 40
1
 40
1
 40
1
 40
1
 10
155.215590
 20
242.516618
 30
0.0
 10
164.795835
 20
247.430703
 30
0.0
 10
173.872843
 20
248.657380
 30
0.0
 10
173.872843
 20
248.657380
 30
0.0
  0
LWPOLYLINE
  5
1b4
100
AcDbEntity
  8
Ebene_1
 62
7
100
AcDbPolyline
 90
2
 70
0
 10
133.797855
 20
164.381474
 30
0.0
 10
124.010378
 20
160.436880
 30
0.0
  0
SPLINE
  5
1b5
100
AcDbEntity
  8
Ebene_1
 62
7
100
AcDbSpline
 70
8
 71
3
 72
8
 73
4
 74
0
 40
0
 40
0
 40
0
 40
0
 40
1
 40
1
 40
1
 40
1
 10
175.723021
 20
239.238086
 30
0.0
 10
175.723021
 20
239.238086
 30
0.0
 10
166.573861
 20
236.971610
 30
0.0
 10
160.743953
 20
233.985414
 30
0.0
  0
SPLINE
  5
1b6
100
AcDbEntity
  8
Ebene_1
 62
7
100
AcDbSpline
 70
8
 71
3
 72
8
 73
4
 74
0
 40
0
 40
0
 40
0
 40
0
 40
1
 40
1
 40
1
 40
1
 10
160.743953
 20
233.985414
 30
0.0
 10
155.274804
 20
231.182384
 30
0.0
 10
147.885150
 20
224.780745
 30
0.0
 10
147.885150
 20
224.780745
 30
0.0
  0
LWPOLYLINE
  5
1b7
100
AcDbEntity
  8
Ebene_1
 62
7
100
AcDbPolyline
 90
2
 70
0
 10
173.872843
 20
248.657380
 30
0.0
 10
175.723021
 20
239.238086
 30
0.0
  0
SPLINE
  5
1b8
100
AcDbEntity
  8
Ebene_1
 62
7
100
AcDbSpline
 70
8
 71
3
 72
8
 73
4
 74
0
 40
0
 40
0
 40
0
 40
0
 40
1
 40
1
 40
1
 40
1
 10
217.355896
 20
242.200234
 30
0.0
 10
217.355896
 20
242.200234
 30
0.0
 10
223.985085
 20
239.067869
 30
0.0
 10
231.692953
 20
231.502466
 30
0.0
  0
SPLINE
  5
1b9
100
AcDbEntity
  8
Ebene_1
 62
7
100
AcDbSpline
 70
8
 71
3
 72
8
 73
4
 74
0
 40
0
 40
0
 40
0
 40
0
 40
1
 40
1
 40
1
 40
1
 10
231.692953
 20
231.502466
 30
0.0
 10
239.361980
 20
223.977769
 30
0.0
 10
243.341737
 20
215.788849
 30
0.0
 10
243.341737
 20
215.788849
 30
0.0
  0
LWPOLYLINE
  5
1ba
100
AcDbEntity
  8
Ebene_1
 62
7
100
AcDbPolyline
 90
2
 70
0
 10
147.885150
 20
224.780745
 30
0.0
 10
140.534364
 20
232.290646
 30
0.0
  0
SPLINE
  5
1bb
100
AcDbEntity
  8
Ebene_1
 62
7
100
AcDbSpline
 70
8
 71
3
 72
8
 73
4
 74
0
 40
0
 40
0
 40
0
 40
0
 40
1
 40
1
 40
1
 40
1
 10
234.878986
 20
211.155986
 30
0.0
 10
234.878986
 20
211.155986
 30
0.0
 10
229.879790
 20
219.091428
 30
0.0
 10
225.217329
 20
223.670635
 30
0.0
  0
SPLINE
  5
1bc
100
AcDbEntity
  8
Ebene_1
 62
7
100
AcDbSpline
 70
8
 71
3
 72
8
 73
4
 74
0
 40
0
 40
0
 40
0
 40
0
 40
1
 40
1
 40
1
 40
1
 10
225.217329
 20
223.670635
 30
0.0
 10
220.841623
 20
227.968617
 30
0.0
 10
212.423296
 20
232.964114
 30
0.0
 10
212.423296
 20
232.964114
 30
0.0
  0
LWPOLYLINE
  5
1bd
100
AcDbEntity
  8
Ebene_1
 62
7
100
AcDbPolyline
 90
2
 70
0
 10
243.341737
 20
215.788849
 30
0.0
 10
234.878986
 20
211.155986
 30
0.0
  0
SPLINE
  5
1be
100
AcDbEntity
  8
Ebene_1
 62
7
100
AcDbSpline
 70
8
 71
3
 72
8
 73
4
 74
0
 40
0
 40
0
 40
0
 40
0
 40
1
 40
1
 40
1
 40
1
 10
190.953760
 20
184.307959
 30
0.0
 10
190.953760
 20
181.442024
 30
0.0
 10
188.578120
 20
179.084891
 30
0.0
 10
185.693685
 20
179.084891
 30
0.0
  0
SPLINE
  5
1bf
100
AcDbEntity
  8
Ebene_1
 62
7
100
AcDbSpline
 70
8
 71
3
 72
8
 73
4
 74
0
 40
0
 40
0
 40
0
 40
0
 40
1
 40
1
 40
1
 40
1
 10
185.693685
 20
179.084891
 30
0.0
 10
182.807398
 20
179.084891
 30
0.0
 10
180.431758
 20
181.442024
 30
0.0
 10
180.431758
 20
184.307959
 30
0.0
  0
SPLINE
  5
1c0
100
AcDbEntity
  8
Ebene_1
 62
7
100
AcDbSpline
 70
8
 71
3
 72
8
 73
4
 74
0
 40
0
 40
0
 40
0
 40
0
 40
1
 40
1
 40
1
 40
1
 10
180.431758
 20
184.307959
 30
0.0
 10
180.431758
 20
187.172044
 30
0.0
 10
182.807398
 20
189.529180
 30
0.0
 10
185.693685
 20
189.529180
 30
0.0
  0
SPLINE
  5
1c1
100
AcDbEntity
  8
Ebene_1
 62
7
100
AcDbSpline
 70
8
 71
3
 72
8
 73
4
 74
0
 40
0
 40
0
 40
0
 40
0
 40
1
 40
1
 40
1
 40
1
 10
185.693685
 20
189.529180
 30
0.0
 10
188.578120
 20
189.529180
 30
0.0
 10
190.953760
 20
187.172044
 30
0.0
 10
190.953760
 20
184.307959
 30
0.0
  0
LWPOLYLINE
  5
1c2
100
AcDbEntity
  8
Ebene_1
 62
7
100
AcDbPolyline
 90
2
 70
0
 10
212.423296
 20
232.964114
 30
0.0
 10
217.355896
 20
242.200234
 30
0.0
  0
ENDSEC
  0
SECTION
  2
OBJECTS
  0
DICTIONARY
  5
C
330
0
100
AcDbDictionary
  3
ACAD_GROUP
350
D
  3
ACAD_MLINESTYLE
350
17
  0
DICTIONARY
  5
D
330
C
100
AcDbDictionary
  0
DICTIONARY
  5
1A
330
C
100
AcDbDictionary
  0
DICTIONARY
  5
17
330
C
100
AcDbDictionary
  3
STANDARD
350
18
  0
DICTIONARY
  5
19
330
C
100
AcDbDictionary
  0
ENDSEC
  0
EOF
