<?xml version="1.0" encoding="UTF-8" standalone="no"?>
<svg
   xmlns:dc="http://purl.org/dc/elements/1.1/"
   xmlns:cc="http://creativecommons.org/ns#"
   xmlns:rdf="http://www.w3.org/1999/02/22-rdf-syntax-ns#"
   xmlns:svg="http://www.w3.org/2000/svg"
   xmlns="http://www.w3.org/2000/svg"
   xmlns:sodipodi="http://sodipodi.sourceforge.net/DTD/sodipodi-0.dtd"
   xmlns:inkscape="http://www.inkscape.org/namespaces/inkscape"
   width="200mm"
   height="230mm"
   viewBox="0 0 200 230"
   version="1.1"
   id="svg1079"
   inkscape:version="1.0.1 (3bc2e813f5, 2020-09-07)"
   sodipodi:docname="freifunk-schild.svg">
  <defs
     id="defs1073" />
  <sodipodi:namedview
     id="base"
     pagecolor="#ffffff"
     bordercolor="#666666"
     borderopacity="1.0"
     inkscape:pageopacity="0.0"
     inkscape:pageshadow="2"
     inkscape:zoom="0.66"
     inkscape:cx="361.61153"
     inkscape:cy="463.4178"
     inkscape:document-units="mm"
     inkscape:current-layer="layer1"
     inkscape:document-rotation="0"
     showgrid="false"
     showguides="true"
     inkscape:guide-bbox="true"
     inkscape:window-width="827"
     inkscape:window-height="819"
     inkscape:window-x="572"
     inkscape:window-y="2"
     inkscape:window-maximized="0">
    <sodipodi:guide
       position="387.80357,29.672619"
       orientation="0,-1"
       id="guide1081" />
  </sodipodi:namedview>
  <metadata
     id="metadata1076">
    <rdf:RDF>
      <cc:Work
         rdf:about="">
        <dc:format>image/svg+xml</dc:format>
        <dc:type
           rdf:resource="http://purl.org/dc/dcmitype/StillImage" />
        <dc:title></dc:title>
      </cc:Work>
    </rdf:RDF>
  </metadata>
  <g
     inkscape:label="Ebene 1"
     inkscape:groupmode="layer"
     id="layer1">
    <path
       id="path1707"
       style="fill:none;fill-opacity:1;stroke-width:9.41901;stroke-miterlimit:3.86369;stroke-dasharray:none"
       d="m -105.83334,32.505951 a 35.529762,35.529762 0 0 1 -35.52976,35.529762 35.529762,35.529762 0 0 1 -35.52976,-35.529762 35.529762,35.529762 0 0 1 35.52976,-35.5297623 35.529762,35.529762 0 0 1 35.52976,35.5297623 z" />
    <path
       id="path18"
       style="fill:none;stroke:#000067;stroke-width:1;stroke-linecap:butt;stroke-linejoin:miter;stroke-miterlimit:3.8636899;stroke-dasharray:none;stroke-opacity:1"
       d="m 32.233217,100.46642 c 0,-17.33832 13.996352,-31.39369 31.262178,-31.39369 17.26565,0 31.262113,14.05537 31.262113,31.39369 0,17.33867 -13.996462,31.39383 -31.262113,31.39383 -17.265826,0 -31.262178,-14.05516 -31.262178,-31.39383 z" />
    <path
       id="path20"
       style="fill:none;fill-opacity:1;fill-rule:nonzero;stroke:#000067;stroke-width:1;stroke-miterlimit:3.8636899;stroke-dasharray:none;stroke-opacity:1"
       d="m 103.56178,93.34066 13.23516,-13.29513 h 12.46435 l -8.82297,8.86354 17.66182,-2.7e-4 v 8.86249 l -17.66182,0.001 8.82297,8.86354 H 116.79694 L 103.56178,93.34066" />
    <path
       id="path22"
       style="fill:none;fill-opacity:1;fill-rule:nonzero;stroke:#000067;stroke-width:1;stroke-miterlimit:3.8636899;stroke-dasharray:none;stroke-opacity:1"
       d="m 64.305021,93.34066 -7.816674,-7.85213 h -7.361591 l 5.211022,5.23487 -10.430228,2.7e-4 v 5.23593 l 10.430228,-10e-4 -5.211022,5.23487 h 7.361591 l 7.816673,-7.85248" />
    <path
       id="path26"
       style="fill:none;stroke:#000067;stroke-width:1;stroke-linecap:butt;stroke-linejoin:miter;stroke-miterlimit:3.8636899;stroke-dasharray:none;stroke-opacity:1"
       d="m 85.60045,84.66656 c 0,-18.60232 15.01669,-33.68216 33.54106,-33.68216 18.52436,0 33.5407,15.07984 33.5407,33.68216 0,18.60233 -15.01634,33.68216 -33.5407,33.68216 -18.52437,0 -33.541061,-15.07983 -33.54106,-33.68216 z" />
    <path
       id="path1711"
       style="fill:none;fill-opacity:1;stroke:#000000;stroke-width:1;stroke-miterlimit:3.8636899;stroke-dasharray:none;stroke-opacity:1"
       d="m 167.80087,84.839355 a 48.559998,48.821098 0 0 1 -48.56,48.821095 48.559998,48.821098 0 0 1 -48.559998,-48.821095 48.559998,48.821098 0 0 1 48.559998,-48.821098 48.559998,48.821098 0 0 1 48.56,48.821098 z" />
    <path
       id="path1711-2"
       style="fill:none;fill-opacity:1;stroke:#000000;stroke-width:1;stroke-miterlimit:3.8636899;stroke-dasharray:none;stroke-opacity:1"
       d="M 157.76513,84.610931 A 38.804916,39.013557 0 0 1 118.96021,123.62449 38.804916,39.013557 0 0 1 80.155291,84.610931 38.804916,39.013557 0 0 1 118.96021,45.597374 38.804916,39.013557 0 0 1 157.76513,84.610931 Z" />
    <path
       d="m 30.343621,171.34041 h 4.975831 v -20.49669 h 1.554946 v -3.14058 h -1.554946 v -1.44636 c 0,-0.57853 0.103641,-1.15707 0.881135,-1.19838 h 0.673811 v -3.14062 h -2.798904 c -3.05806,0 -3.731873,1.23971 -3.731873,2.81003 v 2.97533 h -1.554948 v 3.14058 h 1.554948 v 20.49669"
       fill="#000000"
       fill-opacity="1"
       id="path1798"
       style="fill:none;stroke:#000000;stroke-width:1;stroke-miterlimit:4;stroke-dasharray:none;stroke-opacity:1" />
    <path
       d="m 38.272231,171.34041 h 4.975832 v -19.09167 c 0,-0.66119 0.05182,-1.44633 1.29579,-1.44633 1.036632,0 1.088464,0.78514 1.088464,1.44633 v 7.81021 h 4.975831 v -8.14081 c 0,-2.4794 0.10364,-4.50429 -3.835538,-4.50429 -1.347619,0 -2.695241,0.5372 -3.420883,1.65296 h -0.10364 v -1.36367 h -4.975831 v 23.63727"
       fill="#000000"
       fill-opacity="1"
       id="path1800"
       style="fill:none;stroke:#000000;stroke-width:1;stroke-miterlimit:4;stroke-dasharray:none;stroke-opacity:1" />
    <path
       d="m 60.007477,162.04251 v 5.5374 c 0,1.07443 -0.466483,1.15707 -1.192124,1.15707 -0.725643,0 -1.192126,-0.0825 -1.192126,-1.15707 v -7.52096 h 7.360085 v -8.678 c 0,-2.43814 -2.384258,-3.9671 -6.167959,-3.9671 -3.783703,0 -6.167958,1.52896 -6.167958,3.9671 v 16.28161 c 0,2.43809 2.384255,3.96711 6.167958,3.96711 3.783701,0 6.167959,-1.52902 6.167959,-3.96711 v -5.62005 h -4.975835 m 0,-4.75225 h -2.38425 v -5.82665 c 0,-1.07443 0.466483,-1.15709 1.192126,-1.15709 0.725641,0 1.192124,0.0825 1.192124,1.15709 v 5.82665"
       fill="#000000"
       fill-opacity="1"
       id="path1802"
       style="fill:none;stroke:#000000;stroke-width:1;stroke-miterlimit:4;stroke-dasharray:none;stroke-opacity:1" />
    <path
       d="m 72.309384,171.34041 v -23.63727 h -4.97583 v 23.63727 h 4.97583 m 0,-29.42263 h -4.97583 v 4.21501 h 4.97583 v -4.21501"
       fill="#000000"
       fill-opacity="1"
       id="path1804"
       style="fill:none;stroke:#000000;stroke-width:1;stroke-miterlimit:4;stroke-dasharray:none;stroke-opacity:1" />
    <path
       d="m 75.493786,171.34041 h 4.975831 v -20.49669 h 1.554952 v -3.14058 h -1.554952 v -1.44636 c 0,-0.57853 0.10364,-1.15707 0.88113,-1.19838 h 0.673822 v -3.14062 h -2.798903 c -3.058071,0 -3.73188,1.23971 -3.73188,2.81003 v 2.97533 h -1.554947 v 3.14058 h 1.554947 v 20.49669"
       fill="#000000"
       fill-opacity="1"
       id="path1806"
       style="fill:none;stroke:#000000;stroke-width:1;stroke-miterlimit:4;stroke-dasharray:none;stroke-opacity:1" />
    <path
       d="m 95.758306,147.70314 h -4.975831 v 19.09164 c 0,0.66118 -0.05182,1.44631 -1.295785,1.44631 -1.03663,0 -1.088464,-0.78513 -1.088464,-1.44631 v -19.09164 h -4.97583 v 19.42223 c 0,2.47939 -0.103641,4.5043 3.835533,4.5043 1.347618,0 2.69525,-0.53724 3.420879,-1.65296 h 0.10364 v 1.3637 h 4.975831 v -23.63727"
       fill="#000000"
       fill-opacity="1"
       id="path1808"
       style="fill:none;stroke:#000000;stroke-width:1;stroke-miterlimit:4;stroke-dasharray:none;stroke-opacity:1" />
    <path
       d="m 97.797557,171.34041 h 4.975833 v -19.09167 c 0,-0.66119 0.0518,-1.44633 1.2958,-1.44633 1.03663,0 1.08845,0.78514 1.08845,1.44633 v 19.09167 h 4.97584 v -19.6702 c 0,-2.47945 -0.0518,-4.25636 -3.83554,-4.25636 -1.34762,0 -2.69524,0.5372 -3.42088,1.65296 h -0.10364 v -1.36367 h -4.975833 v 23.63727"
       fill="#000000"
       fill-opacity="1"
       id="path1810"
       style="fill:none;stroke:#000000;stroke-width:1;stroke-miterlimit:4;stroke-dasharray:none;stroke-opacity:1" />
    <path
       d="m 117.25222,171.34041 v -12.43853 h 0.20732 l 2.74708,12.43853 h 5.07951 l -3.00624,-12.97573 2.85074,-10.66154 h -4.97583 l -2.69525,10.86818 h -0.20732 v -16.65354 h -4.97583 v 29.42263 h 4.97583"
       fill="#000000"
       fill-opacity="1"
       id="path1812"
       style="fill:none;stroke:#000000;stroke-width:1;stroke-miterlimit:4;stroke-dasharray:none;stroke-opacity:1" />
    <path
       d="m 132.40486,171.34041 v -4.58698 h -5.18316 v 4.58698 h 5.18316"
       fill="#000000"
       fill-opacity="1"
       id="path1814"
       style="fill:none;stroke:#000000;stroke-width:1;stroke-miterlimit:4;stroke-dasharray:none;stroke-opacity:1" />
    <path
       d="m 135.15276,171.34041 h 4.97583 v -19.09167 c 0,-0.66119 0.0518,-1.44633 1.29579,-1.44633 1.03663,0 1.08846,0.78514 1.08846,1.44633 v 19.09167 h 4.97584 v -19.6702 c 0,-2.47945 -0.0518,-4.25636 -3.83554,-4.25636 -1.34762,0 -2.69525,0.5372 -3.4209,1.65296 h -0.10364 v -1.36367 h -4.97583 v 23.63727"
       fill="#000000"
       fill-opacity="1"
       id="path1816"
       style="fill:none;stroke:#000000;stroke-width:1;stroke-miterlimit:4;stroke-dasharray:none;stroke-opacity:1" />
    <path
       d="m 156.88799,162.04251 v 5.5374 c 0,1.07443 -0.46646,1.15707 -1.19211,1.15707 -0.72565,0 -1.19215,-0.0825 -1.19215,-1.15707 v -7.52096 h 7.3601 v -8.678 c 0,-2.43814 -2.38426,-3.9671 -6.16795,-3.9671 -3.7837,0 -6.16796,1.52896 -6.16796,3.9671 v 16.28161 c 0,2.43809 2.38426,3.96711 6.16796,3.96711 3.78369,0 6.16795,-1.52902 6.16795,-3.96711 v -5.62005 h -4.97584 m 0,-4.75225 h -2.38426 v -5.82665 c 0,-1.07443 0.4665,-1.15709 1.19215,-1.15709 0.72565,0 1.19211,0.0825 1.19211,1.15709 v 5.82665"
       fill="#000000"
       fill-opacity="1"
       id="path1818"
       style="fill:none;stroke:#000000;stroke-width:1;stroke-miterlimit:4;stroke-dasharray:none;stroke-opacity:1" />
    <path
       d="m 169.60457,143.44676 h -4.97583 v 4.25638 h -1.4513 v 3.14058 h 1.4513 v 17.35608 c 0,0.90911 0.67378,3.14061 3.73186,3.14061 h 2.85073 v -3.14061 h -0.51832 c -0.51833,0 -1.08844,-0.12389 -1.08844,-1.90091 v -15.45517 h 1.60676 v -3.14058 h -1.60676 v -4.25638"
       fill="#000000"
       fill-opacity="1"
       id="path1820"
       style="fill:none;stroke:#000000;stroke-width:1;stroke-miterlimit:4;stroke-dasharray:none;stroke-opacity:1" />
  </g>
</svg>
