999
"DXF R12 Output" (www.mydxf.blogspot.com)
 0 
SECTION
 2 
HEADER
 9 
$ACADVER
 1 
AC1009
 9 
$EXTMIN
 10 
 0 
 20 
 0 
 9 
$EXTMAX
 10 
 8.5 
 20 
 11 
 0 
ENDSEC
 0 
SECTION
 2 
ENTITIES
0
LINE
8
Ebene 1
10
9.096920
20
36.557300
11
9.276167
21
38.342904
0
LINE
8
Ebene 1
10
9.276167
20
38.342904
11
9.790257
21
40.006017
0
LINE
8
Ebene 1
10
9.790257
20
40.006017
11
10.603714
21
41.511015
0
LINE
8
Ebene 1
10
10.603714
20
41.511015
11
11.681059
21
42.822267
0
LINE
8
Ebene 1
10
11.681059
20
42.822267
11
12.986816
21
43.904149
0
LINE
8
Ebene 1
10
12.986816
20
43.904149
11
14.485508
21
44.721031
0
LINE
8
Ebene 1
10
14.485508
20
44.721031
11
16.141659
21
45.237287
0
LINE
8
Ebene 1
10
16.141659
20
45.237287
11
17.919790
21
45.417290
0
LINE
8
Ebene 1
10
17.919790
20
45.417290
11
19.697909
21
45.237287
0
LINE
8
Ebene 1
10
19.697909
20
45.237287
11
21.354053
21
44.721031
0
LINE
8
Ebene 1
10
21.354053
20
44.721031
11
22.852743
21
43.904149
0
LINE
8
Ebene 1
10
22.852743
20
43.904149
11
24.158501
21
42.822267
0
LINE
8
Ebene 1
10
24.158501
20
42.822267
11
25.235849
21
41.511015
0
LINE
8
Ebene 1
10
25.235849
20
41.511015
11
26.049309
21
40.006017
0
LINE
8
Ebene 1
10
26.049309
20
40.006017
11
26.563402
21
38.342904
0
LINE
8
Ebene 1
10
26.563402
20
38.342904
11
26.742650
21
36.557300
0
LINE
8
Ebene 1
10
26.742650
20
36.557300
11
26.563402
21
34.771669
0
LINE
8
Ebene 1
10
26.563402
20
34.771669
11
26.049309
21
33.108538
0
LINE
8
Ebene 1
10
26.049309
20
33.108538
11
25.235849
21
31.603533
0
LINE
8
Ebene 1
10
25.235849
20
31.603533
11
24.158501
21
30.292279
0
LINE
8
Ebene 1
10
24.158501
20
30.292279
11
22.852743
21
29.210400
0
LINE
8
Ebene 1
10
22.852743
20
29.210400
11
21.354053
21
28.393522
0
LINE
8
Ebene 1
10
21.354053
20
28.393522
11
19.697909
21
27.877271
0
LINE
8
Ebene 1
10
19.697909
20
27.877271
11
17.919790
21
27.697270
0
LINE
8
Ebene 1
10
17.919790
20
27.697270
11
16.141656
21
27.877271
0
LINE
8
Ebene 1
10
16.141656
20
27.877271
11
14.485504
21
28.393522
0
LINE
8
Ebene 1
10
14.485504
20
28.393522
11
12.986812
21
29.210400
0
LINE
8
Ebene 1
10
12.986812
20
29.210400
11
11.681055
21
30.292279
0
LINE
8
Ebene 1
10
11.681055
20
30.292279
11
10.603711
21
31.603533
0
LINE
8
Ebene 1
10
10.603711
20
31.603533
11
9.790256
21
33.108538
0
LINE
8
Ebene 1
10
9.790256
20
33.108538
11
9.276167
21
34.771669
0
LINE
8
Ebene 1
10
9.276167
20
34.771669
11
9.096920
21
36.557300
0
LINE
8
Ebene 1
10
9.096920
20
36.557300
11
9.096920
21
36.557300
0
LINE
8
Ebene 1
10
29.227400
20
38.568300
11
32.962650
21
42.320480
0
LINE
8
Ebene 1
10
32.962650
20
42.320480
11
36.480400
21
42.320500
0
LINE
8
Ebene 1
10
36.480400
20
42.320500
11
33.990360
21
39.819010
0
LINE
8
Ebene 1
10
33.990360
20
39.819010
11
38.974910
21
39.819086
0
LINE
8
Ebene 1
10
38.974910
20
39.819086
11
38.974900
21
37.317900
0
LINE
8
Ebene 1
10
38.974900
20
37.317900
11
33.990350
21
37.317618
0
LINE
8
Ebene 1
10
33.990350
20
37.317618
11
36.480390
21
34.816128
0
LINE
8
Ebene 1
10
36.480390
20
34.816128
11
32.962700
21
34.816100
0
LINE
8
Ebene 1
10
32.962700
20
34.816100
11
29.227400
21
38.568300
0
LINE
8
Ebene 1
10
18.148300
20
38.568300
11
15.942260
21
40.784340
0
LINE
8
Ebene 1
10
15.942260
20
40.784340
11
13.864700
21
40.784400
0
LINE
8
Ebene 1
10
13.864700
20
40.784400
11
15.335370
21
39.307000
0
LINE
8
Ebene 1
10
15.335370
20
39.307000
11
12.391730
21
39.306924
0
LINE
8
Ebene 1
10
12.391730
20
39.306924
11
12.391700
21
37.829200
0
LINE
8
Ebene 1
10
12.391700
20
37.829200
11
15.335340
21
37.829482
0
LINE
8
Ebene 1
10
15.335340
20
37.829482
11
13.864670
21
36.352082
0
LINE
8
Ebene 1
10
13.864670
20
36.352082
11
15.942300
21
36.352100
0
LINE
8
Ebene 1
10
15.942300
20
36.352100
11
18.148340
21
38.568240
0
LINE
8
Ebene 1
10
24.158300
20
41.016300
11
24.350614
21
42.932073
0
LINE
8
Ebene 1
10
24.350614
20
42.932073
11
24.902181
21
44.716424
0
LINE
8
Ebene 1
10
24.902181
20
44.716424
11
25.774937
21
46.331130
0
LINE
8
Ebene 1
10
25.774937
20
46.331130
11
26.930819
21
47.737968
0
LINE
8
Ebene 1
10
26.930819
20
47.737968
11
28.331762
21
48.898712
0
LINE
8
Ebene 1
10
28.331762
20
48.898712
11
29.939705
21
49.775139
0
LINE
8
Ebene 1
10
29.939705
20
49.775139
11
31.716582
21
50.329027
0
LINE
8
Ebene 1
10
31.716582
20
50.329027
11
33.624330
21
50.522150
0
LINE
8
Ebene 1
10
33.624330
20
50.522150
11
35.532071
21
50.329027
0
LINE
8
Ebene 1
10
35.532071
20
50.329027
11
37.308934
21
49.775141
0
LINE
8
Ebene 1
10
37.308934
20
49.775141
11
38.916858
21
48.898714
0
LINE
8
Ebene 1
10
38.916858
20
48.898714
11
40.317782
21
47.737971
0
LINE
8
Ebene 1
10
40.317782
20
47.737971
11
41.473645
21
46.331135
0
LINE
8
Ebene 1
10
41.473645
20
46.331135
11
42.346385
21
44.716429
0
LINE
8
Ebene 1
10
42.346385
20
44.716429
11
42.897940
21
42.932076
0
LINE
8
Ebene 1
10
42.897940
20
42.932076
11
43.090250
21
41.016300
0
LINE
8
Ebene 1
10
43.090250
20
41.016300
11
42.897940
21
39.100524
0
LINE
8
Ebene 1
10
42.897940
20
39.100524
11
42.346385
21
37.316171
0
LINE
8
Ebene 1
10
42.346385
20
37.316171
11
41.473645
21
35.701465
0
LINE
8
Ebene 1
10
41.473645
20
35.701465
11
40.317782
21
34.294629
0
LINE
8
Ebene 1
10
40.317782
20
34.294629
11
38.916858
21
33.133886
0
LINE
8
Ebene 1
10
38.916858
20
33.133886
11
37.308934
21
32.257459
0
LINE
8
Ebene 1
10
37.308934
20
32.257459
11
35.532071
21
31.703573
0
LINE
8
Ebene 1
10
35.532071
20
31.703573
11
33.624330
21
31.510450
0
LINE
8
Ebene 1
10
33.624330
20
31.510450
11
31.716584
21
31.703573
0
LINE
8
Ebene 1
10
31.716584
20
31.703573
11
29.939709
21
32.257459
0
LINE
8
Ebene 1
10
29.939709
20
32.257459
11
28.331767
21
33.133886
0
LINE
8
Ebene 1
10
28.331767
20
33.133886
11
26.930823
21
34.294629
0
LINE
8
Ebene 1
10
26.930823
20
34.294629
11
25.774940
21
35.701465
0
LINE
8
Ebene 1
10
25.774940
20
35.701465
11
24.902183
21
37.316171
0
LINE
8
Ebene 1
10
24.902183
20
37.316171
11
24.350615
21
39.100524
0
LINE
8
Ebene 1
10
24.350615
20
39.100524
11
24.158300
21
41.016300
0
LINE
8
Ebene 1
10
24.158300
20
41.016300
11
24.158300
21
41.016300
0
LINE
8
Ebene 1
10
47.357100
20
40.967600
11
47.091335
21
38.267015
0
LINE
8
Ebene 1
10
47.091335
20
38.267015
11
46.313892
21
35.694835
0
LINE
8
Ebene 1
10
46.313892
20
35.694835
11
45.054549
21
33.323337
0
LINE
8
Ebene 1
10
45.054549
20
33.323337
11
43.343086
21
31.224800
0
LINE
8
Ebene 1
10
43.343086
20
31.224800
11
41.255774
21
29.504133
0
LINE
8
Ebene 1
10
41.255774
20
29.504133
11
38.896962
21
28.238018
0
LINE
8
Ebene 1
10
38.896962
20
28.238018
11
36.338540
21
27.456394
0
LINE
8
Ebene 1
10
36.338540
20
27.456394
11
33.652400
21
27.189200
0
LINE
8
Ebene 1
10
33.652400
20
27.189200
11
30.966260
21
27.456394
0
LINE
8
Ebene 1
10
30.966260
20
27.456394
11
28.407838
21
28.238018
0
LINE
8
Ebene 1
10
28.407838
20
28.238018
11
26.049026
21
29.504133
0
LINE
8
Ebene 1
10
26.049026
20
29.504133
11
23.961714
21
31.224800
0
LINE
8
Ebene 1
10
23.961714
20
31.224800
11
22.250251
21
33.323337
0
LINE
8
Ebene 1
10
22.250251
20
33.323337
11
20.990908
21
35.694835
0
LINE
8
Ebene 1
10
20.990908
20
35.694835
11
20.213465
21
38.267015
0
LINE
8
Ebene 1
10
20.213465
20
38.267015
11
19.947700
21
40.967600
0
LINE
8
Ebene 1
10
19.947700
20
40.967600
11
20.213465
21
43.668185
0
LINE
8
Ebene 1
10
20.213465
20
43.668185
11
20.990908
21
46.240365
0
LINE
8
Ebene 1
10
20.990908
20
46.240365
11
22.250251
21
48.611863
0
LINE
8
Ebene 1
10
22.250251
20
48.611863
11
23.961714
21
50.710400
0
LINE
8
Ebene 1
10
23.961714
20
50.710400
11
26.049026
21
52.431067
0
LINE
8
Ebene 1
10
26.049026
20
52.431067
11
28.407838
21
53.697182
0
LINE
8
Ebene 1
10
28.407838
20
53.697182
11
30.966260
21
54.478806
0
LINE
8
Ebene 1
10
30.966260
20
54.478806
11
33.652400
21
54.746000
0
LINE
8
Ebene 1
10
33.652400
20
54.746000
11
36.338540
21
54.478806
0
LINE
8
Ebene 1
10
36.338540
20
54.478806
11
38.896962
21
53.697182
0
LINE
8
Ebene 1
10
38.896962
20
53.697182
11
41.255774
21
52.431067
0
LINE
8
Ebene 1
10
41.255774
20
52.431067
11
43.343086
21
50.710400
0
LINE
8
Ebene 1
10
43.343086
20
50.710400
11
45.054549
21
48.611863
0
LINE
8
Ebene 1
10
45.054549
20
48.611863
11
46.313892
21
46.240365
0
LINE
8
Ebene 1
10
46.313892
20
46.240365
11
47.091335
21
43.668185
0
LINE
8
Ebene 1
10
47.091335
20
43.668185
11
47.357100
21
40.967600
0
LINE
8
Ebene 1
10
47.357100
20
40.967600
11
47.357100
21
40.967600
0
LINE
8
Ebene 1
10
44.524800
20
41.032000
11
44.312424
21
38.873927
0
LINE
8
Ebene 1
10
44.312424
20
38.873927
11
43.691159
21
36.818464
0
LINE
8
Ebene 1
10
43.691159
20
36.818464
11
42.684803
21
34.923369
0
LINE
8
Ebene 1
10
42.684803
20
34.923369
11
41.317151
21
33.246401
0
LINE
8
Ebene 1
10
41.317151
20
33.246401
11
39.649153
21
31.871393
0
LINE
8
Ebene 1
10
39.649153
20
31.871393
11
37.764196
21
30.859624
0
LINE
8
Ebene 1
10
37.764196
20
30.859624
11
35.719728
21
30.235019
0
LINE
8
Ebene 1
10
35.719728
20
30.235019
11
33.573200
21
30.021500
0
LINE
8
Ebene 1
10
33.573200
20
30.021500
11
31.426672
21
30.235019
0
LINE
8
Ebene 1
10
31.426672
20
30.235019
11
29.382204
21
30.859624
0
LINE
8
Ebene 1
10
29.382204
20
30.859624
11
27.497247
21
31.871393
0
LINE
8
Ebene 1
10
27.497247
20
31.871393
11
25.829249
21
33.246401
0
LINE
8
Ebene 1
10
25.829249
20
33.246401
11
24.461597
21
34.923369
0
LINE
8
Ebene 1
10
24.461597
20
34.923369
11
23.455241
21
36.818464
0
LINE
8
Ebene 1
10
23.455241
20
36.818464
11
22.833976
21
38.873927
0
LINE
8
Ebene 1
10
22.833976
20
38.873927
11
22.621600
21
41.032000
0
LINE
8
Ebene 1
10
22.621600
20
41.032000
11
22.833976
21
43.190073
0
LINE
8
Ebene 1
10
22.833976
20
43.190073
11
23.455241
21
45.245536
0
LINE
8
Ebene 1
10
23.455241
20
45.245536
11
24.461597
21
47.140631
0
LINE
8
Ebene 1
10
24.461597
20
47.140631
11
25.829249
21
48.817599
0
LINE
8
Ebene 1
10
25.829249
20
48.817599
11
27.497247
21
50.192607
0
LINE
8
Ebene 1
10
27.497247
20
50.192607
11
29.382204
21
51.204376
0
LINE
8
Ebene 1
10
29.382204
20
51.204376
11
31.426672
21
51.828981
0
LINE
8
Ebene 1
10
31.426672
20
51.828981
11
33.573200
21
52.042500
0
LINE
8
Ebene 1
10
33.573200
20
52.042500
11
35.719728
21
51.828981
0
LINE
8
Ebene 1
10
35.719728
20
51.828981
11
37.764196
21
51.204376
0
LINE
8
Ebene 1
10
37.764196
20
51.204376
11
39.649153
21
50.192607
0
LINE
8
Ebene 1
10
39.649153
20
50.192607
11
41.317151
21
48.817599
0
LINE
8
Ebene 1
10
41.317151
20
48.817599
11
42.684803
21
47.140631
0
LINE
8
Ebene 1
10
42.684803
20
47.140631
11
43.691159
21
45.245536
0
LINE
8
Ebene 1
10
43.691159
20
45.245536
11
44.312424
21
43.190073
0
LINE
8
Ebene 1
10
44.312424
20
43.190073
11
44.524800
21
41.032000
0
LINE
8
Ebene 1
10
44.524800
20
41.032000
11
44.524800
21
41.032000
0
LINE
8
Ebene 1
10
8.563640
20
16.555100
11
9.967930
21
16.555100
0
LINE
8
Ebene 1
10
9.967930
20
16.555100
11
9.967930
21
22.339700
0
LINE
8
Ebene 1
10
9.967930
20
22.339700
11
10.406800
21
22.339700
0
LINE
8
Ebene 1
10
10.406800
20
22.339700
11
10.406800
21
23.226000
0
LINE
8
Ebene 1
10
10.406800
20
23.226000
11
9.967930
21
23.226000
0
LINE
8
Ebene 1
10
9.967930
20
23.226000
11
9.967930
21
23.634200
0
LINE
8
Ebene 1
10
9.967930
20
23.634200
11
10.009983
21
23.860160
0
LINE
8
Ebene 1
10
10.009983
20
23.860160
11
10.216606
21
23.972409
0
LINE
8
Ebene 1
10
10.216606
20
23.972409
11
10.406800
21
23.972400
0
LINE
8
Ebene 1
10
10.406800
20
23.972400
11
10.406800
21
24.858800
0
LINE
8
Ebene 1
10
10.406800
20
24.858800
11
9.616850
21
24.858800
0
LINE
8
Ebene 1
10
9.616850
20
24.858800
11
9.088184
21
24.797208
0
LINE
8
Ebene 1
10
9.088184
20
24.797208
11
8.766595
21
24.628466
0
LINE
8
Ebene 1
10
8.766595
20
24.628466
11
8.563630
21
24.065748
0
LINE
8
Ebene 1
10
8.563630
20
24.065748
11
8.563640
21
23.226000
0
LINE
8
Ebene 1
10
8.563640
20
23.226000
11
8.124800
21
23.226000
0
LINE
8
Ebene 1
10
8.124800
20
23.226000
11
8.124800
21
22.339700
0
LINE
8
Ebene 1
10
8.124800
20
22.339700
11
8.563640
21
22.339700
0
LINE
8
Ebene 1
10
8.563640
20
22.339700
11
8.563640
21
16.555100
0
LINE
8
Ebene 1
10
10.801300
20
16.555100
11
12.205600
21
16.555100
0
LINE
8
Ebene 1
10
12.205600
20
16.555100
11
12.205600
21
21.943200
0
LINE
8
Ebene 1
10
12.205600
20
21.943200
11
12.256797
21
22.217269
0
LINE
8
Ebene 1
10
12.256797
20
22.217269
11
12.571300
21
22.351386
0
LINE
8
Ebene 1
10
12.571300
20
22.351386
11
12.834604
21
22.217269
0
LINE
8
Ebene 1
10
12.834604
20
22.217269
11
12.878488
21
21.943200
0
LINE
8
Ebene 1
10
12.878488
20
21.943200
11
12.878400
21
19.738900
0
LINE
8
Ebene 1
10
12.878400
20
19.738900
11
14.282700
21
19.738900
0
LINE
8
Ebene 1
10
14.282700
20
19.738900
11
14.282700
21
22.036500
0
LINE
8
Ebene 1
10
14.282700
20
22.036500
11
14.158360
21
22.934508
0
LINE
8
Ebene 1
10
14.158360
20
22.934508
11
13.838373
21
23.207485
0
LINE
8
Ebene 1
10
13.838373
20
23.207485
11
13.200230
21
23.307710
0
LINE
8
Ebene 1
10
13.200230
20
23.307710
11
12.651680
21
23.192543
0
LINE
8
Ebene 1
10
12.651680
20
23.192543
11
12.234782
21
22.841208
0
LINE
8
Ebene 1
10
12.234782
20
22.841208
11
12.205600
21
22.841200
0
LINE
8
Ebene 1
10
12.205600
20
22.841200
11
12.205600
21
23.226000
0
LINE
8
Ebene 1
10
12.205600
20
23.226000
11
10.801300
21
23.226000
0
LINE
8
Ebene 1
10
10.801300
20
23.226000
11
10.801300
21
16.555100
0
LINE
8
Ebene 1
10
16.935400
20
19.179100
11
16.935400
21
17.616400
0
LINE
8
Ebene 1
10
16.935400
20
17.616400
11
16.843975
21
17.339414
0
LINE
8
Ebene 1
10
16.843975
20
17.339414
11
16.598956
21
17.289849
0
LINE
8
Ebene 1
10
16.598956
20
17.289849
11
16.353937
21
17.339399
0
LINE
8
Ebene 1
10
16.353937
20
17.339399
11
16.262512
21
17.616400
0
LINE
8
Ebene 1
10
16.262512
20
17.616400
11
16.262500
21
19.738900
0
LINE
8
Ebene 1
10
16.262500
20
19.738900
11
18.339700
21
19.738900
0
LINE
8
Ebene 1
10
18.339700
20
19.738900
11
18.339700
21
22.188100
0
LINE
8
Ebene 1
10
18.339700
20
22.188100
11
18.217876
21
22.653328
0
LINE
8
Ebene 1
10
18.217876
20
22.653328
11
17.869775
21
23.005936
0
LINE
8
Ebene 1
10
17.869775
20
23.005936
11
17.321454
21
23.229526
0
LINE
8
Ebene 1
10
17.321454
20
23.229526
11
16.598970
21
23.307700
0
LINE
8
Ebene 1
10
16.598970
20
23.307700
11
15.876486
21
23.229526
0
LINE
8
Ebene 1
10
15.876486
20
23.229526
11
15.328165
21
23.005935
0
LINE
8
Ebene 1
10
15.328165
20
23.005935
11
14.980064
21
22.653327
0
LINE
8
Ebene 1
10
14.980064
20
22.653327
11
14.858240
21
22.188100
0
LINE
8
Ebene 1
10
14.858240
20
22.188100
11
14.858300
21
17.593000
0
LINE
8
Ebene 1
10
14.858300
20
17.593000
11
14.980124
21
17.127776
0
LINE
8
Ebene 1
10
14.980124
20
17.127776
11
15.328225
21
16.775164
0
LINE
8
Ebene 1
10
15.328225
20
16.775164
11
15.876546
21
16.551567
0
LINE
8
Ebene 1
10
15.876546
20
16.551567
11
16.599030
21
16.473390
0
LINE
8
Ebene 1
10
16.599030
20
16.473390
11
17.321514
21
16.551567
0
LINE
8
Ebene 1
10
17.321514
20
16.551567
11
17.869835
21
16.775162
0
LINE
8
Ebene 1
10
17.869835
20
16.775162
11
18.217936
21
17.127774
0
LINE
8
Ebene 1
10
18.217936
20
17.127774
11
18.339760
21
17.593000
0
LINE
8
Ebene 1
10
18.339760
20
17.593000
11
18.339700
21
19.179100
0
LINE
8
Ebene 1
10
18.339700
20
19.179100
11
16.935400
21
19.179100
0
LINE
8
Ebene 1
10
16.935400
20
20.520290
11
16.262500
21
20.520300
0
LINE
8
Ebene 1
10
16.262500
20
20.520300
11
16.262500
21
22.164700
0
LINE
8
Ebene 1
10
16.262500
20
22.164700
11
16.353925
21
22.441689
0
LINE
8
Ebene 1
10
16.353925
20
22.441689
11
16.598944
21
22.491256
0
LINE
8
Ebene 1
10
16.598944
20
22.491256
11
16.843963
21
22.441705
0
LINE
8
Ebene 1
10
16.843963
20
22.441705
11
16.935388
21
22.164700
0
LINE
8
Ebene 1
10
16.935388
20
22.164700
11
16.935400
21
20.520300
0
LINE
8
Ebene 1
10
20.407300
20
16.555100
11
20.407300
21
23.226000
0
LINE
8
Ebene 1
10
20.407300
20
23.226000
11
19.003000
21
23.226000
0
LINE
8
Ebene 1
10
19.003000
20
23.226000
11
19.003000
21
16.555100
0
LINE
8
Ebene 1
10
19.003000
20
16.555100
11
20.407300
21
16.555100
0
LINE
8
Ebene 1
10
20.407300
20
24.858810
11
19.003000
21
24.858800
0
LINE
8
Ebene 1
10
19.003000
20
24.858800
11
19.003000
21
23.669200
0
LINE
8
Ebene 1
10
19.003000
20
23.669200
11
20.407300
21
23.669200
0
LINE
8
Ebene 1
10
20.407300
20
23.669200
11
20.407300
21
24.858800
0
LINE
8
Ebene 1
10
21.306000
20
16.555100
11
22.710300
21
16.555100
0
LINE
8
Ebene 1
10
22.710300
20
16.555100
11
22.710300
21
22.339700
0
LINE
8
Ebene 1
10
22.710300
20
22.339700
11
23.149100
21
22.339700
0
LINE
8
Ebene 1
10
23.149100
20
22.339700
11
23.149100
21
23.226000
0
LINE
8
Ebene 1
10
23.149100
20
23.226000
11
22.710300
21
23.226000
0
LINE
8
Ebene 1
10
22.710300
20
23.226000
11
22.710300
21
23.634200
0
LINE
8
Ebene 1
10
22.710300
20
23.634200
11
22.752353
21
23.860160
0
LINE
8
Ebene 1
10
22.752353
20
23.860160
11
22.958974
21
23.972409
0
LINE
8
Ebene 1
10
22.958974
20
23.972409
11
23.149100
21
23.972400
0
LINE
8
Ebene 1
10
23.149100
20
23.972400
11
23.149100
21
24.858800
0
LINE
8
Ebene 1
10
23.149100
20
24.858800
11
22.359200
21
24.858800
0
LINE
8
Ebene 1
10
22.359200
20
24.858800
11
21.830533
21
24.797208
0
LINE
8
Ebene 1
10
21.830533
20
24.797208
11
21.508944
21
24.628466
0
LINE
8
Ebene 1
10
21.508944
20
24.628466
11
21.305980
21
24.065748
0
LINE
8
Ebene 1
10
21.305980
20
24.065748
11
21.306000
21
23.226000
0
LINE
8
Ebene 1
10
21.306000
20
23.226000
11
20.867200
21
23.226000
0
LINE
8
Ebene 1
10
20.867200
20
23.226000
11
20.867200
21
22.339700
0
LINE
8
Ebene 1
10
20.867200
20
22.339700
11
21.306000
21
22.339700
0
LINE
8
Ebene 1
10
21.306000
20
22.339700
11
21.306000
21
16.555100
0
LINE
8
Ebene 1
10
27.025100
20
23.226000
11
25.620800
21
23.226000
0
LINE
8
Ebene 1
10
25.620800
20
23.226000
11
25.620800
21
17.837900
0
LINE
8
Ebene 1
10
25.620800
20
17.837900
11
25.569603
21
17.563835
0
LINE
8
Ebene 1
10
25.569603
20
17.563835
11
25.255101
21
17.429719
0
LINE
8
Ebene 1
10
25.255101
20
17.429719
11
24.991797
21
17.563835
0
LINE
8
Ebene 1
10
24.991797
20
17.563835
11
24.947913
21
17.837900
0
LINE
8
Ebene 1
10
24.947913
20
17.837900
11
24.947900
21
23.226000
0
LINE
8
Ebene 1
10
24.947900
20
23.226000
11
23.543600
21
23.226000
0
LINE
8
Ebene 1
10
23.543600
20
23.226000
11
23.543600
21
17.744600
0
LINE
8
Ebene 1
10
23.543600
20
17.744600
11
23.667940
21
16.846593
0
LINE
8
Ebene 1
10
23.667940
20
16.846593
11
23.987927
21
16.573616
0
LINE
8
Ebene 1
10
23.987927
20
16.573616
11
24.626070
21
16.473390
0
LINE
8
Ebene 1
10
24.626070
20
16.473390
11
25.174621
21
16.588561
0
LINE
8
Ebene 1
10
25.174621
20
16.588561
11
25.591517
21
16.939892
0
LINE
8
Ebene 1
10
25.591517
20
16.939892
11
25.620800
21
16.939900
0
LINE
8
Ebene 1
10
25.620800
20
16.939900
11
25.620800
21
16.555100
0
LINE
8
Ebene 1
10
25.620800
20
16.555100
11
27.025100
21
16.555100
0
LINE
8
Ebene 1
10
27.025100
20
16.555100
11
27.025100
21
23.226000
0
LINE
8
Ebene 1
10
27.600600
20
16.555100
11
29.004900
21
16.555100
0
LINE
8
Ebene 1
10
29.004900
20
16.555100
11
29.004900
21
21.943200
0
LINE
8
Ebene 1
10
29.004900
20
21.943200
11
29.056095
21
22.217269
0
LINE
8
Ebene 1
10
29.056095
20
22.217269
11
29.370603
21
22.351386
0
LINE
8
Ebene 1
10
29.370603
20
22.351386
11
29.633906
21
22.217269
0
LINE
8
Ebene 1
10
29.633906
20
22.217269
11
29.677788
21
21.943200
0
LINE
8
Ebene 1
10
29.677788
20
21.943200
11
29.677800
21
16.555100
0
LINE
8
Ebene 1
10
29.677800
20
16.555100
11
31.082100
21
16.555100
0
LINE
8
Ebene 1
10
31.082100
20
16.555100
11
31.082100
21
22.106400
0
LINE
8
Ebene 1
10
31.082100
20
22.106400
11
31.063131
21
22.589303
0
LINE
8
Ebene 1
10
31.063131
20
22.589303
11
30.941309
21
22.969428
0
LINE
8
Ebene 1
10
30.941309
20
22.969428
11
30.619266
21
23.218349
0
LINE
8
Ebene 1
10
30.619266
20
23.218349
11
29.999630
21
23.307640
0
LINE
8
Ebene 1
10
29.999630
20
23.307640
11
29.451080
21
23.192473
0
LINE
8
Ebene 1
10
29.451080
20
23.192473
11
29.034182
21
22.841138
0
LINE
8
Ebene 1
10
29.034182
20
22.841138
11
29.004900
21
22.841200
0
LINE
8
Ebene 1
10
29.004900
20
22.841200
11
29.004900
21
23.226000
0
LINE
8
Ebene 1
10
29.004900
20
23.226000
11
27.600600
21
23.226000
0
LINE
8
Ebene 1
10
27.600600
20
23.226000
11
27.600600
21
16.555100
0
LINE
8
Ebene 1
10
33.091200
20
16.555100
11
33.091200
21
20.065500
0
LINE
8
Ebene 1
10
33.091200
20
20.065500
11
33.149700
21
20.065500
0
LINE
8
Ebene 1
10
33.149700
20
20.065500
11
33.924986
21
16.555070
0
LINE
8
Ebene 1
10
33.924986
20
16.555070
11
35.358500
21
16.555100
0
LINE
8
Ebene 1
10
35.358500
20
16.555100
11
34.510073
21
20.217140
0
LINE
8
Ebene 1
10
34.510073
20
20.217140
11
35.314615
21
23.226060
0
LINE
8
Ebene 1
10
35.314615
20
23.226060
11
33.910300
21
23.226000
0
LINE
8
Ebene 1
10
33.910300
20
23.226000
11
33.149641
21
20.158760
0
LINE
8
Ebene 1
10
33.149641
20
20.158760
11
33.091200
21
20.158800
0
LINE
8
Ebene 1
10
33.091200
20
20.158800
11
33.091200
21
24.858800
0
LINE
8
Ebene 1
10
33.091200
20
24.858800
11
31.686900
21
24.858800
0
LINE
8
Ebene 1
10
31.686900
20
24.858800
11
31.686900
21
16.555100
0
LINE
8
Ebene 1
10
31.686900
20
16.555100
11
33.091200
21
16.555100
0
LINE
8
Ebene 1
10
37.367600
20
16.555100
11
37.367600
21
17.849600
0
LINE
8
Ebene 1
10
37.367600
20
17.849600
11
35.904800
21
17.849600
0
LINE
8
Ebene 1
10
35.904800
20
17.849600
11
35.904800
21
16.555100
0
LINE
8
Ebene 1
10
35.904800
20
16.555100
11
37.367600
21
16.555100
0
LINE
8
Ebene 1
10
38.143100
20
16.555100
11
39.547400
21
16.555100
0
LINE
8
Ebene 1
10
39.547400
20
16.555100
11
39.547400
21
21.943200
0
LINE
8
Ebene 1
10
39.547400
20
21.943200
11
39.598595
21
22.217269
0
LINE
8
Ebene 1
10
39.598595
20
22.217269
11
39.913100
21
22.351386
0
LINE
8
Ebene 1
10
39.913100
20
22.351386
11
40.176404
21
22.217269
0
LINE
8
Ebene 1
10
40.176404
20
22.217269
11
40.220287
21
21.943200
0
LINE
8
Ebene 1
10
40.220287
20
21.943200
11
40.220300
21
16.555100
0
LINE
8
Ebene 1
10
40.220300
20
16.555100
11
41.624600
21
16.555100
0
LINE
8
Ebene 1
10
41.624600
20
16.555100
11
41.624600
21
22.106400
0
LINE
8
Ebene 1
10
41.624600
20
22.106400
11
41.605631
21
22.589303
0
LINE
8
Ebene 1
10
41.605631
20
22.589303
11
41.483809
21
22.969428
0
LINE
8
Ebene 1
10
41.483809
20
22.969428
11
41.161766
21
23.218349
0
LINE
8
Ebene 1
10
41.161766
20
23.218349
11
40.542130
21
23.307640
0
LINE
8
Ebene 1
10
40.542130
20
23.307640
11
39.993578
21
23.192473
0
LINE
8
Ebene 1
10
39.993578
20
23.192473
11
39.576677
21
22.841138
0
LINE
8
Ebene 1
10
39.576677
20
22.841138
11
39.547400
21
22.841200
0
LINE
8
Ebene 1
10
39.547400
20
22.841200
11
39.547400
21
23.226000
0
LINE
8
Ebene 1
10
39.547400
20
23.226000
11
38.143100
21
23.226000
0
LINE
8
Ebene 1
10
38.143100
20
23.226000
11
38.143100
21
16.555100
0
LINE
8
Ebene 1
10
44.277200
20
19.179100
11
44.277200
21
17.616400
0
LINE
8
Ebene 1
10
44.277200
20
17.616400
11
44.185778
21
17.339414
0
LINE
8
Ebene 1
10
44.185778
20
17.339414
11
43.940760
21
17.289849
0
LINE
8
Ebene 1
10
43.940760
20
17.289849
11
43.695737
21
17.339399
0
LINE
8
Ebene 1
10
43.695737
20
17.339399
11
43.604309
21
17.616400
0
LINE
8
Ebene 1
10
43.604309
20
17.616400
11
43.604400
21
19.738900
0
LINE
8
Ebene 1
10
43.604400
20
19.738900
11
45.681500
21
19.738900
0
LINE
8
Ebene 1
10
45.681500
20
19.738900
11
45.681500
21
22.188100
0
LINE
8
Ebene 1
10
45.681500
20
22.188100
11
45.559676
21
22.653328
0
LINE
8
Ebene 1
10
45.559676
20
22.653328
11
45.211575
21
23.005936
0
LINE
8
Ebene 1
10
45.211575
20
23.005936
11
44.663254
21
23.229526
0
LINE
8
Ebene 1
10
44.663254
20
23.229526
11
43.940770
21
23.307700
0
LINE
8
Ebene 1
10
43.940770
20
23.307700
11
43.218286
21
23.229526
0
LINE
8
Ebene 1
10
43.218286
20
23.229526
11
42.669965
21
23.005935
0
LINE
8
Ebene 1
10
42.669965
20
23.005935
11
42.321864
21
22.653327
0
LINE
8
Ebene 1
10
42.321864
20
22.653327
11
42.200040
21
22.188100
0
LINE
8
Ebene 1
10
42.200040
20
22.188100
11
42.200100
21
17.593000
0
LINE
8
Ebene 1
10
42.200100
20
17.593000
11
42.321924
21
17.127776
0
LINE
8
Ebene 1
10
42.321924
20
17.127776
11
42.670025
21
16.775164
0
LINE
8
Ebene 1
10
42.670025
20
16.775164
11
43.218346
21
16.551567
0
LINE
8
Ebene 1
10
43.218346
20
16.551567
11
43.940830
21
16.473390
0
LINE
8
Ebene 1
10
43.940830
20
16.473390
11
44.663314
21
16.551567
0
LINE
8
Ebene 1
10
44.663314
20
16.551567
11
45.211635
21
16.775162
0
LINE
8
Ebene 1
10
45.211635
20
16.775162
11
45.559736
21
17.127774
0
LINE
8
Ebene 1
10
45.559736
20
17.127774
11
45.681560
21
17.593000
0
LINE
8
Ebene 1
10
45.681560
20
17.593000
11
45.681500
21
19.179100
0
LINE
8
Ebene 1
10
45.681500
20
19.179100
11
44.277200
21
19.179100
0
LINE
8
Ebene 1
10
44.277200
20
20.520290
11
43.604400
21
20.520300
0
LINE
8
Ebene 1
10
43.604400
20
20.520300
11
43.604400
21
22.164700
0
LINE
8
Ebene 1
10
43.604400
20
22.164700
11
43.695828
21
22.441689
0
LINE
8
Ebene 1
10
43.695828
20
22.441689
11
43.940851
21
22.491256
0
LINE
8
Ebene 1
10
43.940851
20
22.491256
11
44.185869
21
22.441705
0
LINE
8
Ebene 1
10
44.185869
20
22.441705
11
44.277291
21
22.164700
0
LINE
8
Ebene 1
10
44.277291
20
22.164700
11
44.277200
21
20.520300
0
LINE
8
Ebene 1
10
47.866100
20
24.427300
11
46.461900
21
24.427300
0
LINE
8
Ebene 1
10
46.461900
20
24.427300
11
46.461900
21
23.226000
0
LINE
8
Ebene 1
10
46.461900
20
23.226000
11
46.052300
21
23.226000
0
LINE
8
Ebene 1
10
46.052300
20
23.226000
11
46.052300
21
22.339700
0
LINE
8
Ebene 1
10
46.052300
20
22.339700
11
46.461900
21
22.339700
0
LINE
8
Ebene 1
10
46.461900
20
22.339700
11
46.461900
21
17.441400
0
LINE
8
Ebene 1
10
46.461900
20
17.441400
11
46.664860
21
16.902011
0
LINE
8
Ebene 1
10
46.664860
20
16.902011
11
46.986445
21
16.657463
0
LINE
8
Ebene 1
10
46.986445
20
16.657463
11
47.515110
21
16.555051
0
LINE
8
Ebene 1
10
47.515110
20
16.555051
11
48.319600
21
16.555100
0
LINE
8
Ebene 1
10
48.319600
20
16.555100
11
48.319600
21
17.441400
0
LINE
8
Ebene 1
10
48.319600
20
17.441400
11
48.173300
21
17.441400
0
LINE
8
Ebene 1
10
48.173300
20
17.441400
11
47.964852
21
17.521572
0
LINE
8
Ebene 1
10
47.964852
20
17.521572
11
47.866118
21
17.977879
0
LINE
8
Ebene 1
10
47.866118
20
17.977879
11
47.866100
21
22.339700
0
LINE
8
Ebene 1
10
47.866100
20
22.339700
11
48.319600
21
22.339700
0
LINE
8
Ebene 1
10
48.319600
20
22.339700
11
48.319600
21
23.226000
0
LINE
8
Ebene 1
10
48.319600
20
23.226000
11
47.866100
21
23.226000
0
LINE
8
Ebene 1
10
47.866100
20
23.226000
11
47.866100
21
24.427300
 0 
ENDSEC
 0 
EOF