  0
SECTION
  2
HEADER
  9
$ACADVER
  1
AC1014
  9
$HANDSEED
  5
FFFF
  9
$MEASUREMENT
 70
     1
  0
ENDSEC
  0
SECTION
  2
TABLES
  0
TABLE
  2
VPORT
  5
8
330
0
100
AcDbSymbolTable
 70
     4
  0
VPORT
  5
2E
330
8
100
AcDbSymbolTableRecord
100
AcDbViewportTableRecord
  2
*ACTIVE
 70
     0
 10
0.0
 20
0.0
 11
1.0
 21
1.0
 12
210.0
 22
148.5
 13
0.0
 23
0.0
 14
10.0
 24
10.0
 15
10.0
 25
10.0
 16
0.0
 26
0.0
 36
1.0
 17
0.0
 27
0.0
 37
0.0
 40
341.0
 41
1.24
 42
50.0
 43
0.0
 44
0.0
 50
0.0
 51
0.0
 71
     0
 72
   100
 73
     1
 74
     3
 75
     0
 76
     0
 77
     0
 78
     0
  0
ENDTAB
  0
TABLE
  2
LTYPE
  5
5
330
0
100
AcDbSymbolTable
 70
     1
  0
LTYPE
  5
14
330
5
100
AcDbSymbolTableRecord
100
AcDbLinetypeTableRecord
  2
BYBLOCK
 70
     0
  3

 72
    65
 73
     0
 40
0.0
  0
LTYPE
  5
15
330
5
100
AcDbSymbolTableRecord
100
AcDbLinetypeTableRecord
  2
BYLAYER
 70
     0
  3

 72
    65
 73
     0
 40
0.0
  0
LTYPE
  5
16
330
5
100
AcDbSymbolTableRecord
100
AcDbLinetypeTableRecord
  2
CONTINUOUS
 70
     0
  3
Solid line
 72
    65
 73
     0
 40
0.0
  0
ENDTAB
  0
TABLE
  2
LAYER
  5
2
100
AcDbSymbolTable
 70
2
  0
LAYER
  5
50
100
AcDbSymbolTableRecord
100
AcDbLayerTableRecord
  2
0
 70
0
  6
CONTINUOUS
  0
LAYER
  5
51
100
AcDbSymbolTableRecord
100
AcDbLayerTableRecord
  2
Layer_1
 70
0
  6
CONTINUOUS
  0
ENDTAB
  0
TABLE
  2
STYLE
  5
3
330
0
100
AcDbSymbolTable
 70
     1
  0
STYLE
  5
11
330
3
100
AcDbSymbolTableRecord
100
AcDbTextStyleTableRecord
  2
STANDARD
 70
     0
 40
0.0
 41
1.0
 50
0.0
 71
     0
 42
2.5
  3
txt
  4

  0
ENDTAB
  0
TABLE
  2
VIEW
  5
6
330
0
100
AcDbSymbolTable
 70
     0
  0
ENDTAB
  0
TABLE
  2
UCS
  5
7
330
0
100
AcDbSymbolTable
 70
     0
  0
ENDTAB
  0
TABLE
  2
APPID
  5
9
330
0
100
AcDbSymbolTable
 70
     2
  0
APPID
  5
12
330
9
100
AcDbSymbolTableRecord
100
AcDbRegAppTableRecord
  2
ACAD
 70
     0
  0
ENDTAB
  0
TABLE
  2
DIMSTYLE
  5
A
330
0
100
AcDbSymbolTable
 70
     1
  0
DIMSTYLE
105
27
330
A
100
AcDbSymbolTableRecord
100
AcDbDimStyleTableRecord
  2
ISO-25
 70
     0
  3

  4

  5

  6

  7

 40
1.0
 41
2.5
 42
0.625
 43
3.75
 44
1.25
 45
0.0
 46
0.0
 47
0.0
 48
0.0
140
2.5
141
2.5
142
0.0
143
0.03937007874016
144
1.0
145
0.0
146
1.0
147
0.625
 71
     0
 72
     0
 73
     0
 74
     0
 75
     0
 76
     0
 77
     1
 78
     8
170
     0
171
     3
172
     1
173
     0
174
     0
175
     0
176
     0
177
     0
178
     0
270
     2
271
     2
272
     2
273
     2
274
     3
340
11
275
     0
280
     0
281
     0
282
     0
283
     0
284
     8
285
     0
286
     0
287
     3
288
     0
  0
ENDTAB
  0
TABLE
  2
BLOCK_RECORD
  5
1
330
0
100
AcDbSymbolTable
 70
     1
  0
BLOCK_RECORD
  5
1F
330
1
100
AcDbSymbolTableRecord
100
AcDbBlockTableRecord
  2
*MODEL_SPACE
  0
BLOCK_RECORD
  5
1B
330
1
100
AcDbSymbolTableRecord
100
AcDbBlockTableRecord
  2
*PAPER_SPACE
  0
ENDTAB
  0
ENDSEC
  0
SECTION
  2
BLOCKS
  0
BLOCK
  5
20
330
1F
100
AcDbEntity
  8
0
100
AcDbBlockBegin
  2
*MODEL_SPACE
 70
     0
 10
0.0
 20
0.0
 30
0.0
  3
*MODEL_SPACE
  1

  0
ENDBLK
  5
21
330
1F
100
AcDbEntity
  8
0
100
AcDbBlockEnd
  0
BLOCK
  5
1C
330
1B
100
AcDbEntity
 67
     1
  8
0
100
AcDbBlockBegin
  2
*PAPER_SPACE
  1

  0
ENDBLK
  5
1D
330
1B
100
AcDbEntity
 67
     1
  8
0
100
AcDbBlockEnd
  0
ENDSEC
  0
SECTION
  2
ENTITIES
  0
SPLINE
  5
100
100
AcDbEntity
  8
Layer_1
 62
7
100
AcDbSpline
 70
8
 71
3
 72
8
 73
4
 74
0
 40
0
 40
0
 40
0
 40
0
 40
1
 40
1
 40
1
 40
1
 10
88.867010
 20
469.883327
 30
0.0
 10
86.209114
 20
465.092063
 30
0.0
 10
84.880167
 20
459.840101
 30
0.0
 10
84.880167
 20
454.127441
 30
0.0
  0
SPLINE
  5
101
100
AcDbEntity
  8
Layer_1
 62
7
100
AcDbSpline
 70
8
 71
3
 72
8
 73
4
 74
0
 40
0
 40
0
 40
0
 40
0
 40
1
 40
1
 40
1
 40
1
 10
84.880167
 20
454.127441
 30
0.0
 10
84.880167
 20
445.834869
 30
0.0
 10
87.225368
 20
438.279415
 30
0.0
 10
91.915772
 20
431.461078
 30
0.0
  0
SPLINE
  5
102
100
AcDbEntity
  8
Layer_1
 62
7
100
AcDbSpline
 70
8
 71
3
 72
8
 73
4
 74
0
 40
0
 40
0
 40
0
 40
0
 40
1
 40
1
 40
1
 40
1
 10
91.915772
 20
431.461078
 30
0.0
 10
96.449828
 20
424.827021
 30
0.0
 10
102.703699
 20
419.114360
 30
0.0
 10
110.677384
 20
414.323097
 30
0.0
  0
SPLINE
  5
103
100
AcDbEntity
  8
Layer_1
 62
7
100
AcDbSpline
 70
8
 71
3
 72
8
 73
4
 74
0
 40
0
 40
0
 40
0
 40
0
 40
1
 40
1
 40
1
 40
1
 10
110.677384
 20
414.323097
 30
0.0
 10
118.651070
 20
409.531833
 30
0.0
 10
128.110049
 20
405.846246
 30
0.0
 10
139.054323
 20
403.266335
 30
0.0
  0
SPLINE
  5
104
100
AcDbEntity
  8
Layer_1
 62
7
100
AcDbSpline
 70
8
 71
3
 72
8
 73
4
 74
0
 40
0
 40
0
 40
0
 40
0
 40
1
 40
1
 40
1
 40
1
 10
139.054323
 20
403.266335
 30
0.0
 10
149.998597
 20
400.686423
 30
0.0
 10
161.802779
 20
399.396468
 30
0.0
 10
174.466867
 20
399.396468
 30
0.0
  0
SPLINE
  5
105
100
AcDbEntity
  8
Layer_1
 62
7
100
AcDbSpline
 70
8
 71
3
 72
8
 73
4
 74
0
 40
0
 40
0
 40
0
 40
0
 40
1
 40
1
 40
1
 40
1
 10
174.466867
 20
399.396468
 30
0.0
 10
180.251698
 20
399.396468
 30
0.0
 10
185.332968
 20
399.949306
 30
0.0
 10
189.710677
 20
401.054982
 30
0.0
  0
SPLINE
  5
106
100
AcDbEntity
  8
Layer_1
 62
7
100
AcDbSpline
 70
8
 71
3
 72
8
 73
4
 74
0
 40
0
 40
0
 40
0
 40
0
 40
1
 40
1
 40
1
 40
1
 10
189.710677
 20
401.054982
 30
0.0
 10
190.648758
 20
384.838398
 30
0.0
 10
194.948294
 20
372.860239
 30
0.0
 10
202.609286
 20
365.120505
 30
0.0
  0
SPLINE
  5
107
100
AcDbEntity
  8
Layer_1
 62
7
100
AcDbSpline
 70
8
 71
3
 72
8
 73
4
 74
0
 40
0
 40
0
 40
0
 40
0
 40
1
 40
1
 40
1
 40
1
 10
202.609286
 20
365.120505
 30
0.0
 10
210.270278
 20
357.565051
 30
0.0
 10
222.621673
 20
353.787324
 30
0.0
 10
239.663471
 20
353.787324
 30
0.0
  0
SPLINE
  5
108
100
AcDbEntity
  8
Layer_1
 62
7
100
AcDbSpline
 70
8
 71
3
 72
8
 73
4
 74
0
 40
0
 40
0
 40
0
 40
0
 40
1
 40
1
 40
1
 40
1
 10
239.663471
 20
353.787324
 30
0.0
 10
266.242422
 20
353.787324
 30
0.0
 10
279.531898
 20
376.914385
 30
0.0
 10
279.531898
 20
423.168507
 30
0.0
  0
SPLINE
  5
109
100
AcDbEntity
  8
Layer_1
 62
7
100
AcDbSpline
 70
8
 71
3
 72
8
 73
4
 74
0
 40
0
 40
0
 40
0
 40
0
 40
1
 40
1
 40
1
 40
1
 10
279.531898
 20
423.168507
 30
0.0
 10
279.531898
 20
443.992075
 30
0.0
 10
278.906510
 20
461.590755
 30
0.0
 10
277.655736
 20
475.964546
 30
0.0
  0
SPLINE
  5
10a
100
AcDbEntity
  8
Layer_1
 62
7
100
AcDbSpline
 70
8
 71
3
 72
8
 73
4
 74
0
 40
0
 40
0
 40
0
 40
0
 40
1
 40
1
 40
1
 40
1
 10
277.655736
 20
475.964546
 30
0.0
 10
276.404962
 20
490.338337
 30
0.0
 10
274.372454
 20
502.408636
 30
0.0
 10
271.558212
 20
512.175442
 30
0.0
  0
SPLINE
  5
10b
100
AcDbEntity
  8
Layer_1
 62
7
100
AcDbSpline
 70
8
 71
3
 72
8
 73
4
 74
0
 40
0
 40
0
 40
0
 40
0
 40
1
 40
1
 40
1
 40
1
 10
271.558212
 20
512.175442
 30
0.0
 10
268.587624
 20
522.126528
 30
0.0
 10
264.678954
 20
530.142681
 30
0.0
 10
259.832204
 20
536.223900
 30
0.0
  0
SPLINE
  5
10c
100
AcDbEntity
  8
Layer_1
 62
7
100
AcDbSpline
 70
8
 71
3
 72
8
 73
4
 74
0
 40
0
 40
0
 40
0
 40
0
 40
1
 40
1
 40
1
 40
1
 10
259.832204
 20
536.223900
 30
0.0
 10
254.985454
 20
542.489399
 30
0.0
 10
248.966104
 20
547.833500
 30
0.0
 10
241.774152
 20
552.256205
 30
0.0
  0
SPLINE
  5
10d
100
AcDbEntity
  8
Layer_1
 62
7
100
AcDbSpline
 70
8
 71
3
 72
8
 73
4
 74
0
 40
0
 40
0
 40
0
 40
0
 40
1
 40
1
 40
1
 40
1
 10
241.774152
 20
552.256205
 30
0.0
 10
226.608515
 20
561.470174
 30
0.0
 10
203.156500
 20
566.077158
 30
0.0
 10
171.418105
 20
566.077158
 30
0.0
  0
SPLINE
  5
10e
100
AcDbEntity
  8
Layer_1
 62
7
100
AcDbSpline
 70
8
 71
3
 72
8
 73
4
 74
0
 40
0
 40
0
 40
0
 40
0
 40
1
 40
1
 40
1
 40
1
 10
171.418105
 20
566.077158
 30
0.0
 10
152.656492
 20
566.077158
 30
0.0
 10
136.709122
 20
564.971482
 30
0.0
 10
123.575993
 20
562.760129
 30
0.0
  0
SPLINE
  5
10f
100
AcDbEntity
  8
Layer_1
 62
7
100
AcDbSpline
 70
8
 71
3
 72
8
 73
4
 74
0
 40
0
 40
0
 40
0
 40
0
 40
1
 40
1
 40
1
 40
1
 10
123.575993
 20
562.760129
 30
0.0
 10
110.442864
 20
560.548777
 30
0.0
 10
99.733110
 20
557.047469
 30
0.0
 10
91.446731
 20
552.256205
 30
0.0
  0
SPLINE
  5
110
100
AcDbEntity
  8
Layer_1
 62
7
100
AcDbSpline
 70
8
 71
3
 72
8
 73
4
 74
0
 40
0
 40
0
 40
0
 40
0
 40
1
 40
1
 40
1
 40
1
 10
91.446731
 20
552.256205
 30
0.0
 10
83.004006
 20
547.649221
 30
0.0
 10
76.906482
 20
541.752281
 30
0.0
 10
73.154159
 20
534.565386
 30
0.0
  0
SPLINE
  5
111
100
AcDbEntity
  8
Layer_1
 62
7
100
AcDbSpline
 70
8
 71
3
 72
8
 73
4
 74
0
 40
0
 40
0
 40
0
 40
0
 40
1
 40
1
 40
1
 40
1
 10
73.154159
 20
534.565386
 30
0.0
 10
69.401836
 20
527.378490
 30
0.0
 10
67.525675
 20
518.901639
 30
0.0
 10
67.525675
 20
509.134833
 30
0.0
  0
SPLINE
  5
112
100
AcDbEntity
  8
Layer_1
 62
7
100
AcDbSpline
 70
8
 71
3
 72
8
 73
4
 74
0
 40
0
 40
0
 40
0
 40
0
 40
1
 40
1
 40
1
 40
1
 10
67.525675
 20
509.134833
 30
0.0
 10
67.525675
 20
490.891175
 30
0.0
 10
74.639453
 20
477.807340
 30
0.0
 10
88.867010
 20
469.883327
 30
0.0
  0
SPLINE
  5
113
100
AcDbEntity
  8
Layer_1
 62
7
100
AcDbSpline
 70
8
 71
3
 72
8
 73
4
 74
0
 40
0
 40
0
 40
0
 40
0
 40
1
 40
1
 40
1
 40
1
 10
109.973824
 20
462.143593
 30
0.0
 10
128.422743
 20
459.747962
 30
0.0
 10
144.057420
 20
457.997308
 30
0.0
 10
156.877855
 20
456.891631
 30
0.0
  0
SPLINE
  5
114
100
AcDbEntity
  8
Layer_1
 62
7
100
AcDbSpline
 70
8
 71
3
 72
8
 73
4
 74
0
 40
0
 40
0
 40
0
 40
0
 40
1
 40
1
 40
1
 40
1
 10
156.877855
 20
456.891631
 30
0.0
 10
169.541944
 20
455.785955
 30
0.0
 10
179.860831
 20
455.233117
 30
0.0
 10
187.834516
 20
455.233117
 30
0.0
  0
LWPOLYLINE
  5
115
100
AcDbEntity
  8
Layer_1
 62
7
100
AcDbPolyline
 90
1
 70
1
 10
88.867010
 20
469.883327
 30
0.0
  0
SPLINE
  5
116
100
AcDbEntity
  8
Layer_1
 62
7
100
AcDbSpline
 70
8
 71
3
 72
8
 73
4
 74
0
 40
0
 40
0
 40
0
 40
0
 40
1
 40
1
 40
1
 40
1
 10
187.834516
 20
480.940089
 30
0.0
 10
122.168872
 20
480.940089
 30
0.0
 10
89.336050
 20
490.338337
 30
0.0
 10
89.336050
 20
509.134833
 30
0.0
  0
SPLINE
  5
117
100
AcDbEntity
  8
Layer_1
 62
7
100
AcDbSpline
 70
8
 71
3
 72
8
 73
4
 74
0
 40
0
 40
0
 40
0
 40
0
 40
1
 40
1
 40
1
 40
1
 10
89.336050
 20
509.134833
 30
0.0
 10
89.336050
 20
514.847493
 30
0.0
 10
90.743171
 20
519.638757
 30
0.0
 10
93.557413
 20
523.508624
 30
0.0
  0
SPLINE
  5
118
100
AcDbEntity
  8
Layer_1
 62
7
100
AcDbSpline
 70
8
 71
3
 72
8
 73
4
 74
0
 40
0
 40
0
 40
0
 40
0
 40
1
 40
1
 40
1
 40
1
 10
93.557413
 20
523.508624
 30
0.0
 10
96.371655
 20
527.562770
 30
0.0
 10
100.983884
 20
530.787659
 30
0.0
 10
107.394102
 20
533.183291
 30
0.0
  0
SPLINE
  5
119
100
AcDbEntity
  8
Layer_1
 62
7
100
AcDbSpline
 70
8
 71
3
 72
8
 73
4
 74
0
 40
0
 40
0
 40
0
 40
0
 40
1
 40
1
 40
1
 40
1
 10
107.394102
 20
533.183291
 30
0.0
 10
113.804320
 20
535.763202
 30
0.0
 10
122.247045
 20
537.605995
 30
0.0
 10
132.722279
 20
538.711672
 30
0.0
  0
SPLINE
  5
11a
100
AcDbEntity
  8
Layer_1
 62
7
100
AcDbSpline
 70
8
 71
3
 72
8
 73
4
 74
0
 40
0
 40
0
 40
0
 40
0
 40
1
 40
1
 40
1
 40
1
 10
132.722279
 20
538.711672
 30
0.0
 10
143.197513
 20
539.817348
 30
0.0
 10
156.096121
 20
540.370186
 30
0.0
 10
171.418105
 20
540.370186
 30
0.0
  0
SPLINE
  5
11b
100
AcDbEntity
  8
Layer_1
 62
7
100
AcDbSpline
 70
8
 71
3
 72
8
 73
4
 74
0
 40
0
 40
0
 40
0
 40
0
 40
1
 40
1
 40
1
 40
1
 10
171.418105
 20
540.370186
 30
0.0
 10
184.863927
 20
540.370186
 30
0.0
 10
196.355415
 20
539.633069
 30
0.0
 10
205.892568
 20
538.158834
 30
0.0
  0
SPLINE
  5
11c
100
AcDbEntity
  8
Layer_1
 62
7
100
AcDbSpline
 70
8
 71
3
 72
8
 73
4
 74
0
 40
0
 40
0
 40
0
 40
0
 40
1
 40
1
 40
1
 40
1
 10
205.892568
 20
538.158834
 30
0.0
 10
215.429721
 20
536.868878
 30
0.0
 10
223.403407
 20
534.473246
 30
0.0
 10
229.813624
 20
530.971938
 30
0.0
  0
SPLINE
  5
11d
100
AcDbEntity
  8
Layer_1
 62
7
100
AcDbSpline
 70
8
 71
3
 72
8
 73
4
 74
0
 40
0
 40
0
 40
0
 40
0
 40
1
 40
1
 40
1
 40
1
 10
229.813624
 20
530.971938
 30
0.0
 10
236.223842
 20
527.470630
 30
0.0
 10
241.305112
 20
522.863646
 30
0.0
 10
245.057434
 20
517.150985
 30
0.0
  0
SPLINE
  5
11e
100
AcDbEntity
  8
Layer_1
 62
7
100
AcDbSpline
 70
8
 71
3
 72
8
 73
4
 74
0
 40
0
 40
0
 40
0
 40
0
 40
1
 40
1
 40
1
 40
1
 10
245.057434
 20
517.150985
 30
0.0
 10
248.653410
 20
511.438325
 30
0.0
 10
251.389479
 20
504.159290
 30
0.0
 10
253.265640
 20
495.313880
 30
0.0
  0
SPLINE
  5
11f
100
AcDbEntity
  8
Layer_1
 62
7
100
AcDbSpline
 70
8
 71
3
 72
8
 73
4
 74
0
 40
0
 40
0
 40
0
 40
0
 40
1
 40
1
 40
1
 40
1
 10
253.265640
 20
495.313880
 30
0.0
 10
255.141801
 20
486.652750
 30
0.0
 10
256.392575
 20
476.333105
 30
0.0
 10
257.017962
 20
464.354946
 30
0.0
  0
SPLINE
  5
120
100
AcDbEntity
  8
Layer_1
 62
7
100
AcDbSpline
 70
8
 71
3
 72
8
 73
4
 74
0
 40
0
 40
0
 40
0
 40
0
 40
1
 40
1
 40
1
 40
1
 10
257.017962
 20
464.354946
 30
0.0
 10
257.487003
 20
452.561066
 30
0.0
 10
257.721523
 20
438.832253
 30
0.0
 10
257.721523
 20
423.168507
 30
0.0
  0
SPLINE
  5
121
100
AcDbEntity
  8
Layer_1
 62
7
100
AcDbSpline
 70
8
 71
3
 72
8
 73
4
 74
0
 40
0
 40
0
 40
0
 40
0
 40
1
 40
1
 40
1
 40
1
 10
257.721523
 20
423.168507
 30
0.0
 10
257.721523
 20
414.507376
 30
0.0
 10
257.408829
 20
407.320481
 30
0.0
 10
256.783442
 20
401.607820
 30
0.0
  0
SPLINE
  5
122
100
AcDbEntity
  8
Layer_1
 62
7
100
AcDbSpline
 70
8
 71
3
 72
8
 73
4
 74
0
 40
0
 40
0
 40
0
 40
0
 40
1
 40
1
 40
1
 40
1
 10
256.783442
 20
401.607820
 30
0.0
 10
256.158055
 20
396.079439
 30
0.0
 10
255.141801
 20
391.656734
 30
0.0
 10
253.734680
 20
388.339706
 30
0.0
  0
SPLINE
  5
123
100
AcDbEntity
  8
Layer_1
 62
7
100
AcDbSpline
 70
8
 71
3
 72
8
 73
4
 74
0
 40
0
 40
0
 40
0
 40
0
 40
1
 40
1
 40
1
 40
1
 10
253.734680
 20
388.339706
 30
0.0
 10
252.327559
 20
385.022677
 30
0.0
 10
250.529571
 20
382.719185
 30
0.0
 10
248.340717
 20
381.429229
 30
0.0
  0
SPLINE
  5
124
100
AcDbEntity
  8
Layer_1
 62
7
100
AcDbSpline
 70
8
 71
3
 72
8
 73
4
 74
0
 40
0
 40
0
 40
0
 40
0
 40
1
 40
1
 40
1
 40
1
 10
248.340717
 20
381.429229
 30
0.0
 10
245.995515
 20
380.139274
 30
0.0
 10
243.103100
 20
379.494296
 30
0.0
 10
239.663471
 20
379.494296
 30
0.0
  0
SPLINE
  5
125
100
AcDbEntity
  8
Layer_1
 62
7
100
AcDbSpline
 70
8
 71
3
 72
8
 73
4
 74
0
 40
0
 40
0
 40
0
 40
0
 40
1
 40
1
 40
1
 40
1
 10
239.663471
 20
379.494296
 30
0.0
 10
221.058205
 20
379.494296
 30
0.0
 10
211.755572
 20
384.746258
 30
0.0
 10
211.755572
 20
395.250182
 30
0.0
  0
SPLINE
  5
126
100
AcDbEntity
  8
Layer_1
 62
7
100
AcDbSpline
 70
8
 71
3
 72
8
 73
4
 74
0
 40
0
 40
0
 40
0
 40
0
 40
1
 40
1
 40
1
 40
1
 10
211.755572
 20
395.250182
 30
0.0
 10
211.755572
 20
396.724417
 30
0.0
 10
211.599225
 20
398.567211
 30
0.0
 10
211.286532
 20
400.778563
 30
0.0
  0
SPLINE
  5
127
100
AcDbEntity
  8
Layer_1
 62
7
100
AcDbSpline
 70
8
 71
3
 72
8
 73
4
 74
0
 40
0
 40
0
 40
0
 40
0
 40
1
 40
1
 40
1
 40
1
 10
211.286532
 20
400.778563
 30
0.0
 10
210.817491
 20
403.174195
 30
0.0
 10
210.426625
 20
405.569827
 30
0.0
 10
210.113931
 20
407.965459
 30
0.0
  0
SPLINE
  5
128
100
AcDbEntity
  8
Layer_1
 62
7
100
AcDbSpline
 70
8
 71
3
 72
8
 73
4
 74
0
 40
0
 40
0
 40
0
 40
0
 40
1
 40
1
 40
1
 40
1
 10
210.113931
 20
407.965459
 30
0.0
 10
209.644891
 20
410.545370
 30
0.0
 10
209.254024
 20
413.033141
 30
0.0
 10
208.941330
 20
415.428773
 30
0.0
  0
SPLINE
  5
129
100
AcDbEntity
  8
Layer_1
 62
7
100
AcDbSpline
 70
8
 71
3
 72
8
 73
4
 74
0
 40
0
 40
0
 40
0
 40
0
 40
1
 40
1
 40
1
 40
1
 10
208.941330
 20
415.428773
 30
0.0
 10
208.472290
 20
417.824405
 30
0.0
 10
208.237770
 20
419.943618
 30
0.0
 10
208.237770
 20
421.786411
 30
0.0
  0
LWPOLYLINE
  5
12a
100
AcDbEntity
  8
Layer_1
 62
7
100
AcDbPolyline
 90
2
 70
0
 10
187.834516
 20
455.233117
 30
0.0
 10
187.834516
 20
480.940089
 30
0.0
  0
SPLINE
  5
12b
100
AcDbEntity
  8
Layer_1
 62
7
100
AcDbSpline
 70
8
 71
3
 72
8
 73
4
 74
0
 40
0
 40
0
 40
0
 40
0
 40
1
 40
1
 40
1
 40
1
 10
208.237770
 20
424.274183
 30
0.0
 10
208.237770
 20
425.011300
 30
0.0
 10
208.315943
 20
425.840557
 30
0.0
 10
208.472290
 20
426.761954
 30
0.0
  0
SPLINE
  5
12c
100
AcDbEntity
  8
Layer_1
 62
7
100
AcDbSpline
 70
8
 71
3
 72
8
 73
4
 74
0
 40
0
 40
0
 40
0
 40
0
 40
1
 40
1
 40
1
 40
1
 10
208.472290
 20
426.761954
 30
0.0
 10
204.719967
 20
426.393396
 30
0.0
 10
200.967645
 20
426.116977
 30
0.0
 10
197.215322
 20
425.932697
 30
0.0
  0
SPLINE
  5
12d
100
AcDbEntity
  8
Layer_1
 62
7
100
AcDbSpline
 70
8
 71
3
 72
8
 73
4
 74
0
 40
0
 40
0
 40
0
 40
0
 40
1
 40
1
 40
1
 40
1
 10
197.215322
 20
425.932697
 30
0.0
 10
193.306653
 20
425.748418
 30
0.0
 10
189.319810
 20
425.656278
 30
0.0
 10
185.254794
 20
425.656278
 30
0.0
  0
SPLINE
  5
12e
100
AcDbEntity
  8
Layer_1
 62
7
100
AcDbSpline
 70
8
 71
3
 72
8
 73
4
 74
0
 40
0
 40
0
 40
0
 40
0
 40
1
 40
1
 40
1
 40
1
 10
185.254794
 20
425.656278
 30
0.0
 10
173.059746
 20
425.656278
 30
0.0
 10
162.115472
 20
426.301256
 30
0.0
 10
152.421972
 20
427.591212
 30
0.0
  0
SPLINE
  5
12f
100
AcDbEntity
  8
Layer_1
 62
7
100
AcDbSpline
 70
8
 71
3
 72
8
 73
4
 74
0
 40
0
 40
0
 40
0
 40
0
 40
1
 40
1
 40
1
 40
1
 10
152.421972
 20
427.591212
 30
0.0
 10
142.728472
 20
428.881167
 30
0.0
 10
134.520267
 20
430.723961
 30
0.0
 10
127.797356
 20
433.119593
 30
0.0
  0
SPLINE
  5
130
100
AcDbEntity
  8
Layer_1
 62
7
100
AcDbSpline
 70
8
 71
3
 72
8
 73
4
 74
0
 40
0
 40
0
 40
0
 40
0
 40
1
 40
1
 40
1
 40
1
 10
127.797356
 20
433.119593
 30
0.0
 10
120.918098
 20
435.699504
 30
0.0
 10
115.680481
 20
438.740113
 30
0.0
 10
112.084505
 20
442.241421
 30
0.0
  0
SPLINE
  5
131
100
AcDbEntity
  8
Layer_1
 62
7
100
AcDbSpline
 70
8
 71
3
 72
8
 73
4
 74
0
 40
0
 40
0
 40
0
 40
0
 40
1
 40
1
 40
1
 40
1
 10
112.084505
 20
442.241421
 30
0.0
 10
108.332183
 20
445.742729
 30
0.0
 10
106.456021
 20
449.704736
 30
0.0
 10
106.456021
 20
454.127441
 30
0.0
  0
LWPOLYLINE
  5
132
100
AcDbEntity
  8
Layer_1
 62
7
100
AcDbPolyline
 90
2
 70
0
 10
208.237770
 20
421.786411
 30
0.0
 10
208.237770
 20
424.274183
 30
0.0
  0
SPLINE
  5
133
100
AcDbEntity
  8
Layer_1
 62
7
100
AcDbSpline
 70
8
 71
3
 72
8
 73
4
 74
0
 40
0
 40
0
 40
0
 40
0
 40
1
 40
1
 40
1
 40
1
 10
478.053258
 20
469.883327
 30
0.0
 10
480.711153
 20
465.092063
 30
0.0
 10
482.040100
 20
459.840101
 30
0.0
 10
482.040100
 20
454.127441
 30
0.0
  0
SPLINE
  5
134
100
AcDbEntity
  8
Layer_1
 62
7
100
AcDbSpline
 70
8
 71
3
 72
8
 73
4
 74
0
 40
0
 40
0
 40
0
 40
0
 40
1
 40
1
 40
1
 40
1
 10
482.040100
 20
454.127441
 30
0.0
 10
482.040100
 20
445.834869
 30
0.0
 10
479.694899
 20
438.279415
 30
0.0
 10
475.004496
 20
431.461078
 30
0.0
  0
SPLINE
  5
135
100
AcDbEntity
  8
Layer_1
 62
7
100
AcDbSpline
 70
8
 71
3
 72
8
 73
4
 74
0
 40
0
 40
0
 40
0
 40
0
 40
1
 40
1
 40
1
 40
1
 10
475.004496
 20
431.461078
 30
0.0
 10
470.470439
 20
424.827021
 30
0.0
 10
464.216568
 20
419.114360
 30
0.0
 10
456.242883
 20
414.323097
 30
0.0
  0
SPLINE
  5
136
100
AcDbEntity
  8
Layer_1
 62
7
100
AcDbSpline
 70
8
 71
3
 72
8
 73
4
 74
0
 40
0
 40
0
 40
0
 40
0
 40
1
 40
1
 40
1
 40
1
 10
456.242883
 20
414.323097
 30
0.0
 10
448.269198
 20
409.531833
 30
0.0
 10
438.810218
 20
405.846246
 30
0.0
 10
427.865944
 20
403.266335
 30
0.0
  0
SPLINE
  5
137
100
AcDbEntity
  8
Layer_1
 62
7
100
AcDbSpline
 70
8
 71
3
 72
8
 73
4
 74
0
 40
0
 40
0
 40
0
 40
0
 40
1
 40
1
 40
1
 40
1
 10
427.865944
 20
403.266335
 30
0.0
 10
416.921670
 20
400.686423
 30
0.0
 10
405.117473
 20
399.396468
 30
0.0
 10
392.453353
 20
399.396468
 30
0.0
  0
SPLINE
  5
138
100
AcDbEntity
  8
Layer_1
 62
7
100
AcDbSpline
 70
8
 71
3
 72
8
 73
4
 74
0
 40
0
 40
0
 40
0
 40
0
 40
1
 40
1
 40
1
 40
1
 10
392.453353
 20
399.396468
 30
0.0
 10
386.668523
 20
399.396468
 30
0.0
 10
381.587253
 20
399.949306
 30
0.0
 10
377.209543
 20
401.054982
 30
0.0
  0
SPLINE
  5
139
100
AcDbEntity
  8
Layer_1
 62
7
100
AcDbSpline
 70
8
 71
3
 72
8
 73
4
 74
0
 40
0
 40
0
 40
0
 40
0
 40
1
 40
1
 40
1
 40
1
 10
377.209543
 20
401.054982
 30
0.0
 10
376.271463
 20
384.838398
 30
0.0
 10
371.971926
 20
372.860239
 30
0.0
 10
364.310935
 20
365.120505
 30
0.0
  0
SPLINE
  5
13a
100
AcDbEntity
  8
Layer_1
 62
7
100
AcDbSpline
 70
8
 71
3
 72
8
 73
4
 74
0
 40
0
 40
0
 40
0
 40
0
 40
1
 40
1
 40
1
 40
1
 10
364.310935
 20
365.120505
 30
0.0
 10
356.649943
 20
357.565051
 30
0.0
 10
344.298548
 20
353.787324
 30
0.0
 10
327.256750
 20
353.787324
 30
0.0
  0
SPLINE
  5
13b
100
AcDbEntity
  8
Layer_1
 62
7
100
AcDbSpline
 70
8
 71
3
 72
8
 73
4
 74
0
 40
0
 40
0
 40
0
 40
0
 40
1
 40
1
 40
1
 40
1
 10
327.256750
 20
353.787324
 30
0.0
 10
300.677798
 20
353.787324
 30
0.0
 10
287.388323
 20
376.914385
 30
0.0
 10
287.388323
 20
423.168507
 30
0.0
  0
SPLINE
  5
13c
100
AcDbEntity
  8
Layer_1
 62
7
100
AcDbSpline
 70
8
 71
3
 72
8
 73
4
 74
0
 40
0
 40
0
 40
0
 40
0
 40
1
 40
1
 40
1
 40
1
 10
287.388323
 20
423.168507
 30
0.0
 10
287.388323
 20
443.992075
 30
0.0
 10
288.013710
 20
461.590755
 30
0.0
 10
289.264484
 20
475.964546
 30
0.0
  0
SPLINE
  5
13d
100
AcDbEntity
  8
Layer_1
 62
7
100
AcDbSpline
 70
8
 71
3
 72
8
 73
4
 74
0
 40
0
 40
0
 40
0
 40
0
 40
1
 40
1
 40
1
 40
1
 10
289.264484
 20
475.964546
 30
0.0
 10
290.515258
 20
490.338337
 30
0.0
 10
292.547766
 20
502.408636
 30
0.0
 10
295.362008
 20
512.175442
 30
0.0
  0
SPLINE
  5
13e
100
AcDbEntity
  8
Layer_1
 62
7
100
AcDbSpline
 70
8
 71
3
 72
8
 73
4
 74
0
 40
0
 40
0
 40
0
 40
0
 40
1
 40
1
 40
1
 40
1
 10
295.362008
 20
512.175442
 30
0.0
 10
298.332597
 20
522.126528
 30
0.0
 10
302.241266
 20
530.142681
 30
0.0
 10
307.088016
 20
536.223900
 30
0.0
  0
SPLINE
  5
13f
100
AcDbEntity
  8
Layer_1
 62
7
100
AcDbSpline
 70
8
 71
3
 72
8
 73
4
 74
0
 40
0
 40
0
 40
0
 40
0
 40
1
 40
1
 40
1
 40
1
 10
307.088016
 20
536.223900
 30
0.0
 10
311.934766
 20
542.489399
 30
0.0
 10
317.954117
 20
547.833500
 30
0.0
 10
325.146068
 20
552.256205
 30
0.0
  0
SPLINE
  5
140
100
AcDbEntity
  8
Layer_1
 62
7
100
AcDbSpline
 70
8
 71
3
 72
8
 73
4
 74
0
 40
0
 40
0
 40
0
 40
0
 40
1
 40
1
 40
1
 40
1
 10
325.146068
 20
552.256205
 30
0.0
 10
340.311705
 20
561.470174
 30
0.0
 10
363.763721
 20
566.077158
 30
0.0
 10
395.502115
 20
566.077158
 30
0.0
  0
SPLINE
  5
141
100
AcDbEntity
  8
Layer_1
 62
7
100
AcDbSpline
 70
8
 71
3
 72
8
 73
4
 74
0
 40
0
 40
0
 40
0
 40
0
 40
1
 40
1
 40
1
 40
1
 10
395.502115
 20
566.077158
 30
0.0
 10
414.263759
 20
566.077158
 30
0.0
 10
430.211146
 20
564.971482
 30
0.0
 10
443.344274
 20
562.760129
 30
0.0
  0
SPLINE
  5
142
100
AcDbEntity
  8
Layer_1
 62
7
100
AcDbSpline
 70
8
 71
3
 72
8
 73
4
 74
0
 40
0
 40
0
 40
0
 40
0
 40
1
 40
1
 40
1
 40
1
 10
443.344274
 20
562.760129
 30
0.0
 10
456.477403
 20
560.548777
 30
0.0
 10
467.187157
 20
557.047469
 30
0.0
 10
475.473536
 20
552.256205
 30
0.0
  0
SPLINE
  5
143
100
AcDbEntity
  8
Layer_1
 62
7
100
AcDbSpline
 70
8
 71
3
 72
8
 73
4
 74
0
 40
0
 40
0
 40
0
 40
0
 40
1
 40
1
 40
1
 40
1
 10
475.473536
 20
552.256205
 30
0.0
 10
483.916262
 20
547.649221
 30
0.0
 10
490.013786
 20
541.752281
 30
0.0
 10
493.766108
 20
534.565386
 30
0.0
  0
SPLINE
  5
144
100
AcDbEntity
  8
Layer_1
 62
7
100
AcDbSpline
 70
8
 71
3
 72
8
 73
4
 74
0
 40
0
 40
0
 40
0
 40
0
 40
1
 40
1
 40
1
 40
1
 10
493.766108
 20
534.565386
 30
0.0
 10
497.518431
 20
527.378490
 30
0.0
 10
499.394592
 20
518.901639
 30
0.0
 10
499.394592
 20
509.134833
 30
0.0
  0
SPLINE
  5
145
100
AcDbEntity
  8
Layer_1
 62
7
100
AcDbSpline
 70
8
 71
3
 72
8
 73
4
 74
0
 40
0
 40
0
 40
0
 40
0
 40
1
 40
1
 40
1
 40
1
 10
499.394592
 20
509.134833
 30
0.0
 10
499.394592
 20
490.891175
 30
0.0
 10
492.280814
 20
477.807340
 30
0.0
 10
478.053258
 20
469.883327
 30
0.0
  0
LWPOLYLINE
  5
146
100
AcDbEntity
  8
Layer_1
 62
7
100
AcDbPolyline
 90
2
 70
0
 10
106.456021
 20
454.127441
 30
0.0
 10
109.973824
 20
462.143593
 30
0.0
  0
SPLINE
  5
147
100
AcDbEntity
  8
Layer_1
 62
7
100
AcDbSpline
 70
8
 71
3
 72
8
 73
4
 74
0
 40
0
 40
0
 40
0
 40
0
 40
1
 40
1
 40
1
 40
1
 10
456.946444
 20
462.143593
 30
0.0
 10
438.497525
 20
459.747962
 30
0.0
 10
422.862847
 20
457.997308
 30
0.0
 10
410.042412
 20
456.891631
 30
0.0
  0
SPLINE
  5
148
100
AcDbEntity
  8
Layer_1
 62
7
100
AcDbSpline
 70
8
 71
3
 72
8
 73
4
 74
0
 40
0
 40
0
 40
0
 40
0
 40
1
 40
1
 40
1
 40
1
 10
410.042412
 20
456.891631
 30
0.0
 10
397.378292
 20
455.785955
 30
0.0
 10
387.059390
 20
455.233117
 30
0.0
 10
379.085704
 20
455.233117
 30
0.0
  0
LWPOLYLINE
  5
149
100
AcDbEntity
  8
Layer_1
 62
7
100
AcDbPolyline
 90
1
 70
1
 10
478.053258
 20
469.883327
 30
0.0
  0
SPLINE
  5
14a
100
AcDbEntity
  8
Layer_1
 62
7
100
AcDbSpline
 70
8
 71
3
 72
8
 73
4
 74
0
 40
0
 40
0
 40
0
 40
0
 40
1
 40
1
 40
1
 40
1
 10
379.085704
 20
480.940089
 30
0.0
 10
444.751380
 20
480.940089
 30
0.0
 10
477.584217
 20
490.338337
 30
0.0
 10
477.584217
 20
509.134833
 30
0.0
  0
SPLINE
  5
14b
100
AcDbEntity
  8
Layer_1
 62
7
100
AcDbSpline
 70
8
 71
3
 72
8
 73
4
 74
0
 40
0
 40
0
 40
0
 40
0
 40
1
 40
1
 40
1
 40
1
 10
477.584217
 20
509.134833
 30
0.0
 10
477.584217
 20
514.847493
 30
0.0
 10
476.177097
 20
519.638757
 30
0.0
 10
473.362855
 20
523.508624
 30
0.0
  0
SPLINE
  5
14c
100
AcDbEntity
  8
Layer_1
 62
7
100
AcDbSpline
 70
8
 71
3
 72
8
 73
4
 74
0
 40
0
 40
0
 40
0
 40
0
 40
1
 40
1
 40
1
 40
1
 10
473.362855
 20
523.508624
 30
0.0
 10
470.548613
 20
527.562770
 30
0.0
 10
465.936383
 20
530.787659
 30
0.0
 10
459.526165
 20
533.183291
 30
0.0
  0
SPLINE
  5
14d
100
AcDbEntity
  8
Layer_1
 62
7
100
AcDbSpline
 70
8
 71
3
 72
8
 73
4
 74
0
 40
0
 40
0
 40
0
 40
0
 40
1
 40
1
 40
1
 40
1
 10
459.526165
 20
533.183291
 30
0.0
 10
453.115948
 20
535.763202
 30
0.0
 10
444.673222
 20
537.605995
 30
0.0
 10
434.197988
 20
538.711672
 30
0.0
  0
SPLINE
  5
14e
100
AcDbEntity
  8
Layer_1
 62
7
100
AcDbSpline
 70
8
 71
3
 72
8
 73
4
 74
0
 40
0
 40
0
 40
0
 40
0
 40
1
 40
1
 40
1
 40
1
 10
434.197988
 20
538.711672
 30
0.0
 10
423.722755
 20
539.817348
 30
0.0
 10
410.824130
 20
540.370186
 30
0.0
 10
395.502115
 20
540.370186
 30
0.0
  0
SPLINE
  5
14f
100
AcDbEntity
  8
Layer_1
 62
7
100
AcDbSpline
 70
8
 71
3
 72
8
 73
4
 74
0
 40
0
 40
0
 40
0
 40
0
 40
1
 40
1
 40
1
 40
1
 10
395.502115
 20
540.370186
 30
0.0
 10
382.056293
 20
540.370186
 30
0.0
 10
370.564805
 20
539.633069
 30
0.0
 10
361.027652
 20
538.158834
 30
0.0
  0
SPLINE
  5
150
100
AcDbEntity
  8
Layer_1
 62
7
100
AcDbSpline
 70
8
 71
3
 72
8
 73
4
 74
0
 40
0
 40
0
 40
0
 40
0
 40
1
 40
1
 40
1
 40
1
 10
361.027652
 20
538.158834
 30
0.0
 10
351.490499
 20
536.868878
 30
0.0
 10
343.516814
 20
534.473246
 30
0.0
 10
337.106596
 20
530.971938
 30
0.0
  0
SPLINE
  5
151
100
AcDbEntity
  8
Layer_1
 62
7
100
AcDbSpline
 70
8
 71
3
 72
8
 73
4
 74
0
 40
0
 40
0
 40
0
 40
0
 40
1
 40
1
 40
1
 40
1
 10
337.106596
 20
530.971938
 30
0.0
 10
330.696379
 20
527.470630
 30
0.0
 10
325.615109
 20
522.863646
 30
0.0
 10
321.862786
 20
517.150985
 30
0.0
  0
SPLINE
  5
152
100
AcDbEntity
  8
Layer_1
 62
7
100
AcDbSpline
 70
8
 71
3
 72
8
 73
4
 74
0
 40
0
 40
0
 40
0
 40
0
 40
1
 40
1
 40
1
 40
1
 10
321.862786
 20
517.150985
 30
0.0
 10
318.266810
 20
511.438325
 30
0.0
 10
315.530742
 20
504.159290
 30
0.0
 10
313.654580
 20
495.313880
 30
0.0
  0
SPLINE
  5
153
100
AcDbEntity
  8
Layer_1
 62
7
100
AcDbSpline
 70
8
 71
3
 72
8
 73
4
 74
0
 40
0
 40
0
 40
0
 40
0
 40
1
 40
1
 40
1
 40
1
 10
313.654580
 20
495.313880
 30
0.0
 10
311.778419
 20
486.652750
 30
0.0
 10
310.527645
 20
476.333105
 30
0.0
 10
309.902258
 20
464.354946
 30
0.0
  0
SPLINE
  5
154
100
AcDbEntity
  8
Layer_1
 62
7
100
AcDbSpline
 70
8
 71
3
 72
8
 73
4
 74
0
 40
0
 40
0
 40
0
 40
0
 40
1
 40
1
 40
1
 40
1
 10
309.902258
 20
464.354946
 30
0.0
 10
309.433218
 20
452.561066
 30
0.0
 10
309.198697
 20
438.832253
 30
0.0
 10
309.198697
 20
423.168507
 30
0.0
  0
SPLINE
  5
155
100
AcDbEntity
  8
Layer_1
 62
7
100
AcDbSpline
 70
8
 71
3
 72
8
 73
4
 74
0
 40
0
 40
0
 40
0
 40
0
 40
1
 40
1
 40
1
 40
1
 10
309.198697
 20
423.168507
 30
0.0
 10
309.198697
 20
414.507376
 30
0.0
 10
309.511391
 20
407.320481
 30
0.0
 10
310.136778
 20
401.607820
 30
0.0
  0
SPLINE
  5
156
100
AcDbEntity
  8
Layer_1
 62
7
100
AcDbSpline
 70
8
 71
3
 72
8
 73
4
 74
0
 40
0
 40
0
 40
0
 40
0
 40
1
 40
1
 40
1
 40
1
 10
310.136778
 20
401.607820
 30
0.0
 10
310.762165
 20
396.079439
 30
0.0
 10
311.778419
 20
391.656734
 30
0.0
 10
313.185540
 20
388.339706
 30
0.0
  0
SPLINE
  5
157
100
AcDbEntity
  8
Layer_1
 62
7
100
AcDbSpline
 70
8
 71
3
 72
8
 73
4
 74
0
 40
0
 40
0
 40
0
 40
0
 40
1
 40
1
 40
1
 40
1
 10
313.185540
 20
388.339706
 30
0.0
 10
314.592661
 20
385.022677
 30
0.0
 10
316.390649
 20
382.719185
 30
0.0
 10
318.579504
 20
381.429229
 30
0.0
  0
SPLINE
  5
158
100
AcDbEntity
  8
Layer_1
 62
7
100
AcDbSpline
 70
8
 71
3
 72
8
 73
4
 74
0
 40
0
 40
0
 40
0
 40
0
 40
1
 40
1
 40
1
 40
1
 10
318.579504
 20
381.429229
 30
0.0
 10
320.924705
 20
380.139274
 30
0.0
 10
323.817121
 20
379.494296
 30
0.0
 10
327.256750
 20
379.494296
 30
0.0
  0
SPLINE
  5
159
100
AcDbEntity
  8
Layer_1
 62
7
100
AcDbSpline
 70
8
 71
3
 72
8
 73
4
 74
0
 40
0
 40
0
 40
0
 40
0
 40
1
 40
1
 40
1
 40
1
 10
327.256750
 20
379.494296
 30
0.0
 10
345.862015
 20
379.494296
 30
0.0
 10
355.164648
 20
384.746258
 30
0.0
 10
355.164648
 20
395.250182
 30
0.0
  0
SPLINE
  5
15a
100
AcDbEntity
  8
Layer_1
 62
7
100
AcDbSpline
 70
8
 71
3
 72
8
 73
4
 74
0
 40
0
 40
0
 40
0
 40
0
 40
1
 40
1
 40
1
 40
1
 10
355.164648
 20
395.250182
 30
0.0
 10
355.164648
 20
396.724417
 30
0.0
 10
355.320995
 20
398.567211
 30
0.0
 10
355.633689
 20
400.778563
 30
0.0
  0
SPLINE
  5
15b
100
AcDbEntity
  8
Layer_1
 62
7
100
AcDbSpline
 70
8
 71
3
 72
8
 73
4
 74
0
 40
0
 40
0
 40
0
 40
0
 40
1
 40
1
 40
1
 40
1
 10
355.633689
 20
400.778563
 30
0.0
 10
356.102729
 20
403.174195
 30
0.0
 10
356.493596
 20
405.569827
 30
0.0
 10
356.806289
 20
407.965459
 30
0.0
  0
SPLINE
  5
15c
100
AcDbEntity
  8
Layer_1
 62
7
100
AcDbSpline
 70
8
 71
3
 72
8
 73
4
 74
0
 40
0
 40
0
 40
0
 40
0
 40
1
 40
1
 40
1
 40
1
 10
356.806289
 20
407.965459
 30
0.0
 10
357.275330
 20
410.545370
 30
0.0
 10
357.666197
 20
413.033141
 30
0.0
 10
357.978890
 20
415.428773
 30
0.0
  0
SPLINE
  5
15d
100
AcDbEntity
  8
Layer_1
 62
7
100
AcDbSpline
 70
8
 71
3
 72
8
 73
4
 74
0
 40
0
 40
0
 40
0
 40
0
 40
1
 40
1
 40
1
 40
1
 10
357.978890
 20
415.428773
 30
0.0
 10
358.447931
 20
417.824405
 30
0.0
 10
358.682451
 20
419.943618
 30
0.0
 10
358.682451
 20
421.786411
 30
0.0
  0
LWPOLYLINE
  5
15e
100
AcDbEntity
  8
Layer_1
 62
7
100
AcDbPolyline
 90
2
 70
0
 10
379.085704
 20
455.233117
 30
0.0
 10
379.085704
 20
480.940089
 30
0.0
  0
SPLINE
  5
15f
100
AcDbEntity
  8
Layer_1
 62
7
100
AcDbSpline
 70
8
 71
3
 72
8
 73
4
 74
0
 40
0
 40
0
 40
0
 40
0
 40
1
 40
1
 40
1
 40
1
 10
358.682451
 20
424.274183
 30
0.0
 10
358.682451
 20
425.011300
 30
0.0
 10
358.604277
 20
425.840557
 30
0.0
 10
358.447931
 20
426.761954
 30
0.0
  0
SPLINE
  5
160
100
AcDbEntity
  8
Layer_1
 62
7
100
AcDbSpline
 70
8
 71
3
 72
8
 73
4
 74
0
 40
0
 40
0
 40
0
 40
0
 40
1
 40
1
 40
1
 40
1
 10
358.447931
 20
426.761954
 30
0.0
 10
362.200253
 20
426.393396
 30
0.0
 10
365.952576
 20
426.116977
 30
0.0
 10
369.704898
 20
425.932697
 30
0.0
  0
SPLINE
  5
161
100
AcDbEntity
  8
Layer_1
 62
7
100
AcDbSpline
 70
8
 71
3
 72
8
 73
4
 74
0
 40
0
 40
0
 40
0
 40
0
 40
1
 40
1
 40
1
 40
1
 10
369.704898
 20
425.932697
 30
0.0
 10
373.613567
 20
425.748418
 30
0.0
 10
377.600410
 20
425.656278
 30
0.0
 10
381.665426
 20
425.656278
 30
0.0
  0
SPLINE
  5
162
100
AcDbEntity
  8
Layer_1
 62
7
100
AcDbSpline
 70
8
 71
3
 72
8
 73
4
 74
0
 40
0
 40
0
 40
0
 40
0
 40
1
 40
1
 40
1
 40
1
 10
381.665426
 20
425.656278
 30
0.0
 10
393.860474
 20
425.656278
 30
0.0
 10
404.804764
 20
426.301256
 30
0.0
 10
414.498295
 20
427.591212
 30
0.0
  0
SPLINE
  5
163
100
AcDbEntity
  8
Layer_1
 62
7
100
AcDbSpline
 70
8
 71
3
 72
8
 73
4
 74
0
 40
0
 40
0
 40
0
 40
0
 40
1
 40
1
 40
1
 40
1
 10
414.498295
 20
427.591212
 30
0.0
 10
424.191795
 20
428.881167
 30
0.0
 10
432.400000
 20
430.723961
 30
0.0
 10
439.122912
 20
433.119593
 30
0.0
  0
SPLINE
  5
164
100
AcDbEntity
  8
Layer_1
 62
7
100
AcDbSpline
 70
8
 71
3
 72
8
 73
4
 74
0
 40
0
 40
0
 40
0
 40
0
 40
1
 40
1
 40
1
 40
1
 10
439.122912
 20
433.119593
 30
0.0
 10
446.002170
 20
435.699504
 30
0.0
 10
451.239786
 20
438.740113
 30
0.0
 10
454.835762
 20
442.241421
 30
0.0
  0
SPLINE
  5
165
100
AcDbEntity
  8
Layer_1
 62
7
100
AcDbSpline
 70
8
 71
3
 72
8
 73
4
 74
0
 40
0
 40
0
 40
0
 40
0
 40
1
 40
1
 40
1
 40
1
 10
454.835762
 20
442.241421
 30
0.0
 10
458.588085
 20
445.742729
 30
0.0
 10
460.464246
 20
449.704736
 30
0.0
 10
460.464246
 20
454.127441
 30
0.0
  0
LWPOLYLINE
  5
166
100
AcDbEntity
  8
Layer_1
 62
7
100
AcDbPolyline
 90
2
 70
0
 10
358.682451
 20
421.786411
 30
0.0
 10
358.682451
 20
424.274183
 30
0.0
  0
SPLINE
  5
167
100
AcDbEntity
  8
Layer_1
 62
7
100
AcDbSpline
 70
8
 71
3
 72
8
 73
4
 74
0
 40
0
 40
0
 40
0
 40
0
 40
1
 40
1
 40
1
 40
1
 10
98.335802
 20
282.949409
 30
0.0
 10
99.352715
 20
282.135878
 30
0.0
 10
100.206923
 20
281.281671
 30
0.0
 10
100.898424
 20
280.386787
 30
0.0
  0
SPLINE
  5
168
100
AcDbEntity
  8
Layer_1
 62
7
100
AcDbSpline
 70
8
 71
3
 72
8
 73
4
 74
0
 40
0
 40
0
 40
0
 40
0
 40
1
 40
1
 40
1
 40
1
 10
100.898424
 20
280.386787
 30
0.0
 10
101.589925
 20
279.532580
 30
0.0
 10
102.139058
 20
278.556343
 30
0.0
 10
102.545824
 20
277.458076
 30
0.0
  0
SPLINE
  5
169
100
AcDbEntity
  8
Layer_1
 62
7
100
AcDbSpline
 70
8
 71
3
 72
8
 73
4
 74
0
 40
0
 40
0
 40
0
 40
0
 40
1
 40
1
 40
1
 40
1
 10
102.545824
 20
277.458076
 30
0.0
 10
102.993266
 20
276.400486
 30
0.0
 10
103.298340
 20
275.180190
 30
0.0
 10
103.461046
 20
273.797187
 30
0.0
  0
SPLINE
  5
16a
100
AcDbEntity
  8
Layer_1
 62
7
100
AcDbSpline
 70
8
 71
3
 72
8
 73
4
 74
0
 40
0
 40
0
 40
0
 40
0
 40
1
 40
1
 40
1
 40
1
 10
103.461046
 20
273.797187
 30
0.0
 10
103.664429
 20
272.454861
 30
0.0
 10
103.766120
 20
270.868476
 30
0.0
 10
103.766120
 20
269.038032
 30
0.0
  0
SPLINE
  5
16b
100
AcDbEntity
  8
Layer_1
 62
7
100
AcDbSpline
 70
8
 71
3
 72
8
 73
4
 74
0
 40
0
 40
0
 40
0
 40
0
 40
1
 40
1
 40
1
 40
1
 10
103.766120
 20
269.038032
 30
0.0
 10
103.766120
 20
261.797607
 30
0.0
 10
100.695041
 20
257.323188
 30
0.0
 10
94.552883
 20
255.614773
 30
0.0
  0
SPLINE
  5
16c
100
AcDbEntity
  8
Layer_1
 62
7
100
AcDbSpline
 70
8
 71
3
 72
8
 73
4
 74
0
 40
0
 40
0
 40
0
 40
0
 40
1
 40
1
 40
1
 40
1
 10
94.552883
 20
255.614773
 30
0.0
 10
86.702311
 20
253.377563
 30
0.0
 10
79.116136
 20
252.258958
 30
0.0
 10
71.794358
 20
252.258958
 30
0.0
  0
SPLINE
  5
16d
100
AcDbEntity
  8
Layer_1
 62
7
100
AcDbSpline
 70
8
 71
3
 72
8
 73
4
 74
0
 40
0
 40
0
 40
0
 40
0
 40
1
 40
1
 40
1
 40
1
 10
71.794358
 20
252.258958
 30
0.0
 10
67.523321
 20
252.258958
 30
0.0
 10
63.842094
 20
252.970798
 30
0.0
 10
60.750677
 20
254.394477
 30
0.0
  0
SPLINE
  5
16e
100
AcDbEntity
  8
Layer_1
 62
7
100
AcDbSpline
 70
8
 71
3
 72
8
 73
4
 74
0
 40
0
 40
0
 40
0
 40
0
 40
1
 40
1
 40
1
 40
1
 10
60.750677
 20
254.394477
 30
0.0
 10
57.699936
 20
255.858832
 30
0.0
 10
55.177991
 20
257.790968
 30
0.0
 10
53.184840
 20
260.190884
 30
0.0
  0
SPLINE
  5
16f
100
AcDbEntity
  8
Layer_1
 62
7
100
AcDbSpline
 70
8
 71
3
 72
8
 73
4
 74
0
 40
0
 40
0
 40
0
 40
0
 40
1
 40
1
 40
1
 40
1
 10
53.184840
 20
260.190884
 30
0.0
 10
51.232366
 20
262.590800
 30
0.0
 10
49.788349
 20
265.336467
 30
0.0
 10
48.852789
 20
268.427884
 30
0.0
  0
SPLINE
  5
170
100
AcDbEntity
  8
Layer_1
 62
7
100
AcDbSpline
 70
8
 71
3
 72
8
 73
4
 74
0
 40
0
 40
0
 40
0
 40
0
 40
1
 40
1
 40
1
 40
1
 10
48.852789
 20
268.427884
 30
0.0
 10
47.957905
 20
271.559977
 30
0.0
 10
47.510463
 20
274.793763
 30
0.0
 10
47.510463
 20
278.129239
 30
0.0
  0
SPLINE
  5
171
100
AcDbEntity
  8
Layer_1
 62
7
100
AcDbSpline
 70
8
 71
3
 72
8
 73
4
 74
0
 40
0
 40
0
 40
0
 40
0
 40
1
 40
1
 40
1
 40
1
 10
47.510463
 20
278.129239
 30
0.0
 10
47.510463
 20
287.525520
 30
0.0
 10
50.500189
 20
293.789708
 30
0.0
 10
56.479640
 20
296.921801
 30
0.0
  0
SPLINE
  5
172
100
AcDbEntity
  8
Layer_1
 62
7
100
AcDbSpline
 70
8
 71
3
 72
8
 73
4
 74
0
 40
0
 40
0
 40
0
 40
0
 40
1
 40
1
 40
1
 40
1
 10
56.479640
 20
296.921801
 30
0.0
 10
60.303235
 20
298.914952
 30
0.0
 10
67.543660
 20
299.911527
 30
0.0
 10
78.200913
 20
299.911527
 30
0.0
  0
SPLINE
  5
173
100
AcDbEntity
  8
Layer_1
 62
7
100
AcDbSpline
 70
8
 71
3
 72
8
 73
4
 74
0
 40
0
 40
0
 40
0
 40
0
 40
1
 40
1
 40
1
 40
1
 10
78.200913
 20
299.911527
 30
0.0
 10
80.885565
 20
299.911527
 30
0.0
 10
83.509202
 20
299.586115
 30
0.0
 10
86.071824
 20
298.935290
 30
0.0
  0
SPLINE
  5
174
100
AcDbEntity
  8
Layer_1
 62
7
100
AcDbSpline
 70
8
 71
3
 72
8
 73
4
 74
0
 40
0
 40
0
 40
0
 40
0
 40
1
 40
1
 40
1
 40
1
 10
86.071824
 20
298.935290
 30
0.0
 10
88.634446
 20
298.325142
 30
0.0
 10
90.891995
 20
297.470935
 30
0.0
 10
92.844469
 20
296.372668
 30
0.0
  0
SPLINE
  5
175
100
AcDbEntity
  8
Layer_1
 62
7
100
AcDbSpline
 70
8
 71
3
 72
8
 73
4
 74
0
 40
0
 40
0
 40
0
 40
0
 40
1
 40
1
 40
1
 40
1
 10
92.844469
 20
296.372668
 30
0.0
 10
94.837619
 20
295.274401
 30
0.0
 10
96.444342
 20
293.952414
 30
0.0
 10
97.664639
 20
292.406705
 30
0.0
  0
SPLINE
  5
176
100
AcDbEntity
  8
Layer_1
 62
7
100
AcDbSpline
 70
8
 71
3
 72
8
 73
4
 74
0
 40
0
 40
0
 40
0
 40
0
 40
1
 40
1
 40
1
 40
1
 10
97.664639
 20
292.406705
 30
0.0
 10
98.884935
 20
290.901673
 30
0.0
 10
99.495083
 20
289.274611
 30
0.0
 10
99.495083
 20
287.525520
 30
0.0
  0
SPLINE
  5
177
100
AcDbEntity
  8
Layer_1
 62
7
100
AcDbSpline
 70
8
 71
3
 72
8
 73
4
 74
0
 40
0
 40
0
 40
0
 40
0
 40
1
 40
1
 40
1
 40
1
 10
99.495083
 20
287.525520
 30
0.0
 10
99.495083
 20
285.979812
 30
0.0
 10
99.108656
 20
284.454441
 30
0.0
 10
98.335802
 20
282.949409
 30
0.0
  0
LWPOLYLINE
  5
178
100
AcDbEntity
  8
Layer_1
 62
7
100
AcDbPolyline
 90
2
 70
0
 10
460.464246
 20
454.127441
 30
0.0
 10
456.946444
 20
462.143593
 30
0.0
  0
SPLINE
  5
179
100
AcDbEntity
  8
Layer_1
 62
7
100
AcDbSpline
 70
8
 71
3
 72
8
 73
4
 74
0
 40
0
 40
0
 40
0
 40
0
 40
1
 40
1
 40
1
 40
1
 10
84.790513
 20
266.536425
 30
0.0
 10
81.739773
 20
265.194099
 30
0.0
 10
78.282267
 20
264.522936
 30
0.0
 10
74.417995
 20
264.522936
 30
0.0
  0
SPLINE
  5
17a
100
AcDbEntity
  8
Layer_1
 62
7
100
AcDbSpline
 70
8
 71
3
 72
8
 73
4
 74
0
 40
0
 40
0
 40
0
 40
0
 40
1
 40
1
 40
1
 40
1
 10
74.417995
 20
264.522936
 30
0.0
 10
72.872287
 20
264.522936
 30
0.0
 10
71.448608
 20
264.766995
 30
0.0
 10
70.146958
 20
265.255113
 30
0.0
  0
SPLINE
  5
17b
100
AcDbEntity
  8
Layer_1
 62
7
100
AcDbSpline
 70
8
 71
3
 72
8
 73
4
 74
0
 40
0
 40
0
 40
0
 40
0
 40
1
 40
1
 40
1
 40
1
 10
70.146958
 20
265.255113
 30
0.0
 10
68.845309
 20
265.783909
 30
0.0
 10
67.726704
 20
266.516086
 30
0.0
 10
66.791144
 20
267.451647
 30
0.0
  0
SPLINE
  5
17c
100
AcDbEntity
  8
Layer_1
 62
7
100
AcDbSpline
 70
8
 71
3
 72
8
 73
4
 74
0
 40
0
 40
0
 40
0
 40
0
 40
1
 40
1
 40
1
 40
1
 10
66.791144
 20
267.451647
 30
0.0
 10
65.855583
 20
268.427884
 30
0.0
 10
65.103067
 20
269.607503
 30
0.0
 10
64.533595
 20
270.990506
 30
0.0
  0
SPLINE
  5
17d
100
AcDbEntity
  8
Layer_1
 62
7
100
AcDbSpline
 70
8
 71
3
 72
8
 73
4
 74
0
 40
0
 40
0
 40
0
 40
0
 40
1
 40
1
 40
1
 40
1
 10
64.533595
 20
270.990506
 30
0.0
 10
64.004800
 20
272.373508
 30
0.0
 10
63.740403
 20
273.919217
 30
0.0
 10
63.740403
 20
275.627632
 30
0.0
  0
SPLINE
  5
17e
100
AcDbEntity
  8
Layer_1
 62
7
100
AcDbSpline
 70
8
 71
3
 72
8
 73
4
 74
0
 40
0
 40
0
 40
0
 40
0
 40
1
 40
1
 40
1
 40
1
 10
63.740403
 20
275.627632
 30
0.0
 10
63.740403
 20
277.458076
 30
0.0
 10
64.106492
 20
279.146153
 30
0.0
 10
64.838670
 20
280.691861
 30
0.0
  0
SPLINE
  5
17f
100
AcDbEntity
  8
Layer_1
 62
7
100
AcDbSpline
 70
8
 71
3
 72
8
 73
4
 74
0
 40
0
 40
0
 40
0
 40
0
 40
1
 40
1
 40
1
 40
1
 10
64.838670
 20
280.691861
 30
0.0
 10
65.570847
 20
282.278246
 30
0.0
 10
66.567423
 20
283.640910
 30
0.0
 10
67.828395
 20
284.779854
 30
0.0
  0
SPLINE
  5
180
100
AcDbEntity
  8
Layer_1
 62
7
100
AcDbSpline
 70
8
 71
3
 72
8
 73
4
 74
0
 40
0
 40
0
 40
0
 40
0
 40
1
 40
1
 40
1
 40
1
 10
67.828395
 20
284.779854
 30
0.0
 10
69.130045
 20
285.918797
 30
0.0
 10
70.655415
 20
286.813681
 30
0.0
 10
72.404506
 20
287.464505
 30
0.0
  0
SPLINE
  5
181
100
AcDbEntity
  8
Layer_1
 62
7
100
AcDbSpline
 70
8
 71
3
 72
8
 73
4
 74
0
 40
0
 40
0
 40
0
 40
0
 40
1
 40
1
 40
1
 40
1
 10
72.404506
 20
287.464505
 30
0.0
 10
74.153598
 20
288.115330
 30
0.0
 10
76.045057
 20
288.440742
 30
0.0
 10
78.078884
 20
288.440742
 30
0.0
  0
SPLINE
  5
182
100
AcDbEntity
  8
Layer_1
 62
7
100
AcDbSpline
 70
8
 71
3
 72
8
 73
4
 74
0
 40
0
 40
0
 40
0
 40
0
 40
1
 40
1
 40
1
 40
1
 10
78.078884
 20
288.440742
 30
0.0
 10
83.814276
 20
288.440742
 30
0.0
 10
88.939521
 20
287.545858
 30
0.0
 10
93.454617
 20
285.756091
 30
0.0
  0
SPLINE
  5
183
100
AcDbEntity
  8
Layer_1
 62
7
100
AcDbSpline
 70
8
 71
3
 72
8
 73
4
 74
0
 40
0
 40
0
 40
0
 40
0
 40
1
 40
1
 40
1
 40
1
 10
93.454617
 20
285.756091
 30
0.0
 10
93.617323
 20
286.081503
 30
0.0
 10
93.698676
 20
286.589960
 30
0.0
 10
93.698676
 20
287.281461
 30
0.0
  0
SPLINE
  5
184
100
AcDbEntity
  8
Layer_1
 62
7
100
AcDbSpline
 70
8
 71
3
 72
8
 73
4
 74
0
 40
0
 40
0
 40
0
 40
0
 40
1
 40
1
 40
1
 40
1
 10
93.698676
 20
287.281461
 30
0.0
 10
93.698676
 20
288.217021
 30
0.0
 10
93.251234
 20
289.111905
 30
0.0
 10
92.356350
 20
289.966113
 30
0.0
  0
SPLINE
  5
185
100
AcDbEntity
  8
Layer_1
 62
7
100
AcDbSpline
 70
8
 71
3
 72
8
 73
4
 74
0
 40
0
 40
0
 40
0
 40
0
 40
1
 40
1
 40
1
 40
1
 10
92.356350
 20
289.966113
 30
0.0
 10
91.461466
 20
290.820320
 30
0.0
 10
90.281846
 20
291.552498
 30
0.0
 10
88.817491
 20
292.162646
 30
0.0
  0
SPLINE
  5
186
100
AcDbEntity
  8
Layer_1
 62
7
100
AcDbSpline
 70
8
 71
3
 72
8
 73
4
 74
0
 40
0
 40
0
 40
0
 40
0
 40
1
 40
1
 40
1
 40
1
 10
88.817491
 20
292.162646
 30
0.0
 10
87.353135
 20
292.813471
 30
0.0
 10
85.685397
 20
293.321927
 30
0.0
 10
83.814276
 20
293.688016
 30
0.0
  0
SPLINE
  5
187
100
AcDbEntity
  8
Layer_1
 62
7
100
AcDbSpline
 70
8
 71
3
 72
8
 73
4
 74
0
 40
0
 40
0
 40
0
 40
0
 40
1
 40
1
 40
1
 40
1
 10
83.814276
 20
293.688016
 30
0.0
 10
81.983832
 20
294.054105
 30
0.0
 10
80.112711
 20
294.237149
 30
0.0
 10
78.200913
 20
294.237149
 30
0.0
  0
SPLINE
  5
188
100
AcDbEntity
  8
Layer_1
 62
7
100
AcDbSpline
 70
8
 71
3
 72
8
 73
4
 74
0
 40
0
 40
0
 40
0
 40
0
 40
1
 40
1
 40
1
 40
1
 10
78.200913
 20
294.237149
 30
0.0
 10
75.028143
 20
294.237149
 30
0.0
 10
72.424845
 20
294.216811
 30
0.0
 10
70.391017
 20
294.176135
 30
0.0
  0
SPLINE
  5
189
100
AcDbEntity
  8
Layer_1
 62
7
100
AcDbSpline
 70
8
 71
3
 72
8
 73
4
 74
0
 40
0
 40
0
 40
0
 40
0
 40
1
 40
1
 40
1
 40
1
 10
70.391017
 20
294.176135
 30
0.0
 10
68.357190
 20
294.135458
 30
0.0
 10
66.852158
 20
294.054105
 30
0.0
 10
65.875921
 20
293.932075
 30
0.0
  0
SPLINE
  5
18a
100
AcDbEntity
  8
Layer_1
 62
7
100
AcDbSpline
 70
8
 71
3
 72
8
 73
4
 74
0
 40
0
 40
0
 40
0
 40
0
 40
1
 40
1
 40
1
 40
1
 10
65.875921
 20
293.932075
 30
0.0
 10
63.557358
 20
293.606663
 30
0.0
 10
61.584546
 20
293.057530
 30
0.0
 10
59.957485
 20
292.284675
 30
0.0
  0
SPLINE
  5
18b
100
AcDbEntity
  8
Layer_1
 62
7
100
AcDbSpline
 70
8
 71
3
 72
8
 73
4
 74
0
 40
0
 40
0
 40
0
 40
0
 40
1
 40
1
 40
1
 40
1
 10
59.957485
 20
292.284675
 30
0.0
 10
58.371099
 20
291.511821
 30
0.0
 10
57.069450
 20
290.474569
 30
0.0
 10
56.052537
 20
289.172920
 30
0.0
  0
SPLINE
  5
18c
100
AcDbEntity
  8
Layer_1
 62
7
100
AcDbSpline
 70
8
 71
3
 72
8
 73
4
 74
0
 40
0
 40
0
 40
0
 40
0
 40
1
 40
1
 40
1
 40
1
 10
56.052537
 20
289.172920
 30
0.0
 10
55.076300
 20
287.911947
 30
0.0
 10
54.344122
 20
286.366239
 30
0.0
 10
53.856003
 20
284.535794
 30
0.0
  0
SPLINE
  5
18d
100
AcDbEntity
  8
Layer_1
 62
7
100
AcDbSpline
 70
8
 71
3
 72
8
 73
4
 74
0
 40
0
 40
0
 40
0
 40
0
 40
1
 40
1
 40
1
 40
1
 10
53.856003
 20
284.535794
 30
0.0
 10
53.408561
 20
282.705350
 30
0.0
 10
53.184840
 20
280.569831
 30
0.0
 10
53.184840
 20
278.129239
 30
0.0
  0
SPLINE
  5
18e
100
AcDbEntity
  8
Layer_1
 62
7
100
AcDbSpline
 70
8
 71
3
 72
8
 73
4
 74
0
 40
0
 40
0
 40
0
 40
0
 40
1
 40
1
 40
1
 40
1
 10
53.184840
 20
278.129239
 30
0.0
 10
53.184840
 20
275.281881
 30
0.0
 10
53.591606
 20
272.637906
 30
0.0
 10
54.405137
 20
270.197313
 30
0.0
  0
SPLINE
  5
18f
100
AcDbEntity
  8
Layer_1
 62
7
100
AcDbSpline
 70
8
 71
3
 72
8
 73
4
 74
0
 40
0
 40
0
 40
0
 40
0
 40
1
 40
1
 40
1
 40
1
 10
54.405137
 20
270.197313
 30
0.0
 10
55.259344
 20
267.756721
 30
0.0
 10
56.377949
 20
265.621202
 30
0.0
 10
57.760951
 20
263.790758
 30
0.0
  0
SPLINE
  5
190
100
AcDbEntity
  8
Layer_1
 62
7
100
AcDbSpline
 70
8
 71
3
 72
8
 73
4
 74
0
 40
0
 40
0
 40
0
 40
0
 40
1
 40
1
 40
1
 40
1
 10
57.760951
 20
263.790758
 30
0.0
 10
59.143954
 20
262.000990
 30
0.0
 10
60.750677
 20
260.577311
 30
0.0
 10
62.581121
 20
259.519721
 30
0.0
  0
SPLINE
  5
191
100
AcDbEntity
  8
Layer_1
 62
7
100
AcDbSpline
 70
8
 71
3
 72
8
 73
4
 74
0
 40
0
 40
0
 40
0
 40
0
 40
1
 40
1
 40
1
 40
1
 10
62.581121
 20
259.519721
 30
0.0
 10
64.411566
 20
258.502808
 30
0.0
 10
66.303025
 20
257.994351
 30
0.0
 10
68.255499
 20
257.994351
 30
0.0
  0
LWPOLYLINE
  5
192
100
AcDbEntity
  8
Layer_1
 62
7
100
AcDbPolyline
 90
1
 70
1
 10
98.335802
 20
282.949409
 30
0.0
  0
SPLINE
  5
193
100
AcDbEntity
  8
Layer_1
 62
7
100
AcDbSpline
 70
8
 71
3
 72
8
 73
4
 74
0
 40
0
 40
0
 40
0
 40
0
 40
1
 40
1
 40
1
 40
1
 10
73.563788
 20
257.994351
 30
0.0
 10
74.499348
 20
257.994351
 30
0.0
 10
75.923027
 20
258.116380
 30
0.0
 10
77.834825
 20
258.360440
 30
0.0
  0
SPLINE
  5
194
100
AcDbEntity
  8
Layer_1
 62
7
100
AcDbSpline
 70
8
 71
3
 72
8
 73
4
 74
0
 40
0
 40
0
 40
0
 40
0
 40
1
 40
1
 40
1
 40
1
 10
77.834825
 20
258.360440
 30
0.0
 10
79.746622
 20
258.604499
 30
0.0
 10
82.227891
 20
259.011264
 30
0.0
 10
85.278632
 20
259.580736
 30
0.0
  0
SPLINE
  5
195
100
AcDbEntity
  8
Layer_1
 62
7
100
AcDbSpline
 70
8
 71
3
 72
8
 73
4
 74
0
 40
0
 40
0
 40
0
 40
0
 40
1
 40
1
 40
1
 40
1
 10
85.278632
 20
259.580736
 30
0.0
 10
88.370049
 20
260.150208
 30
0.0
 10
90.810641
 20
260.617988
 30
0.0
 10
92.600409
 20
260.984077
 30
0.0
  0
SPLINE
  5
196
100
AcDbEntity
  8
Layer_1
 62
7
100
AcDbSpline
 70
8
 71
3
 72
8
 73
4
 74
0
 40
0
 40
0
 40
0
 40
0
 40
1
 40
1
 40
1
 40
1
 10
92.600409
 20
260.984077
 30
0.0
 10
94.390177
 20
261.390842
 30
0.0
 10
95.529120
 20
261.777269
 30
0.0
 10
96.017239
 20
262.143358
 30
0.0
  0
SPLINE
  5
197
100
AcDbEntity
  8
Layer_1
 62
7
100
AcDbSpline
 70
8
 71
3
 72
8
 73
4
 74
0
 40
0
 40
0
 40
0
 40
0
 40
1
 40
1
 40
1
 40
1
 10
96.017239
 20
262.143358
 30
0.0
 10
96.708740
 20
263.526360
 30
0.0
 10
97.237535
 20
265.051731
 30
0.0
 10
97.603624
 20
266.719469
 30
0.0
  0
SPLINE
  5
198
100
AcDbEntity
  8
Layer_1
 62
7
100
AcDbSpline
 70
8
 71
3
 72
8
 73
4
 74
0
 40
0
 40
0
 40
0
 40
0
 40
1
 40
1
 40
1
 40
1
 10
97.603624
 20
266.719469
 30
0.0
 10
98.010389
 20
268.427884
 30
0.0
 10
98.213772
 20
270.258328
 30
0.0
 10
98.213772
 20
272.210802
 30
0.0
  0
SPLINE
  5
199
100
AcDbEntity
  8
Layer_1
 62
7
100
AcDbSpline
 70
8
 71
3
 72
8
 73
4
 74
0
 40
0
 40
0
 40
0
 40
0
 40
1
 40
1
 40
1
 40
1
 10
98.213772
 20
272.210802
 30
0.0
 10
98.213772
 20
273.797187
 30
0.0
 10
97.766330
 20
275.220866
 30
0.0
 10
96.871446
 20
276.481839
 30
0.0
  0
SPLINE
  5
19a
100
AcDbEntity
  8
Layer_1
 62
7
100
AcDbSpline
 70
8
 71
3
 72
8
 73
4
 74
0
 40
0
 40
0
 40
0
 40
0
 40
1
 40
1
 40
1
 40
1
 10
96.871446
 20
276.481839
 30
0.0
 10
96.017239
 20
277.783488
 30
0.0
 10
94.735928
 20
278.902093
 30
0.0
 10
93.027513
 20
279.837654
 30
0.0
  0
SPLINE
  5
19b
100
AcDbEntity
  8
Layer_1
 62
7
100
AcDbSpline
 70
8
 71
3
 72
8
 73
4
 74
0
 40
0
 40
0
 40
0
 40
0
 40
1
 40
1
 40
1
 40
1
 10
93.027513
 20
279.837654
 30
0.0
 10
91.359775
 20
280.773214
 30
0.0
 10
89.305609
 20
281.485054
 30
0.0
 10
86.865017
 20
281.973172
 30
0.0
  0
SPLINE
  5
19c
100
AcDbEntity
  8
Layer_1
 62
7
100
AcDbSpline
 70
8
 71
3
 72
8
 73
4
 74
0
 40
0
 40
0
 40
0
 40
0
 40
1
 40
1
 40
1
 40
1
 10
86.865017
 20
281.973172
 30
0.0
 10
84.465101
 20
282.501967
 30
0.0
 10
81.719434
 20
282.766365
 30
0.0
 10
78.628017
 20
282.766365
 30
0.0
  0
SPLINE
  5
19d
100
AcDbEntity
  8
Layer_1
 62
7
100
AcDbSpline
 70
8
 71
3
 72
8
 73
4
 74
0
 40
0
 40
0
 40
0
 40
0
 40
1
 40
1
 40
1
 40
1
 10
78.628017
 20
282.766365
 30
0.0
 10
72.648566
 20
282.766365
 30
0.0
 10
69.658840
 20
280.407125
 30
0.0
 10
69.658840
 20
275.688646
 30
0.0
  0
SPLINE
  5
19e
100
AcDbEntity
  8
Layer_1
 62
7
100
AcDbSpline
 70
8
 71
3
 72
8
 73
4
 74
0
 40
0
 40
0
 40
0
 40
0
 40
1
 40
1
 40
1
 40
1
 10
69.658840
 20
275.688646
 30
0.0
 10
69.658840
 20
271.905728
 30
0.0
 10
71.550299
 20
270.014269
 30
0.0
 10
75.333217
 20
270.014269
 30
0.0
  0
SPLINE
  5
19f
100
AcDbEntity
  8
Layer_1
 62
7
100
AcDbSpline
 70
8
 71
3
 72
8
 73
4
 74
0
 40
0
 40
0
 40
0
 40
0
 40
1
 40
1
 40
1
 40
1
 10
75.333217
 20
270.014269
 30
0.0
 10
77.489074
 20
270.014269
 30
0.0
 10
79.888990
 20
270.583740
 30
0.0
 10
82.532965
 20
271.722684
 30
0.0
  0
LWPOLYLINE
  5
1a0
100
AcDbEntity
  8
Layer_1
 62
7
100
AcDbPolyline
 90
2
 70
0
 10
68.255499
 20
257.994351
 30
0.0
 10
73.563788
 20
257.994351
 30
0.0
  0
SPLINE
  5
1a1
100
AcDbEntity
  8
Layer_1
 62
7
100
AcDbSpline
 70
8
 71
3
 72
8
 73
4
 74
0
 40
0
 40
0
 40
0
 40
0
 40
1
 40
1
 40
1
 40
1
 10
106.205763
 20
277.763150
 30
0.0
 10
106.205763
 20
278.332622
 30
0.0
 10
106.226102
 20
278.861417
 30
0.0
 10
106.266778
 20
279.349535
 30
0.0
  0
SPLINE
  5
1a2
100
AcDbEntity
  8
Layer_1
 62
7
100
AcDbSpline
 70
8
 71
3
 72
8
 73
4
 74
0
 40
0
 40
0
 40
0
 40
0
 40
1
 40
1
 40
1
 40
1
 10
106.266778
 20
279.349535
 30
0.0
 10
106.307455
 20
279.837654
 30
0.0
 10
106.327793
 20
280.264757
 30
0.0
 10
106.327793
 20
280.630846
 30
0.0
  0
SPLINE
  5
1a3
100
AcDbEntity
  8
Layer_1
 62
7
100
AcDbSpline
 70
8
 71
3
 72
8
 73
4
 74
0
 40
0
 40
0
 40
0
 40
0
 40
1
 40
1
 40
1
 40
1
 10
106.327793
 20
280.630846
 30
0.0
 10
106.327793
 20
280.712199
 30
0.0
 10
106.307455
 20
280.813891
 30
0.0
 10
106.266778
 20
280.935920
 30
0.0
  0
LWPOLYLINE
  5
1a4
100
AcDbEntity
  8
Layer_1
 62
7
100
AcDbPolyline
 90
2
 70
0
 10
82.532965
 20
271.722684
 30
0.0
 10
84.790513
 20
266.536425
 30
0.0
  0
SPLINE
  5
1a5
100
AcDbEntity
  8
Layer_1
 62
7
100
AcDbSpline
 70
8
 71
3
 72
8
 73
4
 74
0
 40
0
 40
0
 40
0
 40
0
 40
1
 40
1
 40
1
 40
1
 10
106.266778
 20
281.240994
 30
0.0
 10
106.266778
 20
284.698500
 30
0.0
 10
106.409146
 20
287.545858
 30
0.0
 10
106.693882
 20
289.783068
 30
0.0
  0
SPLINE
  5
1a6
100
AcDbEntity
  8
Layer_1
 62
7
100
AcDbSpline
 70
8
 71
3
 72
8
 73
4
 74
0
 40
0
 40
0
 40
0
 40
0
 40
1
 40
1
 40
1
 40
1
 10
106.693882
 20
289.783068
 30
0.0
 10
107.019294
 20
292.060955
 30
0.0
 10
107.527751
 20
293.891399
 30
0.0
 10
108.219252
 20
295.274401
 30
0.0
  0
SPLINE
  5
1a7
100
AcDbEntity
  8
Layer_1
 62
7
100
AcDbSpline
 70
8
 71
3
 72
8
 73
4
 74
0
 40
0
 40
0
 40
0
 40
0
 40
1
 40
1
 40
1
 40
1
 10
108.219252
 20
295.274401
 30
0.0
 10
108.951430
 20
296.657404
 30
0.0
 10
109.886990
 20
297.674317
 30
0.0
 10
111.025934
 20
298.325142
 30
0.0
  0
SPLINE
  5
1a8
100
AcDbEntity
  8
Layer_1
 62
7
100
AcDbSpline
 70
8
 71
3
 72
8
 73
4
 74
0
 40
0
 40
0
 40
0
 40
0
 40
1
 40
1
 40
1
 40
1
 10
111.025934
 20
298.325142
 30
0.0
 10
112.164877
 20
299.016643
 30
0.0
 10
113.568217
 20
299.525100
 30
0.0
 10
115.235956
 20
299.850512
 30
0.0
  0
SPLINE
  5
1a9
100
AcDbEntity
  8
Layer_1
 62
7
100
AcDbSpline
 70
8
 71
3
 72
8
 73
4
 74
0
 40
0
 40
0
 40
0
 40
0
 40
1
 40
1
 40
1
 40
1
 10
115.235956
 20
299.850512
 30
0.0
 10
115.846104
 20
299.972542
 30
0.0
 10
116.700311
 20
300.033557
 30
0.0
 10
117.798578
 20
300.033557
 30
0.0
  0
SPLINE
  5
1aa
100
AcDbEntity
  8
Layer_1
 62
7
100
AcDbSpline
 70
8
 71
3
 72
8
 73
4
 74
0
 40
0
 40
0
 40
0
 40
0
 40
1
 40
1
 40
1
 40
1
 10
117.798578
 20
300.033557
 30
0.0
 10
118.896844
 20
300.074233
 30
0.0
 10
120.320523
 20
300.094571
 30
0.0
 10
122.069615
 20
300.094571
 30
0.0
  0
SPLINE
  5
1ab
100
AcDbEntity
  8
Layer_1
 62
7
100
AcDbSpline
 70
8
 71
3
 72
8
 73
4
 74
0
 40
0
 40
0
 40
0
 40
0
 40
1
 40
1
 40
1
 40
1
 10
122.069615
 20
300.094571
 30
0.0
 10
123.859382
 20
300.094571
 30
0.0
 10
126.035577
 20
300.114910
 30
0.0
 10
128.598200
 20
300.155586
 30
0.0
  0
SPLINE
  5
1ac
100
AcDbEntity
  8
Layer_1
 62
7
100
AcDbSpline
 70
8
 71
3
 72
8
 73
4
 74
0
 40
0
 40
0
 40
0
 40
0
 40
1
 40
1
 40
1
 40
1
 10
128.598200
 20
300.155586
 30
0.0
 10
131.160822
 20
300.196263
 30
0.0
 10
134.211562
 20
300.297954
 30
0.0
 10
137.750421
 20
300.460660
 30
0.0
  0
SPLINE
  5
1ad
100
AcDbEntity
  8
Layer_1
 62
7
100
AcDbSpline
 70
8
 71
3
 72
8
 73
4
 74
0
 40
0
 40
0
 40
0
 40
0
 40
1
 40
1
 40
1
 40
1
 10
137.750421
 20
300.460660
 30
0.0
 10
139.702895
 20
300.542013
 30
0.0
 10
141.390972
 20
300.623367
 30
0.0
 10
142.814651
 20
300.704720
 30
0.0
  0
SPLINE
  5
1ae
100
AcDbEntity
  8
Layer_1
 62
7
100
AcDbSpline
 70
8
 71
3
 72
8
 73
4
 74
0
 40
0
 40
0
 40
0
 40
0
 40
1
 40
1
 40
1
 40
1
 10
142.814651
 20
300.704720
 30
0.0
 10
144.279006
 20
300.786073
 30
0.0
 10
145.499303
 20
300.826749
 30
0.0
 10
146.475540
 20
300.826749
 30
0.0
  0
SPLINE
  5
1af
100
AcDbEntity
  8
Layer_1
 62
7
100
AcDbSpline
 70
8
 71
3
 72
8
 73
4
 74
0
 40
0
 40
0
 40
0
 40
0
 40
1
 40
1
 40
1
 40
1
 10
146.475540
 20
300.826749
 30
0.0
 10
149.078838
 20
300.826749
 30
0.0
 10
151.275372
 20
300.664043
 30
0.0
 10
153.065139
 20
300.338631
 30
0.0
  0
SPLINE
  5
1b0
100
AcDbEntity
  8
Layer_1
 62
7
100
AcDbSpline
 70
8
 71
3
 72
8
 73
4
 74
0
 40
0
 40
0
 40
0
 40
0
 40
1
 40
1
 40
1
 40
1
 10
153.065139
 20
300.338631
 30
0.0
 10
154.895584
 20
300.013218
 30
0.0
 10
156.380278
 20
299.504762
 30
0.0
 10
157.519221
 20
298.813260
 30
0.0
  0
SPLINE
  5
1b1
100
AcDbEntity
  8
Layer_1
 62
7
100
AcDbSpline
 70
8
 71
3
 72
8
 73
4
 74
0
 40
0
 40
0
 40
0
 40
0
 40
1
 40
1
 40
1
 40
1
 10
157.519221
 20
298.813260
 30
0.0
 10
158.658164
 20
298.121759
 30
0.0
 10
159.471695
 20
297.226875
 30
0.0
 10
159.959813
 20
296.128609
 30
0.0
  0
SPLINE
  5
1b2
100
AcDbEntity
  8
Layer_1
 62
7
100
AcDbSpline
 70
8
 71
3
 72
8
 73
4
 74
0
 40
0
 40
0
 40
0
 40
0
 40
1
 40
1
 40
1
 40
1
 10
159.959813
 20
296.128609
 30
0.0
 10
160.488608
 20
295.030342
 30
0.0
 10
160.753006
 20
293.728693
 30
0.0
 10
160.753006
 20
292.223661
 30
0.0
  0
SPLINE
  5
1b3
100
AcDbEntity
  8
Layer_1
 62
7
100
AcDbSpline
 70
8
 71
3
 72
8
 73
4
 74
0
 40
0
 40
0
 40
0
 40
0
 40
1
 40
1
 40
1
 40
1
 10
160.753006
 20
292.223661
 30
0.0
 10
160.753006
 20
291.410130
 30
0.0
 10
160.651314
 20
290.555922
 30
0.0
 10
160.447932
 20
289.661039
 30
0.0
  0
SPLINE
  5
1b4
100
AcDbEntity
  8
Layer_1
 62
7
100
AcDbSpline
 70
8
 71
3
 72
8
 73
4
 74
0
 40
0
 40
0
 40
0
 40
0
 40
1
 40
1
 40
1
 40
1
 10
160.447932
 20
289.661039
 30
0.0
 10
160.244549
 20
288.806831
 30
0.0
 10
159.980152
 20
287.993300
 30
0.0
 10
159.654739
 20
287.220446
 30
0.0
  0
SPLINE
  5
1b5
100
AcDbEntity
  8
Layer_1
 62
7
100
AcDbSpline
 70
8
 71
3
 72
8
 73
4
 74
0
 40
0
 40
0
 40
0
 40
0
 40
1
 40
1
 40
1
 40
1
 10
159.654739
 20
287.220446
 30
0.0
 10
159.329327
 20
286.447592
 30
0.0
 10
158.922561
 20
285.796767
 30
0.0
 10
158.434443
 20
285.267972
 30
0.0
  0
SPLINE
  5
1b6
100
AcDbEntity
  8
Layer_1
 62
7
100
AcDbSpline
 70
8
 71
3
 72
8
 73
4
 74
0
 40
0
 40
0
 40
0
 40
0
 40
1
 40
1
 40
1
 40
1
 10
158.434443
 20
285.267972
 30
0.0
 10
157.987001
 20
284.739177
 30
0.0
 10
157.519221
 20
284.413765
 30
0.0
 10
157.031102
 20
284.291735
 30
0.0
  0
SPLINE
  5
1b7
100
AcDbEntity
  8
Layer_1
 62
7
100
AcDbSpline
 70
8
 71
3
 72
8
 73
4
 74
0
 40
0
 40
0
 40
0
 40
0
 40
1
 40
1
 40
1
 40
1
 10
157.031102
 20
284.291735
 30
0.0
 10
157.478544
 20
282.623997
 30
0.0
 10
157.702265
 20
281.179980
 30
0.0
 10
157.702265
 20
279.959683
 30
0.0
  0
SPLINE
  5
1b8
100
AcDbEntity
  8
Layer_1
 62
7
100
AcDbSpline
 70
8
 71
3
 72
8
 73
4
 74
0
 40
0
 40
0
 40
0
 40
0
 40
1
 40
1
 40
1
 40
1
 10
157.702265
 20
279.959683
 30
0.0
 10
157.702265
 20
277.885180
 30
0.0
 10
157.234485
 20
276.136088
 30
0.0
 10
156.298924
 20
274.712409
 30
0.0
  0
SPLINE
  5
1b9
100
AcDbEntity
  8
Layer_1
 62
7
100
AcDbSpline
 70
8
 71
3
 72
8
 73
4
 74
0
 40
0
 40
0
 40
0
 40
0
 40
1
 40
1
 40
1
 40
1
 10
156.298924
 20
274.712409
 30
0.0
 10
159.797107
 20
272.393847
 30
0.0
 10
161.546198
 20
269.058370
 30
0.0
 10
161.546198
 20
264.705980
 30
0.0
  0
SPLINE
  5
1ba
100
AcDbEntity
  8
Layer_1
 62
7
100
AcDbSpline
 70
8
 71
3
 72
8
 73
4
 74
0
 40
0
 40
0
 40
0
 40
0
 40
1
 40
1
 40
1
 40
1
 10
161.546198
 20
264.705980
 30
0.0
 10
161.546198
 20
257.221497
 30
0.0
 10
156.095542
 20
253.479255
 30
0.0
 10
145.194229
 20
253.479255
 30
0.0
  0
SPLINE
  5
1bb
100
AcDbEntity
  8
Layer_1
 62
7
100
AcDbSpline
 70
8
 71
3
 72
8
 73
4
 74
0
 40
0
 40
0
 40
0
 40
0
 40
1
 40
1
 40
1
 40
1
 10
145.194229
 20
253.479255
 30
0.0
 10
126.442343
 20
253.479255
 30
0.0
 10
115.419000
 20
254.638536
 30
0.0
 10
112.124200
 20
256.957099
 30
0.0
  0
SPLINE
  5
1bc
100
AcDbEntity
  8
Layer_1
 62
7
100
AcDbSpline
 70
8
 71
3
 72
8
 73
4
 74
0
 40
0
 40
0
 40
0
 40
0
 40
1
 40
1
 40
1
 40
1
 10
112.124200
 20
256.957099
 30
0.0
 10
108.178576
 20
259.682427
 30
0.0
 10
106.205763
 20
265.478834
 30
0.0
 10
106.205763
 20
274.346321
 30
0.0
  0
LWPOLYLINE
  5
1bd
100
AcDbEntity
  8
Layer_1
 62
7
100
AcDbPolyline
 90
2
 70
0
 10
106.266778
 20
280.935920
 30
0.0
 10
106.266778
 20
281.240994
 30
0.0
  0
SPLINE
  5
1be
100
AcDbEntity
  8
Layer_1
 62
7
100
AcDbSpline
 70
8
 71
3
 72
8
 73
4
 74
0
 40
0
 40
0
 40
0
 40
0
 40
1
 40
1
 40
1
 40
1
 10
141.228266
 20
285.267972
 30
0.0
 10
138.543614
 20
285.267972
 30
0.0
 10
136.367419
 20
285.227295
 30
0.0
 10
134.699681
 20
285.145942
 30
0.0
  0
SPLINE
  5
1bf
100
AcDbEntity
  8
Layer_1
 62
7
100
AcDbSpline
 70
8
 71
3
 72
8
 73
4
 74
0
 40
0
 40
0
 40
0
 40
0
 40
1
 40
1
 40
1
 40
1
 10
134.699681
 20
285.145942
 30
0.0
 10
133.031943
 20
285.105266
 30
0.0
 10
131.628602
 20
284.983236
 30
0.0
 10
130.489659
 20
284.779854
 30
0.0
  0
SPLINE
  5
1c0
100
AcDbEntity
  8
Layer_1
 62
7
100
AcDbSpline
 70
8
 71
3
 72
8
 73
4
 74
0
 40
0
 40
0
 40
0
 40
0
 40
1
 40
1
 40
1
 40
1
 10
130.489659
 20
284.779854
 30
0.0
 10
129.350716
 20
284.576471
 30
0.0
 10
128.394817
 20
284.291735
 30
0.0
 10
127.621963
 20
283.925646
 30
0.0
  0
SPLINE
  5
1c1
100
AcDbEntity
  8
Layer_1
 62
7
100
AcDbSpline
 70
8
 71
3
 72
8
 73
4
 74
0
 40
0
 40
0
 40
0
 40
0
 40
1
 40
1
 40
1
 40
1
 10
127.621963
 20
283.925646
 30
0.0
 10
126.889785
 20
283.600234
 30
0.0
 10
126.096592
 20
283.152792
 30
0.0
 10
125.242385
 20
282.583320
 30
0.0
  0
LWPOLYLINE
  5
1c2
100
AcDbEntity
  8
Layer_1
 62
7
100
AcDbPolyline
 90
2
 70
0
 10
106.205763
 20
274.346321
 30
0.0
 10
106.205763
 20
277.763150
 30
0.0
  0
SPLINE
  5
1c3
100
AcDbEntity
  8
Layer_1
 62
7
100
AcDbSpline
 70
8
 71
3
 72
8
 73
4
 74
0
 40
0
 40
0
 40
0
 40
0
 40
1
 40
1
 40
1
 40
1
 10
122.008600
 20
287.281461
 30
0.0
 10
122.740778
 20
287.810256
 30
0.0
 10
123.798368
 20
288.298374
 30
0.0
 10
125.181370
 20
288.745816
 30
0.0
  0
SPLINE
  5
1c4
100
AcDbEntity
  8
Layer_1
 62
7
100
AcDbSpline
 70
8
 71
3
 72
8
 73
4
 74
0
 40
0
 40
0
 40
0
 40
0
 40
1
 40
1
 40
1
 40
1
 10
125.181370
 20
288.745816
 30
0.0
 10
126.605049
 20
289.233935
 30
0.0
 10
128.191434
 20
289.661039
 30
0.0
 10
129.940525
 20
290.027127
 30
0.0
  0
SPLINE
  5
1c5
100
AcDbEntity
  8
Layer_1
 62
7
100
AcDbSpline
 70
8
 71
3
 72
8
 73
4
 74
0
 40
0
 40
0
 40
0
 40
0
 40
1
 40
1
 40
1
 40
1
 10
129.940525
 20
290.027127
 30
0.0
 10
131.689617
 20
290.393216
 30
0.0
 10
133.540399
 20
290.677952
 30
0.0
 10
135.492873
 20
290.881335
 30
0.0
  0
SPLINE
  5
1c6
100
AcDbEntity
  8
Layer_1
 62
7
100
AcDbSpline
 70
8
 71
3
 72
8
 73
4
 74
0
 40
0
 40
0
 40
0
 40
0
 40
1
 40
1
 40
1
 40
1
 10
135.492873
 20
290.881335
 30
0.0
 10
137.445347
 20
291.084717
 30
0.0
 10
139.336807
 20
291.186409
 30
0.0
 10
141.167251
 20
291.186409
 30
0.0
  0
SPLINE
  5
1c7
100
AcDbEntity
  8
Layer_1
 62
7
100
AcDbSpline
 70
8
 71
3
 72
8
 73
4
 74
0
 40
0
 40
0
 40
0
 40
0
 40
1
 40
1
 40
1
 40
1
 10
141.167251
 20
291.186409
 30
0.0
 10
147.594145
 20
291.186409
 30
0.0
 10
151.946535
 20
290.271187
 30
0.0
 10
154.224421
 20
288.440742
 30
0.0
  0
SPLINE
  5
1c8
100
AcDbEntity
  8
Layer_1
 62
7
100
AcDbSpline
 70
8
 71
3
 72
8
 73
4
 74
0
 40
0
 40
0
 40
0
 40
0
 40
1
 40
1
 40
1
 40
1
 10
154.224421
 20
288.440742
 30
0.0
 10
154.549833
 20
289.010214
 30
0.0
 10
154.712539
 20
289.620362
 30
0.0
 10
154.712539
 20
290.271187
 30
0.0
  0
SPLINE
  5
1c9
100
AcDbEntity
  8
Layer_1
 62
7
100
AcDbSpline
 70
8
 71
3
 72
8
 73
4
 74
0
 40
0
 40
0
 40
0
 40
0
 40
1
 40
1
 40
1
 40
1
 10
154.712539
 20
290.271187
 30
0.0
 10
154.712539
 20
291.044041
 30
0.0
 10
154.590510
 20
291.715204
 30
0.0
 10
154.346450
 20
292.284675
 30
0.0
  0
SPLINE
  5
1ca
100
AcDbEntity
  8
Layer_1
 62
7
100
AcDbSpline
 70
8
 71
3
 72
8
 73
4
 74
0
 40
0
 40
0
 40
0
 40
0
 40
1
 40
1
 40
1
 40
1
 10
154.346450
 20
292.284675
 30
0.0
 10
154.102391
 20
292.854147
 30
0.0
 10
153.492243
 20
293.321927
 30
0.0
 10
152.516006
 20
293.688016
 30
0.0
  0
SPLINE
  5
1cb
100
AcDbEntity
  8
Layer_1
 62
7
100
AcDbSpline
 70
8
 71
3
 72
8
 73
4
 74
0
 40
0
 40
0
 40
0
 40
0
 40
1
 40
1
 40
1
 40
1
 10
152.516006
 20
293.688016
 30
0.0
 10
151.580446
 20
294.094782
 30
0.0
 10
150.136428
 20
294.379517
 30
0.0
 10
148.183954
 20
294.542224
 30
0.0
  0
SPLINE
  5
1cc
100
AcDbEntity
  8
Layer_1
 62
7
100
AcDbSpline
 70
8
 71
3
 72
8
 73
4
 74
0
 40
0
 40
0
 40
0
 40
0
 40
1
 40
1
 40
1
 40
1
 10
148.183954
 20
294.542224
 30
0.0
 10
146.272157
 20
294.745606
 30
0.0
 10
143.628182
 20
294.847298
 30
0.0
 10
140.252029
 20
294.847298
 30
0.0
  0
SPLINE
  5
1cd
100
AcDbEntity
  8
Layer_1
 62
7
100
AcDbSpline
 70
8
 71
3
 72
8
 73
4
 74
0
 40
0
 40
0
 40
0
 40
0
 40
1
 40
1
 40
1
 40
1
 10
140.252029
 20
294.847298
 30
0.0
 10
139.601204
 20
294.847298
 30
0.0
 10
138.584291
 20
294.826959
 30
0.0
 10
137.201288
 20
294.786283
 30
0.0
  0
SPLINE
  5
1ce
100
AcDbEntity
  8
Layer_1
 62
7
100
AcDbSpline
 70
8
 71
3
 72
8
 73
4
 74
0
 40
0
 40
0
 40
0
 40
0
 40
1
 40
1
 40
1
 40
1
 10
137.201288
 20
294.786283
 30
0.0
 10
135.818286
 20
294.745606
 30
0.0
 10
134.374268
 20
294.704930
 30
0.0
 10
132.869236
 20
294.664253
 30
0.0
  0
SPLINE
  5
1cf
100
AcDbEntity
  8
Layer_1
 62
7
100
AcDbSpline
 70
8
 71
3
 72
8
 73
4
 74
0
 40
0
 40
0
 40
0
 40
0
 40
1
 40
1
 40
1
 40
1
 10
132.869236
 20
294.664253
 30
0.0
 10
131.404881
 20
294.623577
 30
0.0
 10
130.021879
 20
294.582900
 30
0.0
 10
128.720229
 20
294.542224
 30
0.0
  0
SPLINE
  5
1d0
100
AcDbEntity
  8
Layer_1
 62
7
100
AcDbSpline
 70
8
 71
3
 72
8
 73
4
 74
0
 40
0
 40
0
 40
0
 40
0
 40
1
 40
1
 40
1
 40
1
 10
128.720229
 20
294.542224
 30
0.0
 10
127.459256
 20
294.501547
 30
0.0
 10
126.625387
 20
294.481209
 30
0.0
 10
126.218622
 20
294.481209
 30
0.0
  0
SPLINE
  5
1d1
100
AcDbEntity
  8
Layer_1
 62
7
100
AcDbSpline
 70
8
 71
3
 72
8
 73
4
 74
0
 40
0
 40
0
 40
0
 40
0
 40
1
 40
1
 40
1
 40
1
 10
126.218622
 20
294.481209
 30
0.0
 10
125.852533
 20
294.481209
 30
0.0
 10
125.405091
 20
294.501547
 30
0.0
 10
124.876296
 20
294.542224
 30
0.0
  0
SPLINE
  5
1d2
100
AcDbEntity
  8
Layer_1
 62
7
100
AcDbSpline
 70
8
 71
3
 72
8
 73
4
 74
0
 40
0
 40
0
 40
0
 40
0
 40
1
 40
1
 40
1
 40
1
 10
124.876296
 20
294.542224
 30
0.0
 10
124.388178
 20
294.582900
 30
0.0
 10
123.798368
 20
294.603238
 30
0.0
 10
123.106866
 20
294.603238
 30
0.0
  0
LWPOLYLINE
  5
1d3
100
AcDbEntity
  8
Layer_1
 62
7
100
AcDbPolyline
 90
2
 70
0
 10
125.242385
 20
282.583320
 30
0.0
 10
122.008600
 20
287.281461
 30
0.0
  0
SPLINE
  5
1d4
100
AcDbEntity
  8
Layer_1
 62
7
100
AcDbSpline
 70
8
 71
3
 72
8
 73
4
 74
0
 40
0
 40
0
 40
0
 40
0
 40
1
 40
1
 40
1
 40
1
 10
119.506992
 20
294.603238
 30
0.0
 10
118.368049
 20
294.603238
 30
0.0
 10
117.371474
 20
294.542224
 30
0.0
 10
116.517267
 20
294.420194
 30
0.0
  0
SPLINE
  5
1d5
100
AcDbEntity
  8
Layer_1
 62
7
100
AcDbSpline
 70
8
 71
3
 72
8
 73
4
 74
0
 40
0
 40
0
 40
0
 40
0
 40
1
 40
1
 40
1
 40
1
 10
116.517267
 20
294.420194
 30
0.0
 10
115.703736
 20
294.338841
 30
0.0
 10
115.012235
 20
294.074443
 30
0.0
 10
114.442763
 20
293.627001
 30
0.0
  0
SPLINE
  5
1d6
100
AcDbEntity
  8
Layer_1
 62
7
100
AcDbSpline
 70
8
 71
3
 72
8
 73
4
 74
0
 40
0
 40
0
 40
0
 40
0
 40
1
 40
1
 40
1
 40
1
 10
114.442763
 20
293.627001
 30
0.0
 10
113.873291
 20
293.220236
 30
0.0
 10
113.405511
 20
292.569411
 30
0.0
 10
113.039422
 20
291.674527
 30
0.0
  0
SPLINE
  5
1d7
100
AcDbEntity
  8
Layer_1
 62
7
100
AcDbSpline
 70
8
 71
3
 72
8
 73
4
 74
0
 40
0
 40
0
 40
0
 40
0
 40
1
 40
1
 40
1
 40
1
 10
113.039422
 20
291.674527
 30
0.0
 10
112.714010
 20
290.820320
 30
0.0
 10
112.449613
 20
289.620362
 30
0.0
 10
112.246230
 20
288.074653
 30
0.0
  0
SPLINE
  5
1d8
100
AcDbEntity
  8
Layer_1
 62
7
100
AcDbSpline
 70
8
 71
3
 72
8
 73
4
 74
0
 40
0
 40
0
 40
0
 40
0
 40
1
 40
1
 40
1
 40
1
 10
112.246230
 20
288.074653
 30
0.0
 10
112.042847
 20
286.528945
 30
0.0
 10
111.900479
 20
284.576471
 30
0.0
 10
111.819126
 20
282.217231
 30
0.0
  0
SPLINE
  5
1d9
100
AcDbEntity
  8
Layer_1
 62
7
100
AcDbSpline
 70
8
 71
3
 72
8
 73
4
 74
0
 40
0
 40
0
 40
0
 40
0
 40
1
 40
1
 40
1
 40
1
 10
111.819126
 20
282.217231
 30
0.0
 10
111.778450
 20
279.857992
 30
0.0
 10
111.758111
 20
276.990296
 30
0.0
 10
111.758111
 20
273.614143
 30
0.0
  0
SPLINE
  5
1da
100
AcDbEntity
  8
Layer_1
 62
7
100
AcDbSpline
 70
8
 71
3
 72
8
 73
4
 74
0
 40
0
 40
0
 40
0
 40
0
 40
1
 40
1
 40
1
 40
1
 10
111.758111
 20
273.614143
 30
0.0
 10
111.758111
 20
269.424459
 30
0.0
 10
112.286906
 20
266.292365
 30
0.0
 10
113.344496
 20
264.217862
 30
0.0
  0
SPLINE
  5
1db
100
AcDbEntity
  8
Layer_1
 62
7
100
AcDbSpline
 70
8
 71
3
 72
8
 73
4
 74
0
 40
0
 40
0
 40
0
 40
0
 40
1
 40
1
 40
1
 40
1
 10
113.344496
 20
264.217862
 30
0.0
 10
114.442763
 20
262.143358
 30
0.0
 10
116.090163
 20
260.943400
 30
0.0
 10
118.286696
 20
260.617988
 30
0.0
  0
SPLINE
  5
1dc
100
AcDbEntity
  8
Layer_1
 62
7
100
AcDbSpline
 70
8
 71
3
 72
8
 73
4
 74
0
 40
0
 40
0
 40
0
 40
0
 40
1
 40
1
 40
1
 40
1
 10
118.286696
 20
260.617988
 30
0.0
 10
121.459466
 20
260.089193
 30
0.0
 10
125.242385
 20
259.702766
 30
0.0
 10
129.635451
 20
259.458706
 30
0.0
  0
SPLINE
  5
1dd
100
AcDbEntity
  8
Layer_1
 62
7
100
AcDbSpline
 70
8
 71
3
 72
8
 73
4
 74
0
 40
0
 40
0
 40
0
 40
0
 40
1
 40
1
 40
1
 40
1
 10
129.635451
 20
259.458706
 30
0.0
 10
134.028518
 20
259.255324
 30
0.0
 10
139.214777
 20
259.153632
 30
0.0
 10
145.194229
 20
259.153632
 30
0.0
  0
SPLINE
  5
1de
100
AcDbEntity
  8
Layer_1
 62
7
100
AcDbSpline
 70
8
 71
3
 72
8
 73
4
 74
0
 40
0
 40
0
 40
0
 40
0
 40
1
 40
1
 40
1
 40
1
 10
145.194229
 20
259.153632
 30
0.0
 10
152.312623
 20
259.153632
 30
0.0
 10
155.871821
 20
261.004415
 30
0.0
 10
155.871821
 20
264.705980
 30
0.0
  0
SPLINE
  5
1df
100
AcDbEntity
  8
Layer_1
 62
7
100
AcDbSpline
 70
8
 71
3
 72
8
 73
4
 74
0
 40
0
 40
0
 40
0
 40
0
 40
1
 40
1
 40
1
 40
1
 10
155.871821
 20
264.705980
 30
0.0
 10
155.871821
 20
269.831224
 30
0.0
 10
151.702475
 20
272.393847
 30
0.0
 10
143.363784
 20
272.393847
 30
0.0
  0
SPLINE
  5
1e0
100
AcDbEntity
  8
Layer_1
 62
7
100
AcDbSpline
 70
8
 71
3
 72
8
 73
4
 74
0
 40
0
 40
0
 40
0
 40
0
 40
1
 40
1
 40
1
 40
1
 10
143.363784
 20
272.393847
 30
0.0
 10
140.923192
 20
272.393847
 30
0.0
 10
138.624967
 20
272.210802
 30
0.0
 10
136.469110
 20
271.844713
 30
0.0
  0
SPLINE
  5
1e1
100
AcDbEntity
  8
Layer_1
 62
7
100
AcDbSpline
 70
8
 71
3
 72
8
 73
4
 74
0
 40
0
 40
0
 40
0
 40
0
 40
1
 40
1
 40
1
 40
1
 10
136.469110
 20
271.844713
 30
0.0
 10
134.313254
 20
271.519301
 30
0.0
 10
132.299765
 20
270.990506
 30
0.0
 10
130.428644
 20
270.258328
 30
0.0
  0
LWPOLYLINE
  5
1e2
100
AcDbEntity
  8
Layer_1
 62
7
100
AcDbPolyline
 90
2
 70
0
 10
123.106866
 20
294.603238
 30
0.0
 10
119.506992
 20
294.603238
 30
0.0
  0
SPLINE
  5
1e3
100
AcDbEntity
  8
Layer_1
 62
7
100
AcDbSpline
 70
8
 71
3
 72
8
 73
4
 74
0
 40
0
 40
0
 40
0
 40
0
 40
1
 40
1
 40
1
 40
1
 10
128.415155
 20
275.627632
 30
0.0
 10
133.092957
 20
277.295370
 30
0.0
 10
137.892789
 20
278.129239
 30
0.0
 10
142.814651
 20
278.129239
 30
0.0
  0
SPLINE
  5
1e4
100
AcDbEntity
  8
Layer_1
 62
7
100
AcDbSpline
 70
8
 71
3
 72
8
 73
4
 74
0
 40
0
 40
0
 40
0
 40
0
 40
1
 40
1
 40
1
 40
1
 10
142.814651
 20
278.129239
 30
0.0
 10
145.621332
 20
278.129239
 30
0.0
 10
148.305984
 20
277.783488
 30
0.0
 10
150.868606
 20
277.091987
 30
0.0
  0
SPLINE
  5
1e5
100
AcDbEntity
  8
Layer_1
 62
7
100
AcDbSpline
 70
8
 71
3
 72
8
 73
4
 74
0
 40
0
 40
0
 40
0
 40
0
 40
1
 40
1
 40
1
 40
1
 10
150.868606
 20
277.091987
 30
0.0
 10
151.641460
 20
277.742812
 30
0.0
 10
152.027888
 20
278.515666
 30
0.0
 10
152.027888
 20
279.410550
 30
0.0
  0
SPLINE
  5
1e6
100
AcDbEntity
  8
Layer_1
 62
7
100
AcDbSpline
 70
8
 71
3
 72
8
 73
4
 74
0
 40
0
 40
0
 40
0
 40
0
 40
1
 40
1
 40
1
 40
1
 10
152.027888
 20
279.410550
 30
0.0
 10
152.027888
 20
281.485054
 30
0.0
 10
151.417739
 20
282.990086
 30
0.0
 10
150.197443
 20
283.925646
 30
0.0
  0
SPLINE
  5
1e7
100
AcDbEntity
  8
Layer_1
 62
7
100
AcDbSpline
 70
8
 71
3
 72
8
 73
4
 74
0
 40
0
 40
0
 40
0
 40
0
 40
1
 40
1
 40
1
 40
1
 10
150.197443
 20
283.925646
 30
0.0
 10
148.977147
 20
284.861207
 30
0.0
 10
147.126364
 20
285.328987
 30
0.0
 10
144.645095
 20
285.328987
 30
0.0
  0
SPLINE
  5
1e8
100
AcDbEntity
  8
Layer_1
 62
7
100
AcDbSpline
 70
8
 71
3
 72
8
 73
4
 74
0
 40
0
 40
0
 40
0
 40
0
 40
1
 40
1
 40
1
 40
1
 10
144.645095
 20
285.328987
 30
0.0
 10
144.441713
 20
285.328987
 30
0.0
 10
144.217992
 20
285.308649
 30
0.0
 10
143.973932
 20
285.267972
 30
0.0
  0
LWPOLYLINE
  5
1e9
100
AcDbEntity
  8
Layer_1
 62
7
100
AcDbPolyline
 90
2
 70
0
 10
130.428644
 20
270.258328
 30
0.0
 10
128.415155
 20
275.627632
 30
0.0
  0
SPLINE
  5
1ea
100
AcDbEntity
  8
Layer_1
 62
7
100
AcDbSpline
 70
8
 71
3
 72
8
 73
4
 74
0
 40
0
 40
0
 40
0
 40
0
 40
1
 40
1
 40
1
 40
1
 10
186.087502
 20
269.221076
 30
0.0
 10
186.087502
 20
266.780484
 30
0.0
 10
185.762089
 20
264.522936
 30
0.0
 10
185.111265
 20
262.448432
 30
0.0
  0
SPLINE
  5
1eb
100
AcDbEntity
  8
Layer_1
 62
7
100
AcDbSpline
 70
8
 71
3
 72
8
 73
4
 74
0
 40
0
 40
0
 40
0
 40
0
 40
1
 40
1
 40
1
 40
1
 10
185.111265
 20
262.448432
 30
0.0
 10
184.501117
 20
260.373928
 30
0.0
 10
183.646909
 20
258.584161
 30
0.0
 10
182.548643
 20
257.079129
 30
0.0
  0
SPLINE
  5
1ec
100
AcDbEntity
  8
Layer_1
 62
7
100
AcDbSpline
 70
8
 71
3
 72
8
 73
4
 74
0
 40
0
 40
0
 40
0
 40
0
 40
1
 40
1
 40
1
 40
1
 10
182.548643
 20
257.079129
 30
0.0
 10
181.450376
 20
255.574097
 30
0.0
 10
180.148727
 20
254.394477
 30
0.0
 10
178.643695
 20
253.540269
 30
0.0
  0
SPLINE
  5
1ed
100
AcDbEntity
  8
Layer_1
 62
7
100
AcDbSpline
 70
8
 71
3
 72
8
 73
4
 74
0
 40
0
 40
0
 40
0
 40
0
 40
1
 40
1
 40
1
 40
1
 10
178.643695
 20
253.540269
 30
0.0
 10
177.179339
 20
252.726739
 30
0.0
 10
175.572616
 20
252.319973
 30
0.0
 10
173.823524
 20
252.319973
 30
0.0
  0
SPLINE
  5
1ee
100
AcDbEntity
  8
Layer_1
 62
7
100
AcDbSpline
 70
8
 71
3
 72
8
 73
4
 74
0
 40
0
 40
0
 40
0
 40
0
 40
1
 40
1
 40
1
 40
1
 10
173.823524
 20
252.319973
 30
0.0
 10
172.359169
 20
252.319973
 30
0.0
 10
171.016843
 20
252.645386
 30
0.0
 10
169.796547
 20
253.296210
 30
0.0
  0
SPLINE
  5
1ef
100
AcDbEntity
  8
Layer_1
 62
7
100
AcDbSpline
 70
8
 71
3
 72
8
 73
4
 74
0
 40
0
 40
0
 40
0
 40
0
 40
1
 40
1
 40
1
 40
1
 10
169.796547
 20
253.296210
 30
0.0
 10
168.616927
 20
253.947035
 30
0.0
 10
167.600014
 20
254.841919
 30
0.0
 10
166.745806
 20
255.980862
 30
0.0
  0
SPLINE
  5
1f0
100
AcDbEntity
  8
Layer_1
 62
7
100
AcDbSpline
 70
8
 71
3
 72
8
 73
4
 74
0
 40
0
 40
0
 40
0
 40
0
 40
1
 40
1
 40
1
 40
1
 10
166.745806
 20
255.980862
 30
0.0
 10
165.932275
 20
257.160482
 30
0.0
 10
165.281451
 20
258.543484
 30
0.0
 10
164.793332
 20
260.129869
 30
0.0
  0
SPLINE
  5
1f1
100
AcDbEntity
  8
Layer_1
 62
7
100
AcDbSpline
 70
8
 71
3
 72
8
 73
4
 74
0
 40
0
 40
0
 40
0
 40
0
 40
1
 40
1
 40
1
 40
1
 10
164.793332
 20
260.129869
 30
0.0
 10
164.345890
 20
261.716254
 30
0.0
 10
164.122169
 20
263.465346
 30
0.0
 10
164.122169
 20
265.377143
 30
0.0
  0
SPLINE
  5
1f2
100
AcDbEntity
  8
Layer_1
 62
7
100
AcDbSpline
 70
8
 71
3
 72
8
 73
4
 74
0
 40
0
 40
0
 40
0
 40
0
 40
1
 40
1
 40
1
 40
1
 10
164.122169
 20
265.377143
 30
0.0
 10
164.122169
 20
269.444797
 30
0.0
 10
164.142507
 20
272.698921
 30
0.0
 10
164.183184
 20
275.139513
 30
0.0
  0
SPLINE
  5
1f3
100
AcDbEntity
  8
Layer_1
 62
7
100
AcDbSpline
 70
8
 71
3
 72
8
 73
4
 74
0
 40
0
 40
0
 40
0
 40
0
 40
1
 40
1
 40
1
 40
1
 10
164.183184
 20
275.139513
 30
0.0
 10
164.264537
 20
277.620782
 30
0.0
 10
164.345890
 20
279.329197
 30
0.0
 10
164.427243
 20
280.264757
 30
0.0
  0
SPLINE
  5
1f4
100
AcDbEntity
  8
Layer_1
 62
7
100
AcDbSpline
 70
8
 71
3
 72
8
 73
4
 74
0
 40
0
 40
0
 40
0
 40
0
 40
1
 40
1
 40
1
 40
1
 10
164.427243
 20
280.264757
 30
0.0
 10
164.956038
 20
285.593384
 30
0.0
 10
166.196673
 20
289.864421
 30
0.0
 10
168.149147
 20
293.077868
 30
0.0
  0
SPLINE
  5
1f5
100
AcDbEntity
  8
Layer_1
 62
7
100
AcDbSpline
 70
8
 71
3
 72
8
 73
4
 74
0
 40
0
 40
0
 40
0
 40
0
 40
1
 40
1
 40
1
 40
1
 10
168.149147
 20
293.077868
 30
0.0
 10
170.142297
 20
296.291315
 30
0.0
 10
172.867626
 20
298.406495
 30
0.0
 10
176.325132
 20
299.423409
 30
0.0
  0
SPLINE
  5
1f6
100
AcDbEntity
  8
Layer_1
 62
7
100
AcDbSpline
 70
8
 71
3
 72
8
 73
4
 74
0
 40
0
 40
0
 40
0
 40
0
 40
1
 40
1
 40
1
 40
1
 10
176.325132
 20
299.423409
 30
0.0
 10
177.179339
 20
299.667468
 30
0.0
 10
178.033546
 20
299.830174
 30
0.0
 10
178.887754
 20
299.911527
 30
0.0
  0
SPLINE
  5
1f7
100
AcDbEntity
  8
Layer_1
 62
7
100
AcDbSpline
 70
8
 71
3
 72
8
 73
4
 74
0
 40
0
 40
0
 40
0
 40
0
 40
1
 40
1
 40
1
 40
1
 10
178.887754
 20
299.911527
 30
0.0
 10
179.782638
 20
300.033557
 30
0.0
 10
180.799551
 20
300.114910
 30
0.0
 10
181.938494
 20
300.155586
 30
0.0
  0
SPLINE
  5
1f8
100
AcDbEntity
  8
Layer_1
 62
7
100
AcDbSpline
 70
8
 71
3
 72
8
 73
4
 74
0
 40
0
 40
0
 40
0
 40
0
 40
1
 40
1
 40
1
 40
1
 10
181.938494
 20
300.155586
 30
0.0
 10
183.077438
 20
300.196263
 30
0.0
 10
184.399425
 20
300.216601
 30
0.0
 10
185.904457
 20
300.216601
 30
0.0
  0
SPLINE
  5
1f9
100
AcDbEntity
  8
Layer_1
 62
7
100
AcDbSpline
 70
8
 71
3
 72
8
 73
4
 74
0
 40
0
 40
0
 40
0
 40
0
 40
1
 40
1
 40
1
 40
1
 10
185.904457
 20
300.216601
 30
0.0
 10
187.450166
 20
300.257278
 30
0.0
 10
189.280610
 20
300.318292
 30
0.0
 10
191.395790
 20
300.399646
 30
0.0
  0
SPLINE
  5
1fa
100
AcDbEntity
  8
Layer_1
 62
7
100
AcDbSpline
 70
8
 71
3
 72
8
 73
4
 74
0
 40
0
 40
0
 40
0
 40
0
 40
1
 40
1
 40
1
 40
1
 10
191.395790
 20
300.399646
 30
0.0
 10
192.697440
 20
300.440322
 30
0.0
 10
193.836383
 20
300.480999
 30
0.0
 10
194.812620
 20
300.521675
 30
0.0
  0
SPLINE
  5
1fb
100
AcDbEntity
  8
Layer_1
 62
7
100
AcDbSpline
 70
8
 71
3
 72
8
 73
4
 74
0
 40
0
 40
0
 40
0
 40
0
 40
1
 40
1
 40
1
 40
1
 10
194.812620
 20
300.521675
 30
0.0
 10
195.788857
 20
300.562352
 30
0.0
 10
196.622726
 20
300.582690
 30
0.0
 10
197.314227
 20
300.582690
 30
0.0
  0
SPLINE
  5
1fc
100
AcDbEntity
  8
Layer_1
 62
7
100
AcDbSpline
 70
8
 71
3
 72
8
 73
4
 74
0
 40
0
 40
0
 40
0
 40
0
 40
1
 40
1
 40
1
 40
1
 10
197.314227
 20
300.582690
 30
0.0
 10
202.114059
 20
300.582690
 30
0.0
 10
206.202052
 20
300.216601
 30
0.0
 10
209.578205
 20
299.484423
 30
0.0
  0
SPLINE
  5
1fd
100
AcDbEntity
  8
Layer_1
 62
7
100
AcDbSpline
 70
8
 71
3
 72
8
 73
4
 74
0
 40
0
 40
0
 40
0
 40
0
 40
1
 40
1
 40
1
 40
1
 10
209.578205
 20
299.484423
 30
0.0
 10
212.995034
 20
298.752246
 30
0.0
 10
215.781377
 20
297.613302
 30
0.0
 10
217.937234
 20
296.067594
 30
0.0
  0
SPLINE
  5
1fe
100
AcDbEntity
  8
Layer_1
 62
7
100
AcDbSpline
 70
8
 71
3
 72
8
 73
4
 74
0
 40
0
 40
0
 40
0
 40
0
 40
1
 40
1
 40
1
 40
1
 10
217.937234
 20
296.067594
 30
0.0
 10
220.133767
 20
294.562562
 30
0.0
 10
221.740491
 20
292.650764
 30
0.0
 10
222.757404
 20
290.332201
 30
0.0
  0
SPLINE
  5
1ff
100
AcDbEntity
  8
Layer_1
 62
7
100
AcDbSpline
 70
8
 71
3
 72
8
 73
4
 74
0
 40
0
 40
0
 40
0
 40
0
 40
1
 40
1
 40
1
 40
1
 10
222.757404
 20
290.332201
 30
0.0
 10
223.774318
 20
288.054315
 30
0.0
 10
224.282774
 20
285.369663
 30
0.0
 10
224.282774
 20
282.278246
 30
0.0
  0
SPLINE
  5
200
100
AcDbEntity
  8
Layer_1
 62
7
100
AcDbSpline
 70
8
 71
3
 72
8
 73
4
 74
0
 40
0
 40
0
 40
0
 40
0
 40
1
 40
1
 40
1
 40
1
 10
224.282774
 20
282.278246
 30
0.0
 10
224.282774
 20
278.373298
 30
0.0
 10
222.533683
 20
274.732748
 30
0.0
 10
219.035501
 20
271.356595
 30
0.0
  0
SPLINE
  5
201
100
AcDbEntity
  8
Layer_1
 62
7
100
AcDbSpline
 70
8
 71
3
 72
8
 73
4
 74
0
 40
0
 40
0
 40
0
 40
0
 40
1
 40
1
 40
1
 40
1
 10
219.035501
 20
271.356595
 30
0.0
 10
221.801505
 20
267.858412
 30
0.0
 10
223.184508
 20
264.034817
 30
0.0
 10
223.184508
 20
259.885810
 30
0.0
  0
SPLINE
  5
202
100
AcDbEntity
  8
Layer_1
 62
7
100
AcDbSpline
 70
8
 71
3
 72
8
 73
4
 74
0
 40
0
 40
0
 40
0
 40
0
 40
1
 40
1
 40
1
 40
1
 10
223.184508
 20
259.885810
 30
0.0
 10
223.184508
 20
254.191094
 30
0.0
 10
220.357488
 20
251.343736
 30
0.0
 10
214.703449
 20
251.343736
 30
0.0
  0
SPLINE
  5
203
100
AcDbEntity
  8
Layer_1
 62
7
100
AcDbSpline
 70
8
 71
3
 72
8
 73
4
 74
0
 40
0
 40
0
 40
0
 40
0
 40
1
 40
1
 40
1
 40
1
 10
214.703449
 20
251.343736
 30
0.0
 10
212.791651
 20
251.343736
 30
0.0
 10
210.656133
 20
251.933546
 30
0.0
 10
208.296894
 20
253.113166
 30
0.0
  0
SPLINE
  5
204
100
AcDbEntity
  8
Layer_1
 62
7
100
AcDbSpline
 70
8
 71
3
 72
8
 73
4
 74
0
 40
0
 40
0
 40
0
 40
0
 40
1
 40
1
 40
1
 40
1
 10
208.296894
 20
253.113166
 30
0.0
 10
205.937654
 20
254.333462
 30
0.0
 10
203.130973
 20
256.224921
 30
0.0
 10
199.876849
 20
258.787543
 30
0.0
  0
LWPOLYLINE
  5
205
100
AcDbEntity
  8
Layer_1
 62
7
100
AcDbPolyline
 90
3
 70
0
 10
143.973932
 20
285.267972
 30
0.0
 10
143.119725
 20
285.267972
 30
0.0
 10
141.228266
 20
285.267972
 30
0.0
  0
SPLINE
  5
206
100
AcDbEntity
  8
Layer_1
 62
7
100
AcDbSpline
 70
8
 71
3
 72
8
 73
4
 74
0
 40
0
 40
0
 40
0
 40
0
 40
1
 40
1
 40
1
 40
1
 10
209.517190
 20
258.909573
 30
0.0
 10
211.428987
 20
257.607924
 30
0.0
 10
213.157740
 20
256.957099
 30
0.0
 10
214.703449
 20
256.957099
 30
0.0
  0
SPLINE
  5
207
100
AcDbEntity
  8
Layer_1
 62
7
100
AcDbSpline
 70
8
 71
3
 72
8
 73
4
 74
0
 40
0
 40
0
 40
0
 40
0
 40
1
 40
1
 40
1
 40
1
 10
214.703449
 20
256.957099
 30
0.0
 10
216.696599
 20
256.957099
 30
0.0
 10
217.693175
 20
258.136719
 30
0.0
 10
217.693175
 20
260.495958
 30
0.0
  0
SPLINE
  5
208
100
AcDbEntity
  8
Layer_1
 62
7
100
AcDbSpline
 70
8
 71
3
 72
8
 73
4
 74
0
 40
0
 40
0
 40
0
 40
0
 40
1
 40
1
 40
1
 40
1
 10
217.693175
 20
260.495958
 30
0.0
 10
217.693175
 20
261.838284
 30
0.0
 10
217.327086
 20
263.241625
 30
0.0
 10
216.594908
 20
264.705980
 30
0.0
  0
SPLINE
  5
209
100
AcDbEntity
  8
Layer_1
 62
7
100
AcDbSpline
 70
8
 71
3
 72
8
 73
4
 74
0
 40
0
 40
0
 40
0
 40
0
 40
1
 40
1
 40
1
 40
1
 10
216.594908
 20
264.705980
 30
0.0
 10
215.903407
 20
266.170336
 30
0.0
 10
214.845817
 20
267.675368
 30
0.0
 10
213.422138
 20
269.221076
 30
0.0
  0
SPLINE
  5
20a
100
AcDbEntity
  8
Layer_1
 62
7
100
AcDbSpline
 70
8
 71
3
 72
8
 73
4
 74
0
 40
0
 40
0
 40
0
 40
0
 40
1
 40
1
 40
1
 40
1
 10
213.422138
 20
269.221076
 30
0.0
 10
212.974696
 20
269.668518
 30
0.0
 10
212.140827
 20
270.461711
 30
0.0
 10
210.920530
 20
271.600654
 30
0.0
  0
SPLINE
  5
20b
100
AcDbEntity
  8
Layer_1
 62
7
100
AcDbSpline
 70
8
 71
3
 72
8
 73
4
 74
0
 40
0
 40
0
 40
0
 40
0
 40
1
 40
1
 40
1
 40
1
 10
210.920530
 20
271.600654
 30
0.0
 10
209.740911
 20
272.780274
 30
0.0
 10
208.113849
 20
274.305644
 30
0.0
 10
206.039345
 20
276.176765
 30
0.0
  0
LWPOLYLINE
  5
20c
100
AcDbEntity
  8
Layer_1
 62
7
100
AcDbPolyline
 90
3
 70
0
 10
199.876849
 20
258.787543
 30
0.0
 10
186.087502
 20
269.709195
 30
0.0
 10
186.087502
 20
269.221076
 30
0.0
  0
SPLINE
  5
20d
100
AcDbEntity
  8
Layer_1
 62
7
100
AcDbSpline
 70
8
 71
3
 72
8
 73
4
 74
0
 40
0
 40
0
 40
0
 40
0
 40
1
 40
1
 40
1
 40
1
 10
215.252582
 20
275.505602
 30
0.0
 10
217.489792
 20
277.580106
 30
0.0
 10
218.608397
 20
279.837654
 30
0.0
 10
218.608397
 20
282.278246
 30
0.0
  0
SPLINE
  5
20e
100
AcDbEntity
  8
Layer_1
 62
7
100
AcDbSpline
 70
8
 71
3
 72
8
 73
4
 74
0
 40
0
 40
0
 40
0
 40
0
 40
1
 40
1
 40
1
 40
1
 10
218.608397
 20
282.278246
 30
0.0
 10
218.608397
 20
287.200108
 30
0.0
 10
216.859306
 20
290.616937
 30
0.0
 10
213.361123
 20
292.528735
 30
0.0
  0
SPLINE
  5
20f
100
AcDbEntity
  8
Layer_1
 62
7
100
AcDbSpline
 70
8
 71
3
 72
8
 73
4
 74
0
 40
0
 40
0
 40
0
 40
0
 40
1
 40
1
 40
1
 40
1
 10
213.361123
 20
292.528735
 30
0.0
 10
212.222180
 20
293.138883
 30
0.0
 10
210.534103
 20
293.606663
 30
0.0
 10
208.296894
 20
293.932075
 30
0.0
  0
SPLINE
  5
210
100
AcDbEntity
  8
Layer_1
 62
7
100
AcDbSpline
 70
8
 71
3
 72
8
 73
4
 74
0
 40
0
 40
0
 40
0
 40
0
 40
1
 40
1
 40
1
 40
1
 10
208.296894
 20
293.932075
 30
0.0
 10
206.100360
 20
294.257488
 30
0.0
 10
203.273341
 20
294.501547
 30
0.0
 10
199.815835
 20
294.664253
 30
0.0
  0
LWPOLYLINE
  5
211
100
AcDbEntity
  8
Layer_1
 62
7
100
AcDbPolyline
 90
3
 70
0
 10
206.039345
 20
276.176765
 30
0.0
 10
209.761249
 20
280.447802
 30
0.0
 10
215.252582
 20
275.505602
 30
0.0
  0
SPLINE
  5
212
100
AcDbEntity
  8
Layer_1
 62
7
100
AcDbSpline
 70
8
 71
3
 72
8
 73
4
 74
0
 40
0
 40
0
 40
0
 40
0
 40
1
 40
1
 40
1
 40
1
 10
185.660398
 20
294.664253
 30
0.0
 10
181.999509
 20
294.664253
 30
0.0
 10
179.111475
 20
294.298164
 30
0.0
 10
176.996295
 20
293.565987
 30
0.0
  0
SPLINE
  5
213
100
AcDbEntity
  8
Layer_1
 62
7
100
AcDbSpline
 70
8
 71
3
 72
8
 73
4
 74
0
 40
0
 40
0
 40
0
 40
0
 40
1
 40
1
 40
1
 40
1
 10
176.996295
 20
293.565987
 30
0.0
 10
174.881114
 20
292.874485
 30
0.0
 10
173.294729
 20
291.471145
 30
0.0
 10
172.237139
 20
289.355964
 30
0.0
  0
SPLINE
  5
214
100
AcDbEntity
  8
Layer_1
 62
7
100
AcDbSpline
 70
8
 71
3
 72
8
 73
4
 74
0
 40
0
 40
0
 40
0
 40
0
 40
1
 40
1
 40
1
 40
1
 10
172.237139
 20
289.355964
 30
0.0
 10
171.179549
 20
287.281461
 30
0.0
 10
170.508386
 20
284.312073
 30
0.0
 10
170.223650
 20
280.447802
 30
0.0
  0
SPLINE
  5
215
100
AcDbEntity
  8
Layer_1
 62
7
100
AcDbSpline
 70
8
 71
3
 72
8
 73
4
 74
0
 40
0
 40
0
 40
0
 40
0
 40
1
 40
1
 40
1
 40
1
 10
170.223650
 20
280.447802
 30
0.0
 10
169.938915
 20
276.624207
 30
0.0
 10
169.796547
 20
271.600654
 30
0.0
 10
169.796547
 20
265.377143
 30
0.0
  0
SPLINE
  5
216
100
AcDbEntity
  8
Layer_1
 62
7
100
AcDbSpline
 70
8
 71
3
 72
8
 73
4
 74
0
 40
0
 40
0
 40
0
 40
0
 40
1
 40
1
 40
1
 40
1
 10
169.796547
 20
265.377143
 30
0.0
 10
169.796547
 20
260.617988
 30
0.0
 10
171.057520
 20
258.238410
 30
0.0
 10
173.579465
 20
258.238410
 30
0.0
  0
SPLINE
  5
217
100
AcDbEntity
  8
Layer_1
 62
7
100
AcDbSpline
 70
8
 71
3
 72
8
 73
4
 74
0
 40
0
 40
0
 40
0
 40
0
 40
1
 40
1
 40
1
 40
1
 10
173.579465
 20
258.238410
 30
0.0
 10
174.718408
 20
258.238410
 30
0.0
 10
175.755660
 20
258.563822
 30
0.0
 10
176.691221
 20
259.214647
 30
0.0
  0
SPLINE
  5
218
100
AcDbEntity
  8
Layer_1
 62
7
100
AcDbSpline
 70
8
 71
3
 72
8
 73
4
 74
0
 40
0
 40
0
 40
0
 40
0
 40
1
 40
1
 40
1
 40
1
 10
176.691221
 20
259.214647
 30
0.0
 10
177.626781
 20
259.865472
 30
0.0
 10
178.419974
 20
260.760356
 30
0.0
 10
179.070798
 20
261.899299
 30
0.0
  0
SPLINE
  5
219
100
AcDbEntity
  8
Layer_1
 62
7
100
AcDbSpline
 70
8
 71
3
 72
8
 73
4
 74
0
 40
0
 40
0
 40
0
 40
0
 40
1
 40
1
 40
1
 40
1
 10
179.070798
 20
261.899299
 30
0.0
 10
179.721623
 20
263.038242
 30
0.0
 10
180.230080
 20
264.360230
 30
0.0
 10
180.596169
 20
265.865262
 30
0.0
  0
SPLINE
  5
21a
100
AcDbEntity
  8
Layer_1
 62
7
100
AcDbSpline
 70
8
 71
3
 72
8
 73
4
 74
0
 40
0
 40
0
 40
0
 40
0
 40
1
 40
1
 40
1
 40
1
 10
180.596169
 20
265.865262
 30
0.0
 10
180.962257
 20
267.410970
 30
0.0
 10
181.145302
 20
269.078708
 30
0.0
 10
181.145302
 20
270.868476
 30
0.0
  0
LWPOLYLINE
  5
21b
100
AcDbEntity
  8
Layer_1
 62
7
100
AcDbPolyline
 90
2
 70
0
 10
199.815835
 20
294.664253
 30
0.0
 10
185.660398
 20
294.664253
 30
0.0
  0
SPLINE
  5
21c
100
AcDbEntity
  8
Layer_1
 62
7
100
AcDbSpline
 70
8
 71
3
 72
8
 73
4
 74
0
 40
0
 40
0
 40
0
 40
0
 40
1
 40
1
 40
1
 40
1
 10
181.145302
 20
271.234565
 30
0.0
 10
181.145302
 20
271.397271
 30
0.0
 10
181.124964
 20
271.580316
 30
0.0
 10
181.084287
 20
271.783698
 30
0.0
  0
LWPOLYLINE
  5
21d
100
AcDbEntity
  8
Layer_1
 62
7
100
AcDbPolyline
 90
2
 70
0
 10
181.145302
 20
270.868476
 30
0.0
 10
181.145302
 20
271.234565
 30
0.0
  0
SPLINE
  5
21e
100
AcDbEntity
  8
Layer_1
 62
7
100
AcDbSpline
 70
8
 71
3
 72
8
 73
4
 74
0
 40
0
 40
0
 40
0
 40
0
 40
1
 40
1
 40
1
 40
1
 10
181.084287
 20
276.969958
 30
0.0
 10
185.151941
 20
274.936130
 30
0.0
 10
189.972111
 20
272.068434
 30
0.0
 10
195.544798
 20
268.366869
 30
0.0
  0
LWPOLYLINE
  5
21f
100
AcDbEntity
  8
Layer_1
 62
7
100
AcDbPolyline
 90
2
 70
0
 10
181.084287
 20
271.783698
 30
0.0
 10
181.084287
 20
276.969958
 30
0.0
  0
SPLINE
  5
220
100
AcDbEntity
  8
Layer_1
 62
7
100
AcDbSpline
 70
8
 71
3
 72
8
 73
4
 74
0
 40
0
 40
0
 40
0
 40
0
 40
1
 40
1
 40
1
 40
1
 10
197.558286
 20
282.278246
 30
0.0
 10
196.256637
 20
282.278246
 30
0.0
 10
194.629575
 20
282.217231
 30
0.0
 10
192.677101
 20
282.095202
 30
0.0
  0
SPLINE
  5
221
100
AcDbEntity
  8
Layer_1
 62
7
100
AcDbSpline
 70
8
 71
3
 72
8
 73
4
 74
0
 40
0
 40
0
 40
0
 40
0
 40
1
 40
1
 40
1
 40
1
 10
192.677101
 20
282.095202
 30
0.0
 10
190.724627
 20
281.973172
 30
0.0
 10
188.406065
 20
281.810466
 30
0.0
 10
185.721413
 20
281.607083
 30
0.0
  0
LWPOLYLINE
  5
222
100
AcDbEntity
  8
Layer_1
 62
7
100
AcDbPolyline
 90
2
 70
0
 10
195.544798
 20
268.366869
 30
0.0
 10
209.517190
 20
258.909573
 30
0.0
  0
SPLINE
  5
223
100
AcDbEntity
  8
Layer_1
 62
7
100
AcDbSpline
 70
8
 71
3
 72
8
 73
4
 74
0
 40
0
 40
0
 40
0
 40
0
 40
1
 40
1
 40
1
 40
1
 10
185.050250
 20
287.281461
 30
0.0
 10
186.433252
 20
287.322137
 30
0.0
 10
188.100991
 20
287.383152
 30
0.0
 10
190.053465
 20
287.464505
 30
0.0
  0
SPLINE
  5
224
100
AcDbEntity
  8
Layer_1
 62
7
100
AcDbSpline
 70
8
 71
3
 72
8
 73
4
 74
0
 40
0
 40
0
 40
0
 40
0
 40
1
 40
1
 40
1
 40
1
 10
190.053465
 20
287.464505
 30
0.0
 10
192.046615
 20
287.586535
 30
0.0
 10
194.385516
 20
287.749241
 30
0.0
 10
197.070168
 20
287.952624
 30
0.0
  0
LWPOLYLINE
  5
225
100
AcDbEntity
  8
Layer_1
 62
7
100
AcDbPolyline
 90
2
 70
0
 10
185.721413
 20
281.607083
 30
0.0
 10
185.050250
 20
287.281461
 30
0.0
  0
SPLINE
  5
226
100
AcDbEntity
  8
Layer_1
 62
7
100
AcDbSpline
 70
8
 71
3
 72
8
 73
4
 74
0
 40
0
 40
0
 40
0
 40
0
 40
1
 40
1
 40
1
 40
1
 10
258.835266
 20
268.854987
 30
0.0
 10
257.004822
 20
268.854987
 30
0.0
 10
255.337084
 20
268.834649
 30
0.0
 10
253.832052
 20
268.793973
 30
0.0
  0
SPLINE
  5
227
100
AcDbEntity
  8
Layer_1
 62
7
100
AcDbSpline
 70
8
 71
3
 72
8
 73
4
 74
0
 40
0
 40
0
 40
0
 40
0
 40
1
 40
1
 40
1
 40
1
 10
253.832052
 20
268.793973
 30
0.0
 10
252.327020
 20
268.753296
 30
0.0
 10
250.984694
 20
268.671943
 30
0.0
 10
249.805074
 20
268.549913
 30
0.0
  0
SPLINE
  5
228
100
AcDbEntity
  8
Layer_1
 62
7
100
AcDbSpline
 70
8
 71
3
 72
8
 73
4
 74
0
 40
0
 40
0
 40
0
 40
0
 40
1
 40
1
 40
1
 40
1
 10
249.805074
 20
268.549913
 30
0.0
 10
248.178012
 20
258.380778
 30
0.0
 10
243.927314
 20
253.296210
 30
0.0
 10
237.052978
 20
253.296210
 30
0.0
  0
SPLINE
  5
229
100
AcDbEntity
  8
Layer_1
 62
7
100
AcDbSpline
 70
8
 71
3
 72
8
 73
4
 74
0
 40
0
 40
0
 40
0
 40
0
 40
1
 40
1
 40
1
 40
1
 10
237.052978
 20
253.296210
 30
0.0
 10
235.263210
 20
253.296210
 30
0.0
 10
233.737840
 20
253.580946
 30
0.0
 10
232.476867
 20
254.150418
 30
0.0
  0
SPLINE
  5
22a
100
AcDbEntity
  8
Layer_1
 62
7
100
AcDbSpline
 70
8
 71
3
 72
8
 73
4
 74
0
 40
0
 40
0
 40
0
 40
0
 40
1
 40
1
 40
1
 40
1
 10
232.476867
 20
254.150418
 30
0.0
 10
231.215894
 20
254.760566
 30
0.0
 10
230.178643
 20
255.716464
 30
0.0
 10
229.365112
 20
257.018114
 30
0.0
  0
SPLINE
  5
22b
100
AcDbEntity
  8
Layer_1
 62
7
100
AcDbSpline
 70
8
 71
3
 72
8
 73
4
 74
0
 40
0
 40
0
 40
0
 40
0
 40
1
 40
1
 40
1
 40
1
 10
229.365112
 20
257.018114
 30
0.0
 10
228.551581
 20
258.360440
 30
0.0
 10
227.941433
 20
260.109531
 30
0.0
 10
227.534667
 20
262.265388
 30
0.0
  0
SPLINE
  5
22c
100
AcDbEntity
  8
Layer_1
 62
7
100
AcDbSpline
 70
8
 71
3
 72
8
 73
4
 74
0
 40
0
 40
0
 40
0
 40
0
 40
1
 40
1
 40
1
 40
1
 10
227.534667
 20
262.265388
 30
0.0
 10
227.168578
 20
264.421244
 30
0.0
 10
226.985534
 20
267.065220
 30
0.0
 10
226.985534
 20
270.197313
 30
0.0
  0
LWPOLYLINE
  5
22d
100
AcDbEntity
  8
Layer_1
 62
7
100
AcDbPolyline
 90
2
 70
0
 10
197.070168
 20
287.952624
 30
0.0
 10
197.558286
 20
282.278246
 30
0.0
  0
SPLINE
  5
22e
100
AcDbEntity
  8
Layer_1
 62
7
100
AcDbSpline
 70
8
 71
3
 72
8
 73
4
 74
0
 40
0
 40
0
 40
0
 40
0
 40
1
 40
1
 40
1
 40
1
 10
226.985534
 20
270.441373
 30
0.0
 10
227.026211
 20
270.522726
 30
0.0
 10
227.046549
 20
270.604079
 30
0.0
 10
227.046549
 20
270.685432
 30
0.0
  0
SPLINE
  5
22f
100
AcDbEntity
  8
Layer_1
 62
7
100
AcDbSpline
 70
8
 71
3
 72
8
 73
4
 74
0
 40
0
 40
0
 40
0
 40
0
 40
1
 40
1
 40
1
 40
1
 10
227.046549
 20
270.685432
 30
0.0
 10
227.046549
 20
270.929491
 30
0.0
 10
227.026211
 20
271.193889
 30
0.0
 10
226.985534
 20
271.478624
 30
0.0
  0
SPLINE
  5
230
100
AcDbEntity
  8
Layer_1
 62
7
100
AcDbSpline
 70
8
 71
3
 72
8
 73
4
 74
0
 40
0
 40
0
 40
0
 40
0
 40
1
 40
1
 40
1
 40
1
 10
226.985534
 20
271.478624
 30
0.0
 10
226.944857
 20
271.804037
 30
0.0
 10
226.924519
 20
272.190464
 30
0.0
 10
226.924519
 20
272.637906
 30
0.0
  0
LWPOLYLINE
  5
231
100
AcDbEntity
  8
Layer_1
 62
7
100
AcDbPolyline
 90
2
 70
0
 10
226.985534
 20
270.197313
 30
0.0
 10
226.985534
 20
270.441373
 30
0.0
  0
SPLINE
  5
232
100
AcDbEntity
  8
Layer_1
 62
7
100
AcDbSpline
 70
8
 71
3
 72
8
 73
4
 74
0
 40
0
 40
0
 40
0
 40
0
 40
1
 40
1
 40
1
 40
1
 10
226.924519
 20
275.139513
 30
0.0
 10
226.924519
 20
281.810466
 30
0.0
 10
227.616020
 20
286.549283
 30
0.0
 10
228.999023
 20
289.355964
 30
0.0
  0
SPLINE
  5
233
100
AcDbEntity
  8
Layer_1
 62
7
100
AcDbSpline
 70
8
 71
3
 72
8
 73
4
 74
0
 40
0
 40
0
 40
0
 40
0
 40
1
 40
1
 40
1
 40
1
 10
228.999023
 20
289.355964
 30
0.0
 10
230.748114
 20
293.057530
 30
0.0
 10
233.331075
 20
295.823535
 30
0.0
 10
236.747904
 20
297.653979
 30
0.0
  0
SPLINE
  5
234
100
AcDbEntity
  8
Layer_1
 62
7
100
AcDbSpline
 70
8
 71
3
 72
8
 73
4
 74
0
 40
0
 40
0
 40
0
 40
0
 40
1
 40
1
 40
1
 40
1
 10
236.747904
 20
297.653979
 30
0.0
 10
240.164734
 20
299.484423
 30
0.0
 10
244.659491
 20
300.399646
 30
0.0
 10
250.232178
 20
300.399646
 30
0.0
  0
SPLINE
  5
235
100
AcDbEntity
  8
Layer_1
 62
7
100
AcDbSpline
 70
8
 71
3
 72
8
 73
4
 74
0
 40
0
 40
0
 40
0
 40
0
 40
1
 40
1
 40
1
 40
1
 10
250.232178
 20
300.399646
 30
0.0
 10
256.903130
 20
300.399646
 30
0.0
 10
262.536831
 20
299.891189
 30
0.0
 10
267.133281
 20
298.874275
 30
0.0
  0
SPLINE
  5
236
100
AcDbEntity
  8
Layer_1
 62
7
100
AcDbSpline
 70
8
 71
3
 72
8
 73
4
 74
0
 40
0
 40
0
 40
0
 40
0
 40
1
 40
1
 40
1
 40
1
 10
267.133281
 20
298.874275
 30
0.0
 10
271.729730
 20
297.857362
 30
0.0
 10
275.431295
 20
296.230300
 30
0.0
 10
278.237977
 20
293.993090
 30
0.0
  0
SPLINE
  5
237
100
AcDbEntity
  8
Layer_1
 62
7
100
AcDbSpline
 70
8
 71
3
 72
8
 73
4
 74
0
 40
0
 40
0
 40
0
 40
0
 40
1
 40
1
 40
1
 40
1
 10
278.237977
 20
293.993090
 30
0.0
 10
281.085335
 20
291.796557
 30
0.0
 10
283.139500
 20
288.949199
 30
0.0
 10
284.400473
 20
285.451016
 30
0.0
  0
SPLINE
  5
238
100
AcDbEntity
  8
Layer_1
 62
7
100
AcDbSpline
 70
8
 71
3
 72
8
 73
4
 74
0
 40
0
 40
0
 40
0
 40
0
 40
1
 40
1
 40
1
 40
1
 10
284.400473
 20
285.451016
 30
0.0
 10
285.661445
 20
281.952834
 30
0.0
 10
286.291932
 20
277.722474
 30
0.0
 10
286.291932
 20
272.759935
 30
0.0
  0
SPLINE
  5
239
100
AcDbEntity
  8
Layer_1
 62
7
100
AcDbSpline
 70
8
 71
3
 72
8
 73
4
 74
0
 40
0
 40
0
 40
0
 40
0
 40
1
 40
1
 40
1
 40
1
 10
286.291932
 20
272.759935
 30
0.0
 10
286.291932
 20
269.709195
 30
0.0
 10
286.047873
 20
266.983867
 30
0.0
 10
285.559754
 20
264.583951
 30
0.0
  0
SPLINE
  5
23a
100
AcDbEntity
  8
Layer_1
 62
7
100
AcDbSpline
 70
8
 71
3
 72
8
 73
4
 74
0
 40
0
 40
0
 40
0
 40
0
 40
1
 40
1
 40
1
 40
1
 10
285.559754
 20
264.583951
 30
0.0
 10
285.071636
 20
262.184035
 30
0.0
 10
284.339458
 20
260.129869
 30
0.0
 10
283.363221
 20
258.421454
 30
0.0
  0
SPLINE
  5
23b
100
AcDbEntity
  8
Layer_1
 62
7
100
AcDbSpline
 70
8
 71
3
 72
8
 73
4
 74
0
 40
0
 40
0
 40
0
 40
0
 40
1
 40
1
 40
1
 40
1
 10
283.363221
 20
258.421454
 30
0.0
 10
282.427660
 20
256.753716
 30
0.0
 10
281.227702
 20
255.472405
 30
0.0
 10
279.763347
 20
254.577521
 30
0.0
  0
SPLINE
  5
23c
100
AcDbEntity
  8
Layer_1
 62
7
100
AcDbSpline
 70
8
 71
3
 72
8
 73
4
 74
0
 40
0
 40
0
 40
0
 40
0
 40
1
 40
1
 40
1
 40
1
 10
279.763347
 20
254.577521
 30
0.0
 10
278.339668
 20
253.682637
 30
0.0
 10
276.671930
 20
253.235195
 30
0.0
 10
274.760132
 20
253.235195
 30
0.0
  0
SPLINE
  5
23d
100
AcDbEntity
  8
Layer_1
 62
7
100
AcDbSpline
 70
8
 71
3
 72
8
 73
4
 74
0
 40
0
 40
0
 40
0
 40
0
 40
1
 40
1
 40
1
 40
1
 10
274.760132
 20
253.235195
 30
0.0
 10
270.936537
 20
253.235195
 30
0.0
 10
267.824782
 20
254.597860
 30
0.0
 10
265.424866
 20
257.323188
 30
0.0
  0
SPLINE
  5
23e
100
AcDbEntity
  8
Layer_1
 62
7
100
AcDbSpline
 70
8
 71
3
 72
8
 73
4
 74
0
 40
0
 40
0
 40
0
 40
0
 40
1
 40
1
 40
1
 40
1
 10
265.424866
 20
257.323188
 30
0.0
 10
263.024950
 20
260.089193
 30
0.0
 10
261.499580
 20
263.933126
 30
0.0
 10
260.848755
 20
268.854987
 30
0.0
  0
LWPOLYLINE
  5
23f
100
AcDbEntity
  8
Layer_1
 62
7
100
AcDbPolyline
 90
2
 70
0
 10
226.924519
 20
272.637906
 30
0.0
 10
226.924519
 20
275.139513
 30
0.0
  0
LWPOLYLINE
  5
240
100
AcDbEntity
  8
Layer_1
 62
7
100
AcDbPolyline
 90
2
 70
0
 10
260.848755
 20
268.854987
 30
0.0
 10
258.835266
 20
268.854987
 30
0.0
  0
SPLINE
  5
241
100
AcDbEntity
  8
Layer_1
 62
7
100
AcDbSpline
 70
8
 71
3
 72
8
 73
4
 74
0
 40
0
 40
0
 40
0
 40
0
 40
1
 40
1
 40
1
 40
1
 10
266.584147
 20
268.610928
 30
0.0
 10
266.828207
 20
267.227926
 30
0.0
 10
267.173957
 20
265.926276
 30
0.0
 10
267.621399
 20
264.705980
 30
0.0
  0
SPLINE
  5
242
100
AcDbEntity
  8
Layer_1
 62
7
100
AcDbSpline
 70
8
 71
3
 72
8
 73
4
 74
0
 40
0
 40
0
 40
0
 40
0
 40
1
 40
1
 40
1
 40
1
 10
267.621399
 20
264.705980
 30
0.0
 10
268.109518
 20
263.526360
 30
0.0
 10
268.678989
 20
262.489109
 30
0.0
 10
269.329814
 20
261.594225
 30
0.0
  0
SPLINE
  5
243
100
AcDbEntity
  8
Layer_1
 62
7
100
AcDbSpline
 70
8
 71
3
 72
8
 73
4
 74
0
 40
0
 40
0
 40
0
 40
0
 40
1
 40
1
 40
1
 40
1
 10
269.329814
 20
261.594225
 30
0.0
 10
270.021315
 20
260.699341
 30
0.0
 10
270.753493
 20
259.987501
 30
0.0
 10
271.526347
 20
259.458706
 30
0.0
  0
SPLINE
  5
244
100
AcDbEntity
  8
Layer_1
 62
7
100
AcDbSpline
 70
8
 71
3
 72
8
 73
4
 74
0
 40
0
 40
0
 40
0
 40
0
 40
1
 40
1
 40
1
 40
1
 10
271.526347
 20
259.458706
 30
0.0
 10
272.339878
 20
258.970588
 30
0.0
 10
273.214424
 20
258.726529
 30
0.0
 10
274.149984
 20
258.726529
 30
0.0
  0
SPLINE
  5
245
100
AcDbEntity
  8
Layer_1
 62
7
100
AcDbSpline
 70
8
 71
3
 72
8
 73
4
 74
0
 40
0
 40
0
 40
0
 40
0
 40
1
 40
1
 40
1
 40
1
 10
274.149984
 20
258.726529
 30
0.0
 10
275.166898
 20
258.726529
 30
0.0
 10
276.082120
 20
259.072279
 30
0.0
 10
276.895651
 20
259.763780
 30
0.0
  0
SPLINE
  5
246
100
AcDbEntity
  8
Layer_1
 62
7
100
AcDbSpline
 70
8
 71
3
 72
8
 73
4
 74
0
 40
0
 40
0
 40
0
 40
0
 40
1
 40
1
 40
1
 40
1
 10
276.895651
 20
259.763780
 30
0.0
 10
277.709182
 20
260.455282
 30
0.0
 10
278.380344
 20
261.431519
 30
0.0
 10
278.909140
 20
262.692491
 30
0.0
  0
SPLINE
  5
247
100
AcDbEntity
  8
Layer_1
 62
7
100
AcDbSpline
 70
8
 71
3
 72
8
 73
4
 74
0
 40
0
 40
0
 40
0
 40
0
 40
1
 40
1
 40
1
 40
1
 10
278.909140
 20
262.692491
 30
0.0
 10
279.478611
 20
263.953464
 30
0.0
 10
279.905715
 20
265.438158
 30
0.0
 10
280.190451
 20
267.146573
 30
0.0
  0
SPLINE
  5
248
100
AcDbEntity
  8
Layer_1
 62
7
100
AcDbSpline
 70
8
 71
3
 72
8
 73
4
 74
0
 40
0
 40
0
 40
0
 40
0
 40
1
 40
1
 40
1
 40
1
 10
280.190451
 20
267.146573
 30
0.0
 10
280.515863
 20
268.854987
 30
0.0
 10
280.678569
 20
270.726108
 30
0.0
 10
280.678569
 20
272.759935
 30
0.0
  0
SPLINE
  5
249
100
AcDbEntity
  8
Layer_1
 62
7
100
AcDbSpline
 70
8
 71
3
 72
8
 73
4
 74
0
 40
0
 40
0
 40
0
 40
0
 40
1
 40
1
 40
1
 40
1
 10
280.678569
 20
272.759935
 30
0.0
 10
280.678569
 20
282.115540
 30
0.0
 10
277.709182
 20
288.359389
 30
0.0
 10
271.770406
 20
291.491483
 30
0.0
  0
SPLINE
  5
24a
100
AcDbEntity
  8
Layer_1
 62
7
100
AcDbSpline
 70
8
 71
3
 72
8
 73
4
 74
0
 40
0
 40
0
 40
0
 40
0
 40
1
 40
1
 40
1
 40
1
 10
271.770406
 20
291.491483
 30
0.0
 10
269.695903
 20
292.549073
 30
0.0
 10
266.909560
 20
293.342266
 30
0.0
 10
263.411377
 20
293.871061
 30
0.0
  0
SPLINE
  5
24b
100
AcDbEntity
  8
Layer_1
 62
7
100
AcDbSpline
 70
8
 71
3
 72
8
 73
4
 74
0
 40
0
 40
0
 40
0
 40
0
 40
1
 40
1
 40
1
 40
1
 10
263.411377
 20
293.871061
 30
0.0
 10
259.913195
 20
294.440532
 30
0.0
 10
255.520128
 20
294.725268
 30
0.0
 10
250.232178
 20
294.725268
 30
0.0
  0
SPLINE
  5
24c
100
AcDbEntity
  8
Layer_1
 62
7
100
AcDbSpline
 70
8
 71
3
 72
8
 73
4
 74
0
 40
0
 40
0
 40
0
 40
0
 40
1
 40
1
 40
1
 40
1
 10
250.232178
 20
294.725268
 30
0.0
 10
242.218899
 20
294.725268
 30
0.0
 10
237.073316
 20
292.427043
 30
0.0
 10
234.795430
 20
287.830594
 30
0.0
  0
SPLINE
  5
24d
100
AcDbEntity
  8
Layer_1
 62
7
100
AcDbSpline
 70
8
 71
3
 72
8
 73
4
 74
0
 40
0
 40
0
 40
0
 40
0
 40
1
 40
1
 40
1
 40
1
 10
234.795430
 20
287.830594
 30
0.0
 10
233.371751
 20
284.861207
 30
0.0
 10
232.659912
 20
278.983446
 30
0.0
 10
232.659912
 20
270.197313
 30
0.0
  0
SPLINE
  5
24e
100
AcDbEntity
  8
Layer_1
 62
7
100
AcDbSpline
 70
8
 71
3
 72
8
 73
4
 74
0
 40
0
 40
0
 40
0
 40
0
 40
1
 40
1
 40
1
 40
1
 10
232.659912
 20
270.197313
 30
0.0
 10
232.659912
 20
267.878750
 30
0.0
 10
232.720926
 20
265.987291
 30
0.0
 10
232.842956
 20
264.522936
 30
0.0
  0
SPLINE
  5
24f
100
AcDbEntity
  8
Layer_1
 62
7
100
AcDbSpline
 70
8
 71
3
 72
8
 73
4
 74
0
 40
0
 40
0
 40
0
 40
0
 40
1
 40
1
 40
1
 40
1
 10
232.842956
 20
264.522936
 30
0.0
 10
232.964986
 20
263.099257
 30
0.0
 10
233.188707
 20
261.960314
 30
0.0
 10
233.514119
 20
261.106106
 30
0.0
  0
SPLINE
  5
250
100
AcDbEntity
  8
Layer_1
 62
7
100
AcDbSpline
 70
8
 71
3
 72
8
 73
4
 74
0
 40
0
 40
0
 40
0
 40
0
 40
1
 40
1
 40
1
 40
1
 10
233.514119
 20
261.106106
 30
0.0
 10
233.839531
 20
260.292575
 30
0.0
 10
234.286973
 20
259.723104
 30
0.0
 10
234.856445
 20
259.397691
 30
0.0
  0
SPLINE
  5
251
100
AcDbEntity
  8
Layer_1
 62
7
100
AcDbSpline
 70
8
 71
3
 72
8
 73
4
 74
0
 40
0
 40
0
 40
0
 40
0
 40
1
 40
1
 40
1
 40
1
 10
234.856445
 20
259.397691
 30
0.0
 10
235.425916
 20
259.112956
 30
0.0
 10
236.158094
 20
258.970588
 30
0.0
 10
237.052978
 20
258.970588
 30
0.0
  0
SPLINE
  5
252
100
AcDbEntity
  8
Layer_1
 62
7
100
AcDbSpline
 70
8
 71
3
 72
8
 73
4
 74
0
 40
0
 40
0
 40
0
 40
0
 40
1
 40
1
 40
1
 40
1
 10
237.052978
 20
258.970588
 30
0.0
 10
240.388455
 20
258.970588
 30
0.0
 10
242.666341
 20
261.817946
 30
0.0
 10
243.886637
 20
267.512662
 30
0.0
  0
LWPOLYLINE
  5
253
100
AcDbEntity
  8
Layer_1
 62
7
100
AcDbPolyline
 90
2
 70
0
 10
270.184021
 20
267.817736
 30
0.0
 10
266.584147
 20
268.610928
 30
0.0
  0
SPLINE
  5
254
100
AcDbEntity
  8
Layer_1
 62
7
100
AcDbSpline
 70
8
 71
3
 72
8
 73
4
 74
0
 40
0
 40
0
 40
0
 40
0
 40
1
 40
1
 40
1
 40
1
 10
238.395304
 20
271.295580
 30
0.0
 10
240.266425
 20
272.434523
 30
0.0
 10
242.910400
 20
273.268392
 30
0.0
 10
246.327230
 20
273.797187
 30
0.0
  0
SPLINE
  5
255
100
AcDbEntity
  8
Layer_1
 62
7
100
AcDbSpline
 70
8
 71
3
 72
8
 73
4
 74
0
 40
0
 40
0
 40
0
 40
0
 40
1
 40
1
 40
1
 40
1
 10
246.327230
 20
273.797187
 30
0.0
 10
249.784736
 20
274.325982
 30
0.0
 10
254.137126
 20
274.590380
 30
0.0
 10
259.384399
 20
274.590380
 30
0.0
  0
SPLINE
  5
256
100
AcDbEntity
  8
Layer_1
 62
7
100
AcDbSpline
 70
8
 71
3
 72
8
 73
4
 74
0
 40
0
 40
0
 40
0
 40
0
 40
1
 40
1
 40
1
 40
1
 10
259.384399
 20
274.590380
 30
0.0
 10
265.567234
 20
274.590380
 30
0.0
 10
269.939962
 20
274.041247
 30
0.0
 10
272.502584
 20
272.942980
 30
0.0
  0
LWPOLYLINE
  5
257
100
AcDbEntity
  8
Layer_1
 62
7
100
AcDbPolyline
 90
3
 70
0
 10
243.886637
 20
267.512662
 30
0.0
 10
241.201985
 20
266.353380
 30
0.0
 10
238.395304
 20
271.295580
 30
0.0
  0
SPLINE
  5
258
100
AcDbEntity
  8
Layer_1
 62
7
100
AcDbSpline
 70
8
 71
3
 72
8
 73
4
 74
0
 40
0
 40
0
 40
0
 40
0
 40
1
 40
1
 40
1
 40
1
 10
263.960510
 20
280.630846
 30
0.0
 10
261.886007
 20
280.996935
 30
0.0
 10
259.140340
 20
281.179980
 30
0.0
 10
255.723511
 20
281.179980
 30
0.0
  0
SPLINE
  5
259
100
AcDbEntity
  8
Layer_1
 62
7
100
AcDbSpline
 70
8
 71
3
 72
8
 73
4
 74
0
 40
0
 40
0
 40
0
 40
0
 40
1
 40
1
 40
1
 40
1
 10
255.723511
 20
281.179980
 30
0.0
 10
251.452474
 20
281.179980
 30
0.0
 10
247.100084
 20
280.935920
 30
0.0
 10
242.666341
 20
280.447802
 30
0.0
  0
LWPOLYLINE
  5
25a
100
AcDbEntity
  8
Layer_1
 62
7
100
AcDbPolyline
 90
2
 70
0
 10
272.502584
 20
272.942980
 30
0.0
 10
270.184021
 20
267.817736
 30
0.0
  0
SPLINE
  5
25b
100
AcDbEntity
  8
Layer_1
 62
7
100
AcDbSpline
 70
8
 71
3
 72
8
 73
4
 74
0
 40
0
 40
0
 40
0
 40
0
 40
1
 40
1
 40
1
 40
1
 10
242.056193
 20
286.000150
 30
0.0
 10
244.374756
 20
286.325562
 30
0.0
 10
246.672980
 20
286.549283
 30
0.0
 10
248.950867
 20
286.671313
 30
0.0
  0
SPLINE
  5
25c
100
AcDbEntity
  8
Layer_1
 62
7
100
AcDbSpline
 70
8
 71
3
 72
8
 73
4
 74
0
 40
0
 40
0
 40
0
 40
0
 40
1
 40
1
 40
1
 40
1
 10
248.950867
 20
286.671313
 30
0.0
 10
251.228753
 20
286.793342
 30
0.0
 10
253.486301
 20
286.854357
 30
0.0
 10
255.723511
 20
286.854357
 30
0.0
  0
SPLINE
  5
25d
100
AcDbEntity
  8
Layer_1
 62
7
100
AcDbSpline
 70
8
 71
3
 72
8
 73
4
 74
0
 40
0
 40
0
 40
0
 40
0
 40
1
 40
1
 40
1
 40
1
 10
255.723511
 20
286.854357
 30
0.0
 10
257.594632
 20
286.854357
 30
0.0
 10
259.282708
 20
286.793342
 30
0.0
 10
260.787740
 20
286.671313
 30
0.0
  0
SPLINE
  5
25e
100
AcDbEntity
  8
Layer_1
 62
7
100
AcDbSpline
 70
8
 71
3
 72
8
 73
4
 74
0
 40
0
 40
0
 40
0
 40
0
 40
1
 40
1
 40
1
 40
1
 10
260.787740
 20
286.671313
 30
0.0
 10
262.333449
 20
286.549283
 30
0.0
 10
263.736789
 20
286.386577
 30
0.0
 10
264.997762
 20
286.183194
 30
0.0
  0
LWPOLYLINE
  5
25f
100
AcDbEntity
  8
Layer_1
 62
7
100
AcDbPolyline
 90
2
 70
0
 10
242.666341
 20
280.447802
 30
0.0
 10
242.056193
 20
286.000150
 30
0.0
  0
SPLINE
  5
260
100
AcDbEntity
  8
Layer_1
 62
7
100
AcDbSpline
 70
8
 71
3
 72
8
 73
4
 74
0
 40
0
 40
0
 40
0
 40
0
 40
1
 40
1
 40
1
 40
1
 10
294.445036
 20
278.495328
 30
0.0
 10
293.753535
 20
277.437738
 30
0.0
 10
293.407784
 20
276.278456
 30
0.0
 10
293.407784
 20
275.017484
 30
0.0
  0
SPLINE
  5
261
100
AcDbEntity
  8
Layer_1
 62
7
100
AcDbSpline
 70
8
 71
3
 72
8
 73
4
 74
0
 40
0
 40
0
 40
0
 40
0
 40
1
 40
1
 40
1
 40
1
 10
293.407784
 20
275.017484
 30
0.0
 10
293.407784
 20
273.187039
 30
0.0
 10
294.017932
 20
271.519301
 30
0.0
 10
295.238229
 20
270.014269
 30
0.0
  0
SPLINE
  5
262
100
AcDbEntity
  8
Layer_1
 62
7
100
AcDbSpline
 70
8
 71
3
 72
8
 73
4
 74
0
 40
0
 40
0
 40
0
 40
0
 40
1
 40
1
 40
1
 40
1
 10
295.238229
 20
270.014269
 30
0.0
 10
296.417848
 20
268.549913
 30
0.0
 10
298.044910
 20
267.288941
 30
0.0
 10
300.119414
 20
266.231351
 30
0.0
  0
SPLINE
  5
263
100
AcDbEntity
  8
Layer_1
 62
7
100
AcDbSpline
 70
8
 71
3
 72
8
 73
4
 74
0
 40
0
 40
0
 40
0
 40
0
 40
1
 40
1
 40
1
 40
1
 10
300.119414
 20
266.231351
 30
0.0
 10
302.193917
 20
265.173760
 30
0.0
 10
304.654848
 20
264.360230
 30
0.0
 10
307.502206
 20
263.790758
 30
0.0
  0
SPLINE
  5
264
100
AcDbEntity
  8
Layer_1
 62
7
100
AcDbSpline
 70
8
 71
3
 72
8
 73
4
 74
0
 40
0
 40
0
 40
0
 40
0
 40
1
 40
1
 40
1
 40
1
 10
307.502206
 20
263.790758
 30
0.0
 10
310.349564
 20
263.221286
 30
0.0
 10
313.420643
 20
262.936551
 30
0.0
 10
316.715443
 20
262.936551
 30
0.0
  0
SPLINE
  5
265
100
AcDbEntity
  8
Layer_1
 62
7
100
AcDbSpline
 70
8
 71
3
 72
8
 73
4
 74
0
 40
0
 40
0
 40
0
 40
0
 40
1
 40
1
 40
1
 40
1
 10
316.715443
 20
262.936551
 30
0.0
 10
318.220475
 20
262.936551
 30
0.0
 10
319.542462
 20
263.058580
 30
0.0
 10
320.681406
 20
263.302639
 30
0.0
  0
SPLINE
  5
266
100
AcDbEntity
  8
Layer_1
 62
7
100
AcDbSpline
 70
8
 71
3
 72
8
 73
4
 74
0
 40
0
 40
0
 40
0
 40
0
 40
1
 40
1
 40
1
 40
1
 10
320.681406
 20
263.302639
 30
0.0
 10
320.925465
 20
259.723104
 30
0.0
 10
322.044070
 20
257.079129
 30
0.0
 10
324.037220
 20
255.370714
 30
0.0
  0
SPLINE
  5
267
100
AcDbEntity
  8
Layer_1
 62
7
100
AcDbSpline
 70
8
 71
3
 72
8
 73
4
 74
0
 40
0
 40
0
 40
0
 40
0
 40
1
 40
1
 40
1
 40
1
 10
324.037220
 20
255.370714
 30
0.0
 10
326.030371
 20
253.702976
 30
0.0
 10
329.243818
 20
252.869107
 30
0.0
 10
333.677561
 20
252.869107
 30
0.0
  0
SPLINE
  5
268
100
AcDbEntity
  8
Layer_1
 62
7
100
AcDbSpline
 70
8
 71
3
 72
8
 73
4
 74
0
 40
0
 40
0
 40
0
 40
0
 40
1
 40
1
 40
1
 40
1
 10
333.677561
 20
252.869107
 30
0.0
 10
340.592573
 20
252.869107
 30
0.0
 10
344.050079
 20
257.974013
 30
0.0
 10
344.050079
 20
268.183825
 30
0.0
  0
SPLINE
  5
269
100
AcDbEntity
  8
Layer_1
 62
7
100
AcDbSpline
 70
8
 71
3
 72
8
 73
4
 74
0
 40
0
 40
0
 40
0
 40
0
 40
1
 40
1
 40
1
 40
1
 10
344.050079
 20
268.183825
 30
0.0
 10
344.050079
 20
272.780274
 30
0.0
 10
343.887373
 20
276.664883
 30
0.0
 10
343.561960
 20
279.837654
 30
0.0
  0
SPLINE
  5
26a
100
AcDbEntity
  8
Layer_1
 62
7
100
AcDbSpline
 70
8
 71
3
 72
8
 73
4
 74
0
 40
0
 40
0
 40
0
 40
0
 40
1
 40
1
 40
1
 40
1
 10
343.561960
 20
279.837654
 30
0.0
 10
343.236548
 20
283.010424
 30
0.0
 10
342.707753
 20
285.674737
 30
0.0
 10
341.975575
 20
287.830594
 30
0.0
  0
SPLINE
  5
26b
100
AcDbEntity
  8
Layer_1
 62
7
100
AcDbSpline
 70
8
 71
3
 72
8
 73
4
 74
0
 40
0
 40
0
 40
0
 40
0
 40
1
 40
1
 40
1
 40
1
 10
341.975575
 20
287.830594
 30
0.0
 10
341.202721
 20
290.027127
 30
0.0
 10
340.185807
 20
291.796557
 30
0.0
 10
338.924835
 20
293.138883
 30
0.0
  0
SPLINE
  5
26c
100
AcDbEntity
  8
Layer_1
 62
7
100
AcDbSpline
 70
8
 71
3
 72
8
 73
4
 74
0
 40
0
 40
0
 40
0
 40
0
 40
1
 40
1
 40
1
 40
1
 10
338.924835
 20
293.138883
 30
0.0
 10
337.663862
 20
294.521885
 30
0.0
 10
336.097815
 20
295.701505
 30
0.0
 10
334.226694
 20
296.677742
 30
0.0
  0
SPLINE
  5
26d
100
AcDbEntity
  8
Layer_1
 62
7
100
AcDbSpline
 70
8
 71
3
 72
8
 73
4
 74
0
 40
0
 40
0
 40
0
 40
0
 40
1
 40
1
 40
1
 40
1
 10
334.226694
 20
296.677742
 30
0.0
 10
330.281069
 20
298.711569
 30
0.0
 10
324.179588
 20
299.728483
 30
0.0
 10
315.922250
 20
299.728483
 30
0.0
  0
SPLINE
  5
26e
100
AcDbEntity
  8
Layer_1
 62
7
100
AcDbSpline
 70
8
 71
3
 72
8
 73
4
 74
0
 40
0
 40
0
 40
0
 40
0
 40
1
 40
1
 40
1
 40
1
 10
315.922250
 20
299.728483
 30
0.0
 10
311.041065
 20
299.728483
 30
0.0
 10
306.892058
 20
299.484423
 30
0.0
 10
303.475228
 20
298.996305
 30
0.0
  0
SPLINE
  5
26f
100
AcDbEntity
  8
Layer_1
 62
7
100
AcDbSpline
 70
8
 71
3
 72
8
 73
4
 74
0
 40
0
 40
0
 40
0
 40
0
 40
1
 40
1
 40
1
 40
1
 10
303.475228
 20
298.996305
 30
0.0
 10
300.058399
 20
298.508186
 30
0.0
 10
297.272056
 20
297.735332
 30
0.0
 10
295.116199
 20
296.677742
 30
0.0
  0
SPLINE
  5
270
100
AcDbEntity
  8
Layer_1
 62
7
100
AcDbSpline
 70
8
 71
3
 72
8
 73
4
 74
0
 40
0
 40
0
 40
0
 40
0
 40
1
 40
1
 40
1
 40
1
 10
295.116199
 20
296.677742
 30
0.0
 10
292.919666
 20
295.660828
 30
0.0
 10
291.333281
 20
294.359179
 30
0.0
 10
290.357044
 20
292.772794
 30
0.0
  0
SPLINE
  5
271
100
AcDbEntity
  8
Layer_1
 62
7
100
AcDbSpline
 70
8
 71
3
 72
8
 73
4
 74
0
 40
0
 40
0
 40
0
 40
0
 40
1
 40
1
 40
1
 40
1
 10
290.357044
 20
292.772794
 30
0.0
 10
289.380807
 20
291.186409
 30
0.0
 10
288.892688
 20
289.315288
 30
0.0
 10
288.892688
 20
287.159431
 30
0.0
  0
SPLINE
  5
272
100
AcDbEntity
  8
Layer_1
 62
7
100
AcDbSpline
 70
8
 71
3
 72
8
 73
4
 74
0
 40
0
 40
0
 40
0
 40
0
 40
1
 40
1
 40
1
 40
1
 10
288.892688
 20
287.159431
 30
0.0
 10
288.892688
 20
283.132454
 30
0.0
 10
290.743471
 20
280.244419
 30
0.0
 10
294.445036
 20
278.495328
 30
0.0
  0
LWPOLYLINE
  5
273
100
AcDbEntity
  8
Layer_1
 62
7
100
AcDbPolyline
 90
2
 70
0
 10
264.997762
 20
286.183194
 30
0.0
 10
263.960510
 20
280.630846
 30
0.0
  0
SPLINE
  5
274
100
AcDbEntity
  8
Layer_1
 62
7
100
AcDbSpline
 70
8
 71
3
 72
8
 73
4
 74
0
 40
0
 40
0
 40
0
 40
0
 40
1
 40
1
 40
1
 40
1
 10
299.936369
 20
276.786913
 30
0.0
 10
304.736201
 20
276.258118
 30
0.0
 10
308.803855
 20
275.871691
 30
0.0
 10
312.139332
 20
275.627632
 30
0.0
  0
SPLINE
  5
275
100
AcDbEntity
  8
Layer_1
 62
7
100
AcDbSpline
 70
8
 71
3
 72
8
 73
4
 74
0
 40
0
 40
0
 40
0
 40
0
 40
1
 40
1
 40
1
 40
1
 10
312.139332
 20
275.627632
 30
0.0
 10
315.434132
 20
275.383572
 30
0.0
 10
318.118783
 20
275.261543
 30
0.0
 10
320.193287
 20
275.261543
 30
0.0
  0
LWPOLYLINE
  5
276
100
AcDbEntity
  8
Layer_1
 62
7
100
AcDbPolyline
 90
1
 70
1
 10
294.445036
 20
278.495328
 30
0.0
  0
SPLINE
  5
277
100
AcDbEntity
  8
Layer_1
 62
7
100
AcDbSpline
 70
8
 71
3
 72
8
 73
4
 74
0
 40
0
 40
0
 40
0
 40
0
 40
1
 40
1
 40
1
 40
1
 10
320.193287
 20
280.935920
 30
0.0
 10
303.109140
 20
280.935920
 30
0.0
 10
294.567066
 20
283.010424
 30
0.0
 10
294.567066
 20
287.159431
 30
0.0
  0
SPLINE
  5
278
100
AcDbEntity
  8
Layer_1
 62
7
100
AcDbSpline
 70
8
 71
3
 72
8
 73
4
 74
0
 40
0
 40
0
 40
0
 40
0
 40
1
 40
1
 40
1
 40
1
 10
294.567066
 20
287.159431
 30
0.0
 10
294.567066
 20
288.420404
 30
0.0
 10
294.933155
 20
289.477994
 30
0.0
 10
295.665332
 20
290.332201
 30
0.0
  0
SPLINE
  5
279
100
AcDbEntity
  8
Layer_1
 62
7
100
AcDbSpline
 70
8
 71
3
 72
8
 73
4
 74
0
 40
0
 40
0
 40
0
 40
0
 40
1
 40
1
 40
1
 40
1
 10
295.665332
 20
290.332201
 30
0.0
 10
296.397510
 20
291.227085
 30
0.0
 10
297.597468
 20
291.938925
 30
0.0
 10
299.265206
 20
292.467720
 30
0.0
  0
SPLINE
  5
27a
100
AcDbEntity
  8
Layer_1
 62
7
100
AcDbSpline
 70
8
 71
3
 72
8
 73
4
 74
0
 40
0
 40
0
 40
0
 40
0
 40
1
 40
1
 40
1
 40
1
 10
299.265206
 20
292.467720
 30
0.0
 10
300.932945
 20
293.037192
 30
0.0
 10
303.129478
 20
293.443957
 30
0.0
 10
305.854806
 20
293.688016
 30
0.0
  0
SPLINE
  5
27b
100
AcDbEntity
  8
Layer_1
 62
7
100
AcDbSpline
 70
8
 71
3
 72
8
 73
4
 74
0
 40
0
 40
0
 40
0
 40
0
 40
1
 40
1
 40
1
 40
1
 10
305.854806
 20
293.688016
 30
0.0
 10
308.580134
 20
293.932075
 30
0.0
 10
311.935949
 20
294.054105
 30
0.0
 10
315.922250
 20
294.054105
 30
0.0
  0
SPLINE
  5
27c
100
AcDbEntity
  8
Layer_1
 62
7
100
AcDbSpline
 70
8
 71
3
 72
8
 73
4
 74
0
 40
0
 40
0
 40
0
 40
0
 40
1
 40
1
 40
1
 40
1
 10
315.922250
 20
294.054105
 30
0.0
 10
319.420433
 20
294.054105
 30
0.0
 10
322.410159
 20
293.891399
 30
0.0
 10
324.891428
 20
293.565987
 30
0.0
  0
SPLINE
  5
27d
100
AcDbEntity
  8
Layer_1
 62
7
100
AcDbSpline
 70
8
 71
3
 72
8
 73
4
 74
0
 40
0
 40
0
 40
0
 40
0
 40
1
 40
1
 40
1
 40
1
 10
324.891428
 20
293.565987
 30
0.0
 10
327.372697
 20
293.281251
 30
0.0
 10
329.447200
 20
292.752456
 30
0.0
 10
331.114939
 20
291.979601
 30
0.0
  0
SPLINE
  5
27e
100
AcDbEntity
  8
Layer_1
 62
7
100
AcDbSpline
 70
8
 71
3
 72
8
 73
4
 74
0
 40
0
 40
0
 40
0
 40
0
 40
1
 40
1
 40
1
 40
1
 10
331.114939
 20
291.979601
 30
0.0
 10
332.782677
 20
291.206747
 30
0.0
 10
334.104664
 20
290.189834
 30
0.0
 10
335.080901
 20
288.928861
 30
0.0
  0
SPLINE
  5
27f
100
AcDbEntity
  8
Layer_1
 62
7
100
AcDbSpline
 70
8
 71
3
 72
8
 73
4
 74
0
 40
0
 40
0
 40
0
 40
0
 40
1
 40
1
 40
1
 40
1
 10
335.080901
 20
288.928861
 30
0.0
 10
336.016462
 20
287.667888
 30
0.0
 10
336.728301
 20
286.061165
 30
0.0
 10
337.216420
 20
284.108691
 30
0.0
  0
SPLINE
  5
280
100
AcDbEntity
  8
Layer_1
 62
7
100
AcDbSpline
 70
8
 71
3
 72
8
 73
4
 74
0
 40
0
 40
0
 40
0
 40
0
 40
1
 40
1
 40
1
 40
1
 10
337.216420
 20
284.108691
 30
0.0
 10
337.704538
 20
282.196893
 30
0.0
 10
338.029951
 20
279.919007
 30
0.0
 10
338.192657
 20
277.275032
 30
0.0
  0
SPLINE
  5
281
100
AcDbEntity
  8
Layer_1
 62
7
100
AcDbSpline
 70
8
 71
3
 72
8
 73
4
 74
0
 40
0
 40
0
 40
0
 40
0
 40
1
 40
1
 40
1
 40
1
 10
338.192657
 20
277.275032
 30
0.0
 10
338.314686
 20
274.671733
 30
0.0
 10
338.375701
 20
271.641331
 30
0.0
 10
338.375701
 20
268.183825
 30
0.0
  0
SPLINE
  5
282
100
AcDbEntity
  8
Layer_1
 62
7
100
AcDbSpline
 70
8
 71
3
 72
8
 73
4
 74
0
 40
0
 40
0
 40
0
 40
0
 40
1
 40
1
 40
1
 40
1
 10
338.375701
 20
268.183825
 30
0.0
 10
338.375701
 20
266.272027
 30
0.0
 10
338.294348
 20
264.685642
 30
0.0
 10
338.131642
 20
263.424669
 30
0.0
  0
SPLINE
  5
283
100
AcDbEntity
  8
Layer_1
 62
7
100
AcDbSpline
 70
8
 71
3
 72
8
 73
4
 74
0
 40
0
 40
0
 40
0
 40
0
 40
1
 40
1
 40
1
 40
1
 10
338.131642
 20
263.424669
 30
0.0
 10
337.968936
 20
262.204373
 30
0.0
 10
337.704538
 20
261.228136
 30
0.0
 10
337.338449
 20
260.495958
 30
0.0
  0
SPLINE
  5
284
100
AcDbEntity
  8
Layer_1
 62
7
100
AcDbSpline
 70
8
 71
3
 72
8
 73
4
 74
0
 40
0
 40
0
 40
0
 40
0
 40
1
 40
1
 40
1
 40
1
 10
337.338449
 20
260.495958
 30
0.0
 10
336.972361
 20
259.763780
 30
0.0
 10
336.504580
 20
259.255324
 30
0.0
 10
335.935109
 20
258.970588
 30
0.0
  0
SPLINE
  5
285
100
AcDbEntity
  8
Layer_1
 62
7
100
AcDbSpline
 70
8
 71
3
 72
8
 73
4
 74
0
 40
0
 40
0
 40
0
 40
0
 40
1
 40
1
 40
1
 40
1
 10
335.935109
 20
258.970588
 30
0.0
 10
335.324961
 20
258.685852
 30
0.0
 10
334.572445
 20
258.543484
 30
0.0
 10
333.677561
 20
258.543484
 30
0.0
  0
SPLINE
  5
286
100
AcDbEntity
  8
Layer_1
 62
7
100
AcDbSpline
 70
8
 71
3
 72
8
 73
4
 74
0
 40
0
 40
0
 40
0
 40
0
 40
1
 40
1
 40
1
 40
1
 10
333.677561
 20
258.543484
 30
0.0
 10
328.837052
 20
258.543484
 30
0.0
 10
326.416798
 20
259.702766
 30
0.0
 10
326.416798
 20
262.021328
 30
0.0
  0
SPLINE
  5
287
100
AcDbEntity
  8
Layer_1
 62
7
100
AcDbSpline
 70
8
 71
3
 72
8
 73
4
 74
0
 40
0
 40
0
 40
0
 40
0
 40
1
 40
1
 40
1
 40
1
 10
326.416798
 20
262.021328
 30
0.0
 10
326.416798
 20
262.346741
 30
0.0
 10
326.376121
 20
262.753506
 30
0.0
 10
326.294768
 20
263.241625
 30
0.0
  0
SPLINE
  5
288
100
AcDbEntity
  8
Layer_1
 62
7
100
AcDbSpline
 70
8
 71
3
 72
8
 73
4
 74
0
 40
0
 40
0
 40
0
 40
0
 40
1
 40
1
 40
1
 40
1
 10
326.294768
 20
263.241625
 30
0.0
 10
326.172739
 20
263.770420
 30
0.0
 10
326.071047
 20
264.299215
 30
0.0
 10
325.989694
 20
264.828010
 30
0.0
  0
SPLINE
  5
289
100
AcDbEntity
  8
Layer_1
 62
7
100
AcDbSpline
 70
8
 71
3
 72
8
 73
4
 74
0
 40
0
 40
0
 40
0
 40
0
 40
1
 40
1
 40
1
 40
1
 10
325.989694
 20
264.828010
 30
0.0
 10
325.867665
 20
265.397481
 30
0.0
 10
325.765973
 20
265.946615
 30
0.0
 10
325.684620
 20
266.475410
 30
0.0
  0
SPLINE
  5
28a
100
AcDbEntity
  8
Layer_1
 62
7
100
AcDbSpline
 70
8
 71
3
 72
8
 73
4
 74
0
 40
0
 40
0
 40
0
 40
0
 40
1
 40
1
 40
1
 40
1
 10
325.684620
 20
266.475410
 30
0.0
 10
325.562591
 20
267.004205
 30
0.0
 10
325.501576
 20
267.471985
 30
0.0
 10
325.501576
 20
267.878750
 30
0.0
  0
LWPOLYLINE
  5
28b
100
AcDbEntity
  8
Layer_1
 62
7
100
AcDbPolyline
 90
2
 70
0
 10
320.193287
 20
275.261543
 30
0.0
 10
320.193287
 20
280.935920
 30
0.0
  0
SPLINE
  5
28c
100
AcDbEntity
  8
Layer_1
 62
7
100
AcDbSpline
 70
8
 71
3
 72
8
 73
4
 74
0
 40
0
 40
0
 40
0
 40
0
 40
1
 40
1
 40
1
 40
1
 10
325.501576
 20
268.427884
 30
0.0
 10
325.501576
 20
268.590590
 30
0.0
 10
325.521914
 20
268.773634
 30
0.0
 10
325.562591
 20
268.977017
 30
0.0
  0
SPLINE
  5
28d
100
AcDbEntity
  8
Layer_1
 62
7
100
AcDbSpline
 70
8
 71
3
 72
8
 73
4
 74
0
 40
0
 40
0
 40
0
 40
0
 40
1
 40
1
 40
1
 40
1
 10
325.562591
 20
268.977017
 30
0.0
 10
324.586354
 20
268.895664
 30
0.0
 10
323.610117
 20
268.834649
 30
0.0
 10
322.633880
 20
268.793973
 30
0.0
  0
SPLINE
  5
28e
100
AcDbEntity
  8
Layer_1
 62
7
100
AcDbSpline
 70
8
 71
3
 72
8
 73
4
 74
0
 40
0
 40
0
 40
0
 40
0
 40
1
 40
1
 40
1
 40
1
 10
322.633880
 20
268.793973
 30
0.0
 10
321.616966
 20
268.753296
 30
0.0
 10
320.579714
 20
268.732958
 30
0.0
 10
319.522124
 20
268.732958
 30
0.0
  0
SPLINE
  5
28f
100
AcDbEntity
  8
Layer_1
 62
7
100
AcDbSpline
 70
8
 71
3
 72
8
 73
4
 74
0
 40
0
 40
0
 40
0
 40
0
 40
1
 40
1
 40
1
 40
1
 10
319.522124
 20
268.732958
 30
0.0
 10
316.349354
 20
268.732958
 30
0.0
 10
313.501996
 20
268.875326
 30
0.0
 10
310.980050
 20
269.160062
 30
0.0
  0
SPLINE
  5
290
100
AcDbEntity
  8
Layer_1
 62
7
100
AcDbSpline
 70
8
 71
3
 72
8
 73
4
 74
0
 40
0
 40
0
 40
0
 40
0
 40
1
 40
1
 40
1
 40
1
 10
310.980050
 20
269.160062
 30
0.0
 10
308.458105
 20
269.444797
 30
0.0
 10
306.322586
 20
269.851563
 30
0.0
 10
304.573495
 20
270.380358
 30
0.0
  0
SPLINE
  5
291
100
AcDbEntity
  8
Layer_1
 62
7
100
AcDbSpline
 70
8
 71
3
 72
8
 73
4
 74
0
 40
0
 40
0
 40
0
 40
0
 40
1
 40
1
 40
1
 40
1
 10
304.573495
 20
270.380358
 30
0.0
 10
302.783727
 20
270.949829
 30
0.0
 10
301.421063
 20
271.620992
 30
0.0
 10
300.485503
 20
272.393847
 30
0.0
  0
SPLINE
  5
292
100
AcDbEntity
  8
Layer_1
 62
7
100
AcDbSpline
 70
8
 71
3
 72
8
 73
4
 74
0
 40
0
 40
0
 40
0
 40
0
 40
1
 40
1
 40
1
 40
1
 10
300.485503
 20
272.393847
 30
0.0
 10
299.509266
 20
273.166701
 30
0.0
 10
299.021147
 20
274.041247
 30
0.0
 10
299.021147
 20
275.017484
 30
0.0
  0
LWPOLYLINE
  5
293
100
AcDbEntity
  8
Layer_1
 62
7
100
AcDbPolyline
 90
2
 70
0
 10
325.501576
 20
267.878750
 30
0.0
 10
325.501576
 20
268.427884
 30
0.0
  0
SPLINE
  5
294
100
AcDbEntity
  8
Layer_1
 62
7
100
AcDbSpline
 70
8
 71
3
 72
8
 73
4
 74
0
 40
0
 40
0
 40
0
 40
0
 40
1
 40
1
 40
1
 40
1
 10
395.699118
 20
278.495328
 30
0.0
 10
396.390619
 20
277.437738
 30
0.0
 10
396.736370
 20
276.278456
 30
0.0
 10
396.736370
 20
275.017484
 30
0.0
  0
SPLINE
  5
295
100
AcDbEntity
  8
Layer_1
 62
7
100
AcDbSpline
 70
8
 71
3
 72
8
 73
4
 74
0
 40
0
 40
0
 40
0
 40
0
 40
1
 40
1
 40
1
 40
1
 10
396.736370
 20
275.017484
 30
0.0
 10
396.736370
 20
273.187039
 30
0.0
 10
396.126221
 20
271.519301
 30
0.0
 10
394.905925
 20
270.014269
 30
0.0
  0
SPLINE
  5
296
100
AcDbEntity
  8
Layer_1
 62
7
100
AcDbSpline
 70
8
 71
3
 72
8
 73
4
 74
0
 40
0
 40
0
 40
0
 40
0
 40
1
 40
1
 40
1
 40
1
 10
394.905925
 20
270.014269
 30
0.0
 10
393.726305
 20
268.549913
 30
0.0
 10
392.099244
 20
267.288941
 30
0.0
 10
390.024740
 20
266.231351
 30
0.0
  0
SPLINE
  5
297
100
AcDbEntity
  8
Layer_1
 62
7
100
AcDbSpline
 70
8
 71
3
 72
8
 73
4
 74
0
 40
0
 40
0
 40
0
 40
0
 40
1
 40
1
 40
1
 40
1
 10
390.024740
 20
266.231351
 30
0.0
 10
387.950236
 20
265.173760
 30
0.0
 10
385.489306
 20
264.360230
 30
0.0
 10
382.641948
 20
263.790758
 30
0.0
  0
SPLINE
  5
298
100
AcDbEntity
  8
Layer_1
 62
7
100
AcDbSpline
 70
8
 71
3
 72
8
 73
4
 74
0
 40
0
 40
0
 40
0
 40
0
 40
1
 40
1
 40
1
 40
1
 10
382.641948
 20
263.790758
 30
0.0
 10
379.794590
 20
263.221286
 30
0.0
 10
376.723511
 20
262.936551
 30
0.0
 10
373.428711
 20
262.936551
 30
0.0
  0
SPLINE
  5
299
100
AcDbEntity
  8
Layer_1
 62
7
100
AcDbSpline
 70
8
 71
3
 72
8
 73
4
 74
0
 40
0
 40
0
 40
0
 40
0
 40
1
 40
1
 40
1
 40
1
 10
373.428711
 20
262.936551
 30
0.0
 10
371.923679
 20
262.936551
 30
0.0
 10
370.601691
 20
263.058580
 30
0.0
 10
369.462748
 20
263.302639
 30
0.0
  0
SPLINE
  5
29a
100
AcDbEntity
  8
Layer_1
 62
7
100
AcDbSpline
 70
8
 71
3
 72
8
 73
4
 74
0
 40
0
 40
0
 40
0
 40
0
 40
1
 40
1
 40
1
 40
1
 10
369.462748
 20
263.302639
 30
0.0
 10
369.218689
 20
259.723104
 30
0.0
 10
368.100084
 20
257.079129
 30
0.0
 10
366.106934
 20
255.370714
 30
0.0
  0
SPLINE
  5
29b
100
AcDbEntity
  8
Layer_1
 62
7
100
AcDbSpline
 70
8
 71
3
 72
8
 73
4
 74
0
 40
0
 40
0
 40
0
 40
0
 40
1
 40
1
 40
1
 40
1
 10
366.106934
 20
255.370714
 30
0.0
 10
364.113783
 20
253.702976
 30
0.0
 10
360.900336
 20
252.869107
 30
0.0
 10
356.466593
 20
252.869107
 30
0.0
  0
SPLINE
  5
29c
100
AcDbEntity
  8
Layer_1
 62
7
100
AcDbSpline
 70
8
 71
3
 72
8
 73
4
 74
0
 40
0
 40
0
 40
0
 40
0
 40
1
 40
1
 40
1
 40
1
 10
356.466593
 20
252.869107
 30
0.0
 10
349.551581
 20
252.869107
 30
0.0
 10
346.094075
 20
257.974013
 30
0.0
 10
346.094075
 20
268.183825
 30
0.0
  0
SPLINE
  5
29d
100
AcDbEntity
  8
Layer_1
 62
7
100
AcDbSpline
 70
8
 71
3
 72
8
 73
4
 74
0
 40
0
 40
0
 40
0
 40
0
 40
1
 40
1
 40
1
 40
1
 10
346.094075
 20
268.183825
 30
0.0
 10
346.094075
 20
272.780274
 30
0.0
 10
346.256781
 20
276.664883
 30
0.0
 10
346.582194
 20
279.837654
 30
0.0
  0
SPLINE
  5
29e
100
AcDbEntity
  8
Layer_1
 62
7
100
AcDbSpline
 70
8
 71
3
 72
8
 73
4
 74
0
 40
0
 40
0
 40
0
 40
0
 40
1
 40
1
 40
1
 40
1
 10
346.582194
 20
279.837654
 30
0.0
 10
346.907606
 20
283.010424
 30
0.0
 10
347.436401
 20
285.674737
 30
0.0
 10
348.168579
 20
287.830594
 30
0.0
  0
SPLINE
  5
29f
100
AcDbEntity
  8
Layer_1
 62
7
100
AcDbSpline
 70
8
 71
3
 72
8
 73
4
 74
0
 40
0
 40
0
 40
0
 40
0
 40
1
 40
1
 40
1
 40
1
 10
348.168579
 20
287.830594
 30
0.0
 10
348.941433
 20
290.027127
 30
0.0
 10
349.958347
 20
291.796557
 30
0.0
 10
351.219319
 20
293.138883
 30
0.0
  0
SPLINE
  5
2a0
100
AcDbEntity
  8
Layer_1
 62
7
100
AcDbSpline
 70
8
 71
3
 72
8
 73
4
 74
0
 40
0
 40
0
 40
0
 40
0
 40
1
 40
1
 40
1
 40
1
 10
351.219319
 20
293.138883
 30
0.0
 10
352.480292
 20
294.521885
 30
0.0
 10
354.046339
 20
295.701505
 30
0.0
 10
355.917460
 20
296.677742
 30
0.0
  0
SPLINE
  5
2a1
100
AcDbEntity
  8
Layer_1
 62
7
100
AcDbSpline
 70
8
 71
3
 72
8
 73
4
 74
0
 40
0
 40
0
 40
0
 40
0
 40
1
 40
1
 40
1
 40
1
 10
355.917460
 20
296.677742
 30
0.0
 10
359.863084
 20
298.711569
 30
0.0
 10
365.964566
 20
299.728483
 30
0.0
 10
374.221904
 20
299.728483
 30
0.0
  0
SPLINE
  5
2a2
100
AcDbEntity
  8
Layer_1
 62
7
100
AcDbSpline
 70
8
 71
3
 72
8
 73
4
 74
0
 40
0
 40
0
 40
0
 40
0
 40
1
 40
1
 40
1
 40
1
 10
374.221904
 20
299.728483
 30
0.0
 10
379.103089
 20
299.728483
 30
0.0
 10
383.252096
 20
299.484423
 30
0.0
 10
386.668925
 20
298.996305
 30
0.0
  0
SPLINE
  5
2a3
100
AcDbEntity
  8
Layer_1
 62
7
100
AcDbSpline
 70
8
 71
3
 72
8
 73
4
 74
0
 40
0
 40
0
 40
0
 40
0
 40
1
 40
1
 40
1
 40
1
 10
386.668925
 20
298.996305
 30
0.0
 10
390.085755
 20
298.508186
 30
0.0
 10
392.872098
 20
297.735332
 30
0.0
 10
395.027955
 20
296.677742
 30
0.0
  0
SPLINE
  5
2a4
100
AcDbEntity
  8
Layer_1
 62
7
100
AcDbSpline
 70
8
 71
3
 72
8
 73
4
 74
0
 40
0
 40
0
 40
0
 40
0
 40
1
 40
1
 40
1
 40
1
 10
395.027955
 20
296.677742
 30
0.0
 10
397.224488
 20
295.660828
 30
0.0
 10
398.810873
 20
294.359179
 30
0.0
 10
399.787110
 20
292.772794
 30
0.0
  0
SPLINE
  5
2a5
100
AcDbEntity
  8
Layer_1
 62
7
100
AcDbSpline
 70
8
 71
3
 72
8
 73
4
 74
0
 40
0
 40
0
 40
0
 40
0
 40
1
 40
1
 40
1
 40
1
 10
399.787110
 20
292.772794
 30
0.0
 10
400.763347
 20
291.186409
 30
0.0
 10
401.251466
 20
289.315288
 30
0.0
 10
401.251466
 20
287.159431
 30
0.0
  0
SPLINE
  5
2a6
100
AcDbEntity
  8
Layer_1
 62
7
100
AcDbSpline
 70
8
 71
3
 72
8
 73
4
 74
0
 40
0
 40
0
 40
0
 40
0
 40
1
 40
1
 40
1
 40
1
 10
401.251466
 20
287.159431
 30
0.0
 10
401.251466
 20
283.132454
 30
0.0
 10
399.400683
 20
280.244419
 30
0.0
 10
395.699118
 20
278.495328
 30
0.0
  0
LWPOLYLINE
  5
2a7
100
AcDbEntity
  8
Layer_1
 62
7
100
AcDbPolyline
 90
2
 70
0
 10
299.021147
 20
275.017484
 30
0.0
 10
299.936369
 20
276.786913
 30
0.0
  0
SPLINE
  5
2a8
100
AcDbEntity
  8
Layer_1
 62
7
100
AcDbSpline
 70
8
 71
3
 72
8
 73
4
 74
0
 40
0
 40
0
 40
0
 40
0
 40
1
 40
1
 40
1
 40
1
 10
390.207785
 20
276.786913
 30
0.0
 10
385.407953
 20
276.258118
 30
0.0
 10
381.340298
 20
275.871691
 30
0.0
 10
378.004822
 20
275.627632
 30
0.0
  0
SPLINE
  5
2a9
100
AcDbEntity
  8
Layer_1
 62
7
100
AcDbSpline
 70
8
 71
3
 72
8
 73
4
 74
0
 40
0
 40
0
 40
0
 40
0
 40
1
 40
1
 40
1
 40
1
 10
378.004822
 20
275.627632
 30
0.0
 10
374.710022
 20
275.383572
 30
0.0
 10
372.025370
 20
275.261543
 30
0.0
 10
369.950867
 20
275.261543
 30
0.0
  0
LWPOLYLINE
  5
2aa
100
AcDbEntity
  8
Layer_1
 62
7
100
AcDbPolyline
 90
1
 70
1
 10
395.699118
 20
278.495328
 30
0.0
  0
SPLINE
  5
2ab
100
AcDbEntity
  8
Layer_1
 62
7
100
AcDbSpline
 70
8
 71
3
 72
8
 73
4
 74
0
 40
0
 40
0
 40
0
 40
0
 40
1
 40
1
 40
1
 40
1
 10
369.950867
 20
280.935920
 30
0.0
 10
387.035014
 20
280.935920
 30
0.0
 10
395.577088
 20
283.010424
 30
0.0
 10
395.577088
 20
287.159431
 30
0.0
  0
SPLINE
  5
2ac
100
AcDbEntity
  8
Layer_1
 62
7
100
AcDbSpline
 70
8
 71
3
 72
8
 73
4
 74
0
 40
0
 40
0
 40
0
 40
0
 40
1
 40
1
 40
1
 40
1
 10
395.577088
 20
287.159431
 30
0.0
 10
395.577088
 20
288.420404
 30
0.0
 10
395.210999
 20
289.477994
 30
0.0
 10
394.478821
 20
290.332201
 30
0.0
  0
SPLINE
  5
2ad
100
AcDbEntity
  8
Layer_1
 62
7
100
AcDbSpline
 70
8
 71
3
 72
8
 73
4
 74
0
 40
0
 40
0
 40
0
 40
0
 40
1
 40
1
 40
1
 40
1
 10
394.478821
 20
290.332201
 30
0.0
 10
393.746644
 20
291.227085
 30
0.0
 10
392.546686
 20
291.938925
 30
0.0
 10
390.878947
 20
292.467720
 30
0.0
  0
SPLINE
  5
2ae
100
AcDbEntity
  8
Layer_1
 62
7
100
AcDbSpline
 70
8
 71
3
 72
8
 73
4
 74
0
 40
0
 40
0
 40
0
 40
0
 40
1
 40
1
 40
1
 40
1
 10
390.878947
 20
292.467720
 30
0.0
 10
389.211209
 20
293.037192
 30
0.0
 10
387.014676
 20
293.443957
 30
0.0
 10
384.289348
 20
293.688016
 30
0.0
  0
SPLINE
  5
2af
100
AcDbEntity
  8
Layer_1
 62
7
100
AcDbSpline
 70
8
 71
3
 72
8
 73
4
 74
0
 40
0
 40
0
 40
0
 40
0
 40
1
 40
1
 40
1
 40
1
 10
384.289348
 20
293.688016
 30
0.0
 10
381.564019
 20
293.932075
 30
0.0
 10
378.208205
 20
294.054105
 30
0.0
 10
374.221904
 20
294.054105
 30
0.0
  0
SPLINE
  5
2b0
100
AcDbEntity
  8
Layer_1
 62
7
100
AcDbSpline
 70
8
 71
3
 72
8
 73
4
 74
0
 40
0
 40
0
 40
0
 40
0
 40
1
 40
1
 40
1
 40
1
 10
374.221904
 20
294.054105
 30
0.0
 10
370.723721
 20
294.054105
 30
0.0
 10
367.733995
 20
293.891399
 30
0.0
 10
365.252726
 20
293.565987
 30
0.0
  0
SPLINE
  5
2b1
100
AcDbEntity
  8
Layer_1
 62
7
100
AcDbSpline
 70
8
 71
3
 72
8
 73
4
 74
0
 40
0
 40
0
 40
0
 40
0
 40
1
 40
1
 40
1
 40
1
 10
365.252726
 20
293.565987
 30
0.0
 10
362.771457
 20
293.281251
 30
0.0
 10
360.696954
 20
292.752456
 30
0.0
 10
359.029215
 20
291.979601
 30
0.0
  0
SPLINE
  5
2b2
100
AcDbEntity
  8
Layer_1
 62
7
100
AcDbSpline
 70
8
 71
3
 72
8
 73
4
 74
0
 40
0
 40
0
 40
0
 40
0
 40
1
 40
1
 40
1
 40
1
 10
359.029215
 20
291.979601
 30
0.0
 10
357.361477
 20
291.206747
 30
0.0
 10
356.039490
 20
290.189834
 30
0.0
 10
355.063253
 20
288.928861
 30
0.0
  0
SPLINE
  5
2b3
100
AcDbEntity
  8
Layer_1
 62
7
100
AcDbSpline
 70
8
 71
3
 72
8
 73
4
 74
0
 40
0
 40
0
 40
0
 40
0
 40
1
 40
1
 40
1
 40
1
 10
355.063253
 20
288.928861
 30
0.0
 10
354.127692
 20
287.667888
 30
0.0
 10
353.415853
 20
286.061165
 30
0.0
 10
352.927734
 20
284.108691
 30
0.0
  0
SPLINE
  5
2b4
100
AcDbEntity
  8
Layer_1
 62
7
100
AcDbSpline
 70
8
 71
3
 72
8
 73
4
 74
0
 40
0
 40
0
 40
0
 40
0
 40
1
 40
1
 40
1
 40
1
 10
352.927734
 20
284.108691
 30
0.0
 10
352.439616
 20
282.196893
 30
0.0
 10
352.114203
 20
279.919007
 30
0.0
 10
351.951497
 20
277.275032
 30
0.0
  0
SPLINE
  5
2b5
100
AcDbEntity
  8
Layer_1
 62
7
100
AcDbSpline
 70
8
 71
3
 72
8
 73
4
 74
0
 40
0
 40
0
 40
0
 40
0
 40
1
 40
1
 40
1
 40
1
 10
351.951497
 20
277.275032
 30
0.0
 10
351.829467
 20
274.671733
 30
0.0
 10
351.768453
 20
271.641331
 30
0.0
 10
351.768453
 20
268.183825
 30
0.0
  0
SPLINE
  5
2b6
100
AcDbEntity
  8
Layer_1
 62
7
100
AcDbSpline
 70
8
 71
3
 72
8
 73
4
 74
0
 40
0
 40
0
 40
0
 40
0
 40
1
 40
1
 40
1
 40
1
 10
351.768453
 20
268.183825
 30
0.0
 10
351.768453
 20
266.272027
 30
0.0
 10
351.849806
 20
264.685642
 30
0.0
 10
352.012512
 20
263.424669
 30
0.0
  0
SPLINE
  5
2b7
100
AcDbEntity
  8
Layer_1
 62
7
100
AcDbSpline
 70
8
 71
3
 72
8
 73
4
 74
0
 40
0
 40
0
 40
0
 40
0
 40
1
 40
1
 40
1
 40
1
 10
352.012512
 20
263.424669
 30
0.0
 10
352.175218
 20
262.204373
 30
0.0
 10
352.439616
 20
261.228136
 30
0.0
 10
352.805704
 20
260.495958
 30
0.0
  0
SPLINE
  5
2b8
100
AcDbEntity
  8
Layer_1
 62
7
100
AcDbSpline
 70
8
 71
3
 72
8
 73
4
 74
0
 40
0
 40
0
 40
0
 40
0
 40
1
 40
1
 40
1
 40
1
 10
352.805704
 20
260.495958
 30
0.0
 10
353.171793
 20
259.763780
 30
0.0
 10
353.639574
 20
259.255324
 30
0.0
 10
354.209045
 20
258.970588
 30
0.0
  0
SPLINE
  5
2b9
100
AcDbEntity
  8
Layer_1
 62
7
100
AcDbSpline
 70
8
 71
3
 72
8
 73
4
 74
0
 40
0
 40
0
 40
0
 40
0
 40
1
 40
1
 40
1
 40
1
 10
354.209045
 20
258.970588
 30
0.0
 10
354.819193
 20
258.685852
 30
0.0
 10
355.571709
 20
258.543484
 30
0.0
 10
356.466593
 20
258.543484
 30
0.0
  0
SPLINE
  5
2ba
100
AcDbEntity
  8
Layer_1
 62
7
100
AcDbSpline
 70
8
 71
3
 72
8
 73
4
 74
0
 40
0
 40
0
 40
0
 40
0
 40
1
 40
1
 40
1
 40
1
 10
356.466593
 20
258.543484
 30
0.0
 10
361.307102
 20
258.543484
 30
0.0
 10
363.727356
 20
259.702766
 30
0.0
 10
363.727356
 20
262.021328
 30
0.0
  0
SPLINE
  5
2bb
100
AcDbEntity
  8
Layer_1
 62
7
100
AcDbSpline
 70
8
 71
3
 72
8
 73
4
 74
0
 40
0
 40
0
 40
0
 40
0
 40
1
 40
1
 40
1
 40
1
 10
363.727356
 20
262.021328
 30
0.0
 10
363.727356
 20
262.346741
 30
0.0
 10
363.768032
 20
262.753506
 30
0.0
 10
363.849386
 20
263.241625
 30
0.0
  0
SPLINE
  5
2bc
100
AcDbEntity
  8
Layer_1
 62
7
100
AcDbSpline
 70
8
 71
3
 72
8
 73
4
 74
0
 40
0
 40
0
 40
0
 40
0
 40
1
 40
1
 40
1
 40
1
 10
363.849386
 20
263.241625
 30
0.0
 10
363.971415
 20
263.770420
 30
0.0
 10
364.073106
 20
264.299215
 30
0.0
 10
364.154460
 20
264.828010
 30
0.0
  0
SPLINE
  5
2bd
100
AcDbEntity
  8
Layer_1
 62
7
100
AcDbSpline
 70
8
 71
3
 72
8
 73
4
 74
0
 40
0
 40
0
 40
0
 40
0
 40
1
 40
1
 40
1
 40
1
 10
364.154460
 20
264.828010
 30
0.0
 10
364.276489
 20
265.397481
 30
0.0
 10
364.378181
 20
265.946615
 30
0.0
 10
364.459534
 20
266.475410
 30
0.0
  0
SPLINE
  5
2be
100
AcDbEntity
  8
Layer_1
 62
7
100
AcDbSpline
 70
8
 71
3
 72
8
 73
4
 74
0
 40
0
 40
0
 40
0
 40
0
 40
1
 40
1
 40
1
 40
1
 10
364.459534
 20
266.475410
 30
0.0
 10
364.581563
 20
267.004205
 30
0.0
 10
364.642578
 20
267.471985
 30
0.0
 10
364.642578
 20
267.878750
 30
0.0
  0
LWPOLYLINE
  5
2bf
100
AcDbEntity
  8
Layer_1
 62
7
100
AcDbPolyline
 90
2
 70
0
 10
369.950867
 20
275.261543
 30
0.0
 10
369.950867
 20
280.935920
 30
0.0
  0
SPLINE
  5
2c0
100
AcDbEntity
  8
Layer_1
 62
7
100
AcDbSpline
 70
8
 71
3
 72
8
 73
4
 74
0
 40
0
 40
0
 40
0
 40
0
 40
1
 40
1
 40
1
 40
1
 10
364.642578
 20
268.427884
 30
0.0
 10
364.642578
 20
268.590590
 30
0.0
 10
364.622240
 20
268.773634
 30
0.0
 10
364.581563
 20
268.977017
 30
0.0
  0
SPLINE
  5
2c1
100
AcDbEntity
  8
Layer_1
 62
7
100
AcDbSpline
 70
8
 71
3
 72
8
 73
4
 74
0
 40
0
 40
0
 40
0
 40
0
 40
1
 40
1
 40
1
 40
1
 10
364.581563
 20
268.977017
 30
0.0
 10
365.557800
 20
268.895664
 30
0.0
 10
366.534037
 20
268.834649
 30
0.0
 10
367.510274
 20
268.793973
 30
0.0
  0
SPLINE
  5
2c2
100
AcDbEntity
  8
Layer_1
 62
7
100
AcDbSpline
 70
8
 71
3
 72
8
 73
4
 74
0
 40
0
 40
0
 40
0
 40
0
 40
1
 40
1
 40
1
 40
1
 10
367.510274
 20
268.793973
 30
0.0
 10
368.527188
 20
268.753296
 30
0.0
 10
369.564440
 20
268.732958
 30
0.0
 10
370.622030
 20
268.732958
 30
0.0
  0
SPLINE
  5
2c3
100
AcDbEntity
  8
Layer_1
 62
7
100
AcDbSpline
 70
8
 71
3
 72
8
 73
4
 74
0
 40
0
 40
0
 40
0
 40
0
 40
1
 40
1
 40
1
 40
1
 10
370.622030
 20
268.732958
 30
0.0
 10
373.794800
 20
268.732958
 30
0.0
 10
376.642158
 20
268.875326
 30
0.0
 10
379.164103
 20
269.160062
 30
0.0
  0
SPLINE
  5
2c4
100
AcDbEntity
  8
Layer_1
 62
7
100
AcDbSpline
 70
8
 71
3
 72
8
 73
4
 74
0
 40
0
 40
0
 40
0
 40
0
 40
1
 40
1
 40
1
 40
1
 10
379.164103
 20
269.160062
 30
0.0
 10
381.686049
 20
269.444797
 30
0.0
 10
383.821568
 20
269.851563
 30
0.0
 10
385.570659
 20
270.380358
 30
0.0
  0
SPLINE
  5
2c5
100
AcDbEntity
  8
Layer_1
 62
7
100
AcDbSpline
 70
8
 71
3
 72
8
 73
4
 74
0
 40
0
 40
0
 40
0
 40
0
 40
1
 40
1
 40
1
 40
1
 10
385.570659
 20
270.380358
 30
0.0
 10
387.360427
 20
270.949829
 30
0.0
 10
388.723091
 20
271.620992
 30
0.0
 10
389.658651
 20
272.393847
 30
0.0
  0
SPLINE
  5
2c6
100
AcDbEntity
  8
Layer_1
 62
7
100
AcDbSpline
 70
8
 71
3
 72
8
 73
4
 74
0
 40
0
 40
0
 40
0
 40
0
 40
1
 40
1
 40
1
 40
1
 10
389.658651
 20
272.393847
 30
0.0
 10
390.634888
 20
273.166701
 30
0.0
 10
391.123007
 20
274.041247
 30
0.0
 10
391.123007
 20
275.017484
 30
0.0
  0
LWPOLYLINE
  5
2c7
100
AcDbEntity
  8
Layer_1
 62
7
100
AcDbPolyline
 90
2
 70
0
 10
364.642578
 20
267.878750
 30
0.0
 10
364.642578
 20
268.427884
 30
0.0
  0
SPLINE
  5
2c8
100
AcDbEntity
  8
Layer_1
 62
7
100
AcDbSpline
 70
8
 71
3
 72
8
 73
4
 74
0
 40
0
 40
0
 40
0
 40
0
 40
1
 40
1
 40
1
 40
1
 10
403.295462
 20
277.763150
 30
0.0
 10
403.295462
 20
278.332622
 30
0.0
 10
403.315800
 20
278.861417
 30
0.0
 10
403.356477
 20
279.349535
 30
0.0
  0
SPLINE
  5
2c9
100
AcDbEntity
  8
Layer_1
 62
7
100
AcDbSpline
 70
8
 71
3
 72
8
 73
4
 74
0
 40
0
 40
0
 40
0
 40
0
 40
1
 40
1
 40
1
 40
1
 10
403.356477
 20
279.349535
 30
0.0
 10
403.397153
 20
279.837654
 30
0.0
 10
403.417491
 20
280.264757
 30
0.0
 10
403.417491
 20
280.630846
 30
0.0
  0
SPLINE
  5
2ca
100
AcDbEntity
  8
Layer_1
 62
7
100
AcDbSpline
 70
8
 71
3
 72
8
 73
4
 74
0
 40
0
 40
0
 40
0
 40
0
 40
1
 40
1
 40
1
 40
1
 10
403.417491
 20
280.630846
 30
0.0
 10
403.417491
 20
280.712199
 30
0.0
 10
403.397153
 20
280.813891
 30
0.0
 10
403.356477
 20
280.935920
 30
0.0
  0
LWPOLYLINE
  5
2cb
100
AcDbEntity
  8
Layer_1
 62
7
100
AcDbPolyline
 90
2
 70
0
 10
391.123007
 20
275.017484
 30
0.0
 10
390.207785
 20
276.786913
 30
0.0
  0
SPLINE
  5
2cc
100
AcDbEntity
  8
Layer_1
 62
7
100
AcDbSpline
 70
8
 71
3
 72
8
 73
4
 74
0
 40
0
 40
0
 40
0
 40
0
 40
1
 40
1
 40
1
 40
1
 10
403.356477
 20
281.240994
 30
0.0
 10
403.356477
 20
284.698500
 30
0.0
 10
403.498845
 20
287.545858
 30
0.0
 10
403.783580
 20
289.783068
 30
0.0
  0
SPLINE
  5
2cd
100
AcDbEntity
  8
Layer_1
 62
7
100
AcDbSpline
 70
8
 71
3
 72
8
 73
4
 74
0
 40
0
 40
0
 40
0
 40
0
 40
1
 40
1
 40
1
 40
1
 10
403.783580
 20
289.783068
 30
0.0
 10
404.108993
 20
292.060955
 30
0.0
 10
404.617449
 20
293.891399
 30
0.0
 10
405.308951
 20
295.274401
 30
0.0
  0
SPLINE
  5
2ce
100
AcDbEntity
  8
Layer_1
 62
7
100
AcDbSpline
 70
8
 71
3
 72
8
 73
4
 74
0
 40
0
 40
0
 40
0
 40
0
 40
1
 40
1
 40
1
 40
1
 10
405.308951
 20
295.274401
 30
0.0
 10
406.041128
 20
296.657404
 30
0.0
 10
406.976689
 20
297.674317
 30
0.0
 10
408.115632
 20
298.325142
 30
0.0
  0
SPLINE
  5
2cf
100
AcDbEntity
  8
Layer_1
 62
7
100
AcDbSpline
 70
8
 71
3
 72
8
 73
4
 74
0
 40
0
 40
0
 40
0
 40
0
 40
1
 40
1
 40
1
 40
1
 10
408.115632
 20
298.325142
 30
0.0
 10
409.254575
 20
299.016643
 30
0.0
 10
410.657916
 20
299.525100
 30
0.0
 10
412.325654
 20
299.850512
 30
0.0
  0
SPLINE
  5
2d0
100
AcDbEntity
  8
Layer_1
 62
7
100
AcDbSpline
 70
8
 71
3
 72
8
 73
4
 74
0
 40
0
 40
0
 40
0
 40
0
 40
1
 40
1
 40
1
 40
1
 10
412.325654
 20
299.850512
 30
0.0
 10
412.935802
 20
299.972542
 30
0.0
 10
413.790010
 20
300.033557
 30
0.0
 10
414.888276
 20
300.033557
 30
0.0
  0
SPLINE
  5
2d1
100
AcDbEntity
  8
Layer_1
 62
7
100
AcDbSpline
 70
8
 71
3
 72
8
 73
4
 74
0
 40
0
 40
0
 40
0
 40
0
 40
1
 40
1
 40
1
 40
1
 10
414.888276
 20
300.033557
 30
0.0
 10
415.986543
 20
300.074233
 30
0.0
 10
417.410222
 20
300.094571
 30
0.0
 10
419.159313
 20
300.094571
 30
0.0
  0
SPLINE
  5
2d2
100
AcDbEntity
  8
Layer_1
 62
7
100
AcDbSpline
 70
8
 71
3
 72
8
 73
4
 74
0
 40
0
 40
0
 40
0
 40
0
 40
1
 40
1
 40
1
 40
1
 10
419.159313
 20
300.094571
 30
0.0
 10
420.949081
 20
300.094571
 30
0.0
 10
423.125276
 20
300.114910
 30
0.0
 10
425.687898
 20
300.155586
 30
0.0
  0
SPLINE
  5
2d3
100
AcDbEntity
  8
Layer_1
 62
7
100
AcDbSpline
 70
8
 71
3
 72
8
 73
4
 74
0
 40
0
 40
0
 40
0
 40
0
 40
1
 40
1
 40
1
 40
1
 10
425.687898
 20
300.155586
 30
0.0
 10
428.250520
 20
300.196263
 30
0.0
 10
431.301261
 20
300.297954
 30
0.0
 10
434.840120
 20
300.460660
 30
0.0
  0
SPLINE
  5
2d4
100
AcDbEntity
  8
Layer_1
 62
7
100
AcDbSpline
 70
8
 71
3
 72
8
 73
4
 74
0
 40
0
 40
0
 40
0
 40
0
 40
1
 40
1
 40
1
 40
1
 10
434.840120
 20
300.460660
 30
0.0
 10
436.792594
 20
300.542013
 30
0.0
 10
438.480670
 20
300.623367
 30
0.0
 10
439.904349
 20
300.704720
 30
0.0
  0
SPLINE
  5
2d5
100
AcDbEntity
  8
Layer_1
 62
7
100
AcDbSpline
 70
8
 71
3
 72
8
 73
4
 74
0
 40
0
 40
0
 40
0
 40
0
 40
1
 40
1
 40
1
 40
1
 10
439.904349
 20
300.704720
 30
0.0
 10
441.368705
 20
300.786073
 30
0.0
 10
442.589001
 20
300.826749
 30
0.0
 10
443.565238
 20
300.826749
 30
0.0
  0
SPLINE
  5
2d6
100
AcDbEntity
  8
Layer_1
 62
7
100
AcDbSpline
 70
8
 71
3
 72
8
 73
4
 74
0
 40
0
 40
0
 40
0
 40
0
 40
1
 40
1
 40
1
 40
1
 10
443.565238
 20
300.826749
 30
0.0
 10
446.168537
 20
300.826749
 30
0.0
 10
448.365070
 20
300.664043
 30
0.0
 10
450.154838
 20
300.338631
 30
0.0
  0
SPLINE
  5
2d7
100
AcDbEntity
  8
Layer_1
 62
7
100
AcDbSpline
 70
8
 71
3
 72
8
 73
4
 74
0
 40
0
 40
0
 40
0
 40
0
 40
1
 40
1
 40
1
 40
1
 10
450.154838
 20
300.338631
 30
0.0
 10
451.985282
 20
300.013218
 30
0.0
 10
453.469976
 20
299.504762
 30
0.0
 10
454.608919
 20
298.813260
 30
0.0
  0
SPLINE
  5
2d8
100
AcDbEntity
  8
Layer_1
 62
7
100
AcDbSpline
 70
8
 71
3
 72
8
 73
4
 74
0
 40
0
 40
0
 40
0
 40
0
 40
1
 40
1
 40
1
 40
1
 10
454.608919
 20
298.813260
 30
0.0
 10
455.747862
 20
298.121759
 30
0.0
 10
456.561393
 20
297.226875
 30
0.0
 10
457.049512
 20
296.128609
 30
0.0
  0
SPLINE
  5
2d9
100
AcDbEntity
  8
Layer_1
 62
7
100
AcDbSpline
 70
8
 71
3
 72
8
 73
4
 74
0
 40
0
 40
0
 40
0
 40
0
 40
1
 40
1
 40
1
 40
1
 10
457.049512
 20
296.128609
 30
0.0
 10
457.578307
 20
295.030342
 30
0.0
 10
457.842704
 20
293.728693
 30
0.0
 10
457.842704
 20
292.223661
 30
0.0
  0
SPLINE
  5
2da
100
AcDbEntity
  8
Layer_1
 62
7
100
AcDbSpline
 70
8
 71
3
 72
8
 73
4
 74
0
 40
0
 40
0
 40
0
 40
0
 40
1
 40
1
 40
1
 40
1
 10
457.842704
 20
292.223661
 30
0.0
 10
457.842704
 20
291.410130
 30
0.0
 10
457.741013
 20
290.555922
 30
0.0
 10
457.537630
 20
289.661039
 30
0.0
  0
SPLINE
  5
2db
100
AcDbEntity
  8
Layer_1
 62
7
100
AcDbSpline
 70
8
 71
3
 72
8
 73
4
 74
0
 40
0
 40
0
 40
0
 40
0
 40
1
 40
1
 40
1
 40
1
 10
457.537630
 20
289.661039
 30
0.0
 10
457.334248
 20
288.806831
 30
0.0
 10
457.069850
 20
287.993300
 30
0.0
 10
456.744438
 20
287.220446
 30
0.0
  0
SPLINE
  5
2dc
100
AcDbEntity
  8
Layer_1
 62
7
100
AcDbSpline
 70
8
 71
3
 72
8
 73
4
 74
0
 40
0
 40
0
 40
0
 40
0
 40
1
 40
1
 40
1
 40
1
 10
456.744438
 20
287.220446
 30
0.0
 10
456.419025
 20
286.447592
 30
0.0
 10
456.012260
 20
285.796767
 30
0.0
 10
455.524141
 20
285.267972
 30
0.0
  0
SPLINE
  5
2dd
100
AcDbEntity
  8
Layer_1
 62
7
100
AcDbSpline
 70
8
 71
3
 72
8
 73
4
 74
0
 40
0
 40
0
 40
0
 40
0
 40
1
 40
1
 40
1
 40
1
 10
455.524141
 20
285.267972
 30
0.0
 10
455.076699
 20
284.739177
 30
0.0
 10
454.608919
 20
284.413765
 30
0.0
 10
454.120801
 20
284.291735
 30
0.0
  0
SPLINE
  5
2de
100
AcDbEntity
  8
Layer_1
 62
7
100
AcDbSpline
 70
8
 71
3
 72
8
 73
4
 74
0
 40
0
 40
0
 40
0
 40
0
 40
1
 40
1
 40
1
 40
1
 10
454.120801
 20
284.291735
 30
0.0
 10
454.568243
 20
282.623997
 30
0.0
 10
454.791964
 20
281.179980
 30
0.0
 10
454.791964
 20
279.959683
 30
0.0
  0
SPLINE
  5
2df
100
AcDbEntity
  8
Layer_1
 62
7
100
AcDbSpline
 70
8
 71
3
 72
8
 73
4
 74
0
 40
0
 40
0
 40
0
 40
0
 40
1
 40
1
 40
1
 40
1
 10
454.791964
 20
279.959683
 30
0.0
 10
454.791964
 20
277.885180
 30
0.0
 10
454.324183
 20
276.136088
 30
0.0
 10
453.388623
 20
274.712409
 30
0.0
  0
SPLINE
  5
2e0
100
AcDbEntity
  8
Layer_1
 62
7
100
AcDbSpline
 70
8
 71
3
 72
8
 73
4
 74
0
 40
0
 40
0
 40
0
 40
0
 40
1
 40
1
 40
1
 40
1
 10
453.388623
 20
274.712409
 30
0.0
 10
456.886806
 20
272.393847
 30
0.0
 10
458.635897
 20
269.058370
 30
0.0
 10
458.635897
 20
264.705980
 30
0.0
  0
SPLINE
  5
2e1
100
AcDbEntity
  8
Layer_1
 62
7
100
AcDbSpline
 70
8
 71
3
 72
8
 73
4
 74
0
 40
0
 40
0
 40
0
 40
0
 40
1
 40
1
 40
1
 40
1
 10
458.635897
 20
264.705980
 30
0.0
 10
458.635897
 20
257.221497
 30
0.0
 10
453.185240
 20
253.479255
 30
0.0
 10
442.283927
 20
253.479255
 30
0.0
  0
SPLINE
  5
2e2
100
AcDbEntity
  8
Layer_1
 62
7
100
AcDbSpline
 70
8
 71
3
 72
8
 73
4
 74
0
 40
0
 40
0
 40
0
 40
0
 40
1
 40
1
 40
1
 40
1
 10
442.283927
 20
253.479255
 30
0.0
 10
423.532041
 20
253.479255
 30
0.0
 10
412.508699
 20
254.638536
 30
0.0
 10
409.213899
 20
256.957099
 30
0.0
  0
SPLINE
  5
2e3
100
AcDbEntity
  8
Layer_1
 62
7
100
AcDbSpline
 70
8
 71
3
 72
8
 73
4
 74
0
 40
0
 40
0
 40
0
 40
0
 40
1
 40
1
 40
1
 40
1
 10
409.213899
 20
256.957099
 30
0.0
 10
405.268274
 20
259.682427
 30
0.0
 10
403.295462
 20
265.478834
 30
0.0
 10
403.295462
 20
274.346321
 30
0.0
  0
LWPOLYLINE
  5
2e4
100
AcDbEntity
  8
Layer_1
 62
7
100
AcDbPolyline
 90
2
 70
0
 10
403.356477
 20
280.935920
 30
0.0
 10
403.356477
 20
281.240994
 30
0.0
  0
SPLINE
  5
2e5
100
AcDbEntity
  8
Layer_1
 62
7
100
AcDbSpline
 70
8
 71
3
 72
8
 73
4
 74
0
 40
0
 40
0
 40
0
 40
0
 40
1
 40
1
 40
1
 40
1
 10
438.317964
 20
285.267972
 30
0.0
 10
435.633313
 20
285.267972
 30
0.0
 10
433.457118
 20
285.227295
 30
0.0
 10
431.789379
 20
285.145942
 30
0.0
  0
SPLINE
  5
2e6
100
AcDbEntity
  8
Layer_1
 62
7
100
AcDbSpline
 70
8
 71
3
 72
8
 73
4
 74
0
 40
0
 40
0
 40
0
 40
0
 40
1
 40
1
 40
1
 40
1
 10
431.789379
 20
285.145942
 30
0.0
 10
430.121641
 20
285.105266
 30
0.0
 10
428.718300
 20
284.983236
 30
0.0
 10
427.579357
 20
284.779854
 30
0.0
  0
SPLINE
  5
2e7
100
AcDbEntity
  8
Layer_1
 62
7
100
AcDbSpline
 70
8
 71
3
 72
8
 73
4
 74
0
 40
0
 40
0
 40
0
 40
0
 40
1
 40
1
 40
1
 40
1
 10
427.579357
 20
284.779854
 30
0.0
 10
426.440414
 20
284.576471
 30
0.0
 10
425.484515
 20
284.291735
 30
0.0
 10
424.711661
 20
283.925646
 30
0.0
  0
SPLINE
  5
2e8
100
AcDbEntity
  8
Layer_1
 62
7
100
AcDbSpline
 70
8
 71
3
 72
8
 73
4
 74
0
 40
0
 40
0
 40
0
 40
0
 40
1
 40
1
 40
1
 40
1
 10
424.711661
 20
283.925646
 30
0.0
 10
423.979483
 20
283.600234
 30
0.0
 10
423.186291
 20
283.152792
 30
0.0
 10
422.332083
 20
282.583320
 30
0.0
  0
LWPOLYLINE
  5
2e9
100
AcDbEntity
  8
Layer_1
 62
7
100
AcDbPolyline
 90
2
 70
0
 10
403.295462
 20
274.346321
 30
0.0
 10
403.295462
 20
277.763150
 30
0.0
  0
SPLINE
  5
2ea
100
AcDbEntity
  8
Layer_1
 62
7
100
AcDbSpline
 70
8
 71
3
 72
8
 73
4
 74
0
 40
0
 40
0
 40
0
 40
0
 40
1
 40
1
 40
1
 40
1
 10
419.098298
 20
287.281461
 30
0.0
 10
419.830476
 20
287.810256
 30
0.0
 10
420.888066
 20
288.298374
 30
0.0
 10
422.271069
 20
288.745816
 30
0.0
  0
SPLINE
  5
2eb
100
AcDbEntity
  8
Layer_1
 62
7
100
AcDbSpline
 70
8
 71
3
 72
8
 73
4
 74
0
 40
0
 40
0
 40
0
 40
0
 40
1
 40
1
 40
1
 40
1
 10
422.271069
 20
288.745816
 30
0.0
 10
423.694748
 20
289.233935
 30
0.0
 10
425.281133
 20
289.661039
 30
0.0
 10
427.030224
 20
290.027127
 30
0.0
  0
SPLINE
  5
2ec
100
AcDbEntity
  8
Layer_1
 62
7
100
AcDbSpline
 70
8
 71
3
 72
8
 73
4
 74
0
 40
0
 40
0
 40
0
 40
0
 40
1
 40
1
 40
1
 40
1
 10
427.030224
 20
290.027127
 30
0.0
 10
428.779315
 20
290.393216
 30
0.0
 10
430.630098
 20
290.677952
 30
0.0
 10
432.582572
 20
290.881335
 30
0.0
  0
SPLINE
  5
2ed
100
AcDbEntity
  8
Layer_1
 62
7
100
AcDbSpline
 70
8
 71
3
 72
8
 73
4
 74
0
 40
0
 40
0
 40
0
 40
0
 40
1
 40
1
 40
1
 40
1
 10
432.582572
 20
290.881335
 30
0.0
 10
434.535046
 20
291.084717
 30
0.0
 10
436.426505
 20
291.186409
 30
0.0
 10
438.256949
 20
291.186409
 30
0.0
  0
SPLINE
  5
2ee
100
AcDbEntity
  8
Layer_1
 62
7
100
AcDbSpline
 70
8
 71
3
 72
8
 73
4
 74
0
 40
0
 40
0
 40
0
 40
0
 40
1
 40
1
 40
1
 40
1
 10
438.256949
 20
291.186409
 30
0.0
 10
444.683843
 20
291.186409
 30
0.0
 10
449.036233
 20
290.271187
 30
0.0
 10
451.314119
 20
288.440742
 30
0.0
  0
SPLINE
  5
2ef
100
AcDbEntity
  8
Layer_1
 62
7
100
AcDbSpline
 70
8
 71
3
 72
8
 73
4
 74
0
 40
0
 40
0
 40
0
 40
0
 40
1
 40
1
 40
1
 40
1
 10
451.314119
 20
288.440742
 30
0.0
 10
451.639532
 20
289.010214
 30
0.0
 10
451.802238
 20
289.620362
 30
0.0
 10
451.802238
 20
290.271187
 30
0.0
  0
SPLINE
  5
2f0
100
AcDbEntity
  8
Layer_1
 62
7
100
AcDbSpline
 70
8
 71
3
 72
8
 73
4
 74
0
 40
0
 40
0
 40
0
 40
0
 40
1
 40
1
 40
1
 40
1
 10
451.802238
 20
290.271187
 30
0.0
 10
451.802238
 20
291.044041
 30
0.0
 10
451.680208
 20
291.715204
 30
0.0
 10
451.436149
 20
292.284675
 30
0.0
  0
SPLINE
  5
2f1
100
AcDbEntity
  8
Layer_1
 62
7
100
AcDbSpline
 70
8
 71
3
 72
8
 73
4
 74
0
 40
0
 40
0
 40
0
 40
0
 40
1
 40
1
 40
1
 40
1
 10
451.436149
 20
292.284675
 30
0.0
 10
451.192090
 20
292.854147
 30
0.0
 10
450.581942
 20
293.321927
 30
0.0
 10
449.605705
 20
293.688016
 30
0.0
  0
SPLINE
  5
2f2
100
AcDbEntity
  8
Layer_1
 62
7
100
AcDbSpline
 70
8
 71
3
 72
8
 73
4
 74
0
 40
0
 40
0
 40
0
 40
0
 40
1
 40
1
 40
1
 40
1
 10
449.605705
 20
293.688016
 30
0.0
 10
448.670144
 20
294.094782
 30
0.0
 10
447.226127
 20
294.379517
 30
0.0
 10
445.273653
 20
294.542224
 30
0.0
  0
SPLINE
  5
2f3
100
AcDbEntity
  8
Layer_1
 62
7
100
AcDbSpline
 70
8
 71
3
 72
8
 73
4
 74
0
 40
0
 40
0
 40
0
 40
0
 40
1
 40
1
 40
1
 40
1
 10
445.273653
 20
294.542224
 30
0.0
 10
443.361855
 20
294.745606
 30
0.0
 10
440.717880
 20
294.847298
 30
0.0
 10
437.341727
 20
294.847298
 30
0.0
  0
SPLINE
  5
2f4
100
AcDbEntity
  8
Layer_1
 62
7
100
AcDbSpline
 70
8
 71
3
 72
8
 73
4
 74
0
 40
0
 40
0
 40
0
 40
0
 40
1
 40
1
 40
1
 40
1
 10
437.341727
 20
294.847298
 30
0.0
 10
436.690903
 20
294.847298
 30
0.0
 10
435.673989
 20
294.826959
 30
0.0
 10
434.290987
 20
294.786283
 30
0.0
  0
SPLINE
  5
2f5
100
AcDbEntity
  8
Layer_1
 62
7
100
AcDbSpline
 70
8
 71
3
 72
8
 73
4
 74
0
 40
0
 40
0
 40
0
 40
0
 40
1
 40
1
 40
1
 40
1
 10
434.290987
 20
294.786283
 30
0.0
 10
432.907984
 20
294.745606
 30
0.0
 10
431.463967
 20
294.704930
 30
0.0
 10
429.958935
 20
294.664253
 30
0.0
  0
SPLINE
  5
2f6
100
AcDbEntity
  8
Layer_1
 62
7
100
AcDbSpline
 70
8
 71
3
 72
8
 73
4
 74
0
 40
0
 40
0
 40
0
 40
0
 40
1
 40
1
 40
1
 40
1
 10
429.958935
 20
294.664253
 30
0.0
 10
428.494579
 20
294.623577
 30
0.0
 10
427.111577
 20
294.582900
 30
0.0
 10
425.809928
 20
294.542224
 30
0.0
  0
SPLINE
  5
2f7
100
AcDbEntity
  8
Layer_1
 62
7
100
AcDbSpline
 70
8
 71
3
 72
8
 73
4
 74
0
 40
0
 40
0
 40
0
 40
0
 40
1
 40
1
 40
1
 40
1
 10
425.809928
 20
294.542224
 30
0.0
 10
424.548955
 20
294.501547
 30
0.0
 10
423.715086
 20
294.481209
 30
0.0
 10
423.308320
 20
294.481209
 30
0.0
  0
SPLINE
  5
2f8
100
AcDbEntity
  8
Layer_1
 62
7
100
AcDbSpline
 70
8
 71
3
 72
8
 73
4
 74
0
 40
0
 40
0
 40
0
 40
0
 40
1
 40
1
 40
1
 40
1
 10
423.308320
 20
294.481209
 30
0.0
 10
422.942232
 20
294.481209
 30
0.0
 10
422.494790
 20
294.501547
 30
0.0
 10
421.965995
 20
294.542224
 30
0.0
  0
SPLINE
  5
2f9
100
AcDbEntity
  8
Layer_1
 62
7
100
AcDbSpline
 70
8
 71
3
 72
8
 73
4
 74
0
 40
0
 40
0
 40
0
 40
0
 40
1
 40
1
 40
1
 40
1
 10
421.965995
 20
294.542224
 30
0.0
 10
421.477876
 20
294.582900
 30
0.0
 10
420.888066
 20
294.603238
 30
0.0
 10
420.196565
 20
294.603238
 30
0.0
  0
LWPOLYLINE
  5
2fa
100
AcDbEntity
  8
Layer_1
 62
7
100
AcDbPolyline
 90
2
 70
0
 10
422.332083
 20
282.583320
 30
0.0
 10
419.098298
 20
287.281461
 30
0.0
  0
SPLINE
  5
2fb
100
AcDbEntity
  8
Layer_1
 62
7
100
AcDbSpline
 70
8
 71
3
 72
8
 73
4
 74
0
 40
0
 40
0
 40
0
 40
0
 40
1
 40
1
 40
1
 40
1
 10
416.596691
 20
294.603238
 30
0.0
 10
415.457748
 20
294.603238
 30
0.0
 10
414.461173
 20
294.542224
 30
0.0
 10
413.606965
 20
294.420194
 30
0.0
  0
SPLINE
  5
2fc
100
AcDbEntity
  8
Layer_1
 62
7
100
AcDbSpline
 70
8
 71
3
 72
8
 73
4
 74
0
 40
0
 40
0
 40
0
 40
0
 40
1
 40
1
 40
1
 40
1
 10
413.606965
 20
294.420194
 30
0.0
 10
412.793434
 20
294.338841
 30
0.0
 10
412.101933
 20
294.074443
 30
0.0
 10
411.532462
 20
293.627001
 30
0.0
  0
SPLINE
  5
2fd
100
AcDbEntity
  8
Layer_1
 62
7
100
AcDbSpline
 70
8
 71
3
 72
8
 73
4
 74
0
 40
0
 40
0
 40
0
 40
0
 40
1
 40
1
 40
1
 40
1
 10
411.532462
 20
293.627001
 30
0.0
 10
410.962990
 20
293.220236
 30
0.0
 10
410.495210
 20
292.569411
 30
0.0
 10
410.129121
 20
291.674527
 30
0.0
  0
SPLINE
  5
2fe
100
AcDbEntity
  8
Layer_1
 62
7
100
AcDbSpline
 70
8
 71
3
 72
8
 73
4
 74
0
 40
0
 40
0
 40
0
 40
0
 40
1
 40
1
 40
1
 40
1
 10
410.129121
 20
291.674527
 30
0.0
 10
409.803709
 20
290.820320
 30
0.0
 10
409.539311
 20
289.620362
 30
0.0
 10
409.335928
 20
288.074653
 30
0.0
  0
SPLINE
  5
2ff
100
AcDbEntity
  8
Layer_1
 62
7
100
AcDbSpline
 70
8
 71
3
 72
8
 73
4
 74
0
 40
0
 40
0
 40
0
 40
0
 40
1
 40
1
 40
1
 40
1
 10
409.335928
 20
288.074653
 30
0.0
 10
409.132546
 20
286.528945
 30
0.0
 10
408.990178
 20
284.576471
 30
0.0
 10
408.908825
 20
282.217231
 30
0.0
  0
SPLINE
  5
300
100
AcDbEntity
  8
Layer_1
 62
7
100
AcDbSpline
 70
8
 71
3
 72
8
 73
4
 74
0
 40
0
 40
0
 40
0
 40
0
 40
1
 40
1
 40
1
 40
1
 10
408.908825
 20
282.217231
 30
0.0
 10
408.868148
 20
279.857992
 30
0.0
 10
408.847810
 20
276.990296
 30
0.0
 10
408.847810
 20
273.614143
 30
0.0
  0
SPLINE
  5
301
100
AcDbEntity
  8
Layer_1
 62
7
100
AcDbSpline
 70
8
 71
3
 72
8
 73
4
 74
0
 40
0
 40
0
 40
0
 40
0
 40
1
 40
1
 40
1
 40
1
 10
408.847810
 20
273.614143
 30
0.0
 10
408.847810
 20
269.424459
 30
0.0
 10
409.376605
 20
266.292365
 30
0.0
 10
410.434195
 20
264.217862
 30
0.0
  0
SPLINE
  5
302
100
AcDbEntity
  8
Layer_1
 62
7
100
AcDbSpline
 70
8
 71
3
 72
8
 73
4
 74
0
 40
0
 40
0
 40
0
 40
0
 40
1
 40
1
 40
1
 40
1
 10
410.434195
 20
264.217862
 30
0.0
 10
411.532462
 20
262.143358
 30
0.0
 10
413.179862
 20
260.943400
 30
0.0
 10
415.376395
 20
260.617988
 30
0.0
  0
SPLINE
  5
303
100
AcDbEntity
  8
Layer_1
 62
7
100
AcDbSpline
 70
8
 71
3
 72
8
 73
4
 74
0
 40
0
 40
0
 40
0
 40
0
 40
1
 40
1
 40
1
 40
1
 10
415.376395
 20
260.617988
 30
0.0
 10
418.549165
 20
260.089193
 30
0.0
 10
422.332083
 20
259.702766
 30
0.0
 10
426.725150
 20
259.458706
 30
0.0
  0
SPLINE
  5
304
100
AcDbEntity
  8
Layer_1
 62
7
100
AcDbSpline
 70
8
 71
3
 72
8
 73
4
 74
0
 40
0
 40
0
 40
0
 40
0
 40
1
 40
1
 40
1
 40
1
 10
426.725150
 20
259.458706
 30
0.0
 10
431.118216
 20
259.255324
 30
0.0
 10
436.304475
 20
259.153632
 30
0.0
 10
442.283927
 20
259.153632
 30
0.0
  0
SPLINE
  5
305
100
AcDbEntity
  8
Layer_1
 62
7
100
AcDbSpline
 70
8
 71
3
 72
8
 73
4
 74
0
 40
0
 40
0
 40
0
 40
0
 40
1
 40
1
 40
1
 40
1
 10
442.283927
 20
259.153632
 30
0.0
 10
449.402322
 20
259.153632
 30
0.0
 10
452.961519
 20
261.004415
 30
0.0
 10
452.961519
 20
264.705980
 30
0.0
  0
SPLINE
  5
306
100
AcDbEntity
  8
Layer_1
 62
7
100
AcDbSpline
 70
8
 71
3
 72
8
 73
4
 74
0
 40
0
 40
0
 40
0
 40
0
 40
1
 40
1
 40
1
 40
1
 10
452.961519
 20
264.705980
 30
0.0
 10
452.961519
 20
269.831224
 30
0.0
 10
448.792174
 20
272.393847
 30
0.0
 10
440.453483
 20
272.393847
 30
0.0
  0
SPLINE
  5
307
100
AcDbEntity
  8
Layer_1
 62
7
100
AcDbSpline
 70
8
 71
3
 72
8
 73
4
 74
0
 40
0
 40
0
 40
0
 40
0
 40
1
 40
1
 40
1
 40
1
 10
440.453483
 20
272.393847
 30
0.0
 10
438.012890
 20
272.393847
 30
0.0
 10
435.714666
 20
272.210802
 30
0.0
 10
433.558809
 20
271.844713
 30
0.0
  0
SPLINE
  5
308
100
AcDbEntity
  8
Layer_1
 62
7
100
AcDbSpline
 70
8
 71
3
 72
8
 73
4
 74
0
 40
0
 40
0
 40
0
 40
0
 40
1
 40
1
 40
1
 40
1
 10
433.558809
 20
271.844713
 30
0.0
 10
431.402952
 20
271.519301
 30
0.0
 10
429.389463
 20
270.990506
 30
0.0
 10
427.518342
 20
270.258328
 30
0.0
  0
LWPOLYLINE
  5
309
100
AcDbEntity
  8
Layer_1
 62
7
100
AcDbPolyline
 90
2
 70
0
 10
420.196565
 20
294.603238
 30
0.0
 10
416.596691
 20
294.603238
 30
0.0
  0
SPLINE
  5
30a
100
AcDbEntity
  8
Layer_1
 62
7
100
AcDbSpline
 70
8
 71
3
 72
8
 73
4
 74
0
 40
0
 40
0
 40
0
 40
0
 40
1
 40
1
 40
1
 40
1
 10
425.504854
 20
275.627632
 30
0.0
 10
430.182656
 20
277.295370
 30
0.0
 10
434.982488
 20
278.129239
 30
0.0
 10
439.904349
 20
278.129239
 30
0.0
  0
SPLINE
  5
30b
100
AcDbEntity
  8
Layer_1
 62
7
100
AcDbSpline
 70
8
 71
3
 72
8
 73
4
 74
0
 40
0
 40
0
 40
0
 40
0
 40
1
 40
1
 40
1
 40
1
 10
439.904349
 20
278.129239
 30
0.0
 10
442.711031
 20
278.129239
 30
0.0
 10
445.395683
 20
277.783488
 30
0.0
 10
447.958305
 20
277.091987
 30
0.0
  0
SPLINE
  5
30c
100
AcDbEntity
  8
Layer_1
 62
7
100
AcDbSpline
 70
8
 71
3
 72
8
 73
4
 74
0
 40
0
 40
0
 40
0
 40
0
 40
1
 40
1
 40
1
 40
1
 10
447.958305
 20
277.091987
 30
0.0
 10
448.731159
 20
277.742812
 30
0.0
 10
449.117586
 20
278.515666
 30
0.0
 10
449.117586
 20
279.410550
 30
0.0
  0
SPLINE
  5
30d
100
AcDbEntity
  8
Layer_1
 62
7
100
AcDbSpline
 70
8
 71
3
 72
8
 73
4
 74
0
 40
0
 40
0
 40
0
 40
0
 40
1
 40
1
 40
1
 40
1
 10
449.117586
 20
279.410550
 30
0.0
 10
449.117586
 20
281.485054
 30
0.0
 10
448.507438
 20
282.990086
 30
0.0
 10
447.287142
 20
283.925646
 30
0.0
  0
SPLINE
  5
30e
100
AcDbEntity
  8
Layer_1
 62
7
100
AcDbSpline
 70
8
 71
3
 72
8
 73
4
 74
0
 40
0
 40
0
 40
0
 40
0
 40
1
 40
1
 40
1
 40
1
 10
447.287142
 20
283.925646
 30
0.0
 10
446.066845
 20
284.861207
 30
0.0
 10
444.216063
 20
285.328987
 30
0.0
 10
441.734794
 20
285.328987
 30
0.0
  0
SPLINE
  5
30f
100
AcDbEntity
  8
Layer_1
 62
7
100
AcDbSpline
 70
8
 71
3
 72
8
 73
4
 74
0
 40
0
 40
0
 40
0
 40
0
 40
1
 40
1
 40
1
 40
1
 10
441.734794
 20
285.328987
 30
0.0
 10
441.531411
 20
285.328987
 30
0.0
 10
441.307690
 20
285.308649
 30
0.0
 10
441.063631
 20
285.267972
 30
0.0
  0
LWPOLYLINE
  5
310
100
AcDbEntity
  8
Layer_1
 62
7
100
AcDbPolyline
 90
2
 70
0
 10
427.518342
 20
270.258328
 30
0.0
 10
425.504854
 20
275.627632
 30
0.0
  0
SPLINE
  5
311
100
AcDbEntity
  8
Layer_1
 62
7
100
AcDbSpline
 70
8
 71
3
 72
8
 73
4
 74
0
 40
0
 40
0
 40
0
 40
0
 40
1
 40
1
 40
1
 40
1
 10
461.272883
 20
269.465136
 30
0.0
 10
461.272883
 20
269.627842
 30
0.0
 10
461.252544
 20
269.790548
 30
0.0
 10
461.211868
 20
269.953254
 30
0.0
  0
LWPOLYLINE
  5
312
100
AcDbEntity
  8
Layer_1
 62
7
100
AcDbPolyline
 90
3
 70
0
 10
441.063631
 20
285.267972
 30
0.0
 10
440.209423
 20
285.267972
 30
0.0
 10
438.317964
 20
285.267972
 30
0.0
  0
SPLINE
  5
313
100
AcDbEntity
  8
Layer_1
 62
7
100
AcDbSpline
 70
8
 71
3
 72
8
 73
4
 74
0
 40
0
 40
0
 40
0
 40
0
 40
1
 40
1
 40
1
 40
1
 10
461.211868
 20
270.624417
 30
0.0
 10
461.211868
 20
271.234565
 30
0.0
 10
461.232206
 20
272.007419
 30
0.0
 10
461.272883
 20
272.942980
 30
0.0
  0
LWPOLYLINE
  5
314
100
AcDbEntity
  8
Layer_1
 62
7
100
AcDbPolyline
 90
2
 70
0
 10
461.211868
 20
269.953254
 30
0.0
 10
461.211868
 20
270.624417
 30
0.0
  0
SPLINE
  5
315
100
AcDbEntity
  8
Layer_1
 62
7
100
AcDbSpline
 70
8
 71
3
 72
8
 73
4
 74
0
 40
0
 40
0
 40
0
 40
0
 40
1
 40
1
 40
1
 40
1
 10
461.394912
 20
275.871691
 30
0.0
 10
461.476265
 20
276.888604
 30
0.0
 10
461.537280
 20
277.824165
 30
0.0
 10
461.577957
 20
278.678372
 30
0.0
  0
SPLINE
  5
316
100
AcDbEntity
  8
Layer_1
 62
7
100
AcDbSpline
 70
8
 71
3
 72
8
 73
4
 74
0
 40
0
 40
0
 40
0
 40
0
 40
1
 40
1
 40
1
 40
1
 10
461.577957
 20
278.678372
 30
0.0
 10
461.618633
 20
279.573256
 30
0.0
 10
461.638971
 20
280.244419
 30
0.0
 10
461.638971
 20
280.691861
 30
0.0
  0
SPLINE
  5
317
100
AcDbEntity
  8
Layer_1
 62
7
100
AcDbSpline
 70
8
 71
3
 72
8
 73
4
 74
0
 40
0
 40
0
 40
0
 40
0
 40
1
 40
1
 40
1
 40
1
 10
461.638971
 20
280.691861
 30
0.0
 10
461.638971
 20
283.498542
 30
0.0
 10
461.964384
 20
286.061165
 30
0.0
 10
462.615208
 20
288.379727
 30
0.0
  0
SPLINE
  5
318
100
AcDbEntity
  8
Layer_1
 62
7
100
AcDbSpline
 70
8
 71
3
 72
8
 73
4
 74
0
 40
0
 40
0
 40
0
 40
0
 40
1
 40
1
 40
1
 40
1
 10
462.615208
 20
288.379727
 30
0.0
 10
463.266033
 20
290.738967
 30
0.0
 10
464.160917
 20
292.772794
 30
0.0
 10
465.299860
 20
294.481209
 30
0.0
  0
SPLINE
  5
319
100
AcDbEntity
  8
Layer_1
 62
7
100
AcDbSpline
 70
8
 71
3
 72
8
 73
4
 74
0
 40
0
 40
0
 40
0
 40
0
 40
1
 40
1
 40
1
 40
1
 10
465.299860
 20
294.481209
 30
0.0
 10
466.479480
 20
296.189623
 30
0.0
 10
467.862482
 20
297.511611
 30
0.0
 10
469.448867
 20
298.447172
 30
0.0
  0
SPLINE
  5
31a
100
AcDbEntity
  8
Layer_1
 62
7
100
AcDbSpline
 70
8
 71
3
 72
8
 73
4
 74
0
 40
0
 40
0
 40
0
 40
0
 40
1
 40
1
 40
1
 40
1
 10
469.448867
 20
298.447172
 30
0.0
 10
471.035253
 20
299.382732
 30
0.0
 10
472.743667
 20
299.850512
 30
0.0
 10
474.574112
 20
299.850512
 30
0.0
  0
SPLINE
  5
31b
100
AcDbEntity
  8
Layer_1
 62
7
100
AcDbSpline
 70
8
 71
3
 72
8
 73
4
 74
0
 40
0
 40
0
 40
0
 40
0
 40
1
 40
1
 40
1
 40
1
 10
474.574112
 20
299.850512
 30
0.0
 10
476.282526
 20
299.850512
 30
0.0
 10
477.848573
 20
299.464085
 30
0.0
 10
479.272252
 20
298.691231
 30
0.0
  0
SPLINE
  5
31c
100
AcDbEntity
  8
Layer_1
 62
7
100
AcDbSpline
 70
8
 71
3
 72
8
 73
4
 74
0
 40
0
 40
0
 40
0
 40
0
 40
1
 40
1
 40
1
 40
1
 10
479.272252
 20
298.691231
 30
0.0
 10
480.695931
 20
297.918377
 30
0.0
 10
481.895889
 20
296.840448
 30
0.0
 10
482.872126
 20
295.457446
 30
0.0
  0
SPLINE
  5
31d
100
AcDbEntity
  8
Layer_1
 62
7
100
AcDbSpline
 70
8
 71
3
 72
8
 73
4
 74
0
 40
0
 40
0
 40
0
 40
0
 40
1
 40
1
 40
1
 40
1
 10
482.872126
 20
295.457446
 30
0.0
 10
483.889040
 20
294.115120
 30
0.0
 10
484.682232
 20
292.528735
 30
0.0
 10
485.251704
 20
290.698290
 30
0.0
  0
SPLINE
  5
31e
100
AcDbEntity
  8
Layer_1
 62
7
100
AcDbSpline
 70
8
 71
3
 72
8
 73
4
 74
0
 40
0
 40
0
 40
0
 40
0
 40
1
 40
1
 40
1
 40
1
 10
485.251704
 20
290.698290
 30
0.0
 10
485.821175
 20
288.867846
 30
0.0
 10
486.105911
 20
286.895034
 30
0.0
 10
486.105911
 20
284.779854
 30
0.0
  0
SPLINE
  5
31f
100
AcDbEntity
  8
Layer_1
 62
7
100
AcDbSpline
 70
8
 71
3
 72
8
 73
4
 74
0
 40
0
 40
0
 40
0
 40
0
 40
1
 40
1
 40
1
 40
1
 10
486.105911
 20
284.779854
 30
0.0
 10
486.105911
 20
281.769789
 30
0.0
 10
485.922867
 20
278.597019
 30
0.0
 10
485.556778
 20
275.261543
 30
0.0
  0
SPLINE
  5
320
100
AcDbEntity
  8
Layer_1
 62
7
100
AcDbSpline
 70
8
 71
3
 72
8
 73
4
 74
0
 40
0
 40
0
 40
0
 40
0
 40
1
 40
1
 40
1
 40
1
 10
485.556778
 20
275.261543
 30
0.0
 10
490.112551
 20
275.505602
 30
0.0
 10
493.244644
 20
275.627632
 30
0.0
 10
494.953059
 20
275.627632
 30
0.0
  0
SPLINE
  5
321
100
AcDbEntity
  8
Layer_1
 62
7
100
AcDbSpline
 70
8
 71
3
 72
8
 73
4
 74
0
 40
0
 40
0
 40
0
 40
0
 40
1
 40
1
 40
1
 40
1
 10
494.953059
 20
275.627632
 30
0.0
 10
511.264352
 20
275.627632
 30
0.0
 10
519.419999
 20
272.068434
 30
0.0
 10
519.419999
 20
264.950039
 30
0.0
  0
SPLINE
  5
322
100
AcDbEntity
  8
Layer_1
 62
7
100
AcDbSpline
 70
8
 71
3
 72
8
 73
4
 74
0
 40
0
 40
0
 40
0
 40
0
 40
1
 40
1
 40
1
 40
1
 10
519.419999
 20
264.950039
 30
0.0
 10
519.419999
 20
258.767205
 30
0.0
 10
515.637081
 20
254.740227
 30
0.0
 10
508.071244
 20
252.869107
 30
0.0
  0
SPLINE
  5
323
100
AcDbEntity
  8
Layer_1
 62
7
100
AcDbSpline
 70
8
 71
3
 72
8
 73
4
 74
0
 40
0
 40
0
 40
0
 40
0
 40
1
 40
1
 40
1
 40
1
 10
508.071244
 20
252.869107
 30
0.0
 10
505.508622
 20
252.218282
 30
0.0
 10
501.949424
 20
251.811516
 30
0.0
 10
497.393652
 20
251.648810
 30
0.0
  0
SPLINE
  5
324
100
AcDbEntity
  8
Layer_1
 62
7
100
AcDbSpline
 70
8
 71
3
 72
8
 73
4
 74
0
 40
0
 40
0
 40
0
 40
0
 40
1
 40
1
 40
1
 40
1
 10
497.393652
 20
251.648810
 30
0.0
 10
492.837879
 20
251.445428
 30
0.0
 10
487.061810
 20
251.343736
 30
0.0
 10
480.065445
 20
251.343736
 30
0.0
  0
SPLINE
  5
325
100
AcDbEntity
  8
Layer_1
 62
7
100
AcDbSpline
 70
8
 71
3
 72
8
 73
4
 74
0
 40
0
 40
0
 40
0
 40
0
 40
1
 40
1
 40
1
 40
1
 10
480.065445
 20
251.343736
 30
0.0
 10
476.567262
 20
251.343736
 30
0.0
 10
473.618213
 20
251.648810
 30
0.0
 10
471.218297
 20
252.258958
 30
0.0
  0
SPLINE
  5
326
100
AcDbEntity
  8
Layer_1
 62
7
100
AcDbSpline
 70
8
 71
3
 72
8
 73
4
 74
0
 40
0
 40
0
 40
0
 40
0
 40
1
 40
1
 40
1
 40
1
 10
471.218297
 20
252.258958
 30
0.0
 10
468.818381
 20
252.869107
 30
0.0
 10
466.886245
 20
253.865682
 30
0.0
 10
465.421890
 20
255.248684
 30
0.0
  0
SPLINE
  5
327
100
AcDbEntity
  8
Layer_1
 62
7
100
AcDbSpline
 70
8
 71
3
 72
8
 73
4
 74
0
 40
0
 40
0
 40
0
 40
0
 40
1
 40
1
 40
1
 40
1
 10
465.421890
 20
255.248684
 30
0.0
 10
463.957534
 20
256.631687
 30
0.0
 10
462.899944
 20
258.441793
 30
0.0
 10
462.249120
 20
260.679003
 30
0.0
  0
SPLINE
  5
328
100
AcDbEntity
  8
Layer_1
 62
7
100
AcDbSpline
 70
8
 71
3
 72
8
 73
4
 74
0
 40
0
 40
0
 40
0
 40
0
 40
1
 40
1
 40
1
 40
1
 10
462.249120
 20
260.679003
 30
0.0
 10
461.598295
 20
262.956889
 30
0.0
 10
461.272883
 20
265.743232
 30
0.0
 10
461.272883
 20
269.038032
 30
0.0
  0
LWPOLYLINE
  5
329
100
AcDbEntity
  8
Layer_1
 62
7
100
AcDbPolyline
 90
2
 70
0
 10
461.272883
 20
272.942980
 30
0.0
 10
461.394912
 20
275.871691
 30
0.0
  0
SPLINE
  5
32a
100
AcDbEntity
  8
Layer_1
 62
7
100
AcDbSpline
 70
8
 71
3
 72
8
 73
4
 74
0
 40
0
 40
0
 40
0
 40
0
 40
1
 40
1
 40
1
 40
1
 10
492.085363
 20
257.140143
 30
0.0
 10
492.492128
 20
257.140143
 30
0.0
 10
492.858217
 20
257.119805
 30
0.0
 10
493.183630
 20
257.079129
 30
0.0
  0
SPLINE
  5
32b
100
AcDbEntity
  8
Layer_1
 62
7
100
AcDbSpline
 70
8
 71
3
 72
8
 73
4
 74
0
 40
0
 40
0
 40
0
 40
0
 40
1
 40
1
 40
1
 40
1
 10
493.183630
 20
257.079129
 30
0.0
 10
493.509042
 20
257.038452
 30
0.0
 10
493.814116
 20
257.018114
 30
0.0
 10
494.098852
 20
257.018114
 30
0.0
  0
SPLINE
  5
32c
100
AcDbEntity
  8
Layer_1
 62
7
100
AcDbSpline
 70
8
 71
3
 72
8
 73
4
 74
0
 40
0
 40
0
 40
0
 40
0
 40
1
 40
1
 40
1
 40
1
 10
494.098852
 20
257.018114
 30
0.0
 10
507.237375
 20
257.018114
 30
0.0
 10
513.806636
 20
259.662089
 30
0.0
 10
513.806636
 20
264.950039
 30
0.0
  0
SPLINE
  5
32d
100
AcDbEntity
  8
Layer_1
 62
7
100
AcDbSpline
 70
8
 71
3
 72
8
 73
4
 74
0
 40
0
 40
0
 40
0
 40
0
 40
1
 40
1
 40
1
 40
1
 10
513.806636
 20
264.950039
 30
0.0
 10
513.806636
 20
268.285516
 30
0.0
 10
507.278051
 20
269.953254
 30
0.0
 10
494.220881
 20
269.953254
 30
0.0
  0
SPLINE
  5
32e
100
AcDbEntity
  8
Layer_1
 62
7
100
AcDbSpline
 70
8
 71
3
 72
8
 73
4
 74
0
 40
0
 40
0
 40
0
 40
0
 40
1
 40
1
 40
1
 40
1
 10
494.220881
 20
269.953254
 30
0.0
 10
493.366674
 20
269.953254
 30
0.0
 10
492.166716
 20
269.932916
 30
0.0
 10
490.621007
 20
269.892239
 30
0.0
  0
SPLINE
  5
32f
100
AcDbEntity
  8
Layer_1
 62
7
100
AcDbSpline
 70
8
 71
3
 72
8
 73
4
 74
0
 40
0
 40
0
 40
0
 40
0
 40
1
 40
1
 40
1
 40
1
 10
490.621007
 20
269.892239
 30
0.0
 10
489.075299
 20
269.851563
 30
0.0
 10
487.143163
 20
269.770210
 30
0.0
 10
484.824600
 20
269.648180
 30
0.0
  0
SPLINE
  5
330
100
AcDbEntity
  8
Layer_1
 62
7
100
AcDbSpline
 70
8
 71
3
 72
8
 73
4
 74
0
 40
0
 40
0
 40
0
 40
0
 40
1
 40
1
 40
1
 40
1
 10
484.824600
 20
269.648180
 30
0.0
 10
484.621217
 20
268.305854
 30
0.0
 10
484.377158
 20
267.024543
 30
0.0
 10
484.092422
 20
265.804247
 30
0.0
  0
SPLINE
  5
331
100
AcDbEntity
  8
Layer_1
 62
7
100
AcDbSpline
 70
8
 71
3
 72
8
 73
4
 74
0
 40
0
 40
0
 40
0
 40
0
 40
1
 40
1
 40
1
 40
1
 10
484.092422
 20
265.804247
 30
0.0
 10
483.848363
 20
264.583951
 30
0.0
 10
483.563627
 20
263.424669
 30
0.0
 10
483.238215
 20
262.326402
 30
0.0
  0
LWPOLYLINE
  5
332
100
AcDbEntity
  8
Layer_1
 62
7
100
AcDbPolyline
 90
2
 70
0
 10
461.272883
 20
269.038032
 30
0.0
 10
461.272883
 20
269.465136
 30
0.0
  0
SPLINE
  5
333
100
AcDbEntity
  8
Layer_1
 62
7
100
AcDbSpline
 70
8
 71
3
 72
8
 73
4
 74
0
 40
0
 40
0
 40
0
 40
0
 40
1
 40
1
 40
1
 40
1
 10
477.746882
 20
263.729743
 30
0.0
 10
478.641766
 20
267.187249
 30
0.0
 10
479.312929
 20
270.441373
 30
0.0
 10
479.760371
 20
273.492113
 30
0.0
  0
SPLINE
  5
334
100
AcDbEntity
  8
Layer_1
 62
7
100
AcDbSpline
 70
8
 71
3
 72
8
 73
4
 74
0
 40
0
 40
0
 40
0
 40
0
 40
1
 40
1
 40
1
 40
1
 10
479.760371
 20
273.492113
 30
0.0
 10
480.207813
 20
276.583530
 30
0.0
 10
480.431534
 20
279.613933
 30
0.0
 10
480.431534
 20
282.583320
 30
0.0
  0
SPLINE
  5
335
100
AcDbEntity
  8
Layer_1
 62
7
100
AcDbSpline
 70
8
 71
3
 72
8
 73
4
 74
0
 40
0
 40
0
 40
0
 40
0
 40
1
 40
1
 40
1
 40
1
 10
480.431534
 20
282.583320
 30
0.0
 10
480.431534
 20
290.230510
 30
0.0
 10
478.438383
 20
294.054105
 30
0.0
 10
474.452082
 20
294.054105
 30
0.0
  0
SPLINE
  5
336
100
AcDbEntity
  8
Layer_1
 62
7
100
AcDbSpline
 70
8
 71
3
 72
8
 73
4
 74
0
 40
0
 40
0
 40
0
 40
0
 40
1
 40
1
 40
1
 40
1
 10
474.452082
 20
294.054105
 30
0.0
 10
473.353815
 20
294.054105
 30
0.0
 10
472.357240
 20
293.688016
 30
0.0
 10
471.462356
 20
292.955838
 30
0.0
  0
SPLINE
  5
337
100
AcDbEntity
  8
Layer_1
 62
7
100
AcDbSpline
 70
8
 71
3
 72
8
 73
4
 74
0
 40
0
 40
0
 40
0
 40
0
 40
1
 40
1
 40
1
 40
1
 10
471.462356
 20
292.955838
 30
0.0
 10
470.608149
 20
292.223661
 30
0.0
 10
469.855633
 20
291.247424
 30
0.0
 10
469.204808
 20
290.027127
 30
0.0
  0
SPLINE
  5
338
100
AcDbEntity
  8
Layer_1
 62
7
100
AcDbSpline
 70
8
 71
3
 72
8
 73
4
 74
0
 40
0
 40
0
 40
0
 40
0
 40
1
 40
1
 40
1
 40
1
 10
469.204808
 20
290.027127
 30
0.0
 10
468.594660
 20
288.806831
 30
0.0
 10
468.106542
 20
287.383152
 30
0.0
 10
467.740453
 20
285.756091
 30
0.0
  0
SPLINE
  5
339
100
AcDbEntity
  8
Layer_1
 62
7
100
AcDbSpline
 70
8
 71
3
 72
8
 73
4
 74
0
 40
0
 40
0
 40
0
 40
0
 40
1
 40
1
 40
1
 40
1
 10
467.740453
 20
285.756091
 30
0.0
 10
467.415040
 20
284.129029
 30
0.0
 10
467.252334
 20
282.440952
 30
0.0
 10
467.252334
 20
280.691861
 30
0.0
  0
SPLINE
  5
33a
100
AcDbEntity
  8
Layer_1
 62
7
100
AcDbSpline
 70
8
 71
3
 72
8
 73
4
 74
0
 40
0
 40
0
 40
0
 40
0
 40
1
 40
1
 40
1
 40
1
 10
467.252334
 20
280.691861
 30
0.0
 10
467.252334
 20
280.122390
 30
0.0
 10
467.211658
 20
279.268182
 30
0.0
 10
467.130305
 20
278.129239
 30
0.0
  0
SPLINE
  5
33b
100
AcDbEntity
  8
Layer_1
 62
7
100
AcDbSpline
 70
8
 71
3
 72
8
 73
4
 74
0
 40
0
 40
0
 40
0
 40
0
 40
1
 40
1
 40
1
 40
1
 10
467.130305
 20
278.129239
 30
0.0
 10
467.089628
 20
277.030972
 30
0.0
 10
467.008275
 20
275.851353
 30
0.0
 10
466.886245
 20
274.590380
 30
0.0
  0
SPLINE
  5
33c
100
AcDbEntity
  8
Layer_1
 62
7
100
AcDbSpline
 70
8
 71
3
 72
8
 73
4
 74
0
 40
0
 40
0
 40
0
 40
0
 40
1
 40
1
 40
1
 40
1
 10
466.886245
 20
274.590380
 30
0.0
 10
466.804892
 20
273.370084
 30
0.0
 10
466.723539
 20
272.190464
 30
0.0
 10
466.642186
 20
271.051521
 30
0.0
  0
SPLINE
  5
33d
100
AcDbEntity
  8
Layer_1
 62
7
100
AcDbSpline
 70
8
 71
3
 72
8
 73
4
 74
0
 40
0
 40
0
 40
0
 40
0
 40
1
 40
1
 40
1
 40
1
 10
466.642186
 20
271.051521
 30
0.0
 10
466.601509
 20
269.953254
 30
0.0
 10
466.581171
 20
269.139723
 30
0.0
 10
466.581171
 20
268.610928
 30
0.0
  0
SPLINE
  5
33e
100
AcDbEntity
  8
Layer_1
 62
7
100
AcDbSpline
 70
8
 71
3
 72
8
 73
4
 74
0
 40
0
 40
0
 40
0
 40
0
 40
1
 40
1
 40
1
 40
1
 10
466.581171
 20
268.610928
 30
0.0
 10
466.581171
 20
264.461921
 30
0.0
 10
467.618423
 20
261.472195
 30
0.0
 10
469.692927
 20
259.641751
 30
0.0
  0
SPLINE
  5
33f
100
AcDbEntity
  8
Layer_1
 62
7
100
AcDbSpline
 70
8
 71
3
 72
8
 73
4
 74
0
 40
0
 40
0
 40
0
 40
0
 40
1
 40
1
 40
1
 40
1
 10
469.692927
 20
259.641751
 30
0.0
 10
471.767430
 20
257.811306
 30
0.0
 10
475.184260
 20
256.896084
 30
0.0
 10
479.943415
 20
256.896084
 30
0.0
  0
LWPOLYLINE
  5
340
100
AcDbEntity
  8
Layer_1
 62
7
100
AcDbPolyline
 90
2
 70
0
 10
483.238215
 20
262.326402
 30
0.0
 10
477.746882
 20
263.729743
 30
0.0
  0
SPLINE
  5
341
100
AcDbEntity
  8
Layer_1
 62
7
100
AcDbSpline
 70
8
 71
3
 72
8
 73
4
 74
0
 40
0
 40
0
 40
0
 40
0
 40
1
 40
1
 40
1
 40
1
 10
482.017919
 20
256.896084
 30
0.0
 10
482.912803
 20
256.936761
 30
0.0
 10
483.848363
 20
256.977437
 30
0.0
 10
484.824600
 20
257.018114
 30
0.0
  0
SPLINE
  5
342
100
AcDbEntity
  8
Layer_1
 62
7
100
AcDbSpline
 70
8
 71
3
 72
8
 73
4
 74
0
 40
0
 40
0
 40
0
 40
0
 40
1
 40
1
 40
1
 40
1
 10
484.824600
 20
257.018114
 30
0.0
 10
485.800837
 20
257.058790
 30
0.0
 10
486.736398
 20
257.079129
 30
0.0
 10
487.631282
 20
257.079129
 30
0.0
  0
SPLINE
  5
343
100
AcDbEntity
  8
Layer_1
 62
7
100
AcDbSpline
 70
8
 71
3
 72
8
 73
4
 74
0
 40
0
 40
0
 40
0
 40
0
 40
1
 40
1
 40
1
 40
1
 10
487.631282
 20
257.079129
 30
0.0
 10
488.526165
 20
257.119805
 30
0.0
 10
489.197328
 20
257.140143
 30
0.0
 10
489.644770
 20
257.140143
 30
0.0
  0
LWPOLYLINE
  5
344
100
AcDbEntity
  8
Layer_1
 62
7
100
AcDbPolyline
 90
2
 70
0
 10
479.943415
 20
256.896084
 30
0.0
 10
482.017919
 20
256.896084
 30
0.0
  0
LWPOLYLINE
  5
345
100
AcDbEntity
  8
Layer_1
 62
7
100
AcDbPolyline
 90
2
 70
0
 10
489.644770
 20
257.140143
 30
0.0
 10
492.085363
 20
257.140143
 30
0.0
  0
ENDSEC
  0
SECTION
  2
OBJECTS
  0
DICTIONARY
  5
C
330
0
100
AcDbDictionary
  3
ACAD_GROUP
350
D
  3
ACAD_MLINESTYLE
350
17
  0
DICTIONARY
  5
D
330
C
100
AcDbDictionary
  0
DICTIONARY
  5
1A
330
C
100
AcDbDictionary
  0
DICTIONARY
  5
17
330
C
100
AcDbDictionary
  3
STANDARD
350
18
  0
DICTIONARY
  5
19
330
C
100
AcDbDictionary
  0
ENDSEC
  0
EOF
