  0
SECTION
  2
HEADER
  9
$ACADVER
  1
AC1014
  9
$HANDSEED
  5
FFFF
  9
$MEASUREMENT
 70
     1
  0
ENDSEC
  0
SECTION
  2
TABLES
  0
TABLE
  2
VPORT
  5
8
330
0
100
AcDbSymbolTable
 70
     4
  0
VPORT
  5
2E
330
8
100
AcDbSymbolTableRecord
100
AcDbViewportTableRecord
  2
*ACTIVE
 70
     0
 10
0.0
 20
0.0
 11
1.0
 21
1.0
 12
210.0
 22
148.5
 13
0.0
 23
0.0
 14
10.0
 24
10.0
 15
10.0
 25
10.0
 16
0.0
 26
0.0
 36
1.0
 17
0.0
 27
0.0
 37
0.0
 40
341.0
 41
1.24
 42
50.0
 43
0.0
 44
0.0
 50
0.0
 51
0.0
 71
     0
 72
   100
 73
     1
 74
     3
 75
     0
 76
     0
 77
     0
 78
     0
  0
ENDTAB
  0
TABLE
  2
LTYPE
  5
5
330
0
100
AcDbSymbolTable
 70
     1
  0
LTYPE
  5
14
330
5
100
AcDbSymbolTableRecord
100
AcDbLinetypeTableRecord
  2
BYBLOCK
 70
     0
  3

 72
    65
 73
     0
 40
0.0
  0
LTYPE
  5
15
330
5
100
AcDbSymbolTableRecord
100
AcDbLinetypeTableRecord
  2
BYLAYER
 70
     0
  3

 72
    65
 73
     0
 40
0.0
  0
LTYPE
  5
16
330
5
100
AcDbSymbolTableRecord
100
AcDbLinetypeTableRecord
  2
CONTINUOUS
 70
     0
  3
Solid line
 72
    65
 73
     0
 40
0.0
  0
ENDTAB
  0
TABLE
  2
LAYER
  5
2
100
AcDbSymbolTable
 70
1
  0
LAYER
  5
50
100
AcDbSymbolTableRecord
100
AcDbLayerTableRecord
  2
0
 70
0
  6
CONTINUOUS
  0
ENDTAB
  0
TABLE
  2
STYLE
  5
3
330
0
100
AcDbSymbolTable
 70
     1
  0
STYLE
  5
11
330
3
100
AcDbSymbolTableRecord
100
AcDbTextStyleTableRecord
  2
STANDARD
 70
     0
 40
0.0
 41
1.0
 50
0.0
 71
     0
 42
2.5
  3
txt
  4

  0
ENDTAB
  0
TABLE
  2
VIEW
  5
6
330
0
100
AcDbSymbolTable
 70
     0
  0
ENDTAB
  0
TABLE
  2
UCS
  5
7
330
0
100
AcDbSymbolTable
 70
     0
  0
ENDTAB
  0
TABLE
  2
APPID
  5
9
330
0
100
AcDbSymbolTable
 70
     2
  0
APPID
  5
12
330
9
100
AcDbSymbolTableRecord
100
AcDbRegAppTableRecord
  2
ACAD
 70
     0
  0
ENDTAB
  0
TABLE
  2
DIMSTYLE
  5
A
330
0
100
AcDbSymbolTable
 70
     1
  0
DIMSTYLE
105
27
330
A
100
AcDbSymbolTableRecord
100
AcDbDimStyleTableRecord
  2
ISO-25
 70
     0
  3

  4

  5

  6

  7

 40
1.0
 41
2.5
 42
0.625
 43
3.75
 44
1.25
 45
0.0
 46
0.0
 47
0.0
 48
0.0
140
2.5
141
2.5
142
0.0
143
0.03937007874016
144
1.0
145
0.0
146
1.0
147
0.625
 71
     0
 72
     0
 73
     0
 74
     0
 75
     0
 76
     0
 77
     1
 78
     8
170
     0
171
     3
172
     1
173
     0
174
     0
175
     0
176
     0
177
     0
178
     0
270
     2
271
     2
272
     2
273
     2
274
     3
340
11
275
     0
280
     0
281
     0
282
     0
283
     0
284
     8
285
     0
286
     0
287
     3
288
     0
  0
ENDTAB
  0
TABLE
  2
BLOCK_RECORD
  5
1
330
0
100
AcDbSymbolTable
 70
     1
  0
BLOCK_RECORD
  5
1F
330
1
100
AcDbSymbolTableRecord
100
AcDbBlockTableRecord
  2
*MODEL_SPACE
  0
BLOCK_RECORD
  5
1B
330
1
100
AcDbSymbolTableRecord
100
AcDbBlockTableRecord
  2
*PAPER_SPACE
  0
ENDTAB
  0
ENDSEC
  0
SECTION
  2
BLOCKS
  0
BLOCK
  5
20
330
1F
100
AcDbEntity
  8
0
100
AcDbBlockBegin
  2
*MODEL_SPACE
 70
     0
 10
0.0
 20
0.0
 30
0.0
  3
*MODEL_SPACE
  1

  0
ENDBLK
  5
21
330
1F
100
AcDbEntity
  8
0
100
AcDbBlockEnd
  0
BLOCK
  5
1C
330
1B
100
AcDbEntity
 67
     1
  8
0
100
AcDbBlockBegin
  2
*PAPER_SPACE
  1

  0
ENDBLK
  5
1D
330
1B
100
AcDbEntity
 67
     1
  8
0
100
AcDbBlockEnd
  0
ENDSEC
  0
SECTION
  2
ENTITIES
  0
SPLINE
  5
100
100
AcDbEntity
  8
0
 62
7
100
AcDbSpline
 70
8
 71
3
 72
8
 73
4
 74
0
 40
0
 40
0
 40
0
 40
0
 40
1
 40
1
 40
1
 40
1
 10
130.393517
 20
598.771624
 30
0.0
 10
232.330516
 20
598.771624
 30
0.0
 10
334.267512
 20
598.771624
 30
0.0
 10
436.204517
 20
598.771624
 30
0.0
  0
SPLINE
  5
101
100
AcDbEntity
  8
0
 62
7
100
AcDbSpline
 70
8
 71
3
 72
8
 73
4
 74
0
 40
0
 40
0
 40
0
 40
0
 40
1
 40
1
 40
1
 40
1
 10
436.204517
 20
598.771624
 30
0.0
 10
436.204517
 20
496.834625
 30
0.0
 10
436.204517
 20
394.897629
 30
0.0
 10
436.204517
 20
292.960630
 30
0.0
  0
SPLINE
  5
102
100
AcDbEntity
  8
0
 62
7
100
AcDbSpline
 70
8
 71
3
 72
8
 73
4
 74
0
 40
0
 40
0
 40
0
 40
0
 40
1
 40
1
 40
1
 40
1
 10
436.204517
 20
292.960630
 30
0.0
 10
334.267512
 20
292.960630
 30
0.0
 10
232.330516
 20
292.960630
 30
0.0
 10
130.393517
 20
292.960630
 30
0.0
  0
SPLINE
  5
103
100
AcDbEntity
  8
0
 62
7
100
AcDbSpline
 70
8
 71
3
 72
8
 73
4
 74
0
 40
0
 40
0
 40
0
 40
0
 40
1
 40
1
 40
1
 40
1
 10
130.393517
 20
292.960630
 30
0.0
 10
130.393517
 20
394.897629
 30
0.0
 10
130.393517
 20
496.834625
 30
0.0
 10
130.393517
 20
598.771624
 30
0.0
  0
SPLINE
  5
104
100
AcDbEntity
  8
0
 62
7
100
AcDbSpline
 70
8
 71
3
 72
8
 73
4
 74
0
 40
0
 40
0
 40
0
 40
0
 40
1
 40
1
 40
1
 40
1
 10
398.111783
 20
522.259843
 30
0.0
 10
420.368485
 20
522.259843
 30
0.0
 10
442.625187
 20
522.259843
 30
0.0
 10
464.881890
 20
522.259843
 30
0.0
  0
SPLINE
  5
105
100
AcDbEntity
  8
0
 62
7
100
AcDbSpline
 70
8
 71
3
 72
8
 73
4
 74
0
 40
0
 40
0
 40
0
 40
0
 40
1
 40
1
 40
1
 40
1
 10
102.047247
 20
522.259843
 30
0.0
 10
175.244505
 20
522.259843
 30
0.0
 10
248.441766
 20
522.259843
 30
0.0
 10
321.639024
 20
522.259843
 30
0.0
  0
SPLINE
  5
106
100
AcDbEntity
  8
0
 62
7
100
AcDbSpline
 70
8
 71
3
 72
8
 73
4
 74
0
 40
0
 40
0
 40
0
 40
0
 40
1
 40
1
 40
1
 40
1
 10
244.970748
 20
445.724410
 30
0.0
 10
318.274469
 20
445.724410
 30
0.0
 10
391.578180
 20
445.724410
 30
0.0
 10
464.881890
 20
445.724410
 30
0.0
  0
SPLINE
  5
107
100
AcDbEntity
  8
0
 62
7
100
AcDbSpline
 70
8
 71
3
 72
8
 73
4
 74
0
 40
0
 40
0
 40
0
 40
0
 40
1
 40
1
 40
1
 40
1
 10
102.047244
 20
445.724410
 30
0.0
 10
124.214794
 20
445.724410
 30
0.0
 10
146.382347
 20
445.724410
 30
0.0
 10
168.549897
 20
445.724410
 30
0.0
  0
SPLINE
  5
108
100
AcDbEntity
  8
0
 62
7
100
AcDbSpline
 70
8
 71
3
 72
8
 73
4
 74
0
 40
0
 40
0
 40
0
 40
0
 40
1
 40
1
 40
1
 40
1
 10
321.585279
 20
369.188977
 30
0.0
 10
369.350816
 20
369.188977
 30
0.0
 10
417.116353
 20
369.188977
 30
0.0
 10
464.881890
 20
369.188977
 30
0.0
  0
SPLINE
  5
109
100
AcDbEntity
  8
0
 62
7
100
AcDbSpline
 70
8
 71
3
 72
8
 73
4
 74
0
 40
0
 40
0
 40
0
 40
0
 40
1
 40
1
 40
1
 40
1
 10
102.047247
 20
369.188977
 30
0.0
 10
149.727609
 20
369.188977
 30
0.0
 10
197.407967
 20
369.188977
 30
0.0
 10
245.088329
 20
369.188977
 30
0.0
  0
SPLINE
  5
10a
100
AcDbEntity
  8
0
 62
7
100
AcDbSpline
 70
8
 71
3
 72
8
 73
4
 74
0
 40
0
 40
0
 40
0
 40
0
 40
1
 40
1
 40
1
 40
1
 10
283.464567
 20
329.670198
 30
0.0
 10
283.464567
 20
307.929742
 30
0.0
 10
283.464567
 20
286.189285
 30
0.0
 10
283.464567
 20
264.448828
 30
0.0
  0
SPLINE
  5
10b
100
AcDbEntity
  8
0
 62
7
100
AcDbSpline
 70
8
 71
3
 72
8
 73
4
 74
0
 40
0
 40
0
 40
0
 40
0
 40
1
 40
1
 40
1
 40
1
 10
283.464567
 20
627.283465
 30
0.0
 10
283.464567
 20
554.014715
 30
0.0
 10
283.464567
 20
480.745967
 30
0.0
 10
283.464567
 20
407.477217
 30
0.0
  0
SPLINE
  5
10c
100
AcDbEntity
  8
0
 62
7
100
AcDbSpline
 70
8
 71
3
 72
8
 73
4
 74
0
 40
0
 40
0
 40
0
 40
0
 40
1
 40
1
 40
1
 40
1
 10
360.141732
 20
482.772107
 30
0.0
 10
360.141732
 20
409.997682
 30
0.0
 10
360.141732
 20
337.223254
 30
0.0
 10
360.141732
 20
264.448828
 30
0.0
  0
SPLINE
  5
10d
100
AcDbEntity
  8
0
 62
7
100
AcDbSpline
 70
8
 71
3
 72
8
 73
4
 74
0
 40
0
 40
0
 40
0
 40
0
 40
1
 40
1
 40
1
 40
1
 10
360.141732
 20
627.283465
 30
0.0
 10
360.141732
 20
605.032863
 30
0.0
 10
360.141732
 20
582.782264
 30
0.0
 10
360.141732
 20
560.531665
 30
0.0
  0
SPLINE
  5
10e
100
AcDbEntity
  8
0
 62
7
100
AcDbSpline
 70
8
 71
3
 72
8
 73
4
 74
0
 40
0
 40
0
 40
0
 40
0
 40
1
 40
1
 40
1
 40
1
 10
207.070866
 20
407.789563
 30
0.0
 10
207.070866
 20
360.009326
 30
0.0
 10
207.070866
 20
312.229077
 30
0.0
 10
207.070866
 20
264.448828
 30
0.0
  0
SPLINE
  5
10f
100
AcDbEntity
  8
0
 62
7
100
AcDbSpline
 70
8
 71
3
 72
8
 73
4
 74
0
 40
0
 40
0
 40
0
 40
0
 40
1
 40
1
 40
1
 40
1
 10
207.070866
 20
627.283465
 30
0.0
 10
207.070866
 20
579.542170
 30
0.0
 10
207.070866
 20
531.800878
 30
0.0
 10
207.070866
 20
484.059583
 30
0.0
  0
SPLINE
  5
110
100
AcDbEntity
  8
0
 62
7
100
AcDbSpline
 70
8
 71
3
 72
8
 73
4
 74
0
 40
0
 40
0
 40
0
 40
0
 40
1
 40
1
 40
1
 40
1
 10
398.151865
 20
521.651186
 30
0.0
 10
398.977739
 20
498.519232
 30
0.0
 10
375.737556
 20
478.403527
 30
0.0
 10
352.944113
 20
483.419469
 30
0.0
  0
SPLINE
  5
111
100
AcDbEntity
  8
0
 62
7
100
AcDbSpline
 70
8
 71
3
 72
8
 73
4
 74
0
 40
0
 40
0
 40
0
 40
0
 40
1
 40
1
 40
1
 40
1
 10
352.944113
 20
483.419469
 30
0.0
 10
329.190321
 20
487.121990
 30
0.0
 10
314.650488
 20
515.555436
 30
0.0
 10
324.792879
 20
537.159033
 30
0.0
  0
SPLINE
  5
112
100
AcDbEntity
  8
0
 62
7
100
AcDbSpline
 70
8
 71
3
 72
8
 73
4
 74
0
 40
0
 40
0
 40
0
 40
0
 40
1
 40
1
 40
1
 40
1
 10
324.792879
 20
537.159033
 30
0.0
 10
333.008447
 20
558.449529
 30
0.0
 10
361.752208
 20
567.538682
 30
0.0
 10
380.530998
 20
554.383613
 30
0.0
  0
SPLINE
  5
113
100
AcDbEntity
  8
0
 62
7
100
AcDbSpline
 70
8
 71
3
 72
8
 73
4
 74
0
 40
0
 40
0
 40
0
 40
0
 40
1
 40
1
 40
1
 40
1
 10
380.530998
 20
554.383613
 30
0.0
 10
391.468479
 20
547.362054
 30
0.0
 10
398.238463
 20
534.624809
 30
0.0
 10
398.151865
 20
521.651186
 30
0.0
  0
SPLINE
  5
114
100
AcDbEntity
  8
0
 62
7
100
AcDbSpline
 70
8
 71
3
 72
8
 73
4
 74
0
 40
0
 40
0
 40
0
 40
0
 40
1
 40
1
 40
1
 40
1
 10
206.872302
 20
483.991943
 30
0.0
 10
182.045761
 20
485.321202
 30
0.0
 10
161.848154
 20
458.535197
 30
0.0
 10
170.325020
 20
435.055700
 30
0.0
  0
SPLINE
  5
115
100
AcDbEntity
  8
0
 62
7
100
AcDbSpline
 70
8
 71
3
 72
8
 73
4
 74
0
 40
0
 40
0
 40
0
 40
0
 40
1
 40
1
 40
1
 40
1
 10
170.325020
 20
435.055700
 30
0.0
 10
177.183187
 20
408.162008
 30
0.0
 10
214.740975
 20
398.541419
 30
0.0
 10
233.931776
 20
418.376381
 30
0.0
  0
SPLINE
  5
116
100
AcDbEntity
  8
0
 62
7
100
AcDbSpline
 70
8
 71
3
 72
8
 73
4
 74
0
 40
0
 40
0
 40
0
 40
0
 40
1
 40
1
 40
1
 40
1
 10
233.931776
 20
418.376381
 30
0.0
 10
258.306999
 20
441.014182
 30
0.0
 10
240.078654
 20
484.871190
 30
0.0
 10
206.872302
 20
483.991943
 30
0.0
  0
LWPOLYLINE
  5
117
100
AcDbEntity
  8
0
 62
7
100
AcDbPolyline
 90
1
 70
1
 10
398.151865
 20
521.651186
 30
0.0
  0
SPLINE
  5
118
100
AcDbEntity
  8
0
 62
7
100
AcDbSpline
 70
8
 71
3
 72
8
 73
4
 74
0
 40
0
 40
0
 40
0
 40
0
 40
1
 40
1
 40
1
 40
1
 10
321.658583
 20
368.580322
 30
0.0
 10
322.484457
 20
345.448375
 30
0.0
 10
299.244274
 20
325.332680
 30
0.0
 10
276.450831
 20
330.348614
 30
0.0
  0
SPLINE
  5
119
100
AcDbEntity
  8
0
 62
7
100
AcDbSpline
 70
8
 71
3
 72
8
 73
4
 74
0
 40
0
 40
0
 40
0
 40
0
 40
1
 40
1
 40
1
 40
1
 10
276.450831
 20
330.348614
 30
0.0
 10
252.697051
 20
334.051143
 30
0.0
 10
238.157218
 20
362.484595
 30
0.0
 10
248.299605
 20
384.088178
 30
0.0
  0
SPLINE
  5
11a
100
AcDbEntity
  8
0
 62
7
100
AcDbSpline
 70
8
 71
3
 72
8
 73
4
 74
0
 40
0
 40
0
 40
0
 40
0
 40
1
 40
1
 40
1
 40
1
 10
248.299605
 20
384.088178
 30
0.0
 10
256.515174
 20
405.378675
 30
0.0
 10
285.258926
 20
414.467827
 30
0.0
 10
304.037717
 20
401.312758
 30
0.0
  0
SPLINE
  5
11b
100
AcDbEntity
  8
0
 62
7
100
AcDbSpline
 70
8
 71
3
 72
8
 73
4
 74
0
 40
0
 40
0
 40
0
 40
0
 40
1
 40
1
 40
1
 40
1
 10
304.037717
 20
401.312758
 30
0.0
 10
314.975197
 20
394.291199
 30
0.0
 10
321.745181
 20
381.553948
 30
0.0
 10
321.658583
 20
368.580322
 30
0.0
  0
LWPOLYLINE
  5
11c
100
AcDbEntity
  8
0
 62
7
100
AcDbPolyline
 90
1
 70
1
 10
206.872302
 20
483.991943
 30
0.0
  0
LWPOLYLINE
  5
11d
100
AcDbEntity
  8
0
 62
7
100
AcDbPolyline
 90
1
 70
1
 10
321.658583
 20
368.580322
 30
0.0
  0
SPLINE
  5
11e
100
AcDbEntity
  8
0
 62
7
100
AcDbSpline
 70
8
 71
3
 72
8
 73
4
 74
0
 40
0
 40
0
 40
0
 40
0
 40
1
 40
1
 40
1
 40
1
 10
261.082093
 20
181.137412
 30
0.0
 10
261.082093
 20
169.231927
 30
0.0
 10
253.938802
 20
165.184062
 30
0.0
 10
242.271427
 20
165.184062
 30
0.0
  0
LWPOLYLINE
  5
11f
100
AcDbEntity
  8
0
 62
7
100
AcDbPolyline
 90
5
 70
0
 10
272.749469
 20
199.352804
 30
0.0
 10
216.912744
 20
199.352804
 30
0.0
 10
216.912744
 20
189.828416
 30
0.0
 10
261.082093
 20
189.828416
 30
0.0
 10
261.082093
 20
181.137412
 30
0.0
  0
SPLINE
  5
120
100
AcDbEntity
  8
0
 62
7
100
AcDbSpline
 70
8
 71
3
 72
8
 73
4
 74
0
 40
0
 40
0
 40
0
 40
0
 40
1
 40
1
 40
1
 40
1
 10
196.673412
 20
165.184062
 30
0.0
 10
185.482256
 20
165.184062
 30
0.0
 10
176.434088
 20
168.517598
 30
0.0
 10
176.434088
 20
183.518509
 30
0.0
  0
LWPOLYLINE
  5
121
100
AcDbEntity
  8
0
 62
7
100
AcDbPolyline
 90
2
 70
0
 10
242.271427
 20
165.184062
 30
0.0
 10
196.673412
 20
165.184062
 30
0.0
  0
SPLINE
  5
122
100
AcDbEntity
  8
0
 62
7
100
AcDbSpline
 70
8
 71
3
 72
8
 73
4
 74
0
 40
0
 40
0
 40
0
 40
0
 40
1
 40
1
 40
1
 40
1
 10
176.434088
 20
215.901428
 30
0.0
 10
176.434088
 20
230.902339
 30
0.0
 10
185.482256
 20
234.235875
 30
0.0
 10
196.673412
 20
234.235875
 30
0.0
  0
LWPOLYLINE
  5
123
100
AcDbEntity
  8
0
 62
7
100
AcDbPolyline
 90
2
 70
0
 10
176.434088
 20
183.518509
 30
0.0
 10
176.434088
 20
215.901428
 30
0.0
  0
SPLINE
  5
124
100
AcDbEntity
  8
0
 62
7
100
AcDbSpline
 70
8
 71
3
 72
8
 73
4
 74
0
 40
0
 40
0
 40
0
 40
0
 40
1
 40
1
 40
1
 40
1
 10
226.913351
 20
234.235875
 30
0.0
 10
255.724625
 20
234.235875
 30
0.0
 10
260.605874
 20
233.045327
 30
0.0
 10
260.605874
 20
216.972922
 30
0.0
  0
LWPOLYLINE
  5
125
100
AcDbEntity
  8
0
 62
7
100
AcDbPolyline
 90
2
 70
0
 10
196.673412
 20
234.235875
 30
0.0
 10
226.913351
 20
234.235875
 30
0.0
  0
SPLINE
  5
126
100
AcDbEntity
  8
0
 62
7
100
AcDbSpline
 70
8
 71
3
 72
8
 73
4
 74
0
 40
0
 40
0
 40
0
 40
0
 40
1
 40
1
 40
1
 40
1
 10
271.558920
 20
220.068348
 30
0.0
 10
271.558920
 20
239.950508
 30
0.0
 10
255.010296
 20
243.760263
 30
0.0
 10
239.533166
 20
243.760263
 30
0.0
  0
LWPOLYLINE
  5
127
100
AcDbEntity
  8
0
 62
7
100
AcDbPolyline
 90
3
 70
0
 10
260.605874
 20
216.972922
 30
0.0
 10
271.558920
 20
216.972922
 30
0.0
 10
271.558920
 20
220.068348
 30
0.0
  0
SPLINE
  5
128
100
AcDbEntity
  8
0
 62
7
100
AcDbSpline
 70
8
 71
3
 72
8
 73
4
 74
0
 40
0
 40
0
 40
0
 40
0
 40
1
 40
1
 40
1
 40
1
 10
195.482864
 20
243.760263
 30
0.0
 10
172.148113
 20
243.760263
 30
0.0
 10
164.766712
 20
233.283436
 30
0.0
 10
164.766712
 20
211.496399
 30
0.0
  0
LWPOLYLINE
  5
129
100
AcDbEntity
  8
0
 62
7
100
AcDbPolyline
 90
2
 70
0
 10
239.533166
 20
243.760263
 30
0.0
 10
195.482864
 20
243.760263
 30
0.0
  0
SPLINE
  5
12a
100
AcDbEntity
  8
0
 62
7
100
AcDbSpline
 70
8
 71
3
 72
8
 73
4
 74
0
 40
0
 40
0
 40
0
 40
0
 40
1
 40
1
 40
1
 40
1
 10
164.766712
 20
187.923538
 30
0.0
 10
164.766712
 20
166.136501
 30
0.0
 10
172.148113
 20
155.659667
 30
0.0
 10
195.482864
 20
155.659667
 30
0.0
  0
LWPOLYLINE
  5
12b
100
AcDbEntity
  8
0
 62
7
100
AcDbPolyline
 90
2
 70
0
 10
164.766712
 20
211.496399
 30
0.0
 10
164.766712
 20
187.923538
 30
0.0
  0
SPLINE
  5
12c
100
AcDbEntity
  8
0
 62
7
100
AcDbSpline
 70
8
 71
3
 72
8
 73
4
 74
0
 40
0
 40
0
 40
0
 40
0
 40
1
 40
1
 40
1
 40
1
 10
243.581030
 20
155.659667
 30
0.0
 10
265.129958
 20
155.659667
 30
0.0
 10
272.749469
 20
163.993514
 30
0.0
 10
272.749469
 20
187.447319
 30
0.0
  0
LWPOLYLINE
  5
12d
100
AcDbEntity
  8
0
 62
7
100
AcDbPolyline
 90
2
 70
0
 10
195.482864
 20
155.659667
 30
0.0
 10
243.581030
 20
155.659667
 30
0.0
  0
SPLINE
  5
12e
100
AcDbEntity
  8
0
 62
7
100
AcDbSpline
 70
8
 71
3
 72
8
 73
4
 74
0
 40
0
 40
0
 40
0
 40
0
 40
1
 40
1
 40
1
 40
1
 10
390.494588
 20
183.518509
 30
0.0
 10
390.494588
 20
168.517598
 30
0.0
 10
381.446419
 20
165.184062
 30
0.0
 10
370.255263
 20
165.184062
 30
0.0
  0
LWPOLYLINE
  5
12f
100
AcDbEntity
  8
0
 62
7
100
AcDbPolyline
 90
2
 70
0
 10
272.749469
 20
187.447319
 30
0.0
 10
272.749469
 20
199.352804
 30
0.0
  0
SPLINE
  5
130
100
AcDbEntity
  8
0
 62
7
100
AcDbSpline
 70
8
 71
3
 72
8
 73
4
 74
0
 40
0
 40
0
 40
0
 40
0
 40
1
 40
1
 40
1
 40
1
 10
322.990488
 20
165.184062
 30
0.0
 10
311.799332
 20
165.184062
 30
0.0
 10
302.751163
 20
168.517598
 30
0.0
 10
302.751163
 20
183.518509
 30
0.0
  0
LWPOLYLINE
  5
131
100
AcDbEntity
  8
0
 62
7
100
AcDbPolyline
 90
2
 70
0
 10
370.255263
 20
165.184062
 30
0.0
 10
322.990488
 20
165.184062
 30
0.0
  0
SPLINE
  5
132
100
AcDbEntity
  8
0
 62
7
100
AcDbSpline
 70
8
 71
3
 72
8
 73
4
 74
0
 40
0
 40
0
 40
0
 40
0
 40
1
 40
1
 40
1
 40
1
 10
302.751163
 20
215.901428
 30
0.0
 10
302.751163
 20
230.902339
 30
0.0
 10
311.799332
 20
234.235875
 30
0.0
 10
322.990488
 20
234.235875
 30
0.0
  0
LWPOLYLINE
  5
133
100
AcDbEntity
  8
0
 62
7
100
AcDbPolyline
 90
2
 70
0
 10
302.751163
 20
183.518509
 30
0.0
 10
302.751163
 20
215.901428
 30
0.0
  0
SPLINE
  5
134
100
AcDbEntity
  8
0
 62
7
100
AcDbSpline
 70
8
 71
3
 72
8
 73
4
 74
0
 40
0
 40
0
 40
0
 40
0
 40
1
 40
1
 40
1
 40
1
 10
370.255263
 20
234.235875
 30
0.0
 10
381.446419
 20
234.235875
 30
0.0
 10
390.494588
 20
230.902339
 30
0.0
 10
390.494588
 20
215.901428
 30
0.0
  0
LWPOLYLINE
  5
135
100
AcDbEntity
  8
0
 62
7
100
AcDbPolyline
 90
2
 70
0
 10
322.990488
 20
234.235875
 30
0.0
 10
370.255263
 20
234.235875
 30
0.0
  0
SPLINE
  5
136
100
AcDbEntity
  8
0
 62
7
100
AcDbSpline
 70
8
 71
3
 72
8
 73
4
 74
0
 40
0
 40
0
 40
0
 40
0
 40
1
 40
1
 40
1
 40
1
 10
291.083788
 20
187.923538
 30
0.0
 10
291.083788
 20
166.136501
 30
0.0
 10
298.465189
 20
155.659667
 30
0.0
 10
321.799939
 20
155.659667
 30
0.0
  0
LWPOLYLINE
  5
137
100
AcDbEntity
  8
0
 62
7
100
AcDbPolyline
 90
2
 70
0
 10
390.494588
 20
215.901428
 30
0.0
 10
390.494588
 20
183.518509
 30
0.0
  0
SPLINE
  5
138
100
AcDbEntity
  8
0
 62
7
100
AcDbSpline
 70
8
 71
3
 72
8
 73
4
 74
0
 40
0
 40
0
 40
0
 40
0
 40
1
 40
1
 40
1
 40
1
 10
371.445812
 20
155.659667
 30
0.0
 10
394.780563
 20
155.659667
 30
0.0
 10
402.161963
 20
166.136501
 30
0.0
 10
402.161963
 20
187.923538
 30
0.0
  0
LWPOLYLINE
  5
139
100
AcDbEntity
  8
0
 62
7
100
AcDbPolyline
 90
2
 70
0
 10
321.799939
 20
155.659667
 30
0.0
 10
371.445812
 20
155.659667
 30
0.0
  0
SPLINE
  5
13a
100
AcDbEntity
  8
0
 62
7
100
AcDbSpline
 70
8
 71
3
 72
8
 73
4
 74
0
 40
0
 40
0
 40
0
 40
0
 40
1
 40
1
 40
1
 40
1
 10
402.161963
 20
211.496399
 30
0.0
 10
402.161963
 20
233.283436
 30
0.0
 10
394.780563
 20
243.760263
 30
0.0
 10
371.445812
 20
243.760263
 30
0.0
  0
LWPOLYLINE
  5
13b
100
AcDbEntity
  8
0
 62
7
100
AcDbPolyline
 90
2
 70
0
 10
402.161963
 20
187.923538
 30
0.0
 10
402.161963
 20
211.496399
 30
0.0
  0
SPLINE
  5
13c
100
AcDbEntity
  8
0
 62
7
100
AcDbSpline
 70
8
 71
3
 72
8
 73
4
 74
0
 40
0
 40
0
 40
0
 40
0
 40
1
 40
1
 40
1
 40
1
 10
321.799939
 20
243.760263
 30
0.0
 10
298.465189
 20
243.760263
 30
0.0
 10
291.083788
 20
233.283436
 30
0.0
 10
291.083788
 20
211.496399
 30
0.0
  0
LWPOLYLINE
  5
13d
100
AcDbEntity
  8
0
 62
7
100
AcDbPolyline
 90
2
 70
0
 10
371.445812
 20
243.760263
 30
0.0
 10
321.799939
 20
243.760263
 30
0.0
  0
LWPOLYLINE
  5
13e
100
AcDbEntity
  8
0
 62
7
100
AcDbPolyline
 90
2
 70
0
 10
291.083788
 20
211.496399
 30
0.0
 10
291.083788
 20
187.923538
 30
0.0
  0
ENDSEC
  0
SECTION
  2
OBJECTS
  0
DICTIONARY
  5
C
330
0
100
AcDbDictionary
  3
ACAD_GROUP
350
D
  3
ACAD_MLINESTYLE
350
17
  0
DICTIONARY
  5
D
330
C
100
AcDbDictionary
  0
DICTIONARY
  5
1A
330
C
100
AcDbDictionary
  0
DICTIONARY
  5
17
330
C
100
AcDbDictionary
  3
STANDARD
350
18
  0
DICTIONARY
  5
19
330
C
100
AcDbDictionary
  0
ENDSEC
  0
EOF
