999
"DXF R12 Output" (www.mydxf.blogspot.com)
 0 
SECTION
 2 
HEADER
 9 
$ACADVER
 1 
AC1009
 9 
$EXTMIN
 10 
 0 
 20 
 0 
 9 
$EXTMAX
 10 
 8.5 
 20 
 11 
 0 
ENDSEC
 0 
SECTION
 2 
ENTITIES
0
LINE
8
Layer 1
10
45.999900
20
103.350000
11
45.999900
21
211.233000
0
LINE
8
Layer 1
10
153.883000
20
103.350000
11
45.999900
21
103.350000
0
LINE
8
Layer 1
10
153.883000
20
211.233000
11
153.883000
21
103.350000
0
LINE
8
Layer 1
10
45.999900
20
211.233000
11
153.883000
21
211.233000
0
LINE
8
Layer 1
10
140.445000
20
184.242000
11
164.000000
21
184.242000
0
LINE
8
Layer 1
10
164.000000
20
184.242000
11
164.000000
21
184.242000
0
LINE
8
Layer 1
10
36.000000
20
184.242000
11
113.467000
21
184.242000
0
LINE
8
Layer 1
10
86.420200
20
157.242000
11
164.000000
21
157.242000
0
LINE
8
Layer 1
10
164.000000
20
157.242000
11
164.000000
21
157.242000
0
LINE
8
Layer 1
10
36.000000
20
157.242000
11
59.460700
21
157.242000
0
LINE
8
Layer 1
10
113.448000
20
130.242000
11
164.000000
21
130.242000
0
LINE
8
Layer 1
10
164.000000
20
130.242000
11
164.000000
21
130.242000
0
LINE
8
Layer 1
10
36.000000
20
130.242000
11
86.461700
21
130.242000
0
LINE
8
Layer 1
10
100.000000
20
116.300000
11
100.000000
21
93.291700
0
LINE
8
Layer 1
10
100.000000
20
93.291700
11
100.000000
21
93.291700
0
LINE
8
Layer 1
10
100.000000
20
221.292000
11
100.000000
21
143.749200
0
LINE
8
Layer 1
10
127.050000
20
170.311000
11
127.050000
21
93.291700
0
LINE
8
Layer 1
10
127.050000
20
93.291700
11
127.050000
21
93.291700
0
LINE
8
Layer 1
10
127.050000
20
221.292000
11
127.050000
21
197.743000
0
LINE
8
Layer 1
10
73.050000
20
143.859000
11
73.050000
21
93.820800
0
LINE
8
Layer 1
10
73.050000
20
93.820800
11
73.050000
21
93.291700
0
LINE
8
Layer 1
10
73.050000
20
221.292000
11
73.050000
21
170.765000
0
LINE
8
Layer 1
10
140.459000
20
184.027000
11
140.184728
21
181.263010
0
LINE
8
Layer 1
10
140.184728
20
181.263010
11
139.398103
21
178.688620
0
LINE
8
Layer 1
10
139.398103
20
178.688620
11
138.153412
21
176.358981
0
LINE
8
Layer 1
10
138.153412
20
176.358981
11
136.504942
21
174.329243
0
LINE
8
Layer 1
10
136.504942
20
174.329243
11
134.506978
21
172.654555
0
LINE
8
Layer 1
10
134.506978
20
172.654555
11
132.213809
21
171.390069
0
LINE
8
Layer 1
10
132.213809
20
171.390069
11
129.679721
21
170.590934
0
LINE
8
Layer 1
10
129.679721
20
170.590934
11
126.959000
21
170.312300
0
LINE
8
Layer 1
10
126.959000
20
170.312300
11
124.312982
21
170.578259
0
LINE
8
Layer 1
10
124.312982
20
170.578259
11
121.792774
21
171.356269
0
LINE
8
Layer 1
10
121.792774
20
171.356269
11
119.469193
21
172.616531
0
LINE
8
Layer 1
10
119.469193
20
172.616531
11
117.413058
21
174.329243
0
LINE
8
Layer 1
10
117.413058
20
174.329243
11
115.727159
21
176.418078
0
LINE
8
Layer 1
10
115.727159
20
176.418078
11
114.486626
21
178.778612
0
LINE
8
Layer 1
10
114.486626
20
178.778612
11
113.720796
21
181.338900
0
LINE
8
Layer 1
10
113.720796
20
181.338900
11
113.459000
21
184.027000
0
LINE
8
Layer 1
10
113.459000
20
184.027000
11
113.720796
21
186.715100
0
LINE
8
Layer 1
10
113.720796
20
186.715100
11
114.486626
21
189.275388
0
LINE
8
Layer 1
10
114.486626
20
189.275388
11
115.727159
21
191.635922
0
LINE
8
Layer 1
10
115.727159
20
191.635922
11
117.413058
21
193.724757
0
LINE
8
Layer 1
10
117.413058
20
193.724757
11
119.469193
21
195.437469
0
LINE
8
Layer 1
10
119.469193
20
195.437469
11
121.792774
21
196.697731
0
LINE
8
Layer 1
10
121.792774
20
196.697731
11
124.312982
21
197.475741
0
LINE
8
Layer 1
10
124.312982
20
197.475741
11
126.959000
21
197.741700
0
LINE
8
Layer 1
10
126.959000
20
197.741700
11
129.679721
21
197.463066
0
LINE
8
Layer 1
10
129.679721
20
197.463066
11
132.213809
21
196.663931
0
LINE
8
Layer 1
10
132.213809
20
196.663931
11
134.506978
21
195.399445
0
LINE
8
Layer 1
10
134.506978
20
195.399445
11
136.504942
21
193.724757
0
LINE
8
Layer 1
10
136.504942
20
193.724757
11
138.153412
21
191.695019
0
LINE
8
Layer 1
10
138.153412
20
191.695019
11
139.398103
21
189.365380
0
LINE
8
Layer 1
10
139.398103
20
189.365380
11
140.184728
21
186.790990
0
LINE
8
Layer 1
10
140.184728
20
186.790990
11
140.459000
21
184.027000
0
LINE
8
Layer 1
10
140.459000
20
184.027000
11
140.459000
21
184.027000
0
LINE
8
Layer 1
10
72.980000
20
170.742000
11
70.259300
21
170.486107
0
LINE
8
Layer 1
10
70.259300
20
170.486107
11
67.725238
21
169.746922
0
LINE
8
Layer 1
10
67.725238
20
169.746922
11
65.432094
21
168.567182
0
LINE
8
Layer 1
10
65.432094
20
168.567182
11
63.434150
21
166.989625
0
LINE
8
Layer 1
10
63.434150
20
166.989625
11
61.785688
21
165.056990
0
LINE
8
Layer 1
10
61.785688
20
165.056990
11
60.540987
21
162.812016
0
LINE
8
Layer 1
10
60.540987
20
162.812016
11
59.754331
21
160.297439
0
LINE
8
Layer 1
10
59.754331
20
160.297439
11
59.480000
21
157.556000
0
LINE
8
Layer 1
10
59.480000
20
157.556000
11
59.754236
21
154.791981
0
LINE
8
Layer 1
10
59.754236
20
154.791981
11
60.540835
21
152.217559
0
LINE
8
Layer 1
10
60.540835
20
152.217559
11
61.785511
21
149.887887
0
LINE
8
Layer 1
10
61.785511
20
149.887887
11
63.433977
21
147.858116
0
LINE
8
Layer 1
10
63.433977
20
147.858116
11
65.431946
21
146.183400
0
LINE
8
Layer 1
10
65.431946
20
146.183400
11
67.725130
21
144.918890
0
LINE
8
Layer 1
10
67.725130
20
144.918890
11
70.259244
21
144.119740
0
LINE
8
Layer 1
10
70.259244
20
144.119740
11
72.980000
21
143.841100
0
LINE
8
Layer 1
10
72.980000
20
143.841100
11
75.700741
21
144.097011
0
LINE
8
Layer 1
10
75.700741
20
144.097011
11
78.234847
21
144.836224
0
LINE
8
Layer 1
10
78.234847
20
144.836224
11
80.528029
21
146.015991
0
LINE
8
Layer 1
10
80.528029
20
146.015991
11
82.526000
21
147.593561
0
LINE
8
Layer 1
10
82.526000
20
147.593561
11
84.174471
21
149.526187
0
LINE
8
Layer 1
10
84.174471
20
149.526187
11
85.419153
21
151.771118
0
LINE
8
Layer 1
10
85.419153
20
151.771118
11
86.205759
21
154.285605
0
LINE
8
Layer 1
10
86.205759
20
154.285605
11
86.480000
21
157.026900
0
LINE
8
Layer 1
10
86.480000
20
157.026900
11
86.205675
21
159.790840
0
LINE
8
Layer 1
10
86.205675
20
159.790840
11
85.419018
21
162.365179
0
LINE
8
Layer 1
10
85.419018
20
162.365179
11
84.174312
21
164.694767
0
LINE
8
Layer 1
10
84.174312
20
164.694767
11
82.525842
21
166.724459
0
LINE
8
Layer 1
10
82.525842
20
166.724459
11
80.527892
21
168.399105
0
LINE
8
Layer 1
10
80.527892
20
168.399105
11
78.234746
21
169.663560
0
LINE
8
Layer 1
10
78.234746
20
169.663560
11
75.700687
21
170.462674
0
LINE
8
Layer 1
10
75.700687
20
170.462674
11
72.980000
21
170.741300
0
LINE
8
Layer 1
10
72.980000
20
170.741300
11
72.980000
21
170.742000
0
LINE
8
Layer 1
10
113.474000
20
130.027000
11
113.199728
21
127.263010
0
LINE
8
Layer 1
10
113.199728
20
127.263010
11
112.413103
21
124.688620
0
LINE
8
Layer 1
10
112.413103
20
124.688620
11
111.168412
21
122.358981
0
LINE
8
Layer 1
10
111.168412
20
122.358981
11
109.519942
21
120.329243
0
LINE
8
Layer 1
10
109.519942
20
120.329243
11
107.521978
21
118.654555
0
LINE
8
Layer 1
10
107.521978
20
118.654555
11
105.228809
21
117.390069
0
LINE
8
Layer 1
10
105.228809
20
117.390069
11
102.694721
21
116.590934
0
LINE
8
Layer 1
10
102.694721
20
116.590934
11
99.974000
21
116.312300
0
LINE
8
Layer 1
10
99.974000
20
116.312300
11
97.327982
21
116.578259
0
LINE
8
Layer 1
10
97.327982
20
116.578259
11
94.807774
21
117.356269
0
LINE
8
Layer 1
10
94.807774
20
117.356269
11
92.484193
21
118.616531
0
LINE
8
Layer 1
10
92.484193
20
118.616531
11
90.428058
21
120.329243
0
LINE
8
Layer 1
10
90.428058
20
120.329243
11
88.742159
21
122.418078
0
LINE
8
Layer 1
10
88.742159
20
122.418078
11
87.501626
21
124.778612
0
LINE
8
Layer 1
10
87.501626
20
124.778612
11
86.735796
21
127.338900
0
LINE
8
Layer 1
10
86.735796
20
127.338900
11
86.474000
21
130.027000
0
LINE
8
Layer 1
10
86.474000
20
130.027000
11
86.735796
21
132.715100
0
LINE
8
Layer 1
10
86.735796
20
132.715100
11
87.501626
21
135.275388
0
LINE
8
Layer 1
10
87.501626
20
135.275388
11
88.742159
21
137.635922
0
LINE
8
Layer 1
10
88.742159
20
137.635922
11
90.428058
21
139.724757
0
LINE
8
Layer 1
10
90.428058
20
139.724757
11
92.484193
21
141.437469
0
LINE
8
Layer 1
10
92.484193
20
141.437469
11
94.807774
21
142.697731
0
LINE
8
Layer 1
10
94.807774
20
142.697731
11
97.327982
21
143.475741
0
LINE
8
Layer 1
10
97.327982
20
143.475741
11
99.974000
21
143.741700
0
LINE
8
Layer 1
10
99.974000
20
143.741700
11
102.694721
21
143.463066
0
LINE
8
Layer 1
10
102.694721
20
143.463066
11
105.228809
21
142.663931
0
LINE
8
Layer 1
10
105.228809
20
142.663931
11
107.521978
21
141.399445
0
LINE
8
Layer 1
10
107.521978
20
141.399445
11
109.519942
21
139.724757
0
LINE
8
Layer 1
10
109.519942
20
139.724757
11
111.168412
21
137.695019
0
LINE
8
Layer 1
10
111.168412
20
137.695019
11
112.413103
21
135.365380
0
LINE
8
Layer 1
10
112.413103
20
135.365380
11
113.199728
21
132.790990
0
LINE
8
Layer 1
10
113.199728
20
132.790990
11
113.474000
21
130.027000
0
LINE
8
Layer 1
10
113.474000
20
130.027000
11
113.474000
21
130.027000
0
LINE
8
Layer 1
10
96.220000
20
70.327200
11
76.522000
21
70.327200
0
LINE
8
Layer 1
10
76.522000
20
70.327200
11
76.522000
21
66.967200
0
LINE
8
Layer 1
10
76.522000
20
66.967200
11
92.104000
21
66.967200
0
LINE
8
Layer 1
10
92.104000
20
66.967200
11
92.104000
21
63.901300
0
LINE
8
Layer 1
10
92.104000
20
63.901300
11
91.987680
21
62.453616
0
LINE
8
Layer 1
10
91.987680
20
62.453616
11
91.645939
21
61.250056
0
LINE
8
Layer 1
10
91.645939
20
61.250056
11
91.089605
21
60.274870
0
LINE
8
Layer 1
10
91.089605
20
60.274870
11
90.329505
21
59.512309
0
LINE
8
Layer 1
10
90.329505
20
59.512309
11
89.376468
21
58.946622
0
LINE
8
Layer 1
10
89.376468
20
58.946622
11
88.241321
21
58.562060
0
LINE
8
Layer 1
10
88.241321
20
58.562060
11
86.934892
21
58.342872
0
LINE
8
Layer 1
10
86.934892
20
58.342872
11
85.468010
21
58.273310
0
LINE
8
Layer 1
10
85.468010
20
58.273310
11
69.382000
21
58.273300
0
LINE
8
Layer 1
10
69.382000
20
58.273300
11
67.941699
21
58.334167
0
LINE
8
Layer 1
10
67.941699
20
58.334167
11
66.600820
21
58.539737
0
LINE
8
Layer 1
10
66.600820
20
58.539737
11
65.387909
21
58.924464
0
LINE
8
Layer 1
10
65.387909
20
58.924464
11
64.331514
21
59.522799
0
LINE
8
Layer 1
10
64.331514
20
59.522799
11
63.460180
21
60.369196
0
LINE
8
Layer 1
10
63.460180
20
60.369196
11
62.802456
21
61.498108
0
LINE
8
Layer 1
10
62.802456
20
61.498108
11
62.386887
21
62.943989
0
LINE
8
Layer 1
10
62.386887
20
62.943989
11
62.242020
21
64.741290
0
LINE
8
Layer 1
10
62.242020
20
64.741290
11
62.242000
21
76.165200
0
LINE
8
Layer 1
10
62.242000
20
76.165200
11
62.386867
21
77.962501
0
LINE
8
Layer 1
10
62.386867
20
77.962501
11
62.802436
21
79.408382
0
LINE
8
Layer 1
10
62.802436
20
79.408382
11
63.460160
21
80.537294
0
LINE
8
Layer 1
10
63.460160
20
80.537294
11
64.331494
21
81.383691
0
LINE
8
Layer 1
10
64.331494
20
81.383691
11
65.387889
21
81.982026
0
LINE
8
Layer 1
10
65.387889
20
81.982026
11
66.600800
21
82.366753
0
LINE
8
Layer 1
10
66.600800
20
82.366753
11
67.941679
21
82.572323
0
LINE
8
Layer 1
10
67.941679
20
82.572323
11
69.381980
21
82.633190
0
LINE
8
Layer 1
10
69.381980
20
82.633190
11
80.050000
21
82.633200
0
LINE
8
Layer 1
10
80.050000
20
82.633200
11
86.195125
21
82.478982
0
LINE
8
Layer 1
10
86.195125
20
82.478982
11
88.277406
21
82.201306
0
LINE
8
Layer 1
10
88.277406
20
82.201306
11
89.804500
21
81.714452
0
LINE
8
Layer 1
10
89.804500
20
81.714452
11
90.855156
21
80.961816
0
LINE
8
Layer 1
10
90.855156
20
80.961816
11
91.508125
21
79.886798
0
LINE
8
Layer 1
10
91.508125
20
79.886798
11
91.842156
21
78.432797
0
LINE
8
Layer 1
10
91.842156
20
78.432797
11
91.936000
21
76.543210
0
LINE
8
Layer 1
10
91.936000
20
76.543210
11
95.800000
21
76.543200
0
LINE
8
Layer 1
10
95.800000
20
76.543200
11
95.800000
21
77.635200
0
LINE
8
Layer 1
10
95.800000
20
77.635200
11
95.538485
21
80.008111
0
LINE
8
Layer 1
10
95.538485
20
80.008111
11
94.802501
21
81.900157
0
LINE
8
Layer 1
10
94.802501
20
81.900157
11
93.664893
21
83.362033
0
LINE
8
Layer 1
10
93.664893
20
83.362033
11
92.198504
21
84.444433
0
LINE
8
Layer 1
10
92.198504
20
84.444433
11
90.476176
21
85.198052
0
LINE
8
Layer 1
10
90.476176
20
85.198052
11
88.570754
21
85.673587
0
LINE
8
Layer 1
10
88.570754
20
85.673587
11
86.555081
21
85.921731
0
LINE
8
Layer 1
10
86.555081
20
85.921731
11
84.502000
21
85.993180
0
LINE
8
Layer 1
10
84.502000
20
85.993180
11
68.962000
21
85.993200
0
LINE
8
Layer 1
10
68.962000
20
85.993200
11
66.132912
21
85.819376
0
LINE
8
Layer 1
10
66.132912
20
85.819376
11
63.796008
21
85.295608
0
LINE
8
Layer 1
10
63.796008
20
85.295608
11
61.915853
21
84.418449
0
LINE
8
Layer 1
10
61.915853
20
84.418449
11
60.457008
21
83.184454
0
LINE
8
Layer 1
10
60.457008
20
83.184454
11
59.384037
21
81.590177
0
LINE
8
Layer 1
10
59.384037
20
81.590177
11
58.661503
21
79.632173
0
LINE
8
Layer 1
10
58.661503
20
79.632173
11
58.253970
21
77.306996
0
LINE
8
Layer 1
10
58.253970
20
77.306996
11
58.126000
21
74.611200
0
LINE
8
Layer 1
10
58.126000
20
74.611200
11
58.126000
21
66.295200
0
LINE
8
Layer 1
10
58.126000
20
66.295200
11
58.253968
21
63.599413
0
LINE
8
Layer 1
10
58.253968
20
63.599413
11
58.661499
21
61.274240
0
LINE
8
Layer 1
10
58.661499
20
61.274240
11
59.384029
21
59.316236
0
LINE
8
Layer 1
10
59.384029
20
59.316236
11
60.456996
21
57.721957
0
LINE
8
Layer 1
10
60.456996
20
57.721957
11
61.915839
21
56.487959
0
LINE
8
Layer 1
10
61.915839
20
56.487959
11
63.795996
21
55.610797
0
LINE
8
Layer 1
10
63.795996
20
55.610797
11
66.132903
21
55.087025
0
LINE
8
Layer 1
10
66.132903
20
55.087025
11
68.962000
21
54.913200
0
LINE
8
Layer 1
10
68.962000
20
54.913200
11
85.930000
21
54.913300
0
LINE
8
Layer 1
10
85.930000
20
54.913300
11
88.554748
21
55.055788
0
LINE
8
Layer 1
10
88.554748
20
55.055788
11
90.744898
21
55.501956
0
LINE
8
Layer 1
10
90.744898
20
55.501956
11
92.526534
21
56.279859
0
LINE
8
Layer 1
10
92.526534
20
56.279859
11
93.925743
21
57.417550
0
LINE
8
Layer 1
10
93.925743
20
57.417550
11
94.968608
21
58.943085
0
LINE
8
Layer 1
10
94.968608
20
58.943085
11
95.681216
21
60.884519
0
LINE
8
Layer 1
10
95.681216
20
60.884519
11
96.089652
21
63.269905
0
LINE
8
Layer 1
10
96.089652
20
63.269905
11
96.220000
21
66.127300
0
LINE
8
Layer 1
10
96.220000
20
66.127300
11
96.220000
21
70.327200
0
LINE
8
Layer 1
10
137.758000
20
64.741300
11
137.613133
21
62.943999
0
LINE
8
Layer 1
10
137.613133
20
62.943999
11
137.197564
21
61.498118
0
LINE
8
Layer 1
10
137.197564
20
61.498118
11
136.539840
21
60.369206
0
LINE
8
Layer 1
10
136.539840
20
60.369206
11
135.668506
21
59.522809
0
LINE
8
Layer 1
10
135.668506
20
59.522809
11
134.612111
21
58.924474
0
LINE
8
Layer 1
10
134.612111
20
58.924474
11
133.399200
21
58.539747
0
LINE
8
Layer 1
10
133.399200
20
58.539747
11
132.058321
21
58.334177
0
LINE
8
Layer 1
10
132.058321
20
58.334177
11
130.618020
21
58.273310
0
LINE
8
Layer 1
10
130.618020
20
58.273310
11
113.944000
21
58.273300
0
LINE
8
Layer 1
10
113.944000
20
58.273300
11
112.503699
21
58.334167
0
LINE
8
Layer 1
10
112.503699
20
58.334167
11
111.162820
21
58.539737
0
LINE
8
Layer 1
10
111.162820
20
58.539737
11
109.949909
21
58.924464
0
LINE
8
Layer 1
10
109.949909
20
58.924464
11
108.893514
21
59.522799
0
LINE
8
Layer 1
10
108.893514
20
59.522799
11
108.022180
21
60.369196
0
LINE
8
Layer 1
10
108.022180
20
60.369196
11
107.364456
21
61.498108
0
LINE
8
Layer 1
10
107.364456
20
61.498108
11
106.948887
21
62.943989
0
LINE
8
Layer 1
10
106.948887
20
62.943989
11
106.804020
21
64.741290
0
LINE
8
Layer 1
10
106.804020
20
64.741290
11
106.804000
21
76.165200
0
LINE
8
Layer 1
10
106.804000
20
76.165200
11
106.948867
21
77.962501
0
LINE
8
Layer 1
10
106.948867
20
77.962501
11
107.364436
21
79.408382
0
LINE
8
Layer 1
10
107.364436
20
79.408382
11
108.022160
21
80.537294
0
LINE
8
Layer 1
10
108.022160
20
80.537294
11
108.893494
21
81.383691
0
LINE
8
Layer 1
10
108.893494
20
81.383691
11
109.949889
21
81.982026
0
LINE
8
Layer 1
10
109.949889
20
81.982026
11
111.162800
21
82.366753
0
LINE
8
Layer 1
10
111.162800
20
82.366753
11
112.503679
21
82.572323
0
LINE
8
Layer 1
10
112.503679
20
82.572323
11
113.943980
21
82.633190
0
LINE
8
Layer 1
10
113.943980
20
82.633190
11
130.618000
21
82.633200
0
LINE
8
Layer 1
10
130.618000
20
82.633200
11
132.058301
21
82.572333
0
LINE
8
Layer 1
10
132.058301
20
82.572333
11
133.399180
21
82.366763
0
LINE
8
Layer 1
10
133.399180
20
82.366763
11
134.612091
21
81.982036
0
LINE
8
Layer 1
10
134.612091
20
81.982036
11
135.668486
21
81.383701
0
LINE
8
Layer 1
10
135.668486
20
81.383701
11
136.539820
21
80.537304
0
LINE
8
Layer 1
10
136.539820
20
80.537304
11
137.197544
21
79.408392
0
LINE
8
Layer 1
10
137.197544
20
79.408392
11
137.613113
21
77.962511
0
LINE
8
Layer 1
10
137.613113
20
77.962511
11
137.757980
21
76.165210
0
LINE
8
Layer 1
10
137.757980
20
76.165210
11
137.758000
21
64.741300
0
LINE
8
Layer 1
10
102.688100
20
66.295300
11
102.816068
21
63.599513
0
LINE
8
Layer 1
10
102.816068
20
63.599513
11
103.223599
21
61.274340
0
LINE
8
Layer 1
10
103.223599
20
61.274340
11
103.946129
21
59.316336
0
LINE
8
Layer 1
10
103.946129
20
59.316336
11
105.019096
21
57.722057
0
LINE
8
Layer 1
10
105.019096
20
57.722057
11
106.477939
21
56.488059
0
LINE
8
Layer 1
10
106.477939
20
56.488059
11
108.358096
21
55.610897
0
LINE
8
Layer 1
10
108.358096
20
55.610897
11
110.695003
21
55.087125
0
LINE
8
Layer 1
10
110.695003
20
55.087125
11
113.524100
21
54.913300
0
LINE
8
Layer 1
10
113.524100
20
54.913300
11
131.038000
21
54.913300
0
LINE
8
Layer 1
10
131.038000
20
54.913300
11
133.867088
21
55.087124
0
LINE
8
Layer 1
10
133.867088
20
55.087124
11
136.203992
21
55.610892
0
LINE
8
Layer 1
10
136.203992
20
55.610892
11
138.084147
21
56.488051
0
LINE
8
Layer 1
10
138.084147
20
56.488051
11
139.542993
21
57.722046
0
LINE
8
Layer 1
10
139.542993
20
57.722046
11
140.615963
21
59.316323
0
LINE
8
Layer 1
10
140.615963
20
59.316323
11
141.338497
21
61.274327
0
LINE
8
Layer 1
10
141.338497
20
61.274327
11
141.746030
21
63.599504
0
LINE
8
Layer 1
10
141.746030
20
63.599504
11
141.874000
21
66.295300
0
LINE
8
Layer 1
10
141.874000
20
66.295300
11
141.874000
21
74.611200
0
LINE
8
Layer 1
10
141.874000
20
74.611200
11
141.746032
21
77.306987
0
LINE
8
Layer 1
10
141.746032
20
77.306987
11
141.338501
21
79.632160
0
LINE
8
Layer 1
10
141.338501
20
79.632160
11
140.615971
21
81.590164
0
LINE
8
Layer 1
10
140.615971
20
81.590164
11
139.543004
21
83.184443
0
LINE
8
Layer 1
10
139.543004
20
83.184443
11
138.084161
21
84.418441
0
LINE
8
Layer 1
10
138.084161
20
84.418441
11
136.204004
21
85.295603
0
LINE
8
Layer 1
10
136.204004
20
85.295603
11
133.867097
21
85.819375
0
LINE
8
Layer 1
10
133.867097
20
85.819375
11
131.038000
21
85.993200
0
LINE
8
Layer 1
10
131.038000
20
85.993200
11
113.524000
21
85.993200
0
LINE
8
Layer 1
10
113.524000
20
85.993200
11
110.694912
21
85.819376
0
LINE
8
Layer 1
10
110.694912
20
85.819376
11
108.358008
21
85.295608
0
LINE
8
Layer 1
10
108.358008
20
85.295608
11
106.477853
21
84.418449
0
LINE
8
Layer 1
10
106.477853
20
84.418449
11
105.019008
21
83.184454
0
LINE
8
Layer 1
10
105.019008
20
83.184454
11
103.946037
21
81.590177
0
LINE
8
Layer 1
10
103.946037
20
81.590177
11
103.223503
21
79.632173
0
LINE
8
Layer 1
10
103.223503
20
79.632173
11
102.815970
21
77.306996
0
LINE
8
Layer 1
10
102.815970
20
77.306996
11
102.688000
21
74.611200
0
LINE
8
Layer 1
10
102.688000
20
74.611200
11
102.688100
21
66.295300
 0 
ENDSEC
 0 
EOF