<?xml version="1.0" encoding="UTF-8" standalone="no"?>
<!-- Created with Inkscape (http://www.inkscape.org/) -->

<svg
   width="200mm"
   height="230mm"
   viewBox="0 0 200 230"
   version="1.1"
   id="svg5"
   inkscape:version="1.2.1 (9c6d41e, 2022-07-14)"
   sodipodi:docname="go-schild.svg"
   xmlns:inkscape="http://www.inkscape.org/namespaces/inkscape"
   xmlns:sodipodi="http://sodipodi.sourceforge.net/DTD/sodipodi-0.dtd"
   xmlns="http://www.w3.org/2000/svg"
   xmlns:svg="http://www.w3.org/2000/svg">
  <sodipodi:namedview
     id="namedview7"
     pagecolor="#ffffff"
     bordercolor="#000000"
     borderopacity="0.25"
     inkscape:showpageshadow="2"
     inkscape:pageopacity="0.0"
     inkscape:pagecheckerboard="0"
     inkscape:deskcolor="#d1d1d1"
     inkscape:document-units="mm"
     showgrid="false"
     showguides="true"
     inkscape:zoom="1.5395044"
     inkscape:cx="285.80626"
     inkscape:cy="282.23368"
     inkscape:window-width="1800"
     inkscape:window-height="1097"
     inkscape:window-x="0"
     inkscape:window-y="44"
     inkscape:window-maximized="1"
     inkscape:current-layer="layer1">
    <sodipodi:guide
       position="146.55159,30"
       orientation="0,1"
       id="guide132"
       inkscape:locked="false"
       inkscape:label=""
       inkscape:color="rgb(0,134,229)" />
  </sodipodi:namedview>
  <defs
     id="defs2">
    <rect
       x="151.73422"
       y="553.95033"
       width="467.24506"
       height="193.88262"
       id="rect895" />
  </defs>
  <g
     inkscape:label="Layer 1"
     inkscape:groupmode="layer"
     id="layer1">
    <path
       id="rect352"
       style="fill:none;stroke:#000000;stroke-width:1;stroke-dasharray:none;stroke-opacity:1;stroke-linejoin:bevel;stroke-linecap:square"
       d="M 45.999935,18.766677 H 153.88326 m 0,0 V 126.65 m 0,0 H 45.999935 m 0,0 V 18.766677" />
    <path
       style="fill:none;stroke:#000000;stroke-width:1;stroke-opacity:1;stroke-dasharray:none"
       d="M 140.44499,45.758333 H 164 v 0"
       id="path8956" />
    <path
       style="fill:none;stroke:#000000;stroke-width:1;stroke-opacity:1;stroke-dasharray:none"
       d="M 36.000001,45.758333 H 113.4671"
       id="path418" />
    <path
       style="fill:none;stroke:#000000;stroke-width:1;stroke-dasharray:none;stroke-opacity:1"
       d="M 86.420236,72.758333 H 164 v 0"
       id="path8968" />
    <path
       style="fill:none;stroke:#000000;stroke-width:1;stroke-dasharray:none;stroke-opacity:1"
       d="M 36,72.758333 H 59.460658"
       id="path418-7" />
    <path
       style="fill:none;stroke:#000000;stroke-width:1;stroke-opacity:1;stroke-dasharray:none"
       d="M 113.44814,99.758333 H 164 v 0"
       id="path9028" />
    <path
       style="fill:none;stroke:#000000;stroke-width:1;stroke-opacity:1;stroke-dasharray:none"
       d="M 36.000001,99.758333 H 86.461716"
       id="path418-2" />
    <path
       style="fill:none;stroke:#000000;stroke-width:1;stroke-dasharray:none;stroke-opacity:1"
       d="m 100,113.69968 v 23.00865 0"
       id="path8972" />
    <path
       style="fill:none;stroke:#000000;stroke-width:1;stroke-dasharray:none;stroke-opacity:1"
       d="m 100,8.7083333 c 0,25.8475867 0,51.6951727 0,77.5427597"
       id="path418-6" />
    <path
       style="fill:none;stroke:#000000;stroke-width:1;stroke-opacity:1;stroke-dasharray:none"
       d="m 127.05,59.688729 v 77.019601 0"
       id="path8960" />
    <path
       style="fill:none;stroke:#000000;stroke-width:1;stroke-opacity:1;stroke-dasharray:none"
       d="M 127.05,8.7083333 V 32.256885"
       id="path418-7-6" />
    <path
       style="fill:none;stroke:#000000;stroke-width:1;stroke-dasharray:none;stroke-opacity:1"
       d="m 73.05,86.140904 v 50.038256 0.52917"
       id="path8964"
       sodipodi:nodetypes="ccc" />
    <path
       style="fill:none;stroke:#000000;stroke-width:1;stroke-dasharray:none;stroke-opacity:1"
       d="M 73.05,8.7083333 V 59.234536"
       id="path418-2-7" />
    <path
       id="path691"
       style="fill:none;stroke:#000000;stroke-width:1;stroke-opacity:1;stroke-dasharray:none"
       d="m 140.45913,45.973054 a 13.5,13.714721 0 0 1 -13.5,13.714721 13.5,13.714721 0 0 1 -13.5,-13.714721 13.5,13.714721 0 0 1 13.5,-13.714721 13.5,13.714721 0 0 1 13.5,13.714721 z" />
    <path
       id="path691-5"
       style="fill:none;stroke:#000000;stroke-width:1;stroke-dasharray:none;stroke-opacity:1"
       d="M 72.979951,59.258398 C 65.524246,59.258425 59.48017,64.869349 59.48,72.443639 c -1.11e-4,7.574492 6.044047,13.714899 13.499951,13.714926 7.455904,-2.7e-5 13.500062,-5.611267 13.499951,-13.185759 -1.7e-4,-7.57429 -6.044246,-13.714381 -13.499951,-13.714408 z"
       sodipodi:nodetypes="ccccc" />
    <path
       id="path691-1"
       style="fill:none;stroke:#000000;stroke-width:1;stroke-opacity:1;stroke-dasharray:none"
       d="m 113.474,99.973053 a 13.5,13.714721 0 0 1 -13.500001,13.714717 13.5,13.714721 0 0 1 -13.5,-13.714717 13.5,13.714721 0 0 1 13.5,-13.714724 13.5,13.714721 0 0 1 13.500001,13.714724 z" />
    <g
       aria-label="GO"
       transform="matrix(0.26458333,0,0,0.26458333,-18.663425,-10.777049)"
       id="text893"
       style="font-weight:500;font-size:158.74px;font-family:'Eurostile Extended #2';-inkscape-font-specification:'Eurostile Extended #2 Medium';text-align:end;text-anchor:end;white-space:pre;shape-inside:url(#rect895);display:inline;fill:#ffffff;stroke:#000000;stroke-width:3.77952761;stroke-dasharray:none">
      <path
         d="m 434.20534,644.22038 h -74.44906 v 12.6992 h 58.89254 v 11.58802 c 0,15.874 -9.5244,21.27116 -25.08092,21.27116 h -60.79743 c -14.92156,0 -26.9858,-4.44472 -26.9858,-24.44596 v -43.17728 c 0,-20.00124 12.06424,-24.44596 26.9858,-24.44596 h 40.31997 c 38.41508,0 44.92342,1.5874 44.92342,23.0173 h 14.60408 v -4.12724 c 0,-26.50958 -22.06486,-31.58926 -42.70106,-31.58926 h -58.73381 c -31.11304,0 -40.95492,13.96912 -40.95492,43.01854 v 31.43052 c 0,29.04942 9.84188,43.01855 40.95492,43.01855 h 64.13097 c 28.73194,0 38.8913,-11.11181 38.8913,-42.38359 z"
         id="path8900"
         style="stroke-width:3.77952761;stroke-dasharray:none" />
      <path
         d="m 591.19903,665.3328 c 0,20.00124 -12.06424,24.44596 -26.9858,24.44596 h -63.01978 c -14.92156,0 -26.9858,-4.44472 -26.9858,-24.44596 v -43.17728 c 0,-20.00124 12.06424,-24.44596 26.9858,-24.44596 h 63.01978 c 14.92156,0 26.9858,4.44472 26.9858,24.44596 z m -132.5479,-5.87338 c 0,29.04942 9.84188,43.01855 40.95492,43.01855 h 66.19458 c 31.11304,0 40.95492,-13.96913 40.95492,-43.01855 V 628.0289 c 0,-29.04942 -9.84188,-43.01854 -40.95492,-43.01854 h -66.19458 c -31.11304,0 -40.95492,13.96912 -40.95492,43.01854 z"
         id="path8902"
         style="stroke-width:3.77952761;stroke-dasharray:none" />
    </g>
    <text
       xml:space="preserve"
       style="font-weight:500;font-size:42px;font-family:'Eurostile Extended #2';-inkscape-font-specification:'Eurostile Extended #2 Medium';text-align:end;text-anchor:end;fill:#000000;stroke:#000000;stroke-width:1;stroke-dasharray:none;stroke-opacity:1"
       x="53.209835"
       y="159.3109"
       id="text8172"
       inkscape:export-filename="go-schild.png"
       inkscape:export-xdpi="96"
       inkscape:export-ydpi="96"><tspan
         sodipodi:role="line"
         id="tspan8170"
         style="stroke-width:1;stroke-dasharray:none"></tspan></text>
  </g>
</svg>
