999
"DXF R12 Output" (www.mydxf.blogspot.com)
 0 
SECTION
 2 
HEADER
 9 
$ACADVER
 1 
AC1009
 9 
$EXTMIN
 10 
 0 
 20 
 0 
 9 
$EXTMAX
 10 
 8.5 
 20 
 11 
 0 
ENDSEC
 0 
SECTION
 2 
ENTITIES
0
LINE
8
Layer 1
10
32.024900
20
36.696500
11
31.948186
21
35.851233
0
LINE
8
Layer 1
10
31.948186
20
35.851233
11
31.675441
21
35.059921
0
LINE
8
Layer 1
10
31.675441
20
35.059921
11
31.235266
21
34.348368
0
LINE
8
Layer 1
10
31.235266
20
34.348368
11
30.656261
21
33.742376
0
LINE
8
Layer 1
10
30.656261
20
33.742376
11
29.967025
21
33.267750
0
LINE
8
Layer 1
10
29.967025
20
33.267750
11
29.196160
21
32.950291
0
LINE
8
Layer 1
10
29.196160
20
32.950291
11
28.372265
21
32.815803
0
LINE
8
Layer 1
10
28.372265
20
32.815803
11
27.523940
21
32.890090
0
LINE
8
Layer 1
10
27.523940
20
32.890090
11
26.683085
21
33.137607
0
LINE
8
Layer 1
10
26.683085
20
33.137607
11
25.946281
21
33.579137
0
LINE
8
Layer 1
10
25.946281
20
33.579137
11
25.331574
21
34.177856
0
LINE
8
Layer 1
10
25.331574
20
34.177856
11
24.857011
21
34.896943
0
LINE
8
Layer 1
10
24.857011
20
34.896943
11
24.540641
21
35.699572
0
LINE
8
Layer 1
10
24.540641
20
35.699572
11
24.400511
21
36.548922
0
LINE
8
Layer 1
10
24.400511
20
36.548922
11
24.454668
21
37.408169
0
LINE
8
Layer 1
10
24.454668
20
37.408169
11
24.721160
21
38.240490
0
LINE
8
Layer 1
10
24.721160
20
38.240490
11
25.117768
21
38.976489
0
LINE
8
Layer 1
10
25.117768
20
38.976489
11
25.670406
21
39.586884
0
LINE
8
Layer 1
10
25.670406
20
39.586884
11
26.343498
21
40.059957
0
LINE
8
Layer 1
10
26.343498
20
40.059957
11
27.101465
21
40.383992
0
LINE
8
Layer 1
10
27.101465
20
40.383992
11
27.908730
21
40.547272
0
LINE
8
Layer 1
10
27.908730
20
40.547272
11
28.729716
21
40.538077
0
LINE
8
Layer 1
10
28.729716
20
40.538077
11
29.528845
21
40.344693
0
LINE
8
Layer 1
10
29.528845
20
40.344693
11
30.270540
21
39.955400
0
LINE
8
Layer 1
10
30.270540
20
39.955400
11
31.005272
21
39.332916
0
LINE
8
Layer 1
10
31.005272
20
39.332916
11
31.559309
21
38.548176
0
LINE
8
Layer 1
10
31.559309
20
38.548176
11
31.907551
21
37.652323
0
LINE
8
Layer 1
10
31.907551
20
37.652323
11
32.024900
21
36.696500
0
LINE
8
Layer 1
10
32.024900
20
36.696500
11
32.024900
21
36.696500
0
LINE
8
Layer 1
10
20.596500
20
48.187100
11
19.695865
21
48.111626
0
LINE
8
Layer 1
10
19.695865
20
48.111626
11
18.866490
21
47.810388
0
LINE
8
Layer 1
10
18.866490
20
47.810388
11
18.136431
21
47.320046
0
LINE
8
Layer 1
10
18.136431
20
47.320046
11
17.533742
21
46.677262
0
LINE
8
Layer 1
10
17.533742
20
46.677262
11
17.086479
21
45.918698
0
LINE
8
Layer 1
10
17.086479
20
45.918698
11
16.822696
21
45.081013
0
LINE
8
Layer 1
10
16.822696
20
45.081013
11
16.770448
21
44.200870
0
LINE
8
Layer 1
10
16.770448
20
44.200870
11
16.957790
21
43.314930
0
LINE
8
Layer 1
10
16.957790
20
43.314930
11
17.347576
21
42.393819
0
LINE
8
Layer 1
10
17.347576
20
42.393819
11
17.966662
21
41.648148
0
LINE
8
Layer 1
10
17.966662
20
41.648148
11
18.757800
21
41.092129
0
LINE
8
Layer 1
10
18.757800
20
41.092129
11
19.663741
21
40.739978
0
LINE
8
Layer 1
10
19.663741
20
40.739978
11
20.627238
21
40.605906
0
LINE
8
Layer 1
10
20.627238
20
40.605906
11
21.591042
21
40.704128
0
LINE
8
Layer 1
10
21.591042
20
40.704128
11
22.497905
21
41.048859
0
LINE
8
Layer 1
10
22.497905
20
41.048859
11
23.290580
21
41.654310
0
LINE
8
Layer 1
10
23.290580
20
41.654310
11
24.007188
21
42.585711
0
LINE
8
Layer 1
10
24.007188
20
42.585711
11
24.358369
21
43.638216
0
LINE
8
Layer 1
10
24.358369
20
43.638216
11
24.376357
21
44.734873
0
LINE
8
Layer 1
10
24.376357
20
44.734873
11
24.093381
21
45.798730
0
LINE
8
Layer 1
10
24.093381
20
45.798730
11
23.541675
21
46.752834
0
LINE
8
Layer 1
10
23.541675
20
46.752834
11
22.753470
21
47.520232
0
LINE
8
Layer 1
10
22.753470
20
47.520232
11
21.760997
21
48.023971
0
LINE
8
Layer 1
10
21.760997
20
48.023971
11
20.596490
21
48.187100
0
LINE
8
Layer 1
10
20.596490
20
48.187100
11
20.596500
21
48.187100
0
LINE
8
Layer 1
10
39.640700
20
51.936500
11
39.563986
21
51.091230
0
LINE
8
Layer 1
10
39.563986
20
51.091230
11
39.291241
21
50.299917
0
LINE
8
Layer 1
10
39.291241
20
50.299917
11
38.851066
21
49.588363
0
LINE
8
Layer 1
10
38.851066
20
49.588363
11
38.272061
21
48.982372
0
LINE
8
Layer 1
10
38.272061
20
48.982372
11
37.582825
21
48.507747
0
LINE
8
Layer 1
10
37.582825
20
48.507747
11
36.811960
21
48.190289
0
LINE
8
Layer 1
10
36.811960
20
48.190289
11
35.988065
21
48.055803
0
LINE
8
Layer 1
10
35.988065
20
48.055803
11
35.139740
21
48.130090
0
LINE
8
Layer 1
10
35.139740
20
48.130090
11
34.298885
21
48.377607
0
LINE
8
Layer 1
10
34.298885
20
48.377607
11
33.562081
21
48.819136
0
LINE
8
Layer 1
10
33.562081
20
48.819136
11
32.947374
21
49.417856
0
LINE
8
Layer 1
10
32.947374
20
49.417856
11
32.472811
21
50.136942
0
LINE
8
Layer 1
10
32.472811
20
50.136942
11
32.156441
21
50.939572
0
LINE
8
Layer 1
10
32.156441
20
50.939572
11
32.016311
21
51.788922
0
LINE
8
Layer 1
10
32.016311
20
51.788922
11
32.070468
21
52.648169
0
LINE
8
Layer 1
10
32.070468
20
52.648169
11
32.336960
21
53.480490
0
LINE
8
Layer 1
10
32.336960
20
53.480490
11
32.733568
21
54.216489
0
LINE
8
Layer 1
10
32.733568
20
54.216489
11
33.286206
21
54.826884
0
LINE
8
Layer 1
10
33.286206
20
54.826884
11
33.959298
21
55.299957
0
LINE
8
Layer 1
10
33.959298
20
55.299957
11
34.717265
21
55.623993
0
LINE
8
Layer 1
10
34.717265
20
55.623993
11
35.524530
21
55.787272
0
LINE
8
Layer 1
10
35.524530
20
55.787272
11
36.345516
21
55.778078
0
LINE
8
Layer 1
10
36.345516
20
55.778078
11
37.144645
21
55.584693
0
LINE
8
Layer 1
10
37.144645
20
55.584693
11
37.886340
21
55.195400
0
LINE
8
Layer 1
10
37.886340
20
55.195400
11
38.621072
21
54.572916
0
LINE
8
Layer 1
10
38.621072
20
54.572916
11
39.175109
21
53.788177
0
LINE
8
Layer 1
10
39.175109
20
53.788177
11
39.523351
21
52.892327
0
LINE
8
Layer 1
10
39.523351
20
52.892327
11
39.640700
21
51.936510
0
LINE
8
Layer 1
10
39.640700
20
51.936510
11
39.640700
21
51.936500
0
LINE
8
Layer 1
10
20.616300
20
62.453400
11
20.616300
21
48.193800
0
LINE
8
Layer 1
10
20.616300
20
40.600230
11
20.616300
21
26.329030
0
LINE
8
Layer 1
10
35.856300
20
62.453430
11
35.856300
21
55.807510
0
LINE
8
Layer 1
10
35.856300
20
48.065640
11
35.856300
21
26.329040
0
LINE
8
Layer 1
10
28.222200
20
62.453400
11
28.222200
21
40.569100
0
LINE
8
Layer 1
10
28.222200
20
32.822500
11
28.222200
21
26.328950
0
LINE
8
Layer 1
10
10.160000
20
36.757100
11
24.401400
21
36.757100
0
LINE
8
Layer 1
10
32.017560
20
36.757100
11
46.284360
21
36.757100
0
LINE
8
Layer 1
10
10.159960
20
44.377090
11
16.781070
21
44.377090
0
LINE
8
Layer 1
10
24.389660
20
44.377090
11
46.284360
21
44.377090
0
LINE
8
Layer 1
10
10.159960
20
51.997080
11
32.022860
21
51.997080
0
LINE
8
Layer 1
10
39.636610
20
51.997080
11
46.284350
21
51.997080
0
LINE
8
Layer 1
10
12.982200
20
59.614700
11
43.429200
21
59.614700
0
LINE
8
Layer 1
10
43.429200
20
59.614700
11
43.429200
21
29.167700
0
LINE
8
Layer 1
10
43.429200
20
29.167700
11
12.982200
21
29.167700
0
LINE
8
Layer 1
10
12.982200
20
29.167700
11
12.982200
21
59.614700
0
LINE
8
Layer 1
10
122.542000
20
-116.902000
11
101.531000
21
-116.902000
0
LINE
8
Layer 1
10
101.531000
20
-116.902000
11
101.531000
21
-120.486000
0
LINE
8
Layer 1
10
101.531000
20
-120.486000
11
118.152000
21
-120.486000
0
LINE
8
Layer 1
10
118.152000
20
-120.486000
11
118.152000
21
-123.756000
0
LINE
8
Layer 1
10
118.152000
20
-123.756000
11
118.027925
21
-125.300197
0
LINE
8
Layer 1
10
118.027925
20
-125.300197
11
117.663400
21
-126.583994
0
LINE
8
Layer 1
10
117.663400
20
-126.583994
11
117.069976
21
-127.624192
0
LINE
8
Layer 1
10
117.069976
20
-127.624192
11
116.259201
21
-128.437591
0
LINE
8
Layer 1
10
116.259201
20
-128.437591
11
115.242627
21
-129.040991
0
LINE
8
Layer 1
10
115.242627
20
-129.040991
11
114.031804
21
-129.451190
0
LINE
8
Layer 1
10
114.031804
20
-129.451190
11
112.638282
21
-129.684990
0
LINE
8
Layer 1
10
112.638282
20
-129.684990
11
111.073610
21
-129.759190
0
LINE
8
Layer 1
10
111.073610
20
-129.759190
11
93.915100
21
-129.760000
0
LINE
8
Layer 1
10
93.915100
20
-129.760000
11
92.378778
21
-129.695075
0
LINE
8
Layer 1
10
92.378778
20
-129.695075
11
90.948506
21
-129.475800
0
LINE
8
Layer 1
10
90.948506
20
-129.475800
11
89.654733
21
-129.065426
0
LINE
8
Layer 1
10
89.654733
20
-129.065426
11
88.527909
21
-128.427201
0
LINE
8
Layer 1
10
88.527909
20
-128.427201
11
87.598484
21
-127.524377
0
LINE
8
Layer 1
10
87.598484
20
-127.524377
11
86.896910
21
-126.320204
0
LINE
8
Layer 1
10
86.896910
20
-126.320204
11
86.453635
21
-124.777932
0
LINE
8
Layer 1
10
86.453635
20
-124.777932
11
86.299110
21
-122.860810
0
LINE
8
Layer 1
10
86.299110
20
-122.860810
11
86.299200
21
-110.675000
0
LINE
8
Layer 1
10
86.299200
20
-110.675000
11
86.453725
21
-108.757878
0
LINE
8
Layer 1
10
86.453725
20
-108.757878
11
86.896998
21
-107.215606
0
LINE
8
Layer 1
10
86.896998
20
-107.215606
11
87.598572
21
-106.011433
0
LINE
8
Layer 1
10
87.598572
20
-106.011433
11
88.527995
21
-105.108609
0
LINE
8
Layer 1
10
88.527995
20
-105.108609
11
89.654818
21
-104.470384
0
LINE
8
Layer 1
10
89.654818
20
-104.470384
11
90.948592
21
-104.060010
0
LINE
8
Layer 1
10
90.948592
20
-104.060010
11
92.378865
21
-103.840735
0
LINE
8
Layer 1
10
92.378865
20
-103.840735
11
93.915190
21
-103.775810
0
LINE
8
Layer 1
10
93.915190
20
-103.775810
11
105.294000
21
-103.776000
0
LINE
8
Layer 1
10
105.294000
20
-103.776000
11
111.848800
21
-103.940500
0
LINE
8
Layer 1
10
111.848800
20
-103.940500
11
114.069900
21
-104.236687
0
LINE
8
Layer 1
10
114.069900
20
-104.236687
11
115.698800
21
-104.755998
0
LINE
8
Layer 1
10
115.698800
20
-104.755998
11
116.819500
21
-105.558810
0
LINE
8
Layer 1
10
116.819500
20
-105.558810
11
117.516000
21
-106.705495
0
LINE
8
Layer 1
10
117.516000
20
-106.705495
11
117.872300
21
-108.256431
0
LINE
8
Layer 1
10
117.872300
20
-108.256431
11
117.972400
21
-110.271990
0
LINE
8
Layer 1
10
117.972400
20
-110.271990
11
122.094000
21
-110.272000
0
LINE
8
Layer 1
10
122.094000
20
-110.272000
11
122.094000
21
-109.107000
0
LINE
8
Layer 1
10
122.094000
20
-109.107000
11
122.022644
21
-107.773950
0
LINE
8
Layer 1
10
122.022644
20
-107.773950
11
121.815050
21
-106.575891
0
LINE
8
Layer 1
10
121.815050
20
-106.575891
11
121.480932
21
-105.506063
0
LINE
8
Layer 1
10
121.480932
20
-105.506063
11
121.030001
21
-104.557707
0
LINE
8
Layer 1
10
121.030001
20
-104.557707
11
119.816553
21
-102.998373
0
LINE
8
Layer 1
10
119.816553
20
-102.998373
11
118.252404
21
-101.843814
0
LINE
8
Layer 1
10
118.252404
20
-101.843814
11
116.415254
21
-101.039954
0
LINE
8
Layer 1
10
116.415254
20
-101.039954
11
114.382804
21
-100.532718
0
LINE
8
Layer 1
10
114.382804
20
-100.532718
11
112.232753
21
-100.268032
0
LINE
8
Layer 1
10
112.232753
20
-100.268032
11
110.042800
21
-100.191820
0
LINE
8
Layer 1
10
110.042800
20
-100.191820
11
93.467100
21
-100.192000
0
LINE
8
Layer 1
10
93.467100
20
-100.192000
11
90.449406
21
-100.377412
0
LINE
8
Layer 1
10
90.449406
20
-100.377412
11
87.956708
21
-100.936099
0
LINE
8
Layer 1
10
87.956708
20
-100.936099
11
85.951209
21
-101.871735
0
LINE
8
Layer 1
10
85.951209
20
-101.871735
11
84.395107
21
-103.187996
0
LINE
8
Layer 1
10
84.395107
20
-103.187996
11
83.250605
21
-104.888558
0
LINE
8
Layer 1
10
83.250605
20
-104.888558
11
82.479903
21
-106.977096
0
LINE
8
Layer 1
10
82.479903
20
-106.977096
11
82.045201
21
-109.457285
0
LINE
8
Layer 1
10
82.045201
20
-109.457285
11
81.908700
21
-112.332800
0
LINE
8
Layer 1
10
81.908700
20
-112.332800
11
81.908800
21
-121.203000
0
LINE
8
Layer 1
10
81.908800
20
-121.203000
11
82.045300
21
-124.078510
0
LINE
8
Layer 1
10
82.045300
20
-124.078510
11
82.480000
21
-126.558696
0
LINE
8
Layer 1
10
82.480000
20
-126.558696
11
83.250700
21
-128.647233
0
LINE
8
Layer 1
10
83.250700
20
-128.647233
11
84.395200
21
-130.347796
0
LINE
8
Layer 1
10
84.395200
20
-130.347796
11
85.951300
21
-131.664060
0
LINE
8
Layer 1
10
85.951300
20
-131.664060
11
87.956800
21
-132.599699
0
LINE
8
Layer 1
10
87.956800
20
-132.599699
11
90.449500
21
-133.158387
0
LINE
8
Layer 1
10
90.449500
20
-133.158387
11
93.467200
21
-133.343800
0
LINE
8
Layer 1
10
93.467200
20
-133.343800
11
111.566000
21
-133.344000
0
LINE
8
Layer 1
10
111.566000
20
-133.344000
11
114.365735
21
-133.192012
0
LINE
8
Layer 1
10
114.365735
20
-133.192012
11
116.701896
21
-132.716100
0
LINE
8
Layer 1
10
116.701896
20
-132.716100
11
118.602308
21
-131.886337
0
LINE
8
Layer 1
10
118.602308
20
-131.886337
11
120.094796
21
-130.672800
0
LINE
8
Layer 1
10
120.094796
20
-130.672800
11
121.207185
21
-129.045562
0
LINE
8
Layer 1
10
121.207185
20
-129.045562
11
121.967299
21
-126.974700
0
LINE
8
Layer 1
10
121.967299
20
-126.974700
11
122.402962
21
-124.430287
0
LINE
8
Layer 1
10
122.402962
20
-124.430287
11
122.542000
21
-121.382400
0
LINE
8
Layer 1
10
122.542000
20
-121.382400
11
122.542000
21
-116.902000
0
LINE
8
Layer 1
10
166.849000
20
-122.860000
11
166.694475
21
-124.777122
0
LINE
8
Layer 1
10
166.694475
20
-124.777122
11
166.251202
21
-126.319394
0
LINE
8
Layer 1
10
166.251202
20
-126.319394
11
165.549628
21
-127.523567
0
LINE
8
Layer 1
10
165.549628
20
-127.523567
11
164.620205
21
-128.426391
0
LINE
8
Layer 1
10
164.620205
20
-128.426391
11
163.493382
21
-129.064616
0
LINE
8
Layer 1
10
163.493382
20
-129.064616
11
162.199608
21
-129.474990
0
LINE
8
Layer 1
10
162.199608
20
-129.474990
11
160.769335
21
-129.694265
0
LINE
8
Layer 1
10
160.769335
20
-129.694265
11
159.233010
21
-129.759190
0
LINE
8
Layer 1
10
159.233010
20
-129.759190
11
141.448000
21
-129.760000
0
LINE
8
Layer 1
10
141.448000
20
-129.760000
11
139.911678
21
-129.695075
0
LINE
8
Layer 1
10
139.911678
20
-129.695075
11
138.481406
21
-129.475800
0
LINE
8
Layer 1
10
138.481406
20
-129.475800
11
137.187633
21
-129.065426
0
LINE
8
Layer 1
10
137.187633
20
-129.065426
11
136.060809
21
-128.427201
0
LINE
8
Layer 1
10
136.060809
20
-128.427201
11
135.131384
21
-127.524377
0
LINE
8
Layer 1
10
135.131384
20
-127.524377
11
134.429810
21
-126.320204
0
LINE
8
Layer 1
10
134.429810
20
-126.320204
11
133.986535
21
-124.777932
0
LINE
8
Layer 1
10
133.986535
20
-124.777932
11
133.832010
21
-122.860810
0
LINE
8
Layer 1
10
133.832010
20
-122.860810
11
133.832000
21
-110.675000
0
LINE
8
Layer 1
10
133.832000
20
-110.675000
11
133.986525
21
-108.757878
0
LINE
8
Layer 1
10
133.986525
20
-108.757878
11
134.429798
21
-107.215606
0
LINE
8
Layer 1
10
134.429798
20
-107.215606
11
135.131372
21
-106.011433
0
LINE
8
Layer 1
10
135.131372
20
-106.011433
11
136.060795
21
-105.108609
0
LINE
8
Layer 1
10
136.060795
20
-105.108609
11
137.187618
21
-104.470384
0
LINE
8
Layer 1
10
137.187618
20
-104.470384
11
138.481392
21
-104.060010
0
LINE
8
Layer 1
10
138.481392
20
-104.060010
11
139.911665
21
-103.840735
0
LINE
8
Layer 1
10
139.911665
20
-103.840735
11
141.447990
21
-103.775810
0
LINE
8
Layer 1
10
141.447990
20
-103.775810
11
159.233000
21
-103.776000
0
LINE
8
Layer 1
10
159.233000
20
-103.776000
11
160.769322
21
-103.840925
0
LINE
8
Layer 1
10
160.769322
20
-103.840925
11
162.199594
21
-104.060200
0
LINE
8
Layer 1
10
162.199594
20
-104.060200
11
163.493367
21
-104.470574
0
LINE
8
Layer 1
10
163.493367
20
-104.470574
11
164.620191
21
-105.108799
0
LINE
8
Layer 1
10
164.620191
20
-105.108799
11
165.549616
21
-106.011623
0
LINE
8
Layer 1
10
165.549616
20
-106.011623
11
166.251190
21
-107.215796
0
LINE
8
Layer 1
10
166.251190
20
-107.215796
11
166.694465
21
-108.758068
0
LINE
8
Layer 1
10
166.694465
20
-108.758068
11
166.848990
21
-110.675190
0
LINE
8
Layer 1
10
166.848990
20
-110.675190
11
166.849000
21
-122.860000
0
LINE
8
Layer 1
10
129.441100
20
-121.202400
11
129.577600
21
-124.077910
0
LINE
8
Layer 1
10
129.577600
20
-124.077910
11
130.012300
21
-126.558096
0
LINE
8
Layer 1
10
130.012300
20
-126.558096
11
130.783000
21
-128.646633
0
LINE
8
Layer 1
10
130.783000
20
-128.646633
11
131.927500
21
-130.347196
0
LINE
8
Layer 1
10
131.927500
20
-130.347196
11
133.483600
21
-131.663460
0
LINE
8
Layer 1
10
133.483600
20
-131.663460
11
135.489100
21
-132.599099
0
LINE
8
Layer 1
10
135.489100
20
-132.599099
11
137.981800
21
-133.157787
0
LINE
8
Layer 1
10
137.981800
20
-133.157787
11
140.999500
21
-133.343200
0
LINE
8
Layer 1
10
140.999500
20
-133.343200
11
159.681000
21
-133.344000
0
LINE
8
Layer 1
10
159.681000
20
-133.344000
11
162.698694
21
-133.158588
0
LINE
8
Layer 1
10
162.698694
20
-133.158588
11
165.191392
21
-132.599900
0
LINE
8
Layer 1
10
165.191392
20
-132.599900
11
167.196891
21
-131.664263
0
LINE
8
Layer 1
10
167.196891
20
-131.664263
11
168.752993
21
-130.348000
0
LINE
8
Layer 1
10
168.752993
20
-130.348000
11
169.897495
21
-128.647438
0
LINE
8
Layer 1
10
169.897495
20
-128.647438
11
170.668197
21
-126.558900
0
LINE
8
Layer 1
10
170.668197
20
-126.558900
11
171.102899
21
-124.078713
0
LINE
8
Layer 1
10
171.102899
20
-124.078713
11
171.239400
21
-121.203200
0
LINE
8
Layer 1
10
171.239400
20
-121.203200
11
171.240000
21
-112.332000
0
LINE
8
Layer 1
10
171.240000
20
-112.332000
11
171.103500
21
-109.456490
0
LINE
8
Layer 1
10
171.103500
20
-109.456490
11
170.668800
21
-106.976304
0
LINE
8
Layer 1
10
170.668800
20
-106.976304
11
169.898100
21
-104.887767
0
LINE
8
Layer 1
10
169.898100
20
-104.887767
11
168.753600
21
-103.187204
0
LINE
8
Layer 1
10
168.753600
20
-103.187204
11
167.197500
21
-101.870940
0
LINE
8
Layer 1
10
167.197500
20
-101.870940
11
165.192000
21
-100.935301
0
LINE
8
Layer 1
10
165.192000
20
-100.935301
11
162.699300
21
-100.376613
0
LINE
8
Layer 1
10
162.699300
20
-100.376613
11
159.681600
21
-100.191200
0
LINE
8
Layer 1
10
159.681600
20
-100.191200
11
141.000000
21
-100.192000
0
LINE
8
Layer 1
10
141.000000
20
-100.192000
11
137.982306
21
-100.377412
0
LINE
8
Layer 1
10
137.982306
20
-100.377412
11
135.489608
21
-100.936099
0
LINE
8
Layer 1
10
135.489608
20
-100.936099
11
133.484109
21
-101.871735
0
LINE
8
Layer 1
10
133.484109
20
-101.871735
11
131.928008
21
-103.187996
0
LINE
8
Layer 1
10
131.928008
20
-103.187996
11
130.783505
21
-104.888558
0
LINE
8
Layer 1
10
130.783505
20
-104.888558
11
130.012803
21
-106.977096
0
LINE
8
Layer 1
10
130.012803
20
-106.977096
11
129.578101
21
-109.457285
0
LINE
8
Layer 1
10
129.578101
20
-109.457285
11
129.441600
21
-112.332800
0
LINE
8
Layer 1
10
129.441600
20
-112.332800
11
129.441100
21
-121.202400
 0 
ENDSEC
 0 
EOF