<?xml version="1.0" encoding="UTF-8" standalone="no"?>
<svg
   xmlns:dc="http://purl.org/dc/elements/1.1/"
   xmlns:cc="http://creativecommons.org/ns#"
   xmlns:rdf="http://www.w3.org/1999/02/22-rdf-syntax-ns#"
   xmlns:svg="http://www.w3.org/2000/svg"
   xmlns="http://www.w3.org/2000/svg"
   xmlns:sodipodi="http://sodipodi.sourceforge.net/DTD/sodipodi-0.dtd"
   xmlns:inkscape="http://www.inkscape.org/namespaces/inkscape"
   width="200mm"
   height="230mm"
   viewBox="0 0 200 230"
   version="1.1"
   id="svg5"
   sodipodi:docname="go-schild23.svg"
   inkscape:version="1.0.1 (3bc2e813f5, 2020-09-07)">
  <metadata
     id="metadata914">
    <rdf:RDF>
      <cc:Work
         rdf:about="">
        <dc:format>image/svg+xml</dc:format>
        <dc:type
           rdf:resource="http://purl.org/dc/dcmitype/StillImage" />
        <dc:title></dc:title>
      </cc:Work>
    </rdf:RDF>
  </metadata>
  <sodipodi:namedview
     pagecolor="#ffffff"
     bordercolor="#666666"
     borderopacity="1"
     objecttolerance="10"
     gridtolerance="10"
     guidetolerance="10"
     inkscape:pageopacity="0"
     inkscape:pageshadow="2"
     inkscape:window-width="1920"
     inkscape:window-height="1017"
     id="namedview912"
     showgrid="false"
     showguides="true"
     inkscape:guide-bbox="true"
     inkscape:zoom="0.97780797"
     inkscape:cx="175.45901"
     inkscape:cy="434.64567"
     inkscape:window-x="-8"
     inkscape:window-y="-8"
     inkscape:window-maximized="1"
     inkscape:current-layer="svg5">
    <sodipodi:guide
       position="110.94118,156.4"
       orientation="0,-1"
       id="guide953" />
  </sodipodi:namedview>
  <defs
     id="defs2">
    <rect
       x="151.73422"
       y="553.95033"
       width="467.24506"
       height="193.88262"
       id="rect895" />
  </defs>
  <path
     id="rect352"
     style="fill:none;stroke:#000000;stroke-width:1.32291668;stroke-linecap:square;stroke-linejoin:miter;stroke-dasharray:none;stroke-opacity:1;stroke-miterlimit:4"
     d="m 45.999935,18.766677 c 35.961108,0 71.922215,0 107.883325,0 m 0,0 c 0,35.961108 0,71.922215 0,107.883323 m 0,0 c -35.96111,0 -71.922217,0 -107.883325,0 m 0,0 c 0,-35.961108 0,-71.922215 0,-107.883323" />
  <path
     id="path8956"
     style="fill:none;stroke:#000000;stroke-width:1.32291668;stroke-dasharray:none;stroke-opacity:1;stroke-miterlimit:4"
     d="m 140.44499,45.758333 c 7.85167,0 15.70334,0 23.55501,0" />
  <path
     id="path418"
     style="fill:none;stroke:#000000;stroke-width:1.32291668;stroke-dasharray:none;stroke-opacity:1;stroke-miterlimit:4"
     d="m 36.000001,45.758333 c 25.822366,0 51.644733,0 77.467099,0" />
  <path
     id="path8968"
     style="fill:none;stroke:#000000;stroke-width:1.32291668;stroke-dasharray:none;stroke-opacity:1;stroke-miterlimit:4"
     d="m 86.420236,72.758333 c 25.859924,0 51.719844,0 77.579764,0" />
  <path
     id="path418-7"
     style="fill:none;stroke:#000000;stroke-width:1.32291668;stroke-dasharray:none;stroke-opacity:1;stroke-miterlimit:4"
     d="m 36,72.758333 c 7.820219,0 15.640439,0 23.460658,0" />
  <path
     id="path9028"
     style="fill:none;stroke:#000000;stroke-width:1.32291668;stroke-dasharray:none;stroke-opacity:1;stroke-miterlimit:4"
     d="m 113.44814,99.758333 c 16.85062,0 33.70124,0 50.55186,0" />
  <path
     id="path418-2"
     style="fill:none;stroke:#000000;stroke-width:1.32291668;stroke-dasharray:none;stroke-opacity:1;stroke-miterlimit:4"
     d="m 36.000001,99.758333 c 16.820572,0 33.641143,0 50.461715,0" />
  <path
     id="path8972"
     style="fill:none;stroke:#000000;stroke-width:1.32291668;stroke-dasharray:none;stroke-opacity:1;stroke-miterlimit:4"
     d="m 100,113.69968 c 0,7.66955 0,15.3391 0,23.00865" />
  <path
     id="path418-6"
     style="fill:none;stroke:#000000;stroke-width:1.32291668;stroke-dasharray:none;stroke-opacity:1;stroke-miterlimit:4"
     d="m 100,8.7083333 c 0,25.8475867 0,51.6951727 0,77.5427597" />
  <path
     id="path8960"
     style="fill:none;stroke:#000000;stroke-width:1.32291668;stroke-dasharray:none;stroke-opacity:1;stroke-miterlimit:4"
     d="m 127.05,59.688729 c 0,25.6732 0,51.346401 0,77.019601" />
  <path
     id="path418-7-6"
     style="fill:none;stroke:#000000;stroke-width:1.32291668;stroke-dasharray:none;stroke-opacity:1;stroke-miterlimit:4"
     d="m 127.05,8.7083333 c 0,7.8495177 0,15.6990347 0,23.5485517" />
  <path
     id="path8964"
     style="fill:none;stroke:#000000;stroke-width:1.32291668;stroke-dasharray:none;stroke-opacity:1;stroke-miterlimit:4"
     d="m 73.05,86.140904 c 0,16.855806 0,33.711616 0,50.567426" />
  <path
     id="path418-2-7"
     style="fill:none;stroke:#000000;stroke-width:1.32291668;stroke-dasharray:none;stroke-opacity:1;stroke-miterlimit:4"
     d="m 73.05,8.7083333 c 0,16.8420677 0,33.6841347 0,50.5262027" />
  <path
     id="path691"
     style="fill:none;stroke:#000000;stroke-width:1.32291668;stroke-dasharray:none;stroke-opacity:1;stroke-miterlimit:4"
     d="m 140.45913,45.973054 c 0.29135,8.160439 -7.90727,15.256813 -15.94829,13.4873 -8.37981,-1.306167 -13.50914,-11.336855 -9.93113,-18.958124 2.89827,-7.510814 13.03843,-10.717265 19.66317,-6.076449 3.8585,2.47705 6.2468,6.970467 6.21625,11.547273 z" />
  <path
     id="path691-5"
     style="fill:none;stroke:#000000;stroke-width:1.32291668;stroke-dasharray:none;stroke-opacity:1;stroke-miterlimit:4"
     d="m 72.979951,59.258398 c -8.758252,-0.468933 -15.883519,8.980574 -12.893069,17.263619 2.419409,9.487497 15.668962,12.881427 22.43905,5.884093 8.599037,-7.986113 2.168482,-23.457891 -9.545981,-23.147712 z" />
  <path
     id="path691-1"
     style="fill:none;stroke:#000000;stroke-width:1.32291668;stroke-dasharray:none;stroke-opacity:1;stroke-miterlimit:4"
     d="m 113.474,99.973053 c 0.29135,8.160437 -7.90727,15.256807 -15.94829,13.487297 -8.379806,-1.30617 -13.509136,-11.33686 -9.931127,-18.958124 2.89827,-7.510814 13.038427,-10.717265 19.663167,-6.076449 3.8585,2.47705 6.2468,6.970469 6.21625,11.547276 z" />
  <g
     aria-label="GO"
     transform="matrix(0.26458333,0,0,0.26458333,-18.663425,-10.777049)"
     id="text893"
     style="font-weight:500;font-size:158.74px;font-family:'Eurostile Extended #2';-inkscape-font-specification:'Eurostile Extended #2 Medium';text-align:end;text-anchor:end;white-space:pre;shape-inside:url(#rect895);display:inline;fill:none;stroke:#000000;stroke-width:5.0000001;stroke-dasharray:none;stroke-miterlimit:4;stroke-opacity:1">
    <path
       d="m 434.20534,644.22038 h -74.44906 v 12.6992 h 58.89254 v 11.58802 c 0,15.874 -9.5244,21.27116 -25.08092,21.27116 h -60.79743 c -14.92156,0 -26.9858,-4.44472 -26.9858,-24.44596 v -43.17728 c 0,-20.00124 12.06424,-24.44596 26.9858,-24.44596 h 40.31997 c 38.41508,0 44.92342,1.5874 44.92342,23.0173 h 14.60408 v -4.12724 c 0,-26.50958 -22.06486,-31.58926 -42.70106,-31.58926 h -58.73381 c -31.11304,0 -40.95492,13.96912 -40.95492,43.01854 v 31.43052 c 0,29.04942 9.84188,43.01855 40.95492,43.01855 h 64.13097 c 28.73194,0 38.8913,-11.11181 38.8913,-42.38359 z"
       id="path8900"
       style="stroke-width:5.0000001;stroke-dasharray:none;stroke:#000000;fill:none;stroke-miterlimit:4;stroke-opacity:1" />
    <path
       d="m 591.19903,665.3328 c 0,20.00124 -12.06424,24.44596 -26.9858,24.44596 h -63.01978 c -14.92156,0 -26.9858,-4.44472 -26.9858,-24.44596 v -43.17728 c 0,-20.00124 12.06424,-24.44596 26.9858,-24.44596 h 63.01978 c 14.92156,0 26.9858,4.44472 26.9858,24.44596 z m -132.5479,-5.87338 c 0,29.04942 9.84188,43.01855 40.95492,43.01855 h 66.19458 c 31.11304,0 40.95492,-13.96913 40.95492,-43.01855 V 628.0289 c 0,-29.04942 -9.84188,-43.01854 -40.95492,-43.01854 h -66.19458 c -31.11304,0 -40.95492,13.96912 -40.95492,43.01854 z"
       id="path8902"
       style="stroke-width:5.0000001;stroke-dasharray:none;stroke:#000000;fill:none;stroke-miterlimit:4;stroke-opacity:1" />
  </g>
  <text
     xml:space="preserve"
     style="font-weight:500;font-size:42px;font-family:'Eurostile Extended #2';-inkscape-font-specification:'Eurostile Extended #2 Medium';text-align:end;text-anchor:end;fill:none;stroke:#000000;stroke-width:1.32291668;stroke-dasharray:none;stroke-opacity:1;stroke-miterlimit:4"
     x="53.209835"
     y="159.3109"
     id="text8172"><tspan
       id="tspan8170"
       style="stroke-width:1.32291668;stroke-dasharray:none;stroke:#000000;fill:none;stroke-miterlimit:4;stroke-opacity:1" /></text>
</svg>
