<?xml version="1.0" encoding="UTF-8" standalone="no"?>
<svg
   xmlns:dc="http://purl.org/dc/elements/1.1/"
   xmlns:cc="http://creativecommons.org/ns#"
   xmlns:rdf="http://www.w3.org/1999/02/22-rdf-syntax-ns#"
   xmlns:svg="http://www.w3.org/2000/svg"
   xmlns="http://www.w3.org/2000/svg"
   xmlns:sodipodi="http://sodipodi.sourceforge.net/DTD/sodipodi-0.dtd"
   xmlns:inkscape="http://www.inkscape.org/namespaces/inkscape"
   width="200mm"
   height="230mm"
   viewBox="0 0 200 230"
   version="1.1"
   id="svg8"
   inkscape:version="1.0.1 (3bc2e813f5, 2020-09-07)"
   sodipodi:docname="home-assistant-schild2.svg">
  <defs
     id="defs2">
    <rect
       x="14.363095"
       y="164.79762"
       width="172.35714"
       height="56.696429"
       id="rect11" />
  </defs>
  <sodipodi:namedview
     id="base"
     pagecolor="#ffffff"
     bordercolor="#666666"
     borderopacity="1.0"
     inkscape:pageopacity="0.0"
     inkscape:pageshadow="2"
     inkscape:zoom="0.35"
     inkscape:cx="1506.695"
     inkscape:cy="560"
     inkscape:document-units="mm"
     inkscape:current-layer="layer1"
     inkscape:document-rotation="0"
     showgrid="false"
     showguides="true"
     inkscape:guide-bbox="true"
     inkscape:window-width="1920"
     inkscape:window-height="1017"
     inkscape:window-x="-8"
     inkscape:window-y="-8"
     inkscape:window-maximized="1">
    <sodipodi:guide
       position="78.619048,29.672619"
       orientation="0,-1"
       id="guide10" />
    <sodipodi:guide
       position="37.915129,135.86791"
       orientation="1,0"
       id="guide907" />
    <sodipodi:guide
       position="162.03293,135.86791"
       orientation="1,0"
       id="guide909" />
  </sodipodi:namedview>
  <metadata
     id="metadata5">
    <rdf:RDF>
      <cc:Work
         rdf:about="">
        <dc:format>image/svg+xml</dc:format>
        <dc:type
           rdf:resource="http://purl.org/dc/dcmitype/StillImage" />
        <dc:title></dc:title>
      </cc:Work>
    </rdf:RDF>
  </metadata>
  <g
     inkscape:label="Ebene 1"
     inkscape:groupmode="layer"
     id="layer1">
    <path
       d="m 97.112942,150.8733 -0.119858,-0.11986 0.119858,0.11986 H 41.030804 c -1.737582,0 -3.115675,-1.40803 -3.115675,-3.11567 V 94.132095 H 23.894591 c -2.067131,0 -3.744799,-1.677666 -3.744799,-3.744799 0,-0.988629 0.389463,-1.947301 1.078502,-2.636339 L 96.633606,11.446878 c 1.827471,-1.8574207 4.793334,-1.8574207 6.650764,-0.02996 l 0.03,0.02996 39.39531,39.634973 v -7.33981 c 0,-1.737582 1.40804,-3.115674 3.11567,-3.115674 h 13.09183 c 1.73758,0 3.11568,1.408049 3.11568,3.115674 v 26.932618 l 16.74673,17.076298 c 1.43801,1.46795 1.43801,3.864629 -0.0598,5.302638 -0.68903,0.689035 -1.64771,1.0785 -2.63634,1.0785 h -14.05052 v 53.595575 c 0,1.7376 -1.40805,3.11568 -3.11567,3.11568 h -56.11218 l 0.0598,-0.0598 -0.0598,0.0598 11.68377,-11.65382 h 10.78503 c 0.83884,2.33675 3.05576,4.01443 5.6921,4.01443 3.32537,0 6.05159,-2.69625 6.05159,-6.02164 0,-3.32539 -2.69625,-6.02164 -6.05159,-6.02164 -2.63634,0 -4.88322,1.67766 -5.6921,4.01442 h -12.4627 l -10.84494,10.84495 v -13.21166 l 12.91207,-12.91208 h 20.88101 c 0.83884,2.33676 3.05576,4.01443 5.6921,4.01443 3.32539,0 6.05161,-2.69625 6.05161,-6.02165 0,-3.32537 -2.69627,-6.02163 -6.05161,-6.02163 -2.63634,0 -4.88322,1.67767 -5.6921,4.01441 H 118.9227 l 12.07323,-12.04328 V 93.772586 l 8.68795,-8.657983 c 0.77892,0.389463 1.67766,0.599181 2.60638,0.599181 3.32538,0 6.05161,-2.69627 6.05161,-6.021648 0,-3.325378 -2.69626,-6.021633 -6.05161,-6.021633 -3.32539,0 -6.0516,2.696255 -6.0516,6.021633 0,0.928714 0.2097,1.827471 0.59917,2.606382 l -5.8419,5.811929 V 69.686029 c 2.33676,-0.838826 4.0444,-3.05576 4.0444,-5.692099 0,-3.325379 -2.69627,-6.021633 -6.05161,-6.021633 -3.32537,0 -6.0516,2.696254 -6.0516,6.021633 0,2.636339 1.67767,4.853273 4.04438,5.692099 v 18.424418 l -5.84188,-5.841887 c 0.38946,-0.778911 0.59917,-1.677668 0.59917,-2.606382 0,-3.325377 -2.69626,-6.021632 -6.0516,-6.021632 -3.35535,0 -6.0516,2.696255 -6.0516,6.021632 0,3.325393 2.69625,6.021648 6.0516,6.021648 0.92872,0 1.82746,-0.209718 2.60639,-0.599167 l 8.68792,8.657971 v 8.38834 l -10.87489,10.8749 v -7.96892 c 2.33676,-0.83885 4.04438,-3.05577 4.04438,-5.692104 0,-3.325384 -2.69626,-6.021638 -6.05159,-6.021638 -3.32539,0 -6.0516,2.696254 -6.0516,6.021638 0,2.636334 1.67766,4.853254 4.04438,5.692104 v 11.98336 l -10.06603,10.06602 V 68.008361 l 8.26852,-8.268523 c 0.77893,0.389463 1.67768,0.599166 2.60638,0.599166 3.3254,0 6.05161,-2.696255 6.05161,-6.021633 0,-3.325393 -2.69626,-6.021647 -6.05161,-6.021647 -3.32538,0 -6.05158,2.696254 -6.05158,6.021647 0,0.928699 0.2097,1.827456 0.59917,2.606382 l -7.42969,7.429683 -7.429674,-7.429683 c 0.389448,-0.778926 0.599165,-1.677683 0.599165,-2.606382 0,-3.325393 -2.696254,-6.021647 -6.051604,-6.021647 -3.325378,0 -6.05159,2.696254 -6.05159,6.021647 0,3.325378 2.696254,6.021633 6.05159,6.021633 0.928714,0 1.82747,-0.209703 2.606382,-0.599166 l 8.268524,8.268523 V 110.18979 L 83.511869,95.719893 V 84.155945 c 2.336764,-0.83884 4.044388,-3.05576 4.044388,-5.692098 0,-3.325379 -2.696254,-6.021648 -6.051604,-6.021648 -3.325379,0 -6.05159,2.696269 -6.05159,6.021648 0,2.636338 1.677668,4.853258 4.044374,5.692098 v 7.549513 L 68.203126,80.441104 V 69.266609 c 2.336749,-0.838827 4.044389,-3.05576 4.044389,-5.6921 0,-3.325378 -2.696269,-6.021632 -6.051606,-6.021632 -3.325378,0 -6.05159,2.696254 -6.05159,6.021632 0,2.63634 1.677668,4.853273 4.044375,5.6921 v 12.852163 l 12.462701,12.432744 h -7.16005 c -0.838841,-2.336763 -3.05576,-4.014432 -5.692099,-4.014432 -3.325393,0 -6.051606,2.696257 -6.051606,6.021632 0,3.325387 2.696255,6.021634 6.051606,6.021634 2.636339,0 4.883216,-1.67767 5.692099,-4.014421 H 80.695784 L 98.0417,115.88187 v 30.10822 l -9.257153,-9.25715 v -11.59391 c 2.336764,-0.83884 4.04439,-3.05576 4.04439,-5.6921 0,-3.32538 -2.696256,-6.02164 -6.051605,-6.02164 -3.325378,0 -6.051591,2.69626 -6.051591,6.02164 0,2.63634 1.677668,4.85326 4.044389,5.6921 v 7.54951 L 71.288843,119.23722 c 0.389463,-0.77892 0.599166,-1.67766 0.599166,-2.60637 0,-3.32538 -2.696254,-6.02165 -6.05159,-6.02165 -3.325393,0 -6.051605,2.69627 -6.051605,6.02165 0,3.32537 2.696254,6.02163 6.051605,6.02163 0.928699,0 1.827456,-0.2097 2.606367,-0.59917 l 13.481287,13.45133 h -7.160049 c -0.838842,-2.33676 -3.05576,-4.01443 -5.6921,-4.01443 -3.325393,0 -6.051604,2.69626 -6.051604,6.02165 0,3.32539 2.696254,6.02164 6.051604,6.02164 2.63634,0 4.883216,-1.67768 5.6921,-4.01442 H 85.968462 L 97.112986,150.8733 M 66.106037,61.147887 c -1.348135,0 -2.426636,1.078503 -2.426636,2.426622 0,1.318177 1.078501,2.426637 2.426636,2.426637 1.348135,0 2.426636,-1.078502 2.426636,-2.426637 0,-1.348119 -1.078501,-2.426622 -2.426636,-2.426622 z M 81.41478,76.03721 c -1.34812,0 -2.426622,1.078501 -2.426622,2.426637 0,1.318162 1.078502,2.426635 2.426622,2.426635 1.348135,0 2.426636,-1.078515 2.426636,-2.426635 0,-1.348136 -1.078501,-2.426637 -2.426636,-2.426637 z m 5.662141,-24.146475 c -1.348134,0 -2.426635,1.078501 -2.426635,2.426636 0,1.348121 1.078501,2.426622 2.426635,2.426622 1.348121,0 2.426637,-1.078501 2.426637,-2.426622 0,-1.348135 -1.108459,-2.426636 -2.426637,-2.426636 z m 55.213339,30.168122 c 1.34813,0 2.42663,-1.078501 2.42663,-2.426636 0,-1.348135 -1.0785,-2.426636 -2.42663,-2.426636 -1.34813,0 -2.42664,1.078501 -2.42664,2.426636 0,1.348135 1.07851,2.426636 2.42664,2.426636 z M 112.87109,56.714035 c 1.34814,0 2.42665,-1.078501 2.42665,-2.426621 0,-1.348135 -1.07851,-2.426637 -2.42665,-2.426637 -1.34812,0 -2.42662,1.078502 -2.42662,2.426637 0,1.34812 1.0785,2.426621 2.42662,2.426621 z m 2.8161,20.521522 c -1.34813,0 -2.42663,1.078501 -2.42663,2.426621 0,1.348135 1.0785,2.426637 2.42663,2.426637 1.34812,0 2.42662,-1.078502 2.42662,-2.426637 0,-1.34812 -1.10845,-2.426621 -2.42662,-2.426621 z M 63.679401,94.132095 c -1.34812,0 -2.426623,1.078499 -2.426623,2.426621 0,1.318179 1.078503,2.42663 2.426623,2.42663 1.348134,0 2.426636,-1.078504 2.426636,-2.42663 0,-1.348122 -1.078502,-2.426621 -2.426636,-2.426621 z m 77.801979,26.153675 c 1.34813,0 2.42663,-1.0785 2.42663,-2.42663 0,-1.34813 -1.0785,-2.42664 -2.42663,-2.42664 -1.34813,0 -2.42663,1.07851 -2.42663,2.42664 0,1.34813 1.0785,2.42663 2.42663,2.42663 z M 128.98872,61.567293 c -1.34812,0 -2.42662,1.078517 -2.42662,2.426637 0,1.318177 1.0785,2.426636 2.42662,2.426636 1.34813,0 2.42663,-1.078502 2.42663,-2.426636 -0.03,-1.34812 -1.10845,-2.426637 -2.42663,-2.426637 z m -14.91928,35.380889 c -1.34813,0 -2.42663,1.0785 -2.42663,2.426624 0,1.348114 1.0785,2.426634 2.42663,2.426634 1.34812,0 2.42662,-1.07852 2.42662,-2.426634 0,-1.348124 -1.0785,-2.426624 -2.42662,-2.426624 z M 65.716574,114.26413 c -1.34812,0 -2.426622,1.0785 -2.426622,2.42663 0,1.31816 1.078502,2.42664 2.426622,2.42664 1.348135,0 2.426636,-1.07851 2.426636,-2.42664 -0.03,-1.34813 -1.108459,-2.42663 -2.426636,-2.42663 z m 3.205548,20.91097 c -1.348121,0 -2.426622,1.0785 -2.426622,2.42664 0,1.31815 1.078501,2.42663 2.426622,2.42663 1.348134,0 2.426636,-1.0785 2.426636,-2.42663 0,-1.34814 -1.078502,-2.42664 -2.426636,-2.42664 z m 62.073808,4.43385 c 1.34813,0 2.42664,-1.0785 2.42664,-2.42663 0,-1.31817 -1.07851,-2.42663 -2.42664,-2.42663 -1.34813,0 -2.42663,1.07849 -2.42663,2.42663 0,1.34813 1.0785,2.42663 2.42663,2.42663 z M 86.657501,117.08022 c -1.34812,0 -2.426637,1.0785 -2.426637,2.42663 0,1.31817 1.078517,2.42663 2.426637,2.42663 1.348134,0 2.426637,-1.0785 2.426637,-2.42663 0,-1.34813 -1.078503,-2.42663 -2.426637,-2.42663 z"
       style="fill:#ffffff;stroke:#000000;stroke-width:0.299584;stroke-opacity:1"
       id="path4" />
    <text
       xml:space="preserve"
       id="text9"
       style="font-style:normal;font-variant:normal;font-weight:bold;font-stretch:normal;font-size:20px;line-height:1.05;font-family:Eurostile;-inkscape-font-specification:'Eurostile Bold';white-space:pre;shape-inside:url(#rect11);fill:none;fill-opacity:1;stroke:#000000;stroke-opacity:1;"
       x="69.646118"
       y="0"
       transform="translate(-0.41992187,-8.9958336)"><tspan
         x="67.797852"
         y="180.72152"><tspan
           style="font-style:normal;font-variant:normal;font-weight:bold;font-stretch:normal;font-size:20px;font-family:Eurostile;-inkscape-font-specification:'Eurostile Bold';text-align:center;text-anchor:middle;fill:none;stroke:#000000;stroke-opacity:1">HOME </tspan></tspan><tspan
         x="40.561523"
         y="201.72152"><tspan
           style="font-style:normal;font-variant:normal;font-weight:bold;font-stretch:normal;font-size:20px;font-family:Eurostile;-inkscape-font-specification:'Eurostile Bold';text-align:center;text-anchor:middle;fill:none;stroke:#000000;stroke-opacity:1">ASSISTANT</tspan></tspan></text>
  </g>
</svg>
