  0
SECTION
  2
HEADER
  9
$ACADVER
  1
AC1014
  9
$HANDSEED
  5
FFFF
  9
$MEASUREMENT
 70
     1
  0
ENDSEC
  0
SECTION
  2
TABLES
  0
TABLE
  2
VPORT
  5
8
330
0
100
AcDbSymbolTable
 70
     4
  0
VPORT
  5
2E
330
8
100
AcDbSymbolTableRecord
100
AcDbViewportTableRecord
  2
*ACTIVE
 70
     0
 10
0.0
 20
0.0
 11
1.0
 21
1.0
 12
210.0
 22
148.5
 13
0.0
 23
0.0
 14
10.0
 24
10.0
 15
10.0
 25
10.0
 16
0.0
 26
0.0
 36
1.0
 17
0.0
 27
0.0
 37
0.0
 40
341.0
 41
1.24
 42
50.0
 43
0.0
 44
0.0
 50
0.0
 51
0.0
 71
     0
 72
   100
 73
     1
 74
     3
 75
     0
 76
     0
 77
     0
 78
     0
  0
ENDTAB
  0
TABLE
  2
LTYPE
  5
5
330
0
100
AcDbSymbolTable
 70
     1
  0
LTYPE
  5
14
330
5
100
AcDbSymbolTableRecord
100
AcDbLinetypeTableRecord
  2
BYBLOCK
 70
     0
  3

 72
    65
 73
     0
 40
0.0
  0
LTYPE
  5
15
330
5
100
AcDbSymbolTableRecord
100
AcDbLinetypeTableRecord
  2
BYLAYER
 70
     0
  3

 72
    65
 73
     0
 40
0.0
  0
LTYPE
  5
16
330
5
100
AcDbSymbolTableRecord
100
AcDbLinetypeTableRecord
  2
CONTINUOUS
 70
     0
  3
Solid line
 72
    65
 73
     0
 40
0.0
  0
ENDTAB
  0
TABLE
  2
LAYER
  5
2
100
AcDbSymbolTable
 70
2
  0
LAYER
  5
50
100
AcDbSymbolTableRecord
100
AcDbLayerTableRecord
  2
0
 70
0
  6
CONTINUOUS
  0
LAYER
  5
51
100
AcDbSymbolTableRecord
100
AcDbLayerTableRecord
  2
Ebene_1
 70
0
  6
CONTINUOUS
  0
ENDTAB
  0
TABLE
  2
STYLE
  5
3
330
0
100
AcDbSymbolTable
 70
     1
  0
STYLE
  5
11
330
3
100
AcDbSymbolTableRecord
100
AcDbTextStyleTableRecord
  2
STANDARD
 70
     0
 40
0.0
 41
1.0
 50
0.0
 71
     0
 42
2.5
  3
txt
  4

  0
ENDTAB
  0
TABLE
  2
VIEW
  5
6
330
0
100
AcDbSymbolTable
 70
     0
  0
ENDTAB
  0
TABLE
  2
UCS
  5
7
330
0
100
AcDbSymbolTable
 70
     0
  0
ENDTAB
  0
TABLE
  2
APPID
  5
9
330
0
100
AcDbSymbolTable
 70
     2
  0
APPID
  5
12
330
9
100
AcDbSymbolTableRecord
100
AcDbRegAppTableRecord
  2
ACAD
 70
     0
  0
ENDTAB
  0
TABLE
  2
DIMSTYLE
  5
A
330
0
100
AcDbSymbolTable
 70
     1
  0
DIMSTYLE
105
27
330
A
100
AcDbSymbolTableRecord
100
AcDbDimStyleTableRecord
  2
ISO-25
 70
     0
  3

  4

  5

  6

  7

 40
1.0
 41
2.5
 42
0.625
 43
3.75
 44
1.25
 45
0.0
 46
0.0
 47
0.0
 48
0.0
140
2.5
141
2.5
142
0.0
143
0.03937007874016
144
1.0
145
0.0
146
1.0
147
0.625
 71
     0
 72
     0
 73
     0
 74
     0
 75
     0
 76
     0
 77
     1
 78
     8
170
     0
171
     3
172
     1
173
     0
174
     0
175
     0
176
     0
177
     0
178
     0
270
     2
271
     2
272
     2
273
     2
274
     3
340
11
275
     0
280
     0
281
     0
282
     0
283
     0
284
     8
285
     0
286
     0
287
     3
288
     0
  0
ENDTAB
  0
TABLE
  2
BLOCK_RECORD
  5
1
330
0
100
AcDbSymbolTable
 70
     1
  0
BLOCK_RECORD
  5
1F
330
1
100
AcDbSymbolTableRecord
100
AcDbBlockTableRecord
  2
*MODEL_SPACE
  0
BLOCK_RECORD
  5
1B
330
1
100
AcDbSymbolTableRecord
100
AcDbBlockTableRecord
  2
*PAPER_SPACE
  0
ENDTAB
  0
ENDSEC
  0
SECTION
  2
BLOCKS
  0
BLOCK
  5
20
330
1F
100
AcDbEntity
  8
0
100
AcDbBlockBegin
  2
*MODEL_SPACE
 70
     0
 10
0.0
 20
0.0
 30
0.0
  3
*MODEL_SPACE
  1

  0
ENDBLK
  5
21
330
1F
100
AcDbEntity
  8
0
100
AcDbBlockEnd
  0
BLOCK
  5
1C
330
1B
100
AcDbEntity
 67
     1
  8
0
100
AcDbBlockBegin
  2
*PAPER_SPACE
  1

  0
ENDBLK
  5
1D
330
1B
100
AcDbEntity
 67
     1
  8
0
100
AcDbBlockEnd
  0
ENDSEC
  0
SECTION
  2
ENTITIES
  0
SPLINE
  5
100
100
AcDbEntity
  8
Ebene_1
 62
7
100
AcDbSpline
 70
8
 71
3
 72
8
 73
4
 74
0
 40
0
 40
0
 40
0
 40
0
 40
1
 40
1
 40
1
 40
1
 10
41.030804
 20
79.126700
 30
0.0
 10
39.293222
 20
79.126700
 30
0.0
 10
37.915129
 20
80.534730
 30
0.0
 10
37.915129
 20
82.242370
 30
0.0
  0
LWPOLYLINE
  5
101
100
AcDbEntity
  8
Ebene_1
 62
7
100
AcDbPolyline
 90
4
 70
0
 10
97.112942
 20
79.126700
 30
0.0
 10
96.993084
 20
79.246560
 30
0.0
 10
97.112942
 20
79.126700
 30
0.0
 10
41.030804
 20
79.126700
 30
0.0
  0
SPLINE
  5
102
100
AcDbEntity
  8
Ebene_1
 62
7
100
AcDbSpline
 70
8
 71
3
 72
8
 73
4
 74
0
 40
0
 40
0
 40
0
 40
0
 40
1
 40
1
 40
1
 40
1
 10
23.894591
 20
135.867905
 30
0.0
 10
21.827460
 20
135.867905
 30
0.0
 10
20.149792
 20
137.545571
 30
0.0
 10
20.149792
 20
139.612704
 30
0.0
  0
SPLINE
  5
103
100
AcDbEntity
  8
Ebene_1
 62
7
100
AcDbSpline
 70
8
 71
3
 72
8
 73
4
 74
0
 40
0
 40
0
 40
0
 40
0
 40
1
 40
1
 40
1
 40
1
 10
20.149792
 20
139.612704
 30
0.0
 10
20.149792
 20
140.601333
 30
0.0
 10
20.539255
 20
141.560005
 30
0.0
 10
21.228294
 20
142.249043
 30
0.0
  0
LWPOLYLINE
  5
104
100
AcDbEntity
  8
Ebene_1
 62
7
100
AcDbPolyline
 90
3
 70
0
 10
37.915129
 20
82.242370
 30
0.0
 10
37.915129
 20
135.867905
 30
0.0
 10
23.894591
 20
135.867905
 30
0.0
  0
SPLINE
  5
105
100
AcDbEntity
  8
Ebene_1
 62
7
100
AcDbSpline
 70
8
 71
3
 72
8
 73
4
 74
0
 40
0
 40
0
 40
0
 40
0
 40
1
 40
1
 40
1
 40
1
 10
96.633606
 20
218.553122
 30
0.0
 10
98.461077
 20
220.410543
 30
0.0
 10
101.426940
 20
220.410543
 30
0.0
 10
103.284370
 20
218.583082
 30
0.0
  0
LWPOLYLINE
  5
106
100
AcDbEntity
  8
Ebene_1
 62
7
100
AcDbPolyline
 90
2
 70
0
 10
21.228294
 20
142.249043
 30
0.0
 10
96.633606
 20
218.553122
 30
0.0
  0
SPLINE
  5
107
100
AcDbEntity
  8
Ebene_1
 62
7
100
AcDbSpline
 70
8
 71
3
 72
8
 73
4
 74
0
 40
0
 40
0
 40
0
 40
0
 40
1
 40
1
 40
1
 40
1
 10
142.709680
 20
186.257959
 30
0.0
 10
142.709680
 20
187.995541
 30
0.0
 10
144.117720
 20
189.373633
 30
0.0
 10
145.825350
 20
189.373633
 30
0.0
  0
LWPOLYLINE
  5
108
100
AcDbEntity
  8
Ebene_1
 62
7
100
AcDbPolyline
 90
4
 70
0
 10
103.284370
 20
218.583082
 30
0.0
 10
103.314370
 20
218.553122
 30
0.0
 10
142.709680
 20
178.918149
 30
0.0
 10
142.709680
 20
186.257959
 30
0.0
  0
SPLINE
  5
109
100
AcDbEntity
  8
Ebene_1
 62
7
100
AcDbSpline
 70
8
 71
3
 72
8
 73
4
 74
0
 40
0
 40
0
 40
0
 40
0
 40
1
 40
1
 40
1
 40
1
 10
158.917180
 20
189.373633
 30
0.0
 10
160.654760
 20
189.373633
 30
0.0
 10
162.032860
 20
187.965584
 30
0.0
 10
162.032860
 20
186.257959
 30
0.0
  0
LWPOLYLINE
  5
10a
100
AcDbEntity
  8
Ebene_1
 62
7
100
AcDbPolyline
 90
2
 70
0
 10
145.825350
 20
189.373633
 30
0.0
 10
158.917180
 20
189.373633
 30
0.0
  0
SPLINE
  5
10b
100
AcDbEntity
  8
Ebene_1
 62
7
100
AcDbSpline
 70
8
 71
3
 72
8
 73
4
 74
0
 40
0
 40
0
 40
0
 40
0
 40
1
 40
1
 40
1
 40
1
 10
178.779590
 20
142.249043
 30
0.0
 10
180.217600
 20
140.781093
 30
0.0
 10
180.217600
 20
138.384414
 30
0.0
 10
178.719790
 20
136.946405
 30
0.0
  0
SPLINE
  5
10c
100
AcDbEntity
  8
Ebene_1
 62
7
100
AcDbSpline
 70
8
 71
3
 72
8
 73
4
 74
0
 40
0
 40
0
 40
0
 40
0
 40
1
 40
1
 40
1
 40
1
 10
178.719790
 20
136.946405
 30
0.0
 10
178.030760
 20
136.257370
 30
0.0
 10
177.072080
 20
135.867905
 30
0.0
 10
176.083450
 20
135.867905
 30
0.0
  0
LWPOLYLINE
  5
10d
100
AcDbEntity
  8
Ebene_1
 62
7
100
AcDbPolyline
 90
3
 70
0
 10
162.032860
 20
186.257959
 30
0.0
 10
162.032860
 20
159.325341
 30
0.0
 10
178.779590
 20
142.249043
 30
0.0
  0
SPLINE
  5
10e
100
AcDbEntity
  8
Ebene_1
 62
7
100
AcDbSpline
 70
8
 71
3
 72
8
 73
4
 74
0
 40
0
 40
0
 40
0
 40
0
 40
1
 40
1
 40
1
 40
1
 10
162.032930
 20
82.272330
 30
0.0
 10
162.032930
 20
80.534730
 30
0.0
 10
160.624880
 20
79.156650
 30
0.0
 10
158.917260
 20
79.156650
 30
0.0
  0
LWPOLYLINE
  5
10f
100
AcDbEntity
  8
Ebene_1
 62
7
100
AcDbPolyline
 90
3
 70
0
 10
176.083450
 20
135.867905
 30
0.0
 10
162.032930
 20
135.867905
 30
0.0
 10
162.032930
 20
82.272330
 30
0.0
  0
SPLINE
  5
110
100
AcDbEntity
  8
Ebene_1
 62
7
100
AcDbSpline
 70
8
 71
3
 72
8
 73
4
 74
0
 40
0
 40
0
 40
0
 40
0
 40
1
 40
1
 40
1
 40
1
 10
125.273880
 20
90.810470
 30
0.0
 10
126.112720
 20
88.473720
 30
0.0
 10
128.329640
 20
86.796040
 30
0.0
 10
130.965980
 20
86.796040
 30
0.0
  0
SPLINE
  5
111
100
AcDbEntity
  8
Ebene_1
 62
7
100
AcDbSpline
 70
8
 71
3
 72
8
 73
4
 74
0
 40
0
 40
0
 40
0
 40
0
 40
1
 40
1
 40
1
 40
1
 10
130.965980
 20
86.796040
 30
0.0
 10
134.291350
 20
86.796040
 30
0.0
 10
137.017570
 20
89.492290
 30
0.0
 10
137.017570
 20
92.817680
 30
0.0
  0
SPLINE
  5
112
100
AcDbEntity
  8
Ebene_1
 62
7
100
AcDbSpline
 70
8
 71
3
 72
8
 73
4
 74
0
 40
0
 40
0
 40
0
 40
0
 40
1
 40
1
 40
1
 40
1
 10
137.017570
 20
92.817680
 30
0.0
 10
137.017570
 20
96.143070
 30
0.0
 10
134.321320
 20
98.839320
 30
0.0
 10
130.965980
 20
98.839320
 30
0.0
  0
SPLINE
  5
113
100
AcDbEntity
  8
Ebene_1
 62
7
100
AcDbSpline
 70
8
 71
3
 72
8
 73
4
 74
0
 40
0
 40
0
 40
0
 40
0
 40
1
 40
1
 40
1
 40
1
 10
130.965980
 20
98.839320
 30
0.0
 10
128.329640
 20
98.839320
 30
0.0
 10
126.082760
 20
97.161660
 30
0.0
 10
125.273880
 20
94.824900
 30
0.0
  0
LWPOLYLINE
  5
114
100
AcDbEntity
  8
Ebene_1
 62
7
100
AcDbPolyline
 90
6
 70
0
 10
158.917260
 20
79.156650
 30
0.0
 10
102.805080
 20
79.156650
 30
0.0
 10
102.864880
 20
79.216450
 30
0.0
 10
102.805080
 20
79.156650
 30
0.0
 10
114.488850
 20
90.810470
 30
0.0
 10
125.273880
 20
90.810470
 30
0.0
  0
SPLINE
  5
115
100
AcDbEntity
  8
Ebene_1
 62
7
100
AcDbSpline
 70
8
 71
3
 72
8
 73
4
 74
0
 40
0
 40
0
 40
0
 40
0
 40
1
 40
1
 40
1
 40
1
 10
135.759320
 20
110.103690
 30
0.0
 10
136.598160
 20
107.766930
 30
0.0
 10
138.815080
 20
106.089260
 30
0.0
 10
141.451420
 20
106.089260
 30
0.0
  0
SPLINE
  5
116
100
AcDbEntity
  8
Ebene_1
 62
7
100
AcDbSpline
 70
8
 71
3
 72
8
 73
4
 74
0
 40
0
 40
0
 40
0
 40
0
 40
1
 40
1
 40
1
 40
1
 10
141.451420
 20
106.089260
 30
0.0
 10
144.776810
 20
106.089260
 30
0.0
 10
147.503030
 20
108.785510
 30
0.0
 10
147.503030
 20
112.110910
 30
0.0
  0
SPLINE
  5
117
100
AcDbEntity
  8
Ebene_1
 62
7
100
AcDbSpline
 70
8
 71
3
 72
8
 73
4
 74
0
 40
0
 40
0
 40
0
 40
0
 40
1
 40
1
 40
1
 40
1
 10
147.503030
 20
112.110910
 30
0.0
 10
147.503030
 20
115.436280
 30
0.0
 10
144.806760
 20
118.132540
 30
0.0
 10
141.451420
 20
118.132540
 30
0.0
  0
SPLINE
  5
118
100
AcDbEntity
  8
Ebene_1
 62
7
100
AcDbSpline
 70
8
 71
3
 72
8
 73
4
 74
0
 40
0
 40
0
 40
0
 40
0
 40
1
 40
1
 40
1
 40
1
 10
141.451420
 20
118.132540
 30
0.0
 10
138.815080
 20
118.132540
 30
0.0
 10
136.568200
 20
116.454870
 30
0.0
 10
135.759320
 20
114.118130
 30
0.0
  0
LWPOLYLINE
  5
119
100
AcDbEntity
  8
Ebene_1
 62
7
100
AcDbPolyline
 90
6
 70
0
 10
125.273880
 20
94.824900
 30
0.0
 10
112.811180
 20
94.824900
 30
0.0
 10
101.966240
 20
83.979950
 30
0.0
 10
101.966240
 20
97.191610
 30
0.0
 10
114.878310
 20
110.103690
 30
0.0
 10
135.759320
 20
110.103690
 30
0.0
  0
SPLINE
  5
11a
100
AcDbEntity
  8
Ebene_1
 62
7
100
AcDbSpline
 70
8
 71
3
 72
8
 73
4
 74
0
 40
0
 40
0
 40
0
 40
0
 40
1
 40
1
 40
1
 40
1
 10
139.683880
 20
144.885397
 30
0.0
 10
140.462800
 20
144.495934
 30
0.0
 10
141.361540
 20
144.286216
 30
0.0
 10
142.290260
 20
144.286216
 30
0.0
  0
SPLINE
  5
11b
100
AcDbEntity
  8
Ebene_1
 62
7
100
AcDbSpline
 70
8
 71
3
 72
8
 73
4
 74
0
 40
0
 40
0
 40
0
 40
0
 40
1
 40
1
 40
1
 40
1
 10
142.290260
 20
144.286216
 30
0.0
 10
145.615640
 20
144.286216
 30
0.0
 10
148.341870
 20
146.982486
 30
0.0
 10
148.341870
 20
150.307864
 30
0.0
  0
SPLINE
  5
11c
100
AcDbEntity
  8
Ebene_1
 62
7
100
AcDbSpline
 70
8
 71
3
 72
8
 73
4
 74
0
 40
0
 40
0
 40
0
 40
0
 40
1
 40
1
 40
1
 40
1
 10
148.341870
 20
150.307864
 30
0.0
 10
148.341870
 20
153.633242
 30
0.0
 10
145.645610
 20
156.329497
 30
0.0
 10
142.290260
 20
156.329497
 30
0.0
  0
SPLINE
  5
11d
100
AcDbEntity
  8
Ebene_1
 62
7
100
AcDbSpline
 70
8
 71
3
 72
8
 73
4
 74
0
 40
0
 40
0
 40
0
 40
0
 40
1
 40
1
 40
1
 40
1
 10
142.290260
 20
156.329497
 30
0.0
 10
138.964870
 20
156.329497
 30
0.0
 10
136.238660
 20
153.633242
 30
0.0
 10
136.238660
 20
150.307864
 30
0.0
  0
SPLINE
  5
11e
100
AcDbEntity
  8
Ebene_1
 62
7
100
AcDbSpline
 70
8
 71
3
 72
8
 73
4
 74
0
 40
0
 40
0
 40
0
 40
0
 40
1
 40
1
 40
1
 40
1
 10
136.238660
 20
150.307864
 30
0.0
 10
136.238660
 20
149.379150
 30
0.0
 10
136.448360
 20
148.480393
 30
0.0
 10
136.837830
 20
147.701482
 30
0.0
  0
LWPOLYLINE
  5
11f
100
AcDbEntity
  8
Ebene_1
 62
7
100
AcDbPolyline
 90
5
 70
0
 10
135.759320
 20
114.118130
 30
0.0
 10
118.922700
 20
114.118130
 30
0.0
 10
130.995930
 20
126.161410
 30
0.0
 10
130.995930
 20
136.227414
 30
0.0
 10
139.683880
 20
144.885397
 30
0.0
  0
SPLINE
  5
120
100
AcDbEntity
  8
Ebene_1
 62
7
100
AcDbSpline
 70
8
 71
3
 72
8
 73
4
 74
0
 40
0
 40
0
 40
0
 40
0
 40
1
 40
1
 40
1
 40
1
 10
130.995930
 20
160.313971
 30
0.0
 10
133.332690
 20
161.152797
 30
0.0
 10
135.040330
 20
163.369731
 30
0.0
 10
135.040330
 20
166.006070
 30
0.0
  0
SPLINE
  5
121
100
AcDbEntity
  8
Ebene_1
 62
7
100
AcDbSpline
 70
8
 71
3
 72
8
 73
4
 74
0
 40
0
 40
0
 40
0
 40
0
 40
1
 40
1
 40
1
 40
1
 10
135.040330
 20
166.006070
 30
0.0
 10
135.040330
 20
169.331449
 30
0.0
 10
132.344060
 20
172.027703
 30
0.0
 10
128.988720
 20
172.027703
 30
0.0
  0
SPLINE
  5
122
100
AcDbEntity
  8
Ebene_1
 62
7
100
AcDbSpline
 70
8
 71
3
 72
8
 73
4
 74
0
 40
0
 40
0
 40
0
 40
0
 40
1
 40
1
 40
1
 40
1
 10
128.988720
 20
172.027703
 30
0.0
 10
125.663350
 20
172.027703
 30
0.0
 10
122.937120
 20
169.331449
 30
0.0
 10
122.937120
 20
166.006070
 30
0.0
  0
SPLINE
  5
123
100
AcDbEntity
  8
Ebene_1
 62
7
100
AcDbSpline
 70
8
 71
3
 72
8
 73
4
 74
0
 40
0
 40
0
 40
0
 40
0
 40
1
 40
1
 40
1
 40
1
 10
122.937120
 20
166.006070
 30
0.0
 10
122.937120
 20
163.369731
 30
0.0
 10
124.614790
 20
161.152797
 30
0.0
 10
126.981500
 20
160.313971
 30
0.0
  0
LWPOLYLINE
  5
124
100
AcDbEntity
  8
Ebene_1
 62
7
100
AcDbPolyline
 90
3
 70
0
 10
136.837830
 20
147.701482
 30
0.0
 10
130.995930
 20
141.889553
 30
0.0
 10
130.995930
 20
160.313971
 30
0.0
  0
SPLINE
  5
125
100
AcDbEntity
  8
Ebene_1
 62
7
100
AcDbSpline
 70
8
 71
3
 72
8
 73
4
 74
0
 40
0
 40
0
 40
0
 40
0
 40
1
 40
1
 40
1
 40
1
 10
121.139620
 20
147.731440
 30
0.0
 10
121.529080
 20
148.510351
 30
0.0
 10
121.738790
 20
149.409108
 30
0.0
 10
121.738790
 20
150.337822
 30
0.0
  0
SPLINE
  5
126
100
AcDbEntity
  8
Ebene_1
 62
7
100
AcDbSpline
 70
8
 71
3
 72
8
 73
4
 74
0
 40
0
 40
0
 40
0
 40
0
 40
1
 40
1
 40
1
 40
1
 10
121.738790
 20
150.337822
 30
0.0
 10
121.738790
 20
153.663199
 30
0.0
 10
119.042530
 20
156.359454
 30
0.0
 10
115.687190
 20
156.359454
 30
0.0
  0
SPLINE
  5
127
100
AcDbEntity
  8
Ebene_1
 62
7
100
AcDbSpline
 70
8
 71
3
 72
8
 73
4
 74
0
 40
0
 40
0
 40
0
 40
0
 40
1
 40
1
 40
1
 40
1
 10
115.687190
 20
156.359454
 30
0.0
 10
112.331840
 20
156.359454
 30
0.0
 10
109.635590
 20
153.663199
 30
0.0
 10
109.635590
 20
150.337822
 30
0.0
  0
SPLINE
  5
128
100
AcDbEntity
  8
Ebene_1
 62
7
100
AcDbSpline
 70
8
 71
3
 72
8
 73
4
 74
0
 40
0
 40
0
 40
0
 40
0
 40
1
 40
1
 40
1
 40
1
 10
109.635590
 20
150.337822
 30
0.0
 10
109.635590
 20
147.012429
 30
0.0
 10
112.331840
 20
144.316174
 30
0.0
 10
115.687190
 20
144.316174
 30
0.0
  0
SPLINE
  5
129
100
AcDbEntity
  8
Ebene_1
 62
7
100
AcDbSpline
 70
8
 71
3
 72
8
 73
4
 74
0
 40
0
 40
0
 40
0
 40
0
 40
1
 40
1
 40
1
 40
1
 10
115.687190
 20
144.316174
 30
0.0
 10
116.615910
 20
144.316174
 30
0.0
 10
117.514650
 20
144.525892
 30
0.0
 10
118.293580
 20
144.915341
 30
0.0
  0
LWPOLYLINE
  5
12a
100
AcDbEntity
  8
Ebene_1
 62
7
100
AcDbPolyline
 90
3
 70
0
 10
126.981500
 20
160.313971
 30
0.0
 10
126.981500
 20
141.889553
 30
0.0
 10
121.139620
 20
147.731440
 30
0.0
  0
SPLINE
  5
12b
100
AcDbEntity
  8
Ebene_1
 62
7
100
AcDbSpline
 70
8
 71
3
 72
8
 73
4
 74
0
 40
0
 40
0
 40
0
 40
0
 40
1
 40
1
 40
1
 40
1
 10
116.106610
 20
124.963050
 30
0.0
 10
118.443370
 20
125.801900
 30
0.0
 10
120.150990
 20
128.018820
 30
0.0
 10
120.150990
 20
130.655154
 30
0.0
  0
SPLINE
  5
12c
100
AcDbEntity
  8
Ebene_1
 62
7
100
AcDbSpline
 70
8
 71
3
 72
8
 73
4
 74
0
 40
0
 40
0
 40
0
 40
0
 40
1
 40
1
 40
1
 40
1
 10
120.150990
 20
130.655154
 30
0.0
 10
120.150990
 20
133.980538
 30
0.0
 10
117.454730
 20
136.676792
 30
0.0
 10
114.099400
 20
136.676792
 30
0.0
  0
SPLINE
  5
12d
100
AcDbEntity
  8
Ebene_1
 62
7
100
AcDbSpline
 70
8
 71
3
 72
8
 73
4
 74
0
 40
0
 40
0
 40
0
 40
0
 40
1
 40
1
 40
1
 40
1
 10
114.099400
 20
136.676792
 30
0.0
 10
110.774010
 20
136.676792
 30
0.0
 10
108.047800
 20
133.980538
 30
0.0
 10
108.047800
 20
130.655154
 30
0.0
  0
SPLINE
  5
12e
100
AcDbEntity
  8
Ebene_1
 62
7
100
AcDbSpline
 70
8
 71
3
 72
8
 73
4
 74
0
 40
0
 40
0
 40
0
 40
0
 40
1
 40
1
 40
1
 40
1
 10
108.047800
 20
130.655154
 30
0.0
 10
108.047800
 20
128.018820
 30
0.0
 10
109.725460
 20
125.801900
 30
0.0
 10
112.092180
 20
124.963050
 30
0.0
  0
LWPOLYLINE
  5
12f
100
AcDbEntity
  8
Ebene_1
 62
7
100
AcDbPolyline
 90
5
 70
0
 10
118.293580
 20
144.915341
 30
0.0
 10
126.981500
 20
136.257370
 30
0.0
 10
126.981500
 20
127.869030
 30
0.0
 10
116.106610
 20
116.994130
 30
0.0
 10
116.106610
 20
124.963050
 30
0.0
  0
SPLINE
  5
130
100
AcDbEntity
  8
Ebene_1
 62
7
100
AcDbSpline
 70
8
 71
3
 72
8
 73
4
 74
0
 40
0
 40
0
 40
0
 40
0
 40
1
 40
1
 40
1
 40
1
 10
110.294670
 20
170.260162
 30
0.0
 10
111.073600
 20
169.870699
 30
0.0
 10
111.972350
 20
169.660996
 30
0.0
 10
112.901050
 20
169.660996
 30
0.0
  0
SPLINE
  5
131
100
AcDbEntity
  8
Ebene_1
 62
7
100
AcDbSpline
 70
8
 71
3
 72
8
 73
4
 74
0
 40
0
 40
0
 40
0
 40
0
 40
1
 40
1
 40
1
 40
1
 10
112.901050
 20
169.660996
 30
0.0
 10
116.226450
 20
169.660996
 30
0.0
 10
118.952660
 20
172.357251
 30
0.0
 10
118.952660
 20
175.682629
 30
0.0
  0
SPLINE
  5
132
100
AcDbEntity
  8
Ebene_1
 62
7
100
AcDbSpline
 70
8
 71
3
 72
8
 73
4
 74
0
 40
0
 40
0
 40
0
 40
0
 40
1
 40
1
 40
1
 40
1
 10
118.952660
 20
175.682629
 30
0.0
 10
118.952660
 20
179.008022
 30
0.0
 10
116.256400
 20
181.704276
 30
0.0
 10
112.901050
 20
181.704276
 30
0.0
  0
SPLINE
  5
133
100
AcDbEntity
  8
Ebene_1
 62
7
100
AcDbSpline
 70
8
 71
3
 72
8
 73
4
 74
0
 40
0
 40
0
 40
0
 40
0
 40
1
 40
1
 40
1
 40
1
 10
112.901050
 20
181.704276
 30
0.0
 10
109.575670
 20
181.704276
 30
0.0
 10
106.849470
 20
179.008022
 30
0.0
 10
106.849470
 20
175.682629
 30
0.0
  0
SPLINE
  5
134
100
AcDbEntity
  8
Ebene_1
 62
7
100
AcDbSpline
 70
8
 71
3
 72
8
 73
4
 74
0
 40
0
 40
0
 40
0
 40
0
 40
1
 40
1
 40
1
 40
1
 10
106.849470
 20
175.682629
 30
0.0
 10
106.849470
 20
174.753930
 30
0.0
 10
107.059170
 20
173.855173
 30
0.0
 10
107.448640
 20
173.076247
 30
0.0
  0
LWPOLYLINE
  5
135
100
AcDbEntity
  8
Ebene_1
 62
7
100
AcDbPolyline
 90
5
 70
0
 10
112.092180
 20
124.963050
 30
0.0
 10
112.092180
 20
112.979690
 30
0.0
 10
102.026150
 20
102.913670
 30
0.0
 10
102.026150
 20
161.991639
 30
0.0
 10
110.294670
 20
170.260162
 30
0.0
  0
SPLINE
  5
136
100
AcDbEntity
  8
Ebene_1
 62
7
100
AcDbSpline
 70
8
 71
3
 72
8
 73
4
 74
0
 40
0
 40
0
 40
0
 40
0
 40
1
 40
1
 40
1
 40
1
 10
92.589276
 20
173.076247
 30
0.0
 10
92.978724
 20
173.855173
 30
0.0
 10
93.188441
 20
174.753930
 30
0.0
 10
93.188441
 20
175.682629
 30
0.0
  0
SPLINE
  5
137
100
AcDbEntity
  8
Ebene_1
 62
7
100
AcDbSpline
 70
8
 71
3
 72
8
 73
4
 74
0
 40
0
 40
0
 40
0
 40
0
 40
1
 40
1
 40
1
 40
1
 10
93.188441
 20
175.682629
 30
0.0
 10
93.188441
 20
179.008022
 30
0.0
 10
90.492187
 20
181.704276
 30
0.0
 10
87.136837
 20
181.704276
 30
0.0
  0
SPLINE
  5
138
100
AcDbEntity
  8
Ebene_1
 62
7
100
AcDbSpline
 70
8
 71
3
 72
8
 73
4
 74
0
 40
0
 40
0
 40
0
 40
0
 40
1
 40
1
 40
1
 40
1
 10
87.136837
 20
181.704276
 30
0.0
 10
83.811459
 20
181.704276
 30
0.0
 10
81.085247
 20
179.008022
 30
0.0
 10
81.085247
 20
175.682629
 30
0.0
  0
SPLINE
  5
139
100
AcDbEntity
  8
Ebene_1
 62
7
100
AcDbSpline
 70
8
 71
3
 72
8
 73
4
 74
0
 40
0
 40
0
 40
0
 40
0
 40
1
 40
1
 40
1
 40
1
 10
81.085247
 20
175.682629
 30
0.0
 10
81.085247
 20
172.357251
 30
0.0
 10
83.781501
 20
169.660996
 30
0.0
 10
87.136837
 20
169.660996
 30
0.0
  0
SPLINE
  5
13a
100
AcDbEntity
  8
Ebene_1
 62
7
100
AcDbSpline
 70
8
 71
3
 72
8
 73
4
 74
0
 40
0
 40
0
 40
0
 40
0
 40
1
 40
1
 40
1
 40
1
 10
87.136837
 20
169.660996
 30
0.0
 10
88.065551
 20
169.660996
 30
0.0
 10
88.964307
 20
169.870699
 30
0.0
 10
89.743219
 20
170.260162
 30
0.0
  0
LWPOLYLINE
  5
13b
100
AcDbEntity
  8
Ebene_1
 62
7
100
AcDbPolyline
 90
3
 70
0
 10
107.448640
 20
173.076247
 30
0.0
 10
100.018950
 20
165.646564
 30
0.0
 10
92.589276
 20
173.076247
 30
0.0
  0
SPLINE
  5
13c
100
AcDbEntity
  8
Ebene_1
 62
7
100
AcDbSpline
 70
8
 71
3
 72
8
 73
4
 74
0
 40
0
 40
0
 40
0
 40
0
 40
1
 40
1
 40
1
 40
1
 10
83.511869
 20
145.844055
 30
0.0
 10
85.848633
 20
146.682895
 30
0.0
 10
87.556257
 20
148.899815
 30
0.0
 10
87.556257
 20
151.536153
 30
0.0
  0
SPLINE
  5
13d
100
AcDbEntity
  8
Ebene_1
 62
7
100
AcDbSpline
 70
8
 71
3
 72
8
 73
4
 74
0
 40
0
 40
0
 40
0
 40
0
 40
1
 40
1
 40
1
 40
1
 10
87.556257
 20
151.536153
 30
0.0
 10
87.556257
 20
154.861532
 30
0.0
 10
84.860003
 20
157.557801
 30
0.0
 10
81.504653
 20
157.557801
 30
0.0
  0
SPLINE
  5
13e
100
AcDbEntity
  8
Ebene_1
 62
7
100
AcDbSpline
 70
8
 71
3
 72
8
 73
4
 74
0
 40
0
 40
0
 40
0
 40
0
 40
1
 40
1
 40
1
 40
1
 10
81.504653
 20
157.557801
 30
0.0
 10
78.179274
 20
157.557801
 30
0.0
 10
75.453063
 20
154.861532
 30
0.0
 10
75.453063
 20
151.536153
 30
0.0
  0
SPLINE
  5
13f
100
AcDbEntity
  8
Ebene_1
 62
7
100
AcDbSpline
 70
8
 71
3
 72
8
 73
4
 74
0
 40
0
 40
0
 40
0
 40
0
 40
1
 40
1
 40
1
 40
1
 10
75.453063
 20
151.536153
 30
0.0
 10
75.453063
 20
148.899815
 30
0.0
 10
77.130731
 20
146.682895
 30
0.0
 10
79.497437
 20
145.844055
 30
0.0
  0
LWPOLYLINE
  5
140
100
AcDbEntity
  8
Ebene_1
 62
7
100
AcDbPolyline
 90
5
 70
0
 10
89.743219
 20
170.260162
 30
0.0
 10
98.011743
 20
161.991639
 30
0.0
 10
98.011743
 20
119.810210
 30
0.0
 10
83.511869
 20
134.280107
 30
0.0
 10
83.511869
 20
145.844055
 30
0.0
  0
SPLINE
  5
141
100
AcDbEntity
  8
Ebene_1
 62
7
100
AcDbSpline
 70
8
 71
3
 72
8
 73
4
 74
0
 40
0
 40
0
 40
0
 40
0
 40
1
 40
1
 40
1
 40
1
 10
68.203126
 20
160.733391
 30
0.0
 10
70.539875
 20
161.572218
 30
0.0
 10
72.247515
 20
163.789151
 30
0.0
 10
72.247515
 20
166.425491
 30
0.0
  0
SPLINE
  5
142
100
AcDbEntity
  8
Ebene_1
 62
7
100
AcDbSpline
 70
8
 71
3
 72
8
 73
4
 74
0
 40
0
 40
0
 40
0
 40
0
 40
1
 40
1
 40
1
 40
1
 10
72.247515
 20
166.425491
 30
0.0
 10
72.247515
 20
169.750869
 30
0.0
 10
69.551246
 20
172.447123
 30
0.0
 10
66.195909
 20
172.447123
 30
0.0
  0
SPLINE
  5
143
100
AcDbEntity
  8
Ebene_1
 62
7
100
AcDbSpline
 70
8
 71
3
 72
8
 73
4
 74
0
 40
0
 40
0
 40
0
 40
0
 40
1
 40
1
 40
1
 40
1
 10
66.195909
 20
172.447123
 30
0.0
 10
62.870531
 20
172.447123
 30
0.0
 10
60.144319
 20
169.750869
 30
0.0
 10
60.144319
 20
166.425491
 30
0.0
  0
SPLINE
  5
144
100
AcDbEntity
  8
Ebene_1
 62
7
100
AcDbSpline
 70
8
 71
3
 72
8
 73
4
 74
0
 40
0
 40
0
 40
0
 40
0
 40
1
 40
1
 40
1
 40
1
 10
60.144319
 20
166.425491
 30
0.0
 10
60.144319
 20
163.789151
 30
0.0
 10
61.821987
 20
161.572218
 30
0.0
 10
64.188694
 20
160.733391
 30
0.0
  0
LWPOLYLINE
  5
145
100
AcDbEntity
  8
Ebene_1
 62
7
100
AcDbPolyline
 90
4
 70
0
 10
79.497437
 20
145.844055
 30
0.0
 10
79.497437
 20
138.294542
 30
0.0
 10
68.203126
 20
149.558896
 30
0.0
 10
68.203126
 20
160.733391
 30
0.0
  0
SPLINE
  5
146
100
AcDbEntity
  8
Ebene_1
 62
7
100
AcDbSpline
 70
8
 71
3
 72
8
 73
4
 74
0
 40
0
 40
0
 40
0
 40
0
 40
1
 40
1
 40
1
 40
1
 10
69.491345
 20
135.448484
 30
0.0
 10
68.652504
 20
137.785247
 30
0.0
 10
66.435585
 20
139.462916
 30
0.0
 10
63.799246
 20
139.462916
 30
0.0
  0
SPLINE
  5
147
100
AcDbEntity
  8
Ebene_1
 62
7
100
AcDbSpline
 70
8
 71
3
 72
8
 73
4
 74
0
 40
0
 40
0
 40
0
 40
0
 40
1
 40
1
 40
1
 40
1
 10
63.799246
 20
139.462916
 30
0.0
 10
60.473853
 20
139.462916
 30
0.0
 10
57.747640
 20
136.766659
 30
0.0
 10
57.747640
 20
133.441284
 30
0.0
  0
SPLINE
  5
148
100
AcDbEntity
  8
Ebene_1
 62
7
100
AcDbSpline
 70
8
 71
3
 72
8
 73
4
 74
0
 40
0
 40
0
 40
0
 40
0
 40
1
 40
1
 40
1
 40
1
 10
57.747640
 20
133.441284
 30
0.0
 10
57.747640
 20
130.115897
 30
0.0
 10
60.443895
 20
127.419650
 30
0.0
 10
63.799246
 20
127.419650
 30
0.0
  0
SPLINE
  5
149
100
AcDbEntity
  8
Ebene_1
 62
7
100
AcDbSpline
 70
8
 71
3
 72
8
 73
4
 74
0
 40
0
 40
0
 40
0
 40
0
 40
1
 40
1
 40
1
 40
1
 10
63.799246
 20
127.419650
 30
0.0
 10
66.435585
 20
127.419650
 30
0.0
 10
68.682462
 20
129.097320
 30
0.0
 10
69.491345
 20
131.434071
 30
0.0
  0
LWPOLYLINE
  5
14a
100
AcDbEntity
  8
Ebene_1
 62
7
100
AcDbPolyline
 90
4
 70
0
 10
64.188694
 20
160.733391
 30
0.0
 10
64.188694
 20
147.881228
 30
0.0
 10
76.651395
 20
135.448484
 30
0.0
 10
69.491345
 20
135.448484
 30
0.0
  0
SPLINE
  5
14b
100
AcDbEntity
  8
Ebene_1
 62
7
100
AcDbSpline
 70
8
 71
3
 72
8
 73
4
 74
0
 40
0
 40
0
 40
0
 40
0
 40
1
 40
1
 40
1
 40
1
 10
88.784547
 20
104.860970
 30
0.0
 10
91.121311
 20
105.699810
 30
0.0
 10
92.828937
 20
107.916730
 30
0.0
 10
92.828937
 20
110.553070
 30
0.0
  0
SPLINE
  5
14c
100
AcDbEntity
  8
Ebene_1
 62
7
100
AcDbSpline
 70
8
 71
3
 72
8
 73
4
 74
0
 40
0
 40
0
 40
0
 40
0
 40
1
 40
1
 40
1
 40
1
 10
92.828937
 20
110.553070
 30
0.0
 10
92.828937
 20
113.878450
 30
0.0
 10
90.132681
 20
116.574710
 30
0.0
 10
86.777332
 20
116.574710
 30
0.0
  0
SPLINE
  5
14d
100
AcDbEntity
  8
Ebene_1
 62
7
100
AcDbSpline
 70
8
 71
3
 72
8
 73
4
 74
0
 40
0
 40
0
 40
0
 40
0
 40
1
 40
1
 40
1
 40
1
 10
86.777332
 20
116.574710
 30
0.0
 10
83.451954
 20
116.574710
 30
0.0
 10
80.725741
 20
113.878450
 30
0.0
 10
80.725741
 20
110.553070
 30
0.0
  0
SPLINE
  5
14e
100
AcDbEntity
  8
Ebene_1
 62
7
100
AcDbSpline
 70
8
 71
3
 72
8
 73
4
 74
0
 40
0
 40
0
 40
0
 40
0
 40
1
 40
1
 40
1
 40
1
 10
80.725741
 20
110.553070
 30
0.0
 10
80.725741
 20
107.916730
 30
0.0
 10
82.403409
 20
105.699810
 30
0.0
 10
84.770130
 20
104.860970
 30
0.0
  0
LWPOLYLINE
  5
14f
100
AcDbEntity
  8
Ebene_1
 62
7
100
AcDbPolyline
 90
6
 70
0
 10
69.491345
 20
131.434071
 30
0.0
 10
80.695784
 20
131.434071
 30
0.0
 10
98.041700
 20
114.118130
 30
0.0
 10
98.041700
 20
84.009910
 30
0.0
 10
88.784547
 20
93.267060
 30
0.0
 10
88.784547
 20
104.860970
 30
0.0
  0
SPLINE
  5
150
100
AcDbEntity
  8
Ebene_1
 62
7
100
AcDbSpline
 70
8
 71
3
 72
8
 73
4
 74
0
 40
0
 40
0
 40
0
 40
0
 40
1
 40
1
 40
1
 40
1
 10
71.288843
 20
110.762780
 30
0.0
 10
71.678306
 20
111.541700
 30
0.0
 10
71.888009
 20
112.440440
 30
0.0
 10
71.888009
 20
113.369150
 30
0.0
  0
SPLINE
  5
151
100
AcDbEntity
  8
Ebene_1
 62
7
100
AcDbSpline
 70
8
 71
3
 72
8
 73
4
 74
0
 40
0
 40
0
 40
0
 40
0
 40
1
 40
1
 40
1
 40
1
 10
71.888009
 20
113.369150
 30
0.0
 10
71.888009
 20
116.694530
 30
0.0
 10
69.191755
 20
119.390800
 30
0.0
 10
65.836419
 20
119.390800
 30
0.0
  0
SPLINE
  5
152
100
AcDbEntity
  8
Ebene_1
 62
7
100
AcDbSpline
 70
8
 71
3
 72
8
 73
4
 74
0
 40
0
 40
0
 40
0
 40
0
 40
1
 40
1
 40
1
 40
1
 10
65.836419
 20
119.390800
 30
0.0
 10
62.511026
 20
119.390800
 30
0.0
 10
59.784814
 20
116.694530
 30
0.0
 10
59.784814
 20
113.369150
 30
0.0
  0
SPLINE
  5
153
100
AcDbEntity
  8
Ebene_1
 62
7
100
AcDbSpline
 70
8
 71
3
 72
8
 73
4
 74
0
 40
0
 40
0
 40
0
 40
0
 40
1
 40
1
 40
1
 40
1
 10
59.784814
 20
113.369150
 30
0.0
 10
59.784814
 20
110.043780
 30
0.0
 10
62.481068
 20
107.347520
 30
0.0
 10
65.836419
 20
107.347520
 30
0.0
  0
SPLINE
  5
154
100
AcDbEntity
  8
Ebene_1
 62
7
100
AcDbSpline
 70
8
 71
3
 72
8
 73
4
 74
0
 40
0
 40
0
 40
0
 40
0
 40
1
 40
1
 40
1
 40
1
 10
65.836419
 20
107.347520
 30
0.0
 10
66.765118
 20
107.347520
 30
0.0
 10
67.663875
 20
107.557220
 30
0.0
 10
68.442786
 20
107.946690
 30
0.0
  0
LWPOLYLINE
  5
155
100
AcDbEntity
  8
Ebene_1
 62
7
100
AcDbPolyline
 90
3
 70
0
 10
84.770130
 20
104.860970
 30
0.0
 10
84.770130
 20
97.311460
 30
0.0
 10
71.288843
 20
110.762780
 30
0.0
  0
SPLINE
  5
156
100
AcDbEntity
  8
Ebene_1
 62
7
100
AcDbSpline
 70
8
 71
3
 72
8
 73
4
 74
0
 40
0
 40
0
 40
0
 40
0
 40
1
 40
1
 40
1
 40
1
 10
74.764024
 20
94.495360
 30
0.0
 10
73.925182
 20
96.832120
 30
0.0
 10
71.708264
 20
98.509790
 30
0.0
 10
69.071924
 20
98.509790
 30
0.0
  0
SPLINE
  5
157
100
AcDbEntity
  8
Ebene_1
 62
7
100
AcDbSpline
 70
8
 71
3
 72
8
 73
4
 74
0
 40
0
 40
0
 40
0
 40
0
 40
1
 40
1
 40
1
 40
1
 10
69.071924
 20
98.509790
 30
0.0
 10
65.746531
 20
98.509790
 30
0.0
 10
63.020320
 20
95.813530
 30
0.0
 10
63.020320
 20
92.488140
 30
0.0
  0
SPLINE
  5
158
100
AcDbEntity
  8
Ebene_1
 62
7
100
AcDbSpline
 70
8
 71
3
 72
8
 73
4
 74
0
 40
0
 40
0
 40
0
 40
0
 40
1
 40
1
 40
1
 40
1
 10
63.020320
 20
92.488140
 30
0.0
 10
63.020320
 20
89.162750
 30
0.0
 10
65.716574
 20
86.466500
 30
0.0
 10
69.071924
 20
86.466500
 30
0.0
  0
SPLINE
  5
159
100
AcDbEntity
  8
Ebene_1
 62
7
100
AcDbSpline
 70
8
 71
3
 72
8
 73
4
 74
0
 40
0
 40
0
 40
0
 40
0
 40
1
 40
1
 40
1
 40
1
 10
69.071924
 20
86.466500
 30
0.0
 10
71.708264
 20
86.466500
 30
0.0
 10
73.955140
 20
88.144180
 30
0.0
 10
74.764024
 20
90.480920
 30
0.0
  0
LWPOLYLINE
  5
15a
100
AcDbEntity
  8
Ebene_1
 62
7
100
AcDbPolyline
 90
3
 70
0
 10
68.442786
 20
107.946690
 30
0.0
 10
81.924073
 20
94.495360
 30
0.0
 10
74.764024
 20
94.495360
 30
0.0
  0
SPLINE
  5
15b
100
AcDbEntity
  8
Ebene_1
 62
7
100
AcDbSpline
 70
8
 71
3
 72
8
 73
4
 74
0
 40
0
 40
0
 40
0
 40
0
 40
1
 40
1
 40
1
 40
1
 10
66.106037
 20
168.852113
 30
0.0
 10
64.757902
 20
168.852113
 30
0.0
 10
63.679401
 20
167.773610
 30
0.0
 10
63.679401
 20
166.425491
 30
0.0
  0
SPLINE
  5
15c
100
AcDbEntity
  8
Ebene_1
 62
7
100
AcDbSpline
 70
8
 71
3
 72
8
 73
4
 74
0
 40
0
 40
0
 40
0
 40
0
 40
1
 40
1
 40
1
 40
1
 10
63.679401
 20
166.425491
 30
0.0
 10
63.679401
 20
165.107314
 30
0.0
 10
64.757902
 20
163.998854
 30
0.0
 10
66.106037
 20
163.998854
 30
0.0
  0
SPLINE
  5
15d
100
AcDbEntity
  8
Ebene_1
 62
7
100
AcDbSpline
 70
8
 71
3
 72
8
 73
4
 74
0
 40
0
 40
0
 40
0
 40
0
 40
1
 40
1
 40
1
 40
1
 10
66.106037
 20
163.998854
 30
0.0
 10
67.454172
 20
163.998854
 30
0.0
 10
68.532673
 20
165.077356
 30
0.0
 10
68.532673
 20
166.425491
 30
0.0
  0
SPLINE
  5
15e
100
AcDbEntity
  8
Ebene_1
 62
7
100
AcDbSpline
 70
8
 71
3
 72
8
 73
4
 74
0
 40
0
 40
0
 40
0
 40
0
 40
1
 40
1
 40
1
 40
1
 10
68.532673
 20
166.425491
 30
0.0
 10
68.532673
 20
167.773610
 30
0.0
 10
67.454172
 20
168.852113
 30
0.0
 10
66.106037
 20
168.852113
 30
0.0
  0
LWPOLYLINE
  5
15f
100
AcDbEntity
  8
Ebene_1
 62
7
100
AcDbPolyline
 90
3
 70
0
 10
74.764024
 20
90.480920
 30
0.0
 10
85.968462
 20
90.480920
 30
0.0
 10
97.112942
 20
79.126700
 30
0.0
  0
SPLINE
  5
160
100
AcDbEntity
  8
Ebene_1
 62
7
100
AcDbSpline
 70
8
 71
3
 72
8
 73
4
 74
0
 40
0
 40
0
 40
0
 40
0
 40
1
 40
1
 40
1
 40
1
 10
81.414780
 20
153.962790
 30
0.0
 10
80.066660
 20
153.962790
 30
0.0
 10
78.988158
 20
152.884289
 30
0.0
 10
78.988158
 20
151.536153
 30
0.0
  0
SPLINE
  5
161
100
AcDbEntity
  8
Ebene_1
 62
7
100
AcDbSpline
 70
8
 71
3
 72
8
 73
4
 74
0
 40
0
 40
0
 40
0
 40
0
 40
1
 40
1
 40
1
 40
1
 10
78.988158
 20
151.536153
 30
0.0
 10
78.988158
 20
150.217991
 30
0.0
 10
80.066660
 20
149.109518
 30
0.0
 10
81.414780
 20
149.109518
 30
0.0
  0
SPLINE
  5
162
100
AcDbEntity
  8
Ebene_1
 62
7
100
AcDbSpline
 70
8
 71
3
 72
8
 73
4
 74
0
 40
0
 40
0
 40
0
 40
0
 40
1
 40
1
 40
1
 40
1
 10
81.414780
 20
149.109518
 30
0.0
 10
82.762915
 20
149.109518
 30
0.0
 10
83.841416
 20
150.188033
 30
0.0
 10
83.841416
 20
151.536153
 30
0.0
  0
SPLINE
  5
163
100
AcDbEntity
  8
Ebene_1
 62
7
100
AcDbSpline
 70
8
 71
3
 72
8
 73
4
 74
0
 40
0
 40
0
 40
0
 40
0
 40
1
 40
1
 40
1
 40
1
 10
83.841416
 20
151.536153
 30
0.0
 10
83.841416
 20
152.884289
 30
0.0
 10
82.762915
 20
153.962790
 30
0.0
 10
81.414780
 20
153.962790
 30
0.0
  0
LWPOLYLINE
  5
164
100
AcDbEntity
  8
Ebene_1
 62
7
100
AcDbPolyline
 90
1
 70
1
 10
66.106037
 20
168.852113
 30
0.0
  0
SPLINE
  5
165
100
AcDbEntity
  8
Ebene_1
 62
7
100
AcDbSpline
 70
8
 71
3
 72
8
 73
4
 74
0
 40
0
 40
0
 40
0
 40
0
 40
1
 40
1
 40
1
 40
1
 10
87.076921
 20
178.109265
 30
0.0
 10
85.728787
 20
178.109265
 30
0.0
 10
84.650286
 20
177.030764
 30
0.0
 10
84.650286
 20
175.682629
 30
0.0
  0
SPLINE
  5
166
100
AcDbEntity
  8
Ebene_1
 62
7
100
AcDbSpline
 70
8
 71
3
 72
8
 73
4
 74
0
 40
0
 40
0
 40
0
 40
0
 40
1
 40
1
 40
1
 40
1
 10
84.650286
 20
175.682629
 30
0.0
 10
84.650286
 20
174.334508
 30
0.0
 10
85.728787
 20
173.256007
 30
0.0
 10
87.076921
 20
173.256007
 30
0.0
  0
SPLINE
  5
167
100
AcDbEntity
  8
Ebene_1
 62
7
100
AcDbSpline
 70
8
 71
3
 72
8
 73
4
 74
0
 40
0
 40
0
 40
0
 40
0
 40
1
 40
1
 40
1
 40
1
 10
87.076921
 20
173.256007
 30
0.0
 10
88.425042
 20
173.256007
 30
0.0
 10
89.503558
 20
174.334508
 30
0.0
 10
89.503558
 20
175.682629
 30
0.0
  0
SPLINE
  5
168
100
AcDbEntity
  8
Ebene_1
 62
7
100
AcDbSpline
 70
8
 71
3
 72
8
 73
4
 74
0
 40
0
 40
0
 40
0
 40
0
 40
1
 40
1
 40
1
 40
1
 10
89.503558
 20
175.682629
 30
0.0
 10
89.503558
 20
177.030764
 30
0.0
 10
88.395099
 20
178.109265
 30
0.0
 10
87.076921
 20
178.109265
 30
0.0
  0
LWPOLYLINE
  5
169
100
AcDbEntity
  8
Ebene_1
 62
7
100
AcDbPolyline
 90
1
 70
1
 10
81.414780
 20
153.962790
 30
0.0
  0
SPLINE
  5
16a
100
AcDbEntity
  8
Ebene_1
 62
7
100
AcDbSpline
 70
8
 71
3
 72
8
 73
4
 74
0
 40
0
 40
0
 40
0
 40
0
 40
1
 40
1
 40
1
 40
1
 10
142.290260
 20
147.941143
 30
0.0
 10
143.638390
 20
147.941143
 30
0.0
 10
144.716890
 20
149.019644
 30
0.0
 10
144.716890
 20
150.367779
 30
0.0
  0
SPLINE
  5
16b
100
AcDbEntity
  8
Ebene_1
 62
7
100
AcDbSpline
 70
8
 71
3
 72
8
 73
4
 74
0
 40
0
 40
0
 40
0
 40
0
 40
1
 40
1
 40
1
 40
1
 10
144.716890
 20
150.367779
 30
0.0
 10
144.716890
 20
151.715914
 30
0.0
 10
143.638390
 20
152.794415
 30
0.0
 10
142.290260
 20
152.794415
 30
0.0
  0
SPLINE
  5
16c
100
AcDbEntity
  8
Ebene_1
 62
7
100
AcDbSpline
 70
8
 71
3
 72
8
 73
4
 74
0
 40
0
 40
0
 40
0
 40
0
 40
1
 40
1
 40
1
 40
1
 10
142.290260
 20
152.794415
 30
0.0
 10
140.942130
 20
152.794415
 30
0.0
 10
139.863620
 20
151.715914
 30
0.0
 10
139.863620
 20
150.367779
 30
0.0
  0
SPLINE
  5
16d
100
AcDbEntity
  8
Ebene_1
 62
7
100
AcDbSpline
 70
8
 71
3
 72
8
 73
4
 74
0
 40
0
 40
0
 40
0
 40
0
 40
1
 40
1
 40
1
 40
1
 10
139.863620
 20
150.367779
 30
0.0
 10
139.863620
 20
149.019644
 30
0.0
 10
140.942130
 20
147.941143
 30
0.0
 10
142.290260
 20
147.941143
 30
0.0
  0
LWPOLYLINE
  5
16e
100
AcDbEntity
  8
Ebene_1
 62
7
100
AcDbPolyline
 90
1
 70
1
 10
87.076921
 20
178.109265
 30
0.0
  0
SPLINE
  5
16f
100
AcDbEntity
  8
Ebene_1
 62
7
100
AcDbSpline
 70
8
 71
3
 72
8
 73
4
 74
0
 40
0
 40
0
 40
0
 40
0
 40
1
 40
1
 40
1
 40
1
 10
112.871090
 20
173.285965
 30
0.0
 10
114.219230
 20
173.285965
 30
0.0
 10
115.297740
 20
174.364466
 30
0.0
 10
115.297740
 20
175.712586
 30
0.0
  0
SPLINE
  5
170
100
AcDbEntity
  8
Ebene_1
 62
7
100
AcDbSpline
 70
8
 71
3
 72
8
 73
4
 74
0
 40
0
 40
0
 40
0
 40
0
 40
1
 40
1
 40
1
 40
1
 10
115.297740
 20
175.712586
 30
0.0
 10
115.297740
 20
177.060721
 30
0.0
 10
114.219230
 20
178.139223
 30
0.0
 10
112.871090
 20
178.139223
 30
0.0
  0
SPLINE
  5
171
100
AcDbEntity
  8
Ebene_1
 62
7
100
AcDbSpline
 70
8
 71
3
 72
8
 73
4
 74
0
 40
0
 40
0
 40
0
 40
0
 40
1
 40
1
 40
1
 40
1
 10
112.871090
 20
178.139223
 30
0.0
 10
111.522970
 20
178.139223
 30
0.0
 10
110.444470
 20
177.060721
 30
0.0
 10
110.444470
 20
175.712586
 30
0.0
  0
SPLINE
  5
172
100
AcDbEntity
  8
Ebene_1
 62
7
100
AcDbSpline
 70
8
 71
3
 72
8
 73
4
 74
0
 40
0
 40
0
 40
0
 40
0
 40
1
 40
1
 40
1
 40
1
 10
110.444470
 20
175.712586
 30
0.0
 10
110.444470
 20
174.364466
 30
0.0
 10
111.522970
 20
173.285965
 30
0.0
 10
112.871090
 20
173.285965
 30
0.0
  0
LWPOLYLINE
  5
173
100
AcDbEntity
  8
Ebene_1
 62
7
100
AcDbPolyline
 90
1
 70
1
 10
142.290260
 20
147.941143
 30
0.0
  0
SPLINE
  5
174
100
AcDbEntity
  8
Ebene_1
 62
7
100
AcDbSpline
 70
8
 71
3
 72
8
 73
4
 74
0
 40
0
 40
0
 40
0
 40
0
 40
1
 40
1
 40
1
 40
1
 10
115.687190
 20
152.764443
 30
0.0
 10
114.339060
 20
152.764443
 30
0.0
 10
113.260560
 20
151.685942
 30
0.0
 10
113.260560
 20
150.337822
 30
0.0
  0
SPLINE
  5
175
100
AcDbEntity
  8
Ebene_1
 62
7
100
AcDbSpline
 70
8
 71
3
 72
8
 73
4
 74
0
 40
0
 40
0
 40
0
 40
0
 40
1
 40
1
 40
1
 40
1
 10
113.260560
 20
150.337822
 30
0.0
 10
113.260560
 20
148.989687
 30
0.0
 10
114.339060
 20
147.911185
 30
0.0
 10
115.687190
 20
147.911185
 30
0.0
  0
SPLINE
  5
176
100
AcDbEntity
  8
Ebene_1
 62
7
100
AcDbSpline
 70
8
 71
3
 72
8
 73
4
 74
0
 40
0
 40
0
 40
0
 40
0
 40
1
 40
1
 40
1
 40
1
 10
115.687190
 20
147.911185
 30
0.0
 10
117.035310
 20
147.911185
 30
0.0
 10
118.113810
 20
148.989687
 30
0.0
 10
118.113810
 20
150.337822
 30
0.0
  0
SPLINE
  5
177
100
AcDbEntity
  8
Ebene_1
 62
7
100
AcDbSpline
 70
8
 71
3
 72
8
 73
4
 74
0
 40
0
 40
0
 40
0
 40
0
 40
1
 40
1
 40
1
 40
1
 10
118.113810
 20
150.337822
 30
0.0
 10
118.113810
 20
151.685942
 30
0.0
 10
117.005360
 20
152.764443
 30
0.0
 10
115.687190
 20
152.764443
 30
0.0
  0
LWPOLYLINE
  5
178
100
AcDbEntity
  8
Ebene_1
 62
7
100
AcDbPolyline
 90
1
 70
1
 10
112.871090
 20
173.285965
 30
0.0
  0
SPLINE
  5
179
100
AcDbEntity
  8
Ebene_1
 62
7
100
AcDbSpline
 70
8
 71
3
 72
8
 73
4
 74
0
 40
0
 40
0
 40
0
 40
0
 40
1
 40
1
 40
1
 40
1
 10
63.679401
 20
135.867905
 30
0.0
 10
62.331281
 20
135.867905
 30
0.0
 10
61.252778
 20
134.789406
 30
0.0
 10
61.252778
 20
133.441284
 30
0.0
  0
SPLINE
  5
17a
100
AcDbEntity
  8
Ebene_1
 62
7
100
AcDbSpline
 70
8
 71
3
 72
8
 73
4
 74
0
 40
0
 40
0
 40
0
 40
0
 40
1
 40
1
 40
1
 40
1
 10
61.252778
 20
133.441284
 30
0.0
 10
61.252778
 20
132.123105
 30
0.0
 10
62.331281
 20
131.014654
 30
0.0
 10
63.679401
 20
131.014654
 30
0.0
  0
SPLINE
  5
17b
100
AcDbEntity
  8
Ebene_1
 62
7
100
AcDbSpline
 70
8
 71
3
 72
8
 73
4
 74
0
 40
0
 40
0
 40
0
 40
0
 40
1
 40
1
 40
1
 40
1
 10
63.679401
 20
131.014654
 30
0.0
 10
65.027535
 20
131.014654
 30
0.0
 10
66.106037
 20
132.093158
 30
0.0
 10
66.106037
 20
133.441284
 30
0.0
  0
SPLINE
  5
17c
100
AcDbEntity
  8
Ebene_1
 62
7
100
AcDbSpline
 70
8
 71
3
 72
8
 73
4
 74
0
 40
0
 40
0
 40
0
 40
0
 40
1
 40
1
 40
1
 40
1
 10
66.106037
 20
133.441284
 30
0.0
 10
66.106037
 20
134.789406
 30
0.0
 10
65.027535
 20
135.867905
 30
0.0
 10
63.679401
 20
135.867905
 30
0.0
  0
LWPOLYLINE
  5
17d
100
AcDbEntity
  8
Ebene_1
 62
7
100
AcDbPolyline
 90
1
 70
1
 10
115.687190
 20
152.764443
 30
0.0
  0
SPLINE
  5
17e
100
AcDbEntity
  8
Ebene_1
 62
7
100
AcDbSpline
 70
8
 71
3
 72
8
 73
4
 74
0
 40
0
 40
0
 40
0
 40
0
 40
1
 40
1
 40
1
 40
1
 10
141.481380
 20
109.714230
 30
0.0
 10
142.829510
 20
109.714230
 30
0.0
 10
143.908010
 20
110.792730
 30
0.0
 10
143.908010
 20
112.140860
 30
0.0
  0
SPLINE
  5
17f
100
AcDbEntity
  8
Ebene_1
 62
7
100
AcDbSpline
 70
8
 71
3
 72
8
 73
4
 74
0
 40
0
 40
0
 40
0
 40
0
 40
1
 40
1
 40
1
 40
1
 10
143.908010
 20
112.140860
 30
0.0
 10
143.908010
 20
113.488990
 30
0.0
 10
142.829510
 20
114.567500
 30
0.0
 10
141.481380
 20
114.567500
 30
0.0
  0
SPLINE
  5
180
100
AcDbEntity
  8
Ebene_1
 62
7
100
AcDbSpline
 70
8
 71
3
 72
8
 73
4
 74
0
 40
0
 40
0
 40
0
 40
0
 40
1
 40
1
 40
1
 40
1
 10
141.481380
 20
114.567500
 30
0.0
 10
140.133250
 20
114.567500
 30
0.0
 10
139.054750
 20
113.488990
 30
0.0
 10
139.054750
 20
112.140860
 30
0.0
  0
SPLINE
  5
181
100
AcDbEntity
  8
Ebene_1
 62
7
100
AcDbSpline
 70
8
 71
3
 72
8
 73
4
 74
0
 40
0
 40
0
 40
0
 40
0
 40
1
 40
1
 40
1
 40
1
 10
139.054750
 20
112.140860
 30
0.0
 10
139.054750
 20
110.792730
 30
0.0
 10
140.133250
 20
109.714230
 30
0.0
 10
141.481380
 20
109.714230
 30
0.0
  0
LWPOLYLINE
  5
182
100
AcDbEntity
  8
Ebene_1
 62
7
100
AcDbPolyline
 90
1
 70
1
 10
63.679401
 20
135.867905
 30
0.0
  0
SPLINE
  5
183
100
AcDbEntity
  8
Ebene_1
 62
7
100
AcDbSpline
 70
8
 71
3
 72
8
 73
4
 74
0
 40
0
 40
0
 40
0
 40
0
 40
1
 40
1
 40
1
 40
1
 10
128.988720
 20
168.432707
 30
0.0
 10
127.640600
 20
168.432707
 30
0.0
 10
126.562100
 20
167.354190
 30
0.0
 10
126.562100
 20
166.006070
 30
0.0
  0
SPLINE
  5
184
100
AcDbEntity
  8
Ebene_1
 62
7
100
AcDbSpline
 70
8
 71
3
 72
8
 73
4
 74
0
 40
0
 40
0
 40
0
 40
0
 40
1
 40
1
 40
1
 40
1
 10
126.562100
 20
166.006070
 30
0.0
 10
126.562100
 20
164.687893
 30
0.0
 10
127.640600
 20
163.579434
 30
0.0
 10
128.988720
 20
163.579434
 30
0.0
  0
SPLINE
  5
185
100
AcDbEntity
  8
Ebene_1
 62
7
100
AcDbSpline
 70
8
 71
3
 72
8
 73
4
 74
0
 40
0
 40
0
 40
0
 40
0
 40
1
 40
1
 40
1
 40
1
 10
128.988720
 20
163.579434
 30
0.0
 10
130.336850
 20
163.579434
 30
0.0
 10
131.415350
 20
164.657936
 30
0.0
 10
131.415350
 20
166.006070
 30
0.0
  0
SPLINE
  5
186
100
AcDbEntity
  8
Ebene_1
 62
7
100
AcDbSpline
 70
8
 71
3
 72
8
 73
4
 74
0
 40
0
 40
0
 40
0
 40
0
 40
1
 40
1
 40
1
 40
1
 10
131.415350
 20
166.006070
 30
0.0
 10
131.385350
 20
167.354190
 30
0.0
 10
130.306900
 20
168.432707
 30
0.0
 10
128.988720
 20
168.432707
 30
0.0
  0
LWPOLYLINE
  5
187
100
AcDbEntity
  8
Ebene_1
 62
7
100
AcDbPolyline
 90
1
 70
1
 10
141.481380
 20
109.714230
 30
0.0
  0
SPLINE
  5
188
100
AcDbEntity
  8
Ebene_1
 62
7
100
AcDbSpline
 70
8
 71
3
 72
8
 73
4
 74
0
 40
0
 40
0
 40
0
 40
0
 40
1
 40
1
 40
1
 40
1
 10
114.069440
 20
133.051818
 30
0.0
 10
112.721310
 20
133.051818
 30
0.0
 10
111.642810
 20
131.973318
 30
0.0
 10
111.642810
 20
130.625194
 30
0.0
  0
SPLINE
  5
189
100
AcDbEntity
  8
Ebene_1
 62
7
100
AcDbSpline
 70
8
 71
3
 72
8
 73
4
 74
0
 40
0
 40
0
 40
0
 40
0
 40
1
 40
1
 40
1
 40
1
 10
111.642810
 20
130.625194
 30
0.0
 10
111.642810
 20
129.277080
 30
0.0
 10
112.721310
 20
128.198560
 30
0.0
 10
114.069440
 20
128.198560
 30
0.0
  0
SPLINE
  5
18a
100
AcDbEntity
  8
Ebene_1
 62
7
100
AcDbSpline
 70
8
 71
3
 72
8
 73
4
 74
0
 40
0
 40
0
 40
0
 40
0
 40
1
 40
1
 40
1
 40
1
 10
114.069440
 20
128.198560
 30
0.0
 10
115.417560
 20
128.198560
 30
0.0
 10
116.496060
 20
129.277080
 30
0.0
 10
116.496060
 20
130.625194
 30
0.0
  0
SPLINE
  5
18b
100
AcDbEntity
  8
Ebene_1
 62
7
100
AcDbSpline
 70
8
 71
3
 72
8
 73
4
 74
0
 40
0
 40
0
 40
0
 40
0
 40
1
 40
1
 40
1
 40
1
 10
116.496060
 20
130.625194
 30
0.0
 10
116.496060
 20
131.973318
 30
0.0
 10
115.417560
 20
133.051818
 30
0.0
 10
114.069440
 20
133.051818
 30
0.0
  0
LWPOLYLINE
  5
18c
100
AcDbEntity
  8
Ebene_1
 62
7
100
AcDbPolyline
 90
1
 70
1
 10
128.988720
 20
168.432707
 30
0.0
  0
SPLINE
  5
18d
100
AcDbEntity
  8
Ebene_1
 62
7
100
AcDbSpline
 70
8
 71
3
 72
8
 73
4
 74
0
 40
0
 40
0
 40
0
 40
0
 40
1
 40
1
 40
1
 40
1
 10
65.716574
 20
115.735870
 30
0.0
 10
64.368454
 20
115.735870
 30
0.0
 10
63.289952
 20
114.657370
 30
0.0
 10
63.289952
 20
113.309240
 30
0.0
  0
SPLINE
  5
18e
100
AcDbEntity
  8
Ebene_1
 62
7
100
AcDbSpline
 70
8
 71
3
 72
8
 73
4
 74
0
 40
0
 40
0
 40
0
 40
0
 40
1
 40
1
 40
1
 40
1
 10
63.289952
 20
113.309240
 30
0.0
 10
63.289952
 20
111.991080
 30
0.0
 10
64.368454
 20
110.882600
 30
0.0
 10
65.716574
 20
110.882600
 30
0.0
  0
SPLINE
  5
18f
100
AcDbEntity
  8
Ebene_1
 62
7
100
AcDbSpline
 70
8
 71
3
 72
8
 73
4
 74
0
 40
0
 40
0
 40
0
 40
0
 40
1
 40
1
 40
1
 40
1
 10
65.716574
 20
110.882600
 30
0.0
 10
67.064709
 20
110.882600
 30
0.0
 10
68.143210
 20
111.961110
 30
0.0
 10
68.143210
 20
113.309240
 30
0.0
  0
SPLINE
  5
190
100
AcDbEntity
  8
Ebene_1
 62
7
100
AcDbSpline
 70
8
 71
3
 72
8
 73
4
 74
0
 40
0
 40
0
 40
0
 40
0
 40
1
 40
1
 40
1
 40
1
 10
68.143210
 20
113.309240
 30
0.0
 10
68.113210
 20
114.657370
 30
0.0
 10
67.034751
 20
115.735870
 30
0.0
 10
65.716574
 20
115.735870
 30
0.0
  0
LWPOLYLINE
  5
191
100
AcDbEntity
  8
Ebene_1
 62
7
100
AcDbPolyline
 90
1
 70
1
 10
114.069440
 20
133.051818
 30
0.0
  0
SPLINE
  5
192
100
AcDbEntity
  8
Ebene_1
 62
7
100
AcDbSpline
 70
8
 71
3
 72
8
 73
4
 74
0
 40
0
 40
0
 40
0
 40
0
 40
1
 40
1
 40
1
 40
1
 10
68.922122
 20
94.824900
 30
0.0
 10
67.574001
 20
94.824900
 30
0.0
 10
66.495500
 20
93.746400
 30
0.0
 10
66.495500
 20
92.398260
 30
0.0
  0
SPLINE
  5
193
100
AcDbEntity
  8
Ebene_1
 62
7
100
AcDbSpline
 70
8
 71
3
 72
8
 73
4
 74
0
 40
0
 40
0
 40
0
 40
0
 40
1
 40
1
 40
1
 40
1
 10
66.495500
 20
92.398260
 30
0.0
 10
66.495500
 20
91.080110
 30
0.0
 10
67.574001
 20
89.971630
 30
0.0
 10
68.922122
 20
89.971630
 30
0.0
  0
SPLINE
  5
194
100
AcDbEntity
  8
Ebene_1
 62
7
100
AcDbSpline
 70
8
 71
3
 72
8
 73
4
 74
0
 40
0
 40
0
 40
0
 40
0
 40
1
 40
1
 40
1
 40
1
 10
68.922122
 20
89.971630
 30
0.0
 10
70.270256
 20
89.971630
 30
0.0
 10
71.348758
 20
91.050130
 30
0.0
 10
71.348758
 20
92.398260
 30
0.0
  0
SPLINE
  5
195
100
AcDbEntity
  8
Ebene_1
 62
7
100
AcDbSpline
 70
8
 71
3
 72
8
 73
4
 74
0
 40
0
 40
0
 40
0
 40
0
 40
1
 40
1
 40
1
 40
1
 10
71.348758
 20
92.398260
 30
0.0
 10
71.348758
 20
93.746400
 30
0.0
 10
70.270256
 20
94.824900
 30
0.0
 10
68.922122
 20
94.824900
 30
0.0
  0
LWPOLYLINE
  5
196
100
AcDbEntity
  8
Ebene_1
 62
7
100
AcDbPolyline
 90
1
 70
1
 10
65.716574
 20
115.735870
 30
0.0
  0
SPLINE
  5
197
100
AcDbEntity
  8
Ebene_1
 62
7
100
AcDbSpline
 70
8
 71
3
 72
8
 73
4
 74
0
 40
0
 40
0
 40
0
 40
0
 40
1
 40
1
 40
1
 40
1
 10
130.995930
 20
90.391050
 30
0.0
 10
132.344060
 20
90.391050
 30
0.0
 10
133.422570
 20
91.469550
 30
0.0
 10
133.422570
 20
92.817680
 30
0.0
  0
SPLINE
  5
198
100
AcDbEntity
  8
Ebene_1
 62
7
100
AcDbSpline
 70
8
 71
3
 72
8
 73
4
 74
0
 40
0
 40
0
 40
0
 40
0
 40
1
 40
1
 40
1
 40
1
 10
133.422570
 20
92.817680
 30
0.0
 10
133.422570
 20
94.135850
 30
0.0
 10
132.344060
 20
95.244310
 30
0.0
 10
130.995930
 20
95.244310
 30
0.0
  0
SPLINE
  5
199
100
AcDbEntity
  8
Ebene_1
 62
7
100
AcDbSpline
 70
8
 71
3
 72
8
 73
4
 74
0
 40
0
 40
0
 40
0
 40
0
 40
1
 40
1
 40
1
 40
1
 10
130.995930
 20
95.244310
 30
0.0
 10
129.647800
 20
95.244310
 30
0.0
 10
128.569300
 20
94.165820
 30
0.0
 10
128.569300
 20
92.817680
 30
0.0
  0
SPLINE
  5
19a
100
AcDbEntity
  8
Ebene_1
 62
7
100
AcDbSpline
 70
8
 71
3
 72
8
 73
4
 74
0
 40
0
 40
0
 40
0
 40
0
 40
1
 40
1
 40
1
 40
1
 10
128.569300
 20
92.817680
 30
0.0
 10
128.569300
 20
91.469550
 30
0.0
 10
129.647800
 20
90.391050
 30
0.0
 10
130.995930
 20
90.391050
 30
0.0
  0
LWPOLYLINE
  5
19b
100
AcDbEntity
  8
Ebene_1
 62
7
100
AcDbPolyline
 90
1
 70
1
 10
68.922122
 20
94.824900
 30
0.0
  0
SPLINE
  5
19c
100
AcDbEntity
  8
Ebene_1
 62
7
100
AcDbSpline
 70
8
 71
3
 72
8
 73
4
 74
0
 40
0
 40
0
 40
0
 40
0
 40
1
 40
1
 40
1
 40
1
 10
86.657501
 20
112.919780
 30
0.0
 10
85.309381
 20
112.919780
 30
0.0
 10
84.230864
 20
111.841280
 30
0.0
 10
84.230864
 20
110.493150
 30
0.0
  0
SPLINE
  5
19d
100
AcDbEntity
  8
Ebene_1
 62
7
100
AcDbSpline
 70
8
 71
3
 72
8
 73
4
 74
0
 40
0
 40
0
 40
0
 40
0
 40
1
 40
1
 40
1
 40
1
 10
84.230864
 20
110.493150
 30
0.0
 10
84.230864
 20
109.174980
 30
0.0
 10
85.309381
 20
108.066520
 30
0.0
 10
86.657501
 20
108.066520
 30
0.0
  0
SPLINE
  5
19e
100
AcDbEntity
  8
Ebene_1
 62
7
100
AcDbSpline
 70
8
 71
3
 72
8
 73
4
 74
0
 40
0
 40
0
 40
0
 40
0
 40
1
 40
1
 40
1
 40
1
 10
86.657501
 20
108.066520
 30
0.0
 10
88.005635
 20
108.066520
 30
0.0
 10
89.084138
 20
109.145020
 30
0.0
 10
89.084138
 20
110.493150
 30
0.0
  0
SPLINE
  5
19f
100
AcDbEntity
  8
Ebene_1
 62
7
100
AcDbSpline
 70
8
 71
3
 72
8
 73
4
 74
0
 40
0
 40
0
 40
0
 40
0
 40
1
 40
1
 40
1
 40
1
 10
89.084138
 20
110.493150
 30
0.0
 10
89.084138
 20
111.841280
 30
0.0
 10
88.005635
 20
112.919780
 30
0.0
 10
86.657501
 20
112.919780
 30
0.0
  0
LWPOLYLINE
  5
1a0
100
AcDbEntity
  8
Ebene_1
 62
7
100
AcDbPolyline
 90
1
 70
1
 10
130.995930
 20
90.391050
 30
0.0
  0
LWPOLYLINE
  5
1a1
100
AcDbEntity
  8
Ebene_1
 62
7
100
AcDbPolyline
 90
1
 70
1
 10
86.657501
 20
112.919780
 30
0.0
  0
SPLINE
  5
1a2
100
AcDbEntity
  8
Ebene_1
 62
7
100
AcDbSpline
 70
8
 71
3
 72
8
 73
4
 74
0
 40
0
 40
0
 40
0
 40
0
 40
1
 40
1
 40
1
 40
1
 10
89.543437
 20
56.618660
 30
0.0
 10
90.704665
 20
56.618660
 30
0.0
 10
91.766674
 20
56.699507
 30
0.0
 10
92.729464
 20
56.861200
 30
0.0
  0
SPLINE
  5
1a3
100
AcDbEntity
  8
Ebene_1
 62
7
100
AcDbSpline
 70
8
 71
3
 72
8
 73
4
 74
0
 40
0
 40
0
 40
0
 40
0
 40
1
 40
1
 40
1
 40
1
 10
92.729464
 20
56.861200
 30
0.0
 10
93.692255
 20
57.030240
 30
0.0
 10
94.511729
 20
57.331570
 30
0.0
 10
95.187887
 20
57.765190
 30
0.0
  0
SPLINE
  5
1a4
100
AcDbEntity
  8
Ebene_1
 62
7
100
AcDbSpline
 70
8
 71
3
 72
8
 73
4
 74
0
 40
0
 40
0
 40
0
 40
0
 40
1
 40
1
 40
1
 40
1
 10
95.187887
 20
57.765190
 30
0.0
 10
96.621048
 20
58.610390
 30
0.0
 10
97.352328
 20
60.297110
 30
0.0
 10
97.381726
 20
62.825350
 30
0.0
  0
LWPOLYLINE
  5
1a5
100
AcDbEntity
  8
Ebene_1
 62
7
100
AcDbPolyline
 90
12
 70
1
 10
79.544381
 20
73.684300
 30
0.0
 10
75.024412
 20
73.684300
 30
0.0
 10
75.024412
 20
67.312250
 30
0.0
 10
69.137426
 20
67.312250
 30
0.0
 10
69.137426
 20
73.684300
 30
0.0
 10
64.617457
 20
73.684300
 30
0.0
 10
64.617457
 20
56.750950
 30
0.0
 10
69.137426
 20
56.750950
 30
0.0
 10
69.137426
 20
63.387590
 30
0.0
 10
75.024412
 20
63.387590
 30
0.0
 10
75.024412
 20
56.750950
 30
0.0
 10
79.544381
 20
56.750950
 30
0.0
  0
SPLINE
  5
1a6
100
AcDbEntity
  8
Ebene_1
 62
7
100
AcDbSpline
 70
8
 71
3
 72
8
 73
4
 74
0
 40
0
 40
0
 40
0
 40
0
 40
1
 40
1
 40
1
 40
1
 10
97.381726
 20
67.609910
 30
0.0
 10
97.381726
 20
68.918123
 30
0.0
 10
97.194313
 20
69.987480
 30
0.0
 10
96.819486
 20
70.817980
 30
0.0
  0
SPLINE
  5
1a7
100
AcDbEntity
  8
Ebene_1
 62
7
100
AcDbSpline
 70
8
 71
3
 72
8
 73
4
 74
0
 40
0
 40
0
 40
0
 40
0
 40
1
 40
1
 40
1
 40
1
 10
96.819486
 20
70.817980
 30
0.0
 10
96.437309
 20
71.626433
 30
0.0
 10
95.893443
 20
72.251147
 30
0.0
 10
95.187887
 20
72.692120
 30
0.0
  0
SPLINE
  5
1a8
100
AcDbEntity
  8
Ebene_1
 62
7
100
AcDbSpline
 70
8
 71
3
 72
8
 73
4
 74
0
 40
0
 40
0
 40
0
 40
0
 40
1
 40
1
 40
1
 40
1
 10
95.187887
 20
72.692120
 30
0.0
 10
93.776774
 20
73.471167
 30
0.0
 10
91.895291
 20
73.845993
 30
0.0
 10
89.543437
 20
73.816600
 30
0.0
  0
SPLINE
  5
1a9
100
AcDbEntity
  8
Ebene_1
 62
7
100
AcDbSpline
 70
8
 71
3
 72
8
 73
4
 74
0
 40
0
 40
0
 40
0
 40
0
 40
1
 40
1
 40
1
 40
1
 10
89.543437
 20
73.816600
 30
0.0
 10
88.418956
 20
73.816600
 30
0.0
 10
87.375321
 20
73.750453
 30
0.0
 10
86.412531
 20
73.618160
 30
0.0
  0
SPLINE
  5
1aa
100
AcDbEntity
  8
Ebene_1
 62
7
100
AcDbSpline
 70
8
 71
3
 72
8
 73
4
 74
0
 40
0
 40
0
 40
0
 40
0
 40
1
 40
1
 40
1
 40
1
 10
86.412531
 20
73.618160
 30
0.0
 10
85.464440
 20
73.449120
 30
0.0
 10
84.633941
 20
73.140440
 30
0.0
 10
83.921035
 20
72.692120
 30
0.0
  0
SPLINE
  5
1ab
100
AcDbEntity
  8
Ebene_1
 62
7
100
AcDbSpline
 70
8
 71
3
 72
8
 73
4
 74
0
 40
0
 40
0
 40
0
 40
0
 40
1
 40
1
 40
1
 40
1
 10
83.921035
 20
72.692120
 30
0.0
 10
83.230178
 20
72.251147
 30
0.0
 10
82.689986
 20
71.626433
 30
0.0
 10
82.300461
 20
70.817980
 30
0.0
  0
SPLINE
  5
1ac
100
AcDbEntity
  8
Ebene_1
 62
7
100
AcDbSpline
 70
8
 71
3
 72
8
 73
4
 74
0
 40
0
 40
0
 40
0
 40
0
 40
1
 40
1
 40
1
 40
1
 10
82.300461
 20
70.817980
 30
0.0
 10
81.910935
 20
69.987480
 30
0.0
 10
81.716172
 20
68.918123
 30
0.0
 10
81.716172
 20
67.609910
 30
0.0
  0
LWPOLYLINE
  5
1ad
100
AcDbEntity
  8
Ebene_1
 62
7
100
AcDbPolyline
 90
2
 70
0
 10
97.381726
 20
62.825350
 30
0.0
 10
97.381726
 20
67.609910
 30
0.0
  0
SPLINE
  5
1ae
100
AcDbEntity
  8
Ebene_1
 62
7
100
AcDbSpline
 70
8
 71
3
 72
8
 73
4
 74
0
 40
0
 40
0
 40
0
 40
0
 40
1
 40
1
 40
1
 40
1
 10
81.716172
 20
62.825350
 30
0.0
 10
81.730872
 20
60.297110
 30
0.0
 10
82.465826
 20
58.610390
 30
0.0
 10
83.921035
 20
57.765190
 30
0.0
  0
SPLINE
  5
1af
100
AcDbEntity
  8
Ebene_1
 62
7
100
AcDbSpline
 70
8
 71
3
 72
8
 73
4
 74
0
 40
0
 40
0
 40
0
 40
0
 40
1
 40
1
 40
1
 40
1
 10
83.921035
 20
57.765190
 30
0.0
 10
84.633941
 20
57.331570
 30
0.0
 10
85.464440
 20
57.030240
 30
0.0
 10
86.412531
 20
56.861200
 30
0.0
  0
SPLINE
  5
1b0
100
AcDbEntity
  8
Ebene_1
 62
7
100
AcDbSpline
 70
8
 71
3
 72
8
 73
4
 74
0
 40
0
 40
0
 40
0
 40
0
 40
1
 40
1
 40
1
 40
1
 10
86.412531
 20
56.861200
 30
0.0
 10
87.375321
 20
56.699507
 30
0.0
 10
88.418956
 20
56.618660
 30
0.0
 10
89.543437
 20
56.618660
 30
0.0
  0
LWPOLYLINE
  5
1b1
100
AcDbEntity
  8
Ebene_1
 62
7
100
AcDbPolyline
 90
2
 70
0
 10
81.716172
 20
67.609910
 30
0.0
 10
81.716172
 20
62.825350
 30
0.0
  0
SPLINE
  5
1b2
100
AcDbEntity
  8
Ebene_1
 62
7
100
AcDbSpline
 70
8
 71
3
 72
8
 73
4
 74
0
 40
0
 40
0
 40
0
 40
0
 40
1
 40
1
 40
1
 40
1
 10
89.543437
 20
60.543320
 30
0.0
 10
88.382209
 20
60.513920
 30
0.0
 10
87.562735
 20
60.664587
 30
0.0
 10
87.085014
 20
60.995320
 30
0.0
  0
SPLINE
  5
1b3
100
AcDbEntity
  8
Ebene_1
 62
7
100
AcDbSpline
 70
8
 71
3
 72
8
 73
4
 74
0
 40
0
 40
0
 40
0
 40
0
 40
1
 40
1
 40
1
 40
1
 10
87.085014
 20
60.995320
 30
0.0
 10
86.842479
 20
61.193753
 30
0.0
 10
86.662416
 20
61.480383
 30
0.0
 10
86.544823
 20
61.855210
 30
0.0
  0
SPLINE
  5
1b4
100
AcDbEntity
  8
Ebene_1
 62
7
100
AcDbSpline
 70
8
 71
3
 72
8
 73
4
 74
0
 40
0
 40
0
 40
0
 40
0
 40
1
 40
1
 40
1
 40
1
 10
86.544823
 20
61.855210
 30
0.0
 10
86.419880
 20
62.215337
 30
0.0
 10
86.357409
 20
62.704083
 30
0.0
 10
86.357409
 20
63.321450
 30
0.0
  0
LWPOLYLINE
  5
1b5
100
AcDbEntity
  8
Ebene_1
 62
7
100
AcDbPolyline
 90
1
 70
1
 10
89.543437
 20
56.618660
 30
0.0
  0
SPLINE
  5
1b6
100
AcDbEntity
  8
Ebene_1
 62
7
100
AcDbSpline
 70
8
 71
3
 72
8
 73
4
 74
0
 40
0
 40
0
 40
0
 40
0
 40
1
 40
1
 40
1
 40
1
 10
86.357409
 20
67.135860
 30
0.0
 10
86.357409
 20
68.355887
 30
0.0
 10
86.599944
 20
69.138613
 30
0.0
 10
87.085014
 20
69.484040
 30
0.0
  0
SPLINE
  5
1b7
100
AcDbEntity
  8
Ebene_1
 62
7
100
AcDbSpline
 70
8
 71
3
 72
8
 73
4
 74
0
 40
0
 40
0
 40
0
 40
0
 40
1
 40
1
 40
1
 40
1
 10
87.085014
 20
69.484040
 30
0.0
 10
87.562735
 20
69.770673
 30
0.0
 10
88.382209
 20
69.906640
 30
0.0
 10
89.543437
 20
69.891940
 30
0.0
  0
SPLINE
  5
1b8
100
AcDbEntity
  8
Ebene_1
 62
7
100
AcDbSpline
 70
8
 71
3
 72
8
 73
4
 74
0
 40
0
 40
0
 40
0
 40
0
 40
1
 40
1
 40
1
 40
1
 10
89.543437
 20
69.891940
 30
0.0
 10
90.719364
 20
69.906673
 30
0.0
 10
91.546187
 20
69.770707
 30
0.0
 10
92.023908
 20
69.484040
 30
0.0
  0
SPLINE
  5
1b9
100
AcDbEntity
  8
Ebene_1
 62
7
100
AcDbSpline
 70
8
 71
3
 72
8
 73
4
 74
0
 40
0
 40
0
 40
0
 40
0
 40
1
 40
1
 40
1
 40
1
 10
92.023908
 20
69.484040
 30
0.0
 10
92.494279
 20
69.138613
 30
0.0
 10
92.729464
 20
68.355887
 30
0.0
 10
92.729464
 20
67.135860
 30
0.0
  0
LWPOLYLINE
  5
1ba
100
AcDbEntity
  8
Ebene_1
 62
7
100
AcDbPolyline
 90
2
 70
0
 10
86.357409
 20
63.321450
 30
0.0
 10
86.357409
 20
67.135860
 30
0.0
  0
SPLINE
  5
1bb
100
AcDbEntity
  8
Ebene_1
 62
7
100
AcDbSpline
 70
8
 71
3
 72
8
 73
4
 74
0
 40
0
 40
0
 40
0
 40
0
 40
1
 40
1
 40
1
 40
1
 10
92.729464
 20
63.321450
 30
0.0
 10
92.729464
 20
62.704083
 30
0.0
 10
92.678017
 20
62.215337
 30
0.0
 10
92.575124
 20
61.855210
 30
0.0
  0
SPLINE
  5
1bc
100
AcDbEntity
  8
Ebene_1
 62
7
100
AcDbSpline
 70
8
 71
3
 72
8
 73
4
 74
0
 40
0
 40
0
 40
0
 40
0
 40
1
 40
1
 40
1
 40
1
 10
92.575124
 20
61.855210
 30
0.0
 10
92.464881
 20
61.480383
 30
0.0
 10
92.281142
 20
61.193753
 30
0.0
 10
92.023908
 20
60.995320
 30
0.0
  0
SPLINE
  5
1bd
100
AcDbEntity
  8
Ebene_1
 62
7
100
AcDbSpline
 70
8
 71
3
 72
8
 73
4
 74
0
 40
0
 40
0
 40
0
 40
0
 40
1
 40
1
 40
1
 40
1
 10
92.023908
 20
60.995320
 30
0.0
 10
91.546187
 20
60.664587
 30
0.0
 10
90.719364
 20
60.513920
 30
0.0
 10
89.543437
 20
60.543320
 30
0.0
  0
LWPOLYLINE
  5
1be
100
AcDbEntity
  8
Ebene_1
 62
7
100
AcDbPolyline
 90
2
 70
0
 10
92.729464
 20
67.135860
 30
0.0
 10
92.729464
 20
63.321450
 30
0.0
  0
LWPOLYLINE
  5
1bf
100
AcDbEntity
  8
Ebene_1
 62
7
100
AcDbPolyline
 90
1
 70
1
 10
89.543437
 20
60.543320
 30
0.0
  0
LWPOLYLINE
  5
1c0
100
AcDbEntity
  8
Ebene_1
 62
7
100
AcDbPolyline
 90
16
 70
1
 10
103.566363
 20
69.737600
 30
0.0
 10
103.698653
 20
69.737600
 30
0.0
 10
108.031213
 20
56.750950
 30
0.0
 10
111.933823
 20
56.750950
 30
0.0
 10
116.222283
 20
69.737600
 30
0.0
 10
116.387643
 20
69.737600
 30
0.0
 10
115.935653
 20
56.750950
 30
0.0
 10
120.444593
 20
56.750950
 30
0.0
 10
120.444593
 20
73.684300
 30
0.0
 10
113.113423
 20
73.684300
 30
0.0
 10
110.037643
 20
63.045840
 30
0.0
 10
109.883303
 20
63.045840
 30
0.0
 10
106.653173
 20
73.684300
 30
0.0
 10
99.498393
 20
73.684300
 30
0.0
 10
99.498393
 20
56.750950
 30
0.0
 10
104.007343
 20
56.750950
 30
0.0
  0
LWPOLYLINE
  5
1c1
100
AcDbEntity
  8
Ebene_1
 62
7
100
AcDbPolyline
 90
12
 70
1
 10
127.764743
 20
69.980130
 30
0.0
 10
135.459723
 20
69.980130
 30
0.0
 10
135.459723
 20
73.684300
 30
0.0
 10
123.244773
 20
73.684300
 30
0.0
 10
123.244773
 20
56.750950
 30
0.0
 10
135.614063
 20
56.750950
 30
0.0
 10
135.614063
 20
60.455120
 30
0.0
 10
127.764743
 20
60.455120
 30
0.0
 10
127.764743
 20
63.751390
 30
0.0
 10
134.985673
 20
63.751390
 30
0.0
 10
134.985673
 20
66.882300
 30
0.0
 10
127.764743
 20
66.882300
 30
0.0
  0
LWPOLYLINE
  5
1c2
100
AcDbEntity
  8
Ebene_1
 62
7
100
AcDbPolyline
 90
8
 70
1
 10
43.759449
 20
35.954680
 30
0.0
 10
44.641395
 20
33.044260
 30
0.0
 10
49.249559
 20
33.044260
 30
0.0
 10
44.101203
 20
49.977610
 30
0.0
 10
37.233054
 20
49.977610
 30
0.0
 10
32.150844
 20
33.044260
 30
0.0
 10
36.847203
 20
33.044260
 30
0.0
 10
37.685051
 20
35.954680
 30
0.0
  0
SPLINE
  5
1c3
100
AcDbEntity
  8
Ebene_1
 62
7
100
AcDbSpline
 70
8
 71
3
 72
8
 73
4
 74
0
 40
0
 40
0
 40
0
 40
0
 40
1
 40
1
 40
1
 40
1
 10
56.194878
 20
43.473260
 30
0.0
 10
55.606914
 20
43.487993
 30
0.0
 10
55.154917
 20
43.587213
 30
0.0
 10
54.838887
 20
43.770920
 30
0.0
  0
SPLINE
  5
1c4
100
AcDbEntity
  8
Ebene_1
 62
7
100
AcDbSpline
 70
8
 71
3
 72
8
 73
4
 74
0
 40
0
 40
0
 40
0
 40
0
 40
1
 40
1
 40
1
 40
1
 10
54.838887
 20
43.770920
 30
0.0
 10
54.508158
 20
43.917907
 30
0.0
 10
54.342793
 20
44.314780
 30
0.0
 10
54.342793
 20
44.961540
 30
0.0
  0
SPLINE
  5
1c5
100
AcDbEntity
  8
Ebene_1
 62
7
100
AcDbSpline
 70
8
 71
3
 72
8
 73
4
 74
0
 40
0
 40
0
 40
0
 40
0
 40
1
 40
1
 40
1
 40
1
 10
54.342793
 20
44.961540
 30
0.0
 10
54.328093
 20
45.446613
 30
0.0
 10
54.471409
 20
45.810417
 30
0.0
 10
54.772741
 20
46.052950
 30
0.0
  0
SPLINE
  5
1c6
100
AcDbEntity
  8
Ebene_1
 62
7
100
AcDbSpline
 70
8
 71
3
 72
8
 73
4
 74
0
 40
0
 40
0
 40
0
 40
0
 40
1
 40
1
 40
1
 40
1
 10
54.772741
 20
46.052950
 30
0.0
 10
55.074072
 20
46.288137
 30
0.0
 10
55.812702
 20
46.405730
 30
0.0
 10
56.988629
 20
46.405730
 30
0.0
  0
SPLINE
  5
1c7
100
AcDbEntity
  8
Ebene_1
 62
7
100
AcDbSpline
 70
8
 71
3
 72
8
 73
4
 74
0
 40
0
 40
0
 40
0
 40
0
 40
1
 40
1
 40
1
 40
1
 10
56.988629
 20
46.405730
 30
0.0
 10
57.436951
 20
46.405730
 30
0.0
 10
57.826477
 20
46.398363
 30
0.0
 10
58.157206
 20
46.383630
 30
0.0
  0
SPLINE
  5
1c8
100
AcDbEntity
  8
Ebene_1
 62
7
100
AcDbSpline
 70
8
 71
3
 72
8
 73
4
 74
0
 40
0
 40
0
 40
0
 40
0
 40
1
 40
1
 40
1
 40
1
 10
58.157206
 20
46.383630
 30
0.0
 10
58.473237
 20
46.368963
 30
0.0
 10
58.730471
 20
46.310167
 30
0.0
 10
58.928908
 20
46.207240
 30
0.0
  0
SPLINE
  5
1c9
100
AcDbEntity
  8
Ebene_1
 62
7
100
AcDbSpline
 70
8
 71
3
 72
8
 73
4
 74
0
 40
0
 40
0
 40
0
 40
0
 40
1
 40
1
 40
1
 40
1
 10
58.928908
 20
46.207240
 30
0.0
 10
59.318434
 20
46.023500
 30
0.0
 10
59.513197
 20
45.512707
 30
0.0
 10
59.513197
 20
44.674860
 30
0.0
  0
LWPOLYLINE
  5
1ca
100
AcDbEntity
  8
Ebene_1
 62
7
100
AcDbPolyline
 90
4
 70
1
 10
42.855455
 20
39.250950
 30
0.0
 10
38.655191
 20
39.250950
 30
0.0
 10
40.716738
 20
46.593140
 30
0.0
 10
40.760838
 20
46.593140
 30
0.0
  0
SPLINE
  5
1cb
100
AcDbEntity
  8
Ebene_1
 62
7
100
AcDbSpline
 70
8
 71
3
 72
8
 73
4
 74
0
 40
0
 40
0
 40
0
 40
0
 40
1
 40
1
 40
1
 40
1
 10
63.856778
 20
45.369390
 30
0.0
 10
63.856778
 20
46.545317
 30
0.0
 10
63.680389
 20
47.464010
 30
0.0
 10
63.327611
 20
48.125470
 30
0.0
  0
SPLINE
  5
1cc
100
AcDbEntity
  8
Ebene_1
 62
7
100
AcDbSpline
 70
8
 71
3
 72
8
 73
4
 74
0
 40
0
 40
0
 40
0
 40
0
 40
1
 40
1
 40
1
 40
1
 10
63.327611
 20
48.125470
 30
0.0
 10
62.967483
 20
48.772230
 30
0.0
 10
62.464039
 20
49.238927
 30
0.0
 10
61.817279
 20
49.525560
 30
0.0
  0
SPLINE
  5
1cd
100
AcDbEntity
  8
Ebene_1
 62
7
100
AcDbSpline
 70
8
 71
3
 72
8
 73
4
 74
0
 40
0
 40
0
 40
0
 40
0
 40
1
 40
1
 40
1
 40
1
 10
61.817279
 20
49.525560
 30
0.0
 10
61.185218
 20
49.812193
 30
0.0
 10
60.457614
 20
49.984907
 30
0.0
 10
59.634465
 20
50.043700
 30
0.0
  0
SPLINE
  5
1ce
100
AcDbEntity
  8
Ebene_1
 62
7
100
AcDbSpline
 70
8
 71
3
 72
8
 73
4
 74
0
 40
0
 40
0
 40
0
 40
0
 40
1
 40
1
 40
1
 40
1
 10
59.634465
 20
50.043700
 30
0.0
 10
58.803966
 20
50.087767
 30
0.0
 10
57.922021
 20
50.109800
 30
0.0
 10
56.988629
 20
50.109800
 30
0.0
  0
SPLINE
  5
1cf
100
AcDbEntity
  8
Ebene_1
 62
7
100
AcDbSpline
 70
8
 71
3
 72
8
 73
4
 74
0
 40
0
 40
0
 40
0
 40
0
 40
1
 40
1
 40
1
 40
1
 10
56.988629
 20
50.109800
 30
0.0
 10
55.871498
 20
50.109800
 30
0.0
 10
54.886659
 20
50.080400
 30
0.0
 10
54.034112
 20
50.021600
 30
0.0
  0
SPLINE
  5
1d0
100
AcDbEntity
  8
Ebene_1
 62
7
100
AcDbSpline
 70
8
 71
3
 72
8
 73
4
 74
0
 40
0
 40
0
 40
0
 40
0
 40
1
 40
1
 40
1
 40
1
 10
54.034112
 20
50.021600
 30
0.0
 10
53.144817
 20
49.918707
 30
0.0
 10
52.391488
 20
49.701893
 30
0.0
 10
51.774127
 20
49.371160
 30
0.0
  0
SPLINE
  5
1d1
100
AcDbEntity
  8
Ebene_1
 62
7
100
AcDbSpline
 70
8
 71
3
 72
8
 73
4
 74
0
 40
0
 40
0
 40
0
 40
0
 40
1
 40
1
 40
1
 40
1
 10
51.774127
 20
49.371160
 30
0.0
 10
51.171464
 20
49.040433
 30
0.0
 10
50.697419
 20
48.525967
 30
0.0
 10
50.351990
 20
47.827760
 30
0.0
  0
SPLINE
  5
1d2
100
AcDbEntity
  8
Ebene_1
 62
7
100
AcDbSpline
 70
8
 71
3
 72
8
 73
4
 74
0
 40
0
 40
0
 40
0
 40
0
 40
1
 40
1
 40
1
 40
1
 10
50.351990
 20
47.827760
 30
0.0
 10
50.006561
 20
47.122200
 30
0.0
 10
49.833847
 20
46.159410
 30
0.0
 10
49.833847
 20
44.939390
 30
0.0
  0
SPLINE
  5
1d3
100
AcDbEntity
  8
Ebene_1
 62
7
100
AcDbSpline
 70
8
 71
3
 72
8
 73
4
 74
0
 40
0
 40
0
 40
0
 40
0
 40
1
 40
1
 40
1
 40
1
 10
49.833847
 20
44.939390
 30
0.0
 10
49.833847
 20
43.748763
 30
0.0
 10
49.991862
 20
42.822720
 30
0.0
 10
50.307893
 20
42.161260
 30
0.0
  0
SPLINE
  5
1d4
100
AcDbEntity
  8
Ebene_1
 62
7
100
AcDbSpline
 70
8
 71
3
 72
8
 73
4
 74
0
 40
0
 40
0
 40
0
 40
0
 40
1
 40
1
 40
1
 40
1
 10
50.307893
 20
42.161260
 30
0.0
 10
50.609224
 20
41.499800
 30
0.0
 10
51.039173
 20
41.011053
 30
0.0
 10
51.597738
 20
40.695020
 30
0.0
  0
SPLINE
  5
1d5
100
AcDbEntity
  8
Ebene_1
 62
7
100
AcDbSpline
 70
8
 71
3
 72
8
 73
4
 74
0
 40
0
 40
0
 40
0
 40
0
 40
1
 40
1
 40
1
 40
1
 10
51.597738
 20
40.695020
 30
0.0
 10
52.163653
 20
40.393693
 30
0.0
 10
52.854510
 20
40.191583
 30
0.0
 10
53.670309
 20
40.088690
 30
0.0
  0
SPLINE
  5
1d6
100
AcDbEntity
  8
Ebene_1
 62
7
100
AcDbSpline
 70
8
 71
3
 72
8
 73
4
 74
0
 40
0
 40
0
 40
0
 40
0
 40
1
 40
1
 40
1
 40
1
 10
53.670309
 20
40.088690
 30
0.0
 10
54.486108
 20
39.985797
 30
0.0
 10
55.412151
 20
39.893927
 30
0.0
 10
56.448437
 20
39.813080
 30
0.0
  0
LWPOLYLINE
  5
1d7
100
AcDbEntity
  8
Ebene_1
 62
7
100
AcDbPolyline
 90
3
 70
0
 10
59.513197
 20
44.674860
 30
0.0
 10
63.856778
 20
44.674860
 30
0.0
 10
63.856778
 20
45.369390
 30
0.0
  0
SPLINE
  5
1d8
100
AcDbEntity
  8
Ebene_1
 62
7
100
AcDbSpline
 70
8
 71
3
 72
8
 73
4
 74
0
 40
0
 40
0
 40
0
 40
0
 40
1
 40
1
 40
1
 40
1
 10
57.440626
 20
39.746980
 30
0.0
 10
58.476911
 20
39.717580
 30
0.0
 10
59.145720
 20
39.629387
 30
0.0
 10
59.447051
 20
39.482400
 30
0.0
  0
SPLINE
  5
1d9
100
AcDbEntity
  8
Ebene_1
 62
7
100
AcDbSpline
 70
8
 71
3
 72
8
 73
4
 74
0
 40
0
 40
0
 40
0
 40
0
 40
1
 40
1
 40
1
 40
1
 10
59.447051
 20
39.482400
 30
0.0
 10
59.704285
 20
39.313360
 30
0.0
 10
59.825553
 20
38.876063
 30
0.0
 10
59.810854
 20
38.170510
 30
0.0
  0
SPLINE
  5
1da
100
AcDbEntity
  8
Ebene_1
 62
7
100
AcDbSpline
 70
8
 71
3
 72
8
 73
4
 74
0
 40
0
 40
0
 40
0
 40
0
 40
1
 40
1
 40
1
 40
1
 10
59.810854
 20
38.170510
 30
0.0
 10
59.810854
 20
37.494350
 30
0.0
 10
59.616091
 20
37.064400
 30
0.0
 10
59.226565
 20
36.880660
 30
0.0
  0
SPLINE
  5
1db
100
AcDbEntity
  8
Ebene_1
 62
7
100
AcDbSpline
 70
8
 71
3
 72
8
 73
4
 74
0
 40
0
 40
0
 40
0
 40
0
 40
1
 40
1
 40
1
 40
1
 10
59.226565
 20
36.880660
 30
0.0
 10
58.785592
 20
36.689573
 30
0.0
 10
58.039614
 20
36.601380
 30
0.0
 10
56.988629
 20
36.616080
 30
0.0
  0
SPLINE
  5
1dc
100
AcDbEntity
  8
Ebene_1
 62
7
100
AcDbSpline
 70
8
 71
3
 72
8
 73
4
 74
0
 40
0
 40
0
 40
0
 40
0
 40
1
 40
1
 40
1
 40
1
 10
56.988629
 20
36.616080
 30
0.0
 10
55.908246
 20
36.601347
 30
0.0
 10
55.162267
 20
36.704240
 30
0.0
 10
54.750692
 20
36.924760
 30
0.0
  0
SPLINE
  5
1dd
100
AcDbEntity
  8
Ebene_1
 62
7
100
AcDbSpline
 70
8
 71
3
 72
8
 73
4
 74
0
 40
0
 40
0
 40
0
 40
0
 40
1
 40
1
 40
1
 40
1
 10
54.750692
 20
36.924760
 30
0.0
 10
54.331768
 20
37.167293
 30
0.0
 10
54.129656
 20
37.711160
 30
0.0
 10
54.144355
 20
38.556360
 30
0.0
  0
LWPOLYLINE
  5
1de
100
AcDbEntity
  8
Ebene_1
 62
7
100
AcDbPolyline
 90
2
 70
0
 10
56.448437
 20
39.813080
 30
0.0
 10
57.440626
 20
39.746980
 30
0.0
  0
SPLINE
  5
1df
100
AcDbEntity
  8
Ebene_1
 62
7
100
AcDbSpline
 70
8
 71
3
 72
8
 73
4
 74
0
 40
0
 40
0
 40
0
 40
0
 40
1
 40
1
 40
1
 40
1
 10
49.811798
 20
38.556360
 30
0.0
 10
49.811798
 20
37.196693
 30
0.0
 10
49.984512
 20
36.127333
 30
0.0
 10
50.329941
 20
35.348280
 30
0.0
  0
SPLINE
  5
1e0
100
AcDbEntity
  8
Ebene_1
 62
7
100
AcDbSpline
 70
8
 71
3
 72
8
 73
4
 74
0
 40
0
 40
0
 40
0
 40
0
 40
1
 40
1
 40
1
 40
1
 10
50.329941
 20
35.348280
 30
0.0
 10
50.675370
 20
34.561880
 30
0.0
 10
51.164114
 20
33.995967
 30
0.0
 10
51.796175
 20
33.650540
 30
0.0
  0
SPLINE
  5
1e1
100
AcDbEntity
  8
Ebene_1
 62
7
100
AcDbSpline
 70
8
 71
3
 72
8
 73
4
 74
0
 40
0
 40
0
 40
0
 40
0
 40
1
 40
1
 40
1
 40
1
 10
51.796175
 20
33.650540
 30
0.0
 10
52.428236
 20
33.305107
 30
0.0
 10
53.188914
 20
33.095643
 30
0.0
 10
54.078209
 20
33.022150
 30
0.0
  0
SPLINE
  5
1e2
100
AcDbEntity
  8
Ebene_1
 62
7
100
AcDbSpline
 70
8
 71
3
 72
8
 73
4
 74
0
 40
0
 40
0
 40
0
 40
0
 40
1
 40
1
 40
1
 40
1
 10
54.078209
 20
33.022150
 30
0.0
 10
54.967504
 20
32.948657
 30
0.0
 10
55.937644
 20
32.911910
 30
0.0
 10
56.988629
 20
32.911910
 30
0.0
  0
SPLINE
  5
1e3
100
AcDbEntity
  8
Ebene_1
 62
7
100
AcDbSpline
 70
8
 71
3
 72
8
 73
4
 74
0
 40
0
 40
0
 40
0
 40
0
 40
1
 40
1
 40
1
 40
1
 10
56.988629
 20
32.911910
 30
0.0
 10
58.840714
 20
32.926577
 30
0.0
 10
60.277549
 20
33.091940
 30
0.0
 10
61.299136
 20
33.408000
 30
0.0
  0
SPLINE
  5
1e4
100
AcDbEntity
  8
Ebene_1
 62
7
100
AcDbSpline
 70
8
 71
3
 72
8
 73
4
 74
0
 40
0
 40
0
 40
0
 40
0
 40
1
 40
1
 40
1
 40
1
 10
61.299136
 20
33.408000
 30
0.0
 10
62.320723
 20
33.709333
 30
0.0
 10
63.044653
 20
34.120907
 30
0.0
 10
63.470927
 20
34.642720
 30
0.0
  0
SPLINE
  5
1e5
100
AcDbEntity
  8
Ebene_1
 62
7
100
AcDbSpline
 70
8
 71
3
 72
8
 73
4
 74
0
 40
0
 40
0
 40
0
 40
0
 40
1
 40
1
 40
1
 40
1
 10
63.470927
 20
34.642720
 30
0.0
 10
63.904550
 20
35.171887
 30
0.0
 10
64.165459
 20
35.767200
 30
0.0
 10
64.253653
 20
36.428660
 30
0.0
  0
SPLINE
  5
1e6
100
AcDbEntity
  8
Ebene_1
 62
7
100
AcDbSpline
 70
8
 71
3
 72
8
 73
4
 74
0
 40
0
 40
0
 40
0
 40
0
 40
1
 40
1
 40
1
 40
1
 10
64.253653
 20
36.428660
 30
0.0
 10
64.319800
 20
37.090120
 30
0.0
 10
64.345523
 20
37.766280
 30
0.0
 10
64.330823
 20
38.457140
 30
0.0
  0
SPLINE
  5
1e7
100
AcDbEntity
  8
Ebene_1
 62
7
100
AcDbSpline
 70
8
 71
3
 72
8
 73
4
 74
0
 40
0
 40
0
 40
0
 40
0
 40
1
 40
1
 40
1
 40
1
 10
64.330823
 20
38.457140
 30
0.0
 10
64.360223
 20
40.338620
 30
0.0
 10
63.952323
 20
41.595390
 30
0.0
 10
63.107123
 20
42.227450
 30
0.0
  0
SPLINE
  5
1e8
100
AcDbEntity
  8
Ebene_1
 62
7
100
AcDbSpline
 70
8
 71
3
 72
8
 73
4
 74
0
 40
0
 40
0
 40
0
 40
0
 40
1
 40
1
 40
1
 40
1
 10
63.107123
 20
42.227450
 30
0.0
 10
62.203129
 20
42.844817
 30
0.0
 10
60.523758
 20
43.215970
 30
0.0
 10
58.069011
 20
43.340910
 30
0.0
  0
LWPOLYLINE
  5
1e9
100
AcDbEntity
  8
Ebene_1
 62
7
100
AcDbPolyline
 90
2
 70
0
 10
54.144355
 20
38.556360
 30
0.0
 10
49.811798
 20
38.556360
 30
0.0
  0
SPLINE
  5
1ea
100
AcDbEntity
  8
Ebene_1
 62
7
100
AcDbSpline
 70
8
 71
3
 72
8
 73
4
 74
0
 40
0
 40
0
 40
0
 40
0
 40
1
 40
1
 40
1
 40
1
 10
72.356524
 20
43.473260
 30
0.0
 10
71.768560
 20
43.487993
 30
0.0
 10
71.316563
 20
43.587213
 30
0.0
 10
71.000533
 20
43.770920
 30
0.0
  0
SPLINE
  5
1eb
100
AcDbEntity
  8
Ebene_1
 62
7
100
AcDbSpline
 70
8
 71
3
 72
8
 73
4
 74
0
 40
0
 40
0
 40
0
 40
0
 40
1
 40
1
 40
1
 40
1
 10
71.000533
 20
43.770920
 30
0.0
 10
70.669803
 20
43.917907
 30
0.0
 10
70.504438
 20
44.314780
 30
0.0
 10
70.504438
 20
44.961540
 30
0.0
  0
SPLINE
  5
1ec
100
AcDbEntity
  8
Ebene_1
 62
7
100
AcDbSpline
 70
8
 71
3
 72
8
 73
4
 74
0
 40
0
 40
0
 40
0
 40
0
 40
1
 40
1
 40
1
 40
1
 10
70.504438
 20
44.961540
 30
0.0
 10
70.489738
 20
45.446613
 30
0.0
 10
70.633054
 20
45.810417
 30
0.0
 10
70.934387
 20
46.052950
 30
0.0
  0
SPLINE
  5
1ed
100
AcDbEntity
  8
Ebene_1
 62
7
100
AcDbSpline
 70
8
 71
3
 72
8
 73
4
 74
0
 40
0
 40
0
 40
0
 40
0
 40
1
 40
1
 40
1
 40
1
 10
70.934387
 20
46.052950
 30
0.0
 10
71.235718
 20
46.288137
 30
0.0
 10
71.974347
 20
46.405730
 30
0.0
 10
73.150274
 20
46.405730
 30
0.0
  0
SPLINE
  5
1ee
100
AcDbEntity
  8
Ebene_1
 62
7
100
AcDbSpline
 70
8
 71
3
 72
8
 73
4
 74
0
 40
0
 40
0
 40
0
 40
0
 40
1
 40
1
 40
1
 40
1
 10
73.150274
 20
46.405730
 30
0.0
 10
73.598597
 20
46.405730
 30
0.0
 10
73.988123
 20
46.398363
 30
0.0
 10
74.318852
 20
46.383630
 30
0.0
  0
SPLINE
  5
1ef
100
AcDbEntity
  8
Ebene_1
 62
7
100
AcDbSpline
 70
8
 71
3
 72
8
 73
4
 74
0
 40
0
 40
0
 40
0
 40
0
 40
1
 40
1
 40
1
 40
1
 10
74.318852
 20
46.383630
 30
0.0
 10
74.634883
 20
46.368963
 30
0.0
 10
74.892117
 20
46.310167
 30
0.0
 10
75.090554
 20
46.207240
 30
0.0
  0
SPLINE
  5
1f0
100
AcDbEntity
  8
Ebene_1
 62
7
100
AcDbSpline
 70
8
 71
3
 72
8
 73
4
 74
0
 40
0
 40
0
 40
0
 40
0
 40
1
 40
1
 40
1
 40
1
 10
75.090554
 20
46.207240
 30
0.0
 10
75.480080
 20
46.023500
 30
0.0
 10
75.674843
 20
45.512707
 30
0.0
 10
75.674843
 20
44.674860
 30
0.0
  0
LWPOLYLINE
  5
1f1
100
AcDbEntity
  8
Ebene_1
 62
7
100
AcDbPolyline
 90
2
 70
0
 10
58.069011
 20
43.340910
 30
0.0
 10
56.194878
 20
43.473260
 30
0.0
  0
SPLINE
  5
1f2
100
AcDbEntity
  8
Ebene_1
 62
7
100
AcDbSpline
 70
8
 71
3
 72
8
 73
4
 74
0
 40
0
 40
0
 40
0
 40
0
 40
1
 40
1
 40
1
 40
1
 10
80.018424
 20
45.369390
 30
0.0
 10
80.018424
 20
46.545317
 30
0.0
 10
79.842035
 20
47.464010
 30
0.0
 10
79.489257
 20
48.125470
 30
0.0
  0
SPLINE
  5
1f3
100
AcDbEntity
  8
Ebene_1
 62
7
100
AcDbSpline
 70
8
 71
3
 72
8
 73
4
 74
0
 40
0
 40
0
 40
0
 40
0
 40
1
 40
1
 40
1
 40
1
 10
79.489257
 20
48.125470
 30
0.0
 10
79.129129
 20
48.772230
 30
0.0
 10
78.625685
 20
49.238927
 30
0.0
 10
77.978925
 20
49.525560
 30
0.0
  0
SPLINE
  5
1f4
100
AcDbEntity
  8
Ebene_1
 62
7
100
AcDbSpline
 70
8
 71
3
 72
8
 73
4
 74
0
 40
0
 40
0
 40
0
 40
0
 40
1
 40
1
 40
1
 40
1
 10
77.978925
 20
49.525560
 30
0.0
 10
77.346864
 20
49.812193
 30
0.0
 10
76.619259
 20
49.984907
 30
0.0
 10
75.796110
 20
50.043700
 30
0.0
  0
SPLINE
  5
1f5
100
AcDbEntity
  8
Ebene_1
 62
7
100
AcDbSpline
 70
8
 71
3
 72
8
 73
4
 74
0
 40
0
 40
0
 40
0
 40
0
 40
1
 40
1
 40
1
 40
1
 10
75.796110
 20
50.043700
 30
0.0
 10
74.965612
 20
50.087767
 30
0.0
 10
74.083667
 20
50.109800
 30
0.0
 10
73.150274
 20
50.109800
 30
0.0
  0
SPLINE
  5
1f6
100
AcDbEntity
  8
Ebene_1
 62
7
100
AcDbSpline
 70
8
 71
3
 72
8
 73
4
 74
0
 40
0
 40
0
 40
0
 40
0
 40
1
 40
1
 40
1
 40
1
 10
73.150274
 20
50.109800
 30
0.0
 10
72.033143
 20
50.109800
 30
0.0
 10
71.048305
 20
50.080400
 30
0.0
 10
70.195758
 20
50.021600
 30
0.0
  0
SPLINE
  5
1f7
100
AcDbEntity
  8
Ebene_1
 62
7
100
AcDbSpline
 70
8
 71
3
 72
8
 73
4
 74
0
 40
0
 40
0
 40
0
 40
0
 40
1
 40
1
 40
1
 40
1
 10
70.195758
 20
50.021600
 30
0.0
 10
69.306463
 20
49.918707
 30
0.0
 10
68.553134
 20
49.701893
 30
0.0
 10
67.935773
 20
49.371160
 30
0.0
  0
SPLINE
  5
1f8
100
AcDbEntity
  8
Ebene_1
 62
7
100
AcDbSpline
 70
8
 71
3
 72
8
 73
4
 74
0
 40
0
 40
0
 40
0
 40
0
 40
1
 40
1
 40
1
 40
1
 10
67.935773
 20
49.371160
 30
0.0
 10
67.333110
 20
49.040433
 30
0.0
 10
66.859065
 20
48.525967
 30
0.0
 10
66.513636
 20
47.827760
 30
0.0
  0
SPLINE
  5
1f9
100
AcDbEntity
  8
Ebene_1
 62
7
100
AcDbSpline
 70
8
 71
3
 72
8
 73
4
 74
0
 40
0
 40
0
 40
0
 40
0
 40
1
 40
1
 40
1
 40
1
 10
66.513636
 20
47.827760
 30
0.0
 10
66.168207
 20
47.122200
 30
0.0
 10
65.995493
 20
46.159410
 30
0.0
 10
65.995493
 20
44.939390
 30
0.0
  0
SPLINE
  5
1fa
100
AcDbEntity
  8
Ebene_1
 62
7
100
AcDbSpline
 70
8
 71
3
 72
8
 73
4
 74
0
 40
0
 40
0
 40
0
 40
0
 40
1
 40
1
 40
1
 40
1
 10
65.995493
 20
44.939390
 30
0.0
 10
65.995493
 20
43.748763
 30
0.0
 10
66.153508
 20
42.822720
 30
0.0
 10
66.469538
 20
42.161260
 30
0.0
  0
SPLINE
  5
1fb
100
AcDbEntity
  8
Ebene_1
 62
7
100
AcDbSpline
 70
8
 71
3
 72
8
 73
4
 74
0
 40
0
 40
0
 40
0
 40
0
 40
1
 40
1
 40
1
 40
1
 10
66.469538
 20
42.161260
 30
0.0
 10
66.770869
 20
41.499800
 30
0.0
 10
67.200818
 20
41.011053
 30
0.0
 10
67.759384
 20
40.695020
 30
0.0
  0
SPLINE
  5
1fc
100
AcDbEntity
  8
Ebene_1
 62
7
100
AcDbSpline
 70
8
 71
3
 72
8
 73
4
 74
0
 40
0
 40
0
 40
0
 40
0
 40
1
 40
1
 40
1
 40
1
 10
67.759384
 20
40.695020
 30
0.0
 10
68.325299
 20
40.393693
 30
0.0
 10
69.016156
 20
40.191583
 30
0.0
 10
69.831955
 20
40.088690
 30
0.0
  0
SPLINE
  5
1fd
100
AcDbEntity
  8
Ebene_1
 62
7
100
AcDbSpline
 70
8
 71
3
 72
8
 73
4
 74
0
 40
0
 40
0
 40
0
 40
0
 40
1
 40
1
 40
1
 40
1
 10
69.831955
 20
40.088690
 30
0.0
 10
70.647754
 20
39.985797
 30
0.0
 10
71.573797
 20
39.893927
 30
0.0
 10
72.610083
 20
39.813080
 30
0.0
  0
LWPOLYLINE
  5
1fe
100
AcDbEntity
  8
Ebene_1
 62
7
100
AcDbPolyline
 90
3
 70
0
 10
75.674843
 20
44.674860
 30
0.0
 10
80.018424
 20
44.674860
 30
0.0
 10
80.018424
 20
45.369390
 30
0.0
  0
SPLINE
  5
1ff
100
AcDbEntity
  8
Ebene_1
 62
7
100
AcDbSpline
 70
8
 71
3
 72
8
 73
4
 74
0
 40
0
 40
0
 40
0
 40
0
 40
1
 40
1
 40
1
 40
1
 10
73.602271
 20
39.746980
 30
0.0
 10
74.638557
 20
39.717580
 30
0.0
 10
75.307366
 20
39.629387
 30
0.0
 10
75.608697
 20
39.482400
 30
0.0
  0
SPLINE
  5
200
100
AcDbEntity
  8
Ebene_1
 62
7
100
AcDbSpline
 70
8
 71
3
 72
8
 73
4
 74
0
 40
0
 40
0
 40
0
 40
0
 40
1
 40
1
 40
1
 40
1
 10
75.608697
 20
39.482400
 30
0.0
 10
75.865931
 20
39.313360
 30
0.0
 10
75.987199
 20
38.876063
 30
0.0
 10
75.972500
 20
38.170510
 30
0.0
  0
SPLINE
  5
201
100
AcDbEntity
  8
Ebene_1
 62
7
100
AcDbSpline
 70
8
 71
3
 72
8
 73
4
 74
0
 40
0
 40
0
 40
0
 40
0
 40
1
 40
1
 40
1
 40
1
 10
75.972500
 20
38.170510
 30
0.0
 10
75.972500
 20
37.494350
 30
0.0
 10
75.777737
 20
37.064400
 30
0.0
 10
75.388211
 20
36.880660
 30
0.0
  0
SPLINE
  5
202
100
AcDbEntity
  8
Ebene_1
 62
7
100
AcDbSpline
 70
8
 71
3
 72
8
 73
4
 74
0
 40
0
 40
0
 40
0
 40
0
 40
1
 40
1
 40
1
 40
1
 10
75.388211
 20
36.880660
 30
0.0
 10
74.947238
 20
36.689573
 30
0.0
 10
74.201259
 20
36.601380
 30
0.0
 10
73.150274
 20
36.616080
 30
0.0
  0
SPLINE
  5
203
100
AcDbEntity
  8
Ebene_1
 62
7
100
AcDbSpline
 70
8
 71
3
 72
8
 73
4
 74
0
 40
0
 40
0
 40
0
 40
0
 40
1
 40
1
 40
1
 40
1
 10
73.150274
 20
36.616080
 30
0.0
 10
72.069891
 20
36.601347
 30
0.0
 10
71.323913
 20
36.704240
 30
0.0
 10
70.912338
 20
36.924760
 30
0.0
  0
SPLINE
  5
204
100
AcDbEntity
  8
Ebene_1
 62
7
100
AcDbSpline
 70
8
 71
3
 72
8
 73
4
 74
0
 40
0
 40
0
 40
0
 40
0
 40
1
 40
1
 40
1
 40
1
 10
70.912338
 20
36.924760
 30
0.0
 10
70.493414
 20
37.167293
 30
0.0
 10
70.291302
 20
37.711160
 30
0.0
 10
70.306001
 20
38.556360
 30
0.0
  0
LWPOLYLINE
  5
205
100
AcDbEntity
  8
Ebene_1
 62
7
100
AcDbPolyline
 90
2
 70
0
 10
72.610083
 20
39.813080
 30
0.0
 10
73.602271
 20
39.746980
 30
0.0
  0
SPLINE
  5
206
100
AcDbEntity
  8
Ebene_1
 62
7
100
AcDbSpline
 70
8
 71
3
 72
8
 73
4
 74
0
 40
0
 40
0
 40
0
 40
0
 40
1
 40
1
 40
1
 40
1
 10
65.973444
 20
38.556360
 30
0.0
 10
65.973444
 20
37.196693
 30
0.0
 10
66.146158
 20
36.127333
 30
0.0
 10
66.491587
 20
35.348280
 30
0.0
  0
SPLINE
  5
207
100
AcDbEntity
  8
Ebene_1
 62
7
100
AcDbSpline
 70
8
 71
3
 72
8
 73
4
 74
0
 40
0
 40
0
 40
0
 40
0
 40
1
 40
1
 40
1
 40
1
 10
66.491587
 20
35.348280
 30
0.0
 10
66.837016
 20
34.561880
 30
0.0
 10
67.325760
 20
33.995967
 30
0.0
 10
67.957821
 20
33.650540
 30
0.0
  0
SPLINE
  5
208
100
AcDbEntity
  8
Ebene_1
 62
7
100
AcDbSpline
 70
8
 71
3
 72
8
 73
4
 74
0
 40
0
 40
0
 40
0
 40
0
 40
1
 40
1
 40
1
 40
1
 10
67.957821
 20
33.650540
 30
0.0
 10
68.589882
 20
33.305107
 30
0.0
 10
69.350560
 20
33.095643
 30
0.0
 10
70.239855
 20
33.022150
 30
0.0
  0
SPLINE
  5
209
100
AcDbEntity
  8
Ebene_1
 62
7
100
AcDbSpline
 70
8
 71
3
 72
8
 73
4
 74
0
 40
0
 40
0
 40
0
 40
0
 40
1
 40
1
 40
1
 40
1
 10
70.239855
 20
33.022150
 30
0.0
 10
71.129150
 20
32.948657
 30
0.0
 10
72.099289
 20
32.911910
 30
0.0
 10
73.150274
 20
32.911910
 30
0.0
  0
SPLINE
  5
20a
100
AcDbEntity
  8
Ebene_1
 62
7
100
AcDbSpline
 70
8
 71
3
 72
8
 73
4
 74
0
 40
0
 40
0
 40
0
 40
0
 40
1
 40
1
 40
1
 40
1
 10
73.150274
 20
32.911910
 30
0.0
 10
75.002359
 20
32.926577
 30
0.0
 10
76.439195
 20
33.091940
 30
0.0
 10
77.460782
 20
33.408000
 30
0.0
  0
SPLINE
  5
20b
100
AcDbEntity
  8
Ebene_1
 62
7
100
AcDbSpline
 70
8
 71
3
 72
8
 73
4
 74
0
 40
0
 40
0
 40
0
 40
0
 40
1
 40
1
 40
1
 40
1
 10
77.460782
 20
33.408000
 30
0.0
 10
78.482369
 20
33.709333
 30
0.0
 10
79.206299
 20
34.120907
 30
0.0
 10
79.632573
 20
34.642720
 30
0.0
  0
SPLINE
  5
20c
100
AcDbEntity
  8
Ebene_1
 62
7
100
AcDbSpline
 70
8
 71
3
 72
8
 73
4
 74
0
 40
0
 40
0
 40
0
 40
0
 40
1
 40
1
 40
1
 40
1
 10
79.632573
 20
34.642720
 30
0.0
 10
80.066196
 20
35.171887
 30
0.0
 10
80.327104
 20
35.767200
 30
0.0
 10
80.415299
 20
36.428660
 30
0.0
  0
SPLINE
  5
20d
100
AcDbEntity
  8
Ebene_1
 62
7
100
AcDbSpline
 70
8
 71
3
 72
8
 73
4
 74
0
 40
0
 40
0
 40
0
 40
0
 40
1
 40
1
 40
1
 40
1
 10
80.415299
 20
36.428660
 30
0.0
 10
80.481446
 20
37.090120
 30
0.0
 10
80.507169
 20
37.766280
 30
0.0
 10
80.492469
 20
38.457140
 30
0.0
  0
SPLINE
  5
20e
100
AcDbEntity
  8
Ebene_1
 62
7
100
AcDbSpline
 70
8
 71
3
 72
8
 73
4
 74
0
 40
0
 40
0
 40
0
 40
0
 40
1
 40
1
 40
1
 40
1
 10
80.492469
 20
38.457140
 30
0.0
 10
80.521869
 20
40.338620
 30
0.0
 10
80.113969
 20
41.595390
 30
0.0
 10
79.268770
 20
42.227450
 30
0.0
  0
SPLINE
  5
20f
100
AcDbEntity
  8
Ebene_1
 62
7
100
AcDbSpline
 70
8
 71
3
 72
8
 73
4
 74
0
 40
0
 40
0
 40
0
 40
0
 40
1
 40
1
 40
1
 40
1
 10
79.268770
 20
42.227450
 30
0.0
 10
78.364776
 20
42.844817
 30
0.0
 10
76.685405
 20
43.215970
 30
0.0
 10
74.230657
 20
43.340910
 30
0.0
  0
LWPOLYLINE
  5
210
100
AcDbEntity
  8
Ebene_1
 62
7
100
AcDbPolyline
 90
2
 70
0
 10
70.306001
 20
38.556360
 30
0.0
 10
65.973444
 20
38.556360
 30
0.0
  0
LWPOLYLINE
  5
211
100
AcDbEntity
  8
Ebene_1
 62
7
100
AcDbPolyline
 90
2
 70
0
 10
74.230657
 20
43.340910
 30
0.0
 10
72.356524
 20
43.473260
 30
0.0
  0
SPLINE
  5
212
100
AcDbEntity
  8
Ebene_1
 62
7
100
AcDbSpline
 70
8
 71
3
 72
8
 73
4
 74
0
 40
0
 40
0
 40
0
 40
0
 40
1
 40
1
 40
1
 40
1
 10
95.838320
 20
43.473260
 30
0.0
 10
95.250357
 20
43.487993
 30
0.0
 10
94.798360
 20
43.587213
 30
0.0
 10
94.482329
 20
43.770920
 30
0.0
  0
SPLINE
  5
213
100
AcDbEntity
  8
Ebene_1
 62
7
100
AcDbSpline
 70
8
 71
3
 72
8
 73
4
 74
0
 40
0
 40
0
 40
0
 40
0
 40
1
 40
1
 40
1
 40
1
 10
94.482329
 20
43.770920
 30
0.0
 10
94.151600
 20
43.917907
 30
0.0
 10
93.986235
 20
44.314780
 30
0.0
 10
93.986235
 20
44.961540
 30
0.0
  0
SPLINE
  5
214
100
AcDbEntity
  8
Ebene_1
 62
7
100
AcDbSpline
 70
8
 71
3
 72
8
 73
4
 74
0
 40
0
 40
0
 40
0
 40
0
 40
1
 40
1
 40
1
 40
1
 10
93.986235
 20
44.961540
 30
0.0
 10
93.971535
 20
45.446613
 30
0.0
 10
94.114851
 20
45.810417
 30
0.0
 10
94.416183
 20
46.052950
 30
0.0
  0
SPLINE
  5
215
100
AcDbEntity
  8
Ebene_1
 62
7
100
AcDbSpline
 70
8
 71
3
 72
8
 73
4
 74
0
 40
0
 40
0
 40
0
 40
0
 40
1
 40
1
 40
1
 40
1
 10
94.416183
 20
46.052950
 30
0.0
 10
94.717514
 20
46.288137
 30
0.0
 10
95.456144
 20
46.405730
 30
0.0
 10
96.632071
 20
46.405730
 30
0.0
  0
SPLINE
  5
216
100
AcDbEntity
  8
Ebene_1
 62
7
100
AcDbSpline
 70
8
 71
3
 72
8
 73
4
 74
0
 40
0
 40
0
 40
0
 40
0
 40
1
 40
1
 40
1
 40
1
 10
96.632071
 20
46.405730
 30
0.0
 10
97.080393
 20
46.405730
 30
0.0
 10
97.469919
 20
46.398363
 30
0.0
 10
97.800648
 20
46.383630
 30
0.0
  0
SPLINE
  5
217
100
AcDbEntity
  8
Ebene_1
 62
7
100
AcDbSpline
 70
8
 71
3
 72
8
 73
4
 74
0
 40
0
 40
0
 40
0
 40
0
 40
1
 40
1
 40
1
 40
1
 10
97.800648
 20
46.383630
 30
0.0
 10
98.116679
 20
46.368963
 30
0.0
 10
98.373913
 20
46.310167
 30
0.0
 10
98.572350
 20
46.207240
 30
0.0
  0
SPLINE
  5
218
100
AcDbEntity
  8
Ebene_1
 62
7
100
AcDbSpline
 70
8
 71
3
 72
8
 73
4
 74
0
 40
0
 40
0
 40
0
 40
0
 40
1
 40
1
 40
1
 40
1
 10
98.572350
 20
46.207240
 30
0.0
 10
98.961876
 20
46.023500
 30
0.0
 10
99.156639
 20
45.512707
 30
0.0
 10
99.156639
 20
44.674860
 30
0.0
  0
LWPOLYLINE
  5
219
100
AcDbEntity
  8
Ebene_1
 62
7
100
AcDbPolyline
 90
4
 70
1
 10
87.217306
 20
49.977610
 30
0.0
 10
82.697336
 20
49.977610
 30
0.0
 10
82.697336
 20
33.044260
 30
0.0
 10
87.217306
 20
33.044260
 30
0.0
  0
SPLINE
  5
21a
100
AcDbEntity
  8
Ebene_1
 62
7
100
AcDbSpline
 70
8
 71
3
 72
8
 73
4
 74
0
 40
0
 40
0
 40
0
 40
0
 40
1
 40
1
 40
1
 40
1
 10
103.500223
 20
45.369390
 30
0.0
 10
103.500223
 20
46.545317
 30
0.0
 10
103.323833
 20
47.464010
 30
0.0
 10
102.971053
 20
48.125470
 30
0.0
  0
SPLINE
  5
21b
100
AcDbEntity
  8
Ebene_1
 62
7
100
AcDbSpline
 70
8
 71
3
 72
8
 73
4
 74
0
 40
0
 40
0
 40
0
 40
0
 40
1
 40
1
 40
1
 40
1
 10
102.971053
 20
48.125470
 30
0.0
 10
102.610926
 20
48.772230
 30
0.0
 10
102.107483
 20
49.238927
 30
0.0
 10
101.460723
 20
49.525560
 30
0.0
  0
SPLINE
  5
21c
100
AcDbEntity
  8
Ebene_1
 62
7
100
AcDbSpline
 70
8
 71
3
 72
8
 73
4
 74
0
 40
0
 40
0
 40
0
 40
0
 40
1
 40
1
 40
1
 40
1
 10
101.460723
 20
49.525560
 30
0.0
 10
100.828663
 20
49.812193
 30
0.0
 10
100.101058
 20
49.984907
 30
0.0
 10
99.277907
 20
50.043700
 30
0.0
  0
SPLINE
  5
21d
100
AcDbEntity
  8
Ebene_1
 62
7
100
AcDbSpline
 70
8
 71
3
 72
8
 73
4
 74
0
 40
0
 40
0
 40
0
 40
0
 40
1
 40
1
 40
1
 40
1
 10
99.277907
 20
50.043700
 30
0.0
 10
98.447408
 20
50.087767
 30
0.0
 10
97.565463
 20
50.109800
 30
0.0
 10
96.632071
 20
50.109800
 30
0.0
  0
SPLINE
  5
21e
100
AcDbEntity
  8
Ebene_1
 62
7
100
AcDbSpline
 70
8
 71
3
 72
8
 73
4
 74
0
 40
0
 40
0
 40
0
 40
0
 40
1
 40
1
 40
1
 40
1
 10
96.632071
 20
50.109800
 30
0.0
 10
95.514940
 20
50.109800
 30
0.0
 10
94.530101
 20
50.080400
 30
0.0
 10
93.677554
 20
50.021600
 30
0.0
  0
SPLINE
  5
21f
100
AcDbEntity
  8
Ebene_1
 62
7
100
AcDbSpline
 70
8
 71
3
 72
8
 73
4
 74
0
 40
0
 40
0
 40
0
 40
0
 40
1
 40
1
 40
1
 40
1
 10
93.677554
 20
50.021600
 30
0.0
 10
92.788259
 20
49.918707
 30
0.0
 10
92.034930
 20
49.701893
 30
0.0
 10
91.417569
 20
49.371160
 30
0.0
  0
SPLINE
  5
220
100
AcDbEntity
  8
Ebene_1
 62
7
100
AcDbSpline
 70
8
 71
3
 72
8
 73
4
 74
0
 40
0
 40
0
 40
0
 40
0
 40
1
 40
1
 40
1
 40
1
 10
91.417569
 20
49.371160
 30
0.0
 10
90.814906
 20
49.040433
 30
0.0
 10
90.340861
 20
48.525967
 30
0.0
 10
89.995432
 20
47.827760
 30
0.0
  0
SPLINE
  5
221
100
AcDbEntity
  8
Ebene_1
 62
7
100
AcDbSpline
 70
8
 71
3
 72
8
 73
4
 74
0
 40
0
 40
0
 40
0
 40
0
 40
1
 40
1
 40
1
 40
1
 10
89.995432
 20
47.827760
 30
0.0
 10
89.650003
 20
47.122200
 30
0.0
 10
89.477289
 20
46.159410
 30
0.0
 10
89.477289
 20
44.939390
 30
0.0
  0
SPLINE
  5
222
100
AcDbEntity
  8
Ebene_1
 62
7
100
AcDbSpline
 70
8
 71
3
 72
8
 73
4
 74
0
 40
0
 40
0
 40
0
 40
0
 40
1
 40
1
 40
1
 40
1
 10
89.477289
 20
44.939390
 30
0.0
 10
89.477289
 20
43.748763
 30
0.0
 10
89.635304
 20
42.822720
 30
0.0
 10
89.951335
 20
42.161260
 30
0.0
  0
SPLINE
  5
223
100
AcDbEntity
  8
Ebene_1
 62
7
100
AcDbSpline
 70
8
 71
3
 72
8
 73
4
 74
0
 40
0
 40
0
 40
0
 40
0
 40
1
 40
1
 40
1
 40
1
 10
89.951335
 20
42.161260
 30
0.0
 10
90.252666
 20
41.499800
 30
0.0
 10
90.682615
 20
41.011053
 30
0.0
 10
91.241180
 20
40.695020
 30
0.0
  0
SPLINE
  5
224
100
AcDbEntity
  8
Ebene_1
 62
7
100
AcDbSpline
 70
8
 71
3
 72
8
 73
4
 74
0
 40
0
 40
0
 40
0
 40
0
 40
1
 40
1
 40
1
 40
1
 10
91.241180
 20
40.695020
 30
0.0
 10
91.807095
 20
40.393693
 30
0.0
 10
92.497952
 20
40.191583
 30
0.0
 10
93.313751
 20
40.088690
 30
0.0
  0
SPLINE
  5
225
100
AcDbEntity
  8
Ebene_1
 62
7
100
AcDbSpline
 70
8
 71
3
 72
8
 73
4
 74
0
 40
0
 40
0
 40
0
 40
0
 40
1
 40
1
 40
1
 40
1
 10
93.313751
 20
40.088690
 30
0.0
 10
94.129551
 20
39.985797
 30
0.0
 10
95.055594
 20
39.893927
 30
0.0
 10
96.091879
 20
39.813080
 30
0.0
  0
LWPOLYLINE
  5
226
100
AcDbEntity
  8
Ebene_1
 62
7
100
AcDbPolyline
 90
3
 70
0
 10
99.156639
 20
44.674860
 30
0.0
 10
103.500223
 20
44.674860
 30
0.0
 10
103.500223
 20
45.369390
 30
0.0
  0
SPLINE
  5
227
100
AcDbEntity
  8
Ebene_1
 62
7
100
AcDbSpline
 70
8
 71
3
 72
8
 73
4
 74
0
 40
0
 40
0
 40
0
 40
0
 40
1
 40
1
 40
1
 40
1
 10
97.084068
 20
39.746980
 30
0.0
 10
98.120353
 20
39.717580
 30
0.0
 10
98.789162
 20
39.629387
 30
0.0
 10
99.090493
 20
39.482400
 30
0.0
  0
SPLINE
  5
228
100
AcDbEntity
  8
Ebene_1
 62
7
100
AcDbSpline
 70
8
 71
3
 72
8
 73
4
 74
0
 40
0
 40
0
 40
0
 40
0
 40
1
 40
1
 40
1
 40
1
 10
99.090493
 20
39.482400
 30
0.0
 10
99.347727
 20
39.313360
 30
0.0
 10
99.468995
 20
38.876063
 30
0.0
 10
99.454296
 20
38.170510
 30
0.0
  0
SPLINE
  5
229
100
AcDbEntity
  8
Ebene_1
 62
7
100
AcDbSpline
 70
8
 71
3
 72
8
 73
4
 74
0
 40
0
 40
0
 40
0
 40
0
 40
1
 40
1
 40
1
 40
1
 10
99.454296
 20
38.170510
 30
0.0
 10
99.454296
 20
37.494350
 30
0.0
 10
99.259533
 20
37.064400
 30
0.0
 10
98.870007
 20
36.880660
 30
0.0
  0
SPLINE
  5
22a
100
AcDbEntity
  8
Ebene_1
 62
7
100
AcDbSpline
 70
8
 71
3
 72
8
 73
4
 74
0
 40
0
 40
0
 40
0
 40
0
 40
1
 40
1
 40
1
 40
1
 10
98.870007
 20
36.880660
 30
0.0
 10
98.429034
 20
36.689573
 30
0.0
 10
97.683056
 20
36.601380
 30
0.0
 10
96.632071
 20
36.616080
 30
0.0
  0
SPLINE
  5
22b
100
AcDbEntity
  8
Ebene_1
 62
7
100
AcDbSpline
 70
8
 71
3
 72
8
 73
4
 74
0
 40
0
 40
0
 40
0
 40
0
 40
1
 40
1
 40
1
 40
1
 10
96.632071
 20
36.616080
 30
0.0
 10
95.551688
 20
36.601347
 30
0.0
 10
94.805709
 20
36.704240
 30
0.0
 10
94.394134
 20
36.924760
 30
0.0
  0
SPLINE
  5
22c
100
AcDbEntity
  8
Ebene_1
 62
7
100
AcDbSpline
 70
8
 71
3
 72
8
 73
4
 74
0
 40
0
 40
0
 40
0
 40
0
 40
1
 40
1
 40
1
 40
1
 10
94.394134
 20
36.924760
 30
0.0
 10
93.975210
 20
37.167293
 30
0.0
 10
93.773098
 20
37.711160
 30
0.0
 10
93.787797
 20
38.556360
 30
0.0
  0
LWPOLYLINE
  5
22d
100
AcDbEntity
  8
Ebene_1
 62
7
100
AcDbPolyline
 90
2
 70
0
 10
96.091879
 20
39.813080
 30
0.0
 10
97.084068
 20
39.746980
 30
0.0
  0
SPLINE
  5
22e
100
AcDbEntity
  8
Ebene_1
 62
7
100
AcDbSpline
 70
8
 71
3
 72
8
 73
4
 74
0
 40
0
 40
0
 40
0
 40
0
 40
1
 40
1
 40
1
 40
1
 10
89.455241
 20
38.556360
 30
0.0
 10
89.455241
 20
37.196693
 30
0.0
 10
89.627955
 20
36.127333
 30
0.0
 10
89.973383
 20
35.348280
 30
0.0
  0
SPLINE
  5
22f
100
AcDbEntity
  8
Ebene_1
 62
7
100
AcDbSpline
 70
8
 71
3
 72
8
 73
4
 74
0
 40
0
 40
0
 40
0
 40
0
 40
1
 40
1
 40
1
 40
1
 10
89.973383
 20
35.348280
 30
0.0
 10
90.318812
 20
34.561880
 30
0.0
 10
90.807557
 20
33.995967
 30
0.0
 10
91.439618
 20
33.650540
 30
0.0
  0
SPLINE
  5
230
100
AcDbEntity
  8
Ebene_1
 62
7
100
AcDbSpline
 70
8
 71
3
 72
8
 73
4
 74
0
 40
0
 40
0
 40
0
 40
0
 40
1
 40
1
 40
1
 40
1
 10
91.439618
 20
33.650540
 30
0.0
 10
92.071679
 20
33.305107
 30
0.0
 10
92.832356
 20
33.095643
 30
0.0
 10
93.721651
 20
33.022150
 30
0.0
  0
SPLINE
  5
231
100
AcDbEntity
  8
Ebene_1
 62
7
100
AcDbSpline
 70
8
 71
3
 72
8
 73
4
 74
0
 40
0
 40
0
 40
0
 40
0
 40
1
 40
1
 40
1
 40
1
 10
93.721651
 20
33.022150
 30
0.0
 10
94.610946
 20
32.948657
 30
0.0
 10
95.581086
 20
32.911910
 30
0.0
 10
96.632071
 20
32.911910
 30
0.0
  0
SPLINE
  5
232
100
AcDbEntity
  8
Ebene_1
 62
7
100
AcDbSpline
 70
8
 71
3
 72
8
 73
4
 74
0
 40
0
 40
0
 40
0
 40
0
 40
1
 40
1
 40
1
 40
1
 10
96.632071
 20
32.911910
 30
0.0
 10
98.484156
 20
32.926577
 30
0.0
 10
99.920994
 20
33.091940
 30
0.0
 10
100.942583
 20
33.408000
 30
0.0
  0
SPLINE
  5
233
100
AcDbEntity
  8
Ebene_1
 62
7
100
AcDbSpline
 70
8
 71
3
 72
8
 73
4
 74
0
 40
0
 40
0
 40
0
 40
0
 40
1
 40
1
 40
1
 40
1
 10
100.942583
 20
33.408000
 30
0.0
 10
101.964170
 20
33.709333
 30
0.0
 10
102.688100
 20
34.120907
 30
0.0
 10
103.114373
 20
34.642720
 30
0.0
  0
SPLINE
  5
234
100
AcDbEntity
  8
Ebene_1
 62
7
100
AcDbSpline
 70
8
 71
3
 72
8
 73
4
 74
0
 40
0
 40
0
 40
0
 40
0
 40
1
 40
1
 40
1
 40
1
 10
103.114373
 20
34.642720
 30
0.0
 10
103.547993
 20
35.171887
 30
0.0
 10
103.808900
 20
35.767200
 30
0.0
 10
103.897093
 20
36.428660
 30
0.0
  0
SPLINE
  5
235
100
AcDbEntity
  8
Ebene_1
 62
7
100
AcDbSpline
 70
8
 71
3
 72
8
 73
4
 74
0
 40
0
 40
0
 40
0
 40
0
 40
1
 40
1
 40
1
 40
1
 10
103.897093
 20
36.428660
 30
0.0
 10
103.963226
 20
37.090120
 30
0.0
 10
103.988960
 20
37.766280
 30
0.0
 10
103.974293
 20
38.457140
 30
0.0
  0
SPLINE
  5
236
100
AcDbEntity
  8
Ebene_1
 62
7
100
AcDbSpline
 70
8
 71
3
 72
8
 73
4
 74
0
 40
0
 40
0
 40
0
 40
0
 40
1
 40
1
 40
1
 40
1
 10
103.974293
 20
38.457140
 30
0.0
 10
104.003693
 20
40.338620
 30
0.0
 10
103.595793
 20
41.595390
 30
0.0
 10
102.750593
 20
42.227450
 30
0.0
  0
SPLINE
  5
237
100
AcDbEntity
  8
Ebene_1
 62
7
100
AcDbSpline
 70
8
 71
3
 72
8
 73
4
 74
0
 40
0
 40
0
 40
0
 40
0
 40
1
 40
1
 40
1
 40
1
 10
102.750593
 20
42.227450
 30
0.0
 10
101.846600
 20
42.844817
 30
0.0
 10
100.167230
 20
43.215970
 30
0.0
 10
97.712484
 20
43.340910
 30
0.0
  0
LWPOLYLINE
  5
238
100
AcDbEntity
  8
Ebene_1
 62
7
100
AcDbPolyline
 90
2
 70
0
 10
93.787797
 20
38.556360
 30
0.0
 10
89.455241
 20
38.556360
 30
0.0
  0
LWPOLYLINE
  5
239
100
AcDbEntity
  8
Ebene_1
 62
7
100
AcDbPolyline
 90
2
 70
0
 10
97.712484
 20
43.340910
 30
0.0
 10
95.838320
 20
43.473260
 30
0.0
  0
LWPOLYLINE
  5
23a
100
AcDbEntity
  8
Ebene_1
 62
7
100
AcDbPolyline
 90
8
 70
1
 10
113.653613
 20
46.052950
 30
0.0
 10
118.206653
 20
46.052950
 30
0.0
 10
118.206653
 20
49.977610
 30
0.0
 10
104.801083
 20
49.977610
 30
0.0
 10
104.801083
 20
46.052950
 30
0.0
 10
109.133643
 20
46.052950
 30
0.0
 10
109.133643
 20
33.044260
 30
0.0
 10
113.653613
 20
33.044260
 30
0.0
  0
LWPOLYLINE
  5
23b
100
AcDbEntity
  8
Ebene_1
 62
7
100
AcDbPolyline
 90
8
 70
1
 10
129.539653
 20
35.954680
 30
0.0
 10
130.421603
 20
33.044260
 30
0.0
 10
135.029763
 20
33.044260
 30
0.0
 10
129.881403
 20
49.977610
 30
0.0
 10
123.013263
 20
49.977610
 30
0.0
 10
117.931053
 20
33.044260
 30
0.0
 10
122.627403
 20
33.044260
 30
0.0
 10
123.465253
 20
35.954680
 30
0.0
  0
LWPOLYLINE
  5
23c
100
AcDbEntity
  8
Ebene_1
 62
7
100
AcDbPolyline
 90
4
 70
1
 10
128.635663
 20
39.250950
 30
0.0
 10
124.435393
 20
39.250950
 30
0.0
 10
126.496943
 20
46.593140
 30
0.0
 10
126.541043
 20
46.593140
 30
0.0
  0
LWPOLYLINE
  5
23d
100
AcDbEntity
  8
Ebene_1
 62
7
100
AcDbPolyline
 90
12
 70
1
 10
140.376563
 20
46.052950
 30
0.0
 10
140.552943
 20
46.052950
 30
0.0
 10
145.337503
 20
33.044260
 30
0.0
 10
153.043503
 20
33.044260
 30
0.0
 10
153.043503
 20
49.977610
 30
0.0
 10
148.523533
 20
49.977610
 30
0.0
 10
148.799133
 20
36.968910
 30
0.0
 10
148.611723
 20
36.968910
 30
0.0
 10
143.761023
 20
49.977610
 30
0.0
 10
136.132193
 20
49.977610
 30
0.0
 10
136.132193
 20
33.044260
 30
0.0
 10
140.641143
 20
33.044260
 30
0.0
  0
LWPOLYLINE
  5
23e
100
AcDbEntity
  8
Ebene_1
 62
7
100
AcDbPolyline
 90
8
 70
1
 10
163.296113
 20
46.052950
 30
0.0
 10
167.849153
 20
46.052950
 30
0.0
 10
167.849153
 20
49.977610
 30
0.0
 10
154.443583
 20
49.977610
 30
0.0
 10
154.443583
 20
46.052950
 30
0.0
 10
158.776143
 20
46.052950
 30
0.0
 10
158.776143
 20
33.044260
 30
0.0
 10
163.296113
 20
33.044260
 30
0.0
  0
ENDSEC
  0
SECTION
  2
OBJECTS
  0
DICTIONARY
  5
C
330
0
100
AcDbDictionary
  3
ACAD_GROUP
350
D
  3
ACAD_MLINESTYLE
350
17
  0
DICTIONARY
  5
D
330
C
100
AcDbDictionary
  0
DICTIONARY
  5
1A
330
C
100
AcDbDictionary
  0
DICTIONARY
  5
17
330
C
100
AcDbDictionary
  3
STANDARD
350
18
  0
DICTIONARY
  5
19
330
C
100
AcDbDictionary
  0
ENDSEC
  0
EOF
