  0
SECTION
  2
HEADER
  9
$ACADVER
  1
AC1014
  9
$HANDSEED
  5
FFFF
  9
$MEASUREMENT
 70
     1
  0
ENDSEC
  0
SECTION
  2
TABLES
  0
TABLE
  2
VPORT
  5
8
330
0
100
AcDbSymbolTable
 70
     4
  0
VPORT
  5
2E
330
8
100
AcDbSymbolTableRecord
100
AcDbViewportTableRecord
  2
*ACTIVE
 70
     0
 10
0.0
 20
0.0
 11
1.0
 21
1.0
 12
210.0
 22
148.5
 13
0.0
 23
0.0
 14
10.0
 24
10.0
 15
10.0
 25
10.0
 16
0.0
 26
0.0
 36
1.0
 17
0.0
 27
0.0
 37
0.0
 40
341.0
 41
1.24
 42
50.0
 43
0.0
 44
0.0
 50
0.0
 51
0.0
 71
     0
 72
   100
 73
     1
 74
     3
 75
     0
 76
     0
 77
     0
 78
     0
  0
ENDTAB
  0
TABLE
  2
LTYPE
  5
5
330
0
100
AcDbSymbolTable
 70
     1
  0
LTYPE
  5
14
330
5
100
AcDbSymbolTableRecord
100
AcDbLinetypeTableRecord
  2
BYBLOCK
 70
     0
  3

 72
    65
 73
     0
 40
0.0
  0
LTYPE
  5
15
330
5
100
AcDbSymbolTableRecord
100
AcDbLinetypeTableRecord
  2
BYLAYER
 70
     0
  3

 72
    65
 73
     0
 40
0.0
  0
LTYPE
  5
16
330
5
100
AcDbSymbolTableRecord
100
AcDbLinetypeTableRecord
  2
CONTINUOUS
 70
     0
  3
Solid line
 72
    65
 73
     0
 40
0.0
  0
ENDTAB
  0
TABLE
  2
LAYER
  5
2
100
AcDbSymbolTable
 70
2
  0
LAYER
  5
50
100
AcDbSymbolTableRecord
100
AcDbLayerTableRecord
  2
0
 70
0
  6
CONTINUOUS
  0
LAYER
  5
51
100
AcDbSymbolTableRecord
100
AcDbLayerTableRecord
  2
Ebene_1
 70
0
  6
CONTINUOUS
  0
ENDTAB
  0
TABLE
  2
STYLE
  5
3
330
0
100
AcDbSymbolTable
 70
     1
  0
STYLE
  5
11
330
3
100
AcDbSymbolTableRecord
100
AcDbTextStyleTableRecord
  2
STANDARD
 70
     0
 40
0.0
 41
1.0
 50
0.0
 71
     0
 42
2.5
  3
txt
  4

  0
ENDTAB
  0
TABLE
  2
VIEW
  5
6
330
0
100
AcDbSymbolTable
 70
     0
  0
ENDTAB
  0
TABLE
  2
UCS
  5
7
330
0
100
AcDbSymbolTable
 70
     0
  0
ENDTAB
  0
TABLE
  2
APPID
  5
9
330
0
100
AcDbSymbolTable
 70
     2
  0
APPID
  5
12
330
9
100
AcDbSymbolTableRecord
100
AcDbRegAppTableRecord
  2
ACAD
 70
     0
  0
ENDTAB
  0
TABLE
  2
DIMSTYLE
  5
A
330
0
100
AcDbSymbolTable
 70
     1
  0
DIMSTYLE
105
27
330
A
100
AcDbSymbolTableRecord
100
AcDbDimStyleTableRecord
  2
ISO-25
 70
     0
  3

  4

  5

  6

  7

 40
1.0
 41
2.5
 42
0.625
 43
3.75
 44
1.25
 45
0.0
 46
0.0
 47
0.0
 48
0.0
140
2.5
141
2.5
142
0.0
143
0.03937007874016
144
1.0
145
0.0
146
1.0
147
0.625
 71
     0
 72
     0
 73
     0
 74
     0
 75
     0
 76
     0
 77
     1
 78
     8
170
     0
171
     3
172
     1
173
     0
174
     0
175
     0
176
     0
177
     0
178
     0
270
     2
271
     2
272
     2
273
     2
274
     3
340
11
275
     0
280
     0
281
     0
282
     0
283
     0
284
     8
285
     0
286
     0
287
     3
288
     0
  0
ENDTAB
  0
TABLE
  2
BLOCK_RECORD
  5
1
330
0
100
AcDbSymbolTable
 70
     1
  0
BLOCK_RECORD
  5
1F
330
1
100
AcDbSymbolTableRecord
100
AcDbBlockTableRecord
  2
*MODEL_SPACE
  0
BLOCK_RECORD
  5
1B
330
1
100
AcDbSymbolTableRecord
100
AcDbBlockTableRecord
  2
*PAPER_SPACE
  0
ENDTAB
  0
ENDSEC
  0
SECTION
  2
BLOCKS
  0
BLOCK
  5
20
330
1F
100
AcDbEntity
  8
0
100
AcDbBlockBegin
  2
*MODEL_SPACE
 70
     0
 10
0.0
 20
0.0
 30
0.0
  3
*MODEL_SPACE
  1

  0
ENDBLK
  5
21
330
1F
100
AcDbEntity
  8
0
100
AcDbBlockEnd
  0
BLOCK
  5
1C
330
1B
100
AcDbEntity
 67
     1
  8
0
100
AcDbBlockBegin
  2
*PAPER_SPACE
  1

  0
ENDBLK
  5
1D
330
1B
100
AcDbEntity
 67
     1
  8
0
100
AcDbBlockEnd
  0
ENDSEC
  0
SECTION
  2
ENTITIES
  0
SPLINE
  5
100
100
AcDbEntity
  8
Ebene_1
 62
7
100
AcDbSpline
 70
8
 71
3
 72
8
 73
4
 74
0
 40
0
 40
0
 40
0
 40
0
 40
1
 40
1
 40
1
 40
1
 10
41.030804
 20
79.126700
 30
0.0
 10
39.293222
 20
79.126700
 30
0.0
 10
37.915129
 20
80.534730
 30
0.0
 10
37.915129
 20
82.242370
 30
0.0
  0
LWPOLYLINE
  5
101
100
AcDbEntity
  8
Ebene_1
 62
7
100
AcDbPolyline
 90
4
 70
0
 10
97.112942
 20
79.126700
 30
0.0
 10
96.993084
 20
79.246560
 30
0.0
 10
97.112942
 20
79.126700
 30
0.0
 10
41.030804
 20
79.126700
 30
0.0
  0
SPLINE
  5
102
100
AcDbEntity
  8
Ebene_1
 62
7
100
AcDbSpline
 70
8
 71
3
 72
8
 73
4
 74
0
 40
0
 40
0
 40
0
 40
0
 40
1
 40
1
 40
1
 40
1
 10
23.894591
 20
135.867905
 30
0.0
 10
21.827460
 20
135.867905
 30
0.0
 10
20.149792
 20
137.545571
 30
0.0
 10
20.149792
 20
139.612704
 30
0.0
  0
SPLINE
  5
103
100
AcDbEntity
  8
Ebene_1
 62
7
100
AcDbSpline
 70
8
 71
3
 72
8
 73
4
 74
0
 40
0
 40
0
 40
0
 40
0
 40
1
 40
1
 40
1
 40
1
 10
20.149792
 20
139.612704
 30
0.0
 10
20.149792
 20
140.601333
 30
0.0
 10
20.539255
 20
141.560005
 30
0.0
 10
21.228294
 20
142.249043
 30
0.0
  0
LWPOLYLINE
  5
104
100
AcDbEntity
  8
Ebene_1
 62
7
100
AcDbPolyline
 90
3
 70
0
 10
37.915129
 20
82.242370
 30
0.0
 10
37.915129
 20
135.867905
 30
0.0
 10
23.894591
 20
135.867905
 30
0.0
  0
SPLINE
  5
105
100
AcDbEntity
  8
Ebene_1
 62
7
100
AcDbSpline
 70
8
 71
3
 72
8
 73
4
 74
0
 40
0
 40
0
 40
0
 40
0
 40
1
 40
1
 40
1
 40
1
 10
96.633606
 20
218.553122
 30
0.0
 10
98.461077
 20
220.410543
 30
0.0
 10
101.426940
 20
220.410543
 30
0.0
 10
103.284370
 20
218.583082
 30
0.0
  0
LWPOLYLINE
  5
106
100
AcDbEntity
  8
Ebene_1
 62
7
100
AcDbPolyline
 90
2
 70
0
 10
21.228294
 20
142.249043
 30
0.0
 10
96.633606
 20
218.553122
 30
0.0
  0
SPLINE
  5
107
100
AcDbEntity
  8
Ebene_1
 62
7
100
AcDbSpline
 70
8
 71
3
 72
8
 73
4
 74
0
 40
0
 40
0
 40
0
 40
0
 40
1
 40
1
 40
1
 40
1
 10
142.709680
 20
186.257959
 30
0.0
 10
142.709680
 20
187.995541
 30
0.0
 10
144.117720
 20
189.373633
 30
0.0
 10
145.825350
 20
189.373633
 30
0.0
  0
LWPOLYLINE
  5
108
100
AcDbEntity
  8
Ebene_1
 62
7
100
AcDbPolyline
 90
4
 70
0
 10
103.284370
 20
218.583082
 30
0.0
 10
103.314370
 20
218.553122
 30
0.0
 10
142.709680
 20
178.918149
 30
0.0
 10
142.709680
 20
186.257959
 30
0.0
  0
SPLINE
  5
109
100
AcDbEntity
  8
Ebene_1
 62
7
100
AcDbSpline
 70
8
 71
3
 72
8
 73
4
 74
0
 40
0
 40
0
 40
0
 40
0
 40
1
 40
1
 40
1
 40
1
 10
158.917180
 20
189.373633
 30
0.0
 10
160.654760
 20
189.373633
 30
0.0
 10
162.032860
 20
187.965584
 30
0.0
 10
162.032860
 20
186.257959
 30
0.0
  0
LWPOLYLINE
  5
10a
100
AcDbEntity
  8
Ebene_1
 62
7
100
AcDbPolyline
 90
2
 70
0
 10
145.825350
 20
189.373633
 30
0.0
 10
158.917180
 20
189.373633
 30
0.0
  0
SPLINE
  5
10b
100
AcDbEntity
  8
Ebene_1
 62
7
100
AcDbSpline
 70
8
 71
3
 72
8
 73
4
 74
0
 40
0
 40
0
 40
0
 40
0
 40
1
 40
1
 40
1
 40
1
 10
178.779590
 20
142.249043
 30
0.0
 10
180.217600
 20
140.781093
 30
0.0
 10
180.217600
 20
138.384414
 30
0.0
 10
178.719790
 20
136.946405
 30
0.0
  0
SPLINE
  5
10c
100
AcDbEntity
  8
Ebene_1
 62
7
100
AcDbSpline
 70
8
 71
3
 72
8
 73
4
 74
0
 40
0
 40
0
 40
0
 40
0
 40
1
 40
1
 40
1
 40
1
 10
178.719790
 20
136.946405
 30
0.0
 10
178.030760
 20
136.257370
 30
0.0
 10
177.072080
 20
135.867905
 30
0.0
 10
176.083450
 20
135.867905
 30
0.0
  0
LWPOLYLINE
  5
10d
100
AcDbEntity
  8
Ebene_1
 62
7
100
AcDbPolyline
 90
3
 70
0
 10
162.032860
 20
186.257959
 30
0.0
 10
162.032860
 20
159.325341
 30
0.0
 10
178.779590
 20
142.249043
 30
0.0
  0
SPLINE
  5
10e
100
AcDbEntity
  8
Ebene_1
 62
7
100
AcDbSpline
 70
8
 71
3
 72
8
 73
4
 74
0
 40
0
 40
0
 40
0
 40
0
 40
1
 40
1
 40
1
 40
1
 10
162.032930
 20
82.272330
 30
0.0
 10
162.032930
 20
80.534730
 30
0.0
 10
160.624880
 20
79.156650
 30
0.0
 10
158.917260
 20
79.156650
 30
0.0
  0
LWPOLYLINE
  5
10f
100
AcDbEntity
  8
Ebene_1
 62
7
100
AcDbPolyline
 90
3
 70
0
 10
176.083450
 20
135.867905
 30
0.0
 10
162.032930
 20
135.867905
 30
0.0
 10
162.032930
 20
82.272330
 30
0.0
  0
LWPOLYLINE
  5
110
100
AcDbEntity
  8
Ebene_1
 62
7
100
AcDbPolyline
 90
3
 70
0
 10
158.917260
 20
79.156650
 30
0.0
 10
102.805080
 20
79.156650
 30
0.0
 10
102.864880
 20
79.216450
 30
0.0
  0
SPLINE
  5
111
100
AcDbEntity
  8
Ebene_1
 62
7
100
AcDbSpline
 70
8
 71
3
 72
8
 73
4
 74
0
 40
0
 40
0
 40
0
 40
0
 40
1
 40
1
 40
1
 40
1
 10
125.273880
 20
90.810470
 30
0.0
 10
126.112720
 20
88.473720
 30
0.0
 10
128.329640
 20
86.796040
 30
0.0
 10
130.965980
 20
86.796040
 30
0.0
  0
SPLINE
  5
112
100
AcDbEntity
  8
Ebene_1
 62
7
100
AcDbSpline
 70
8
 71
3
 72
8
 73
4
 74
0
 40
0
 40
0
 40
0
 40
0
 40
1
 40
1
 40
1
 40
1
 10
130.965980
 20
86.796040
 30
0.0
 10
134.291350
 20
86.796040
 30
0.0
 10
137.017570
 20
89.492290
 30
0.0
 10
137.017570
 20
92.817680
 30
0.0
  0
SPLINE
  5
113
100
AcDbEntity
  8
Ebene_1
 62
7
100
AcDbSpline
 70
8
 71
3
 72
8
 73
4
 74
0
 40
0
 40
0
 40
0
 40
0
 40
1
 40
1
 40
1
 40
1
 10
137.017570
 20
92.817680
 30
0.0
 10
137.017570
 20
96.143070
 30
0.0
 10
134.321320
 20
98.839320
 30
0.0
 10
130.965980
 20
98.839320
 30
0.0
  0
SPLINE
  5
114
100
AcDbEntity
  8
Ebene_1
 62
7
100
AcDbSpline
 70
8
 71
3
 72
8
 73
4
 74
0
 40
0
 40
0
 40
0
 40
0
 40
1
 40
1
 40
1
 40
1
 10
130.965980
 20
98.839320
 30
0.0
 10
128.329640
 20
98.839320
 30
0.0
 10
126.082760
 20
97.161660
 30
0.0
 10
125.273880
 20
94.824900
 30
0.0
  0
LWPOLYLINE
  5
115
100
AcDbEntity
  8
Ebene_1
 62
7
100
AcDbPolyline
 90
4
 70
0
 10
104.141930
 20
80.447930
 30
0.0
 10
104.141930
 20
80.447930
 30
0.0
 10
114.488850
 20
90.810470
 30
0.0
 10
125.273880
 20
90.810470
 30
0.0
  0
SPLINE
  5
116
100
AcDbEntity
  8
Ebene_1
 62
7
100
AcDbSpline
 70
8
 71
3
 72
8
 73
4
 74
0
 40
0
 40
0
 40
0
 40
0
 40
1
 40
1
 40
1
 40
1
 10
135.759320
 20
110.103690
 30
0.0
 10
136.598160
 20
107.766930
 30
0.0
 10
138.815080
 20
106.089260
 30
0.0
 10
141.451420
 20
106.089260
 30
0.0
  0
SPLINE
  5
117
100
AcDbEntity
  8
Ebene_1
 62
7
100
AcDbSpline
 70
8
 71
3
 72
8
 73
4
 74
0
 40
0
 40
0
 40
0
 40
0
 40
1
 40
1
 40
1
 40
1
 10
141.451420
 20
106.089260
 30
0.0
 10
144.776810
 20
106.089260
 30
0.0
 10
147.503030
 20
108.785510
 30
0.0
 10
147.503030
 20
112.110910
 30
0.0
  0
SPLINE
  5
118
100
AcDbEntity
  8
Ebene_1
 62
7
100
AcDbSpline
 70
8
 71
3
 72
8
 73
4
 74
0
 40
0
 40
0
 40
0
 40
0
 40
1
 40
1
 40
1
 40
1
 10
147.503030
 20
112.110910
 30
0.0
 10
147.503030
 20
115.436280
 30
0.0
 10
144.806760
 20
118.132540
 30
0.0
 10
141.451420
 20
118.132540
 30
0.0
  0
SPLINE
  5
119
100
AcDbEntity
  8
Ebene_1
 62
7
100
AcDbSpline
 70
8
 71
3
 72
8
 73
4
 74
0
 40
0
 40
0
 40
0
 40
0
 40
1
 40
1
 40
1
 40
1
 10
141.451420
 20
118.132540
 30
0.0
 10
138.815080
 20
118.132540
 30
0.0
 10
136.568200
 20
116.454870
 30
0.0
 10
135.759320
 20
114.118130
 30
0.0
  0
LWPOLYLINE
  5
11a
100
AcDbEntity
  8
Ebene_1
 62
7
100
AcDbPolyline
 90
6
 70
0
 10
125.273880
 20
94.824900
 30
0.0
 10
112.811180
 20
94.824900
 30
0.0
 10
101.966240
 20
83.979950
 30
0.0
 10
101.966240
 20
97.191610
 30
0.0
 10
114.878310
 20
110.103690
 30
0.0
 10
135.759320
 20
110.103690
 30
0.0
  0
SPLINE
  5
11b
100
AcDbEntity
  8
Ebene_1
 62
7
100
AcDbSpline
 70
8
 71
3
 72
8
 73
4
 74
0
 40
0
 40
0
 40
0
 40
0
 40
1
 40
1
 40
1
 40
1
 10
139.683880
 20
144.885397
 30
0.0
 10
140.462800
 20
144.495934
 30
0.0
 10
141.361540
 20
144.286216
 30
0.0
 10
142.290260
 20
144.286216
 30
0.0
  0
SPLINE
  5
11c
100
AcDbEntity
  8
Ebene_1
 62
7
100
AcDbSpline
 70
8
 71
3
 72
8
 73
4
 74
0
 40
0
 40
0
 40
0
 40
0
 40
1
 40
1
 40
1
 40
1
 10
142.290260
 20
144.286216
 30
0.0
 10
145.615640
 20
144.286216
 30
0.0
 10
148.341870
 20
146.982486
 30
0.0
 10
148.341870
 20
150.307864
 30
0.0
  0
SPLINE
  5
11d
100
AcDbEntity
  8
Ebene_1
 62
7
100
AcDbSpline
 70
8
 71
3
 72
8
 73
4
 74
0
 40
0
 40
0
 40
0
 40
0
 40
1
 40
1
 40
1
 40
1
 10
148.341870
 20
150.307864
 30
0.0
 10
148.341870
 20
153.633242
 30
0.0
 10
145.645610
 20
156.329497
 30
0.0
 10
142.290260
 20
156.329497
 30
0.0
  0
SPLINE
  5
11e
100
AcDbEntity
  8
Ebene_1
 62
7
100
AcDbSpline
 70
8
 71
3
 72
8
 73
4
 74
0
 40
0
 40
0
 40
0
 40
0
 40
1
 40
1
 40
1
 40
1
 10
142.290260
 20
156.329497
 30
0.0
 10
138.964870
 20
156.329497
 30
0.0
 10
136.238660
 20
153.633242
 30
0.0
 10
136.238660
 20
150.307864
 30
0.0
  0
SPLINE
  5
11f
100
AcDbEntity
  8
Ebene_1
 62
7
100
AcDbSpline
 70
8
 71
3
 72
8
 73
4
 74
0
 40
0
 40
0
 40
0
 40
0
 40
1
 40
1
 40
1
 40
1
 10
136.238660
 20
150.307864
 30
0.0
 10
136.238660
 20
149.379150
 30
0.0
 10
136.448360
 20
148.480393
 30
0.0
 10
136.837830
 20
147.701482
 30
0.0
  0
LWPOLYLINE
  5
120
100
AcDbEntity
  8
Ebene_1
 62
7
100
AcDbPolyline
 90
5
 70
0
 10
135.759320
 20
114.118130
 30
0.0
 10
118.922700
 20
114.118130
 30
0.0
 10
130.995930
 20
126.161410
 30
0.0
 10
130.995930
 20
136.227414
 30
0.0
 10
139.683880
 20
144.885397
 30
0.0
  0
SPLINE
  5
121
100
AcDbEntity
  8
Ebene_1
 62
7
100
AcDbSpline
 70
8
 71
3
 72
8
 73
4
 74
0
 40
0
 40
0
 40
0
 40
0
 40
1
 40
1
 40
1
 40
1
 10
130.995930
 20
160.313971
 30
0.0
 10
133.332690
 20
161.152797
 30
0.0
 10
135.040330
 20
163.369731
 30
0.0
 10
135.040330
 20
166.006070
 30
0.0
  0
SPLINE
  5
122
100
AcDbEntity
  8
Ebene_1
 62
7
100
AcDbSpline
 70
8
 71
3
 72
8
 73
4
 74
0
 40
0
 40
0
 40
0
 40
0
 40
1
 40
1
 40
1
 40
1
 10
135.040330
 20
166.006070
 30
0.0
 10
135.040330
 20
169.331449
 30
0.0
 10
132.344060
 20
172.027703
 30
0.0
 10
128.988720
 20
172.027703
 30
0.0
  0
SPLINE
  5
123
100
AcDbEntity
  8
Ebene_1
 62
7
100
AcDbSpline
 70
8
 71
3
 72
8
 73
4
 74
0
 40
0
 40
0
 40
0
 40
0
 40
1
 40
1
 40
1
 40
1
 10
128.988720
 20
172.027703
 30
0.0
 10
125.663350
 20
172.027703
 30
0.0
 10
122.937120
 20
169.331449
 30
0.0
 10
122.937120
 20
166.006070
 30
0.0
  0
SPLINE
  5
124
100
AcDbEntity
  8
Ebene_1
 62
7
100
AcDbSpline
 70
8
 71
3
 72
8
 73
4
 74
0
 40
0
 40
0
 40
0
 40
0
 40
1
 40
1
 40
1
 40
1
 10
122.937120
 20
166.006070
 30
0.0
 10
122.937120
 20
163.369731
 30
0.0
 10
124.614790
 20
161.152797
 30
0.0
 10
126.981500
 20
160.313971
 30
0.0
  0
LWPOLYLINE
  5
125
100
AcDbEntity
  8
Ebene_1
 62
7
100
AcDbPolyline
 90
3
 70
0
 10
136.837830
 20
147.701482
 30
0.0
 10
130.995930
 20
141.889553
 30
0.0
 10
130.995930
 20
160.313971
 30
0.0
  0
SPLINE
  5
126
100
AcDbEntity
  8
Ebene_1
 62
7
100
AcDbSpline
 70
8
 71
3
 72
8
 73
4
 74
0
 40
0
 40
0
 40
0
 40
0
 40
1
 40
1
 40
1
 40
1
 10
121.139620
 20
147.731440
 30
0.0
 10
121.529080
 20
148.510351
 30
0.0
 10
121.738790
 20
149.409108
 30
0.0
 10
121.738790
 20
150.337822
 30
0.0
  0
SPLINE
  5
127
100
AcDbEntity
  8
Ebene_1
 62
7
100
AcDbSpline
 70
8
 71
3
 72
8
 73
4
 74
0
 40
0
 40
0
 40
0
 40
0
 40
1
 40
1
 40
1
 40
1
 10
121.738790
 20
150.337822
 30
0.0
 10
121.738790
 20
153.663199
 30
0.0
 10
119.042530
 20
156.359454
 30
0.0
 10
115.687190
 20
156.359454
 30
0.0
  0
SPLINE
  5
128
100
AcDbEntity
  8
Ebene_1
 62
7
100
AcDbSpline
 70
8
 71
3
 72
8
 73
4
 74
0
 40
0
 40
0
 40
0
 40
0
 40
1
 40
1
 40
1
 40
1
 10
115.687190
 20
156.359454
 30
0.0
 10
112.331840
 20
156.359454
 30
0.0
 10
109.635590
 20
153.663199
 30
0.0
 10
109.635590
 20
150.337822
 30
0.0
  0
SPLINE
  5
129
100
AcDbEntity
  8
Ebene_1
 62
7
100
AcDbSpline
 70
8
 71
3
 72
8
 73
4
 74
0
 40
0
 40
0
 40
0
 40
0
 40
1
 40
1
 40
1
 40
1
 10
109.635590
 20
150.337822
 30
0.0
 10
109.635590
 20
147.012429
 30
0.0
 10
112.331840
 20
144.316174
 30
0.0
 10
115.687190
 20
144.316174
 30
0.0
  0
SPLINE
  5
12a
100
AcDbEntity
  8
Ebene_1
 62
7
100
AcDbSpline
 70
8
 71
3
 72
8
 73
4
 74
0
 40
0
 40
0
 40
0
 40
0
 40
1
 40
1
 40
1
 40
1
 10
115.687190
 20
144.316174
 30
0.0
 10
116.615910
 20
144.316174
 30
0.0
 10
117.514650
 20
144.525892
 30
0.0
 10
118.293580
 20
144.915341
 30
0.0
  0
LWPOLYLINE
  5
12b
100
AcDbEntity
  8
Ebene_1
 62
7
100
AcDbPolyline
 90
3
 70
0
 10
126.981500
 20
160.313971
 30
0.0
 10
126.981500
 20
141.889553
 30
0.0
 10
121.139620
 20
147.731440
 30
0.0
  0
SPLINE
  5
12c
100
AcDbEntity
  8
Ebene_1
 62
7
100
AcDbSpline
 70
8
 71
3
 72
8
 73
4
 74
0
 40
0
 40
0
 40
0
 40
0
 40
1
 40
1
 40
1
 40
1
 10
116.106610
 20
124.963050
 30
0.0
 10
118.443370
 20
125.801900
 30
0.0
 10
120.150990
 20
128.018820
 30
0.0
 10
120.150990
 20
130.655154
 30
0.0
  0
SPLINE
  5
12d
100
AcDbEntity
  8
Ebene_1
 62
7
100
AcDbSpline
 70
8
 71
3
 72
8
 73
4
 74
0
 40
0
 40
0
 40
0
 40
0
 40
1
 40
1
 40
1
 40
1
 10
120.150990
 20
130.655154
 30
0.0
 10
120.150990
 20
133.980538
 30
0.0
 10
117.454730
 20
136.676792
 30
0.0
 10
114.099400
 20
136.676792
 30
0.0
  0
SPLINE
  5
12e
100
AcDbEntity
  8
Ebene_1
 62
7
100
AcDbSpline
 70
8
 71
3
 72
8
 73
4
 74
0
 40
0
 40
0
 40
0
 40
0
 40
1
 40
1
 40
1
 40
1
 10
114.099400
 20
136.676792
 30
0.0
 10
110.774010
 20
136.676792
 30
0.0
 10
108.047800
 20
133.980538
 30
0.0
 10
108.047800
 20
130.655154
 30
0.0
  0
SPLINE
  5
12f
100
AcDbEntity
  8
Ebene_1
 62
7
100
AcDbSpline
 70
8
 71
3
 72
8
 73
4
 74
0
 40
0
 40
0
 40
0
 40
0
 40
1
 40
1
 40
1
 40
1
 10
108.047800
 20
130.655154
 30
0.0
 10
108.047800
 20
128.018820
 30
0.0
 10
109.725460
 20
125.801900
 30
0.0
 10
112.092180
 20
124.963050
 30
0.0
  0
LWPOLYLINE
  5
130
100
AcDbEntity
  8
Ebene_1
 62
7
100
AcDbPolyline
 90
5
 70
0
 10
118.293580
 20
144.915341
 30
0.0
 10
126.981500
 20
136.257370
 30
0.0
 10
126.981500
 20
127.869030
 30
0.0
 10
116.106610
 20
116.994130
 30
0.0
 10
116.106610
 20
124.963050
 30
0.0
  0
SPLINE
  5
131
100
AcDbEntity
  8
Ebene_1
 62
7
100
AcDbSpline
 70
8
 71
3
 72
8
 73
4
 74
0
 40
0
 40
0
 40
0
 40
0
 40
1
 40
1
 40
1
 40
1
 10
110.294670
 20
170.260162
 30
0.0
 10
111.073600
 20
169.870699
 30
0.0
 10
111.972350
 20
169.660996
 30
0.0
 10
112.901050
 20
169.660996
 30
0.0
  0
SPLINE
  5
132
100
AcDbEntity
  8
Ebene_1
 62
7
100
AcDbSpline
 70
8
 71
3
 72
8
 73
4
 74
0
 40
0
 40
0
 40
0
 40
0
 40
1
 40
1
 40
1
 40
1
 10
112.901050
 20
169.660996
 30
0.0
 10
116.226450
 20
169.660996
 30
0.0
 10
118.952660
 20
172.357251
 30
0.0
 10
118.952660
 20
175.682629
 30
0.0
  0
SPLINE
  5
133
100
AcDbEntity
  8
Ebene_1
 62
7
100
AcDbSpline
 70
8
 71
3
 72
8
 73
4
 74
0
 40
0
 40
0
 40
0
 40
0
 40
1
 40
1
 40
1
 40
1
 10
118.952660
 20
175.682629
 30
0.0
 10
118.952660
 20
179.008022
 30
0.0
 10
116.256400
 20
181.704276
 30
0.0
 10
112.901050
 20
181.704276
 30
0.0
  0
SPLINE
  5
134
100
AcDbEntity
  8
Ebene_1
 62
7
100
AcDbSpline
 70
8
 71
3
 72
8
 73
4
 74
0
 40
0
 40
0
 40
0
 40
0
 40
1
 40
1
 40
1
 40
1
 10
112.901050
 20
181.704276
 30
0.0
 10
109.575670
 20
181.704276
 30
0.0
 10
106.849470
 20
179.008022
 30
0.0
 10
106.849470
 20
175.682629
 30
0.0
  0
SPLINE
  5
135
100
AcDbEntity
  8
Ebene_1
 62
7
100
AcDbSpline
 70
8
 71
3
 72
8
 73
4
 74
0
 40
0
 40
0
 40
0
 40
0
 40
1
 40
1
 40
1
 40
1
 10
106.849470
 20
175.682629
 30
0.0
 10
106.849470
 20
174.753930
 30
0.0
 10
107.059170
 20
173.855173
 30
0.0
 10
107.448640
 20
173.076247
 30
0.0
  0
LWPOLYLINE
  5
136
100
AcDbEntity
  8
Ebene_1
 62
7
100
AcDbPolyline
 90
5
 70
0
 10
112.092180
 20
124.963050
 30
0.0
 10
112.092180
 20
112.979690
 30
0.0
 10
102.026150
 20
102.913670
 30
0.0
 10
102.026150
 20
161.991639
 30
0.0
 10
110.294670
 20
170.260162
 30
0.0
  0
SPLINE
  5
137
100
AcDbEntity
  8
Ebene_1
 62
7
100
AcDbSpline
 70
8
 71
3
 72
8
 73
4
 74
0
 40
0
 40
0
 40
0
 40
0
 40
1
 40
1
 40
1
 40
1
 10
92.589276
 20
173.076247
 30
0.0
 10
92.978724
 20
173.855173
 30
0.0
 10
93.188441
 20
174.753930
 30
0.0
 10
93.188441
 20
175.682629
 30
0.0
  0
SPLINE
  5
138
100
AcDbEntity
  8
Ebene_1
 62
7
100
AcDbSpline
 70
8
 71
3
 72
8
 73
4
 74
0
 40
0
 40
0
 40
0
 40
0
 40
1
 40
1
 40
1
 40
1
 10
93.188441
 20
175.682629
 30
0.0
 10
93.188441
 20
179.008022
 30
0.0
 10
90.492187
 20
181.704276
 30
0.0
 10
87.136837
 20
181.704276
 30
0.0
  0
SPLINE
  5
139
100
AcDbEntity
  8
Ebene_1
 62
7
100
AcDbSpline
 70
8
 71
3
 72
8
 73
4
 74
0
 40
0
 40
0
 40
0
 40
0
 40
1
 40
1
 40
1
 40
1
 10
87.136837
 20
181.704276
 30
0.0
 10
83.811459
 20
181.704276
 30
0.0
 10
81.085247
 20
179.008022
 30
0.0
 10
81.085247
 20
175.682629
 30
0.0
  0
SPLINE
  5
13a
100
AcDbEntity
  8
Ebene_1
 62
7
100
AcDbSpline
 70
8
 71
3
 72
8
 73
4
 74
0
 40
0
 40
0
 40
0
 40
0
 40
1
 40
1
 40
1
 40
1
 10
81.085247
 20
175.682629
 30
0.0
 10
81.085247
 20
172.357251
 30
0.0
 10
83.781501
 20
169.660996
 30
0.0
 10
87.136837
 20
169.660996
 30
0.0
  0
SPLINE
  5
13b
100
AcDbEntity
  8
Ebene_1
 62
7
100
AcDbSpline
 70
8
 71
3
 72
8
 73
4
 74
0
 40
0
 40
0
 40
0
 40
0
 40
1
 40
1
 40
1
 40
1
 10
87.136837
 20
169.660996
 30
0.0
 10
88.065551
 20
169.660996
 30
0.0
 10
88.964307
 20
169.870699
 30
0.0
 10
89.743219
 20
170.260162
 30
0.0
  0
LWPOLYLINE
  5
13c
100
AcDbEntity
  8
Ebene_1
 62
7
100
AcDbPolyline
 90
3
 70
0
 10
107.448640
 20
173.076247
 30
0.0
 10
100.018950
 20
165.646564
 30
0.0
 10
92.589276
 20
173.076247
 30
0.0
  0
SPLINE
  5
13d
100
AcDbEntity
  8
Ebene_1
 62
7
100
AcDbSpline
 70
8
 71
3
 72
8
 73
4
 74
0
 40
0
 40
0
 40
0
 40
0
 40
1
 40
1
 40
1
 40
1
 10
83.511869
 20
145.844055
 30
0.0
 10
85.848633
 20
146.682895
 30
0.0
 10
87.556257
 20
148.899815
 30
0.0
 10
87.556257
 20
151.536153
 30
0.0
  0
SPLINE
  5
13e
100
AcDbEntity
  8
Ebene_1
 62
7
100
AcDbSpline
 70
8
 71
3
 72
8
 73
4
 74
0
 40
0
 40
0
 40
0
 40
0
 40
1
 40
1
 40
1
 40
1
 10
87.556257
 20
151.536153
 30
0.0
 10
87.556257
 20
154.861532
 30
0.0
 10
84.860003
 20
157.557801
 30
0.0
 10
81.504653
 20
157.557801
 30
0.0
  0
SPLINE
  5
13f
100
AcDbEntity
  8
Ebene_1
 62
7
100
AcDbSpline
 70
8
 71
3
 72
8
 73
4
 74
0
 40
0
 40
0
 40
0
 40
0
 40
1
 40
1
 40
1
 40
1
 10
81.504653
 20
157.557801
 30
0.0
 10
78.179274
 20
157.557801
 30
0.0
 10
75.453063
 20
154.861532
 30
0.0
 10
75.453063
 20
151.536153
 30
0.0
  0
SPLINE
  5
140
100
AcDbEntity
  8
Ebene_1
 62
7
100
AcDbSpline
 70
8
 71
3
 72
8
 73
4
 74
0
 40
0
 40
0
 40
0
 40
0
 40
1
 40
1
 40
1
 40
1
 10
75.453063
 20
151.536153
 30
0.0
 10
75.453063
 20
148.899815
 30
0.0
 10
77.130731
 20
146.682895
 30
0.0
 10
79.497437
 20
145.844055
 30
0.0
  0
LWPOLYLINE
  5
141
100
AcDbEntity
  8
Ebene_1
 62
7
100
AcDbPolyline
 90
5
 70
0
 10
89.743219
 20
170.260162
 30
0.0
 10
98.011743
 20
161.991639
 30
0.0
 10
98.011743
 20
119.810210
 30
0.0
 10
83.511869
 20
134.280107
 30
0.0
 10
83.511869
 20
145.844055
 30
0.0
  0
SPLINE
  5
142
100
AcDbEntity
  8
Ebene_1
 62
7
100
AcDbSpline
 70
8
 71
3
 72
8
 73
4
 74
0
 40
0
 40
0
 40
0
 40
0
 40
1
 40
1
 40
1
 40
1
 10
68.203126
 20
160.733391
 30
0.0
 10
70.539875
 20
161.572218
 30
0.0
 10
72.247515
 20
163.789151
 30
0.0
 10
72.247515
 20
166.425491
 30
0.0
  0
SPLINE
  5
143
100
AcDbEntity
  8
Ebene_1
 62
7
100
AcDbSpline
 70
8
 71
3
 72
8
 73
4
 74
0
 40
0
 40
0
 40
0
 40
0
 40
1
 40
1
 40
1
 40
1
 10
72.247515
 20
166.425491
 30
0.0
 10
72.247515
 20
169.750869
 30
0.0
 10
69.551246
 20
172.447123
 30
0.0
 10
66.195909
 20
172.447123
 30
0.0
  0
SPLINE
  5
144
100
AcDbEntity
  8
Ebene_1
 62
7
100
AcDbSpline
 70
8
 71
3
 72
8
 73
4
 74
0
 40
0
 40
0
 40
0
 40
0
 40
1
 40
1
 40
1
 40
1
 10
66.195909
 20
172.447123
 30
0.0
 10
62.870531
 20
172.447123
 30
0.0
 10
60.144319
 20
169.750869
 30
0.0
 10
60.144319
 20
166.425491
 30
0.0
  0
SPLINE
  5
145
100
AcDbEntity
  8
Ebene_1
 62
7
100
AcDbSpline
 70
8
 71
3
 72
8
 73
4
 74
0
 40
0
 40
0
 40
0
 40
0
 40
1
 40
1
 40
1
 40
1
 10
60.144319
 20
166.425491
 30
0.0
 10
60.144319
 20
163.789151
 30
0.0
 10
61.821987
 20
161.572218
 30
0.0
 10
64.188694
 20
160.733391
 30
0.0
  0
LWPOLYLINE
  5
146
100
AcDbEntity
  8
Ebene_1
 62
7
100
AcDbPolyline
 90
4
 70
0
 10
79.497437
 20
145.844055
 30
0.0
 10
79.497437
 20
138.294542
 30
0.0
 10
68.203126
 20
149.558896
 30
0.0
 10
68.203126
 20
160.733391
 30
0.0
  0
SPLINE
  5
147
100
AcDbEntity
  8
Ebene_1
 62
7
100
AcDbSpline
 70
8
 71
3
 72
8
 73
4
 74
0
 40
0
 40
0
 40
0
 40
0
 40
1
 40
1
 40
1
 40
1
 10
69.491345
 20
135.448484
 30
0.0
 10
68.652504
 20
137.785247
 30
0.0
 10
66.435585
 20
139.462916
 30
0.0
 10
63.799246
 20
139.462916
 30
0.0
  0
SPLINE
  5
148
100
AcDbEntity
  8
Ebene_1
 62
7
100
AcDbSpline
 70
8
 71
3
 72
8
 73
4
 74
0
 40
0
 40
0
 40
0
 40
0
 40
1
 40
1
 40
1
 40
1
 10
63.799246
 20
139.462916
 30
0.0
 10
60.473853
 20
139.462916
 30
0.0
 10
57.747640
 20
136.766659
 30
0.0
 10
57.747640
 20
133.441284
 30
0.0
  0
SPLINE
  5
149
100
AcDbEntity
  8
Ebene_1
 62
7
100
AcDbSpline
 70
8
 71
3
 72
8
 73
4
 74
0
 40
0
 40
0
 40
0
 40
0
 40
1
 40
1
 40
1
 40
1
 10
57.747640
 20
133.441284
 30
0.0
 10
57.747640
 20
130.115897
 30
0.0
 10
60.443895
 20
127.419650
 30
0.0
 10
63.799246
 20
127.419650
 30
0.0
  0
SPLINE
  5
14a
100
AcDbEntity
  8
Ebene_1
 62
7
100
AcDbSpline
 70
8
 71
3
 72
8
 73
4
 74
0
 40
0
 40
0
 40
0
 40
0
 40
1
 40
1
 40
1
 40
1
 10
63.799246
 20
127.419650
 30
0.0
 10
66.435585
 20
127.419650
 30
0.0
 10
68.682462
 20
129.097320
 30
0.0
 10
69.491345
 20
131.434071
 30
0.0
  0
LWPOLYLINE
  5
14b
100
AcDbEntity
  8
Ebene_1
 62
7
100
AcDbPolyline
 90
4
 70
0
 10
64.188694
 20
160.733391
 30
0.0
 10
64.188694
 20
147.881228
 30
0.0
 10
76.651395
 20
135.448484
 30
0.0
 10
69.491345
 20
135.448484
 30
0.0
  0
SPLINE
  5
14c
100
AcDbEntity
  8
Ebene_1
 62
7
100
AcDbSpline
 70
8
 71
3
 72
8
 73
4
 74
0
 40
0
 40
0
 40
0
 40
0
 40
1
 40
1
 40
1
 40
1
 10
88.784547
 20
104.860970
 30
0.0
 10
91.121311
 20
105.699810
 30
0.0
 10
92.828937
 20
107.916730
 30
0.0
 10
92.828937
 20
110.553070
 30
0.0
  0
SPLINE
  5
14d
100
AcDbEntity
  8
Ebene_1
 62
7
100
AcDbSpline
 70
8
 71
3
 72
8
 73
4
 74
0
 40
0
 40
0
 40
0
 40
0
 40
1
 40
1
 40
1
 40
1
 10
92.828937
 20
110.553070
 30
0.0
 10
92.828937
 20
113.878450
 30
0.0
 10
90.132681
 20
116.574710
 30
0.0
 10
86.777332
 20
116.574710
 30
0.0
  0
SPLINE
  5
14e
100
AcDbEntity
  8
Ebene_1
 62
7
100
AcDbSpline
 70
8
 71
3
 72
8
 73
4
 74
0
 40
0
 40
0
 40
0
 40
0
 40
1
 40
1
 40
1
 40
1
 10
86.777332
 20
116.574710
 30
0.0
 10
83.451954
 20
116.574710
 30
0.0
 10
80.725741
 20
113.878450
 30
0.0
 10
80.725741
 20
110.553070
 30
0.0
  0
SPLINE
  5
14f
100
AcDbEntity
  8
Ebene_1
 62
7
100
AcDbSpline
 70
8
 71
3
 72
8
 73
4
 74
0
 40
0
 40
0
 40
0
 40
0
 40
1
 40
1
 40
1
 40
1
 10
80.725741
 20
110.553070
 30
0.0
 10
80.725741
 20
107.916730
 30
0.0
 10
82.403409
 20
105.699810
 30
0.0
 10
84.770130
 20
104.860970
 30
0.0
  0
LWPOLYLINE
  5
150
100
AcDbEntity
  8
Ebene_1
 62
7
100
AcDbPolyline
 90
6
 70
0
 10
69.491345
 20
131.434071
 30
0.0
 10
80.695784
 20
131.434071
 30
0.0
 10
98.041700
 20
114.118130
 30
0.0
 10
98.041700
 20
84.009910
 30
0.0
 10
88.784547
 20
93.267060
 30
0.0
 10
88.784547
 20
104.860970
 30
0.0
  0
SPLINE
  5
151
100
AcDbEntity
  8
Ebene_1
 62
7
100
AcDbSpline
 70
8
 71
3
 72
8
 73
4
 74
0
 40
0
 40
0
 40
0
 40
0
 40
1
 40
1
 40
1
 40
1
 10
71.288843
 20
110.762780
 30
0.0
 10
71.678306
 20
111.541700
 30
0.0
 10
71.888009
 20
112.440440
 30
0.0
 10
71.888009
 20
113.369150
 30
0.0
  0
SPLINE
  5
152
100
AcDbEntity
  8
Ebene_1
 62
7
100
AcDbSpline
 70
8
 71
3
 72
8
 73
4
 74
0
 40
0
 40
0
 40
0
 40
0
 40
1
 40
1
 40
1
 40
1
 10
71.888009
 20
113.369150
 30
0.0
 10
71.888009
 20
116.694530
 30
0.0
 10
69.191755
 20
119.390800
 30
0.0
 10
65.836419
 20
119.390800
 30
0.0
  0
SPLINE
  5
153
100
AcDbEntity
  8
Ebene_1
 62
7
100
AcDbSpline
 70
8
 71
3
 72
8
 73
4
 74
0
 40
0
 40
0
 40
0
 40
0
 40
1
 40
1
 40
1
 40
1
 10
65.836419
 20
119.390800
 30
0.0
 10
62.511026
 20
119.390800
 30
0.0
 10
59.784814
 20
116.694530
 30
0.0
 10
59.784814
 20
113.369150
 30
0.0
  0
SPLINE
  5
154
100
AcDbEntity
  8
Ebene_1
 62
7
100
AcDbSpline
 70
8
 71
3
 72
8
 73
4
 74
0
 40
0
 40
0
 40
0
 40
0
 40
1
 40
1
 40
1
 40
1
 10
59.784814
 20
113.369150
 30
0.0
 10
59.784814
 20
110.043780
 30
0.0
 10
62.481068
 20
107.347520
 30
0.0
 10
65.836419
 20
107.347520
 30
0.0
  0
SPLINE
  5
155
100
AcDbEntity
  8
Ebene_1
 62
7
100
AcDbSpline
 70
8
 71
3
 72
8
 73
4
 74
0
 40
0
 40
0
 40
0
 40
0
 40
1
 40
1
 40
1
 40
1
 10
65.836419
 20
107.347520
 30
0.0
 10
66.765118
 20
107.347520
 30
0.0
 10
67.663875
 20
107.557220
 30
0.0
 10
68.442786
 20
107.946690
 30
0.0
  0
LWPOLYLINE
  5
156
100
AcDbEntity
  8
Ebene_1
 62
7
100
AcDbPolyline
 90
3
 70
0
 10
84.770130
 20
104.860970
 30
0.0
 10
84.770130
 20
97.311460
 30
0.0
 10
71.288843
 20
110.762780
 30
0.0
  0
SPLINE
  5
157
100
AcDbEntity
  8
Ebene_1
 62
7
100
AcDbSpline
 70
8
 71
3
 72
8
 73
4
 74
0
 40
0
 40
0
 40
0
 40
0
 40
1
 40
1
 40
1
 40
1
 10
74.764024
 20
94.495360
 30
0.0
 10
73.925182
 20
96.832120
 30
0.0
 10
71.708264
 20
98.509790
 30
0.0
 10
69.071924
 20
98.509790
 30
0.0
  0
SPLINE
  5
158
100
AcDbEntity
  8
Ebene_1
 62
7
100
AcDbSpline
 70
8
 71
3
 72
8
 73
4
 74
0
 40
0
 40
0
 40
0
 40
0
 40
1
 40
1
 40
1
 40
1
 10
69.071924
 20
98.509790
 30
0.0
 10
65.746531
 20
98.509790
 30
0.0
 10
63.020320
 20
95.813530
 30
0.0
 10
63.020320
 20
92.488140
 30
0.0
  0
SPLINE
  5
159
100
AcDbEntity
  8
Ebene_1
 62
7
100
AcDbSpline
 70
8
 71
3
 72
8
 73
4
 74
0
 40
0
 40
0
 40
0
 40
0
 40
1
 40
1
 40
1
 40
1
 10
63.020320
 20
92.488140
 30
0.0
 10
63.020320
 20
89.162750
 30
0.0
 10
65.716574
 20
86.466500
 30
0.0
 10
69.071924
 20
86.466500
 30
0.0
  0
SPLINE
  5
15a
100
AcDbEntity
  8
Ebene_1
 62
7
100
AcDbSpline
 70
8
 71
3
 72
8
 73
4
 74
0
 40
0
 40
0
 40
0
 40
0
 40
1
 40
1
 40
1
 40
1
 10
69.071924
 20
86.466500
 30
0.0
 10
71.708264
 20
86.466500
 30
0.0
 10
73.955140
 20
88.144180
 30
0.0
 10
74.764024
 20
90.480920
 30
0.0
  0
LWPOLYLINE
  5
15b
100
AcDbEntity
  8
Ebene_1
 62
7
100
AcDbPolyline
 90
3
 70
0
 10
68.442786
 20
107.946690
 30
0.0
 10
81.924073
 20
94.495360
 30
0.0
 10
74.764024
 20
94.495360
 30
0.0
  0
SPLINE
  5
15c
100
AcDbEntity
  8
Ebene_1
 62
7
100
AcDbSpline
 70
8
 71
3
 72
8
 73
4
 74
0
 40
0
 40
0
 40
0
 40
0
 40
1
 40
1
 40
1
 40
1
 10
66.106037
 20
168.852113
 30
0.0
 10
64.757902
 20
168.852113
 30
0.0
 10
63.679401
 20
167.773610
 30
0.0
 10
63.679401
 20
166.425491
 30
0.0
  0
SPLINE
  5
15d
100
AcDbEntity
  8
Ebene_1
 62
7
100
AcDbSpline
 70
8
 71
3
 72
8
 73
4
 74
0
 40
0
 40
0
 40
0
 40
0
 40
1
 40
1
 40
1
 40
1
 10
63.679401
 20
166.425491
 30
0.0
 10
63.679401
 20
165.107314
 30
0.0
 10
64.757902
 20
163.998854
 30
0.0
 10
66.106037
 20
163.998854
 30
0.0
  0
SPLINE
  5
15e
100
AcDbEntity
  8
Ebene_1
 62
7
100
AcDbSpline
 70
8
 71
3
 72
8
 73
4
 74
0
 40
0
 40
0
 40
0
 40
0
 40
1
 40
1
 40
1
 40
1
 10
66.106037
 20
163.998854
 30
0.0
 10
67.454172
 20
163.998854
 30
0.0
 10
68.532673
 20
165.077356
 30
0.0
 10
68.532673
 20
166.425491
 30
0.0
  0
SPLINE
  5
15f
100
AcDbEntity
  8
Ebene_1
 62
7
100
AcDbSpline
 70
8
 71
3
 72
8
 73
4
 74
0
 40
0
 40
0
 40
0
 40
0
 40
1
 40
1
 40
1
 40
1
 10
68.532673
 20
166.425491
 30
0.0
 10
68.532673
 20
167.773610
 30
0.0
 10
67.454172
 20
168.852113
 30
0.0
 10
66.106037
 20
168.852113
 30
0.0
  0
LWPOLYLINE
  5
160
100
AcDbEntity
  8
Ebene_1
 62
7
100
AcDbPolyline
 90
3
 70
0
 10
74.764024
 20
90.480920
 30
0.0
 10
85.968462
 20
90.480920
 30
0.0
 10
97.112986
 20
79.126700
 30
0.0
  0
SPLINE
  5
161
100
AcDbEntity
  8
Ebene_1
 62
7
100
AcDbSpline
 70
8
 71
3
 72
8
 73
4
 74
0
 40
0
 40
0
 40
0
 40
0
 40
1
 40
1
 40
1
 40
1
 10
81.414780
 20
153.962790
 30
0.0
 10
80.066660
 20
153.962790
 30
0.0
 10
78.988158
 20
152.884289
 30
0.0
 10
78.988158
 20
151.536153
 30
0.0
  0
SPLINE
  5
162
100
AcDbEntity
  8
Ebene_1
 62
7
100
AcDbSpline
 70
8
 71
3
 72
8
 73
4
 74
0
 40
0
 40
0
 40
0
 40
0
 40
1
 40
1
 40
1
 40
1
 10
78.988158
 20
151.536153
 30
0.0
 10
78.988158
 20
150.217991
 30
0.0
 10
80.066660
 20
149.109518
 30
0.0
 10
81.414780
 20
149.109518
 30
0.0
  0
SPLINE
  5
163
100
AcDbEntity
  8
Ebene_1
 62
7
100
AcDbSpline
 70
8
 71
3
 72
8
 73
4
 74
0
 40
0
 40
0
 40
0
 40
0
 40
1
 40
1
 40
1
 40
1
 10
81.414780
 20
149.109518
 30
0.0
 10
82.762915
 20
149.109518
 30
0.0
 10
83.841416
 20
150.188033
 30
0.0
 10
83.841416
 20
151.536153
 30
0.0
  0
SPLINE
  5
164
100
AcDbEntity
  8
Ebene_1
 62
7
100
AcDbSpline
 70
8
 71
3
 72
8
 73
4
 74
0
 40
0
 40
0
 40
0
 40
0
 40
1
 40
1
 40
1
 40
1
 10
83.841416
 20
151.536153
 30
0.0
 10
83.841416
 20
152.884289
 30
0.0
 10
82.762915
 20
153.962790
 30
0.0
 10
81.414780
 20
153.962790
 30
0.0
  0
LWPOLYLINE
  5
165
100
AcDbEntity
  8
Ebene_1
 62
7
100
AcDbPolyline
 90
1
 70
1
 10
66.106037
 20
168.852113
 30
0.0
  0
SPLINE
  5
166
100
AcDbEntity
  8
Ebene_1
 62
7
100
AcDbSpline
 70
8
 71
3
 72
8
 73
4
 74
0
 40
0
 40
0
 40
0
 40
0
 40
1
 40
1
 40
1
 40
1
 10
87.076921
 20
178.109265
 30
0.0
 10
85.728787
 20
178.109265
 30
0.0
 10
84.650286
 20
177.030764
 30
0.0
 10
84.650286
 20
175.682629
 30
0.0
  0
SPLINE
  5
167
100
AcDbEntity
  8
Ebene_1
 62
7
100
AcDbSpline
 70
8
 71
3
 72
8
 73
4
 74
0
 40
0
 40
0
 40
0
 40
0
 40
1
 40
1
 40
1
 40
1
 10
84.650286
 20
175.682629
 30
0.0
 10
84.650286
 20
174.334508
 30
0.0
 10
85.728787
 20
173.256007
 30
0.0
 10
87.076921
 20
173.256007
 30
0.0
  0
SPLINE
  5
168
100
AcDbEntity
  8
Ebene_1
 62
7
100
AcDbSpline
 70
8
 71
3
 72
8
 73
4
 74
0
 40
0
 40
0
 40
0
 40
0
 40
1
 40
1
 40
1
 40
1
 10
87.076921
 20
173.256007
 30
0.0
 10
88.425042
 20
173.256007
 30
0.0
 10
89.503558
 20
174.334508
 30
0.0
 10
89.503558
 20
175.682629
 30
0.0
  0
SPLINE
  5
169
100
AcDbEntity
  8
Ebene_1
 62
7
100
AcDbSpline
 70
8
 71
3
 72
8
 73
4
 74
0
 40
0
 40
0
 40
0
 40
0
 40
1
 40
1
 40
1
 40
1
 10
89.503558
 20
175.682629
 30
0.0
 10
89.503558
 20
177.030764
 30
0.0
 10
88.395099
 20
178.109265
 30
0.0
 10
87.076921
 20
178.109265
 30
0.0
  0
LWPOLYLINE
  5
16a
100
AcDbEntity
  8
Ebene_1
 62
7
100
AcDbPolyline
 90
1
 70
1
 10
81.414780
 20
153.962790
 30
0.0
  0
SPLINE
  5
16b
100
AcDbEntity
  8
Ebene_1
 62
7
100
AcDbSpline
 70
8
 71
3
 72
8
 73
4
 74
0
 40
0
 40
0
 40
0
 40
0
 40
1
 40
1
 40
1
 40
1
 10
142.290260
 20
147.941143
 30
0.0
 10
143.638390
 20
147.941143
 30
0.0
 10
144.716890
 20
149.019644
 30
0.0
 10
144.716890
 20
150.367779
 30
0.0
  0
SPLINE
  5
16c
100
AcDbEntity
  8
Ebene_1
 62
7
100
AcDbSpline
 70
8
 71
3
 72
8
 73
4
 74
0
 40
0
 40
0
 40
0
 40
0
 40
1
 40
1
 40
1
 40
1
 10
144.716890
 20
150.367779
 30
0.0
 10
144.716890
 20
151.715914
 30
0.0
 10
143.638390
 20
152.794415
 30
0.0
 10
142.290260
 20
152.794415
 30
0.0
  0
SPLINE
  5
16d
100
AcDbEntity
  8
Ebene_1
 62
7
100
AcDbSpline
 70
8
 71
3
 72
8
 73
4
 74
0
 40
0
 40
0
 40
0
 40
0
 40
1
 40
1
 40
1
 40
1
 10
142.290260
 20
152.794415
 30
0.0
 10
140.942130
 20
152.794415
 30
0.0
 10
139.863620
 20
151.715914
 30
0.0
 10
139.863620
 20
150.367779
 30
0.0
  0
SPLINE
  5
16e
100
AcDbEntity
  8
Ebene_1
 62
7
100
AcDbSpline
 70
8
 71
3
 72
8
 73
4
 74
0
 40
0
 40
0
 40
0
 40
0
 40
1
 40
1
 40
1
 40
1
 10
139.863620
 20
150.367779
 30
0.0
 10
139.863620
 20
149.019644
 30
0.0
 10
140.942130
 20
147.941143
 30
0.0
 10
142.290260
 20
147.941143
 30
0.0
  0
LWPOLYLINE
  5
16f
100
AcDbEntity
  8
Ebene_1
 62
7
100
AcDbPolyline
 90
1
 70
1
 10
87.076921
 20
178.109265
 30
0.0
  0
SPLINE
  5
170
100
AcDbEntity
  8
Ebene_1
 62
7
100
AcDbSpline
 70
8
 71
3
 72
8
 73
4
 74
0
 40
0
 40
0
 40
0
 40
0
 40
1
 40
1
 40
1
 40
1
 10
112.871090
 20
173.285965
 30
0.0
 10
114.219230
 20
173.285965
 30
0.0
 10
115.297740
 20
174.364466
 30
0.0
 10
115.297740
 20
175.712586
 30
0.0
  0
SPLINE
  5
171
100
AcDbEntity
  8
Ebene_1
 62
7
100
AcDbSpline
 70
8
 71
3
 72
8
 73
4
 74
0
 40
0
 40
0
 40
0
 40
0
 40
1
 40
1
 40
1
 40
1
 10
115.297740
 20
175.712586
 30
0.0
 10
115.297740
 20
177.060721
 30
0.0
 10
114.219230
 20
178.139223
 30
0.0
 10
112.871090
 20
178.139223
 30
0.0
  0
SPLINE
  5
172
100
AcDbEntity
  8
Ebene_1
 62
7
100
AcDbSpline
 70
8
 71
3
 72
8
 73
4
 74
0
 40
0
 40
0
 40
0
 40
0
 40
1
 40
1
 40
1
 40
1
 10
112.871090
 20
178.139223
 30
0.0
 10
111.522970
 20
178.139223
 30
0.0
 10
110.444470
 20
177.060721
 30
0.0
 10
110.444470
 20
175.712586
 30
0.0
  0
SPLINE
  5
173
100
AcDbEntity
  8
Ebene_1
 62
7
100
AcDbSpline
 70
8
 71
3
 72
8
 73
4
 74
0
 40
0
 40
0
 40
0
 40
0
 40
1
 40
1
 40
1
 40
1
 10
110.444470
 20
175.712586
 30
0.0
 10
110.444470
 20
174.364466
 30
0.0
 10
111.522970
 20
173.285965
 30
0.0
 10
112.871090
 20
173.285965
 30
0.0
  0
LWPOLYLINE
  5
174
100
AcDbEntity
  8
Ebene_1
 62
7
100
AcDbPolyline
 90
1
 70
1
 10
142.290260
 20
147.941143
 30
0.0
  0
SPLINE
  5
175
100
AcDbEntity
  8
Ebene_1
 62
7
100
AcDbSpline
 70
8
 71
3
 72
8
 73
4
 74
0
 40
0
 40
0
 40
0
 40
0
 40
1
 40
1
 40
1
 40
1
 10
115.687190
 20
152.764443
 30
0.0
 10
114.339060
 20
152.764443
 30
0.0
 10
113.260560
 20
151.685942
 30
0.0
 10
113.260560
 20
150.337822
 30
0.0
  0
SPLINE
  5
176
100
AcDbEntity
  8
Ebene_1
 62
7
100
AcDbSpline
 70
8
 71
3
 72
8
 73
4
 74
0
 40
0
 40
0
 40
0
 40
0
 40
1
 40
1
 40
1
 40
1
 10
113.260560
 20
150.337822
 30
0.0
 10
113.260560
 20
148.989687
 30
0.0
 10
114.339060
 20
147.911185
 30
0.0
 10
115.687190
 20
147.911185
 30
0.0
  0
SPLINE
  5
177
100
AcDbEntity
  8
Ebene_1
 62
7
100
AcDbSpline
 70
8
 71
3
 72
8
 73
4
 74
0
 40
0
 40
0
 40
0
 40
0
 40
1
 40
1
 40
1
 40
1
 10
115.687190
 20
147.911185
 30
0.0
 10
117.035310
 20
147.911185
 30
0.0
 10
118.113810
 20
148.989687
 30
0.0
 10
118.113810
 20
150.337822
 30
0.0
  0
SPLINE
  5
178
100
AcDbEntity
  8
Ebene_1
 62
7
100
AcDbSpline
 70
8
 71
3
 72
8
 73
4
 74
0
 40
0
 40
0
 40
0
 40
0
 40
1
 40
1
 40
1
 40
1
 10
118.113810
 20
150.337822
 30
0.0
 10
118.113810
 20
151.685942
 30
0.0
 10
117.005360
 20
152.764443
 30
0.0
 10
115.687190
 20
152.764443
 30
0.0
  0
LWPOLYLINE
  5
179
100
AcDbEntity
  8
Ebene_1
 62
7
100
AcDbPolyline
 90
1
 70
1
 10
112.871090
 20
173.285965
 30
0.0
  0
SPLINE
  5
17a
100
AcDbEntity
  8
Ebene_1
 62
7
100
AcDbSpline
 70
8
 71
3
 72
8
 73
4
 74
0
 40
0
 40
0
 40
0
 40
0
 40
1
 40
1
 40
1
 40
1
 10
63.679401
 20
135.867905
 30
0.0
 10
62.331281
 20
135.867905
 30
0.0
 10
61.252778
 20
134.789406
 30
0.0
 10
61.252778
 20
133.441284
 30
0.0
  0
SPLINE
  5
17b
100
AcDbEntity
  8
Ebene_1
 62
7
100
AcDbSpline
 70
8
 71
3
 72
8
 73
4
 74
0
 40
0
 40
0
 40
0
 40
0
 40
1
 40
1
 40
1
 40
1
 10
61.252778
 20
133.441284
 30
0.0
 10
61.252778
 20
132.123105
 30
0.0
 10
62.331281
 20
131.014654
 30
0.0
 10
63.679401
 20
131.014654
 30
0.0
  0
SPLINE
  5
17c
100
AcDbEntity
  8
Ebene_1
 62
7
100
AcDbSpline
 70
8
 71
3
 72
8
 73
4
 74
0
 40
0
 40
0
 40
0
 40
0
 40
1
 40
1
 40
1
 40
1
 10
63.679401
 20
131.014654
 30
0.0
 10
65.027535
 20
131.014654
 30
0.0
 10
66.106037
 20
132.093158
 30
0.0
 10
66.106037
 20
133.441284
 30
0.0
  0
SPLINE
  5
17d
100
AcDbEntity
  8
Ebene_1
 62
7
100
AcDbSpline
 70
8
 71
3
 72
8
 73
4
 74
0
 40
0
 40
0
 40
0
 40
0
 40
1
 40
1
 40
1
 40
1
 10
66.106037
 20
133.441284
 30
0.0
 10
66.106037
 20
134.789406
 30
0.0
 10
65.027535
 20
135.867905
 30
0.0
 10
63.679401
 20
135.867905
 30
0.0
  0
LWPOLYLINE
  5
17e
100
AcDbEntity
  8
Ebene_1
 62
7
100
AcDbPolyline
 90
1
 70
1
 10
115.687190
 20
152.764443
 30
0.0
  0
SPLINE
  5
17f
100
AcDbEntity
  8
Ebene_1
 62
7
100
AcDbSpline
 70
8
 71
3
 72
8
 73
4
 74
0
 40
0
 40
0
 40
0
 40
0
 40
1
 40
1
 40
1
 40
1
 10
141.481380
 20
109.714230
 30
0.0
 10
142.829510
 20
109.714230
 30
0.0
 10
143.908010
 20
110.792730
 30
0.0
 10
143.908010
 20
112.140860
 30
0.0
  0
SPLINE
  5
180
100
AcDbEntity
  8
Ebene_1
 62
7
100
AcDbSpline
 70
8
 71
3
 72
8
 73
4
 74
0
 40
0
 40
0
 40
0
 40
0
 40
1
 40
1
 40
1
 40
1
 10
143.908010
 20
112.140860
 30
0.0
 10
143.908010
 20
113.488990
 30
0.0
 10
142.829510
 20
114.567500
 30
0.0
 10
141.481380
 20
114.567500
 30
0.0
  0
SPLINE
  5
181
100
AcDbEntity
  8
Ebene_1
 62
7
100
AcDbSpline
 70
8
 71
3
 72
8
 73
4
 74
0
 40
0
 40
0
 40
0
 40
0
 40
1
 40
1
 40
1
 40
1
 10
141.481380
 20
114.567500
 30
0.0
 10
140.133250
 20
114.567500
 30
0.0
 10
139.054750
 20
113.488990
 30
0.0
 10
139.054750
 20
112.140860
 30
0.0
  0
SPLINE
  5
182
100
AcDbEntity
  8
Ebene_1
 62
7
100
AcDbSpline
 70
8
 71
3
 72
8
 73
4
 74
0
 40
0
 40
0
 40
0
 40
0
 40
1
 40
1
 40
1
 40
1
 10
139.054750
 20
112.140860
 30
0.0
 10
139.054750
 20
110.792730
 30
0.0
 10
140.133250
 20
109.714230
 30
0.0
 10
141.481380
 20
109.714230
 30
0.0
  0
LWPOLYLINE
  5
183
100
AcDbEntity
  8
Ebene_1
 62
7
100
AcDbPolyline
 90
1
 70
1
 10
63.679401
 20
135.867905
 30
0.0
  0
SPLINE
  5
184
100
AcDbEntity
  8
Ebene_1
 62
7
100
AcDbSpline
 70
8
 71
3
 72
8
 73
4
 74
0
 40
0
 40
0
 40
0
 40
0
 40
1
 40
1
 40
1
 40
1
 10
128.988720
 20
168.432707
 30
0.0
 10
127.640600
 20
168.432707
 30
0.0
 10
126.562100
 20
167.354190
 30
0.0
 10
126.562100
 20
166.006070
 30
0.0
  0
SPLINE
  5
185
100
AcDbEntity
  8
Ebene_1
 62
7
100
AcDbSpline
 70
8
 71
3
 72
8
 73
4
 74
0
 40
0
 40
0
 40
0
 40
0
 40
1
 40
1
 40
1
 40
1
 10
126.562100
 20
166.006070
 30
0.0
 10
126.562100
 20
164.687893
 30
0.0
 10
127.640600
 20
163.579434
 30
0.0
 10
128.988720
 20
163.579434
 30
0.0
  0
SPLINE
  5
186
100
AcDbEntity
  8
Ebene_1
 62
7
100
AcDbSpline
 70
8
 71
3
 72
8
 73
4
 74
0
 40
0
 40
0
 40
0
 40
0
 40
1
 40
1
 40
1
 40
1
 10
128.988720
 20
163.579434
 30
0.0
 10
130.336850
 20
163.579434
 30
0.0
 10
131.415350
 20
164.657936
 30
0.0
 10
131.415350
 20
166.006070
 30
0.0
  0
SPLINE
  5
187
100
AcDbEntity
  8
Ebene_1
 62
7
100
AcDbSpline
 70
8
 71
3
 72
8
 73
4
 74
0
 40
0
 40
0
 40
0
 40
0
 40
1
 40
1
 40
1
 40
1
 10
131.415350
 20
166.006070
 30
0.0
 10
131.385350
 20
167.354190
 30
0.0
 10
130.306900
 20
168.432707
 30
0.0
 10
128.988720
 20
168.432707
 30
0.0
  0
LWPOLYLINE
  5
188
100
AcDbEntity
  8
Ebene_1
 62
7
100
AcDbPolyline
 90
1
 70
1
 10
141.481380
 20
109.714230
 30
0.0
  0
SPLINE
  5
189
100
AcDbEntity
  8
Ebene_1
 62
7
100
AcDbSpline
 70
8
 71
3
 72
8
 73
4
 74
0
 40
0
 40
0
 40
0
 40
0
 40
1
 40
1
 40
1
 40
1
 10
114.069440
 20
133.051818
 30
0.0
 10
112.721310
 20
133.051818
 30
0.0
 10
111.642810
 20
131.973318
 30
0.0
 10
111.642810
 20
130.625194
 30
0.0
  0
SPLINE
  5
18a
100
AcDbEntity
  8
Ebene_1
 62
7
100
AcDbSpline
 70
8
 71
3
 72
8
 73
4
 74
0
 40
0
 40
0
 40
0
 40
0
 40
1
 40
1
 40
1
 40
1
 10
111.642810
 20
130.625194
 30
0.0
 10
111.642810
 20
129.277080
 30
0.0
 10
112.721310
 20
128.198560
 30
0.0
 10
114.069440
 20
128.198560
 30
0.0
  0
SPLINE
  5
18b
100
AcDbEntity
  8
Ebene_1
 62
7
100
AcDbSpline
 70
8
 71
3
 72
8
 73
4
 74
0
 40
0
 40
0
 40
0
 40
0
 40
1
 40
1
 40
1
 40
1
 10
114.069440
 20
128.198560
 30
0.0
 10
115.417560
 20
128.198560
 30
0.0
 10
116.496060
 20
129.277080
 30
0.0
 10
116.496060
 20
130.625194
 30
0.0
  0
SPLINE
  5
18c
100
AcDbEntity
  8
Ebene_1
 62
7
100
AcDbSpline
 70
8
 71
3
 72
8
 73
4
 74
0
 40
0
 40
0
 40
0
 40
0
 40
1
 40
1
 40
1
 40
1
 10
116.496060
 20
130.625194
 30
0.0
 10
116.496060
 20
131.973318
 30
0.0
 10
115.417560
 20
133.051818
 30
0.0
 10
114.069440
 20
133.051818
 30
0.0
  0
LWPOLYLINE
  5
18d
100
AcDbEntity
  8
Ebene_1
 62
7
100
AcDbPolyline
 90
1
 70
1
 10
128.988720
 20
168.432707
 30
0.0
  0
SPLINE
  5
18e
100
AcDbEntity
  8
Ebene_1
 62
7
100
AcDbSpline
 70
8
 71
3
 72
8
 73
4
 74
0
 40
0
 40
0
 40
0
 40
0
 40
1
 40
1
 40
1
 40
1
 10
65.716574
 20
115.735870
 30
0.0
 10
64.368454
 20
115.735870
 30
0.0
 10
63.289952
 20
114.657370
 30
0.0
 10
63.289952
 20
113.309240
 30
0.0
  0
SPLINE
  5
18f
100
AcDbEntity
  8
Ebene_1
 62
7
100
AcDbSpline
 70
8
 71
3
 72
8
 73
4
 74
0
 40
0
 40
0
 40
0
 40
0
 40
1
 40
1
 40
1
 40
1
 10
63.289952
 20
113.309240
 30
0.0
 10
63.289952
 20
111.991080
 30
0.0
 10
64.368454
 20
110.882600
 30
0.0
 10
65.716574
 20
110.882600
 30
0.0
  0
SPLINE
  5
190
100
AcDbEntity
  8
Ebene_1
 62
7
100
AcDbSpline
 70
8
 71
3
 72
8
 73
4
 74
0
 40
0
 40
0
 40
0
 40
0
 40
1
 40
1
 40
1
 40
1
 10
65.716574
 20
110.882600
 30
0.0
 10
67.064709
 20
110.882600
 30
0.0
 10
68.143210
 20
111.961110
 30
0.0
 10
68.143210
 20
113.309240
 30
0.0
  0
SPLINE
  5
191
100
AcDbEntity
  8
Ebene_1
 62
7
100
AcDbSpline
 70
8
 71
3
 72
8
 73
4
 74
0
 40
0
 40
0
 40
0
 40
0
 40
1
 40
1
 40
1
 40
1
 10
68.143210
 20
113.309240
 30
0.0
 10
68.113210
 20
114.657370
 30
0.0
 10
67.034751
 20
115.735870
 30
0.0
 10
65.716574
 20
115.735870
 30
0.0
  0
LWPOLYLINE
  5
192
100
AcDbEntity
  8
Ebene_1
 62
7
100
AcDbPolyline
 90
1
 70
1
 10
114.069440
 20
133.051818
 30
0.0
  0
SPLINE
  5
193
100
AcDbEntity
  8
Ebene_1
 62
7
100
AcDbSpline
 70
8
 71
3
 72
8
 73
4
 74
0
 40
0
 40
0
 40
0
 40
0
 40
1
 40
1
 40
1
 40
1
 10
68.922122
 20
94.824900
 30
0.0
 10
67.574001
 20
94.824900
 30
0.0
 10
66.495500
 20
93.746400
 30
0.0
 10
66.495500
 20
92.398260
 30
0.0
  0
SPLINE
  5
194
100
AcDbEntity
  8
Ebene_1
 62
7
100
AcDbSpline
 70
8
 71
3
 72
8
 73
4
 74
0
 40
0
 40
0
 40
0
 40
0
 40
1
 40
1
 40
1
 40
1
 10
66.495500
 20
92.398260
 30
0.0
 10
66.495500
 20
91.080110
 30
0.0
 10
67.574001
 20
89.971630
 30
0.0
 10
68.922122
 20
89.971630
 30
0.0
  0
SPLINE
  5
195
100
AcDbEntity
  8
Ebene_1
 62
7
100
AcDbSpline
 70
8
 71
3
 72
8
 73
4
 74
0
 40
0
 40
0
 40
0
 40
0
 40
1
 40
1
 40
1
 40
1
 10
68.922122
 20
89.971630
 30
0.0
 10
70.270256
 20
89.971630
 30
0.0
 10
71.348758
 20
91.050130
 30
0.0
 10
71.348758
 20
92.398260
 30
0.0
  0
SPLINE
  5
196
100
AcDbEntity
  8
Ebene_1
 62
7
100
AcDbSpline
 70
8
 71
3
 72
8
 73
4
 74
0
 40
0
 40
0
 40
0
 40
0
 40
1
 40
1
 40
1
 40
1
 10
71.348758
 20
92.398260
 30
0.0
 10
71.348758
 20
93.746400
 30
0.0
 10
70.270256
 20
94.824900
 30
0.0
 10
68.922122
 20
94.824900
 30
0.0
  0
LWPOLYLINE
  5
197
100
AcDbEntity
  8
Ebene_1
 62
7
100
AcDbPolyline
 90
1
 70
1
 10
65.716574
 20
115.735870
 30
0.0
  0
SPLINE
  5
198
100
AcDbEntity
  8
Ebene_1
 62
7
100
AcDbSpline
 70
8
 71
3
 72
8
 73
4
 74
0
 40
0
 40
0
 40
0
 40
0
 40
1
 40
1
 40
1
 40
1
 10
130.995930
 20
90.391050
 30
0.0
 10
132.344060
 20
90.391050
 30
0.0
 10
133.422570
 20
91.469550
 30
0.0
 10
133.422570
 20
92.817680
 30
0.0
  0
SPLINE
  5
199
100
AcDbEntity
  8
Ebene_1
 62
7
100
AcDbSpline
 70
8
 71
3
 72
8
 73
4
 74
0
 40
0
 40
0
 40
0
 40
0
 40
1
 40
1
 40
1
 40
1
 10
133.422570
 20
92.817680
 30
0.0
 10
133.422570
 20
94.135850
 30
0.0
 10
132.344060
 20
95.244310
 30
0.0
 10
130.995930
 20
95.244310
 30
0.0
  0
SPLINE
  5
19a
100
AcDbEntity
  8
Ebene_1
 62
7
100
AcDbSpline
 70
8
 71
3
 72
8
 73
4
 74
0
 40
0
 40
0
 40
0
 40
0
 40
1
 40
1
 40
1
 40
1
 10
130.995930
 20
95.244310
 30
0.0
 10
129.647800
 20
95.244310
 30
0.0
 10
128.569300
 20
94.165820
 30
0.0
 10
128.569300
 20
92.817680
 30
0.0
  0
SPLINE
  5
19b
100
AcDbEntity
  8
Ebene_1
 62
7
100
AcDbSpline
 70
8
 71
3
 72
8
 73
4
 74
0
 40
0
 40
0
 40
0
 40
0
 40
1
 40
1
 40
1
 40
1
 10
128.569300
 20
92.817680
 30
0.0
 10
128.569300
 20
91.469550
 30
0.0
 10
129.647800
 20
90.391050
 30
0.0
 10
130.995930
 20
90.391050
 30
0.0
  0
LWPOLYLINE
  5
19c
100
AcDbEntity
  8
Ebene_1
 62
7
100
AcDbPolyline
 90
1
 70
1
 10
68.922122
 20
94.824900
 30
0.0
  0
SPLINE
  5
19d
100
AcDbEntity
  8
Ebene_1
 62
7
100
AcDbSpline
 70
8
 71
3
 72
8
 73
4
 74
0
 40
0
 40
0
 40
0
 40
0
 40
1
 40
1
 40
1
 40
1
 10
86.657501
 20
112.919780
 30
0.0
 10
85.309381
 20
112.919780
 30
0.0
 10
84.230864
 20
111.841280
 30
0.0
 10
84.230864
 20
110.493150
 30
0.0
  0
SPLINE
  5
19e
100
AcDbEntity
  8
Ebene_1
 62
7
100
AcDbSpline
 70
8
 71
3
 72
8
 73
4
 74
0
 40
0
 40
0
 40
0
 40
0
 40
1
 40
1
 40
1
 40
1
 10
84.230864
 20
110.493150
 30
0.0
 10
84.230864
 20
109.174980
 30
0.0
 10
85.309381
 20
108.066520
 30
0.0
 10
86.657501
 20
108.066520
 30
0.0
  0
SPLINE
  5
19f
100
AcDbEntity
  8
Ebene_1
 62
7
100
AcDbSpline
 70
8
 71
3
 72
8
 73
4
 74
0
 40
0
 40
0
 40
0
 40
0
 40
1
 40
1
 40
1
 40
1
 10
86.657501
 20
108.066520
 30
0.0
 10
88.005635
 20
108.066520
 30
0.0
 10
89.084138
 20
109.145020
 30
0.0
 10
89.084138
 20
110.493150
 30
0.0
  0
SPLINE
  5
1a0
100
AcDbEntity
  8
Ebene_1
 62
7
100
AcDbSpline
 70
8
 71
3
 72
8
 73
4
 74
0
 40
0
 40
0
 40
0
 40
0
 40
1
 40
1
 40
1
 40
1
 10
89.084138
 20
110.493150
 30
0.0
 10
89.084138
 20
111.841280
 30
0.0
 10
88.005635
 20
112.919780
 30
0.0
 10
86.657501
 20
112.919780
 30
0.0
  0
LWPOLYLINE
  5
1a1
100
AcDbEntity
  8
Ebene_1
 62
7
100
AcDbPolyline
 90
1
 70
1
 10
130.995930
 20
90.391050
 30
0.0
  0
LWPOLYLINE
  5
1a2
100
AcDbEntity
  8
Ebene_1
 62
7
100
AcDbPolyline
 90
1
 70
1
 10
86.657501
 20
112.919780
 30
0.0
  0
SPLINE
  5
1a3
100
AcDbEntity
  8
Ebene_1
 62
7
100
AcDbSpline
 70
8
 71
3
 72
8
 73
4
 74
0
 40
0
 40
0
 40
0
 40
0
 40
1
 40
1
 40
1
 40
1
 10
90.849456
 20
71.237200
 30
0.0
 10
88.505706
 20
71.263267
 30
0.0
 10
86.858571
 20
70.937747
 30
0.0
 10
85.908050
 20
70.260640
 30
0.0
  0
SPLINE
  5
1a4
100
AcDbEntity
  8
Ebene_1
 62
7
100
AcDbSpline
 70
8
 71
3
 72
8
 73
4
 74
0
 40
0
 40
0
 40
0
 40
0
 40
1
 40
1
 40
1
 40
1
 10
85.908050
 20
70.260640
 30
0.0
 10
84.964039
 20
69.537987
 30
0.0
 10
84.498544
 20
68.037337
 30
0.0
 10
84.511565
 20
65.758690
 30
0.0
  0
LWPOLYLINE
  5
1a5
100
AcDbEntity
  8
Ebene_1
 62
7
100
AcDbPolyline
 90
12
 70
1
 10
81.358916
 20
71.120010
 30
0.0
 10
78.478057
 20
71.120010
 30
0.0
 10
78.478057
 20
64.977440
 30
0.0
 10
71.495635
 20
64.977440
 30
0.0
 10
71.495635
 20
71.120010
 30
0.0
 10
68.614776
 20
71.120010
 30
0.0
 10
68.614776
 20
56.120010
 30
0.0
 10
71.495635
 20
56.120010
 30
0.0
 10
71.495635
 20
62.516500
 30
0.0
 10
78.478057
 20
62.516500
 30
0.0
 10
78.478057
 20
56.120010
 30
0.0
 10
81.358916
 20
56.120010
 30
0.0
  0
SPLINE
  5
1a6
100
AcDbEntity
  8
Ebene_1
 62
7
100
AcDbSpline
 70
8
 71
3
 72
8
 73
4
 74
0
 40
0
 40
0
 40
0
 40
0
 40
1
 40
1
 40
1
 40
1
 10
84.511565
 20
61.715720
 30
0.0
 10
84.498545
 20
59.332907
 30
0.0
 10
84.977061
 20
57.767150
 30
0.0
 10
85.947112
 20
57.018450
 30
0.0
  0
SPLINE
  5
1a7
100
AcDbEntity
  8
Ebene_1
 62
7
100
AcDbSpline
 70
8
 71
3
 72
8
 73
4
 74
0
 40
0
 40
0
 40
0
 40
0
 40
1
 40
1
 40
1
 40
1
 10
85.947112
 20
57.018450
 30
0.0
 10
86.923675
 20
56.315323
 30
0.0
 10
88.557789
 20
55.976783
 30
0.0
 10
90.849456
 20
56.002830
 30
0.0
  0
SPLINE
  5
1a8
100
AcDbEntity
  8
Ebene_1
 62
7
100
AcDbSpline
 70
8
 71
3
 72
8
 73
4
 74
0
 40
0
 40
0
 40
0
 40
0
 40
1
 40
1
 40
1
 40
1
 10
90.849456
 20
56.002830
 30
0.0
 10
93.115081
 20
55.976763
 30
0.0
 10
94.755706
 20
56.334837
 30
0.0
 10
95.771331
 20
57.077050
 30
0.0
  0
SPLINE
  5
1a9
100
AcDbEntity
  8
Ebene_1
 62
7
100
AcDbSpline
 70
8
 71
3
 72
8
 73
4
 74
0
 40
0
 40
0
 40
0
 40
0
 40
1
 40
1
 40
1
 40
1
 10
95.771331
 20
57.077050
 30
0.0
 10
96.754404
 20
57.838763
 30
0.0
 10
97.245940
 20
59.384987
 30
0.0
 10
97.245940
 20
61.715720
 30
0.0
  0
LWPOLYLINE
  5
1aa
100
AcDbEntity
  8
Ebene_1
 62
7
100
AcDbPolyline
 90
2
 70
0
 10
84.511565
 20
65.758690
 30
0.0
 10
84.511565
 20
61.715720
 30
0.0
  0
SPLINE
  5
1ab
100
AcDbEntity
  8
Ebene_1
 62
7
100
AcDbSpline
 70
8
 71
3
 72
8
 73
4
 74
0
 40
0
 40
0
 40
0
 40
0
 40
1
 40
1
 40
1
 40
1
 10
97.245940
 20
65.758690
 30
0.0
 10
97.245940
 20
68.102437
 30
0.0
 10
96.721852
 20
69.622617
 30
0.0
 10
95.673675
 20
70.319230
 30
0.0
  0
SPLINE
  5
1ac
100
AcDbEntity
  8
Ebene_1
 62
7
100
AcDbSpline
 70
8
 71
3
 72
8
 73
4
 74
0
 40
0
 40
0
 40
0
 40
0
 40
1
 40
1
 40
1
 40
1
 10
95.673675
 20
70.319230
 30
0.0
 10
94.618987
 20
70.970277
 30
0.0
 10
93.010914
 20
71.276267
 30
0.0
 10
90.849456
 20
71.237200
 30
0.0
  0
LWPOLYLINE
  5
1ad
100
AcDbEntity
  8
Ebene_1
 62
7
100
AcDbPolyline
 90
2
 70
0
 10
97.245940
 20
61.715720
 30
0.0
 10
97.245940
 20
65.758690
 30
0.0
  0
SPLINE
  5
1ae
100
AcDbEntity
  8
Ebene_1
 62
7
100
AcDbSpline
 70
8
 71
3
 72
8
 73
4
 74
0
 40
0
 40
0
 40
0
 40
0
 40
1
 40
1
 40
1
 40
1
 10
90.849456
 20
68.776260
 30
0.0
 10
91.487477
 20
68.776260
 30
0.0
 10
92.034352
 20
68.756727
 30
0.0
 10
92.490081
 20
68.717660
 30
0.0
  0
SPLINE
  5
1af
100
AcDbEntity
  8
Ebene_1
 62
7
100
AcDbSpline
 70
8
 71
3
 72
8
 73
4
 74
0
 40
0
 40
0
 40
0
 40
0
 40
1
 40
1
 40
1
 40
1
 10
92.490081
 20
68.717660
 30
0.0
 10
92.932789
 20
68.665593
 30
0.0
 10
93.294117
 20
68.538640
 30
0.0
 10
93.574065
 20
68.336800
 30
0.0
  0
SPLINE
  5
1b0
100
AcDbEntity
  8
Ebene_1
 62
7
100
AcDbSpline
 70
8
 71
3
 72
8
 73
4
 74
0
 40
0
 40
0
 40
0
 40
0
 40
1
 40
1
 40
1
 40
1
 10
93.574065
 20
68.336800
 30
0.0
 10
93.854013
 20
68.154507
 30
0.0
 10
94.059091
 20
67.855027
 30
0.0
 10
94.189300
 20
67.438360
 30
0.0
  0
SPLINE
  5
1b1
100
AcDbEntity
  8
Ebene_1
 62
7
100
AcDbSpline
 70
8
 71
3
 72
8
 73
4
 74
0
 40
0
 40
0
 40
0
 40
0
 40
1
 40
1
 40
1
 40
1
 10
94.189300
 20
67.438360
 30
0.0
 10
94.306487
 20
67.028207
 30
0.0
 10
94.365081
 20
66.468313
 30
0.0
 10
94.365081
 20
65.758680
 30
0.0
  0
LWPOLYLINE
  5
1b2
100
AcDbEntity
  8
Ebene_1
 62
7
100
AcDbPolyline
 90
1
 70
1
 10
90.849456
 20
71.237200
 30
0.0
  0
SPLINE
  5
1b3
100
AcDbEntity
  8
Ebene_1
 62
7
100
AcDbSpline
 70
8
 71
3
 72
8
 73
4
 74
0
 40
0
 40
0
 40
0
 40
0
 40
1
 40
1
 40
1
 40
1
 10
94.365081
 20
61.715710
 30
0.0
 10
94.365081
 20
60.315970
 30
0.0
 10
94.114430
 20
59.417533
 30
0.0
 10
93.613128
 20
59.020400
 30
0.0
  0
SPLINE
  5
1b4
100
AcDbEntity
  8
Ebene_1
 62
7
100
AcDbSpline
 70
8
 71
3
 72
8
 73
4
 74
0
 40
0
 40
0
 40
0
 40
0
 40
1
 40
1
 40
1
 40
1
 10
93.613128
 20
59.020400
 30
0.0
 10
93.079274
 20
58.623260
 30
0.0
 10
92.158050
 20
58.437710
 30
0.0
 10
90.849456
 20
58.463750
 30
0.0
  0
SPLINE
  5
1b5
100
AcDbEntity
  8
Ebene_1
 62
7
100
AcDbSpline
 70
8
 71
3
 72
8
 73
4
 74
0
 40
0
 40
0
 40
0
 40
0
 40
1
 40
1
 40
1
 40
1
 10
90.849456
 20
58.463750
 30
0.0
 10
89.449717
 20
58.437683
 30
0.0
 10
88.515472
 20
58.610210
 30
0.0
 10
88.046722
 20
58.981330
 30
0.0
  0
SPLINE
  5
1b6
100
AcDbEntity
  8
Ebene_1
 62
7
100
AcDbSpline
 70
8
 71
3
 72
8
 73
4
 74
0
 40
0
 40
0
 40
0
 40
0
 40
1
 40
1
 40
1
 40
1
 10
88.046722
 20
58.981330
 30
0.0
 10
87.597503
 20
59.378470
 30
0.0
 10
87.379404
 20
60.289930
 30
0.0
 10
87.392425
 20
61.715710
 30
0.0
  0
LWPOLYLINE
  5
1b7
100
AcDbEntity
  8
Ebene_1
 62
7
100
AcDbPolyline
 90
2
 70
0
 10
94.365081
 20
65.758680
 30
0.0
 10
94.365081
 20
61.715710
 30
0.0
  0
SPLINE
  5
1b8
100
AcDbEntity
  8
Ebene_1
 62
7
100
AcDbSpline
 70
8
 71
3
 72
8
 73
4
 74
0
 40
0
 40
0
 40
0
 40
0
 40
1
 40
1
 40
1
 40
1
 10
87.392425
 20
65.758680
 30
0.0
 10
87.366385
 20
66.930553
 30
0.0
 10
87.558442
 20
67.737843
 30
0.0
 10
87.968597
 20
68.180550
 30
0.0
  0
SPLINE
  5
1b9
100
AcDbEntity
  8
Ebene_1
 62
7
100
AcDbSpline
 70
8
 71
3
 72
8
 73
4
 74
0
 40
0
 40
0
 40
0
 40
0
 40
1
 40
1
 40
1
 40
1
 10
87.968597
 20
68.180550
 30
0.0
 10
88.209482
 20
68.408417
 30
0.0
 10
88.564300
 20
68.567923
 30
0.0
 10
89.033050
 20
68.659070
 30
0.0
  0
SPLINE
  5
1ba
100
AcDbEntity
  8
Ebene_1
 62
7
100
AcDbSpline
 70
8
 71
3
 72
8
 73
4
 74
0
 40
0
 40
0
 40
0
 40
0
 40
1
 40
1
 40
1
 40
1
 10
89.033050
 20
68.659070
 30
0.0
 10
89.482269
 20
68.737190
 30
0.0
 10
90.087737
 20
68.776250
 30
0.0
 10
90.849456
 20
68.776250
 30
0.0
  0
LWPOLYLINE
  5
1bb
100
AcDbEntity
  8
Ebene_1
 62
7
100
AcDbPolyline
 90
2
 70
0
 10
87.392425
 20
61.715710
 30
0.0
 10
87.392425
 20
65.758680
 30
0.0
  0
LWPOLYLINE
  5
1bc
100
AcDbEntity
  8
Ebene_1
 62
7
100
AcDbPolyline
 90
1
 70
1
 10
90.849456
 20
68.776250
 30
0.0
  0
LWPOLYLINE
  5
1bd
100
AcDbEntity
  8
Ebene_1
 62
7
100
AcDbPolyline
 90
16
 70
1
 10
115.154448
 20
68.756730
 30
0.0
 10
115.261868
 20
68.756730
 30
0.0
 10
115.017728
 20
56.120010
 30
0.0
 10
117.898588
 20
56.120010
 30
0.0
 10
117.898588
 20
71.120010
 30
0.0
 10
113.181788
 20
71.120010
 30
0.0
 10
109.177888
 20
59.977440
 30
0.0
 10
109.099788
 20
59.977440
 30
0.0
 10
105.017758
 20
71.120010
 30
0.0
 10
100.398618
 20
71.120010
 30
0.0
 10
100.398618
 20
56.120010
 30
0.0
 10
103.279478
 20
56.120010
 30
0.0
 10
103.035338
 20
68.698140
 30
0.0
 10
103.103738
 20
68.698140
 30
0.0
 10
107.859598
 20
56.120010
 30
0.0
 10
110.437718
 20
56.120010
 30
0.0
  0
LWPOLYLINE
  5
1be
100
AcDbEntity
  8
Ebene_1
 62
7
100
AcDbPolyline
 90
12
 70
1
 10
124.273898
 20
68.659080
 30
0.0
 10
131.666468
 20
68.659080
 30
0.0
 10
131.666468
 20
71.120010
 30
0.0
 10
121.393038
 20
71.120010
 30
0.0
 10
121.393038
 20
56.120010
 30
0.0
 10
131.725068
 20
56.120010
 30
0.0
 10
131.725068
 20
58.580950
 30
0.0
 10
124.273898
 20
58.580950
 30
0.0
 10
124.273898
 20
62.555560
 30
0.0
 10
131.285618
 20
62.555560
 30
0.0
 10
131.285618
 20
64.918840
 30
0.0
 10
124.273898
 20
64.918840
 30
0.0
  0
LWPOLYLINE
  5
1bf
100
AcDbEntity
  8
Ebene_1
 62
7
100
AcDbPolyline
 90
8
 70
1
 10
48.970457
 20
37.961810
 30
0.0
 10
49.947019
 20
35.120010
 30
0.0
 10
52.866941
 20
35.120010
 30
0.0
 10
47.788816
 20
50.120010
 30
0.0
 10
43.550535
 20
50.120010
 30
0.0
 10
38.570066
 20
35.120010
 30
0.0
 10
41.548582
 20
35.120010
 30
0.0
 10
42.486082
 20
37.961810
 30
0.0
  0
LWPOLYLINE
  5
1c0
100
AcDbEntity
  8
Ebene_1
 62
7
100
AcDbPolyline
 90
4
 70
1
 10
48.325926
 20
40.139550
 30
0.0
 10
43.150144
 20
40.139550
 30
0.0
 10
45.708738
 20
47.922750
 30
0.0
 10
45.747798
 20
47.922750
 30
0.0
  0
SPLINE
  5
1c1
100
AcDbEntity
  8
Ebene_1
 62
7
100
AcDbSpline
 70
8
 71
3
 72
8
 73
4
 74
0
 40
0
 40
0
 40
0
 40
0
 40
1
 40
1
 40
1
 40
1
 10
54.525450
 20
39.202050
 30
0.0
 10
54.525450
 20
38.147357
 30
0.0
 10
54.704486
 20
37.333553
 30
0.0
 10
55.062559
 20
36.760640
 30
0.0
  0
SPLINE
  5
1c2
100
AcDbEntity
  8
Ebene_1
 62
7
100
AcDbSpline
 70
8
 71
3
 72
8
 73
4
 74
0
 40
0
 40
0
 40
0
 40
0
 40
1
 40
1
 40
1
 40
1
 10
55.062559
 20
36.760640
 30
0.0
 10
55.381570
 20
36.174700
 30
0.0
 10
55.834044
 20
35.754777
 30
0.0
 10
56.419981
 20
35.500870
 30
0.0
  0
SPLINE
  5
1c3
100
AcDbEntity
  8
Ebene_1
 62
7
100
AcDbSpline
 70
8
 71
3
 72
8
 73
4
 74
0
 40
0
 40
0
 40
0
 40
0
 40
1
 40
1
 40
1
 40
1
 10
56.419981
 20
35.500870
 30
0.0
 10
57.005918
 20
35.259990
 30
0.0
 10
57.679746
 20
35.113507
 30
0.0
 10
58.441465
 20
35.061420
 30
0.0
  0
SPLINE
  5
1c4
100
AcDbEntity
  8
Ebene_1
 62
7
100
AcDbSpline
 70
8
 71
3
 72
8
 73
4
 74
0
 40
0
 40
0
 40
0
 40
0
 40
1
 40
1
 40
1
 40
1
 10
58.441465
 20
35.061420
 30
0.0
 10
59.190163
 20
35.022353
 30
0.0
 10
59.977924
 20
35.002820
 30
0.0
 10
60.804747
 20
35.002820
 30
0.0
  0
SPLINE
  5
1c5
100
AcDbEntity
  8
Ebene_1
 62
7
100
AcDbSpline
 70
8
 71
3
 72
8
 73
4
 74
0
 40
0
 40
0
 40
0
 40
0
 40
1
 40
1
 40
1
 40
1
 10
60.804747
 20
35.002820
 30
0.0
 10
61.787820
 20
35.002820
 30
0.0
 10
62.647195
 20
35.048393
 30
0.0
 10
63.382872
 20
35.139540
 30
0.0
  0
SPLINE
  5
1c6
100
AcDbEntity
  8
Ebene_1
 62
7
100
AcDbSpline
 70
8
 71
3
 72
8
 73
4
 74
0
 40
0
 40
0
 40
0
 40
0
 40
1
 40
1
 40
1
 40
1
 10
63.382872
 20
35.139540
 30
0.0
 10
64.099017
 20
35.230680
 30
0.0
 10
64.697976
 20
35.422737
 30
0.0
 10
65.179747
 20
35.715710
 30
0.0
  0
SPLINE
  5
1c7
100
AcDbEntity
  8
Ebene_1
 62
7
100
AcDbSpline
 70
8
 71
3
 72
8
 73
4
 74
0
 40
0
 40
0
 40
0
 40
0
 40
1
 40
1
 40
1
 40
1
 10
65.179747
 20
35.715710
 30
0.0
 10
65.687559
 20
36.028210
 30
0.0
 10
66.061908
 20
36.496960
 30
0.0
 10
66.302793
 20
37.121960
 30
0.0
  0
SPLINE
  5
1c8
100
AcDbEntity
  8
Ebene_1
 62
7
100
AcDbSpline
 70
8
 71
3
 72
8
 73
4
 74
0
 40
0
 40
0
 40
0
 40
0
 40
1
 40
1
 40
1
 40
1
 10
66.302793
 20
37.121960
 30
0.0
 10
66.543679
 20
37.733940
 30
0.0
 10
66.664122
 20
38.554253
 30
0.0
 10
66.664122
 20
39.582900
 30
0.0
  0
SPLINE
  5
1c9
100
AcDbEntity
  8
Ebene_1
 62
7
100
AcDbSpline
 70
8
 71
3
 72
8
 73
4
 74
0
 40
0
 40
0
 40
0
 40
0
 40
1
 40
1
 40
1
 40
1
 10
66.664122
 20
39.582900
 30
0.0
 10
66.690162
 20
41.418833
 30
0.0
 10
66.296282
 20
42.590707
 30
0.0
 10
65.482481
 20
43.098520
 30
0.0
  0
SPLINE
  5
1ca
100
AcDbEntity
  8
Ebene_1
 62
7
100
AcDbSpline
 70
8
 71
3
 72
8
 73
4
 74
0
 40
0
 40
0
 40
0
 40
0
 40
1
 40
1
 40
1
 40
1
 10
65.482481
 20
43.098520
 30
0.0
 10
64.629616
 20
43.580293
 30
0.0
 10
63.063861
 20
43.853730
 30
0.0
 10
60.785215
 20
43.918830
 30
0.0
  0
SPLINE
  5
1cb
100
AcDbEntity
  8
Ebene_1
 62
7
100
AcDbSpline
 70
8
 71
3
 72
8
 73
4
 74
0
 40
0
 40
0
 40
0
 40
0
 40
1
 40
1
 40
1
 40
1
 10
60.785215
 20
43.918830
 30
0.0
 10
59.365944
 20
43.970897
 30
0.0
 10
58.451231
 20
44.117383
 30
0.0
 10
58.041075
 20
44.358290
 30
0.0
  0
SPLINE
  5
1cc
100
AcDbEntity
  8
Ebene_1
 62
7
100
AcDbSpline
 70
8
 71
3
 72
8
 73
4
 74
0
 40
0
 40
0
 40
0
 40
0
 40
1
 40
1
 40
1
 40
1
 10
58.041075
 20
44.358290
 30
0.0
 10
57.643940
 20
44.573130
 30
0.0
 10
57.458393
 20
45.120003
 30
0.0
 10
57.484434
 20
45.998910
 30
0.0
  0
SPLINE
  5
1cd
100
AcDbEntity
  8
Ebene_1
 62
7
100
AcDbSpline
 70
8
 71
3
 72
8
 73
4
 74
0
 40
0
 40
0
 40
0
 40
0
 40
1
 40
1
 40
1
 40
1
 10
57.484434
 20
45.998910
 30
0.0
 10
57.484434
 20
46.396043
 30
0.0
 10
57.530007
 20
46.721563
 30
0.0
 10
57.621153
 20
46.975470
 30
0.0
  0
SPLINE
  5
1ce
100
AcDbEntity
  8
Ebene_1
 62
7
100
AcDbSpline
 70
8
 71
3
 72
8
 73
4
 74
0
 40
0
 40
0
 40
0
 40
0
 40
1
 40
1
 40
1
 40
1
 10
57.621153
 20
46.975470
 30
0.0
 10
57.699278
 20
47.229377
 30
0.0
 10
57.852272
 20
47.424690
 30
0.0
 10
58.080137
 20
47.561410
 30
0.0
  0
SPLINE
  5
1cf
100
AcDbEntity
  8
Ebene_1
 62
7
100
AcDbSpline
 70
8
 71
3
 72
8
 73
4
 74
0
 40
0
 40
0
 40
0
 40
0
 40
1
 40
1
 40
1
 40
1
 10
58.080137
 20
47.561410
 30
0.0
 10
58.522846
 20
47.789277
 30
0.0
 10
59.431049
 20
47.896700
 30
0.0
 10
60.804747
 20
47.883680
 30
0.0
  0
SPLINE
  5
1d0
100
AcDbEntity
  8
Ebene_1
 62
7
100
AcDbSpline
 70
8
 71
3
 72
8
 73
4
 74
0
 40
0
 40
0
 40
0
 40
0
 40
1
 40
1
 40
1
 40
1
 10
60.804747
 20
47.883680
 30
0.0
 10
61.813861
 20
47.896680
 30
0.0
 10
62.520241
 20
47.821810
 30
0.0
 10
62.923887
 20
47.659070
 30
0.0
  0
SPLINE
  5
1d1
100
AcDbEntity
  8
Ebene_1
 62
7
100
AcDbSpline
 70
8
 71
3
 72
8
 73
4
 74
0
 40
0
 40
0
 40
0
 40
0
 40
1
 40
1
 40
1
 40
1
 10
62.923887
 20
47.659070
 30
0.0
 10
63.294981
 20
47.470263
 30
0.0
 10
63.480528
 20
46.985237
 30
0.0
 10
63.480528
 20
46.203990
 30
0.0
  0
LWPOLYLINE
  5
1d2
100
AcDbEntity
  8
Ebene_1
 62
7
100
AcDbPolyline
 90
2
 70
0
 10
54.525450
 20
39.895410
 30
0.0
 10
54.525450
 20
39.202050
 30
0.0
  0
SPLINE
  5
1d3
100
AcDbEntity
  8
Ebene_1
 62
7
100
AcDbSpline
 70
8
 71
3
 72
8
 73
4
 74
0
 40
0
 40
0
 40
0
 40
0
 40
1
 40
1
 40
1
 40
1
 10
66.361387
 20
46.203990
 30
0.0
 10
66.361387
 20
47.200083
 30
0.0
 10
66.221413
 20
47.971567
 30
0.0
 10
65.941465
 20
48.518440
 30
0.0
  0
SPLINE
  5
1d4
100
AcDbEntity
  8
Ebene_1
 62
7
100
AcDbSpline
 70
8
 71
3
 72
8
 73
4
 74
0
 40
0
 40
0
 40
0
 40
0
 40
1
 40
1
 40
1
 40
1
 10
65.941465
 20
48.518440
 30
0.0
 10
65.648496
 20
49.065313
 30
0.0
 10
65.248106
 20
49.465703
 30
0.0
 10
64.740293
 20
49.719610
 30
0.0
  0
SPLINE
  5
1d5
100
AcDbEntity
  8
Ebene_1
 62
7
100
AcDbSpline
 70
8
 71
3
 72
8
 73
4
 74
0
 40
0
 40
0
 40
0
 40
0
 40
1
 40
1
 40
1
 40
1
 10
64.740293
 20
49.719610
 30
0.0
 10
64.232481
 20
49.973517
 30
0.0
 10
63.646544
 20
50.126513
 30
0.0
 10
62.982481
 20
50.178600
 30
0.0
  0
SPLINE
  5
1d6
100
AcDbEntity
  8
Ebene_1
 62
7
100
AcDbSpline
 70
8
 71
3
 72
8
 73
4
 74
0
 40
0
 40
0
 40
0
 40
0
 40
1
 40
1
 40
1
 40
1
 10
62.982481
 20
50.178600
 30
0.0
 10
62.311908
 20
50.217667
 30
0.0
 10
61.585997
 20
50.237200
 30
0.0
 10
60.804747
 20
50.237200
 30
0.0
  0
SPLINE
  5
1d7
100
AcDbEntity
  8
Ebene_1
 62
7
100
AcDbSpline
 70
8
 71
3
 72
8
 73
4
 74
0
 40
0
 40
0
 40
0
 40
0
 40
1
 40
1
 40
1
 40
1
 10
60.804747
 20
50.237200
 30
0.0
 10
59.906309
 20
50.237200
 30
0.0
 10
59.085996
 20
50.217667
 30
0.0
 10
58.343809
 20
50.178600
 30
0.0
  0
SPLINE
  5
1d8
100
AcDbEntity
  8
Ebene_1
 62
7
100
AcDbSpline
 70
8
 71
3
 72
8
 73
4
 74
0
 40
0
 40
0
 40
0
 40
0
 40
1
 40
1
 40
1
 40
1
 10
58.343809
 20
50.178600
 30
0.0
 10
57.582090
 20
50.113467
 30
0.0
 10
56.921283
 20
49.947450
 30
0.0
 10
56.361387
 20
49.680550
 30
0.0
  0
SPLINE
  5
1d9
100
AcDbEntity
  8
Ebene_1
 62
7
100
AcDbSpline
 70
8
 71
3
 72
8
 73
4
 74
0
 40
0
 40
0
 40
0
 40
0
 40
1
 40
1
 40
1
 40
1
 10
56.361387
 20
49.680550
 30
0.0
 10
55.814512
 20
49.413623
 30
0.0
 10
55.388080
 20
48.993703
 30
0.0
 10
55.082090
 20
48.420790
 30
0.0
  0
SPLINE
  5
1da
100
AcDbEntity
  8
Ebene_1
 62
7
100
AcDbSpline
 70
8
 71
3
 72
8
 73
4
 74
0
 40
0
 40
0
 40
0
 40
0
 40
1
 40
1
 40
1
 40
1
 10
55.082090
 20
48.420790
 30
0.0
 10
54.763080
 20
47.834850
 30
0.0
 10
54.603575
 20
47.027557
 30
0.0
 10
54.603575
 20
45.998910
 30
0.0
  0
SPLINE
  5
1db
100
AcDbEntity
  8
Ebene_1
 62
7
100
AcDbSpline
 70
8
 71
3
 72
8
 73
4
 74
0
 40
0
 40
0
 40
0
 40
0
 40
1
 40
1
 40
1
 40
1
 10
54.603575
 20
45.998910
 30
0.0
 10
54.603575
 20
44.931203
 30
0.0
 10
54.756570
 20
44.104380
 30
0.0
 10
55.062559
 20
43.518440
 30
0.0
  0
SPLINE
  5
1dc
100
AcDbEntity
  8
Ebene_1
 62
7
100
AcDbSpline
 70
8
 71
3
 72
8
 73
4
 74
0
 40
0
 40
0
 40
0
 40
0
 40
1
 40
1
 40
1
 40
1
 10
55.062559
 20
43.518440
 30
0.0
 10
55.368548
 20
42.919480
 30
0.0
 10
55.781960
 20
42.486537
 30
0.0
 10
56.302793
 20
42.219610
 30
0.0
  0
SPLINE
  5
1dd
100
AcDbEntity
  8
Ebene_1
 62
7
100
AcDbSpline
 70
8
 71
3
 72
8
 73
4
 74
0
 40
0
 40
0
 40
0
 40
0
 40
1
 40
1
 40
1
 40
1
 10
56.302793
 20
42.219610
 30
0.0
 10
56.823626
 20
41.965703
 30
0.0
 10
57.435606
 20
41.806200
 30
0.0
 10
58.138731
 20
41.741100
 30
0.0
  0
SPLINE
  5
1de
100
AcDbEntity
  8
Ebene_1
 62
7
100
AcDbSpline
 70
8
 71
3
 72
8
 73
4
 74
0
 40
0
 40
0
 40
0
 40
0
 40
1
 40
1
 40
1
 40
1
 10
58.138731
 20
41.741100
 30
0.0
 10
58.848366
 20
41.675967
 30
0.0
 10
59.603575
 20
41.614117
 30
0.0
 10
60.404356
 20
41.555550
 30
0.0
  0
SPLINE
  5
1df
100
AcDbEntity
  8
Ebene_1
 62
7
100
AcDbSpline
 70
8
 71
3
 72
8
 73
4
 74
0
 40
0
 40
0
 40
0
 40
0
 40
1
 40
1
 40
1
 40
1
 10
60.404356
 20
41.555550
 30
0.0
 10
60.964252
 20
41.542550
 30
0.0
 10
61.462299
 20
41.529517
 30
0.0
 10
61.898497
 20
41.516450
 30
0.0
  0
SPLINE
  5
1e0
100
AcDbEntity
  8
Ebene_1
 62
7
100
AcDbSpline
 70
8
 71
3
 72
8
 73
4
 74
0
 40
0
 40
0
 40
0
 40
0
 40
1
 40
1
 40
1
 40
1
 10
61.898497
 20
41.516450
 30
0.0
 10
62.315164
 20
41.490383
 30
0.0
 10
62.663471
 20
41.431790
 30
0.0
 10
62.943418
 20
41.340670
 30
0.0
  0
SPLINE
  5
1e1
100
AcDbEntity
  8
Ebene_1
 62
7
100
AcDbSpline
 70
8
 71
3
 72
8
 73
4
 74
0
 40
0
 40
0
 40
0
 40
0
 40
1
 40
1
 40
1
 40
1
 10
62.943418
 20
41.340670
 30
0.0
 10
63.223366
 20
41.249523
 30
0.0
 10
63.434955
 20
41.070487
 30
0.0
 10
63.578184
 20
40.803560
 30
0.0
  0
SPLINE
  5
1e2
100
AcDbEntity
  8
Ebene_1
 62
7
100
AcDbSpline
 70
8
 71
3
 72
8
 73
4
 74
0
 40
0
 40
0
 40
0
 40
0
 40
1
 40
1
 40
1
 40
1
 10
63.578184
 20
40.803560
 30
0.0
 10
63.714903
 20
40.523613
 30
0.0
 10
63.783262
 20
40.116713
 30
0.0
 10
63.783262
 20
39.582860
 30
0.0
  0
SPLINE
  5
1e3
100
AcDbEntity
  8
Ebene_1
 62
7
100
AcDbSpline
 70
8
 71
3
 72
8
 73
4
 74
0
 40
0
 40
0
 40
0
 40
0
 40
1
 40
1
 40
1
 40
1
 10
63.783262
 20
39.582860
 30
0.0
 10
63.796282
 20
38.743013
 30
0.0
 10
63.630266
 20
38.153820
 30
0.0
 10
63.285215
 20
37.815280
 30
0.0
  0
SPLINE
  5
1e4
100
AcDbEntity
  8
Ebene_1
 62
7
100
AcDbSpline
 70
8
 71
3
 72
8
 73
4
 74
0
 40
0
 40
0
 40
0
 40
0
 40
1
 40
1
 40
1
 40
1
 10
63.285215
 20
37.815280
 30
0.0
 10
62.907611
 20
37.496267
 30
0.0
 10
62.080788
 20
37.343270
 30
0.0
 10
60.804747
 20
37.356290
 30
0.0
  0
SPLINE
  5
1e5
100
AcDbEntity
  8
Ebene_1
 62
7
100
AcDbSpline
 70
8
 71
3
 72
8
 73
4
 74
0
 40
0
 40
0
 40
0
 40
0
 40
1
 40
1
 40
1
 40
1
 10
60.804747
 20
37.356290
 30
0.0
 10
59.509174
 20
37.343290
 30
0.0
 10
58.613991
 20
37.437693
 30
0.0
 10
58.119200
 20
37.639500
 30
0.0
  0
SPLINE
  5
1e6
100
AcDbEntity
  8
Ebene_1
 62
7
100
AcDbSpline
 70
8
 71
3
 72
8
 73
4
 74
0
 40
0
 40
0
 40
0
 40
0
 40
1
 40
1
 40
1
 40
1
 10
58.119200
 20
37.639500
 30
0.0
 10
57.624408
 20
37.854340
 30
0.0
 10
57.383522
 20
38.375173
 30
0.0
 10
57.396543
 20
39.202000
 30
0.0
  0
LWPOLYLINE
  5
1e7
100
AcDbEntity
  8
Ebene_1
 62
7
100
AcDbPolyline
 90
4
 70
0
 10
63.480528
 20
46.203990
 30
0.0
 10
63.480528
 20
45.715710
 30
0.0
 10
66.361387
 20
45.715710
 30
0.0
 10
66.361387
 20
46.203990
 30
0.0
  0
LWPOLYLINE
  5
1e8
100
AcDbEntity
  8
Ebene_1
 62
7
100
AcDbPolyline
 90
3
 70
0
 10
57.396543
 20
39.202000
 30
0.0
 10
57.396543
 20
39.895360
 30
0.0
 10
54.525450
 20
39.895410
 30
0.0
  0
SPLINE
  5
1e9
100
AcDbEntity
  8
Ebene_1
 62
7
100
AcDbSpline
 70
8
 71
3
 72
8
 73
4
 74
0
 40
0
 40
0
 40
0
 40
0
 40
1
 40
1
 40
1
 40
1
 10
69.035520
 20
39.202050
 30
0.0
 10
69.035520
 20
38.147357
 30
0.0
 10
69.214557
 20
37.333553
 30
0.0
 10
69.572630
 20
36.760640
 30
0.0
  0
SPLINE
  5
1ea
100
AcDbEntity
  8
Ebene_1
 62
7
100
AcDbSpline
 70
8
 71
3
 72
8
 73
4
 74
0
 40
0
 40
0
 40
0
 40
0
 40
1
 40
1
 40
1
 40
1
 10
69.572630
 20
36.760640
 30
0.0
 10
69.891640
 20
36.174700
 30
0.0
 10
70.344114
 20
35.754777
 30
0.0
 10
70.930052
 20
35.500870
 30
0.0
  0
SPLINE
  5
1eb
100
AcDbEntity
  8
Ebene_1
 62
7
100
AcDbSpline
 70
8
 71
3
 72
8
 73
4
 74
0
 40
0
 40
0
 40
0
 40
0
 40
1
 40
1
 40
1
 40
1
 10
70.930052
 20
35.500870
 30
0.0
 10
71.515989
 20
35.259990
 30
0.0
 10
72.189817
 20
35.113507
 30
0.0
 10
72.951536
 20
35.061420
 30
0.0
  0
SPLINE
  5
1ec
100
AcDbEntity
  8
Ebene_1
 62
7
100
AcDbSpline
 70
8
 71
3
 72
8
 73
4
 74
0
 40
0
 40
0
 40
0
 40
0
 40
1
 40
1
 40
1
 40
1
 10
72.951536
 20
35.061420
 30
0.0
 10
73.700234
 20
35.022353
 30
0.0
 10
74.487994
 20
35.002820
 30
0.0
 10
75.314817
 20
35.002820
 30
0.0
  0
SPLINE
  5
1ed
100
AcDbEntity
  8
Ebene_1
 62
7
100
AcDbSpline
 70
8
 71
3
 72
8
 73
4
 74
0
 40
0
 40
0
 40
0
 40
0
 40
1
 40
1
 40
1
 40
1
 10
75.314817
 20
35.002820
 30
0.0
 10
76.297890
 20
35.002820
 30
0.0
 10
77.157265
 20
35.048393
 30
0.0
 10
77.892942
 20
35.139540
 30
0.0
  0
SPLINE
  5
1ee
100
AcDbEntity
  8
Ebene_1
 62
7
100
AcDbSpline
 70
8
 71
3
 72
8
 73
4
 74
0
 40
0
 40
0
 40
0
 40
0
 40
1
 40
1
 40
1
 40
1
 10
77.892942
 20
35.139540
 30
0.0
 10
78.609088
 20
35.230680
 30
0.0
 10
79.208046
 20
35.422737
 30
0.0
 10
79.689817
 20
35.715710
 30
0.0
  0
SPLINE
  5
1ef
100
AcDbEntity
  8
Ebene_1
 62
7
100
AcDbSpline
 70
8
 71
3
 72
8
 73
4
 74
0
 40
0
 40
0
 40
0
 40
0
 40
1
 40
1
 40
1
 40
1
 10
79.689817
 20
35.715710
 30
0.0
 10
80.197630
 20
36.028210
 30
0.0
 10
80.571979
 20
36.496960
 30
0.0
 10
80.812864
 20
37.121960
 30
0.0
  0
SPLINE
  5
1f0
100
AcDbEntity
  8
Ebene_1
 62
7
100
AcDbSpline
 70
8
 71
3
 72
8
 73
4
 74
0
 40
0
 40
0
 40
0
 40
0
 40
1
 40
1
 40
1
 40
1
 10
80.812864
 20
37.121960
 30
0.0
 10
81.053749
 20
37.733940
 30
0.0
 10
81.174192
 20
38.554253
 30
0.0
 10
81.174192
 20
39.582900
 30
0.0
  0
SPLINE
  5
1f1
100
AcDbEntity
  8
Ebene_1
 62
7
100
AcDbSpline
 70
8
 71
3
 72
8
 73
4
 74
0
 40
0
 40
0
 40
0
 40
0
 40
1
 40
1
 40
1
 40
1
 10
81.174192
 20
39.582900
 30
0.0
 10
81.200232
 20
41.418833
 30
0.0
 10
80.806352
 20
42.590707
 30
0.0
 10
79.992552
 20
43.098520
 30
0.0
  0
SPLINE
  5
1f2
100
AcDbEntity
  8
Ebene_1
 62
7
100
AcDbSpline
 70
8
 71
3
 72
8
 73
4
 74
0
 40
0
 40
0
 40
0
 40
0
 40
1
 40
1
 40
1
 40
1
 10
79.992552
 20
43.098520
 30
0.0
 10
79.139687
 20
43.580293
 30
0.0
 10
77.573932
 20
43.853730
 30
0.0
 10
75.295286
 20
43.918830
 30
0.0
  0
SPLINE
  5
1f3
100
AcDbEntity
  8
Ebene_1
 62
7
100
AcDbSpline
 70
8
 71
3
 72
8
 73
4
 74
0
 40
0
 40
0
 40
0
 40
0
 40
1
 40
1
 40
1
 40
1
 10
75.295286
 20
43.918830
 30
0.0
 10
73.876015
 20
43.970897
 30
0.0
 10
72.961302
 20
44.117383
 30
0.0
 10
72.551145
 20
44.358290
 30
0.0
  0
SPLINE
  5
1f4
100
AcDbEntity
  8
Ebene_1
 62
7
100
AcDbSpline
 70
8
 71
3
 72
8
 73
4
 74
0
 40
0
 40
0
 40
0
 40
0
 40
1
 40
1
 40
1
 40
1
 10
72.551145
 20
44.358290
 30
0.0
 10
72.154010
 20
44.573130
 30
0.0
 10
71.968463
 20
45.120003
 30
0.0
 10
71.994505
 20
45.998910
 30
0.0
  0
SPLINE
  5
1f5
100
AcDbEntity
  8
Ebene_1
 62
7
100
AcDbSpline
 70
8
 71
3
 72
8
 73
4
 74
0
 40
0
 40
0
 40
0
 40
0
 40
1
 40
1
 40
1
 40
1
 10
71.994505
 20
45.998910
 30
0.0
 10
71.994505
 20
46.396043
 30
0.0
 10
72.040078
 20
46.721563
 30
0.0
 10
72.131224
 20
46.975470
 30
0.0
  0
SPLINE
  5
1f6
100
AcDbEntity
  8
Ebene_1
 62
7
100
AcDbSpline
 70
8
 71
3
 72
8
 73
4
 74
0
 40
0
 40
0
 40
0
 40
0
 40
1
 40
1
 40
1
 40
1
 10
72.131224
 20
46.975470
 30
0.0
 10
72.209349
 20
47.229377
 30
0.0
 10
72.362343
 20
47.424690
 30
0.0
 10
72.590208
 20
47.561410
 30
0.0
  0
SPLINE
  5
1f7
100
AcDbEntity
  8
Ebene_1
 62
7
100
AcDbSpline
 70
8
 71
3
 72
8
 73
4
 74
0
 40
0
 40
0
 40
0
 40
0
 40
1
 40
1
 40
1
 40
1
 10
72.590208
 20
47.561410
 30
0.0
 10
73.032916
 20
47.789277
 30
0.0
 10
73.941119
 20
47.896700
 30
0.0
 10
75.314817
 20
47.883680
 30
0.0
  0
SPLINE
  5
1f8
100
AcDbEntity
  8
Ebene_1
 62
7
100
AcDbSpline
 70
8
 71
3
 72
8
 73
4
 74
0
 40
0
 40
0
 40
0
 40
0
 40
1
 40
1
 40
1
 40
1
 10
75.314817
 20
47.883680
 30
0.0
 10
76.323932
 20
47.896680
 30
0.0
 10
77.030312
 20
47.821810
 30
0.0
 10
77.433958
 20
47.659070
 30
0.0
  0
SPLINE
  5
1f9
100
AcDbEntity
  8
Ebene_1
 62
7
100
AcDbSpline
 70
8
 71
3
 72
8
 73
4
 74
0
 40
0
 40
0
 40
0
 40
0
 40
1
 40
1
 40
1
 40
1
 10
77.433958
 20
47.659070
 30
0.0
 10
77.805052
 20
47.470263
 30
0.0
 10
77.990599
 20
46.985237
 30
0.0
 10
77.990599
 20
46.203990
 30
0.0
  0
LWPOLYLINE
  5
1fa
100
AcDbEntity
  8
Ebene_1
 62
7
100
AcDbPolyline
 90
2
 70
0
 10
69.035520
 20
39.895410
 30
0.0
 10
69.035520
 20
39.202050
 30
0.0
  0
SPLINE
  5
1fb
100
AcDbEntity
  8
Ebene_1
 62
7
100
AcDbSpline
 70
8
 71
3
 72
8
 73
4
 74
0
 40
0
 40
0
 40
0
 40
0
 40
1
 40
1
 40
1
 40
1
 10
80.871458
 20
46.203990
 30
0.0
 10
80.871458
 20
47.200083
 30
0.0
 10
80.731484
 20
47.971567
 30
0.0
 10
80.451536
 20
48.518440
 30
0.0
  0
SPLINE
  5
1fc
100
AcDbEntity
  8
Ebene_1
 62
7
100
AcDbSpline
 70
8
 71
3
 72
8
 73
4
 74
0
 40
0
 40
0
 40
0
 40
0
 40
1
 40
1
 40
1
 40
1
 10
80.451536
 20
48.518440
 30
0.0
 10
80.158567
 20
49.065313
 30
0.0
 10
79.758177
 20
49.465703
 30
0.0
 10
79.250364
 20
49.719610
 30
0.0
  0
SPLINE
  5
1fd
100
AcDbEntity
  8
Ebene_1
 62
7
100
AcDbSpline
 70
8
 71
3
 72
8
 73
4
 74
0
 40
0
 40
0
 40
0
 40
0
 40
1
 40
1
 40
1
 40
1
 10
79.250364
 20
49.719610
 30
0.0
 10
78.742551
 20
49.973517
 30
0.0
 10
78.156614
 20
50.126513
 30
0.0
 10
77.492552
 20
50.178600
 30
0.0
  0
SPLINE
  5
1fe
100
AcDbEntity
  8
Ebene_1
 62
7
100
AcDbSpline
 70
8
 71
3
 72
8
 73
4
 74
0
 40
0
 40
0
 40
0
 40
0
 40
1
 40
1
 40
1
 40
1
 10
77.492552
 20
50.178600
 30
0.0
 10
76.821979
 20
50.217667
 30
0.0
 10
76.096067
 20
50.237200
 30
0.0
 10
75.314817
 20
50.237200
 30
0.0
  0
SPLINE
  5
1ff
100
AcDbEntity
  8
Ebene_1
 62
7
100
AcDbSpline
 70
8
 71
3
 72
8
 73
4
 74
0
 40
0
 40
0
 40
0
 40
0
 40
1
 40
1
 40
1
 40
1
 10
75.314817
 20
50.237200
 30
0.0
 10
74.416380
 20
50.237200
 30
0.0
 10
73.596067
 20
50.217667
 30
0.0
 10
72.853880
 20
50.178600
 30
0.0
  0
SPLINE
  5
200
100
AcDbEntity
  8
Ebene_1
 62
7
100
AcDbSpline
 70
8
 71
3
 72
8
 73
4
 74
0
 40
0
 40
0
 40
0
 40
0
 40
1
 40
1
 40
1
 40
1
 10
72.853880
 20
50.178600
 30
0.0
 10
72.092161
 20
50.113467
 30
0.0
 10
71.431354
 20
49.947450
 30
0.0
 10
70.871458
 20
49.680550
 30
0.0
  0
SPLINE
  5
201
100
AcDbEntity
  8
Ebene_1
 62
7
100
AcDbSpline
 70
8
 71
3
 72
8
 73
4
 74
0
 40
0
 40
0
 40
0
 40
0
 40
1
 40
1
 40
1
 40
1
 10
70.871458
 20
49.680550
 30
0.0
 10
70.324583
 20
49.413623
 30
0.0
 10
69.898150
 20
48.993703
 30
0.0
 10
69.592161
 20
48.420790
 30
0.0
  0
SPLINE
  5
202
100
AcDbEntity
  8
Ebene_1
 62
7
100
AcDbSpline
 70
8
 71
3
 72
8
 73
4
 74
0
 40
0
 40
0
 40
0
 40
0
 40
1
 40
1
 40
1
 40
1
 10
69.592161
 20
48.420790
 30
0.0
 10
69.273150
 20
47.834850
 30
0.0
 10
69.113645
 20
47.027557
 30
0.0
 10
69.113645
 20
45.998910
 30
0.0
  0
SPLINE
  5
203
100
AcDbEntity
  8
Ebene_1
 62
7
100
AcDbSpline
 70
8
 71
3
 72
8
 73
4
 74
0
 40
0
 40
0
 40
0
 40
0
 40
1
 40
1
 40
1
 40
1
 10
69.113645
 20
45.998910
 30
0.0
 10
69.113645
 20
44.931203
 30
0.0
 10
69.266640
 20
44.104380
 30
0.0
 10
69.572630
 20
43.518440
 30
0.0
  0
SPLINE
  5
204
100
AcDbEntity
  8
Ebene_1
 62
7
100
AcDbSpline
 70
8
 71
3
 72
8
 73
4
 74
0
 40
0
 40
0
 40
0
 40
0
 40
1
 40
1
 40
1
 40
1
 10
69.572630
 20
43.518440
 30
0.0
 10
69.878619
 20
42.919480
 30
0.0
 10
70.292031
 20
42.486537
 30
0.0
 10
70.812864
 20
42.219610
 30
0.0
  0
SPLINE
  5
205
100
AcDbEntity
  8
Ebene_1
 62
7
100
AcDbSpline
 70
8
 71
3
 72
8
 73
4
 74
0
 40
0
 40
0
 40
0
 40
0
 40
1
 40
1
 40
1
 40
1
 10
70.812864
 20
42.219610
 30
0.0
 10
71.333697
 20
41.965703
 30
0.0
 10
71.945677
 20
41.806200
 30
0.0
 10
72.648802
 20
41.741100
 30
0.0
  0
SPLINE
  5
206
100
AcDbEntity
  8
Ebene_1
 62
7
100
AcDbSpline
 70
8
 71
3
 72
8
 73
4
 74
0
 40
0
 40
0
 40
0
 40
0
 40
1
 40
1
 40
1
 40
1
 10
72.648802
 20
41.741100
 30
0.0
 10
73.358437
 20
41.675967
 30
0.0
 10
74.113646
 20
41.614117
 30
0.0
 10
74.914427
 20
41.555550
 30
0.0
  0
SPLINE
  5
207
100
AcDbEntity
  8
Ebene_1
 62
7
100
AcDbSpline
 70
8
 71
3
 72
8
 73
4
 74
0
 40
0
 40
0
 40
0
 40
0
 40
1
 40
1
 40
1
 40
1
 10
74.914427
 20
41.555550
 30
0.0
 10
75.474322
 20
41.542550
 30
0.0
 10
75.972369
 20
41.529517
 30
0.0
 10
76.408567
 20
41.516450
 30
0.0
  0
SPLINE
  5
208
100
AcDbEntity
  8
Ebene_1
 62
7
100
AcDbSpline
 70
8
 71
3
 72
8
 73
4
 74
0
 40
0
 40
0
 40
0
 40
0
 40
1
 40
1
 40
1
 40
1
 10
76.408567
 20
41.516450
 30
0.0
 10
76.825234
 20
41.490383
 30
0.0
 10
77.173541
 20
41.431790
 30
0.0
 10
77.453489
 20
41.340670
 30
0.0
  0
SPLINE
  5
209
100
AcDbEntity
  8
Ebene_1
 62
7
100
AcDbSpline
 70
8
 71
3
 72
8
 73
4
 74
0
 40
0
 40
0
 40
0
 40
0
 40
1
 40
1
 40
1
 40
1
 10
77.453489
 20
41.340670
 30
0.0
 10
77.733437
 20
41.249523
 30
0.0
 10
77.945026
 20
41.070487
 30
0.0
 10
78.088255
 20
40.803560
 30
0.0
  0
SPLINE
  5
20a
100
AcDbEntity
  8
Ebene_1
 62
7
100
AcDbSpline
 70
8
 71
3
 72
8
 73
4
 74
0
 40
0
 40
0
 40
0
 40
0
 40
1
 40
1
 40
1
 40
1
 10
78.088255
 20
40.803560
 30
0.0
 10
78.224974
 20
40.523613
 30
0.0
 10
78.293333
 20
40.116713
 30
0.0
 10
78.293333
 20
39.582860
 30
0.0
  0
SPLINE
  5
20b
100
AcDbEntity
  8
Ebene_1
 62
7
100
AcDbSpline
 70
8
 71
3
 72
8
 73
4
 74
0
 40
0
 40
0
 40
0
 40
0
 40
1
 40
1
 40
1
 40
1
 10
78.293333
 20
39.582860
 30
0.0
 10
78.306353
 20
38.743013
 30
0.0
 10
78.140337
 20
38.153820
 30
0.0
 10
77.795286
 20
37.815280
 30
0.0
  0
SPLINE
  5
20c
100
AcDbEntity
  8
Ebene_1
 62
7
100
AcDbSpline
 70
8
 71
3
 72
8
 73
4
 74
0
 40
0
 40
0
 40
0
 40
0
 40
1
 40
1
 40
1
 40
1
 10
77.795286
 20
37.815280
 30
0.0
 10
77.417682
 20
37.496267
 30
0.0
 10
76.590859
 20
37.343270
 30
0.0
 10
75.314817
 20
37.356290
 30
0.0
  0
SPLINE
  5
20d
100
AcDbEntity
  8
Ebene_1
 62
7
100
AcDbSpline
 70
8
 71
3
 72
8
 73
4
 74
0
 40
0
 40
0
 40
0
 40
0
 40
1
 40
1
 40
1
 40
1
 10
75.314817
 20
37.356290
 30
0.0
 10
74.019244
 20
37.343290
 30
0.0
 10
73.124062
 20
37.437693
 30
0.0
 10
72.629270
 20
37.639500
 30
0.0
  0
SPLINE
  5
20e
100
AcDbEntity
  8
Ebene_1
 62
7
100
AcDbSpline
 70
8
 71
3
 72
8
 73
4
 74
0
 40
0
 40
0
 40
0
 40
0
 40
1
 40
1
 40
1
 40
1
 10
72.629270
 20
37.639500
 30
0.0
 10
72.134479
 20
37.854340
 30
0.0
 10
71.893593
 20
38.375173
 30
0.0
 10
71.906614
 20
39.202000
 30
0.0
  0
LWPOLYLINE
  5
20f
100
AcDbEntity
  8
Ebene_1
 62
7
100
AcDbPolyline
 90
4
 70
0
 10
77.990599
 20
46.203990
 30
0.0
 10
77.990599
 20
45.715710
 30
0.0
 10
80.871458
 20
45.715710
 30
0.0
 10
80.871458
 20
46.203990
 30
0.0
  0
LWPOLYLINE
  5
210
100
AcDbEntity
  8
Ebene_1
 62
7
100
AcDbPolyline
 90
3
 70
0
 10
71.906614
 20
39.202000
 30
0.0
 10
71.906614
 20
39.895360
 30
0.0
 10
69.035520
 20
39.895410
 30
0.0
  0
LWPOLYLINE
  5
211
100
AcDbEntity
  8
Ebene_1
 62
7
100
AcDbPolyline
 90
4
 70
1
 10
87.080747
 20
50.120010
 30
0.0
 10
84.199888
 20
50.120010
 30
0.0
 10
84.199888
 20
35.120010
 30
0.0
 10
87.080747
 20
35.120010
 30
0.0
  0
SPLINE
  5
212
100
AcDbEntity
  8
Ebene_1
 62
7
100
AcDbSpline
 70
8
 71
3
 72
8
 73
4
 74
0
 40
0
 40
0
 40
0
 40
0
 40
1
 40
1
 40
1
 40
1
 10
90.116209
 20
39.202050
 30
0.0
 10
90.116209
 20
38.147357
 30
0.0
 10
90.295245
 20
37.333553
 30
0.0
 10
90.653318
 20
36.760640
 30
0.0
  0
SPLINE
  5
213
100
AcDbEntity
  8
Ebene_1
 62
7
100
AcDbSpline
 70
8
 71
3
 72
8
 73
4
 74
0
 40
0
 40
0
 40
0
 40
0
 40
1
 40
1
 40
1
 40
1
 10
90.653318
 20
36.760640
 30
0.0
 10
90.972329
 20
36.174700
 30
0.0
 10
91.424803
 20
35.754777
 30
0.0
 10
92.010740
 20
35.500870
 30
0.0
  0
SPLINE
  5
214
100
AcDbEntity
  8
Ebene_1
 62
7
100
AcDbSpline
 70
8
 71
3
 72
8
 73
4
 74
0
 40
0
 40
0
 40
0
 40
0
 40
1
 40
1
 40
1
 40
1
 10
92.010740
 20
35.500870
 30
0.0
 10
92.596677
 20
35.259990
 30
0.0
 10
93.270506
 20
35.113507
 30
0.0
 10
94.032225
 20
35.061420
 30
0.0
  0
SPLINE
  5
215
100
AcDbEntity
  8
Ebene_1
 62
7
100
AcDbSpline
 70
8
 71
3
 72
8
 73
4
 74
0
 40
0
 40
0
 40
0
 40
0
 40
1
 40
1
 40
1
 40
1
 10
94.032225
 20
35.061420
 30
0.0
 10
94.780922
 20
35.022353
 30
0.0
 10
95.568683
 20
35.002820
 30
0.0
 10
96.395506
 20
35.002820
 30
0.0
  0
SPLINE
  5
216
100
AcDbEntity
  8
Ebene_1
 62
7
100
AcDbSpline
 70
8
 71
3
 72
8
 73
4
 74
0
 40
0
 40
0
 40
0
 40
0
 40
1
 40
1
 40
1
 40
1
 10
96.395506
 20
35.002820
 30
0.0
 10
97.378579
 20
35.002820
 30
0.0
 10
98.237954
 20
35.048393
 30
0.0
 10
98.973631
 20
35.139540
 30
0.0
  0
SPLINE
  5
217
100
AcDbEntity
  8
Ebene_1
 62
7
100
AcDbSpline
 70
8
 71
3
 72
8
 73
4
 74
0
 40
0
 40
0
 40
0
 40
0
 40
1
 40
1
 40
1
 40
1
 10
98.973631
 20
35.139540
 30
0.0
 10
99.689776
 20
35.230680
 30
0.0
 10
100.288735
 20
35.422737
 30
0.0
 10
100.770508
 20
35.715710
 30
0.0
  0
SPLINE
  5
218
100
AcDbEntity
  8
Ebene_1
 62
7
100
AcDbSpline
 70
8
 71
3
 72
8
 73
4
 74
0
 40
0
 40
0
 40
0
 40
0
 40
1
 40
1
 40
1
 40
1
 10
100.770508
 20
35.715710
 30
0.0
 10
101.278321
 20
36.028210
 30
0.0
 10
101.652668
 20
36.496960
 30
0.0
 10
101.893548
 20
37.121960
 30
0.0
  0
SPLINE
  5
219
100
AcDbEntity
  8
Ebene_1
 62
7
100
AcDbSpline
 70
8
 71
3
 72
8
 73
4
 74
0
 40
0
 40
0
 40
0
 40
0
 40
1
 40
1
 40
1
 40
1
 10
101.893548
 20
37.121960
 30
0.0
 10
102.134435
 20
37.733940
 30
0.0
 10
102.254878
 20
38.554253
 30
0.0
 10
102.254878
 20
39.582900
 30
0.0
  0
SPLINE
  5
21a
100
AcDbEntity
  8
Ebene_1
 62
7
100
AcDbSpline
 70
8
 71
3
 72
8
 73
4
 74
0
 40
0
 40
0
 40
0
 40
0
 40
1
 40
1
 40
1
 40
1
 10
102.254878
 20
39.582900
 30
0.0
 10
102.280945
 20
41.418833
 30
0.0
 10
101.887065
 20
42.590707
 30
0.0
 10
101.073238
 20
43.098520
 30
0.0
  0
SPLINE
  5
21b
100
AcDbEntity
  8
Ebene_1
 62
7
100
AcDbSpline
 70
8
 71
3
 72
8
 73
4
 74
0
 40
0
 40
0
 40
0
 40
0
 40
1
 40
1
 40
1
 40
1
 10
101.073238
 20
43.098520
 30
0.0
 10
100.220378
 20
43.580293
 30
0.0
 10
98.654624
 20
43.853730
 30
0.0
 10
96.375975
 20
43.918830
 30
0.0
  0
SPLINE
  5
21c
100
AcDbEntity
  8
Ebene_1
 62
7
100
AcDbSpline
 70
8
 71
3
 72
8
 73
4
 74
0
 40
0
 40
0
 40
0
 40
0
 40
1
 40
1
 40
1
 40
1
 10
96.375975
 20
43.918830
 30
0.0
 10
94.956704
 20
43.970897
 30
0.0
 10
94.041990
 20
44.117383
 30
0.0
 10
93.631834
 20
44.358290
 30
0.0
  0
SPLINE
  5
21d
100
AcDbEntity
  8
Ebene_1
 62
7
100
AcDbSpline
 70
8
 71
3
 72
8
 73
4
 74
0
 40
0
 40
0
 40
0
 40
0
 40
1
 40
1
 40
1
 40
1
 10
93.631834
 20
44.358290
 30
0.0
 10
93.234699
 20
44.573130
 30
0.0
 10
93.049152
 20
45.120003
 30
0.0
 10
93.075193
 20
45.998910
 30
0.0
  0
SPLINE
  5
21e
100
AcDbEntity
  8
Ebene_1
 62
7
100
AcDbSpline
 70
8
 71
3
 72
8
 73
4
 74
0
 40
0
 40
0
 40
0
 40
0
 40
1
 40
1
 40
1
 40
1
 10
93.075193
 20
45.998910
 30
0.0
 10
93.075193
 20
46.396043
 30
0.0
 10
93.120766
 20
46.721563
 30
0.0
 10
93.211912
 20
46.975470
 30
0.0
  0
SPLINE
  5
21f
100
AcDbEntity
  8
Ebene_1
 62
7
100
AcDbSpline
 70
8
 71
3
 72
8
 73
4
 74
0
 40
0
 40
0
 40
0
 40
0
 40
1
 40
1
 40
1
 40
1
 10
93.211912
 20
46.975470
 30
0.0
 10
93.290037
 20
47.229377
 30
0.0
 10
93.443032
 20
47.424690
 30
0.0
 10
93.670896
 20
47.561410
 30
0.0
  0
SPLINE
  5
220
100
AcDbEntity
  8
Ebene_1
 62
7
100
AcDbSpline
 70
8
 71
3
 72
8
 73
4
 74
0
 40
0
 40
0
 40
0
 40
0
 40
1
 40
1
 40
1
 40
1
 10
93.670896
 20
47.561410
 30
0.0
 10
94.113605
 20
47.789277
 30
0.0
 10
95.021808
 20
47.896700
 30
0.0
 10
96.395506
 20
47.883680
 30
0.0
  0
SPLINE
  5
221
100
AcDbEntity
  8
Ebene_1
 62
7
100
AcDbSpline
 70
8
 71
3
 72
8
 73
4
 74
0
 40
0
 40
0
 40
0
 40
0
 40
1
 40
1
 40
1
 40
1
 10
96.395506
 20
47.883680
 30
0.0
 10
97.404621
 20
47.896680
 30
0.0
 10
98.111001
 20
47.821810
 30
0.0
 10
98.514646
 20
47.659070
 30
0.0
  0
SPLINE
  5
222
100
AcDbEntity
  8
Ebene_1
 62
7
100
AcDbSpline
 70
8
 71
3
 72
8
 73
4
 74
0
 40
0
 40
0
 40
0
 40
0
 40
1
 40
1
 40
1
 40
1
 10
98.514646
 20
47.659070
 30
0.0
 10
98.885740
 20
47.470263
 30
0.0
 10
99.071287
 20
46.985237
 30
0.0
 10
99.071287
 20
46.203990
 30
0.0
  0
LWPOLYLINE
  5
223
100
AcDbEntity
  8
Ebene_1
 62
7
100
AcDbPolyline
 90
2
 70
0
 10
90.116209
 20
39.895410
 30
0.0
 10
90.116209
 20
39.202050
 30
0.0
  0
SPLINE
  5
224
100
AcDbEntity
  8
Ebene_1
 62
7
100
AcDbSpline
 70
8
 71
3
 72
8
 73
4
 74
0
 40
0
 40
0
 40
0
 40
0
 40
1
 40
1
 40
1
 40
1
 10
101.952148
 20
46.203990
 30
0.0
 10
101.952148
 20
47.200083
 30
0.0
 10
101.812175
 20
47.971567
 30
0.0
 10
101.532228
 20
48.518440
 30
0.0
  0
SPLINE
  5
225
100
AcDbEntity
  8
Ebene_1
 62
7
100
AcDbSpline
 70
8
 71
3
 72
8
 73
4
 74
0
 40
0
 40
0
 40
0
 40
0
 40
1
 40
1
 40
1
 40
1
 10
101.532228
 20
48.518440
 30
0.0
 10
101.239255
 20
49.065313
 30
0.0
 10
100.838861
 20
49.465703
 30
0.0
 10
100.331048
 20
49.719610
 30
0.0
  0
SPLINE
  5
226
100
AcDbEntity
  8
Ebene_1
 62
7
100
AcDbSpline
 70
8
 71
3
 72
8
 73
4
 74
0
 40
0
 40
0
 40
0
 40
0
 40
1
 40
1
 40
1
 40
1
 10
100.331048
 20
49.719610
 30
0.0
 10
99.823239
 20
49.973517
 30
0.0
 10
99.237303
 20
50.126513
 30
0.0
 10
98.573240
 20
50.178600
 30
0.0
  0
SPLINE
  5
227
100
AcDbEntity
  8
Ebene_1
 62
7
100
AcDbSpline
 70
8
 71
3
 72
8
 73
4
 74
0
 40
0
 40
0
 40
0
 40
0
 40
1
 40
1
 40
1
 40
1
 10
98.573240
 20
50.178600
 30
0.0
 10
97.902667
 20
50.217667
 30
0.0
 10
97.176756
 20
50.237200
 30
0.0
 10
96.395506
 20
50.237200
 30
0.0
  0
SPLINE
  5
228
100
AcDbEntity
  8
Ebene_1
 62
7
100
AcDbSpline
 70
8
 71
3
 72
8
 73
4
 74
0
 40
0
 40
0
 40
0
 40
0
 40
1
 40
1
 40
1
 40
1
 10
96.395506
 20
50.237200
 30
0.0
 10
95.497069
 20
50.237200
 30
0.0
 10
94.676756
 20
50.217667
 30
0.0
 10
93.934568
 20
50.178600
 30
0.0
  0
SPLINE
  5
229
100
AcDbEntity
  8
Ebene_1
 62
7
100
AcDbSpline
 70
8
 71
3
 72
8
 73
4
 74
0
 40
0
 40
0
 40
0
 40
0
 40
1
 40
1
 40
1
 40
1
 10
93.934568
 20
50.178600
 30
0.0
 10
93.172849
 20
50.113467
 30
0.0
 10
92.512042
 20
49.947450
 30
0.0
 10
91.952146
 20
49.680550
 30
0.0
  0
SPLINE
  5
22a
100
AcDbEntity
  8
Ebene_1
 62
7
100
AcDbSpline
 70
8
 71
3
 72
8
 73
4
 74
0
 40
0
 40
0
 40
0
 40
0
 40
1
 40
1
 40
1
 40
1
 10
91.952146
 20
49.680550
 30
0.0
 10
91.405271
 20
49.413623
 30
0.0
 10
90.978839
 20
48.993703
 30
0.0
 10
90.672850
 20
48.420790
 30
0.0
  0
SPLINE
  5
22b
100
AcDbEntity
  8
Ebene_1
 62
7
100
AcDbSpline
 70
8
 71
3
 72
8
 73
4
 74
0
 40
0
 40
0
 40
0
 40
0
 40
1
 40
1
 40
1
 40
1
 10
90.672850
 20
48.420790
 30
0.0
 10
90.353839
 20
47.834850
 30
0.0
 10
90.194334
 20
47.027557
 30
0.0
 10
90.194334
 20
45.998910
 30
0.0
  0
SPLINE
  5
22c
100
AcDbEntity
  8
Ebene_1
 62
7
100
AcDbSpline
 70
8
 71
3
 72
8
 73
4
 74
0
 40
0
 40
0
 40
0
 40
0
 40
1
 40
1
 40
1
 40
1
 10
90.194334
 20
45.998910
 30
0.0
 10
90.194334
 20
44.931203
 30
0.0
 10
90.347329
 20
44.104380
 30
0.0
 10
90.653318
 20
43.518440
 30
0.0
  0
SPLINE
  5
22d
100
AcDbEntity
  8
Ebene_1
 62
7
100
AcDbSpline
 70
8
 71
3
 72
8
 73
4
 74
0
 40
0
 40
0
 40
0
 40
0
 40
1
 40
1
 40
1
 40
1
 10
90.653318
 20
43.518440
 30
0.0
 10
90.959308
 20
42.919480
 30
0.0
 10
91.372720
 20
42.486537
 30
0.0
 10
91.893553
 20
42.219610
 30
0.0
  0
SPLINE
  5
22e
100
AcDbEntity
  8
Ebene_1
 62
7
100
AcDbSpline
 70
8
 71
3
 72
8
 73
4
 74
0
 40
0
 40
0
 40
0
 40
0
 40
1
 40
1
 40
1
 40
1
 10
91.893553
 20
42.219610
 30
0.0
 10
92.414386
 20
41.965703
 30
0.0
 10
93.026365
 20
41.806200
 30
0.0
 10
93.729490
 20
41.741100
 30
0.0
  0
SPLINE
  5
22f
100
AcDbEntity
  8
Ebene_1
 62
7
100
AcDbSpline
 70
8
 71
3
 72
8
 73
4
 74
0
 40
0
 40
0
 40
0
 40
0
 40
1
 40
1
 40
1
 40
1
 10
93.729490
 20
41.741100
 30
0.0
 10
94.439125
 20
41.675967
 30
0.0
 10
95.194334
 20
41.614117
 30
0.0
 10
95.995115
 20
41.555550
 30
0.0
  0
SPLINE
  5
230
100
AcDbEntity
  8
Ebene_1
 62
7
100
AcDbSpline
 70
8
 71
3
 72
8
 73
4
 74
0
 40
0
 40
0
 40
0
 40
0
 40
1
 40
1
 40
1
 40
1
 10
95.995115
 20
41.555550
 30
0.0
 10
96.555011
 20
41.542550
 30
0.0
 10
97.053058
 20
41.529517
 30
0.0
 10
97.489256
 20
41.516450
 30
0.0
  0
SPLINE
  5
231
100
AcDbEntity
  8
Ebene_1
 62
7
100
AcDbSpline
 70
8
 71
3
 72
8
 73
4
 74
0
 40
0
 40
0
 40
0
 40
0
 40
1
 40
1
 40
1
 40
1
 10
97.489256
 20
41.516450
 30
0.0
 10
97.905923
 20
41.490383
 30
0.0
 10
98.254230
 20
41.431790
 30
0.0
 10
98.534178
 20
41.340670
 30
0.0
  0
SPLINE
  5
232
100
AcDbEntity
  8
Ebene_1
 62
7
100
AcDbSpline
 70
8
 71
3
 72
8
 73
4
 74
0
 40
0
 40
0
 40
0
 40
0
 40
1
 40
1
 40
1
 40
1
 10
98.534178
 20
41.340670
 30
0.0
 10
98.814126
 20
41.249523
 30
0.0
 10
99.025714
 20
41.070487
 30
0.0
 10
99.168943
 20
40.803560
 30
0.0
  0
SPLINE
  5
233
100
AcDbEntity
  8
Ebene_1
 62
7
100
AcDbSpline
 70
8
 71
3
 72
8
 73
4
 74
0
 40
0
 40
0
 40
0
 40
0
 40
1
 40
1
 40
1
 40
1
 10
99.168943
 20
40.803560
 30
0.0
 10
99.305662
 20
40.523613
 30
0.0
 10
99.374021
 20
40.116713
 30
0.0
 10
99.374021
 20
39.582860
 30
0.0
  0
SPLINE
  5
234
100
AcDbEntity
  8
Ebene_1
 62
7
100
AcDbSpline
 70
8
 71
3
 72
8
 73
4
 74
0
 40
0
 40
0
 40
0
 40
0
 40
1
 40
1
 40
1
 40
1
 10
99.374021
 20
39.582860
 30
0.0
 10
99.387041
 20
38.743013
 30
0.0
 10
99.221026
 20
38.153820
 30
0.0
 10
98.875975
 20
37.815280
 30
0.0
  0
SPLINE
  5
235
100
AcDbEntity
  8
Ebene_1
 62
7
100
AcDbSpline
 70
8
 71
3
 72
8
 73
4
 74
0
 40
0
 40
0
 40
0
 40
0
 40
1
 40
1
 40
1
 40
1
 10
98.875975
 20
37.815280
 30
0.0
 10
98.498370
 20
37.496267
 30
0.0
 10
97.671547
 20
37.343270
 30
0.0
 10
96.395506
 20
37.356290
 30
0.0
  0
SPLINE
  5
236
100
AcDbEntity
  8
Ebene_1
 62
7
100
AcDbSpline
 70
8
 71
3
 72
8
 73
4
 74
0
 40
0
 40
0
 40
0
 40
0
 40
1
 40
1
 40
1
 40
1
 10
96.395506
 20
37.356290
 30
0.0
 10
95.099933
 20
37.343290
 30
0.0
 10
94.204750
 20
37.437693
 30
0.0
 10
93.709959
 20
37.639500
 30
0.0
  0
SPLINE
  5
237
100
AcDbEntity
  8
Ebene_1
 62
7
100
AcDbSpline
 70
8
 71
3
 72
8
 73
4
 74
0
 40
0
 40
0
 40
0
 40
0
 40
1
 40
1
 40
1
 40
1
 10
93.709959
 20
37.639500
 30
0.0
 10
93.215167
 20
37.854340
 30
0.0
 10
92.974282
 20
38.375173
 30
0.0
 10
92.987303
 20
39.202000
 30
0.0
  0
LWPOLYLINE
  5
238
100
AcDbEntity
  8
Ebene_1
 62
7
100
AcDbPolyline
 90
4
 70
0
 10
99.071287
 20
46.203990
 30
0.0
 10
99.071287
 20
45.715710
 30
0.0
 10
101.952148
 20
45.715710
 30
0.0
 10
101.952148
 20
46.203990
 30
0.0
  0
LWPOLYLINE
  5
239
100
AcDbEntity
  8
Ebene_1
 62
7
100
AcDbPolyline
 90
3
 70
0
 10
92.987303
 20
39.202000
 30
0.0
 10
92.987303
 20
39.895360
 30
0.0
 10
90.116209
 20
39.895410
 30
0.0
  0
LWPOLYLINE
  5
23a
100
AcDbEntity
  8
Ebene_1
 62
7
100
AcDbPolyline
 90
8
 70
1
 10
111.286438
 20
47.659080
 30
0.0
 10
115.680968
 20
47.659080
 30
0.0
 10
115.680968
 20
50.120010
 30
0.0
 10
104.001278
 20
50.120010
 30
0.0
 10
104.001278
 20
47.659080
 30
0.0
 10
108.405578
 20
47.659080
 30
0.0
 10
108.405578
 20
35.120010
 30
0.0
 10
111.286438
 20
35.120010
 30
0.0
  0
LWPOLYLINE
  5
23b
100
AcDbEntity
  8
Ebene_1
 62
7
100
AcDbPolyline
 90
8
 70
1
 10
127.095338
 20
37.961810
 30
0.0
 10
128.071898
 20
35.120010
 30
0.0
 10
130.991818
 20
35.120010
 30
0.0
 10
125.913698
 20
50.120010
 30
0.0
 10
121.675418
 20
50.120010
 30
0.0
 10
116.694948
 20
35.120010
 30
0.0
 10
119.673458
 20
35.120010
 30
0.0
 10
120.610958
 20
37.961810
 30
0.0
  0
LWPOLYLINE
  5
23c
100
AcDbEntity
  8
Ebene_1
 62
7
100
AcDbPolyline
 90
4
 70
1
 10
126.450808
 20
40.139550
 30
0.0
 10
121.275018
 20
40.139550
 30
0.0
 10
123.833618
 20
47.922750
 30
0.0
 10
123.872718
 20
47.922750
 30
0.0
  0
LWPOLYLINE
  5
23d
100
AcDbEntity
  8
Ebene_1
 62
7
100
AcDbPolyline
 90
12
 70
1
 10
144.564388
 20
37.580950
 30
0.0
 10
144.486288
 20
37.580950
 30
0.0
 10
138.070268
 20
50.120010
 30
0.0
 10
133.304648
 20
50.120010
 30
0.0
 10
133.304648
 20
35.120010
 30
0.0
 10
136.185508
 20
35.120010
 30
0.0
 10
135.941368
 20
47.659080
 30
0.0
 10
136.048788
 20
47.659080
 30
0.0
 10
142.425738
 20
35.120010
 30
0.0
 10
147.201128
 20
35.120010
 30
0.0
 10
147.201128
 20
50.120010
 30
0.0
 10
144.330038
 20
50.120010
 30
0.0
  0
LWPOLYLINE
  5
23e
100
AcDbEntity
  8
Ebene_1
 62
7
100
AcDbPolyline
 90
8
 70
1
 10
156.906488
 20
47.659080
 30
0.0
 10
161.301028
 20
47.659080
 30
0.0
 10
161.301028
 20
50.120010
 30
0.0
 10
149.621338
 20
50.120010
 30
0.0
 10
149.621338
 20
47.659080
 30
0.0
 10
154.025628
 20
47.659080
 30
0.0
 10
154.025628
 20
35.120010
 30
0.0
 10
156.906488
 20
35.120010
 30
0.0
  0
ENDSEC
  0
SECTION
  2
OBJECTS
  0
DICTIONARY
  5
C
330
0
100
AcDbDictionary
  3
ACAD_GROUP
350
D
  3
ACAD_MLINESTYLE
350
17
  0
DICTIONARY
  5
D
330
C
100
AcDbDictionary
  0
DICTIONARY
  5
1A
330
C
100
AcDbDictionary
  0
DICTIONARY
  5
17
330
C
100
AcDbDictionary
  3
STANDARD
350
18
  0
DICTIONARY
  5
19
330
C
100
AcDbDictionary
  0
ENDSEC
  0
EOF
