999
"DXF R12 Output" (www.mydxf.blogspot.com)
 0 
SECTION
 2 
HEADER
 9 
$ACADVER
 1 
AC1009
 9 
$EXTMIN
 10 
 0 
 20 
 0 
 9 
$EXTMAX
 10 
 8.5 
 20 
 11 
 0 
ENDSEC
 0 
SECTION
 2 
ENTITIES
0
LINE
8
Ebene 1
10
27.407400
20
22.331300
11
27.373573
21
22.365127
0
LINE
8
Ebene 1
10
27.373573
20
22.365127
11
27.407400
21
22.331300
0
LINE
8
Ebene 1
10
27.407400
20
22.331300
11
11.579800
21
22.331300
0
LINE
8
Ebene 1
10
11.579800
20
22.331300
11
10.956250
21
22.590230
0
LINE
8
Ebene 1
10
10.956250
20
22.590230
11
10.700488
21
23.210611
0
LINE
8
Ebene 1
10
10.700488
20
23.210611
11
10.700500
21
38.345000
0
LINE
8
Ebene 1
10
10.700500
20
38.345000
11
6.743580
21
38.345000
0
LINE
8
Ebene 1
10
6.743580
20
38.345000
11
6.332328
21
38.428096
0
LINE
8
Ebene 1
10
6.332328
20
38.428096
11
5.996379
21
38.654660
0
LINE
8
Ebene 1
10
5.996379
20
38.654660
11
5.769815
21
38.990610
0
LINE
8
Ebene 1
10
5.769815
20
38.990610
11
5.686720
21
39.401860
0
LINE
8
Ebene 1
10
5.686720
20
39.401860
11
5.765985
21
39.805583
0
LINE
8
Ebene 1
10
5.765985
20
39.805583
11
5.991097
21
40.145893
0
LINE
8
Ebene 1
10
5.991097
20
40.145893
11
27.272100
21
61.680500
0
LINE
8
Ebene 1
10
27.272100
20
61.680500
11
27.709246
21
61.975497
0
LINE
8
Ebene 1
10
27.709246
20
61.975497
11
28.207424
21
62.074711
0
LINE
8
Ebene 1
10
28.207424
20
62.074711
11
28.707187
21
61.978932
0
LINE
8
Ebene 1
10
28.707187
20
61.978932
11
29.149090
21
61.688955
0
LINE
8
Ebene 1
10
29.149090
20
61.688955
11
29.157557
21
61.680500
0
LINE
8
Ebene 1
10
29.157557
20
61.680500
11
40.275757
21
50.494600
0
LINE
8
Ebene 1
10
40.275757
20
50.494600
11
40.275800
21
52.566100
0
LINE
8
Ebene 1
10
40.275800
20
52.566100
11
40.534731
21
53.189650
0
LINE
8
Ebene 1
10
40.534731
20
53.189650
11
41.155111
21
53.445412
0
LINE
8
Ebene 1
10
41.155111
20
53.445412
11
44.849900
21
53.445400
0
LINE
8
Ebene 1
10
44.849900
20
53.445400
11
45.473450
21
53.186468
0
LINE
8
Ebene 1
10
45.473450
20
53.186468
11
45.729213
21
52.566088
0
LINE
8
Ebene 1
10
45.729213
20
52.566088
11
45.729200
21
44.965200
0
LINE
8
Ebene 1
10
45.729200
20
44.965200
11
50.455500
21
40.145890
0
LINE
8
Ebene 1
10
50.455500
20
40.145890
11
50.683520
21
39.794352
0
LINE
8
Ebene 1
10
50.683520
20
39.794352
11
50.757769
21
39.394462
0
LINE
8
Ebene 1
10
50.757769
20
39.394462
11
50.676664
21
38.996156
0
LINE
8
Ebene 1
10
50.676664
20
38.996156
11
50.438623
21
38.649370
0
LINE
8
Ebene 1
10
50.438623
20
38.649370
11
50.098314
21
38.424259
0
LINE
8
Ebene 1
10
50.098314
20
38.424259
11
49.694590
21
38.344994
0
LINE
8
Ebene 1
10
49.694590
20
38.344994
11
45.729300
21
38.345000
0
LINE
8
Ebene 1
10
45.729300
20
38.345000
11
45.729300
21
23.219100
0
LINE
8
Ebene 1
10
45.729300
20
23.219100
11
45.470367
21
22.595548
0
LINE
8
Ebene 1
10
45.470367
20
22.595548
11
44.849989
21
22.339787
0
LINE
8
Ebene 1
10
44.849989
20
22.339787
11
29.013900
21
22.339800
0
LINE
8
Ebene 1
10
29.013900
20
22.339800
11
29.030777
21
22.356677
0
LINE
8
Ebene 1
10
29.391189
20
22.704228
11
29.391100
21
22.704200
0
LINE
8
Ebene 1
10
29.391100
20
22.704200
11
32.311230
21
25.628740
0
LINE
8
Ebene 1
10
32.311230
20
25.628740
11
35.355000
21
25.628800
0
LINE
8
Ebene 1
10
35.355000
20
25.628800
11
35.601250
21
25.173556
0
LINE
8
Ebene 1
10
35.601250
20
25.173556
11
35.967983
21
24.815014
0
LINE
8
Ebene 1
10
35.967983
20
24.815014
11
36.429835
21
24.580125
0
LINE
8
Ebene 1
10
36.429835
20
24.580125
11
36.961440
21
24.495840
0
LINE
8
Ebene 1
10
36.961440
20
24.495840
11
37.624225
21
24.629401
0
LINE
8
Ebene 1
10
37.624225
20
24.629401
11
38.167320
21
24.993623
0
LINE
8
Ebene 1
10
38.167320
20
24.993623
11
38.534448
21
25.533813
0
LINE
8
Ebene 1
10
38.534448
20
25.533813
11
38.669330
21
26.195280
0
LINE
8
Ebene 1
10
38.669330
20
26.195280
11
38.535637
21
26.856746
0
LINE
8
Ebene 1
10
38.535637
20
26.856746
11
38.170491
21
27.396937
0
LINE
8
Ebene 1
10
38.170491
20
27.396937
11
37.627792
21
27.761159
0
LINE
8
Ebene 1
10
37.627792
20
27.761159
11
36.961440
21
27.894720
0
LINE
8
Ebene 1
10
36.961440
20
27.894720
11
36.428648
21
27.810435
0
LINE
8
Ebene 1
10
36.428648
20
27.810435
11
35.964816
21
27.575548
0
LINE
8
Ebene 1
10
35.964816
20
27.575548
11
35.597686
21
27.217006
0
LINE
8
Ebene 1
10
35.597686
20
27.217006
11
35.355000
21
26.761760
0
LINE
8
Ebene 1
10
35.355000
20
26.761760
11
31.837800
21
26.761700
0
LINE
8
Ebene 1
10
31.837800
20
26.761700
11
28.777120
21
23.701020
0
LINE
8
Ebene 1
10
28.777120
20
23.701020
11
28.777100
21
27.429700
0
LINE
8
Ebene 1
10
28.777100
20
27.429700
11
32.421170
21
31.073770
0
LINE
8
Ebene 1
10
32.421170
20
31.073770
11
38.314300
21
31.073700
0
LINE
8
Ebene 1
10
38.314300
20
31.073700
11
38.560550
21
30.618455
0
LINE
8
Ebene 1
10
38.560550
20
30.618455
11
38.927283
21
30.259913
0
LINE
8
Ebene 1
10
38.927283
20
30.259913
11
39.389135
21
30.025025
0
LINE
8
Ebene 1
10
39.389135
20
30.025025
11
39.920740
21
29.940740
0
LINE
8
Ebene 1
10
39.920740
20
29.940740
11
40.583528
21
30.074301
0
LINE
8
Ebene 1
10
40.583528
20
30.074301
11
41.126627
21
30.438523
0
LINE
8
Ebene 1
10
41.126627
20
30.438523
11
41.493757
21
30.978713
0
LINE
8
Ebene 1
10
41.493757
20
30.978713
11
41.628640
21
31.640180
0
LINE
8
Ebene 1
10
41.628640
20
31.640180
11
41.494946
21
32.301644
0
LINE
8
Ebene 1
10
41.494946
20
32.301644
11
41.129797
21
32.841835
0
LINE
8
Ebene 1
10
41.129797
20
32.841835
11
40.587095
21
33.206058
0
LINE
8
Ebene 1
10
40.587095
20
33.206058
11
39.920740
21
33.339620
0
LINE
8
Ebene 1
10
39.920740
20
33.339620
11
39.387948
21
33.255335
0
LINE
8
Ebene 1
10
39.387948
20
33.255335
11
38.924116
21
33.020448
0
LINE
8
Ebene 1
10
38.924116
20
33.020448
11
38.556986
21
32.661909
0
LINE
8
Ebene 1
10
38.556986
20
32.661909
11
38.314300
21
32.206670
0
LINE
8
Ebene 1
10
38.314300
20
32.206670
11
33.562600
21
32.206700
0
LINE
8
Ebene 1
10
33.562600
20
32.206700
11
36.969930
21
35.605580
0
LINE
8
Ebene 1
10
36.969930
20
35.605580
11
36.969900
21
38.446400
0
LINE
8
Ebene 1
10
36.969900
20
38.446400
11
39.421830
21
40.889870
0
LINE
8
Ebene 1
10
39.421830
20
40.889870
11
40.157408
21
40.720768
0
LINE
8
Ebene 1
10
40.157408
20
40.720768
11
40.820195
21
40.854330
0
LINE
8
Ebene 1
10
40.820195
20
40.854330
11
41.363294
21
41.218553
0
LINE
8
Ebene 1
10
41.363294
20
41.218553
11
41.730424
21
41.758744
0
LINE
8
Ebene 1
10
41.730424
20
41.758744
11
41.865308
21
42.420208
0
LINE
8
Ebene 1
10
41.865308
20
42.420208
11
41.731614
21
43.081673
0
LINE
8
Ebene 1
10
41.731614
20
43.081673
11
41.366467
21
43.621864
0
LINE
8
Ebene 1
10
41.366467
20
43.621864
11
40.823764
21
43.986086
0
LINE
8
Ebene 1
10
40.823764
20
43.986086
11
40.157408
21
44.119648
0
LINE
8
Ebene 1
10
40.157408
20
44.119648
11
39.494621
21
43.986087
0
LINE
8
Ebene 1
10
39.494621
20
43.986087
11
38.951526
21
43.621865
0
LINE
8
Ebene 1
10
38.951526
20
43.621865
11
38.584400
21
43.081674
0
LINE
8
Ebene 1
10
38.584400
20
43.081674
11
38.449518
21
42.420208
0
LINE
8
Ebene 1
10
38.449518
20
42.420208
11
38.618617
21
41.684630
0
LINE
8
Ebene 1
10
38.618617
20
41.684630
11
36.969907
21
40.044380
0
LINE
8
Ebene 1
10
36.969907
20
40.044380
11
36.969900
21
45.244200
0
LINE
8
Ebene 1
10
36.969900
20
45.244200
11
37.426467
21
45.490449
0
LINE
8
Ebene 1
10
37.426467
20
45.490449
11
37.787917
21
45.857182
0
LINE
8
Ebene 1
10
37.787917
20
45.857182
11
38.025713
21
46.319034
0
LINE
8
Ebene 1
10
38.025713
20
46.319034
11
38.111320
21
46.850640
0
LINE
8
Ebene 1
10
38.111320
20
46.850640
11
37.977626
21
47.512105
0
LINE
8
Ebene 1
10
37.977626
20
47.512105
11
37.612477
21
48.052296
0
LINE
8
Ebene 1
10
37.612477
20
48.052296
11
37.069775
21
48.416518
0
LINE
8
Ebene 1
10
37.069775
20
48.416518
11
36.403420
21
48.550080
0
LINE
8
Ebene 1
10
36.403420
20
48.550080
11
35.740635
21
48.416519
0
LINE
8
Ebene 1
10
35.740635
20
48.416519
11
35.197540
21
48.052297
0
LINE
8
Ebene 1
10
35.197540
20
48.052297
11
34.830412
21
47.512106
0
LINE
8
Ebene 1
10
34.830412
20
47.512106
11
34.695530
21
46.850640
0
LINE
8
Ebene 1
10
34.695530
20
46.850640
11
34.779947
21
46.319036
0
LINE
8
Ebene 1
10
34.779947
20
46.319036
11
35.015759
21
45.857185
0
LINE
8
Ebene 1
10
35.015759
20
45.857185
11
35.376810
21
45.490451
0
LINE
8
Ebene 1
10
35.376810
20
45.490451
11
35.836940
21
45.244200
0
LINE
8
Ebene 1
10
35.836940
20
45.244200
11
35.837000
21
40.044400
0
LINE
8
Ebene 1
10
35.837000
20
40.044400
11
34.188290
21
41.693110
0
LINE
8
Ebene 1
10
34.188290
20
41.693110
11
34.357389
21
42.428688
0
LINE
8
Ebene 1
10
34.357389
20
42.428688
11
34.223695
21
43.090153
0
LINE
8
Ebene 1
10
34.223695
20
43.090153
11
33.858549
21
43.630344
0
LINE
8
Ebene 1
10
33.858549
20
43.630344
11
33.315850
21
43.994566
0
LINE
8
Ebene 1
10
33.315850
20
43.994566
11
32.649499
21
44.128128
0
LINE
8
Ebene 1
10
32.649499
20
44.128128
11
31.983145
21
43.994567
0
LINE
8
Ebene 1
10
31.983145
20
43.994567
11
31.440446
21
43.630345
0
LINE
8
Ebene 1
10
31.440446
20
43.630345
11
31.075301
21
43.090154
0
LINE
8
Ebene 1
10
31.075301
20
43.090154
11
30.941609
21
42.428688
0
LINE
8
Ebene 1
10
30.941609
20
42.428688
11
31.075302
21
41.767221
0
LINE
8
Ebene 1
10
31.075302
20
41.767221
11
31.440448
21
41.227031
0
LINE
8
Ebene 1
10
31.440448
20
41.227031
11
31.983147
21
40.862809
0
LINE
8
Ebene 1
10
31.983147
20
40.862809
11
32.649499
21
40.729248
0
LINE
8
Ebene 1
10
32.649499
20
40.729248
11
33.385080
21
40.898346
0
LINE
8
Ebene 1
10
33.385080
20
40.898346
11
35.837000
21
38.454876
0
LINE
8
Ebene 1
10
35.837000
20
38.454876
11
35.837000
21
36.087500
0
LINE
8
Ebene 1
10
35.837000
20
36.087500
11
32.767870
21
33.018360
0
LINE
8
Ebene 1
10
32.767870
20
33.018360
11
32.767800
21
35.267400
0
LINE
8
Ebene 1
10
32.767800
20
35.267400
11
33.224366
21
35.513652
0
LINE
8
Ebene 1
10
33.224366
20
35.513652
11
33.585812
21
35.880386
0
LINE
8
Ebene 1
10
33.585812
20
35.880386
11
33.823605
21
36.342236
0
LINE
8
Ebene 1
10
33.823605
20
36.342236
11
33.909210
21
36.873840
0
LINE
8
Ebene 1
10
33.909210
20
36.873840
11
33.775516
21
37.535306
0
LINE
8
Ebene 1
10
33.775516
20
37.535306
11
33.410370
21
38.075496
0
LINE
8
Ebene 1
10
33.410370
20
38.075496
11
32.867671
21
38.439719
0
LINE
8
Ebene 1
10
32.867671
20
38.439719
11
32.201320
21
38.573280
0
LINE
8
Ebene 1
10
32.201320
20
38.573280
11
31.538533
21
38.439719
0
LINE
8
Ebene 1
10
31.538533
20
38.439719
11
30.995438
21
38.075497
0
LINE
8
Ebene 1
10
30.995438
20
38.075497
11
30.628312
21
37.535306
0
LINE
8
Ebene 1
10
30.628312
20
37.535306
11
30.493430
21
36.873840
0
LINE
8
Ebene 1
10
30.493430
20
36.873840
11
30.577847
21
36.342237
0
LINE
8
Ebene 1
10
30.577847
20
36.342237
11
30.813659
21
35.880386
0
LINE
8
Ebene 1
10
30.813659
20
35.880386
11
31.174709
21
35.513652
0
LINE
8
Ebene 1
10
31.174709
20
35.513652
11
31.634840
21
35.267400
0
LINE
8
Ebene 1
10
31.634840
20
35.267400
11
31.634900
21
31.885400
0
LINE
8
Ebene 1
10
31.634900
20
31.885400
11
28.794040
21
29.044550
0
LINE
8
Ebene 1
10
28.794040
20
29.044550
11
28.794000
21
45.717600
0
LINE
8
Ebene 1
10
28.794000
20
45.717600
11
31.127560
21
48.051160
0
LINE
8
Ebene 1
10
31.127560
20
48.051160
11
31.863138
21
47.882062
0
LINE
8
Ebene 1
10
31.863138
20
47.882062
11
32.525927
21
48.015623
0
LINE
8
Ebene 1
10
32.525927
20
48.015623
11
33.069026
21
48.379845
0
LINE
8
Ebene 1
10
33.069026
20
48.379845
11
33.436155
21
48.920036
0
LINE
8
Ebene 1
10
33.436155
20
48.920036
11
33.571038
21
49.581502
0
LINE
8
Ebene 1
10
33.571038
20
49.581502
11
33.437344
21
50.242969
0
LINE
8
Ebene 1
10
33.437344
20
50.242969
11
33.072197
21
50.783159
0
LINE
8
Ebene 1
10
33.072197
20
50.783159
11
32.529494
21
51.147381
0
LINE
8
Ebene 1
10
32.529494
20
51.147381
11
31.863138
21
51.280942
0
LINE
8
Ebene 1
10
31.863138
20
51.280942
11
31.200353
21
51.147381
0
LINE
8
Ebene 1
10
31.200353
20
51.147381
11
30.657257
21
50.783159
0
LINE
8
Ebene 1
10
30.657257
20
50.783159
11
30.290130
21
50.242968
0
LINE
8
Ebene 1
10
30.290130
20
50.242968
11
30.155248
21
49.581502
0
LINE
8
Ebene 1
10
30.155248
20
49.581502
11
30.324347
21
48.845924
0
LINE
8
Ebene 1
10
30.324347
20
48.845924
11
28.227527
21
46.749104
0
LINE
8
Ebene 1
10
28.227527
20
46.749104
11
26.130707
21
48.845924
0
LINE
8
Ebene 1
10
26.130707
20
48.845924
11
26.299805
21
49.581502
0
LINE
8
Ebene 1
10
26.299805
20
49.581502
11
26.166112
21
50.242969
0
LINE
8
Ebene 1
10
26.166112
20
50.242969
11
25.800964
21
50.783159
0
LINE
8
Ebene 1
10
25.800964
20
50.783159
11
25.258262
21
51.147381
0
LINE
8
Ebene 1
10
25.258262
20
51.147381
11
24.591905
21
51.280942
0
LINE
8
Ebene 1
10
24.591905
20
51.280942
11
23.929120
21
51.147381
0
LINE
8
Ebene 1
10
23.929120
20
51.147381
11
23.386024
21
50.783159
0
LINE
8
Ebene 1
10
23.386024
20
50.783159
11
23.018897
21
50.242968
0
LINE
8
Ebene 1
10
23.018897
20
50.242968
11
22.884015
21
49.581502
0
LINE
8
Ebene 1
10
22.884015
20
49.581502
11
23.017708
21
48.920037
0
LINE
8
Ebene 1
10
23.017708
20
48.920037
11
23.382855
21
48.379846
0
LINE
8
Ebene 1
10
23.382855
20
48.379846
11
23.925554
21
48.015624
0
LINE
8
Ebene 1
10
23.925554
20
48.015624
11
24.591905
21
47.882062
0
LINE
8
Ebene 1
10
24.591905
20
47.882062
11
25.327483
21
48.051160
0
LINE
8
Ebene 1
10
25.327483
20
48.051160
11
27.661043
21
45.717600
0
LINE
8
Ebene 1
10
27.661043
20
45.717600
11
27.661100
21
33.813100
0
LINE
8
Ebene 1
10
27.661100
20
33.813100
11
23.568900
21
37.896800
0
LINE
8
Ebene 1
10
23.568900
20
37.896800
11
23.568900
21
41.160400
0
LINE
8
Ebene 1
10
23.568900
20
41.160400
11
24.025468
21
41.406650
0
LINE
8
Ebene 1
10
24.025468
20
41.406650
11
24.386917
21
41.773383
0
LINE
8
Ebene 1
10
24.386917
20
41.773383
11
24.624713
21
42.235235
0
LINE
8
Ebene 1
10
24.624713
20
42.235235
11
24.710320
21
42.766840
0
LINE
8
Ebene 1
10
24.710320
20
42.766840
11
24.576627
21
43.428305
0
LINE
8
Ebene 1
10
24.576627
20
43.428305
11
24.211479
21
43.968496
0
LINE
8
Ebene 1
10
24.211479
20
43.968496
11
23.668777
21
44.332718
0
LINE
8
Ebene 1
10
23.668777
20
44.332718
11
23.002420
21
44.466280
0
LINE
8
Ebene 1
10
23.002420
20
44.466280
11
22.339635
21
44.332718
0
LINE
8
Ebene 1
10
22.339635
20
44.332718
11
21.796539
21
43.968495
0
LINE
8
Ebene 1
10
21.796539
20
43.968495
11
21.429412
21
43.428305
0
LINE
8
Ebene 1
10
21.429412
20
43.428305
11
21.294530
21
42.766840
0
LINE
8
Ebene 1
10
21.294530
20
42.766840
11
21.378947
21
42.235236
0
LINE
8
Ebene 1
10
21.378947
20
42.235236
11
21.614759
21
41.773385
0
LINE
8
Ebene 1
10
21.614759
20
41.773385
11
21.975810
21
41.406651
0
LINE
8
Ebene 1
10
21.975810
20
41.406651
11
22.435940
21
41.160400
0
LINE
8
Ebene 1
10
22.435940
20
41.160400
11
22.435900
21
39.029800
0
LINE
8
Ebene 1
10
22.435900
20
39.029800
11
19.248400
21
42.208900
0
LINE
8
Ebene 1
10
19.248400
20
42.208900
11
19.248400
21
45.362500
0
LINE
8
Ebene 1
10
19.248400
20
45.362500
11
19.704966
21
45.608749
0
LINE
8
Ebene 1
10
19.704966
20
45.608749
11
20.066416
21
45.975482
0
LINE
8
Ebene 1
10
20.066416
20
45.975482
11
20.304213
21
46.437334
0
LINE
8
Ebene 1
10
20.304213
20
46.437334
11
20.389820
21
46.968940
0
LINE
8
Ebene 1
10
20.389820
20
46.968940
11
20.256126
21
47.630405
0
LINE
8
Ebene 1
10
20.256126
20
47.630405
11
19.890978
21
48.170596
0
LINE
8
Ebene 1
10
19.890978
20
48.170596
11
19.348276
21
48.534818
0
LINE
8
Ebene 1
10
19.348276
20
48.534818
11
18.681920
21
48.668380
0
LINE
8
Ebene 1
10
18.681920
20
48.668380
11
18.019135
21
48.534819
0
LINE
8
Ebene 1
10
18.019135
20
48.534819
11
17.476039
21
48.170597
0
LINE
8
Ebene 1
10
17.476039
20
48.170597
11
17.108912
21
47.630406
0
LINE
8
Ebene 1
10
17.108912
20
47.630406
11
16.974030
21
46.968940
0
LINE
8
Ebene 1
10
16.974030
20
46.968940
11
17.058447
21
46.437336
0
LINE
8
Ebene 1
10
17.058447
20
46.437336
11
17.294259
21
45.975485
0
LINE
8
Ebene 1
10
17.294259
20
45.975485
11
17.655310
21
45.608751
0
LINE
8
Ebene 1
10
17.655310
20
45.608751
11
18.115440
21
45.362500
0
LINE
8
Ebene 1
10
18.115440
20
45.362500
11
18.115500
21
41.735400
0
LINE
8
Ebene 1
10
18.115500
20
41.735400
11
21.632750
21
38.226610
0
LINE
8
Ebene 1
10
21.632750
20
38.226610
11
19.612000
21
38.226600
0
LINE
8
Ebene 1
10
19.612000
20
38.226600
11
19.365750
21
38.681846
0
LINE
8
Ebene 1
10
19.365750
20
38.681846
11
18.999017
21
39.040387
0
LINE
8
Ebene 1
10
18.999017
20
39.040387
11
18.537165
21
39.275275
0
LINE
8
Ebene 1
10
18.537165
20
39.275275
11
18.005560
21
39.359560
0
LINE
8
Ebene 1
10
18.005560
20
39.359560
11
17.342771
21
39.225999
0
LINE
8
Ebene 1
10
17.342771
20
39.225999
11
16.799673
21
38.861776
0
LINE
8
Ebene 1
10
16.799673
20
38.861776
11
16.432543
21
38.321586
0
LINE
8
Ebene 1
10
16.432543
20
38.321586
11
16.297660
21
37.660120
0
LINE
8
Ebene 1
10
16.297660
20
37.660120
11
16.431353
21
36.998654
0
LINE
8
Ebene 1
10
16.431353
20
36.998654
11
16.796501
21
36.458464
0
LINE
8
Ebene 1
10
16.796501
20
36.458464
11
17.339203
21
36.094241
0
LINE
8
Ebene 1
10
17.339203
20
36.094241
11
18.005560
21
35.960680
0
LINE
8
Ebene 1
10
18.005560
20
35.960680
11
18.538352
21
36.044965
0
LINE
8
Ebene 1
10
18.538352
20
36.044965
11
19.002184
21
36.279853
0
LINE
8
Ebene 1
10
19.002184
20
36.279853
11
19.369314
21
36.638395
0
LINE
8
Ebene 1
10
19.369314
20
36.638395
11
19.612000
21
37.093640
0
LINE
8
Ebene 1
10
19.612000
20
37.093640
11
22.774100
21
37.093600
0
LINE
8
Ebene 1
10
22.774100
20
37.093600
11
27.669500
21
32.206700
0
LINE
8
Ebene 1
10
27.669500
20
32.206700
11
27.669500
21
23.709500
0
LINE
8
Ebene 1
10
27.669500
20
23.709500
11
25.056930
21
26.322070
0
LINE
8
Ebene 1
10
25.056930
20
26.322070
11
25.057000
21
29.594100
0
LINE
8
Ebene 1
10
25.057000
20
29.594100
11
25.513568
21
29.840350
0
LINE
8
Ebene 1
10
25.513568
20
29.840350
11
25.875017
21
30.207083
0
LINE
8
Ebene 1
10
25.875017
20
30.207083
11
26.112813
21
30.668935
0
LINE
8
Ebene 1
10
26.112813
20
30.668935
11
26.198420
21
31.200540
0
LINE
8
Ebene 1
10
26.198420
20
31.200540
11
26.064726
21
31.862005
0
LINE
8
Ebene 1
10
26.064726
20
31.862005
11
25.699579
21
32.402196
0
LINE
8
Ebene 1
10
25.699579
20
32.402196
11
25.156877
21
32.766418
0
LINE
8
Ebene 1
10
25.156877
20
32.766418
11
24.490520
21
32.899980
0
LINE
8
Ebene 1
10
24.490520
20
32.899980
11
23.827735
21
32.766419
0
LINE
8
Ebene 1
10
23.827735
20
32.766419
11
23.284639
21
32.402196
0
LINE
8
Ebene 1
10
23.284639
20
32.402196
11
22.917512
21
31.862005
0
LINE
8
Ebene 1
10
22.917512
20
31.862005
11
22.782630
21
31.200540
0
LINE
8
Ebene 1
10
22.782630
20
31.200540
11
22.867047
21
30.668936
0
LINE
8
Ebene 1
10
22.867047
20
30.668936
11
23.102861
21
30.207085
0
LINE
8
Ebene 1
10
23.102861
20
30.207085
11
23.463914
21
29.840351
0
LINE
8
Ebene 1
10
23.463914
20
29.840351
11
23.924050
21
29.594100
0
LINE
8
Ebene 1
10
23.924050
20
29.594100
11
23.924000
21
27.463500
0
LINE
8
Ebene 1
10
23.924000
20
27.463500
11
20.119300
21
31.259700
0
LINE
8
Ebene 1
10
20.119300
20
31.259700
11
20.288398
21
31.995275
0
LINE
8
Ebene 1
10
20.288398
20
31.995275
11
20.154705
21
32.656740
0
LINE
8
Ebene 1
10
20.154705
20
32.656740
11
19.789559
21
33.196931
0
LINE
8
Ebene 1
10
19.789559
20
33.196931
11
19.246859
21
33.561153
0
LINE
8
Ebene 1
10
19.246859
20
33.561153
11
18.580508
21
33.694715
0
LINE
8
Ebene 1
10
18.580508
20
33.694715
11
17.917719
21
33.561153
0
LINE
8
Ebene 1
10
17.917719
20
33.561153
11
17.374621
21
33.196930
0
LINE
8
Ebene 1
10
17.374621
20
33.196930
11
17.007491
21
32.656739
0
LINE
8
Ebene 1
10
17.007491
20
32.656739
11
16.872608
21
31.995275
0
LINE
8
Ebene 1
10
16.872608
20
31.995275
11
17.006301
21
31.333811
0
LINE
8
Ebene 1
10
17.006301
20
31.333811
11
17.371449
21
30.793620
0
LINE
8
Ebene 1
10
17.371449
20
30.793620
11
17.914151
21
30.429397
0
LINE
8
Ebene 1
10
17.914151
20
30.429397
11
18.580508
21
30.295835
0
LINE
8
Ebene 1
10
18.580508
20
30.295835
11
19.316082
21
30.464934
0
LINE
8
Ebene 1
10
19.316082
20
30.464934
11
23.120802
21
26.668674
0
LINE
8
Ebene 1
10
23.120802
20
26.668674
11
21.100100
21
26.668700
0
LINE
8
Ebene 1
10
21.100100
20
26.668700
11
20.853849
21
27.123945
0
LINE
8
Ebene 1
10
20.853849
20
27.123945
11
20.487116
21
27.482487
0
LINE
8
Ebene 1
10
20.487116
20
27.482487
11
20.025265
21
27.717375
0
LINE
8
Ebene 1
10
20.025265
20
27.717375
11
19.493660
21
27.801660
0
LINE
8
Ebene 1
10
19.493660
20
27.801660
11
18.830871
21
27.668098
0
LINE
8
Ebene 1
10
18.830871
20
27.668098
11
18.287773
21
27.303876
0
LINE
8
Ebene 1
10
18.287773
20
27.303876
11
17.920643
21
26.763686
0
LINE
8
Ebene 1
10
17.920643
20
26.763686
11
17.785760
21
26.102220
0
LINE
8
Ebene 1
10
17.785760
20
26.102220
11
17.919453
21
25.440754
0
LINE
8
Ebene 1
10
17.919453
20
25.440754
11
18.284601
21
24.900563
0
LINE
8
Ebene 1
10
18.284601
20
24.900563
11
18.827303
21
24.536341
0
LINE
8
Ebene 1
10
18.827303
20
24.536341
11
19.493660
21
24.402780
0
LINE
8
Ebene 1
10
19.493660
20
24.402780
11
20.026452
21
24.487065
0
LINE
8
Ebene 1
10
20.026452
20
24.487065
11
20.490284
21
24.721954
0
LINE
8
Ebene 1
10
20.490284
20
24.721954
11
20.857414
21
25.080496
0
LINE
8
Ebene 1
10
20.857414
20
25.080496
11
21.100100
21
25.535740
0
LINE
8
Ebene 1
10
21.100100
20
25.535740
11
24.262200
21
25.535700
0
LINE
8
Ebene 1
10
24.262200
20
25.535700
11
27.407400
21
22.331300
0
LINE
8
Ebene 1
10
18.656600
20
47.653800
11
18.171498
21
47.454053
0
LINE
8
Ebene 1
10
18.171498
20
47.454053
11
17.971750
21
46.968954
0
LINE
8
Ebene 1
10
17.971750
20
46.968954
11
18.171498
21
46.487022
0
LINE
8
Ebene 1
10
18.171498
20
46.487022
11
18.656600
21
46.284104
0
LINE
8
Ebene 1
10
18.656600
20
46.284104
11
19.141702
21
46.483852
0
LINE
8
Ebene 1
10
19.141702
20
46.483852
11
19.341450
21
46.968954
0
LINE
8
Ebene 1
10
19.341450
20
46.968954
11
19.141702
21
47.454053
0
LINE
8
Ebene 1
10
19.141702
20
47.454053
11
18.656600
21
47.653800
0
LINE
8
Ebene 1
10
18.656600
20
47.653800
11
18.656600
21
47.653800
0
LINE
8
Ebene 1
10
22.977000
20
43.451700
11
22.491901
21
43.251952
0
LINE
8
Ebene 1
10
22.491901
20
43.251952
11
22.292154
21
42.766850
0
LINE
8
Ebene 1
10
22.292154
20
42.766850
11
22.491901
21
42.284920
0
LINE
8
Ebene 1
10
22.491901
20
42.284920
11
22.977000
21
42.082000
0
LINE
8
Ebene 1
10
22.977000
20
42.082000
11
23.462102
21
42.281749
0
LINE
8
Ebene 1
10
23.462102
20
42.281749
11
23.661850
21
42.766850
0
LINE
8
Ebene 1
10
23.661850
20
42.766850
11
23.462102
21
43.251953
0
LINE
8
Ebene 1
10
23.462102
20
43.251953
11
22.977000
21
43.451700
0
LINE
8
Ebene 1
10
22.977000
20
43.451700
11
22.977000
21
43.451700
0
LINE
8
Ebene 1
10
24.574980
20
50.266370
11
24.089878
21
50.066622
0
LINE
8
Ebene 1
10
24.089878
20
50.066622
11
23.890130
21
49.581520
0
LINE
8
Ebene 1
10
23.890130
20
49.581520
11
24.089878
21
49.096421
0
LINE
8
Ebene 1
10
24.089878
20
49.096421
11
24.574980
21
48.896674
0
LINE
8
Ebene 1
10
24.574980
20
48.896674
11
25.060081
21
49.096421
0
LINE
8
Ebene 1
10
25.060081
20
49.096421
11
25.259830
21
49.581520
0
LINE
8
Ebene 1
10
25.259830
20
49.581520
11
25.056912
21
50.066622
0
LINE
8
Ebene 1
10
25.056912
20
50.066622
11
24.574980
21
50.266370
0
LINE
8
Ebene 1
10
24.574980
20
50.266370
11
24.574980
21
50.266370
0
LINE
8
Ebene 1
10
40.157380
20
41.752260
11
40.642481
21
41.952008
0
LINE
8
Ebene 1
10
40.642481
20
41.952008
11
40.842228
21
42.437110
0
LINE
8
Ebene 1
10
40.842228
20
42.437110
11
40.642481
21
42.922212
0
LINE
8
Ebene 1
10
40.642481
20
42.922212
11
40.157380
21
43.121960
0
LINE
8
Ebene 1
10
40.157380
20
43.121960
11
39.672278
21
42.922212
0
LINE
8
Ebene 1
10
39.672278
20
42.922212
11
39.472529
21
42.437110
0
LINE
8
Ebene 1
10
39.472529
20
42.437110
11
39.672278
21
41.952008
0
LINE
8
Ebene 1
10
39.672278
20
41.952008
11
40.157380
21
41.752260
0
LINE
8
Ebene 1
10
40.157380
20
41.752260
11
40.157380
21
41.752260
0
LINE
8
Ebene 1
10
31.854700
20
48.905200
11
32.339805
21
49.104947
0
LINE
8
Ebene 1
10
32.339805
20
49.104947
11
32.539554
21
49.590046
0
LINE
8
Ebene 1
10
32.539554
20
49.590046
11
32.339805
21
50.075148
0
LINE
8
Ebene 1
10
32.339805
20
50.075148
11
31.854700
21
50.274896
0
LINE
8
Ebene 1
10
31.854700
20
50.274896
11
31.369601
21
50.075148
0
LINE
8
Ebene 1
10
31.369601
20
50.075148
11
31.169854
21
49.590046
0
LINE
8
Ebene 1
10
31.169854
20
49.590046
11
31.369601
21
49.104947
0
LINE
8
Ebene 1
10
31.369601
20
49.104947
11
31.854700
21
48.905200
0
LINE
8
Ebene 1
10
31.854700
20
48.905200
11
31.854700
21
48.905200
0
LINE
8
Ebene 1
10
32.649465
20
43.113580
11
32.164364
21
42.913833
0
LINE
8
Ebene 1
10
32.164364
20
42.913833
11
31.964617
21
42.428734
0
LINE
8
Ebene 1
10
31.964617
20
42.428734
11
32.164364
21
41.943632
0
LINE
8
Ebene 1
10
32.164364
20
41.943632
11
32.649465
21
41.743884
0
LINE
8
Ebene 1
10
32.649465
20
41.743884
11
33.134564
21
41.943632
0
LINE
8
Ebene 1
10
33.134564
20
41.943632
11
33.334311
21
42.428734
0
LINE
8
Ebene 1
10
33.334311
20
42.428734
11
33.131394
21
42.913833
0
LINE
8
Ebene 1
10
33.131394
20
42.913833
11
32.649465
21
43.113580
0
LINE
8
Ebene 1
10
32.649465
20
43.113580
11
32.649465
21
43.113580
0
LINE
8
Ebene 1
10
17.971700
20
38.345000
11
17.486601
21
38.145253
0
LINE
8
Ebene 1
10
17.486601
20
38.145253
11
17.286854
21
37.660154
0
LINE
8
Ebene 1
10
17.286854
20
37.660154
11
17.486601
21
37.178223
0
LINE
8
Ebene 1
10
17.486601
20
37.178223
11
17.971700
21
36.975306
0
LINE
8
Ebene 1
10
17.971700
20
36.975306
11
18.456802
21
37.175054
0
LINE
8
Ebene 1
10
18.456802
20
37.175054
11
18.656550
21
37.660154
0
LINE
8
Ebene 1
10
18.656550
20
37.660154
11
18.456802
21
38.145253
0
LINE
8
Ebene 1
10
18.456802
20
38.145253
11
17.971700
21
38.345000
0
LINE
8
Ebene 1
10
17.971700
20
38.345000
11
17.971700
21
38.345000
0
LINE
8
Ebene 1
10
39.929100
20
30.963860
11
40.414201
21
31.163607
0
LINE
8
Ebene 1
10
40.414201
20
31.163607
11
40.613948
21
31.648708
0
LINE
8
Ebene 1
10
40.613948
20
31.648708
11
40.414201
21
32.133810
0
LINE
8
Ebene 1
10
40.414201
20
32.133810
11
39.929100
21
32.333559
0
LINE
8
Ebene 1
10
39.929100
20
32.333559
11
39.443999
21
32.133810
0
LINE
8
Ebene 1
10
39.443999
20
32.133810
11
39.244252
21
31.648708
0
LINE
8
Ebene 1
10
39.244252
20
31.648708
11
39.443999
21
31.163607
0
LINE
8
Ebene 1
10
39.443999
20
31.163607
11
39.929100
21
30.963860
0
LINE
8
Ebene 1
10
39.929100
20
30.963860
11
39.929100
21
30.963860
0
LINE
8
Ebene 1
10
36.403500
20
47.535500
11
35.918401
21
47.335751
0
LINE
8
Ebene 1
10
35.918401
20
47.335751
11
35.718654
21
46.850650
0
LINE
8
Ebene 1
10
35.718654
20
46.850650
11
35.918401
21
46.368718
0
LINE
8
Ebene 1
10
35.918401
20
46.368718
11
36.403500
21
46.165800
0
LINE
8
Ebene 1
10
36.403500
20
46.165800
11
36.888601
21
46.365548
0
LINE
8
Ebene 1
10
36.888601
20
46.365548
11
37.088348
21
46.850650
0
LINE
8
Ebene 1
10
37.088348
20
46.850650
11
36.882256
21
47.335751
0
LINE
8
Ebene 1
10
36.882256
20
47.335751
11
36.403500
21
47.535500
0
LINE
8
Ebene 1
10
36.403500
20
47.535500
11
36.403500
21
47.535500
0
LINE
8
Ebene 1
10
32.192950
20
37.550230
11
31.707849
21
37.350483
0
LINE
8
Ebene 1
10
31.707849
20
37.350483
11
31.508102
21
36.865383
0
LINE
8
Ebene 1
10
31.508102
20
36.865383
11
31.707849
21
36.380283
0
LINE
8
Ebene 1
10
31.707849
20
36.380283
11
32.192950
21
36.180533
0
LINE
8
Ebene 1
10
32.192950
20
36.180533
11
32.678049
21
36.380283
0
LINE
8
Ebene 1
10
32.678049
20
36.380283
11
32.877796
21
36.865383
0
LINE
8
Ebene 1
10
32.877796
20
36.865383
11
32.678049
21
37.350483
0
LINE
8
Ebene 1
10
32.678049
20
37.350483
11
32.192950
21
37.550230
0
LINE
8
Ebene 1
10
32.192950
20
37.550230
11
32.192950
21
37.550230
0
LINE
8
Ebene 1
10
18.546700
20
32.663200
11
18.061601
21
32.463453
0
LINE
8
Ebene 1
10
18.061601
20
32.463453
11
17.861854
21
31.978352
0
LINE
8
Ebene 1
10
17.861854
20
31.978352
11
18.061601
21
31.496421
0
LINE
8
Ebene 1
10
18.061601
20
31.496421
11
18.546700
21
31.293501
0
LINE
8
Ebene 1
10
18.546700
20
31.293501
11
19.031802
21
31.493250
0
LINE
8
Ebene 1
10
19.031802
20
31.493250
11
19.231550
21
31.978352
0
LINE
8
Ebene 1
10
19.231550
20
31.978352
11
19.025457
21
32.463453
0
LINE
8
Ebene 1
10
19.025457
20
32.463453
11
18.546700
21
32.663200
0
LINE
8
Ebene 1
10
18.546700
20
32.663200
11
18.546700
21
32.663200
0
LINE
8
Ebene 1
10
19.451376
20
26.761660
11
18.966277
21
26.561913
0
LINE
8
Ebene 1
10
18.966277
20
26.561913
11
18.766530
21
26.076809
0
LINE
8
Ebene 1
10
18.766530
20
26.076809
11
18.966277
21
25.594881
0
LINE
8
Ebene 1
10
18.966277
20
25.594881
11
19.451376
21
25.391961
0
LINE
8
Ebene 1
10
19.451376
20
25.391961
11
19.936478
21
25.591708
0
LINE
8
Ebene 1
10
19.936478
20
25.591708
11
20.136226
21
26.076809
0
LINE
8
Ebene 1
10
20.136226
20
26.076809
11
19.936478
21
26.561913
0
LINE
8
Ebene 1
10
19.936478
20
26.561913
11
19.451376
21
26.761660
0
LINE
8
Ebene 1
10
19.451376
20
26.761660
11
19.451376
21
26.761660
0
LINE
8
Ebene 1
10
36.969976
20
25.510330
11
37.455078
21
25.710077
0
LINE
8
Ebene 1
10
37.455078
20
25.710077
11
37.654827
21
26.195178
0
LINE
8
Ebene 1
10
37.654827
20
26.195178
11
37.455078
21
26.677108
0
LINE
8
Ebene 1
10
37.455078
20
26.677108
11
36.969976
21
26.880026
0
LINE
8
Ebene 1
10
36.969976
20
26.880026
11
36.484875
21
26.680280
0
LINE
8
Ebene 1
10
36.484875
20
26.680280
11
36.285128
21
26.195178
0
LINE
8
Ebene 1
10
36.285128
20
26.195178
11
36.484875
21
25.710077
0
LINE
8
Ebene 1
10
36.484875
20
25.710077
11
36.969976
21
25.510330
0
LINE
8
Ebene 1
10
36.969976
20
25.510330
11
36.969976
21
25.510330
0
LINE
8
Ebene 1
10
24.456700
20
31.868500
11
23.971599
21
31.668753
0
LINE
8
Ebene 1
10
23.971599
20
31.668753
11
23.771850
21
31.183652
0
LINE
8
Ebene 1
10
23.771850
20
31.183652
11
23.971599
21
30.701722
0
LINE
8
Ebene 1
10
23.971599
20
30.701722
11
24.456700
21
30.498804
0
LINE
8
Ebene 1
10
24.456700
20
30.498804
11
24.941802
21
30.698551
0
LINE
8
Ebene 1
10
24.941802
20
30.698551
11
25.141550
21
31.183652
0
LINE
8
Ebene 1
10
25.141550
20
31.183652
11
24.941802
21
31.668753
0
LINE
8
Ebene 1
10
24.941802
20
31.668753
11
24.456700
21
31.868500
0
LINE
8
Ebene 1
10
24.456700
20
31.868500
11
24.456700
21
31.868500
 0 
ENDSEC
 0 
EOF