999
"DXF R12 Output" (www.mydxf.blogspot.com)
 0 
SECTION
 2 
HEADER
 9 
$ACADVER
 1 
AC1009
 9 
$EXTMIN
 10 
 0 
 20 
 0 
 9 
$EXTMAX
 10 
 8.5 
 20 
 11 
 0 
ENDSEC
 0 
SECTION
 2 
ENTITIES
0
LINE
8
Layer 1
10
0.286877
20
-288.538000
11
0.286877
21
-288.820000
0
LINE
8
Layer 1
10
0.286877
20
-288.820000
11
0.005320
21
-288.820000
0
LINE
8
Layer 1
10
0.005320
20
-288.820000
11
0.005320
21
-289.383000
0
LINE
8
Layer 1
10
0.005320
20
-289.383000
11
0.286877
21
-289.383000
0
LINE
8
Layer 1
10
0.286877
20
-289.383000
11
0.286877
21
-289.946000
0
LINE
8
Layer 1
10
0.286877
20
-289.946000
11
0.568434
21
-289.946000
0
LINE
8
Layer 1
10
0.568434
20
-289.946000
11
0.568434
21
-290.509000
0
LINE
8
Layer 1
10
0.568434
20
-290.509000
11
1.413100
21
-290.509000
0
LINE
8
Layer 1
10
1.413100
20
-290.509000
11
1.413100
21
-290.790000
0
LINE
8
Layer 1
10
1.413100
20
-290.790000
11
0.849577
21
-290.790000
0
LINE
8
Layer 1
10
0.849577
20
-290.790000
11
0.849992
21
-291.352130
0
LINE
8
Layer 1
10
0.849992
20
-291.352130
11
1.131550
21
-291.352000
0
LINE
8
Layer 1
10
1.131550
20
-291.352000
11
1.131550
21
-291.071000
0
LINE
8
Layer 1
10
1.131550
20
-291.071000
11
1.976220
21
-291.071000
0
LINE
8
Layer 1
10
1.976220
20
-291.071000
11
1.976220
21
-292.197000
0
LINE
8
Layer 1
10
1.976220
20
-292.197000
11
2.257780
21
-292.197000
0
LINE
8
Layer 1
10
2.257780
20
-292.197000
11
2.257780
21
-291.352000
0
LINE
8
Layer 1
10
2.257780
20
-291.352000
11
2.539330
21
-291.352000
0
LINE
8
Layer 1
10
2.539330
20
-291.352000
11
2.539330
21
-292.197000
0
LINE
8
Layer 1
10
2.539330
20
-292.197000
11
2.820890
21
-292.197000
0
LINE
8
Layer 1
10
2.820890
20
-292.197000
11
2.820890
21
-291.071000
0
LINE
8
Layer 1
10
2.820890
20
-291.071000
11
3.665560
21
-291.071000
0
LINE
8
Layer 1
10
3.665560
20
-291.071000
11
3.665560
21
-291.353000
0
LINE
8
Layer 1
10
3.665560
20
-291.353000
11
3.947120
21
-291.353000
0
LINE
8
Layer 1
10
3.947120
20
-291.353000
11
3.947120
21
-290.791000
0
LINE
8
Layer 1
10
3.947120
20
-290.791000
11
3.384010
21
-290.791000
0
LINE
8
Layer 1
10
3.384010
20
-290.791000
11
3.384010
21
-290.509000
0
LINE
8
Layer 1
10
3.384010
20
-290.509000
11
4.228680
21
-290.509000
0
LINE
8
Layer 1
10
4.228680
20
-290.509000
11
4.228680
21
-289.946000
0
LINE
8
Layer 1
10
4.228680
20
-289.946000
11
4.510230
21
-289.946000
0
LINE
8
Layer 1
10
4.510230
20
-289.946000
11
4.510230
21
-288.539000
0
LINE
8
Layer 1
10
4.510230
20
-288.539000
11
4.228680
21
-288.539000
0
LINE
8
Layer 1
10
4.228680
20
-288.539000
11
4.228680
21
-289.383000
0
LINE
8
Layer 1
10
4.228680
20
-289.383000
11
3.947120
21
-289.383000
0
LINE
8
Layer 1
10
3.947120
20
-289.383000
11
3.947120
21
-288.539000
0
LINE
8
Layer 1
10
3.947120
20
-288.539000
11
3.665560
21
-288.539000
0
LINE
8
Layer 1
10
3.665560
20
-288.539000
11
3.665560
21
-288.820000
0
LINE
8
Layer 1
10
3.665560
20
-288.820000
11
3.384010
21
-288.820000
0
LINE
8
Layer 1
10
3.384010
20
-288.820000
11
3.384010
21
-289.383000
0
LINE
8
Layer 1
10
3.384010
20
-289.383000
11
3.665560
21
-289.383000
0
LINE
8
Layer 1
10
3.665560
20
-289.383000
11
3.665560
21
-289.946000
0
LINE
8
Layer 1
10
3.665560
20
-289.946000
11
3.947120
21
-289.946000
0
LINE
8
Layer 1
10
3.947120
20
-289.946000
11
3.947120
21
-290.228000
0
LINE
8
Layer 1
10
3.947120
20
-290.228000
11
3.384010
21
-290.228000
0
LINE
8
Layer 1
10
3.384010
20
-290.228000
11
3.384010
21
-289.946000
0
LINE
8
Layer 1
10
3.384010
20
-289.946000
11
3.102450
21
-289.946000
0
LINE
8
Layer 1
10
3.102450
20
-289.946000
11
3.102450
21
-289.665000
0
LINE
8
Layer 1
10
3.102450
20
-289.665000
11
3.102450
21
-288.820000
0
LINE
8
Layer 1
10
3.102450
20
-288.820000
11
2.539330
21
-288.820000
0
LINE
8
Layer 1
10
2.539330
20
-288.820000
11
2.539330
21
-289.383000
0
LINE
8
Layer 1
10
2.539330
20
-289.383000
11
2.820890
21
-289.383000
0
LINE
8
Layer 1
10
2.820890
20
-289.383000
11
2.820890
21
-289.665000
0
LINE
8
Layer 1
10
2.820890
20
-289.665000
11
2.257780
21
-289.665000
0
LINE
8
Layer 1
10
2.257780
20
-289.665000
11
2.257780
21
-288.820000
0
LINE
8
Layer 1
10
2.257780
20
-288.820000
11
1.694660
21
-288.820000
0
LINE
8
Layer 1
10
1.694660
20
-288.820000
11
1.694660
21
-289.383000
0
LINE
8
Layer 1
10
1.694660
20
-289.383000
11
1.976220
21
-289.383000
0
LINE
8
Layer 1
10
1.976220
20
-289.383000
11
1.976220
21
-289.665000
0
LINE
8
Layer 1
10
1.976220
20
-289.665000
11
1.694660
21
-289.665000
0
LINE
8
Layer 1
10
1.694660
20
-289.665000
11
1.694660
21
-289.946000
0
LINE
8
Layer 1
10
1.694660
20
-289.946000
11
1.413100
21
-289.946000
0
LINE
8
Layer 1
10
1.413100
20
-289.946000
11
1.413100
21
-290.228000
0
LINE
8
Layer 1
10
1.413100
20
-290.228000
11
0.849991
21
-290.228000
0
LINE
8
Layer 1
10
0.849991
20
-290.228000
11
0.849991
21
-289.946000
0
LINE
8
Layer 1
10
0.849991
20
-289.946000
11
1.131550
21
-289.946000
0
LINE
8
Layer 1
10
1.131550
20
-289.946000
11
1.131550
21
-288.539000
0
LINE
8
Layer 1
10
1.131550
20
-288.539000
11
0.849991
21
-288.539000
0
LINE
8
Layer 1
10
0.849991
20
-288.539000
11
0.849991
21
-289.383000
0
LINE
8
Layer 1
10
0.849991
20
-289.383000
11
0.568434
21
-289.383000
0
LINE
8
Layer 1
10
0.568434
20
-289.383000
11
0.568434
21
-288.539000
0
LINE
8
Layer 1
10
0.568434
20
-288.539000
11
0.286877
21
-288.538000
0
LINE
8
Layer 1
10
1.411110
20
1038.780000
11
1.693340
21
1038.780000
0
LINE
8
Layer 1
10
1.693340
20
1038.780000
11
1.693340
21
1037.930000
0
LINE
8
Layer 1
10
1.693340
20
1037.930000
11
1.128890
21
1037.930000
0
LINE
8
Layer 1
10
1.128890
20
1037.930000
11
1.128890
21
1038.210000
0
LINE
8
Layer 1
10
1.128890
20
1038.210000
11
1.411110
21
1038.210000
0
LINE
8
Layer 1
10
1.411110
20
1038.210000
11
1.411110
21
1038.780000
0
LINE
8
Layer 1
10
8.128890
20
1038.780000
11
8.411110
21
1038.780000
0
LINE
8
Layer 1
10
8.411110
20
1038.780000
11
8.411110
21
1038.210000
0
LINE
8
Layer 1
10
8.411110
20
1038.210000
11
8.693330
21
1038.210000
0
LINE
8
Layer 1
10
8.693330
20
1038.210000
11
8.693330
21
1037.930000
0
LINE
8
Layer 1
10
8.693330
20
1037.930000
11
8.128890
21
1037.930000
0
LINE
8
Layer 1
10
8.128890
20
1037.930000
11
8.128890
21
1038.780000
0
LINE
8
Layer 1
10
0.569646
20
-291.361000
11
0.841464
21
-291.361000
0
LINE
8
Layer 1
10
0.841464
20
-291.361000
11
0.841464
21
-292.197000
0
LINE
8
Layer 1
10
0.841464
20
-292.197000
11
0.569646
21
-292.197000
0
LINE
8
Layer 1
10
0.569646
20
-292.197000
11
0.569646
21
-291.361000
0
LINE
8
Layer 1
10
3.956310
20
-291.361000
11
4.228130
21
-291.361000
0
LINE
8
Layer 1
10
4.228130
20
-291.361000
11
4.228130
21
-292.197000
0
LINE
8
Layer 1
10
4.228130
20
-292.197000
11
3.956310
21
-292.197000
0
LINE
8
Layer 1
10
3.956310
20
-292.197000
11
3.956310
21
-291.361000
 0 
ENDSEC
 0 
EOF