999
"DXF R12 Output" (www.mydxf.blogspot.com)
 0 
SECTION
 2 
HEADER
 9 
$ACADVER
 1 
AC1009
 9 
$EXTMIN
 10 
 0 
 20 
 0 
 9 
$EXTMAX
 10 
 8.5 
 20 
 11 
 0 
ENDSEC
 0 
SECTION
 2 
ENTITIES
0
LINE
8
Layer 1
10
0.282222
20
1040.320000
11
0.282222
21
1040.030000
0
LINE
8
Layer 1
10
0.282222
20
1040.030000
11
0.000000
21
1040.030000
0
LINE
8
Layer 1
10
0.000000
20
1040.030000
11
0.000000
21
1039.470000
0
LINE
8
Layer 1
10
0.000000
20
1039.470000
11
0.282222
21
1039.470000
0
LINE
8
Layer 1
10
0.282222
20
1039.470000
11
0.282222
21
1038.900000
0
LINE
8
Layer 1
10
0.282222
20
1038.900000
11
0.564444
21
1038.900000
0
LINE
8
Layer 1
10
0.564444
20
1038.900000
11
0.564444
21
1038.340000
0
LINE
8
Layer 1
10
0.564444
20
1038.340000
11
1.411110
21
1038.340000
0
LINE
8
Layer 1
10
1.411110
20
1038.340000
11
1.411110
21
1038.060000
0
LINE
8
Layer 1
10
1.411110
20
1038.060000
11
0.846251
21
1038.060000
0
LINE
8
Layer 1
10
0.846251
20
1038.060000
11
0.847081
21
1037.490000
0
LINE
8
Layer 1
10
0.847081
20
1037.490000
11
1.128890
21
1037.490000
0
LINE
8
Layer 1
10
1.128890
20
1037.490000
11
1.128890
21
1037.780000
0
LINE
8
Layer 1
10
1.128890
20
1037.780000
11
1.975550
21
1037.780000
0
LINE
8
Layer 1
10
1.975550
20
1037.780000
11
1.975550
21
1036.650000
0
LINE
8
Layer 1
10
1.975550
20
1036.650000
11
2.257780
21
1036.650000
0
LINE
8
Layer 1
10
2.257780
20
1036.650000
11
2.257780
21
1037.490000
0
LINE
8
Layer 1
10
2.257780
20
1037.490000
11
2.540000
21
1037.490000
0
LINE
8
Layer 1
10
2.540000
20
1037.490000
11
2.540000
21
1036.650000
0
LINE
8
Layer 1
10
2.540000
20
1036.650000
11
2.822220
21
1036.650000
0
LINE
8
Layer 1
10
2.822220
20
1036.650000
11
2.822220
21
1037.780000
0
LINE
8
Layer 1
10
2.822220
20
1037.780000
11
3.668890
21
1037.780000
0
LINE
8
Layer 1
10
3.668890
20
1037.780000
11
3.668890
21
1037.490000
0
LINE
8
Layer 1
10
3.668890
20
1037.490000
11
3.951110
21
1037.490000
0
LINE
8
Layer 1
10
3.951110
20
1037.490000
11
3.951110
21
1038.060000
0
LINE
8
Layer 1
10
3.951110
20
1038.060000
11
3.386660
21
1038.060000
0
LINE
8
Layer 1
10
3.386660
20
1038.060000
11
3.386660
21
1038.340000
0
LINE
8
Layer 1
10
3.386660
20
1038.340000
11
4.233330
21
1038.340000
0
LINE
8
Layer 1
10
4.233330
20
1038.340000
11
4.233330
21
1038.900000
0
LINE
8
Layer 1
10
4.233330
20
1038.900000
11
4.515550
21
1038.900000
0
LINE
8
Layer 1
10
4.515550
20
1038.900000
11
4.515550
21
1040.320000
0
LINE
8
Layer 1
10
4.515550
20
1040.320000
11
4.233330
21
1040.320000
0
LINE
8
Layer 1
10
4.233330
20
1040.320000
11
4.233330
21
1039.470000
0
LINE
8
Layer 1
10
4.233330
20
1039.470000
11
3.951110
21
1039.470000
0
LINE
8
Layer 1
10
3.951110
20
1039.470000
11
3.951110
21
1040.320000
0
LINE
8
Layer 1
10
3.951110
20
1040.320000
11
3.668890
21
1040.320000
0
LINE
8
Layer 1
10
3.668890
20
1040.320000
11
3.668890
21
1040.030000
0
LINE
8
Layer 1
10
3.668890
20
1040.030000
11
3.386660
21
1040.030000
0
LINE
8
Layer 1
10
3.386660
20
1040.030000
11
3.386660
21
1039.470000
0
LINE
8
Layer 1
10
3.386660
20
1039.470000
11
3.668890
21
1039.470000
0
LINE
8
Layer 1
10
3.668890
20
1039.470000
11
3.668890
21
1038.900000
0
LINE
8
Layer 1
10
3.668890
20
1038.900000
11
3.951110
21
1038.900000
0
LINE
8
Layer 1
10
3.951110
20
1038.900000
11
3.951110
21
1038.620000
0
LINE
8
Layer 1
10
3.951110
20
1038.620000
11
3.386660
21
1038.620000
0
LINE
8
Layer 1
10
3.386660
20
1038.620000
11
3.386660
21
1038.900000
0
LINE
8
Layer 1
10
3.386660
20
1038.900000
11
3.104440
21
1038.900000
0
LINE
8
Layer 1
10
3.104440
20
1038.900000
11
3.104440
21
1039.190000
0
LINE
8
Layer 1
10
3.104440
20
1039.190000
11
3.104440
21
1040.030000
0
LINE
8
Layer 1
10
3.104440
20
1040.030000
11
2.540000
21
1040.030000
0
LINE
8
Layer 1
10
2.540000
20
1040.030000
11
2.540000
21
1039.470000
0
LINE
8
Layer 1
10
2.540000
20
1039.470000
11
2.822220
21
1039.470000
0
LINE
8
Layer 1
10
2.822220
20
1039.470000
11
2.822220
21
1039.190000
0
LINE
8
Layer 1
10
2.822220
20
1039.190000
11
2.257780
21
1039.190000
0
LINE
8
Layer 1
10
2.257780
20
1039.190000
11
2.257780
21
1040.030000
0
LINE
8
Layer 1
10
2.257780
20
1040.030000
11
1.693330
21
1040.030000
0
LINE
8
Layer 1
10
1.693330
20
1040.030000
11
1.693330
21
1039.470000
0
LINE
8
Layer 1
10
1.693330
20
1039.470000
11
1.975550
21
1039.470000
0
LINE
8
Layer 1
10
1.975550
20
1039.470000
11
1.975550
21
1039.190000
0
LINE
8
Layer 1
10
1.975550
20
1039.190000
11
1.693330
21
1039.190000
0
LINE
8
Layer 1
10
1.693330
20
1039.190000
11
1.693330
21
1038.900000
0
LINE
8
Layer 1
10
1.693330
20
1038.900000
11
1.411110
21
1038.900000
0
LINE
8
Layer 1
10
1.411110
20
1038.900000
11
1.411110
21
1038.620000
0
LINE
8
Layer 1
10
1.411110
20
1038.620000
11
0.846666
21
1038.620000
0
LINE
8
Layer 1
10
0.846666
20
1038.620000
11
0.846666
21
1038.900000
0
LINE
8
Layer 1
10
0.846666
20
1038.900000
11
1.128890
21
1038.900000
0
LINE
8
Layer 1
10
1.128890
20
1038.900000
11
1.128890
21
1040.320000
0
LINE
8
Layer 1
10
1.128890
20
1040.320000
11
0.846666
21
1040.320000
0
LINE
8
Layer 1
10
0.846666
20
1040.320000
11
0.846666
21
1039.470000
0
LINE
8
Layer 1
10
0.846666
20
1039.470000
11
0.564444
21
1039.470000
0
LINE
8
Layer 1
10
0.564444
20
1039.470000
11
0.564444
21
1040.320000
0
LINE
8
Layer 1
10
0.564444
20
1040.320000
11
0.282222
21
1040.320000
0
LINE
8
Layer 1
10
1.411110
20
1038.780000
11
1.693340
21
1038.780000
0
LINE
8
Layer 1
10
1.693340
20
1038.780000
11
1.693340
21
1037.930000
0
LINE
8
Layer 1
10
1.693340
20
1037.930000
11
1.128890
21
1037.930000
0
LINE
8
Layer 1
10
1.128890
20
1037.930000
11
1.128890
21
1038.210000
0
LINE
8
Layer 1
10
1.128890
20
1038.210000
11
1.411110
21
1038.210000
0
LINE
8
Layer 1
10
1.411110
20
1038.210000
11
1.411110
21
1038.780000
0
LINE
8
Layer 1
10
8.128890
20
1038.780000
11
8.411110
21
1038.780000
0
LINE
8
Layer 1
10
8.411110
20
1038.780000
11
8.411110
21
1038.210000
0
LINE
8
Layer 1
10
8.411110
20
1038.210000
11
8.693330
21
1038.210000
0
LINE
8
Layer 1
10
8.693330
20
1038.210000
11
8.693330
21
1037.930000
0
LINE
8
Layer 1
10
8.693330
20
1037.930000
11
8.128890
21
1037.930000
0
LINE
8
Layer 1
10
8.128890
20
1037.930000
11
8.128890
21
1038.780000
0
LINE
8
Layer 1
10
0.564444
20
-291.355000
11
0.846666
21
-291.355000
0
LINE
8
Layer 1
10
0.846666
20
-291.355000
11
0.846666
21
-292.202000
0
LINE
8
Layer 1
10
0.846666
20
-292.202000
11
0.564444
21
-292.202000
0
LINE
8
Layer 1
10
0.564444
20
-292.202000
11
0.564444
21
-291.355000
0
LINE
8
Layer 1
10
3.951110
20
-291.355000
11
4.233330
21
-291.355000
0
LINE
8
Layer 1
10
4.233330
20
-291.355000
11
4.233330
21
-292.202000
0
LINE
8
Layer 1
10
4.233330
20
-292.202000
11
3.951110
21
-292.202000
0
LINE
8
Layer 1
10
3.951110
20
-292.202000
11
3.951110
21
-291.355000
 0 
ENDSEC
 0 
EOF