999
"DXF R12 Output" (www.mydxf.blogspot.com)
 0 
SECTION
 2 
HEADER
 9 
$ACADVER
 1 
AC1009
 9 
$EXTMIN
 10 
 0 
 20 
 0 
 9 
$EXTMAX
 10 
 8.5 
 20 
 11 
 0 
ENDSEC
 0 
SECTION
 2 
ENTITIES
0
LINE
8
Layer 1
10
79.058100
20
145.437000
11
49.305600
21
116.000000
0
LINE
8
Layer 1
10
49.305600
20
116.000000
11
43.181700
21
122.190000
0
LINE
8
Layer 1
10
43.181700
20
122.190000
11
72.855600
21
151.598700
0
LINE
8
Layer 1
10
72.855600
20
151.598700
11
74.104180
21
150.435770
0
LINE
8
Layer 1
10
74.104180
20
150.435770
11
129.580280
21
204.271770
0
LINE
8
Layer 1
10
129.580280
20
204.271770
11
129.710193
21
206.019817
0
LINE
8
Layer 1
10
129.710193
20
206.019817
11
129.905988
21
206.824331
0
LINE
8
Layer 1
10
129.905988
20
206.824331
11
130.259431
21
207.545095
0
LINE
8
Layer 1
10
130.259431
20
207.545095
11
130.823337
21
208.154051
0
LINE
8
Layer 1
10
130.823337
20
208.154051
11
131.650519
21
208.623141
0
LINE
8
Layer 1
10
131.650519
20
208.623141
11
132.793795
21
208.924306
0
LINE
8
Layer 1
10
132.793795
20
208.924306
11
134.305980
21
209.029490
0
LINE
8
Layer 1
10
134.305980
20
209.029490
11
134.564302
21
211.079594
0
LINE
8
Layer 1
10
134.564302
20
211.079594
11
134.824539
21
211.864525
0
LINE
8
Layer 1
10
134.824539
20
211.864525
11
135.262161
21
212.387970
0
LINE
8
Layer 1
10
135.262161
20
212.387970
11
136.276700
21
212.889634
0
LINE
8
Layer 1
10
136.276700
20
212.889634
11
137.254270
21
213.075361
0
LINE
8
Layer 1
10
137.254270
20
213.075361
11
138.144740
21
213.007052
0
LINE
8
Layer 1
10
138.144740
20
213.007052
11
138.897978
21
212.746606
0
LINE
8
Layer 1
10
138.897978
20
212.746606
11
139.463855
21
212.355921
0
LINE
8
Layer 1
10
139.463855
20
212.355921
11
139.792238
21
211.896897
0
LINE
8
Layer 1
10
139.792238
20
211.896897
11
139.832997
21
211.431434
0
LINE
8
Layer 1
10
139.832997
20
211.431434
11
139.536001
21
211.021430
0
LINE
8
Layer 1
10
139.536001
20
211.021430
11
138.377556
21
211.053997
0
LINE
8
Layer 1
10
138.377556
20
211.053997
11
137.443747
21
210.843207
0
LINE
8
Layer 1
10
137.443747
20
210.843207
11
136.830678
21
210.284952
0
LINE
8
Layer 1
10
136.830678
20
210.284952
11
136.634451
21
209.275120
0
LINE
8
Layer 1
10
136.634451
20
209.275120
11
136.404794
21
208.115188
0
LINE
8
Layer 1
10
136.404794
20
208.115188
11
136.097087
21
207.415669
0
LINE
8
Layer 1
10
136.097087
20
207.415669
11
135.513891
21
206.936460
0
LINE
8
Layer 1
10
135.513891
20
206.936460
11
134.457771
21
206.437460
0
LINE
8
Layer 1
10
134.457771
20
206.437460
11
133.399146
21
206.309178
0
LINE
8
Layer 1
10
133.399146
20
206.309178
11
132.706210
21
205.847393
0
LINE
8
Layer 1
10
132.706210
20
205.847393
11
132.315815
21
205.087412
0
LINE
8
Layer 1
10
132.315815
20
205.087412
11
132.164811
21
204.064540
0
LINE
8
Layer 1
10
132.164811
20
204.064540
11
132.200270
21
202.335730
0
LINE
8
Layer 1
10
132.200270
20
202.335730
11
77.604970
21
147.129930
0
LINE
8
Layer 1
10
77.604970
20
147.129930
11
79.058100
21
145.437000
0
LINE
8
Layer 1
10
57.975300
20
107.445000
11
51.851400
21
113.634000
0
LINE
8
Layer 1
10
51.851400
20
113.634000
11
81.604000
21
143.071000
0
LINE
8
Layer 1
10
81.604000
20
143.071000
11
82.681820
21
142.004070
0
LINE
8
Layer 1
10
82.681820
20
142.004070
11
143.923720
21
200.559570
0
LINE
8
Layer 1
10
143.923720
20
200.559570
11
144.153369
21
203.880480
0
LINE
8
Layer 1
10
144.153369
20
203.880480
11
149.984429
21
203.184552
0
LINE
8
Layer 1
10
149.984429
20
203.184552
11
86.244529
21
138.246252
0
LINE
8
Layer 1
10
86.244529
20
138.246252
11
87.632919
21
136.836082
0
LINE
8
Layer 1
10
87.632919
20
136.836082
11
57.975300
21
107.445000
0
LINE
8
Layer 1
10
127.089000
20
223.046000
11
127.161611
21
221.705253
0
LINE
8
Layer 1
10
127.161611
20
221.705253
11
127.071347
21
220.476319
0
LINE
8
Layer 1
10
127.071347
20
220.476319
11
126.829858
21
219.348580
0
LINE
8
Layer 1
10
126.829858
20
219.348580
11
126.448790
21
218.311415
0
LINE
8
Layer 1
10
126.448790
20
218.311415
11
125.314510
21
216.466333
0
LINE
8
Layer 1
10
125.314510
20
216.466333
11
123.761690
21
214.856120
0
LINE
8
Layer 1
10
123.761690
20
214.856120
11
66.164190
21
158.494420
0
LINE
8
Layer 1
10
66.164190
20
158.494420
11
64.601920
21
160.072140
0
LINE
8
Layer 1
10
64.601920
20
160.072140
11
34.849220
21
130.636040
0
LINE
8
Layer 1
10
34.849220
20
130.636040
11
40.972810
21
124.446810
0
LINE
8
Layer 1
10
40.972810
20
124.446810
11
70.725510
21
153.882910
0
LINE
8
Layer 1
10
70.725510
20
153.882910
11
69.004880
21
155.622840
0
LINE
8
Layer 1
10
69.004880
20
155.622840
11
95.584255
21
181.985477
0
LINE
8
Layer 1
10
95.584255
20
181.985477
11
124.914480
21
211.146440
0
LINE
8
Layer 1
10
124.914480
20
211.146440
11
126.574836
21
213.173954
0
LINE
8
Layer 1
10
126.574836
20
213.173954
11
127.279356
21
214.351038
0
LINE
8
Layer 1
10
127.279356
20
214.351038
11
127.868699
21
215.677842
0
LINE
8
Layer 1
10
127.868699
20
215.677842
11
128.319309
21
217.184997
0
LINE
8
Layer 1
10
128.319309
20
217.184997
11
128.607634
21
218.903129
0
LINE
8
Layer 1
10
128.607634
20
218.903129
11
128.710119
21
220.862868
0
LINE
8
Layer 1
10
128.710119
20
220.862868
11
128.603210
21
223.094840
0
LINE
8
Layer 1
10
128.603210
20
223.094840
11
128.493775
21
223.844766
0
LINE
8
Layer 1
10
128.493775
20
223.844766
11
128.369040
21
223.950286
0
LINE
8
Layer 1
10
128.369040
20
223.950286
11
128.199084
21
223.918261
0
LINE
8
Layer 1
10
128.199084
20
223.918261
11
127.088930
21
223.045969
0
LINE
8
Layer 1
10
127.088930
20
223.045969
11
127.089000
21
223.046000
0
LINE
8
Layer 1
10
89.291100
20
96.448500
11
92.183500
21
96.448500
0
LINE
8
Layer 1
10
92.183500
20
96.448500
11
92.183500
21
120.798000
0
LINE
8
Layer 1
10
92.183500
20
120.798000
11
89.291100
21
120.798000
0
LINE
8
Layer 1
10
89.291100
20
120.798000
11
89.291100
21
96.448500
0
LINE
8
Layer 1
10
97.463700
20
103.141000
11
97.646379
21
101.219616
0
LINE
8
Layer 1
10
97.646379
20
101.219616
11
98.174710
21
99.669502
0
LINE
8
Layer 1
10
98.174710
20
99.669502
11
99.019134
21
98.455188
0
LINE
8
Layer 1
10
99.019134
20
98.455188
11
100.150089
21
97.541201
0
LINE
8
Layer 1
10
100.150089
20
97.541201
11
101.538016
21
96.892070
0
LINE
8
Layer 1
10
101.538016
20
96.892070
11
103.153355
21
96.472322
0
LINE
8
Layer 1
10
103.153355
20
96.472322
11
104.966547
21
96.246486
0
LINE
8
Layer 1
10
104.966547
20
96.246486
11
106.948030
21
96.179090
0
LINE
8
Layer 1
10
106.948030
20
96.179090
11
111.085000
21
96.179400
0
LINE
8
Layer 1
10
111.085000
20
96.179400
11
113.066483
21
96.246796
0
LINE
8
Layer 1
10
113.066483
20
96.246796
11
114.879675
21
96.472632
0
LINE
8
Layer 1
10
114.879675
20
96.472632
11
116.495014
21
96.892380
0
LINE
8
Layer 1
10
116.495014
20
96.892380
11
117.882941
21
97.541511
0
LINE
8
Layer 1
10
117.882941
20
97.541511
11
119.013896
21
98.455498
0
LINE
8
Layer 1
10
119.013896
20
98.455498
11
119.858320
21
99.669812
0
LINE
8
Layer 1
10
119.858320
20
99.669812
11
120.386651
21
101.219926
0
LINE
8
Layer 1
10
120.386651
20
101.219926
11
120.569330
21
103.141310
0
LINE
8
Layer 1
10
120.569330
20
103.141310
11
120.569000
21
106.908000
0
LINE
8
Layer 1
10
120.569000
20
106.908000
11
120.386321
21
108.829381
0
LINE
8
Layer 1
10
120.386321
20
108.829381
11
119.857990
21
110.379493
0
LINE
8
Layer 1
10
119.857990
20
110.379493
11
119.013566
21
111.593807
0
LINE
8
Layer 1
10
119.013566
20
111.593807
11
117.882611
21
112.507795
0
LINE
8
Layer 1
10
117.882611
20
112.507795
11
116.494684
21
113.156928
0
LINE
8
Layer 1
10
116.494684
20
113.156928
11
114.879345
21
113.576677
0
LINE
8
Layer 1
10
114.879345
20
113.576677
11
113.066153
21
113.802514
0
LINE
8
Layer 1
10
113.066153
20
113.802514
11
111.084670
21
113.869910
0
LINE
8
Layer 1
10
111.084670
20
113.869910
11
106.948000
21
113.870000
0
LINE
8
Layer 1
10
106.948000
20
113.870000
11
104.966517
21
113.802604
0
LINE
8
Layer 1
10
104.966517
20
113.802604
11
103.153325
21
113.576767
0
LINE
8
Layer 1
10
103.153325
20
113.576767
11
101.537986
21
113.157018
0
LINE
8
Layer 1
10
101.537986
20
113.157018
11
100.150059
21
112.507885
0
LINE
8
Layer 1
10
100.150059
20
112.507885
11
99.019104
21
111.593897
0
LINE
8
Layer 1
10
99.019104
20
111.593897
11
98.174680
21
110.379583
0
LINE
8
Layer 1
10
98.174680
20
110.379583
11
97.646349
21
108.829471
0
LINE
8
Layer 1
10
97.646349
20
108.829471
11
97.463670
21
106.908090
0
LINE
8
Layer 1
10
97.463670
20
106.908090
11
97.463700
21
103.141000
0
LINE
8
Layer 1
10
117.676800
20
103.309164
11
117.569071
21
101.954867
0
LINE
8
Layer 1
10
117.569071
20
101.954867
11
117.256395
21
100.874492
0
LINE
8
Layer 1
10
117.256395
20
100.874492
11
116.754536
21
100.039265
0
LINE
8
Layer 1
10
116.754536
20
100.039265
11
116.079260
21
99.420417
0
LINE
8
Layer 1
10
116.079260
20
99.420417
11
115.246332
21
98.989174
0
LINE
8
Layer 1
10
115.246332
20
98.989174
11
114.271518
21
98.716765
0
LINE
8
Layer 1
10
114.271518
20
98.716765
11
111.959290
21
98.533364
0
LINE
8
Layer 1
10
111.959290
20
98.533364
11
106.074000
21
98.533700
0
LINE
8
Layer 1
10
106.074000
20
98.533700
11
103.761772
21
98.717101
0
LINE
8
Layer 1
10
103.761772
20
98.717101
11
102.786958
21
98.989511
0
LINE
8
Layer 1
10
102.786958
20
98.989511
11
101.954030
21
99.420754
0
LINE
8
Layer 1
10
101.954030
20
99.420754
11
101.278754
21
100.039603
0
LINE
8
Layer 1
10
101.278754
20
100.039603
11
100.776895
21
100.874829
0
LINE
8
Layer 1
10
100.776895
20
100.874829
11
100.464219
21
101.955205
0
LINE
8
Layer 1
10
100.464219
20
101.955205
11
100.356490
21
103.309500
0
LINE
8
Layer 1
10
100.356490
20
103.309500
11
100.356000
21
106.740000
0
LINE
8
Layer 1
10
100.356000
20
106.740000
11
100.463729
21
108.094297
0
LINE
8
Layer 1
10
100.463729
20
108.094297
11
100.776405
21
109.174672
0
LINE
8
Layer 1
10
100.776405
20
109.174672
11
101.278264
21
110.009899
0
LINE
8
Layer 1
10
101.278264
20
110.009899
11
101.953540
21
110.628748
0
LINE
8
Layer 1
10
101.953540
20
110.628748
11
102.786468
21
111.059990
0
LINE
8
Layer 1
10
102.786468
20
111.059990
11
103.761282
21
111.332399
0
LINE
8
Layer 1
10
103.761282
20
111.332399
11
106.073510
21
111.515800
0
LINE
8
Layer 1
10
106.073510
20
111.515800
11
111.959000
21
111.516000
0
LINE
8
Layer 1
10
111.959000
20
111.516000
11
114.271228
21
111.332599
0
LINE
8
Layer 1
10
114.271228
20
111.332599
11
115.246042
21
111.060189
0
LINE
8
Layer 1
10
115.246042
20
111.060189
11
116.078970
21
110.628946
0
LINE
8
Layer 1
10
116.078970
20
110.628946
11
116.754246
21
110.010097
0
LINE
8
Layer 1
10
116.754246
20
110.010097
11
117.256105
21
109.174871
0
LINE
8
Layer 1
10
117.256105
20
109.174871
11
117.568781
21
108.094495
0
LINE
8
Layer 1
10
117.568781
20
108.094495
11
117.676510
21
106.740200
0
LINE
8
Layer 1
10
117.676510
20
106.740200
11
117.676800
21
103.309164
0
LINE
8
Layer 1
10
124.672000
20
103.108000
11
124.875043
21
101.023909
0
LINE
8
Layer 1
10
124.875043
20
101.023909
11
125.432408
21
99.400556
0
LINE
8
Layer 1
10
125.432408
20
99.400556
11
126.266452
21
98.181579
0
LINE
8
Layer 1
10
126.266452
20
98.181579
11
127.299532
21
97.310619
0
LINE
8
Layer 1
10
127.299532
20
97.310619
11
128.454005
21
96.731314
0
LINE
8
Layer 1
10
128.454005
20
96.731314
11
129.652226
21
96.387305
0
LINE
8
Layer 1
10
129.652226
20
96.387305
11
131.869340
21
96.179730
0
LINE
8
Layer 1
10
131.869340
20
96.179730
11
138.394000
21
96.179400
0
LINE
8
Layer 1
10
138.394000
20
96.179400
11
140.262699
21
96.260131
0
LINE
8
Layer 1
10
140.262699
20
96.260131
11
141.841320
21
96.509943
0
LINE
8
Layer 1
10
141.841320
20
96.509943
11
143.142473
21
96.940267
0
LINE
8
Layer 1
10
143.142473
20
96.940267
11
144.178773
21
97.562533
0
LINE
8
Layer 1
10
144.178773
20
97.562533
11
144.962829
21
98.388169
0
LINE
8
Layer 1
10
144.962829
20
98.388169
11
145.507254
21
99.428605
0
LINE
8
Layer 1
10
145.507254
20
99.428605
11
145.824661
21
100.695273
0
LINE
8
Layer 1
10
145.824661
20
100.695273
11
145.927660
21
102.199600
0
LINE
8
Layer 1
10
145.927660
20
102.199600
11
145.928000
21
102.704000
0
LINE
8
Layer 1
10
145.928000
20
102.704000
11
143.237000
21
102.704000
0
LINE
8
Layer 1
10
143.237000
20
102.704000
11
143.237000
21
102.132000
0
LINE
8
Layer 1
10
143.237000
20
102.132000
11
143.134920
21
101.175904
0
LINE
8
Layer 1
10
143.134920
20
101.175904
11
142.842870
21
100.392044
0
LINE
8
Layer 1
10
142.842870
20
100.392044
11
142.382133
21
99.766625
0
LINE
8
Layer 1
10
142.382133
20
99.766625
11
141.773990
21
99.285853
0
LINE
8
Layer 1
10
141.773990
20
99.285853
11
141.039726
21
98.935932
0
LINE
8
Layer 1
10
141.039726
20
98.935932
11
140.200622
21
98.703068
0
LINE
8
Layer 1
10
140.200622
20
98.703068
11
138.293030
21
98.533330
0
LINE
8
Layer 1
10
138.293030
20
98.533330
11
133.417000
21
98.533700
0
LINE
8
Layer 1
10
133.417000
20
98.533700
11
131.026997
21
98.730240
0
LINE
8
Layer 1
10
131.026997
20
98.730240
11
130.028272
21
99.012568
0
LINE
8
Layer 1
10
130.028272
20
99.012568
11
129.179316
21
99.450184
0
LINE
8
Layer 1
10
129.179316
20
99.450184
11
128.494318
21
100.067523
0
LINE
8
Layer 1
10
128.494318
20
100.067523
11
127.987467
21
100.889021
0
LINE
8
Layer 1
10
127.987467
20
100.889021
11
127.672952
21
101.939115
0
LINE
8
Layer 1
10
127.672952
20
101.939115
11
127.564960
21
103.242240
0
LINE
8
Layer 1
10
127.564960
20
103.242240
11
127.565000
21
106.841000
0
LINE
8
Layer 1
10
127.565000
20
106.841000
11
127.680152
21
108.268208
0
LINE
8
Layer 1
10
127.680152
20
108.268208
11
128.006952
21
109.373412
0
LINE
8
Layer 1
10
128.006952
20
109.373412
11
128.517417
21
110.197208
0
LINE
8
Layer 1
10
128.517417
20
110.197208
11
129.183562
21
110.780191
0
LINE
8
Layer 1
10
129.183562
20
110.780191
11
129.977406
21
111.162957
0
LINE
8
Layer 1
10
129.977406
20
111.162957
11
130.870964
21
111.386100
0
LINE
8
Layer 1
10
130.870964
20
111.386100
11
132.845290
21
111.515900
0
LINE
8
Layer 1
10
132.845290
20
111.515900
11
138.159000
21
111.516000
0
LINE
8
Layer 1
10
138.159000
20
111.516000
11
140.125446
21
111.366230
0
LINE
8
Layer 1
10
140.125446
20
111.366230
11
140.941163
21
111.152414
0
LINE
8
Layer 1
10
140.941163
20
111.152414
11
141.631546
21
110.822330
0
LINE
8
Layer 1
10
141.631546
20
110.822330
11
142.186349
21
110.358242
0
LINE
8
Layer 1
10
142.186349
20
110.358242
11
142.595324
21
109.742415
0
LINE
8
Layer 1
10
142.595324
20
109.742415
11
142.848223
21
108.957113
0
LINE
8
Layer 1
10
142.848223
20
108.957113
11
142.934800
21
107.984600
0
LINE
8
Layer 1
10
142.934800
20
107.984600
11
142.935000
21
107.581000
0
LINE
8
Layer 1
10
142.935000
20
107.581000
11
145.625000
21
107.581000
0
LINE
8
Layer 1
10
145.625000
20
107.581000
11
145.625000
21
108.052000
0
LINE
8
Layer 1
10
145.625000
20
108.052000
11
145.523446
21
109.344877
0
LINE
8
Layer 1
10
145.523446
20
109.344877
11
145.209850
21
110.493503
0
LINE
8
Layer 1
10
145.209850
20
110.493503
11
144.670812
21
111.489207
0
LINE
8
Layer 1
10
144.670812
20
111.489207
11
143.892931
21
112.323318
0
LINE
8
Layer 1
10
143.892931
20
112.323318
11
142.862807
21
112.987164
0
LINE
8
Layer 1
10
142.862807
20
112.987164
11
141.567039
21
113.472076
0
LINE
8
Layer 1
10
141.567039
20
113.472076
11
139.992227
21
113.769381
0
LINE
8
Layer 1
10
139.992227
20
113.769381
11
138.124970
21
113.870410
0
LINE
8
Layer 1
10
138.124970
20
113.870410
11
133.282000
21
113.870000
0
LINE
8
Layer 1
10
133.282000
20
113.870000
11
130.148928
21
113.662425
0
LINE
8
Layer 1
10
130.148928
20
113.662425
11
128.695508
21
113.318415
0
LINE
8
Layer 1
10
128.695508
20
113.318415
11
127.387916
21
112.739110
0
LINE
8
Layer 1
10
127.387916
20
112.739110
11
126.278967
21
111.868148
0
LINE
8
Layer 1
10
126.278967
20
111.868148
11
125.421472
21
110.649170
0
LINE
8
Layer 1
10
125.421472
20
110.649170
11
124.868245
21
109.025814
0
LINE
8
Layer 1
10
124.868245
20
109.025814
11
124.672100
21
106.941720
0
LINE
8
Layer 1
10
124.672100
20
106.941720
11
124.672000
21
103.108000
0
LINE
8
Layer 1
10
150.367000
20
96.448500
11
153.260000
21
96.448500
0
LINE
8
Layer 1
10
153.260000
20
96.448500
11
153.260000
21
104.756000
0
LINE
8
Layer 1
10
153.260000
20
104.756000
11
154.504000
21
104.756000
0
LINE
8
Layer 1
10
154.504000
20
104.756000
11
166.914400
21
96.448790
0
LINE
8
Layer 1
10
166.914400
20
96.448790
11
171.421000
21
96.448500
0
LINE
8
Layer 1
10
171.421000
20
96.448500
11
171.488234
21
96.515734
0
LINE
8
Layer 1
10
171.488234
20
96.515734
11
157.396234
21
105.932804
0
LINE
8
Layer 1
10
157.396234
20
105.932804
11
169.234834
21
113.533734
0
LINE
8
Layer 1
10
169.234834
20
113.533734
11
169.167600
21
113.600968
0
LINE
8
Layer 1
10
169.167600
20
113.600968
11
164.661000
21
113.601000
0
LINE
8
Layer 1
10
164.661000
20
113.601000
11
154.672180
21
107.109940
0
LINE
8
Layer 1
10
154.672180
20
107.109940
11
153.260000
21
107.110000
0
LINE
8
Layer 1
10
153.260000
20
107.110000
11
153.260000
21
120.798000
0
LINE
8
Layer 1
10
153.260000
20
120.798000
11
150.367000
21
120.798000
0
LINE
8
Layer 1
10
150.367000
20
120.798000
11
150.367000
21
96.448500
0
LINE
8
Layer 1
10
47.441300
20
72.973100
11
47.348023
21
71.631349
0
LINE
8
Layer 1
10
47.348023
20
71.631349
11
47.073446
21
70.563125
0
LINE
8
Layer 1
10
47.073446
20
70.563125
11
46.625452
21
69.739262
0
LINE
8
Layer 1
10
46.625452
20
69.739262
11
46.011924
21
69.130594
0
LINE
8
Layer 1
10
46.011924
20
69.130594
11
45.240743
21
68.707955
0
LINE
8
Layer 1
10
45.240743
20
68.707955
11
44.319792
21
68.442181
0
LINE
8
Layer 1
10
44.319792
20
68.442181
11
42.060110
21
68.264560
0
LINE
8
Layer 1
10
42.060110
20
68.264560
11
36.914300
21
68.264500
0
LINE
8
Layer 1
10
36.914300
20
68.264500
11
34.745535
21
68.433712
0
LINE
8
Layer 1
10
34.745535
20
68.433712
11
33.792201
21
68.693706
0
LINE
8
Layer 1
10
33.792201
20
68.693706
11
32.958289
21
69.113716
0
LINE
8
Layer 1
10
32.958289
20
69.113716
11
32.267840
21
69.726062
0
LINE
8
Layer 1
10
32.267840
20
69.726062
11
31.744895
21
70.563062
0
LINE
8
Layer 1
10
31.744895
20
70.563062
11
31.413498
21
71.657035
0
LINE
8
Layer 1
10
31.413498
20
71.657035
11
31.297690
21
73.040300
0
LINE
8
Layer 1
10
31.297690
20
73.040300
11
31.297700
21
76.302700
0
LINE
8
Layer 1
10
31.297700
20
76.302700
11
31.367264
21
77.364879
0
LINE
8
Layer 1
10
31.367264
20
77.364879
11
31.583050
21
78.323798
0
LINE
8
Layer 1
10
31.583050
20
78.323798
11
31.955699
21
79.167630
0
LINE
8
Layer 1
10
31.955699
20
79.167630
11
32.495854
21
79.884554
0
LINE
8
Layer 1
10
32.495854
20
79.884554
11
33.214156
21
80.462743
0
LINE
8
Layer 1
10
33.214156
20
80.462743
11
34.121246
21
80.890375
0
LINE
8
Layer 1
10
34.121246
20
80.890375
11
35.227767
21
81.155626
0
LINE
8
Layer 1
10
35.227767
20
81.155626
11
36.544360
21
81.246670
0
LINE
8
Layer 1
10
36.544360
20
81.246670
11
42.295500
21
81.246600
0
LINE
8
Layer 1
10
42.295500
20
81.246600
11
43.685004
21
81.172175
0
LINE
8
Layer 1
10
43.685004
20
81.172175
11
44.816354
21
80.947586
0
LINE
8
Layer 1
10
44.816354
20
80.947586
11
45.712014
21
80.570863
0
LINE
8
Layer 1
10
45.712014
20
80.570863
11
46.394450
21
80.040035
0
LINE
8
Layer 1
10
46.394450
20
80.040035
11
46.886127
21
79.353132
0
LINE
8
Layer 1
10
46.886127
20
79.353132
11
47.209511
21
78.508184
0
LINE
8
Layer 1
10
47.209511
20
78.508184
11
47.441260
21
76.336270
0
LINE
8
Layer 1
10
47.441260
20
76.336270
11
47.441300
21
72.973100
0
LINE
8
Layer 1
10
28.405400
20
60.192800
11
31.297700
21
60.192700
0
LINE
8
Layer 1
10
31.297700
20
60.192700
11
31.297700
21
68.466300
0
LINE
8
Layer 1
10
31.297700
20
68.466300
11
31.365000
21
68.466300
0
LINE
8
Layer 1
10
31.365000
20
68.466300
11
31.978266
21
67.314915
0
LINE
8
Layer 1
10
31.978266
20
67.314915
11
32.966743
21
66.519825
0
LINE
8
Layer 1
10
32.966743
20
66.519825
11
34.415563
21
66.058957
0
LINE
8
Layer 1
10
34.415563
20
66.058957
11
36.409860
21
65.910240
0
LINE
8
Layer 1
10
36.409860
20
65.910240
11
41.925600
21
65.910200
0
LINE
8
Layer 1
10
41.925600
20
65.910200
11
43.996030
21
66.001967
0
LINE
8
Layer 1
10
43.996030
20
66.001967
11
45.750762
21
66.291193
0
LINE
8
Layer 1
10
45.750762
20
66.291193
11
47.202013
21
66.798767
0
LINE
8
Layer 1
10
47.202013
20
66.798767
11
48.362003
21
67.545578
0
LINE
8
Layer 1
10
48.362003
20
67.545578
11
49.242947
21
68.552513
0
LINE
8
Layer 1
10
49.242947
20
68.552513
11
49.857067
21
69.840463
0
LINE
8
Layer 1
10
49.857067
20
69.840463
11
50.216578
21
71.430316
0
LINE
8
Layer 1
10
50.216578
20
71.430316
11
50.333700
21
73.342960
0
LINE
8
Layer 1
10
50.333700
20
73.342960
11
50.333700
21
76.369900
0
LINE
8
Layer 1
10
50.333700
20
76.369900
11
50.160940
21
78.380092
0
LINE
8
Layer 1
10
50.160940
20
78.380092
11
49.670510
21
79.996944
0
LINE
8
Layer 1
10
49.670510
20
79.996944
11
48.904190
21
81.259079
0
LINE
8
Layer 1
10
48.904190
20
81.259079
11
47.903756
21
82.205123
0
LINE
8
Layer 1
10
47.903756
20
82.205123
11
46.710988
21
82.873699
0
LINE
8
Layer 1
10
46.710988
20
82.873699
11
45.367662
21
83.303433
0
LINE
8
Layer 1
10
45.367662
20
83.303433
11
43.915557
21
83.532948
0
LINE
8
Layer 1
10
43.915557
20
83.532948
11
42.396450
21
83.600870
0
LINE
8
Layer 1
10
42.396450
20
83.600870
11
36.914300
21
83.600900
0
LINE
8
Layer 1
10
36.914300
20
83.600900
11
35.055585
21
83.426431
0
LINE
8
Layer 1
10
35.055585
20
83.426431
11
33.395511
21
82.886208
0
LINE
8
Layer 1
10
33.395511
20
82.886208
11
32.057046
21
81.955009
0
LINE
8
Layer 1
10
32.057046
20
81.955009
11
31.546845
21
81.334911
0
LINE
8
Layer 1
10
31.546845
20
81.334911
11
31.163160
21
80.607610
0
LINE
8
Layer 1
10
31.163160
20
80.607610
11
31.095900
21
80.607600
0
LINE
8
Layer 1
10
31.095900
20
80.607600
11
31.095900
21
83.331800
0
LINE
8
Layer 1
10
31.095900
20
83.331800
11
28.405300
21
83.331800
0
LINE
8
Layer 1
10
28.405300
20
83.331800
11
28.405400
21
60.192800
0
LINE
8
Layer 1
10
55.412100
20
66.179300
11
58.304500
21
66.179300
0
LINE
8
Layer 1
10
58.304500
20
66.179300
11
58.304500
21
83.331800
0
LINE
8
Layer 1
10
58.304500
20
83.331800
11
55.412100
21
83.331800
0
LINE
8
Layer 1
10
55.412100
20
83.331800
11
55.412100
21
66.179300
0
LINE
8
Layer 1
10
55.412100
20
87.367700
11
58.304500
21
87.367700
0
LINE
8
Layer 1
10
58.304500
20
87.367700
11
58.304500
21
90.529200
0
LINE
8
Layer 1
10
58.304500
20
90.529200
11
55.412100
21
90.529200
0
LINE
8
Layer 1
10
55.412100
20
90.529200
11
55.412100
21
87.367700
0
LINE
8
Layer 1
10
63.383000
20
72.838500
11
63.586043
21
70.754409
0
LINE
8
Layer 1
10
63.586043
20
70.754409
11
64.143408
21
69.131056
0
LINE
8
Layer 1
10
64.143408
20
69.131056
11
64.977452
21
67.912079
0
LINE
8
Layer 1
10
64.977452
20
67.912079
11
66.010532
21
67.041119
0
LINE
8
Layer 1
10
66.010532
20
67.041119
11
67.165005
21
66.461814
0
LINE
8
Layer 1
10
67.165005
20
66.461814
11
68.363226
21
66.117805
0
LINE
8
Layer 1
10
68.363226
20
66.117805
11
70.580340
21
65.910230
0
LINE
8
Layer 1
10
70.580340
20
65.910230
11
77.105000
21
65.910200
0
LINE
8
Layer 1
10
77.105000
20
65.910200
11
78.973702
21
65.990931
0
LINE
8
Layer 1
10
78.973702
20
65.990931
11
80.552324
21
66.240743
0
LINE
8
Layer 1
10
80.552324
20
66.240743
11
81.853478
21
66.671067
0
LINE
8
Layer 1
10
81.853478
20
66.671067
11
82.889776
21
67.293333
0
LINE
8
Layer 1
10
82.889776
20
67.293333
11
83.673831
21
68.118969
0
LINE
8
Layer 1
10
83.673831
20
68.118969
11
84.218255
21
69.159405
0
LINE
8
Layer 1
10
84.218255
20
69.159405
11
84.535661
21
70.426073
0
LINE
8
Layer 1
10
84.535661
20
70.426073
11
84.638660
21
71.930400
0
LINE
8
Layer 1
10
84.638660
20
71.930400
11
84.638600
21
72.434900
0
LINE
8
Layer 1
10
84.638600
20
72.434900
11
81.948100
21
72.434900
0
LINE
8
Layer 1
10
81.948100
20
72.434900
11
81.948100
21
71.863200
0
LINE
8
Layer 1
10
81.948100
20
71.863200
11
81.846020
21
70.907104
0
LINE
8
Layer 1
10
81.846020
20
70.907104
11
81.553970
21
70.123244
0
LINE
8
Layer 1
10
81.553970
20
70.123244
11
81.093233
21
69.497825
0
LINE
8
Layer 1
10
81.093233
20
69.497825
11
80.485091
21
69.017053
0
LINE
8
Layer 1
10
80.485091
20
69.017053
11
79.750828
21
68.667132
0
LINE
8
Layer 1
10
79.750828
20
68.667132
11
78.911726
21
68.434268
0
LINE
8
Layer 1
10
78.911726
20
68.434268
11
77.004140
21
68.264530
0
LINE
8
Layer 1
10
77.004140
20
68.264530
11
72.127400
21
68.264500
0
LINE
8
Layer 1
10
72.127400
20
68.264500
11
69.737397
21
68.461040
0
LINE
8
Layer 1
10
69.737397
20
68.461040
11
68.738672
21
68.743368
0
LINE
8
Layer 1
10
68.738672
20
68.743368
11
67.889716
21
69.180984
0
LINE
8
Layer 1
10
67.889716
20
69.180984
11
67.204718
21
69.798323
0
LINE
8
Layer 1
10
67.204718
20
69.798323
11
66.697867
21
70.619821
0
LINE
8
Layer 1
10
66.697867
20
70.619821
11
66.383352
21
71.669915
0
LINE
8
Layer 1
10
66.383352
20
71.669915
11
66.275360
21
72.973040
0
LINE
8
Layer 1
10
66.275360
20
72.973040
11
66.275400
21
76.571700
0
LINE
8
Layer 1
10
66.275400
20
76.571700
11
66.390551
21
77.998908
0
LINE
8
Layer 1
10
66.390551
20
77.998908
11
66.717350
21
79.104112
0
LINE
8
Layer 1
10
66.717350
20
79.104112
11
67.227814
21
79.927908
0
LINE
8
Layer 1
10
67.227814
20
79.927908
11
67.893959
21
80.510891
0
LINE
8
Layer 1
10
67.893959
20
80.510891
11
68.687802
21
80.893657
0
LINE
8
Layer 1
10
68.687802
20
80.893657
11
69.581360
21
81.116800
0
LINE
8
Layer 1
10
69.581360
20
81.116800
11
71.555690
21
81.246600
0
LINE
8
Layer 1
10
71.555690
20
81.246600
11
76.869600
21
81.246600
0
LINE
8
Layer 1
10
76.869600
20
81.246600
11
78.836046
21
81.096830
0
LINE
8
Layer 1
10
78.836046
20
81.096830
11
79.651763
21
80.883014
0
LINE
8
Layer 1
10
79.651763
20
80.883014
11
80.342146
21
80.552930
0
LINE
8
Layer 1
10
80.342146
20
80.552930
11
80.896949
21
80.088842
0
LINE
8
Layer 1
10
80.896949
20
80.088842
11
81.305924
21
79.473015
0
LINE
8
Layer 1
10
81.305924
20
79.473015
11
81.558823
21
78.687713
0
LINE
8
Layer 1
10
81.558823
20
78.687713
11
81.645400
21
77.715200
0
LINE
8
Layer 1
10
81.645400
20
77.715200
11
81.645400
21
77.311600
0
LINE
8
Layer 1
10
81.645400
20
77.311600
11
84.336000
21
77.311600
0
LINE
8
Layer 1
10
84.336000
20
77.311600
11
84.336000
21
77.782500
0
LINE
8
Layer 1
10
84.336000
20
77.782500
11
84.234446
21
79.075377
0
LINE
8
Layer 1
10
84.234446
20
79.075377
11
83.920850
21
80.224003
0
LINE
8
Layer 1
10
83.920850
20
80.224003
11
83.381812
21
81.219707
0
LINE
8
Layer 1
10
83.381812
20
81.219707
11
82.603931
21
82.053818
0
LINE
8
Layer 1
10
82.603931
20
82.053818
11
81.573807
21
82.717664
0
LINE
8
Layer 1
10
81.573807
20
82.717664
11
80.278039
21
83.202576
0
LINE
8
Layer 1
10
80.278039
20
83.202576
11
78.703227
21
83.499881
0
LINE
8
Layer 1
10
78.703227
20
83.499881
11
76.835970
21
83.600910
0
LINE
8
Layer 1
10
76.835970
20
83.600910
11
71.992900
21
83.600900
0
LINE
8
Layer 1
10
71.992900
20
83.600900
11
68.859832
21
83.393325
0
LINE
8
Layer 1
10
68.859832
20
83.393325
11
67.406412
21
83.049315
0
LINE
8
Layer 1
10
67.406412
20
83.049315
11
66.098820
21
82.470010
0
LINE
8
Layer 1
10
66.098820
20
82.470010
11
64.989869
21
81.599048
0
LINE
8
Layer 1
10
64.989869
20
81.599048
11
64.132373
21
80.380070
0
LINE
8
Layer 1
10
64.132373
20
80.380070
11
63.579146
21
78.756714
0
LINE
8
Layer 1
10
63.579146
20
78.756714
11
63.383000
21
76.672620
0
LINE
8
Layer 1
10
63.383000
20
76.672620
11
63.383000
21
72.838500
0
LINE
8
Layer 1
10
89.078100
20
66.179300
11
91.970500
21
66.179300
0
LINE
8
Layer 1
10
91.970500
20
66.179300
11
91.970500
21
74.486500
0
LINE
8
Layer 1
10
91.970500
20
74.486500
11
93.214900
21
74.486500
0
LINE
8
Layer 1
10
93.214900
20
74.486500
11
105.625300
21
66.179290
0
LINE
8
Layer 1
10
105.625300
20
66.179290
11
110.132000
21
66.179300
0
LINE
8
Layer 1
10
110.132000
20
66.179300
11
110.199234
21
66.246534
0
LINE
8
Layer 1
10
110.199234
20
66.246534
11
96.107234
21
75.663614
0
LINE
8
Layer 1
10
96.107234
20
75.663614
11
107.945834
21
83.264544
0
LINE
8
Layer 1
10
107.945834
20
83.264544
11
107.878600
21
83.331778
0
LINE
8
Layer 1
10
107.878600
20
83.331778
11
103.372000
21
83.331800
0
LINE
8
Layer 1
10
103.372000
20
83.331800
11
93.383170
21
76.840740
0
LINE
8
Layer 1
10
93.383170
20
76.840740
11
91.970500
21
76.840700
0
LINE
8
Layer 1
10
91.970500
20
76.840700
11
91.970500
21
90.529100
0
LINE
8
Layer 1
10
91.970500
20
90.529100
11
89.078100
21
90.529100
0
LINE
8
Layer 1
10
89.078100
20
90.529100
11
89.078100
21
66.179300
0
LINE
8
Layer 1
10
113.562000
20
66.179300
11
116.455000
21
66.179300
0
LINE
8
Layer 1
10
116.455000
20
66.179300
11
116.455000
21
83.331800
0
LINE
8
Layer 1
10
116.455000
20
83.331800
11
113.562000
21
83.331800
0
LINE
8
Layer 1
10
113.562000
20
83.331800
11
113.562000
21
66.179300
0
LINE
8
Layer 1
10
113.562000
20
87.367700
11
116.455000
21
87.367700
0
LINE
8
Layer 1
10
116.455000
20
87.367700
11
116.455000
21
90.529200
0
LINE
8
Layer 1
10
116.455000
20
90.529200
11
113.562000
21
90.529200
0
LINE
8
Layer 1
10
113.562000
20
90.529200
11
113.562000
21
87.367700
0
LINE
8
Layer 1
10
122.307000
20
66.179300
11
125.199000
21
66.179300
0
LINE
8
Layer 1
10
125.199000
20
66.179300
11
125.199000
21
75.932700
0
LINE
8
Layer 1
10
125.199000
20
75.932700
11
125.278680
21
77.319774
0
LINE
8
Layer 1
10
125.278680
20
77.319774
11
125.546360
21
78.465641
0
LINE
8
Layer 1
10
125.546360
20
78.465641
11
126.044999
21
79.387642
0
LINE
8
Layer 1
10
126.044999
20
79.387642
11
126.817559
21
80.103119
0
LINE
8
Layer 1
10
126.817559
20
80.103119
11
127.906999
21
80.629413
0
LINE
8
Layer 1
10
127.906999
20
80.629413
11
129.356279
21
80.983867
0
LINE
8
Layer 1
10
129.356279
20
80.983867
11
131.208359
21
81.183822
0
LINE
8
Layer 1
10
131.208359
20
81.183822
11
133.506200
21
81.246620
0
LINE
8
Layer 1
10
133.506200
20
81.246620
11
134.246000
21
81.246600
0
LINE
8
Layer 1
10
134.246000
20
81.246600
11
136.130268
21
81.170861
0
LINE
8
Layer 1
10
136.130268
20
81.170861
11
137.603459
21
80.949689
0
LINE
8
Layer 1
10
137.603459
20
80.949689
11
138.714839
21
80.592147
0
LINE
8
Layer 1
10
138.714839
20
80.592147
11
139.513674
21
80.107301
0
LINE
8
Layer 1
10
139.513674
20
80.107301
11
140.049230
21
79.504217
0
LINE
8
Layer 1
10
140.049230
20
79.504217
11
140.370774
21
78.791958
0
LINE
8
Layer 1
10
140.370774
20
78.791958
11
140.568890
21
77.076180
0
LINE
8
Layer 1
10
140.568890
20
77.076180
11
140.569000
21
66.179300
0
LINE
8
Layer 1
10
140.569000
20
66.179300
11
143.462000
21
66.179300
0
LINE
8
Layer 1
10
143.462000
20
66.179300
11
143.462000
21
77.782500
0
LINE
8
Layer 1
10
143.462000
20
77.782500
11
143.377722
21
78.920878
0
LINE
8
Layer 1
10
143.377722
20
78.920878
11
143.109386
21
79.996984
0
LINE
8
Layer 1
10
143.109386
20
79.996984
11
142.633737
21
80.983228
0
LINE
8
Layer 1
10
142.633737
20
80.983228
11
141.927523
21
81.852022
0
LINE
8
Layer 1
10
141.927523
20
81.852022
11
140.967488
21
82.575777
0
LINE
8
Layer 1
10
140.967488
20
82.575777
11
139.730381
21
83.126902
0
LINE
8
Layer 1
10
139.730381
20
83.126902
11
138.192946
21
83.477810
0
LINE
8
Layer 1
10
138.192946
20
83.477810
11
136.331930
21
83.600910
0
LINE
8
Layer 1
10
136.331930
20
83.600910
11
131.993000
21
83.600900
0
LINE
8
Layer 1
10
131.993000
20
83.600900
11
129.543614
21
83.470048
0
LINE
8
Layer 1
10
129.543614
20
83.470048
11
127.582949
21
82.982903
0
LINE
8
Layer 1
10
127.582949
20
82.982903
11
126.780960
21
82.561382
0
LINE
8
Layer 1
10
126.780960
20
82.561382
11
126.095240
21
81.997579
0
LINE
8
Layer 1
10
126.095240
20
81.997579
11
125.523816
21
81.273761
0
LINE
8
Layer 1
10
125.523816
20
81.273761
11
125.064720
21
80.372190
0
LINE
8
Layer 1
10
125.064720
20
80.372190
11
124.998000
21
80.372200
0
LINE
8
Layer 1
10
124.998000
20
80.372200
11
124.998000
21
83.331800
0
LINE
8
Layer 1
10
124.998000
20
83.331800
11
122.307000
21
83.331800
0
LINE
8
Layer 1
10
122.307000
20
83.331800
11
122.307000
21
66.179300
0
LINE
8
Layer 1
10
167.172000
20
73.914800
11
167.098889
21
72.867072
0
LINE
8
Layer 1
10
167.098889
20
72.867072
11
166.870885
21
71.946254
0
LINE
8
Layer 1
10
166.870885
20
71.946254
11
166.474981
21
71.156286
0
LINE
8
Layer 1
10
166.474981
20
71.156286
11
165.898171
21
70.501111
0
LINE
8
Layer 1
10
165.898171
20
70.501111
11
165.127450
21
69.984670
0
LINE
8
Layer 1
10
165.127450
20
69.984670
11
164.149810
21
69.610903
0
LINE
8
Layer 1
10
164.149810
20
69.610903
11
162.952245
21
69.383753
0
LINE
8
Layer 1
10
162.952245
20
69.383753
11
161.521750
21
69.307160
0
LINE
8
Layer 1
10
161.521750
20
69.307160
11
155.939000
21
69.307100
0
LINE
8
Layer 1
10
155.939000
20
69.307100
11
154.712731
21
69.366811
0
LINE
8
Layer 1
10
154.712731
20
69.366811
11
153.677221
21
69.557767
0
LINE
8
Layer 1
10
153.677221
20
69.557767
11
152.824586
21
69.897705
0
LINE
8
Layer 1
10
152.824586
20
69.897705
11
152.146945
21
70.404360
0
LINE
8
Layer 1
10
152.146945
20
70.404360
11
151.636415
21
71.095468
0
LINE
8
Layer 1
10
151.636415
20
71.095468
11
151.285114
21
71.988765
0
LINE
8
Layer 1
10
151.285114
20
71.988765
11
151.085160
21
73.101987
0
LINE
8
Layer 1
10
151.085160
20
73.101987
11
151.028670
21
74.452870
0
LINE
8
Layer 1
10
151.028670
20
74.452870
11
151.029000
21
77.614300
0
LINE
8
Layer 1
10
151.029000
20
77.614300
11
151.136921
21
78.581494
0
LINE
8
Layer 1
10
151.136921
20
78.581494
11
151.425750
21
79.373694
0
LINE
8
Layer 1
10
151.425750
20
79.373694
11
151.880904
21
80.005090
0
LINE
8
Layer 1
10
151.880904
20
80.005090
11
152.487799
21
80.489870
0
LINE
8
Layer 1
10
152.487799
20
80.489870
11
153.231852
21
80.842222
0
LINE
8
Layer 1
10
153.231852
20
80.842222
11
154.098481
21
81.076336
0
LINE
8
Layer 1
10
154.098481
20
81.076336
11
156.141130
21
81.246600
0
LINE
8
Layer 1
10
156.141130
20
81.246600
11
162.027000
21
81.246600
0
LINE
8
Layer 1
10
162.027000
20
81.246600
11
163.419263
21
81.152206
0
LINE
8
Layer 1
10
163.419263
20
81.152206
11
164.557314
21
80.876117
0
LINE
8
Layer 1
10
164.557314
20
80.876117
11
165.461252
21
80.428977
0
LINE
8
Layer 1
10
165.461252
20
80.428977
11
166.151177
21
79.821425
0
LINE
8
Layer 1
10
166.151177
20
79.821425
11
166.647192
21
79.064104
0
LINE
8
Layer 1
10
166.647192
20
79.064104
11
166.969395
21
78.167655
0
LINE
8
Layer 1
10
166.969395
20
78.167655
11
167.137888
21
77.142720
0
LINE
8
Layer 1
10
167.137888
20
77.142720
11
167.172770
21
75.999940
0
LINE
8
Layer 1
10
167.172770
20
75.999940
11
167.172000
21
73.914800
0
LINE
8
Layer 1
10
170.064390
20
83.331880
11
167.374000
21
83.331800
0
LINE
8
Layer 1
10
167.374000
20
83.331800
11
167.374000
21
80.271300
0
LINE
8
Layer 1
10
167.374000
20
80.271300
11
167.307000
21
80.271300
0
LINE
8
Layer 1
10
167.307000
20
80.271300
11
166.909061
21
81.215835
0
LINE
8
Layer 1
10
166.909061
20
81.215835
11
166.406283
21
81.969216
0
LINE
8
Layer 1
10
166.406283
20
81.969216
11
165.813642
21
82.551543
0
LINE
8
Layer 1
10
165.813642
20
82.551543
11
165.146116
21
82.982917
0
LINE
8
Layer 1
10
165.146116
20
82.982917
11
163.646319
21
83.473213
0
LINE
8
Layer 1
10
163.646319
20
83.473213
11
162.026710
21
83.600910
0
LINE
8
Layer 1
10
162.026710
20
83.600910
11
155.872000
21
83.600900
0
LINE
8
Layer 1
10
155.872000
20
83.600900
11
153.301224
21
83.393325
0
LINE
8
Layer 1
10
153.301224
20
83.393325
11
152.005589
21
83.049315
0
LINE
8
Layer 1
10
152.005589
20
83.049315
11
150.793509
21
82.470010
0
LINE
8
Layer 1
10
150.793509
20
82.470010
11
149.732775
21
81.599048
0
LINE
8
Layer 1
10
149.732775
20
81.599048
11
148.891177
21
80.380070
0
LINE
8
Layer 1
10
148.891177
20
80.380070
11
148.336505
21
78.756714
0
LINE
8
Layer 1
10
148.336505
20
78.756714
11
148.136550
21
76.672620
0
LINE
8
Layer 1
10
148.136550
20
76.672620
11
148.137000
21
73.813900
0
LINE
8
Layer 1
10
148.137000
20
73.813900
11
148.248999
21
72.254130
0
LINE
8
Layer 1
10
148.248999
20
72.254130
11
148.585257
21
70.883148
0
LINE
8
Layer 1
10
148.585257
20
70.883148
11
149.146169
21
69.706866
0
LINE
8
Layer 1
10
149.146169
20
69.706866
11
149.932130
21
68.731196
0
LINE
8
Layer 1
10
149.932130
20
68.731196
11
150.943533
21
67.962051
0
LINE
8
Layer 1
10
150.943533
20
67.962051
11
152.180773
21
67.405342
0
LINE
8
Layer 1
10
152.180773
20
67.405342
11
153.644244
21
67.066981
0
LINE
8
Layer 1
10
153.644244
20
67.066981
11
155.334340
21
66.952880
0
LINE
8
Layer 1
10
155.334340
20
66.952880
11
161.287000
21
66.952800
0
LINE
8
Layer 1
10
161.287000
20
66.952800
11
163.813635
21
67.140932
0
LINE
8
Layer 1
10
163.813635
20
67.140932
11
165.482642
21
67.675899
0
LINE
8
Layer 1
10
165.482642
20
67.675899
11
166.508432
21
68.513556
0
LINE
8
Layer 1
10
166.508432
20
68.513556
11
167.105410
21
69.609760
0
LINE
8
Layer 1
10
167.105410
20
69.609760
11
167.172000
21
69.609800
0
LINE
8
Layer 1
10
167.172000
20
69.609800
11
167.172000
21
67.053700
0
LINE
8
Layer 1
10
167.172000
20
67.053700
11
167.062563
21
65.518825
0
LINE
8
Layer 1
10
167.062563
20
65.518825
11
166.725319
21
64.359951
0
LINE
8
Layer 1
10
166.725319
20
64.359951
11
166.146866
21
63.524264
0
LINE
8
Layer 1
10
166.146866
20
63.524264
11
165.313806
21
62.958950
0
LINE
8
Layer 1
10
165.313806
20
62.958950
11
164.212738
21
62.611196
0
LINE
8
Layer 1
10
164.212738
20
62.611196
11
162.830261
21
62.428189
0
LINE
8
Layer 1
10
162.830261
20
62.428189
11
159.167480
21
62.345160
0
LINE
8
Layer 1
10
159.167480
20
62.345160
11
156.343000
21
62.345200
0
LINE
8
Layer 1
10
156.343000
20
62.345200
11
154.430155
21
62.479730
0
LINE
8
Layer 1
10
154.430155
20
62.479730
11
152.845230
21
62.942176
0
LINE
8
Layer 1
10
152.845230
20
62.942176
11
152.230915
21
63.323957
0
LINE
8
Layer 1
10
152.230915
20
63.323957
11
151.764793
21
63.820825
0
LINE
8
Layer 1
10
151.764793
20
63.820825
11
151.468934
21
64.443814
0
LINE
8
Layer 1
10
151.468934
20
64.443814
11
151.365410
21
65.203960
0
LINE
8
Layer 1
10
151.365410
20
65.203960
11
151.365000
21
65.674800
0
LINE
8
Layer 1
10
151.365000
20
65.674800
11
148.675000
21
65.674800
0
LINE
8
Layer 1
10
148.675000
20
65.674800
11
148.675000
21
65.103100
0
LINE
8
Layer 1
10
148.675000
20
65.103100
11
148.746075
21
64.255785
0
LINE
8
Layer 1
10
148.746075
20
64.255785
11
148.978743
21
63.382065
0
LINE
8
Layer 1
10
148.978743
20
63.382065
11
149.402169
21
62.524897
0
LINE
8
Layer 1
10
149.402169
20
62.524897
11
150.045520
21
61.727244
0
LINE
8
Layer 1
10
150.045520
20
61.727244
11
150.937961
21
61.032064
0
LINE
8
Layer 1
10
150.937961
20
61.032064
11
152.108658
21
60.482319
0
LINE
8
Layer 1
10
152.108658
20
60.482319
11
153.586775
21
60.120967
0
LINE
8
Layer 1
10
153.586775
20
60.120967
11
155.401480
21
59.990970
0
LINE
8
Layer 1
10
155.401480
20
59.990970
11
161.926000
21
59.990900
0
LINE
8
Layer 1
10
161.926000
20
59.990900
11
164.715914
21
60.234736
0
LINE
8
Layer 1
10
164.715914
20
60.234736
11
166.082690
21
60.593920
0
LINE
8
Layer 1
10
166.082690
20
60.593920
11
167.345021
21
61.159629
0
LINE
8
Layer 1
10
167.345021
20
61.159629
11
168.438665
21
61.968121
0
LINE
8
Layer 1
10
168.438665
20
61.968121
11
169.299378
21
63.055657
0
LINE
8
Layer 1
10
169.299378
20
63.055657
11
169.862917
21
64.458497
0
LINE
8
Layer 1
10
169.862917
20
64.458497
11
170.065040
21
66.212900
0
LINE
8
Layer 1
10
170.065040
20
66.212900
11
170.064390
21
83.331880
 0 
ENDSEC
 0 
EOF