  0
SECTION
  2
HEADER
  9
$ACADVER
  1
AC1014
  9
$HANDSEED
  5
FFFF
  9
$MEASUREMENT
 70
     1
  0
ENDSEC
  0
SECTION
  2
TABLES
  0
TABLE
  2
VPORT
  5
8
330
0
100
AcDbSymbolTable
 70
     4
  0
VPORT
  5
2E
330
8
100
AcDbSymbolTableRecord
100
AcDbViewportTableRecord
  2
*ACTIVE
 70
     0
 10
0.0
 20
0.0
 11
1.0
 21
1.0
 12
210.0
 22
148.5
 13
0.0
 23
0.0
 14
10.0
 24
10.0
 15
10.0
 25
10.0
 16
0.0
 26
0.0
 36
1.0
 17
0.0
 27
0.0
 37
0.0
 40
341.0
 41
1.24
 42
50.0
 43
0.0
 44
0.0
 50
0.0
 51
0.0
 71
     0
 72
   100
 73
     1
 74
     3
 75
     0
 76
     0
 77
     0
 78
     0
  0
ENDTAB
  0
TABLE
  2
LTYPE
  5
5
330
0
100
AcDbSymbolTable
 70
     1
  0
LTYPE
  5
14
330
5
100
AcDbSymbolTableRecord
100
AcDbLinetypeTableRecord
  2
BYBLOCK
 70
     0
  3

 72
    65
 73
     0
 40
0.0
  0
LTYPE
  5
15
330
5
100
AcDbSymbolTableRecord
100
AcDbLinetypeTableRecord
  2
BYLAYER
 70
     0
  3

 72
    65
 73
     0
 40
0.0
  0
LTYPE
  5
16
330
5
100
AcDbSymbolTableRecord
100
AcDbLinetypeTableRecord
  2
CONTINUOUS
 70
     0
  3
Solid line
 72
    65
 73
     0
 40
0.0
  0
ENDTAB
  0
TABLE
  2
LAYER
  5
2
100
AcDbSymbolTable
 70
2
  0
LAYER
  5
50
100
AcDbSymbolTableRecord
100
AcDbLayerTableRecord
  2
0
 70
0
  6
CONTINUOUS
  0
LAYER
  5
51
100
AcDbSymbolTableRecord
100
AcDbLayerTableRecord
  2
Ebene_1
 70
0
  6
CONTINUOUS
  0
ENDTAB
  0
TABLE
  2
STYLE
  5
3
330
0
100
AcDbSymbolTable
 70
     1
  0
STYLE
  5
11
330
3
100
AcDbSymbolTableRecord
100
AcDbTextStyleTableRecord
  2
STANDARD
 70
     0
 40
0.0
 41
1.0
 50
0.0
 71
     0
 42
2.5
  3
txt
  4

  0
ENDTAB
  0
TABLE
  2
VIEW
  5
6
330
0
100
AcDbSymbolTable
 70
     0
  0
ENDTAB
  0
TABLE
  2
UCS
  5
7
330
0
100
AcDbSymbolTable
 70
     0
  0
ENDTAB
  0
TABLE
  2
APPID
  5
9
330
0
100
AcDbSymbolTable
 70
     2
  0
APPID
  5
12
330
9
100
AcDbSymbolTableRecord
100
AcDbRegAppTableRecord
  2
ACAD
 70
     0
  0
ENDTAB
  0
TABLE
  2
DIMSTYLE
  5
A
330
0
100
AcDbSymbolTable
 70
     1
  0
DIMSTYLE
105
27
330
A
100
AcDbSymbolTableRecord
100
AcDbDimStyleTableRecord
  2
ISO-25
 70
     0
  3

  4

  5

  6

  7

 40
1.0
 41
2.5
 42
0.625
 43
3.75
 44
1.25
 45
0.0
 46
0.0
 47
0.0
 48
0.0
140
2.5
141
2.5
142
0.0
143
0.03937007874016
144
1.0
145
0.0
146
1.0
147
0.625
 71
     0
 72
     0
 73
     0
 74
     0
 75
     0
 76
     0
 77
     1
 78
     8
170
     0
171
     3
172
     1
173
     0
174
     0
175
     0
176
     0
177
     0
178
     0
270
     2
271
     2
272
     2
273
     2
274
     3
340
11
275
     0
280
     0
281
     0
282
     0
283
     0
284
     8
285
     0
286
     0
287
     3
288
     0
  0
ENDTAB
  0
TABLE
  2
BLOCK_RECORD
  5
1
330
0
100
AcDbSymbolTable
 70
     1
  0
BLOCK_RECORD
  5
1F
330
1
100
AcDbSymbolTableRecord
100
AcDbBlockTableRecord
  2
*MODEL_SPACE
  0
BLOCK_RECORD
  5
1B
330
1
100
AcDbSymbolTableRecord
100
AcDbBlockTableRecord
  2
*PAPER_SPACE
  0
ENDTAB
  0
ENDSEC
  0
SECTION
  2
BLOCKS
  0
BLOCK
  5
20
330
1F
100
AcDbEntity
  8
0
100
AcDbBlockBegin
  2
*MODEL_SPACE
 70
     0
 10
0.0
 20
0.0
 30
0.0
  3
*MODEL_SPACE
  1

  0
ENDBLK
  5
21
330
1F
100
AcDbEntity
  8
0
100
AcDbBlockEnd
  0
BLOCK
  5
1C
330
1B
100
AcDbEntity
 67
     1
  8
0
100
AcDbBlockBegin
  2
*PAPER_SPACE
  1

  0
ENDBLK
  5
1D
330
1B
100
AcDbEntity
 67
     1
  8
0
100
AcDbBlockEnd
  0
ENDSEC
  0
SECTION
  2
ENTITIES
  0
LWPOLYLINE
  5
100
100
AcDbEntity
  8
Ebene_1
 62
7
100
AcDbPolyline
 90
8
 70
1
 10
57.403134
 20
545.809819
 30
0.0
 10
57.403134
 20
356.021079
 30
0.0
 10
71.046531
 20
356.021079
 30
0.0
 10
71.046531
 20
351.469134
 30
0.0
 10
52.173372
 20
351.469134
 30
0.0
 10
52.173372
 20
550.336890
 30
0.0
 10
71.040313
 20
550.336890
 30
0.0
 10
71.040313
 20
545.784945
 30
0.0
  0
SPLINE
  5
101
100
AcDbEntity
  8
Ebene_1
 62
7
100
AcDbSpline
 70
8
 71
3
 72
8
 73
4
 74
0
 40
0
 40
0
 40
0
 40
0
 40
1
 40
1
 40
1
 40
1
 10
110.223106
 20
476.044423
 30
0.0
 10
112.614211
 20
479.549969
 30
0.0
 10
115.777653
 20
482.460250
 30
0.0
 10
119.470022
 20
484.551337
 30
0.0
  0
SPLINE
  5
102
100
AcDbEntity
  8
Ebene_1
 62
7
100
AcDbSpline
 70
8
 71
3
 72
8
 73
4
 74
0
 40
0
 40
0
 40
0
 40
0
 40
1
 40
1
 40
1
 40
1
 10
119.470022
 20
484.551337
 30
0.0
 10
123.076754
 20
486.559913
 30
0.0
 10
127.212059
 20
487.567311
 30
0.0
 10
131.863500
 20
487.567311
 30
0.0
  0
SPLINE
  5
103
100
AcDbEntity
  8
Ebene_1
 62
7
100
AcDbSpline
 70
8
 71
3
 72
8
 73
4
 74
0
 40
0
 40
0
 40
0
 40
0
 40
1
 40
1
 40
1
 40
1
 10
131.863500
 20
487.567311
 30
0.0
 10
136.340823
 20
487.567311
 30
0.0
 10
140.426380
 20
486.696720
 30
0.0
 10
144.126390
 20
484.955539
 30
0.0
  0
SPLINE
  5
104
100
AcDbEntity
  8
Ebene_1
 62
7
100
AcDbSpline
 70
8
 71
3
 72
8
 73
4
 74
0
 40
0
 40
0
 40
0
 40
0
 40
1
 40
1
 40
1
 40
1
 10
144.126390
 20
484.955539
 30
0.0
 10
147.826400
 20
483.220577
 30
0.0
 10
150.637163
 20
480.161073
 30
0.0
 10
152.552463
 20
475.770809
 30
0.0
  0
SPLINE
  5
105
100
AcDbEntity
  8
Ebene_1
 62
7
100
AcDbSpline
 70
8
 71
3
 72
8
 73
4
 74
0
 40
0
 40
0
 40
0
 40
0
 40
1
 40
1
 40
1
 40
1
 10
152.552463
 20
475.770809
 30
0.0
 10
154.654317
 20
478.880061
 30
0.0
 10
157.502392
 20
481.622421
 30
0.0
 10
161.115343
 20
483.997890
 30
0.0
  0
SPLINE
  5
106
100
AcDbEntity
  8
Ebene_1
 62
7
100
AcDbSpline
 70
8
 71
3
 72
8
 73
4
 74
0
 40
0
 40
0
 40
0
 40
0
 40
1
 40
1
 40
1
 40
1
 10
161.115343
 20
483.997890
 30
0.0
 10
164.722075
 20
486.379577
 30
0.0
 10
168.987969
 20
487.567311
 30
0.0
 10
173.925461
 20
487.567311
 30
0.0
  0
SPLINE
  5
107
100
AcDbEntity
  8
Ebene_1
 62
7
100
AcDbSpline
 70
8
 71
3
 72
8
 73
4
 74
0
 40
0
 40
0
 40
0
 40
0
 40
1
 40
1
 40
1
 40
1
 10
173.925461
 20
487.567311
 30
0.0
 10
177.669000
 20
487.567311
 30
0.0
 10
181.138925
 20
487.107142
 30
0.0
 10
184.335236
 20
486.199240
 30
0.0
  0
SPLINE
  5
108
100
AcDbEntity
  8
Ebene_1
 62
7
100
AcDbSpline
 70
8
 71
3
 72
8
 73
4
 74
0
 40
0
 40
0
 40
0
 40
0
 40
1
 40
1
 40
1
 40
1
 10
184.335236
 20
486.199240
 30
0.0
 10
187.531547
 20
485.278902
 30
0.0
 10
190.267689
 20
483.817553
 30
0.0
 10
192.556098
 20
481.802758
 30
0.0
  0
SPLINE
  5
109
100
AcDbEntity
  8
Ebene_1
 62
7
100
AcDbSpline
 70
8
 71
3
 72
8
 73
4
 74
0
 40
0
 40
0
 40
0
 40
0
 40
1
 40
1
 40
1
 40
1
 10
192.556098
 20
481.802758
 30
0.0
 10
194.832071
 20
479.794181
 30
0.0
 10
196.616781
 20
477.163754
 30
0.0
 10
197.897793
 20
473.917695
 30
0.0
  0
SPLINE
  5
10a
100
AcDbEntity
  8
Ebene_1
 62
7
100
AcDbSpline
 70
8
 71
3
 72
8
 73
4
 74
0
 40
0
 40
0
 40
0
 40
0
 40
1
 40
1
 40
1
 40
1
 10
197.897793
 20
473.917695
 30
0.0
 10
199.172587
 20
470.671636
 30
0.0
 10
199.813093
 20
466.766415
 30
0.0
 10
199.813093
 20
462.183378
 30
0.0
  0
LWPOLYLINE
  5
10b
100
AcDbEntity
  8
Ebene_1
 62
7
100
AcDbPolyline
 90
3
 70
0
 10
109.949492
 20
485.645793
 30
0.0
 10
109.949492
 20
476.044423
 30
0.0
 10
110.223106
 20
476.044423
 30
0.0
  0
SPLINE
  5
10c
100
AcDbEntity
  8
Ebene_1
 62
7
100
AcDbSpline
 70
8
 71
3
 72
8
 73
4
 74
0
 40
0
 40
0
 40
0
 40
0
 40
1
 40
1
 40
1
 40
1
 10
180.367831
 20
454.913947
 30
0.0
 10
180.367831
 20
457.295634
 30
0.0
 10
180.274553
 20
459.534295
 30
0.0
 10
180.094217
 20
461.642368
 30
0.0
  0
SPLINE
  5
10d
100
AcDbEntity
  8
Ebene_1
 62
7
100
AcDbSpline
 70
8
 71
3
 72
8
 73
4
 74
0
 40
0
 40
0
 40
0
 40
0
 40
1
 40
1
 40
1
 40
1
 10
180.094217
 20
461.642368
 30
0.0
 10
179.963980
 20
463.552774
 30
0.0
 10
179.452282
 20
465.417720
 30
0.0
 10
178.589339
 20
467.127089
 30
0.0
  0
SPLINE
  5
10e
100
AcDbEntity
  8
Ebene_1
 62
7
100
AcDbSpline
 70
8
 71
3
 72
8
 73
4
 74
0
 40
0
 40
0
 40
0
 40
0
 40
1
 40
1
 40
1
 40
1
 10
178.589339
 20
467.127089
 30
0.0
 10
177.761342
 20
468.686714
 30
0.0
 10
176.500197
 20
469.973773
 30
0.0
 10
174.957732
 20
470.833317
 30
0.0
  0
SPLINE
  5
10f
100
AcDbEntity
  8
Ebene_1
 62
7
100
AcDbSpline
 70
8
 71
3
 72
8
 73
4
 74
0
 40
0
 40
0
 40
0
 40
0
 40
1
 40
1
 40
1
 40
1
 10
174.957732
 20
470.833317
 30
0.0
 10
173.359577
 20
471.741219
 30
0.0
 10
171.189319
 20
472.201388
 30
0.0
 10
168.446959
 20
472.201388
 30
0.0
  0
SPLINE
  5
110
100
AcDbEntity
  8
Ebene_1
 62
7
100
AcDbSpline
 70
8
 71
3
 72
8
 73
4
 74
0
 40
0
 40
0
 40
0
 40
0
 40
1
 40
1
 40
1
 40
1
 10
168.446959
 20
472.201388
 30
0.0
 10
165.710817
 20
472.201388
 30
0.0
 10
163.497030
 20
471.672815
 30
0.0
 10
161.805596
 20
470.628106
 30
0.0
  0
SPLINE
  5
111
100
AcDbEntity
  8
Ebene_1
 62
7
100
AcDbSpline
 70
8
 71
3
 72
8
 73
4
 74
0
 40
0
 40
0
 40
0
 40
0
 40
1
 40
1
 40
1
 40
1
 10
161.805596
 20
470.628106
 30
0.0
 10
160.114163
 20
469.570961
 30
0.0
 10
158.789622
 20
468.202890
 30
0.0
 10
157.831972
 20
466.511457
 30
0.0
  0
SPLINE
  5
112
100
AcDbEntity
  8
Ebene_1
 62
7
100
AcDbSpline
 70
8
 71
3
 72
8
 73
4
 74
0
 40
0
 40
0
 40
0
 40
0
 40
1
 40
1
 40
1
 40
1
 10
157.831972
 20
466.511457
 30
0.0
 10
156.842377
 20
464.724992
 30
0.0
 10
156.192946
 20
462.770373
 30
0.0
 10
155.916673
 20
460.746904
 30
0.0
  0
SPLINE
  5
113
100
AcDbEntity
  8
Ebene_1
 62
7
100
AcDbSpline
 70
8
 71
3
 72
8
 73
4
 74
0
 40
0
 40
0
 40
0
 40
0
 40
1
 40
1
 40
1
 40
1
 10
155.916673
 20
460.746904
 30
0.0
 10
155.593634
 20
458.589604
 30
0.0
 10
155.431506
 20
456.411264
 30
0.0
 10
155.431630
 20
454.229911
 30
0.0
  0
LWPOLYLINE
  5
114
100
AcDbEntity
  8
Ebene_1
 62
7
100
AcDbPolyline
 90
4
 70
0
 10
199.813093
 20
462.183378
 30
0.0
 10
199.813093
 20
414.717537
 30
0.0
 10
180.367831
 20
414.717537
 30
0.0
 10
180.367831
 20
454.913947
 30
0.0
  0
SPLINE
  5
115
100
AcDbEntity
  8
Ebene_1
 62
7
100
AcDbSpline
 70
8
 71
3
 72
8
 73
4
 74
0
 40
0
 40
0
 40
0
 40
0
 40
1
 40
1
 40
1
 40
1
 10
135.980150
 20
454.503526
 30
0.0
 10
135.980150
 20
456.605380
 30
0.0
 10
135.936620
 20
458.688579
 30
0.0
 10
135.849561
 20
460.746904
 30
0.0
  0
SPLINE
  5
116
100
AcDbEntity
  8
Ebene_1
 62
7
100
AcDbSpline
 70
8
 71
3
 72
8
 73
4
 74
0
 40
0
 40
0
 40
0
 40
0
 40
1
 40
1
 40
1
 40
1
 10
135.849561
 20
460.746904
 30
0.0
 10
135.779000
 20
462.697380
 30
0.0
 10
135.383895
 20
464.622463
 30
0.0
 10
134.680482
 20
466.443053
 30
0.0
  0
SPLINE
  5
117
100
AcDbEntity
  8
Ebene_1
 62
7
100
AcDbSpline
 70
8
 71
3
 72
8
 73
4
 74
0
 40
0
 40
0
 40
0
 40
0
 40
1
 40
1
 40
1
 40
1
 10
134.680482
 20
466.443053
 30
0.0
 10
134.009181
 20
468.163196
 30
0.0
 10
132.812322
 20
469.627716
 30
0.0
 10
131.260305
 20
470.628106
 30
0.0
  0
SPLINE
  5
118
100
AcDbEntity
  8
Ebene_1
 62
7
100
AcDbSpline
 70
8
 71
3
 72
8
 73
4
 74
0
 40
0
 40
0
 40
0
 40
0
 40
1
 40
1
 40
1
 40
1
 10
131.260305
 20
470.628106
 30
0.0
 10
129.655931
 20
471.672815
 30
0.0
 10
127.305337
 20
472.201388
 30
0.0
 10
124.202303
 20
472.201388
 30
0.0
  0
SPLINE
  5
119
100
AcDbEntity
  8
Ebene_1
 62
7
100
AcDbSpline
 70
8
 71
3
 72
8
 73
4
 74
0
 40
0
 40
0
 40
0
 40
0
 40
1
 40
1
 40
1
 40
1
 10
124.202303
 20
472.201388
 30
0.0
 10
122.970237
 20
472.149491
 30
0.0
 10
121.749837
 20
471.940518
 30
0.0
 10
120.570697
 20
471.579537
 30
0.0
  0
SPLINE
  5
11a
100
AcDbEntity
  8
Ebene_1
 62
7
100
AcDbSpline
 70
8
 71
3
 72
8
 73
4
 74
0
 40
0
 40
0
 40
0
 40
0
 40
1
 40
1
 40
1
 40
1
 10
120.570697
 20
471.579537
 30
0.0
 10
118.963961
 20
471.116502
 30
0.0
 10
117.471029
 20
470.324506
 30
0.0
 10
116.186652
 20
469.253817
 30
0.0
  0
SPLINE
  5
11b
100
AcDbEntity
  8
Ebene_1
 62
7
100
AcDbSpline
 70
8
 71
3
 72
8
 73
4
 74
0
 40
0
 40
0
 40
0
 40
0
 40
1
 40
1
 40
1
 40
1
 10
116.186652
 20
469.253817
 30
0.0
 10
114.768833
 20
468.109612
 30
0.0
 10
113.562443
 20
466.461709
 30
0.0
 10
112.555045
 20
464.316325
 30
0.0
  0
SPLINE
  5
11c
100
AcDbEntity
  8
Ebene_1
 62
7
100
AcDbSpline
 70
8
 71
3
 72
8
 73
4
 74
0
 40
0
 40
0
 40
0
 40
0
 40
1
 40
1
 40
1
 40
1
 10
112.555045
 20
464.316325
 30
0.0
 10
111.553866
 20
462.164722
 30
0.0
 10
111.050167
 20
459.353959
 30
0.0
 10
111.050167
 20
455.877815
 30
0.0
  0
LWPOLYLINE
  5
11d
100
AcDbEntity
  8
Ebene_1
 62
7
100
AcDbPolyline
 90
4
 70
0
 10
155.431630
 20
454.229911
 30
0.0
 10
155.431630
 20
414.717537
 30
0.0
 10
135.980150
 20
414.717537
 30
0.0
 10
135.980150
 20
454.503526
 30
0.0
  0
SPLINE
  5
11e
100
AcDbEntity
  8
Ebene_1
 62
7
100
AcDbSpline
 70
8
 71
3
 72
8
 73
4
 74
0
 40
0
 40
0
 40
0
 40
0
 40
1
 40
1
 40
1
 40
1
 10
212.306067
 20
475.217362
 30
0.0
 10
214.271470
 20
478.197337
 30
0.0
 10
216.894617
 20
480.686455
 30
0.0
 10
219.973482
 20
482.493012
 30
0.0
  0
SPLINE
  5
11f
100
AcDbEntity
  8
Ebene_1
 62
7
100
AcDbSpline
 70
8
 71
3
 72
8
 73
4
 74
0
 40
0
 40
0
 40
0
 40
0
 40
1
 40
1
 40
1
 40
1
 10
219.973482
 20
482.493012
 30
0.0
 10
223.221476
 20
484.376622
 30
0.0
 10
226.763877
 20
485.698978
 30
0.0
 10
230.451661
 20
486.404451
 30
0.0
  0
SPLINE
  5
120
100
AcDbEntity
  8
Ebene_1
 62
7
100
AcDbSpline
 70
8
 71
3
 72
8
 73
4
 74
0
 40
0
 40
0
 40
0
 40
0
 40
1
 40
1
 40
1
 40
1
 10
230.451661
 20
486.404451
 30
0.0
 10
234.308900
 20
487.177994
 30
0.0
 10
238.233284
 20
487.567516
 30
0.0
 10
242.167323
 20
487.567311
 30
0.0
  0
SPLINE
  5
121
100
AcDbEntity
  8
Ebene_1
 62
7
100
AcDbSpline
 70
8
 71
3
 72
8
 73
4
 74
0
 40
0
 40
0
 40
0
 40
0
 40
1
 40
1
 40
1
 40
1
 10
242.167323
 20
487.567311
 30
0.0
 10
245.730526
 20
487.567311
 30
0.0
 10
249.337258
 20
487.318571
 30
0.0
 10
252.987520
 20
486.814872
 30
0.0
  0
SPLINE
  5
122
100
AcDbEntity
  8
Ebene_1
 62
7
100
AcDbSpline
 70
8
 71
3
 72
8
 73
4
 74
0
 40
0
 40
0
 40
0
 40
0
 40
1
 40
1
 40
1
 40
1
 10
252.987520
 20
486.814872
 30
0.0
 10
256.644000
 20
486.311173
 30
0.0
 10
259.977118
 20
485.322431
 30
0.0
 10
262.993093
 20
483.861083
 30
0.0
  0
SPLINE
  5
123
100
AcDbEntity
  8
Ebene_1
 62
7
100
AcDbSpline
 70
8
 71
3
 72
8
 73
4
 74
0
 40
0
 40
0
 40
0
 40
0
 40
1
 40
1
 40
1
 40
1
 10
262.993093
 20
483.861083
 30
0.0
 10
266.002848
 20
482.399734
 30
0.0
 10
268.465376
 20
480.366283
 30
0.0
 10
270.393112
 20
477.760730
 30
0.0
  0
SPLINE
  5
124
100
AcDbEntity
  8
Ebene_1
 62
7
100
AcDbSpline
 70
8
 71
3
 72
8
 73
4
 74
0
 40
0
 40
0
 40
0
 40
0
 40
1
 40
1
 40
1
 40
1
 10
270.393112
 20
477.760730
 30
0.0
 10
272.308411
 20
475.148959
 30
0.0
 10
273.266061
 20
471.697689
 30
0.0
 10
273.266061
 20
467.400703
 30
0.0
  0
LWPOLYLINE
  5
125
100
AcDbEntity
  8
Ebene_1
 62
7
100
AcDbPolyline
 90
5
 70
0
 10
111.050167
 20
455.877815
 30
0.0
 10
111.050167
 20
414.717537
 30
0.0
 10
91.592469
 20
414.717537
 30
0.0
 10
91.592469
 20
485.670667
 30
0.0
 10
109.949492
 20
485.645793
 30
0.0
  0
SPLINE
  5
126
100
AcDbEntity
  8
Ebene_1
 62
7
100
AcDbSpline
 70
8
 71
3
 72
8
 73
4
 74
0
 40
0
 40
0
 40
0
 40
0
 40
1
 40
1
 40
1
 40
1
 10
273.266061
 20
430.500100
 30
0.0
 10
273.266061
 20
427.291352
 30
0.0
 10
273.452616
 20
424.231848
 30
0.0
 10
273.813289
 20
421.309152
 30
0.0
  0
SPLINE
  5
127
100
AcDbEntity
  8
Ebene_1
 62
7
100
AcDbSpline
 70
8
 71
3
 72
8
 73
4
 74
0
 40
0
 40
0
 40
0
 40
0
 40
1
 40
1
 40
1
 40
1
 10
273.813289
 20
421.309152
 30
0.0
 10
274.173963
 20
418.380236
 30
0.0
 10
274.814469
 20
416.185104
 30
0.0
 10
275.728589
 20
414.717537
 30
0.0
  0
LWPOLYLINE
  5
128
100
AcDbEntity
  8
Ebene_1
 62
7
100
AcDbPolyline
 90
2
 70
0
 10
273.266061
 20
467.400703
 30
0.0
 10
273.266061
 20
430.500100
 30
0.0
  0
SPLINE
  5
129
100
AcDbEntity
  8
Ebene_1
 62
7
100
AcDbSpline
 70
8
 71
3
 72
8
 73
4
 74
0
 40
0
 40
0
 40
0
 40
0
 40
1
 40
1
 40
1
 40
1
 10
256.009713
 20
414.717537
 30
0.0
 10
255.263935
 20
416.938548
 30
0.0
 10
254.804209
 20
419.245536
 30
0.0
 10
254.641642
 20
421.582766
 30
0.0
  0
SPLINE
  5
12a
100
AcDbEntity
  8
Ebene_1
 62
7
100
AcDbSpline
 70
8
 71
3
 72
8
 73
4
 74
0
 40
0
 40
0
 40
0
 40
0
 40
1
 40
1
 40
1
 40
1
 10
254.641642
 20
421.582766
 30
0.0
 10
251.532390
 20
418.380236
 30
0.0
 10
247.882128
 20
416.135356
 30
0.0
 10
243.684638
 20
414.860563
 30
0.0
  0
SPLINE
  5
12b
100
AcDbEntity
  8
Ebene_1
 62
7
100
AcDbSpline
 70
8
 71
3
 72
8
 73
4
 74
0
 40
0
 40
0
 40
0
 40
0
 40
1
 40
1
 40
1
 40
1
 10
243.684638
 20
414.860563
 30
0.0
 10
239.511001
 20
413.583534
 30
0.0
 10
235.170752
 20
412.933859
 30
0.0
 10
230.806116
 20
412.932827
 30
0.0
  0
SPLINE
  5
12c
100
AcDbEntity
  8
Ebene_1
 62
7
100
AcDbSpline
 70
8
 71
3
 72
8
 73
4
 74
0
 40
0
 40
0
 40
0
 40
0
 40
1
 40
1
 40
1
 40
1
 10
230.806116
 20
412.932827
 30
0.0
 10
227.423250
 20
412.932827
 30
0.0
 10
224.276687
 20
413.349467
 30
0.0
 10
221.353990
 20
414.176528
 30
0.0
  0
SPLINE
  5
12d
100
AcDbEntity
  8
Ebene_1
 62
7
100
AcDbSpline
 70
8
 71
3
 72
8
 73
4
 74
0
 40
0
 40
0
 40
0
 40
0
 40
1
 40
1
 40
1
 40
1
 10
221.353990
 20
414.176528
 30
0.0
 10
218.565204
 20
414.929266
 30
0.0
 10
215.955819
 20
416.233959
 30
0.0
 10
213.680356
 20
418.013344
 30
0.0
  0
SPLINE
  5
12e
100
AcDbEntity
  8
Ebene_1
 62
7
100
AcDbSpline
 70
8
 71
3
 72
8
 73
4
 74
0
 40
0
 40
0
 40
0
 40
0
 40
1
 40
1
 40
1
 40
1
 10
213.680356
 20
418.013344
 30
0.0
 10
211.471449
 20
419.771332
 30
0.0
 10
209.711092
 20
422.028255
 30
0.0
 10
208.543872
 20
424.598740
 30
0.0
  0
SPLINE
  5
12f
100
AcDbEntity
  8
Ebene_1
 62
7
100
AcDbSpline
 70
8
 71
3
 72
8
 73
4
 74
0
 40
0
 40
0
 40
0
 40
0
 40
1
 40
1
 40
1
 40
1
 10
208.543872
 20
424.598740
 30
0.0
 10
207.306390
 20
427.247823
 30
0.0
 10
206.690758
 20
430.406823
 30
0.0
 10
206.690758
 20
434.063303
 30
0.0
  0
SPLINE
  5
130
100
AcDbEntity
  8
Ebene_1
 62
7
100
AcDbSpline
 70
8
 71
3
 72
8
 73
4
 74
0
 40
0
 40
0
 40
0
 40
0
 40
1
 40
1
 40
1
 40
1
 10
206.690758
 20
434.063303
 30
0.0
 10
206.690758
 20
438.086675
 30
0.0
 10
207.399667
 20
441.401138
 30
0.0
 10
208.817486
 20
444.012909
 30
0.0
  0
SPLINE
  5
131
100
AcDbEntity
  8
Ebene_1
 62
7
100
AcDbSpline
 70
8
 71
3
 72
8
 73
4
 74
0
 40
0
 40
0
 40
0
 40
0
 40
1
 40
1
 40
1
 40
1
 10
208.817486
 20
444.012909
 30
0.0
 10
210.229087
 20
446.618463
 30
0.0
 10
212.051108
 20
448.695443
 30
0.0
 10
214.295988
 20
450.256287
 30
0.0
  0
SPLINE
  5
132
100
AcDbEntity
  8
Ebene_1
 62
7
100
AcDbSpline
 70
8
 71
3
 72
8
 73
4
 74
0
 40
0
 40
0
 40
0
 40
0
 40
1
 40
1
 40
1
 40
1
 10
214.295988
 20
450.256287
 30
0.0
 10
216.534650
 20
451.810913
 30
0.0
 10
219.090455
 20
452.973774
 30
0.0
 10
221.969622
 20
453.751087
 30
0.0
  0
SPLINE
  5
133
100
AcDbEntity
  8
Ebene_1
 62
7
100
AcDbSpline
 70
8
 71
3
 72
8
 73
4
 74
0
 40
0
 40
0
 40
0
 40
0
 40
1
 40
1
 40
1
 40
1
 10
221.969622
 20
453.751087
 30
0.0
 10
224.842571
 20
454.528400
 30
0.0
 10
227.746612
 20
455.144031
 30
0.0
 10
230.669309
 20
455.604201
 30
0.0
  0
SPLINE
  5
134
100
AcDbEntity
  8
Ebene_1
 62
7
100
AcDbSpline
 70
8
 71
3
 72
8
 73
4
 74
0
 40
0
 40
0
 40
0
 40
0
 40
1
 40
1
 40
1
 40
1
 10
230.669309
 20
455.604201
 30
0.0
 10
233.592006
 20
456.058152
 30
0.0
 10
236.464955
 20
456.425043
 30
0.0
 10
239.294374
 20
456.698657
 30
0.0
  0
SPLINE
  5
135
100
AcDbEntity
  8
Ebene_1
 62
7
100
AcDbSpline
 70
8
 71
3
 72
8
 73
4
 74
0
 40
0
 40
0
 40
0
 40
0
 40
1
 40
1
 40
1
 40
1
 10
239.294374
 20
456.698657
 30
0.0
 10
242.130012
 20
456.972272
 30
0.0
 10
244.642287
 20
457.382693
 30
0.0
 10
246.831201
 20
457.936140
 30
0.0
  0
SPLINE
  5
136
100
AcDbEntity
  8
Ebene_1
 62
7
100
AcDbSpline
 70
8
 71
3
 72
8
 73
4
 74
0
 40
0
 40
0
 40
0
 40
0
 40
1
 40
1
 40
1
 40
1
 10
246.831201
 20
457.936140
 30
0.0
 10
249.026333
 20
458.483368
 30
0.0
 10
250.755077
 20
459.285555
 30
0.0
 10
252.036089
 20
460.336482
 30
0.0
  0
SPLINE
  5
137
100
AcDbEntity
  8
Ebene_1
 62
7
100
AcDbSpline
 70
8
 71
3
 72
8
 73
4
 74
0
 40
0
 40
0
 40
0
 40
0
 40
1
 40
1
 40
1
 40
1
 10
252.036089
 20
460.336482
 30
0.0
 10
253.317100
 20
461.387409
 30
0.0
 10
253.907858
 20
462.917161
 30
0.0
 10
253.820799
 20
464.938175
 30
0.0
  0
SPLINE
  5
138
100
AcDbEntity
  8
Ebene_1
 62
7
100
AcDbSpline
 70
8
 71
3
 72
8
 73
4
 74
0
 40
0
 40
0
 40
0
 40
0
 40
1
 40
1
 40
1
 40
1
 10
253.820799
 20
464.938175
 30
0.0
 10
253.820799
 20
467.033811
 30
0.0
 10
253.478781
 20
468.706589
 30
0.0
 10
252.788528
 20
469.937852
 30
0.0
  0
SPLINE
  5
139
100
AcDbEntity
  8
Ebene_1
 62
7
100
AcDbSpline
 70
8
 71
3
 72
8
 73
4
 74
0
 40
0
 40
0
 40
0
 40
0
 40
1
 40
1
 40
1
 40
1
 10
252.788528
 20
469.937852
 30
0.0
 10
252.149981
 20
471.126346
 30
0.0
 10
251.205324
 20
472.122530
 30
0.0
 10
250.052386
 20
472.823238
 30
0.0
  0
SPLINE
  5
13a
100
AcDbEntity
  8
Ebene_1
 62
7
100
AcDbSpline
 70
8
 71
3
 72
8
 73
4
 74
0
 40
0
 40
0
 40
0
 40
0
 40
1
 40
1
 40
1
 40
1
 10
250.052386
 20
472.823238
 30
0.0
 10
248.830186
 20
473.535017
 30
0.0
 10
247.480097
 20
473.999837
 30
0.0
 10
246.078762
 20
474.191309
 30
0.0
  0
SPLINE
  5
13b
100
AcDbEntity
  8
Ebene_1
 62
7
100
AcDbSpline
 70
8
 71
3
 72
8
 73
4
 74
0
 40
0
 40
0
 40
0
 40
0
 40
1
 40
1
 40
1
 40
1
 10
246.078762
 20
474.191309
 30
0.0
 10
244.468490
 20
474.425384
 30
0.0
 10
242.843075
 20
474.539703
 30
0.0
 10
241.215892
 20
474.533327
 30
0.0
  0
SPLINE
  5
13c
100
AcDbEntity
  8
Ebene_1
 62
7
100
AcDbSpline
 70
8
 71
3
 72
8
 73
4
 74
0
 40
0
 40
0
 40
0
 40
0
 40
1
 40
1
 40
1
 40
1
 10
241.215892
 20
474.533327
 30
0.0
 10
237.379075
 20
474.533327
 30
0.0
 10
234.369319
 20
473.712484
 30
0.0
 10
232.174187
 20
472.064581
 30
0.0
  0
SPLINE
  5
13d
100
AcDbEntity
  8
Ebene_1
 62
7
100
AcDbSpline
 70
8
 71
3
 72
8
 73
4
 74
0
 40
0
 40
0
 40
0
 40
0
 40
1
 40
1
 40
1
 40
1
 10
232.174187
 20
472.064581
 30
0.0
 10
229.985274
 20
470.422896
 30
0.0
 10
228.704262
 20
467.674317
 30
0.0
 10
228.337370
 20
463.837500
 30
0.0
  0
LWPOLYLINE
  5
13e
100
AcDbEntity
  8
Ebene_1
 62
7
100
AcDbPolyline
 90
2
 70
0
 10
275.728589
 20
414.717537
 30
0.0
 10
256.009713
 20
414.717537
 30
0.0
  0
SPLINE
  5
13f
100
AcDbEntity
  8
Ebene_1
 62
7
100
AcDbSpline
 70
8
 71
3
 72
8
 73
4
 74
0
 40
0
 40
0
 40
0
 40
0
 40
1
 40
1
 40
1
 40
1
 10
208.885890
 20
463.837500
 30
0.0
 10
209.159504
 20
468.408100
 30
0.0
 10
210.297490
 20
472.201388
 30
0.0
 10
212.306067
 20
475.217362
 30
0.0
  0
LWPOLYLINE
  5
140
100
AcDbEntity
  8
Ebene_1
 62
7
100
AcDbPolyline
 90
2
 70
0
 10
228.337370
 20
463.837500
 30
0.0
 10
208.885890
 20
463.837500
 30
0.0
  0
SPLINE
  5
141
100
AcDbEntity
  8
Ebene_1
 62
7
100
AcDbSpline
 70
8
 71
3
 72
8
 73
4
 74
0
 40
0
 40
0
 40
0
 40
0
 40
1
 40
1
 40
1
 40
1
 10
250.730203
 20
447.712919
 30
0.0
 10
249.429227
 20
447.285386
 30
0.0
 10
248.101902
 20
446.942650
 30
0.0
 10
246.756579
 20
446.686866
 30
0.0
  0
SPLINE
  5
142
100
AcDbEntity
  8
Ebene_1
 62
7
100
AcDbSpline
 70
8
 71
3
 72
8
 73
4
 74
0
 40
0
 40
0
 40
0
 40
0
 40
1
 40
1
 40
1
 40
1
 10
246.756579
 20
446.686866
 30
0.0
 10
245.281484
 20
446.403382
 30
0.0
 10
243.796294
 20
446.175210
 30
0.0
 10
242.304130
 20
446.002831
 30
0.0
  0
SPLINE
  5
143
100
AcDbEntity
  8
Ebene_1
 62
7
100
AcDbSpline
 70
8
 71
3
 72
8
 73
4
 74
0
 40
0
 40
0
 40
0
 40
0
 40
1
 40
1
 40
1
 40
1
 10
242.304130
 20
446.002831
 30
0.0
 10
240.749504
 20
445.816276
 30
0.0
 10
239.194878
 20
445.586191
 30
0.0
 10
237.646470
 20
445.318795
 30
0.0
  0
SPLINE
  5
144
100
AcDbEntity
  8
Ebene_1
 62
7
100
AcDbSpline
 70
8
 71
3
 72
8
 73
4
 74
0
 40
0
 40
0
 40
0
 40
0
 40
1
 40
1
 40
1
 40
1
 10
237.646470
 20
445.318795
 30
0.0
 10
236.185970
 20
445.044101
 30
0.0
 10
234.744492
 20
444.676461
 30
0.0
 10
233.330829
 20
444.218120
 30
0.0
  0
SPLINE
  5
145
100
AcDbEntity
  8
Ebene_1
 62
7
100
AcDbSpline
 70
8
 71
3
 72
8
 73
4
 74
0
 40
0
 40
0
 40
0
 40
0
 40
1
 40
1
 40
1
 40
1
 10
233.330829
 20
444.218120
 30
0.0
 10
232.007262
 20
443.804707
 30
0.0
 10
230.759721
 20
443.178836
 30
0.0
 10
229.637037
 20
442.365006
 30
0.0
  0
SPLINE
  5
146
100
AcDbEntity
  8
Ebene_1
 62
7
100
AcDbSpline
 70
8
 71
3
 72
8
 73
4
 74
0
 40
0
 40
0
 40
0
 40
0
 40
1
 40
1
 40
1
 40
1
 10
229.637037
 20
442.365006
 30
0.0
 10
228.579892
 20
441.587693
 30
0.0
 10
227.740394
 20
440.598951
 30
0.0
 10
227.099888
 20
439.417435
 30
0.0
  0
SPLINE
  5
147
100
AcDbEntity
  8
Ebene_1
 62
7
100
AcDbSpline
 70
8
 71
3
 72
8
 73
4
 74
0
 40
0
 40
0
 40
0
 40
0
 40
1
 40
1
 40
1
 40
1
 10
227.099888
 20
439.417435
 30
0.0
 10
226.459382
 20
438.223482
 30
0.0
 10
226.142238
 20
436.718604
 30
0.0
 10
226.142238
 20
434.890364
 30
0.0
  0
SPLINE
  5
148
100
AcDbEntity
  8
Ebene_1
 62
7
100
AcDbSpline
 70
8
 71
3
 72
8
 73
4
 74
0
 40
0
 40
0
 40
0
 40
0
 40
1
 40
1
 40
1
 40
1
 10
226.142238
 20
434.890364
 30
0.0
 10
226.142238
 20
433.149183
 30
0.0
 10
226.459382
 20
431.687835
 30
0.0
 10
227.099888
 20
430.500100
 30
0.0
  0
SPLINE
  5
149
100
AcDbEntity
  8
Ebene_1
 62
7
100
AcDbSpline
 70
8
 71
3
 72
8
 73
4
 74
0
 40
0
 40
0
 40
0
 40
0
 40
1
 40
1
 40
1
 40
1
 10
227.099888
 20
430.500100
 30
0.0
 10
227.740394
 20
429.306148
 30
0.0
 10
228.604766
 20
428.373372
 30
0.0
 10
229.705441
 20
427.683118
 30
0.0
  0
SPLINE
  5
14a
100
AcDbEntity
  8
Ebene_1
 62
7
100
AcDbSpline
 70
8
 71
3
 72
8
 73
4
 74
0
 40
0
 40
0
 40
0
 40
0
 40
1
 40
1
 40
1
 40
1
 10
229.705441
 20
427.683118
 30
0.0
 10
230.799898
 20
426.999083
 30
0.0
 10
232.074691
 20
426.520258
 30
0.0
 10
233.542258
 20
426.246644
 30
0.0
  0
SPLINE
  5
14b
100
AcDbEntity
  8
Ebene_1
 62
7
100
AcDbSpline
 70
8
 71
3
 72
8
 73
4
 74
0
 40
0
 40
0
 40
0
 40
0
 40
1
 40
1
 40
1
 40
1
 10
233.542258
 20
426.246644
 30
0.0
 10
234.997388
 20
425.973030
 30
0.0
 10
236.508484
 20
425.836222
 30
0.0
 10
238.056892
 20
425.836222
 30
0.0
  0
SPLINE
  5
14c
100
AcDbEntity
  8
Ebene_1
 62
7
100
AcDbSpline
 70
8
 71
3
 72
8
 73
4
 74
0
 40
0
 40
0
 40
0
 40
0
 40
1
 40
1
 40
1
 40
1
 10
238.056892
 20
425.836222
 30
0.0
 10
241.893709
 20
425.836222
 30
0.0
 10
244.859935
 20
426.470510
 30
0.0
 10
246.961789
 20
427.757740
 30
0.0
  0
SPLINE
  5
14d
100
AcDbEntity
  8
Ebene_1
 62
7
100
AcDbSpline
 70
8
 71
3
 72
8
 73
4
 74
0
 40
0
 40
0
 40
0
 40
0
 40
1
 40
1
 40
1
 40
1
 10
246.961789
 20
427.757740
 30
0.0
 10
249.063644
 20
429.032533
 30
0.0
 10
250.612051
 20
430.568504
 30
0.0
 10
251.625667
 20
432.353215
 30
0.0
  0
SPLINE
  5
14e
100
AcDbEntity
  8
Ebene_1
 62
7
100
AcDbSpline
 70
8
 71
3
 72
8
 73
4
 74
0
 40
0
 40
0
 40
0
 40
0
 40
1
 40
1
 40
1
 40
1
 10
251.625667
 20
432.353215
 30
0.0
 10
252.620628
 20
434.131707
 30
0.0
 10
253.242478
 20
435.935073
 30
0.0
 10
253.472563
 20
437.763313
 30
0.0
  0
SPLINE
  5
14f
100
AcDbEntity
  8
Ebene_1
 62
7
100
AcDbSpline
 70
8
 71
3
 72
8
 73
4
 74
0
 40
0
 40
0
 40
0
 40
0
 40
1
 40
1
 40
1
 40
1
 10
253.472563
 20
437.763313
 30
0.0
 10
253.696429
 20
439.597772
 30
0.0
 10
253.814581
 20
441.059120
 30
0.0
 10
253.814581
 20
442.159795
 30
0.0
  0
LWPOLYLINE
  5
150
100
AcDbEntity
  8
Ebene_1
 62
7
100
AcDbPolyline
 90
1
 70
1
 10
212.306067
 20
475.217362
 30
0.0
  0
SPLINE
  5
151
100
AcDbEntity
  8
Ebene_1
 62
7
100
AcDbSpline
 70
8
 71
3
 72
8
 73
4
 74
0
 40
0
 40
0
 40
0
 40
0
 40
1
 40
1
 40
1
 40
1
 10
253.814581
 20
449.435445
 30
0.0
 10
252.914981
 20
448.656510
 30
0.0
 10
251.865246
 20
448.070266
 30
0.0
 10
250.730203
 20
447.712919
 30
0.0
  0
LWPOLYLINE
  5
152
100
AcDbEntity
  8
Ebene_1
 62
7
100
AcDbPolyline
 90
2
 70
0
 10
253.814581
 20
442.159795
 30
0.0
 10
253.814581
 20
449.435445
 30
0.0
  0
LWPOLYLINE
  5
153
100
AcDbEntity
  8
Ebene_1
 62
7
100
AcDbPolyline
 90
1
 70
1
 10
250.730203
 20
447.712919
 30
0.0
  0
SPLINE
  5
154
100
AcDbEntity
  8
Ebene_1
 62
7
100
AcDbSpline
 70
8
 71
3
 72
8
 73
4
 74
0
 40
0
 40
0
 40
0
 40
0
 40
1
 40
1
 40
1
 40
1
 10
310.235067
 20
437.495917
 30
0.0
 10
310.235067
 20
434.200110
 30
0.0
 10
310.782295
 20
432.004978
 30
0.0
 10
311.876752
 20
430.910522
 30
0.0
  0
SPLINE
  5
155
100
AcDbEntity
  8
Ebene_1
 62
7
100
AcDbSpline
 70
8
 71
3
 72
8
 73
4
 74
0
 40
0
 40
0
 40
0
 40
0
 40
1
 40
1
 40
1
 40
1
 10
311.876752
 20
430.910522
 30
0.0
 10
312.971209
 20
429.809846
 30
0.0
 10
315.166341
 20
429.262618
 30
0.0
 10
318.449711
 20
429.262618
 30
0.0
  0
SPLINE
  5
156
100
AcDbEntity
  8
Ebene_1
 62
7
100
AcDbSpline
 70
8
 71
3
 72
8
 73
4
 74
0
 40
0
 40
0
 40
0
 40
0
 40
1
 40
1
 40
1
 40
1
 10
318.449711
 20
429.262618
 30
0.0
 10
319.550386
 20
429.262618
 30
0.0
 10
320.595094
 20
429.306148
 30
0.0
 10
321.602492
 20
429.399425
 30
0.0
  0
SPLINE
  5
157
100
AcDbEntity
  8
Ebene_1
 62
7
100
AcDbSpline
 70
8
 71
3
 72
8
 73
4
 74
0
 40
0
 40
0
 40
0
 40
0
 40
1
 40
1
 40
1
 40
1
 10
321.602492
 20
429.399425
 30
0.0
 10
322.603671
 20
429.492703
 30
0.0
 10
323.567539
 20
429.629510
 30
0.0
 10
324.481659
 20
429.809846
 30
0.0
  0
LWPOLYLINE
  5
158
100
AcDbEntity
  8
Ebene_1
 62
7
100
AcDbPolyline
 90
4
 70
0
 10
324.481659
 20
485.645793
 30
0.0
 10
324.481659
 20
472.611809
 30
0.0
 10
310.235067
 20
472.611809
 30
0.0
 10
310.235067
 20
437.495917
 30
0.0
  0
SPLINE
  5
159
100
AcDbEntity
  8
Ebene_1
 62
7
100
AcDbSpline
 70
8
 71
3
 72
8
 73
4
 74
0
 40
0
 40
0
 40
0
 40
0
 40
1
 40
1
 40
1
 40
1
 10
324.481659
 20
414.723756
 30
0.0
 10
322.665949
 20
414.431150
 30
0.0
 10
320.834502
 20
414.246344
 30
0.0
 10
318.996939
 20
414.170309
 30
0.0
  0
SPLINE
  5
15a
100
AcDbEntity
  8
Ebene_1
 62
7
100
AcDbSpline
 70
8
 71
3
 72
8
 73
4
 74
0
 40
0
 40
0
 40
0
 40
0
 40
1
 40
1
 40
1
 40
1
 10
318.996939
 20
414.170309
 30
0.0
 10
317.035196
 20
414.081804
 30
0.0
 10
315.071752
 20
414.036190
 30
0.0
 10
313.108016
 20
414.033502
 30
0.0
  0
SPLINE
  5
15b
100
AcDbEntity
  8
Ebene_1
 62
7
100
AcDbSpline
 70
8
 71
3
 72
8
 73
4
 74
0
 40
0
 40
0
 40
0
 40
0
 40
1
 40
1
 40
1
 40
1
 10
313.108016
 20
414.033502
 30
0.0
 10
310.098260
 20
414.033502
 30
0.0
 10
307.237748
 20
414.244931
 30
0.0
 10
304.545136
 20
414.655352
 30
0.0
  0
SPLINE
  5
15c
100
AcDbEntity
  8
Ebene_1
 62
7
100
AcDbSpline
 70
8
 71
3
 72
8
 73
4
 74
0
 40
0
 40
0
 40
0
 40
0
 40
1
 40
1
 40
1
 40
1
 10
304.545136
 20
414.655352
 30
0.0
 10
302.041983
 20
415.000895
 30
0.0
 10
299.626407
 20
415.815229
 30
0.0
 10
297.424949
 20
417.055695
 30
0.0
  0
SPLINE
  5
15d
100
AcDbEntity
  8
Ebene_1
 62
7
100
AcDbSpline
 70
8
 71
3
 72
8
 73
4
 74
0
 40
0
 40
0
 40
0
 40
0
 40
1
 40
1
 40
1
 40
1
 10
297.424949
 20
417.055695
 30
0.0
 10
295.358443
 20
418.255384
 30
0.0
 10
293.672786
 20
420.014330
 30
0.0
 10
292.562079
 20
422.129994
 30
0.0
  0
SPLINE
  5
15e
100
AcDbEntity
  8
Ebene_1
 62
7
100
AcDbSpline
 70
8
 71
3
 72
8
 73
4
 74
0
 40
0
 40
0
 40
0
 40
0
 40
1
 40
1
 40
1
 40
1
 10
292.562079
 20
422.129994
 30
0.0
 10
291.374344
 20
424.325126
 30
0.0
 10
290.777368
 20
427.204293
 30
0.0
 10
290.777368
 20
430.773715
 30
0.0
  0
LWPOLYLINE
  5
15f
100
AcDbEntity
  8
Ebene_1
 62
7
100
AcDbPolyline
 90
2
 70
0
 10
324.481659
 20
429.809846
 30
0.0
 10
324.481659
 20
414.723756
 30
0.0
  0
LWPOLYLINE
  5
160
100
AcDbEntity
  8
Ebene_1
 62
7
100
AcDbPolyline
 90
10
 70
0
 10
290.777368
 20
430.773715
 30
0.0
 10
290.777368
 20
472.611809
 30
0.0
 10
278.999522
 20
472.611809
 30
0.0
 10
278.999522
 20
485.645793
 30
0.0
 10
290.777368
 20
485.645793
 30
0.0
 10
290.777368
 20
506.913077
 30
0.0
 10
310.235067
 20
506.913077
 30
0.0
 10
310.235067
 20
485.645793
 30
0.0
 10
324.475441
 20
485.645793
 30
0.0
 10
324.481659
 20
485.645793
 30
0.0
  0
SPLINE
  5
161
100
AcDbEntity
  8
Ebene_1
 62
7
100
AcDbSpline
 70
8
 71
3
 72
8
 73
4
 74
0
 40
0
 40
0
 40
0
 40
0
 40
1
 40
1
 40
1
 40
1
 10
352.558205
 20
472.475002
 30
0.0
 10
354.421574
 20
476.928280
 30
0.0
 10
357.569336
 20
480.725511
 30
0.0
 10
361.599909
 20
483.382258
 30
0.0
  0
SPLINE
  5
162
100
AcDbEntity
  8
Ebene_1
 62
7
100
AcDbSpline
 70
8
 71
3
 72
8
 73
4
 74
0
 40
0
 40
0
 40
0
 40
0
 40
1
 40
1
 40
1
 40
1
 10
361.599909
 20
483.382258
 30
0.0
 10
363.596142
 20
484.701843
 30
0.0
 10
365.763754
 20
485.741711
 30
0.0
 10
368.042280
 20
486.472854
 30
0.0
  0
SPLINE
  5
163
100
AcDbEntity
  8
Ebene_1
 62
7
100
AcDbSpline
 70
8
 71
3
 72
8
 73
4
 74
0
 40
0
 40
0
 40
0
 40
0
 40
1
 40
1
 40
1
 40
1
 10
368.042280
 20
486.472854
 30
0.0
 10
370.344287
 20
487.205858
 30
0.0
 10
372.746587
 20
487.575120
 30
0.0
 10
375.162467
 20
487.567311
 30
0.0
  0
SPLINE
  5
164
100
AcDbEntity
  8
Ebene_1
 62
7
100
AcDbSpline
 70
8
 71
3
 72
8
 73
4
 74
0
 40
0
 40
0
 40
0
 40
0
 40
1
 40
1
 40
1
 40
1
 10
375.162467
 20
487.567311
 30
0.0
 10
376.443478
 20
487.567311
 30
0.0
 10
377.855079
 20
487.337226
 30
0.0
 10
379.409705
 20
486.883276
 30
0.0
  0
LWPOLYLINE
  5
165
100
AcDbEntity
  8
Ebene_1
 62
7
100
AcDbPolyline
 90
3
 70
0
 10
352.284591
 20
485.645793
 30
0.0
 10
352.284591
 20
472.475002
 30
0.0
 10
352.558205
 20
472.475002
 30
0.0
  0
SPLINE
  5
166
100
AcDbEntity
  8
Ebene_1
 62
7
100
AcDbSpline
 70
8
 71
3
 72
8
 73
4
 74
0
 40
0
 40
0
 40
0
 40
0
 40
1
 40
1
 40
1
 40
1
 10
379.409705
 20
468.774992
 30
0.0
 10
378.323083
 20
468.984355
 30
0.0
 10
377.227492
 20
469.144128
 30
0.0
 10
376.126335
 20
469.253817
 30
0.0
  0
SPLINE
  5
167
100
AcDbEntity
  8
Ebene_1
 62
7
100
AcDbSpline
 70
8
 71
3
 72
8
 73
4
 74
0
 40
0
 40
0
 40
0
 40
0
 40
1
 40
1
 40
1
 40
1
 10
376.126335
 20
469.253817
 30
0.0
 10
374.897547
 20
469.388241
 30
0.0
 10
373.662441
 20
469.456743
 30
0.0
 10
372.426325
 20
469.459028
 30
0.0
  0
SPLINE
  5
168
100
AcDbEntity
  8
Ebene_1
 62
7
100
AcDbSpline
 70
8
 71
3
 72
8
 73
4
 74
0
 40
0
 40
0
 40
0
 40
0
 40
1
 40
1
 40
1
 40
1
 10
372.426325
 20
469.459028
 30
0.0
 10
368.863122
 20
469.459028
 30
0.0
 10
365.847148
 20
468.862051
 30
0.0
 10
363.384620
 20
467.674317
 30
0.0
  0
SPLINE
  5
169
100
AcDbEntity
  8
Ebene_1
 62
7
100
AcDbSpline
 70
8
 71
3
 72
8
 73
4
 74
0
 40
0
 40
0
 40
0
 40
0
 40
1
 40
1
 40
1
 40
1
 10
363.384620
 20
467.674317
 30
0.0
 10
361.025069
 20
466.571572
 30
0.0
 10
358.977582
 20
464.898104
 30
0.0
 10
357.427293
 20
462.805228
 30
0.0
  0
SPLINE
  5
16a
100
AcDbEntity
  8
Ebene_1
 62
7
100
AcDbSpline
 70
8
 71
3
 72
8
 73
4
 74
0
 40
0
 40
0
 40
0
 40
0
 40
1
 40
1
 40
1
 40
1
 10
357.427293
 20
462.805228
 30
0.0
 10
355.875278
 20
460.648778
 30
0.0
 10
354.779227
 20
458.198534
 30
0.0
 10
354.206108
 20
455.604201
 30
0.0
  0
SPLINE
  5
16b
100
AcDbEntity
  8
Ebene_1
 62
7
100
AcDbSpline
 70
8
 71
3
 72
8
 73
4
 74
0
 40
0
 40
0
 40
0
 40
0
 40
1
 40
1
 40
1
 40
1
 10
354.206108
 20
455.604201
 30
0.0
 10
353.547665
 20
452.678037
 30
0.0
 10
353.226357
 20
449.686115
 30
0.0
 10
353.248459
 20
446.686866
 30
0.0
  0
LWPOLYLINE
  5
16c
100
AcDbEntity
  8
Ebene_1
 62
7
100
AcDbPolyline
 90
2
 70
0
 10
379.409705
 20
486.883276
 30
0.0
 10
379.409705
 20
468.774992
 30
0.0
  0
LWPOLYLINE
  5
16d
100
AcDbEntity
  8
Ebene_1
 62
7
100
AcDbPolyline
 90
5
 70
0
 10
353.248459
 20
446.686866
 30
0.0
 10
353.248459
 20
414.723756
 30
0.0
 10
333.796978
 20
414.723756
 30
0.0
 10
333.796978
 20
485.614701
 30
0.0
 10
352.284591
 20
485.645793
 30
0.0
  0
LWPOLYLINE
  5
16e
100
AcDbEntity
  8
Ebene_1
 62
7
100
AcDbPolyline
 90
5
 70
1
 10
387.630567
 20
496.621453
 30
0.0
 10
387.630567
 20
512.677630
 30
0.0
 10
407.082047
 20
512.677630
 30
0.0
 10
407.082047
 20
496.621453
 30
0.0
 10
387.636785
 20
496.621453
 30
0.0
  0
LWPOLYLINE
  5
16f
100
AcDbEntity
  8
Ebene_1
 62
7
100
AcDbPolyline
 90
5
 70
1
 10
407.082047
 20
485.645793
 30
0.0
 10
407.082047
 20
414.754848
 30
0.0
 10
387.636785
 20
414.754848
 30
0.0
 10
387.636785
 20
485.645793
 30
0.0
 10
407.088266
 20
485.645793
 30
0.0
  0
LWPOLYLINE
  5
170
100
AcDbEntity
  8
Ebene_1
 62
7
100
AcDbPolyline
 90
12
 70
1
 10
417.218209
 20
485.645793
 30
0.0
 10
439.412049
 20
485.645793
 30
0.0
 10
451.880150
 20
467.127089
 30
0.0
 10
464.205224
 20
485.645793
 30
0.0
 10
485.715030
 20
485.645793
 30
0.0
 10
462.426732
 20
452.445201
 30
0.0
 10
488.594197
 20
414.717537
 30
0.0
 10
466.394138
 20
414.717537
 30
0.0
 10
451.606535
 20
437.079278
 30
0.0
 10
436.806496
 20
414.717537
 30
0.0
 10
415.029295
 20
414.717537
 30
0.0
 10
440.506506
 20
452.034780
 30
0.0
  0
LWPOLYLINE
  5
171
100
AcDbEntity
  8
Ebene_1
 62
7
100
AcDbPolyline
 90
8
 70
1
 10
512.361319
 20
356.052171
 30
0.0
 10
512.361319
 20
545.840911
 30
0.0
 10
498.717921
 20
545.840911
 30
0.0
 10
498.717921
 20
550.392856
 30
0.0
 10
517.591081
 20
550.392856
 30
0.0
 10
517.591081
 20
351.525100
 30
0.0
 10
498.717921
 20
351.525100
 30
0.0
 10
498.717921
 20
356.077045
 30
0.0
  0
ENDSEC
  0
SECTION
  2
OBJECTS
  0
DICTIONARY
  5
C
330
0
100
AcDbDictionary
  3
ACAD_GROUP
350
D
  3
ACAD_MLINESTYLE
350
17
  0
DICTIONARY
  5
D
330
C
100
AcDbDictionary
  0
DICTIONARY
  5
1A
330
C
100
AcDbDictionary
  0
DICTIONARY
  5
17
330
C
100
AcDbDictionary
  3
STANDARD
350
18
  0
DICTIONARY
  5
19
330
C
100
AcDbDictionary
  0
ENDSEC
  0
EOF
