999
"DXF R12 Output" (www.mydxf.blogspot.com)
 0 
SECTION
 2 
HEADER
 9 
$ACADVER
 1 
AC1009
 9 
$EXTMIN
 10 
 0 
 20 
 0 
 9 
$EXTMAX
 10 
 8.5 
 20 
 11 
 0 
ENDSEC
 0 
SECTION
 2 
ENTITIES
0
LINE
8
Layer 1
10
29.101500
20
56.444400
11
28.951254
21
53.468910
0
LINE
8
Layer 1
10
28.951254
20
53.468910
11
28.510269
21
50.579379
0
LINE
8
Layer 1
10
28.510269
20
50.579379
11
27.793170
21
47.790435
0
LINE
8
Layer 1
10
27.793170
20
47.790435
11
26.814586
21
45.116705
0
LINE
8
Layer 1
10
26.814586
20
45.116705
11
25.589143
21
42.572815
0
LINE
8
Layer 1
10
25.589143
20
42.572815
11
24.131470
21
40.173393
0
LINE
8
Layer 1
10
24.131470
20
40.173393
11
22.456192
21
37.933067
0
LINE
8
Layer 1
10
22.456192
20
37.933067
11
20.577938
21
35.866462
0
LINE
8
Layer 1
10
20.577938
20
35.866462
11
18.511333
21
33.988208
0
LINE
8
Layer 1
10
18.511333
20
33.988208
11
16.271007
21
32.312930
0
LINE
8
Layer 1
10
16.271007
20
32.312930
11
13.871585
21
30.855257
0
LINE
8
Layer 1
10
13.871585
20
30.855257
11
11.327695
21
29.629814
0
LINE
8
Layer 1
10
11.327695
20
29.629814
11
8.653965
21
28.651230
0
LINE
8
Layer 1
10
8.653965
20
28.651230
11
5.865021
21
27.934131
0
LINE
8
Layer 1
10
5.865021
20
27.934131
11
2.975490
21
27.493146
0
LINE
8
Layer 1
10
2.975490
20
27.493146
11
0.000000
21
27.342900
0
LINE
8
Layer 1
10
0.000000
20
27.342900
11
-2.975490
21
27.493146
0
LINE
8
Layer 1
10
-2.975490
20
27.493146
11
-5.865021
21
27.934131
0
LINE
8
Layer 1
10
-5.865021
20
27.934131
11
-8.653965
21
28.651230
0
LINE
8
Layer 1
10
-8.653965
20
28.651230
11
-11.327695
21
29.629814
0
LINE
8
Layer 1
10
-11.327695
20
29.629814
11
-13.871585
21
30.855257
0
LINE
8
Layer 1
10
-13.871585
20
30.855257
11
-16.271007
21
32.312930
0
LINE
8
Layer 1
10
-16.271007
20
32.312930
11
-18.511333
21
33.988208
0
LINE
8
Layer 1
10
-18.511333
20
33.988208
11
-20.577938
21
35.866462
0
LINE
8
Layer 1
10
-20.577938
20
35.866462
11
-22.456192
21
37.933067
0
LINE
8
Layer 1
10
-22.456192
20
37.933067
11
-24.131470
21
40.173393
0
LINE
8
Layer 1
10
-24.131470
20
40.173393
11
-25.589143
21
42.572815
0
LINE
8
Layer 1
10
-25.589143
20
42.572815
11
-26.814586
21
45.116705
0
LINE
8
Layer 1
10
-26.814586
20
45.116705
11
-27.793170
21
47.790435
0
LINE
8
Layer 1
10
-27.793170
20
47.790435
11
-28.510269
21
50.579379
0
LINE
8
Layer 1
10
-28.510269
20
50.579379
11
-28.951254
21
53.468910
0
LINE
8
Layer 1
10
-28.951254
20
53.468910
11
-29.101500
21
56.444400
0
LINE
8
Layer 1
10
-29.101500
20
56.444400
11
-28.951254
21
59.419890
0
LINE
8
Layer 1
10
-28.951254
20
59.419890
11
-28.510269
21
62.309421
0
LINE
8
Layer 1
10
-28.510269
20
62.309421
11
-27.793170
21
65.098365
0
LINE
8
Layer 1
10
-27.793170
20
65.098365
11
-26.814586
21
67.772095
0
LINE
8
Layer 1
10
-26.814586
20
67.772095
11
-25.589143
21
70.315985
0
LINE
8
Layer 1
10
-25.589143
20
70.315985
11
-24.131470
21
72.715407
0
LINE
8
Layer 1
10
-24.131470
20
72.715407
11
-22.456192
21
74.955733
0
LINE
8
Layer 1
10
-22.456192
20
74.955733
11
-20.577938
21
77.022337
0
LINE
8
Layer 1
10
-20.577938
20
77.022337
11
-18.511333
21
78.900592
0
LINE
8
Layer 1
10
-18.511333
20
78.900592
11
-16.271007
21
80.575870
0
LINE
8
Layer 1
10
-16.271007
20
80.575870
11
-13.871585
21
82.033543
0
LINE
8
Layer 1
10
-13.871585
20
82.033543
11
-11.327695
21
83.258986
0
LINE
8
Layer 1
10
-11.327695
20
83.258986
11
-8.653965
21
84.237570
0
LINE
8
Layer 1
10
-8.653965
20
84.237570
11
-5.865021
21
84.954669
0
LINE
8
Layer 1
10
-5.865021
20
84.954669
11
-2.975490
21
85.395654
0
LINE
8
Layer 1
10
-2.975490
20
85.395654
11
0.000000
21
85.545900
0
LINE
8
Layer 1
10
0.000000
20
85.545900
11
2.975490
21
85.395654
0
LINE
8
Layer 1
10
2.975490
20
85.395654
11
5.865021
21
84.954669
0
LINE
8
Layer 1
10
5.865021
20
84.954669
11
8.653965
21
84.237570
0
LINE
8
Layer 1
10
8.653965
20
84.237570
11
11.327695
21
83.258986
0
LINE
8
Layer 1
10
11.327695
20
83.258986
11
13.871585
21
82.033543
0
LINE
8
Layer 1
10
13.871585
20
82.033543
11
16.271007
21
80.575870
0
LINE
8
Layer 1
10
16.271007
20
80.575870
11
18.511333
21
78.900592
0
LINE
8
Layer 1
10
18.511333
20
78.900592
11
20.577938
21
77.022337
0
LINE
8
Layer 1
10
20.577938
20
77.022337
11
22.456192
21
74.955733
0
LINE
8
Layer 1
10
22.456192
20
74.955733
11
24.131470
21
72.715407
0
LINE
8
Layer 1
10
24.131470
20
72.715407
11
25.589143
21
70.315985
0
LINE
8
Layer 1
10
25.589143
20
70.315985
11
26.814586
21
67.772095
0
LINE
8
Layer 1
10
26.814586
20
67.772095
11
27.793170
21
65.098365
0
LINE
8
Layer 1
10
27.793170
20
65.098365
11
28.510269
21
62.309421
0
LINE
8
Layer 1
10
28.510269
20
62.309421
11
28.951254
21
59.419890
0
LINE
8
Layer 1
10
28.951254
20
59.419890
11
29.101500
21
56.444400
0
LINE
8
Layer 1
10
29.101500
20
56.444400
11
29.101500
21
56.444400
0
LINE
8
Layer 1
10
-0.322083
20
28.336300
11
-16.782700
21
78.994800
0
LINE
8
Layer 1
10
-26.684100
20
48.171800
11
16.112000
21
79.267200
0
LINE
8
Layer 1
10
-16.112000
20
79.267800
11
26.684100
21
48.172300
0
LINE
8
Layer 1
10
16.783300
20
78.994800
11
0.322732
21
28.336300
0
LINE
8
Layer 1
10
26.684100
20
47.451400
11
-26.684100
21
47.451400
0
LINE
8
Layer 1
10
2.907450
20
27.342900
11
2.678971
21
26.211179
0
LINE
8
Layer 1
10
2.678971
20
26.211179
11
2.055885
21
25.287010
0
LINE
8
Layer 1
10
2.055885
20
25.287010
11
1.131719
21
24.663921
0
LINE
8
Layer 1
10
1.131719
20
24.663921
11
0.000000
21
24.435440
0
LINE
8
Layer 1
10
0.000000
20
24.435440
11
-1.131719
21
24.663921
0
LINE
8
Layer 1
10
-1.131719
20
24.663921
11
-2.055885
21
25.287010
0
LINE
8
Layer 1
10
-2.055885
20
25.287010
11
-2.678971
21
26.211179
0
LINE
8
Layer 1
10
-2.678971
20
26.211179
11
-2.907450
21
27.342900
0
LINE
8
Layer 1
10
-2.907450
20
27.342900
11
-2.678971
21
28.474621
0
LINE
8
Layer 1
10
-2.678971
20
28.474621
11
-2.055885
21
29.398790
0
LINE
8
Layer 1
10
-2.055885
20
29.398790
11
-1.131719
21
30.021879
0
LINE
8
Layer 1
10
-1.131719
20
30.021879
11
0.000000
21
30.250360
0
LINE
8
Layer 1
10
0.000000
20
30.250360
11
1.131719
21
30.021879
0
LINE
8
Layer 1
10
1.131719
20
30.021879
11
2.055885
21
29.398790
0
LINE
8
Layer 1
10
2.055885
20
29.398790
11
2.678971
21
28.474621
0
LINE
8
Layer 1
10
2.678971
20
28.474621
11
2.907450
21
27.342900
0
LINE
8
Layer 1
10
2.907450
20
27.342900
11
2.907450
21
27.342900
0
LINE
8
Layer 1
10
2.325970
20
27.342900
11
2.143185
21
26.437522
0
LINE
8
Layer 1
10
2.143185
20
26.437522
11
1.644714
21
25.698186
0
LINE
8
Layer 1
10
1.644714
20
25.698186
11
0.905378
21
25.199715
0
LINE
8
Layer 1
10
0.905378
20
25.199715
11
0.000000
21
25.016930
0
LINE
8
Layer 1
10
0.000000
20
25.016930
11
-0.905378
21
25.199715
0
LINE
8
Layer 1
10
-0.905378
20
25.199715
11
-1.644714
21
25.698186
0
LINE
8
Layer 1
10
-1.644714
20
25.698186
11
-2.143185
21
26.437522
0
LINE
8
Layer 1
10
-2.143185
20
26.437522
11
-2.325970
21
27.342900
0
LINE
8
Layer 1
10
-2.325970
20
27.342900
11
-2.143185
21
28.248278
0
LINE
8
Layer 1
10
-2.143185
20
28.248278
11
-1.644714
21
28.987614
0
LINE
8
Layer 1
10
-1.644714
20
28.987614
11
-0.905378
21
29.486085
0
LINE
8
Layer 1
10
-0.905378
20
29.486085
11
0.000000
21
29.668870
0
LINE
8
Layer 1
10
0.000000
20
29.668870
11
0.905378
21
29.486085
0
LINE
8
Layer 1
10
0.905378
20
29.486085
11
1.644714
21
28.987614
0
LINE
8
Layer 1
10
1.644714
20
28.987614
11
2.143185
21
28.248278
0
LINE
8
Layer 1
10
2.143185
20
28.248278
11
2.325970
21
27.342900
0
LINE
8
Layer 1
10
2.325970
20
27.342900
11
2.325970
21
27.342900
0
LINE
8
Layer 1
10
2.634400
20
67.560300
11
2.427377
21
66.534868
0
LINE
8
Layer 1
10
2.427377
20
66.534868
11
1.862806
21
65.697494
0
LINE
8
Layer 1
10
1.862806
20
65.697494
11
1.025432
21
65.132923
0
LINE
8
Layer 1
10
1.025432
20
65.132923
11
0.000000
21
64.925900
0
LINE
8
Layer 1
10
0.000000
20
64.925900
11
-1.025432
21
65.132923
0
LINE
8
Layer 1
10
-1.025432
20
65.132923
11
-1.862806
21
65.697494
0
LINE
8
Layer 1
10
-1.862806
20
65.697494
11
-2.427377
21
66.534868
0
LINE
8
Layer 1
10
-2.427377
20
66.534868
11
-2.634400
21
67.560300
0
LINE
8
Layer 1
10
-2.634400
20
67.560300
11
-2.427377
21
68.585732
0
LINE
8
Layer 1
10
-2.427377
20
68.585732
11
-1.862806
21
69.423106
0
LINE
8
Layer 1
10
-1.862806
20
69.423106
11
-1.025432
21
69.987677
0
LINE
8
Layer 1
10
-1.025432
20
69.987677
11
0.000000
21
70.194700
0
LINE
8
Layer 1
10
0.000000
20
70.194700
11
1.025432
21
69.987677
0
LINE
8
Layer 1
10
1.025432
20
69.987677
11
1.862806
21
69.423106
0
LINE
8
Layer 1
10
1.862806
20
69.423106
11
2.427377
21
68.585732
0
LINE
8
Layer 1
10
2.427377
20
68.585732
11
2.634400
21
67.560300
0
LINE
8
Layer 1
10
2.634400
20
67.560300
11
2.634400
21
67.560300
0
LINE
8
Layer 1
10
-26.779000
20
44.686200
11
-27.925943
21
44.553776
0
LINE
8
Layer 1
10
-27.925943
20
44.553776
11
-28.997434
21
44.860785
0
LINE
8
Layer 1
10
-28.997434
20
44.860785
11
-29.875617
21
45.547178
0
LINE
8
Layer 1
10
-29.875617
20
45.547178
11
-30.442640
21
46.552910
0
LINE
8
Layer 1
10
-30.442640
20
46.552910
11
-30.575067
21
47.699857
0
LINE
8
Layer 1
10
-30.575067
20
47.699857
11
-30.268059
21
48.771347
0
LINE
8
Layer 1
10
-30.268059
20
48.771347
11
-29.581664
21
49.649529
0
LINE
8
Layer 1
10
-29.581664
20
49.649529
11
-28.575930
21
50.216550
0
LINE
8
Layer 1
10
-28.575930
20
50.216550
11
-27.428987
21
50.348976
0
LINE
8
Layer 1
10
-27.428987
20
50.348976
11
-26.357496
21
50.041968
0
LINE
8
Layer 1
10
-26.357496
20
50.041968
11
-25.479313
21
49.355573
0
LINE
8
Layer 1
10
-25.479313
20
49.355573
11
-24.912290
21
48.349840
0
LINE
8
Layer 1
10
-24.912290
20
48.349840
11
-24.779863
21
47.202897
0
LINE
8
Layer 1
10
-24.779863
20
47.202897
11
-25.086870
21
46.131406
0
LINE
8
Layer 1
10
-25.086870
20
46.131406
11
-25.773265
21
45.253223
0
LINE
8
Layer 1
10
-25.773265
20
45.253223
11
-26.779000
21
44.686200
0
LINE
8
Layer 1
10
-26.779000
20
44.686200
11
-26.779000
21
44.686200
0
LINE
8
Layer 1
10
-26.958700
20
45.239300
11
-27.876258
21
45.133359
0
LINE
8
Layer 1
10
-27.876258
20
45.133359
11
-28.733453
21
45.378967
0
LINE
8
Layer 1
10
-28.733453
20
45.378967
11
-29.436001
21
45.928084
0
LINE
8
Layer 1
10
-29.436001
20
45.928084
11
-29.889620
21
46.732670
0
LINE
8
Layer 1
10
-29.889620
20
46.732670
11
-29.995562
21
47.650228
0
LINE
8
Layer 1
10
-29.995562
20
47.650228
11
-29.749954
21
48.507422
0
LINE
8
Layer 1
10
-29.749954
20
48.507422
11
-29.200837
21
49.209971
0
LINE
8
Layer 1
10
-29.200837
20
49.209971
11
-28.396250
21
49.663590
0
LINE
8
Layer 1
10
-28.396250
20
49.663590
11
-27.478696
21
49.769530
0
LINE
8
Layer 1
10
-27.478696
20
49.769530
11
-26.621501
21
49.523922
0
LINE
8
Layer 1
10
-26.621501
20
49.523922
11
-25.918951
21
48.974806
0
LINE
8
Layer 1
10
-25.918951
20
48.974806
11
-25.465330
21
48.170220
0
LINE
8
Layer 1
10
-25.465330
20
48.170220
11
-25.359388
21
47.252662
0
LINE
8
Layer 1
10
-25.359388
20
47.252662
11
-25.604996
21
46.395468
0
LINE
8
Layer 1
10
-25.604996
20
46.395468
11
-26.154113
21
45.692919
0
LINE
8
Layer 1
10
-26.154113
20
45.692919
11
-26.958700
21
45.239300
0
LINE
8
Layer 1
10
-26.958700
20
45.239300
11
-26.958700
21
45.239300
0
LINE
8
Layer 1
10
11.386100
20
57.374000
11
10.346848
21
57.254009
0
LINE
8
Layer 1
10
10.346848
20
57.254009
11
9.375979
21
57.532175
0
LINE
8
Layer 1
10
9.375979
20
57.532175
11
8.580270
21
58.154103
0
LINE
8
Layer 1
10
8.580270
20
58.154103
11
8.066500
21
59.065400
0
LINE
8
Layer 1
10
8.066500
20
59.065400
11
7.946514
21
60.104626
0
LINE
8
Layer 1
10
7.946514
20
60.104626
11
8.224693
21
61.075487
0
LINE
8
Layer 1
10
8.224693
20
61.075487
11
8.846628
21
61.871198
0
LINE
8
Layer 1
10
8.846628
20
61.871198
11
9.757910
21
62.384970
0
LINE
8
Layer 1
10
9.757910
20
62.384970
11
10.797136
21
62.504959
0
LINE
8
Layer 1
10
10.797136
20
62.504959
11
11.767997
21
62.226782
0
LINE
8
Layer 1
10
11.767997
20
62.226782
11
12.563708
21
61.604849
0
LINE
8
Layer 1
10
12.563708
20
61.604849
11
13.077480
21
60.693570
0
LINE
8
Layer 1
10
13.077480
20
60.693570
11
13.197469
21
59.654340
0
LINE
8
Layer 1
10
13.197469
20
59.654340
11
12.919291
21
58.683479
0
LINE
8
Layer 1
10
12.919291
20
58.683479
11
12.297359
21
57.887771
0
LINE
8
Layer 1
10
12.297359
20
57.887771
11
11.386080
21
57.374000
0
LINE
8
Layer 1
10
11.386080
20
57.374000
11
11.386100
21
57.374000
0
LINE
8
Layer 1
10
-19.457600
20
78.279200
11
-19.937962
21
79.329085
0
LINE
8
Layer 1
10
-19.937962
20
79.329085
11
-19.977081
21
80.442998
0
LINE
8
Layer 1
10
-19.977081
20
80.442998
11
-19.595650
21
81.490299
0
LINE
8
Layer 1
10
-19.595650
20
81.490299
11
-18.814360
21
82.340350
0
LINE
8
Layer 1
10
-18.814360
20
82.340350
11
-17.764481
21
82.820710
0
LINE
8
Layer 1
10
-17.764481
20
82.820710
11
-16.650571
21
82.859829
0
LINE
8
Layer 1
10
-16.650571
20
82.859829
11
-15.603271
21
82.478397
0
LINE
8
Layer 1
10
-15.603271
20
82.478397
11
-14.753220
21
81.697107
0
LINE
8
Layer 1
10
-14.753220
20
81.697107
11
-14.272860
21
80.647226
0
LINE
8
Layer 1
10
-14.272860
20
80.647226
11
-14.233741
21
79.533315
0
LINE
8
Layer 1
10
-14.233741
20
79.533315
11
-14.615171
21
78.486014
0
LINE
8
Layer 1
10
-14.615171
20
78.486014
11
-15.396458
21
77.635967
0
LINE
8
Layer 1
10
-15.396458
20
77.635967
11
-16.446343
21
77.155606
0
LINE
8
Layer 1
10
-16.446343
20
77.155606
11
-17.560254
21
77.116487
0
LINE
8
Layer 1
10
-17.560254
20
77.116487
11
-18.607553
21
77.497917
0
LINE
8
Layer 1
10
-18.607553
20
77.497917
11
-19.457598
21
78.279205
0
LINE
8
Layer 1
10
-19.457598
20
78.279205
11
-19.457600
21
78.279200
0
LINE
8
Layer 1
10
-18.987200
20
78.621000
11
-19.371491
21
79.460908
0
LINE
8
Layer 1
10
-19.371491
20
79.460908
11
-19.402788
21
80.352039
0
LINE
8
Layer 1
10
-19.402788
20
80.352039
11
-19.097644
21
81.189880
0
LINE
8
Layer 1
10
-19.097644
20
81.189880
11
-18.472613
21
81.869920
0
LINE
8
Layer 1
10
-18.472613
20
81.869920
11
-17.632705
21
82.254209
0
LINE
8
Layer 1
10
-17.632705
20
82.254209
11
-16.741573
21
82.285505
0
LINE
8
Layer 1
10
-16.741573
20
82.285505
11
-15.903729
21
81.980360
0
LINE
8
Layer 1
10
-15.903729
20
81.980360
11
-15.223683
21
81.355328
0
LINE
8
Layer 1
10
-15.223683
20
81.355328
11
-14.839394
21
80.515420
0
LINE
8
Layer 1
10
-14.839394
20
80.515420
11
-14.808099
21
79.624289
0
LINE
8
Layer 1
10
-14.808099
20
79.624289
11
-15.113243
21
78.786448
0
LINE
8
Layer 1
10
-15.113243
20
78.786448
11
-15.738275
21
78.106408
0
LINE
8
Layer 1
10
-15.738275
20
78.106408
11
-16.578183
21
77.722119
0
LINE
8
Layer 1
10
-16.578183
20
77.722119
11
-17.469314
21
77.690823
0
LINE
8
Layer 1
10
-17.469314
20
77.690823
11
-18.307155
21
77.995968
0
LINE
8
Layer 1
10
-18.307155
20
77.995968
11
-18.987195
21
78.621000
0
LINE
8
Layer 1
10
-18.987195
20
78.621000
11
-18.987200
21
78.621000
0
LINE
8
Layer 1
10
4.402490
20
45.902900
11
3.967241
21
46.854195
0
LINE
8
Layer 1
10
3.967241
20
46.854195
11
3.931795
21
47.863512
0
LINE
8
Layer 1
10
3.931795
20
47.863512
11
4.277401
21
48.812473
0
LINE
8
Layer 1
10
4.277401
20
48.812473
11
4.985310
21
49.582700
0
LINE
8
Layer 1
10
4.985310
20
49.582700
11
5.936592
21
50.017951
0
LINE
8
Layer 1
10
5.936592
20
50.017951
11
6.945889
21
50.053397
0
LINE
8
Layer 1
10
6.945889
20
50.053397
11
7.894831
21
49.707790
0
LINE
8
Layer 1
10
7.894831
20
49.707790
11
8.665050
21
48.999878
0
LINE
8
Layer 1
10
8.665050
20
48.999878
11
9.100300
21
48.048596
0
LINE
8
Layer 1
10
9.100300
20
48.048596
11
9.135746
21
47.039299
0
LINE
8
Layer 1
10
9.135746
20
47.039299
11
8.790139
21
46.090357
0
LINE
8
Layer 1
10
8.790139
20
46.090357
11
8.082228
21
45.320138
0
LINE
8
Layer 1
10
8.082228
20
45.320138
11
7.130946
21
44.884889
0
LINE
8
Layer 1
10
7.130946
20
44.884889
11
6.121649
21
44.849443
0
LINE
8
Layer 1
10
6.121649
20
44.849443
11
5.172707
21
45.195051
0
LINE
8
Layer 1
10
5.172707
20
45.195051
11
4.402488
21
45.902963
0
LINE
8
Layer 1
10
4.402488
20
45.902963
11
4.402490
21
45.902900
0
LINE
8
Layer 1
10
14.753200
20
81.697100
11
15.603250
21
82.478392
0
LINE
8
Layer 1
10
15.603250
20
82.478392
11
16.650551
21
82.859823
0
LINE
8
Layer 1
10
16.650551
20
82.859823
11
17.764460
21
82.820703
0
LINE
8
Layer 1
10
17.764460
20
82.820703
11
18.814340
21
82.340343
0
LINE
8
Layer 1
10
18.814340
20
82.340343
11
19.595632
21
81.490291
0
LINE
8
Layer 1
10
19.595632
20
81.490291
11
19.977063
21
80.442990
0
LINE
8
Layer 1
10
19.977063
20
80.442990
11
19.937942
21
79.329078
0
LINE
8
Layer 1
10
19.937942
20
79.329078
11
19.457580
21
78.279193
0
LINE
8
Layer 1
10
19.457580
20
78.279193
11
18.607531
21
77.497906
0
LINE
8
Layer 1
10
18.607531
20
77.497906
11
17.560233
21
77.116475
0
LINE
8
Layer 1
10
17.560233
20
77.116475
11
16.446324
21
77.155593
0
LINE
8
Layer 1
10
16.446324
20
77.155593
11
15.396440
21
77.635955
0
LINE
8
Layer 1
10
15.396440
20
77.635955
11
14.615153
21
78.486004
0
LINE
8
Layer 1
10
14.615153
20
78.486004
11
14.233722
21
79.533304
0
LINE
8
Layer 1
10
14.233722
20
79.533304
11
14.272840
21
80.647215
0
LINE
8
Layer 1
10
14.272840
20
80.647215
11
14.753202
21
81.697095
0
LINE
8
Layer 1
10
14.753202
20
81.697095
11
14.753200
21
81.697100
0
LINE
8
Layer 1
10
15.223600
20
81.355300
11
15.903643
21
81.980333
0
LINE
8
Layer 1
10
15.903643
20
81.980333
11
16.741488
21
82.285477
0
LINE
8
Layer 1
10
16.741488
20
82.285477
11
17.632621
21
82.254180
0
LINE
8
Layer 1
10
17.632621
20
82.254180
11
18.472530
21
81.869892
0
LINE
8
Layer 1
10
18.472530
20
81.869892
11
19.097558
21
81.189850
0
LINE
8
Layer 1
10
19.097558
20
81.189850
11
19.402702
21
80.352007
0
LINE
8
Layer 1
10
19.402702
20
80.352007
11
19.371407
21
79.460876
0
LINE
8
Layer 1
10
19.371407
20
79.460876
11
18.987117
21
78.620972
0
LINE
8
Layer 1
10
18.987117
20
78.620972
11
18.307078
21
77.995939
0
LINE
8
Layer 1
10
18.307078
20
77.995939
11
17.469236
21
77.690795
0
LINE
8
Layer 1
10
17.469236
20
77.690795
11
16.578106
21
77.722092
0
LINE
8
Layer 1
10
16.578106
20
77.722092
11
15.738197
21
78.106380
0
LINE
8
Layer 1
10
15.738197
20
78.106380
11
15.113164
21
78.786423
0
LINE
8
Layer 1
10
15.113164
20
78.786423
11
14.808020
21
79.624267
0
LINE
8
Layer 1
10
14.808020
20
79.624267
11
14.839317
21
80.515397
0
LINE
8
Layer 1
10
14.839317
20
80.515397
11
15.223605
21
81.355300
0
LINE
8
Layer 1
10
15.223605
20
81.355300
11
15.223600
21
81.355300
0
LINE
8
Layer 1
10
-8.665050
20
48.999800
11
-7.894831
21
49.707714
0
LINE
8
Layer 1
10
-7.894831
20
49.707714
11
-6.945889
21
50.053323
0
LINE
8
Layer 1
10
-6.945889
20
50.053323
11
-5.936592
21
50.017875
0
LINE
8
Layer 1
10
-5.936592
20
50.017875
11
-4.985310
21
49.582622
0
LINE
8
Layer 1
10
-4.985310
20
49.582622
11
-4.277401
21
48.812403
0
LINE
8
Layer 1
10
-4.277401
20
48.812403
11
-3.931795
21
47.863461
0
LINE
8
Layer 1
10
-3.931795
20
47.863461
11
-3.967240
21
46.854164
0
LINE
8
Layer 1
10
-3.967240
20
46.854164
11
-4.402488
21
45.902882
0
LINE
8
Layer 1
10
-4.402488
20
45.902882
11
-5.172707
21
45.194968
0
LINE
8
Layer 1
10
-5.172707
20
45.194968
11
-6.121649
21
44.849359
0
LINE
8
Layer 1
10
-6.121649
20
44.849359
11
-7.130946
21
44.884806
0
LINE
8
Layer 1
10
-7.130946
20
44.884806
11
-8.082228
21
45.320057
0
LINE
8
Layer 1
10
-8.082228
20
45.320057
11
-8.790138
21
46.090277
0
LINE
8
Layer 1
10
-8.790138
20
46.090277
11
-9.135747
21
47.039219
0
LINE
8
Layer 1
10
-9.135747
20
47.039219
11
-9.100302
21
48.048516
0
LINE
8
Layer 1
10
-9.100302
20
48.048516
11
-8.665050
21
48.999797
0
LINE
8
Layer 1
10
-8.665050
20
48.999797
11
-8.665050
21
48.999800
0
LINE
8
Layer 1
10
28.575900
20
50.216600
11
29.581632
21
49.649577
0
LINE
8
Layer 1
10
29.581632
20
49.649577
11
30.268026
21
48.771393
0
LINE
8
Layer 1
10
30.268026
20
48.771393
11
30.575035
21
47.699903
0
LINE
8
Layer 1
10
30.575035
20
47.699903
11
30.442610
21
46.552960
0
LINE
8
Layer 1
10
30.442610
20
46.552960
11
29.875588
21
45.547228
0
LINE
8
Layer 1
10
29.875588
20
45.547228
11
28.997405
21
44.860834
0
LINE
8
Layer 1
10
28.997405
20
44.860834
11
27.925914
21
44.553825
0
LINE
8
Layer 1
10
27.925914
20
44.553825
11
26.778970
21
44.686250
0
LINE
8
Layer 1
10
26.778970
20
44.686250
11
25.773234
21
45.253274
0
LINE
8
Layer 1
10
25.773234
20
45.253274
11
25.086840
21
46.131458
0
LINE
8
Layer 1
10
25.086840
20
46.131458
11
24.779834
21
47.202947
0
LINE
8
Layer 1
10
24.779834
20
47.202947
11
24.912260
21
48.349890
0
LINE
8
Layer 1
10
24.912260
20
48.349890
11
25.479282
21
49.355626
0
LINE
8
Layer 1
10
25.479282
20
49.355626
11
26.357465
21
50.042020
0
LINE
8
Layer 1
10
26.357465
20
50.042020
11
27.428956
21
50.349026
0
LINE
8
Layer 1
10
27.428956
20
50.349026
11
28.575900
21
50.216600
0
LINE
8
Layer 1
10
28.575900
20
50.216600
11
28.575900
21
50.216600
0
LINE
8
Layer 1
10
28.396200
20
49.663600
11
29.200790
21
49.209979
0
LINE
8
Layer 1
10
29.200790
20
49.209979
11
29.749909
21
48.507431
0
LINE
8
Layer 1
10
29.749909
20
48.507431
11
29.995515
21
47.650238
0
LINE
8
Layer 1
10
29.995515
20
47.650238
11
29.889570
21
46.732680
0
LINE
8
Layer 1
10
29.889570
20
46.732680
11
29.435950
21
45.928090
0
LINE
8
Layer 1
10
29.435950
20
45.928090
11
28.733402
21
45.378971
0
LINE
8
Layer 1
10
28.733402
20
45.378971
11
27.876208
21
45.133365
0
LINE
8
Layer 1
10
27.876208
20
45.133365
11
26.958650
21
45.239310
0
LINE
8
Layer 1
10
26.958650
20
45.239310
11
26.154060
21
45.692931
0
LINE
8
Layer 1
10
26.154060
20
45.692931
11
25.604941
21
46.395479
0
LINE
8
Layer 1
10
25.604941
20
46.395479
11
25.359335
21
47.252672
0
LINE
8
Layer 1
10
25.359335
20
47.252672
11
25.465280
21
48.170230
0
LINE
8
Layer 1
10
25.465280
20
48.170230
11
25.918900
21
48.974819
0
LINE
8
Layer 1
10
25.918900
20
48.974819
11
26.621448
21
49.523935
0
LINE
8
Layer 1
10
26.621448
20
49.523935
11
27.478642
21
49.769541
0
LINE
8
Layer 1
10
27.478642
20
49.769541
11
28.396200
21
49.663600
0
LINE
8
Layer 1
10
28.396200
20
49.663600
11
28.396200
21
49.663600
0
LINE
8
Layer 1
10
-9.757910
20
62.384900
11
-8.846627
21
61.871129
0
LINE
8
Layer 1
10
-8.846627
20
61.871129
11
-8.224691
21
61.075421
0
LINE
8
Layer 1
10
-8.224691
20
61.075421
11
-7.946512
21
60.104560
0
LINE
8
Layer 1
10
-7.946512
20
60.104560
11
-8.066500
21
59.065330
0
LINE
8
Layer 1
10
-8.066500
20
59.065330
11
-8.580274
21
58.154047
0
LINE
8
Layer 1
10
-8.580274
20
58.154047
11
-9.375984
21
57.532113
0
LINE
8
Layer 1
10
-9.375984
20
57.532113
11
-10.346845
21
57.253937
0
LINE
8
Layer 1
10
-10.346845
20
57.253937
11
-11.386070
21
57.373930
0
LINE
8
Layer 1
10
-11.386070
20
57.373930
11
-12.297347
21
57.887701
0
LINE
8
Layer 1
10
-12.297347
20
57.887701
11
-12.919280
21
58.683409
0
LINE
8
Layer 1
10
-12.919280
20
58.683409
11
-13.197458
21
59.654270
0
LINE
8
Layer 1
10
-13.197458
20
59.654270
11
-13.077470
21
60.693500
0
LINE
8
Layer 1
10
-13.077470
20
60.693500
11
-12.563699
21
61.604777
0
LINE
8
Layer 1
10
-12.563699
20
61.604777
11
-11.767991
21
62.226710
0
LINE
8
Layer 1
10
-11.767991
20
62.226710
11
-10.797130
21
62.504888
0
LINE
8
Layer 1
10
-10.797130
20
62.504888
11
-9.757900
21
62.384900
0
LINE
8
Layer 1
10
-9.757900
20
62.384900
11
-9.757910
21
62.384900
0
LINE
8
Layer 1
10
2.907450
20
27.342900
11
2.678971
21
26.211179
0
LINE
8
Layer 1
10
2.678971
20
26.211179
11
2.055885
21
25.287010
0
LINE
8
Layer 1
10
2.055885
20
25.287010
11
1.131719
21
24.663921
0
LINE
8
Layer 1
10
1.131719
20
24.663921
11
0.000000
21
24.435440
0
LINE
8
Layer 1
10
0.000000
20
24.435440
11
-1.131719
21
24.663921
0
LINE
8
Layer 1
10
-1.131719
20
24.663921
11
-2.055885
21
25.287010
0
LINE
8
Layer 1
10
-2.055885
20
25.287010
11
-2.678971
21
26.211179
0
LINE
8
Layer 1
10
-2.678971
20
26.211179
11
-2.907450
21
27.342900
0
LINE
8
Layer 1
10
-2.907450
20
27.342900
11
-2.678971
21
28.474621
0
LINE
8
Layer 1
10
-2.678971
20
28.474621
11
-2.055885
21
29.398790
0
LINE
8
Layer 1
10
-2.055885
20
29.398790
11
-1.131719
21
30.021879
0
LINE
8
Layer 1
10
-1.131719
20
30.021879
11
0.000000
21
30.250360
0
LINE
8
Layer 1
10
0.000000
20
30.250360
11
1.131719
21
30.021879
0
LINE
8
Layer 1
10
1.131719
20
30.021879
11
2.055885
21
29.398790
0
LINE
8
Layer 1
10
2.055885
20
29.398790
11
2.678971
21
28.474621
0
LINE
8
Layer 1
10
2.678971
20
28.474621
11
2.907450
21
27.342900
0
LINE
8
Layer 1
10
2.907450
20
27.342900
11
2.907450
21
27.342900
0
LINE
8
Layer 1
10
2.325970
20
27.342900
11
2.143185
21
26.437522
0
LINE
8
Layer 1
10
2.143185
20
26.437522
11
1.644714
21
25.698186
0
LINE
8
Layer 1
10
1.644714
20
25.698186
11
0.905378
21
25.199715
0
LINE
8
Layer 1
10
0.905378
20
25.199715
11
0.000000
21
25.016930
0
LINE
8
Layer 1
10
0.000000
20
25.016930
11
-0.905378
21
25.199715
0
LINE
8
Layer 1
10
-0.905378
20
25.199715
11
-1.644714
21
25.698186
0
LINE
8
Layer 1
10
-1.644714
20
25.698186
11
-2.143185
21
26.437522
0
LINE
8
Layer 1
10
-2.143185
20
26.437522
11
-2.325970
21
27.342900
0
LINE
8
Layer 1
10
-2.325970
20
27.342900
11
-2.143185
21
28.248278
0
LINE
8
Layer 1
10
-2.143185
20
28.248278
11
-1.644714
21
28.987614
0
LINE
8
Layer 1
10
-1.644714
20
28.987614
11
-0.905378
21
29.486085
0
LINE
8
Layer 1
10
-0.905378
20
29.486085
11
0.000000
21
29.668870
0
LINE
8
Layer 1
10
0.000000
20
29.668870
11
0.905378
21
29.486085
0
LINE
8
Layer 1
10
0.905378
20
29.486085
11
1.644714
21
28.987614
0
LINE
8
Layer 1
10
1.644714
20
28.987614
11
2.143185
21
28.248278
0
LINE
8
Layer 1
10
2.143185
20
28.248278
11
2.325970
21
27.342900
0
LINE
8
Layer 1
10
2.325970
20
27.342900
11
2.325970
21
27.342900
0
LINE
8
Layer 1
10
2.634400
20
67.560300
11
2.427377
21
66.534868
0
LINE
8
Layer 1
10
2.427377
20
66.534868
11
1.862806
21
65.697494
0
LINE
8
Layer 1
10
1.862806
20
65.697494
11
1.025432
21
65.132923
0
LINE
8
Layer 1
10
1.025432
20
65.132923
11
0.000000
21
64.925900
0
LINE
8
Layer 1
10
0.000000
20
64.925900
11
-1.025432
21
65.132923
0
LINE
8
Layer 1
10
-1.025432
20
65.132923
11
-1.862806
21
65.697494
0
LINE
8
Layer 1
10
-1.862806
20
65.697494
11
-2.427377
21
66.534868
0
LINE
8
Layer 1
10
-2.427377
20
66.534868
11
-2.634400
21
67.560300
0
LINE
8
Layer 1
10
-2.634400
20
67.560300
11
-2.427377
21
68.585732
0
LINE
8
Layer 1
10
-2.427377
20
68.585732
11
-1.862806
21
69.423106
0
LINE
8
Layer 1
10
-1.862806
20
69.423106
11
-1.025432
21
69.987677
0
LINE
8
Layer 1
10
-1.025432
20
69.987677
11
0.000000
21
70.194700
0
LINE
8
Layer 1
10
0.000000
20
70.194700
11
1.025432
21
69.987677
0
LINE
8
Layer 1
10
1.025432
20
69.987677
11
1.862806
21
69.423106
0
LINE
8
Layer 1
10
1.862806
20
69.423106
11
2.427377
21
68.585732
0
LINE
8
Layer 1
10
2.427377
20
68.585732
11
2.634400
21
67.560300
0
LINE
8
Layer 1
10
2.634400
20
67.560300
11
2.634400
21
67.560300
 0 
ENDSEC
 0 
EOF