<?xml version="1.0" encoding="UTF-8" standalone="no"?>
<svg
   xmlns:osb="http://www.openswatchbook.org/uri/2009/osb"
   xmlns:dc="http://purl.org/dc/elements/1.1/"
   xmlns:cc="http://creativecommons.org/ns#"
   xmlns:rdf="http://www.w3.org/1999/02/22-rdf-syntax-ns#"
   xmlns:svg="http://www.w3.org/2000/svg"
   xmlns="http://www.w3.org/2000/svg"
   xmlns:sodipodi="http://sodipodi.sourceforge.net/DTD/sodipodi-0.dtd"
   xmlns:inkscape="http://www.inkscape.org/namespaces/inkscape"
   version="1.1"
   id="svg10"
   width="220.8"
   height="210.56"
   viewBox="0 0 220.8 210.56"
   sodipodi:docname="pile-of-poo-recreate-remove-png.svg"
   inkscape:version="1.0.1 (3bc2e813f5, 2020-09-07)">
  <metadata
     id="metadata16">
    <rdf:RDF>
      <cc:Work
         rdf:about="">
        <dc:format>image/svg+xml</dc:format>
        <dc:type
           rdf:resource="http://purl.org/dc/dcmitype/StillImage" />
        <dc:title></dc:title>
      </cc:Work>
    </rdf:RDF>
  </metadata>
  <defs
     id="defs14">
    <linearGradient
       id="linearGradient880"
       osb:paint="solid">
      <stop
         style="stop-color:#ff0000;stop-opacity:1;"
         offset="0"
         id="stop878" />
    </linearGradient>
  </defs>
  <sodipodi:namedview
     pagecolor="#ffffff"
     bordercolor="#666666"
     borderopacity="1"
     objecttolerance="10"
     gridtolerance="10"
     guidetolerance="10"
     inkscape:pageopacity="0"
     inkscape:pageshadow="2"
     inkscape:window-width="1920"
     inkscape:window-height="1017"
     id="namedview12"
     showgrid="false"
     inkscape:zoom="2.1039894"
     inkscape:cx="-45.78965"
     inkscape:cy="143.50429"
     inkscape:window-x="-8"
     inkscape:window-y="-8"
     inkscape:window-maximized="1"
     inkscape:current-layer="g18"
     showguides="true"
     inkscape:guide-bbox="true">
    <sodipodi:guide
       position="127.45414,48.13873"
       orientation="0,-1"
       id="guide45" />
  </sodipodi:namedview>
  <g
     inkscape:groupmode="layer"
     inkscape:label="Image"
     id="g18">
    <path
       style="fill:none;stroke:#000000;stroke-width:1px;stroke-linecap:butt;stroke-linejoin:miter;stroke-opacity:1"
       d="M 84.784134,0 C 112.8312,2.5874405 150.49877,42.254677 144.36217,61.105654 127.73365,76.444888 108.9422,85.741364 89.621668,92.422317 77.230793,80.596867 64.203471,82.05758 52.576334,97.896382 46.985325,85.796838 42.040257,68.253583 75.872889,50.412188 c 10.269947,1.055407 20.18438,0.759863 28.770591,-4.582926 l -1.52764,-3.055284 C 95.465811,46.873465 87.341802,48.603055 78.673566,47.611511 74.632726,40.05817 77.946334,32.377539 83.001857,24.824197 87.505346,17.357582 92.936358,11.260888 84.784134,0 Z"
       id="path22"
       sodipodi:nodetypes="cccccccccc" />
    <ellipse
       style="fill:none;fill-rule:evenodd;stroke-width:1;stroke:#000000;stroke-opacity:1;stroke-miterlimit:4;stroke-dasharray:none;fill-opacity:1"
       id="path24"
       cx="74.07238"
       cy="118.45373"
       rx="12.000552"
       ry="17.69047" />
    <ellipse
       style="fill:none;fill-rule:evenodd;stroke-width:1.08797;stroke:#000000;stroke-opacity:1"
       id="path24-2"
       cx="147.93784"
       cy="117.72956"
       rx="12.000552"
       ry="17.69047" />
    <path
       style="fill:none;stroke:#000000;stroke-width:1px;stroke-linecap:butt;stroke-linejoin:miter;stroke-opacity:1"
       d="m 147.39851,159.41377 c -24.20801,4.08008 -48.083593,3.75 -72.291605,0.11081 -5.633321,0.35895 -5.211177,2.08682 -5.172652,3.51741 23.650924,31.25535 62.562377,26.16863 81.683747,-0.62072 0.90328,-1.60765 -0.98488,-2.48973 -4.21949,-3.0075 z"
       id="path43"
       sodipodi:nodetypes="ccccc" />
    <path
       style="fill:none;stroke:#000000;stroke-width:1px;stroke-linecap:butt;stroke-linejoin:miter;stroke-opacity:1"
       d="m 84.105943,203.67157 c 39.715377,-11.10495 84.573937,-16.8392 109.871477,-53.58292 13.45914,4.46319 20.05942,12.12516 23.84393,19.42829 14.93294,28.8167 -25.39627,52.57997 -133.050538,34.04382 z"
       id="path47"
       sodipodi:nodetypes="ccscc" />
    <path
       style="fill:none;stroke:#000000;stroke-width:1px;stroke-linecap:butt;stroke-linejoin:miter;stroke-opacity:1"
       d="m 50.626469,100.53989 c -3.175715,14.31331 -5.959105,28.65567 7.605854,44.20903 -9.982684,1.68429 -19.965368,2.114 -29.948052,1.90146 -7.197575,-27.57431 3.077622,-40.58797 22.342198,-46.11049 z"
       id="path49"
       sodipodi:nodetypes="cccc" />
    <path
       style="fill:none;stroke:#000000;stroke-width:1px;stroke-linecap:butt;stroke-linejoin:miter;stroke-opacity:1"
       d="m 91.86446,95.310863 c 11.81066,-3.481418 34.53911,-13.379889 53.59751,-31.255308 22.85706,4.549785 29.73633,15.698666 24.71902,31.968357 l -2.13914,1.663781 c -21.95094,-30.264664 -50.53927,-2.75762 -45.87281,28.046597 -12.80506,7.20961 -20.25118,8.90015 -27.808908,11.17109 6.336118,-13.02299 8.205488,-26.04749 -2.495672,-41.594517 z"
       id="path51"
       sodipodi:nodetypes="ccccccc" />
    <path
       style="fill:none;stroke:#000000;stroke-width:1px;stroke-linecap:butt;stroke-linejoin:miter;stroke-opacity:1"
       d="M 0.23768295,187.05621 C 2.2561913,212.84576 36.028113,210.81346 58.972768,205.99751 117.49259,193.71453 173.19508,178.14354 187.8704,153.13882 200.74228,135.93388 201.49879,111.45807 171.60709,98.876108 l -2.06456,2.114852 c 17.42736,37.00532 -27.42103,77.10285 -46.42276,28.07088 -10.56645,4.29468 -21.13291,9.83449 -31.699361,11.82469 -13.583858,15.55236 -23.56067,9.47053 -29.488843,6.83984 -12.037391,1.37991 -24.093738,2.63659 -36.570342,1.1616 -20.499803,10.17266 -26.11741349,24.20258 -25.12354105,38.16824 z"
       id="path53"
       sodipodi:nodetypes="cscccccccc" />
  </g>
</svg>
