  0
SECTION
  2
HEADER
  9
$ACADVER
  1
AC1014
  9
$HANDSEED
  5
FFFF
  9
$MEASUREMENT
 70
     1
  0
ENDSEC
  0
SECTION
  2
TABLES
  0
TABLE
  2
VPORT
  5
8
330
0
100
AcDbSymbolTable
 70
     4
  0
VPORT
  5
2E
330
8
100
AcDbSymbolTableRecord
100
AcDbViewportTableRecord
  2
*ACTIVE
 70
     0
 10
0.0
 20
0.0
 11
1.0
 21
1.0
 12
210.0
 22
148.5
 13
0.0
 23
0.0
 14
10.0
 24
10.0
 15
10.0
 25
10.0
 16
0.0
 26
0.0
 36
1.0
 17
0.0
 27
0.0
 37
0.0
 40
341.0
 41
1.24
 42
50.0
 43
0.0
 44
0.0
 50
0.0
 51
0.0
 71
     0
 72
   100
 73
     1
 74
     3
 75
     0
 76
     0
 77
     0
 78
     0
  0
ENDTAB
  0
TABLE
  2
LTYPE
  5
5
330
0
100
AcDbSymbolTable
 70
     1
  0
LTYPE
  5
14
330
5
100
AcDbSymbolTableRecord
100
AcDbLinetypeTableRecord
  2
BYBLOCK
 70
     0
  3

 72
    65
 73
     0
 40
0.0
  0
LTYPE
  5
15
330
5
100
AcDbSymbolTableRecord
100
AcDbLinetypeTableRecord
  2
BYLAYER
 70
     0
  3

 72
    65
 73
     0
 40
0.0
  0
LTYPE
  5
16
330
5
100
AcDbSymbolTableRecord
100
AcDbLinetypeTableRecord
  2
CONTINUOUS
 70
     0
  3
Solid line
 72
    65
 73
     0
 40
0.0
  0
ENDTAB
  0
TABLE
  2
LAYER
  5
2
100
AcDbSymbolTable
 70
2
  0
LAYER
  5
50
100
AcDbSymbolTableRecord
100
AcDbLayerTableRecord
  2
0
 70
0
  6
CONTINUOUS
  0
LAYER
  5
51
100
AcDbSymbolTableRecord
100
AcDbLayerTableRecord
  2
Image
 70
0
  6
CONTINUOUS
  0
ENDTAB
  0
TABLE
  2
STYLE
  5
3
330
0
100
AcDbSymbolTable
 70
     1
  0
STYLE
  5
11
330
3
100
AcDbSymbolTableRecord
100
AcDbTextStyleTableRecord
  2
STANDARD
 70
     0
 40
0.0
 41
1.0
 50
0.0
 71
     0
 42
2.5
  3
txt
  4

  0
ENDTAB
  0
TABLE
  2
VIEW
  5
6
330
0
100
AcDbSymbolTable
 70
     0
  0
ENDTAB
  0
TABLE
  2
UCS
  5
7
330
0
100
AcDbSymbolTable
 70
     0
  0
ENDTAB
  0
TABLE
  2
APPID
  5
9
330
0
100
AcDbSymbolTable
 70
     2
  0
APPID
  5
12
330
9
100
AcDbSymbolTableRecord
100
AcDbRegAppTableRecord
  2
ACAD
 70
     0
  0
ENDTAB
  0
TABLE
  2
DIMSTYLE
  5
A
330
0
100
AcDbSymbolTable
 70
     1
  0
DIMSTYLE
105
27
330
A
100
AcDbSymbolTableRecord
100
AcDbDimStyleTableRecord
  2
ISO-25
 70
     0
  3

  4

  5

  6

  7

 40
1.0
 41
2.5
 42
0.625
 43
3.75
 44
1.25
 45
0.0
 46
0.0
 47
0.0
 48
0.0
140
2.5
141
2.5
142
0.0
143
0.03937007874016
144
1.0
145
0.0
146
1.0
147
0.625
 71
     0
 72
     0
 73
     0
 74
     0
 75
     0
 76
     0
 77
     1
 78
     8
170
     0
171
     3
172
     1
173
     0
174
     0
175
     0
176
     0
177
     0
178
     0
270
     2
271
     2
272
     2
273
     2
274
     3
340
11
275
     0
280
     0
281
     0
282
     0
283
     0
284
     8
285
     0
286
     0
287
     3
288
     0
  0
ENDTAB
  0
TABLE
  2
BLOCK_RECORD
  5
1
330
0
100
AcDbSymbolTable
 70
     1
  0
BLOCK_RECORD
  5
1F
330
1
100
AcDbSymbolTableRecord
100
AcDbBlockTableRecord
  2
*MODEL_SPACE
  0
BLOCK_RECORD
  5
1B
330
1
100
AcDbSymbolTableRecord
100
AcDbBlockTableRecord
  2
*PAPER_SPACE
  0
ENDTAB
  0
ENDSEC
  0
SECTION
  2
BLOCKS
  0
BLOCK
  5
20
330
1F
100
AcDbEntity
  8
0
100
AcDbBlockBegin
  2
*MODEL_SPACE
 70
     0
 10
0.0
 20
0.0
 30
0.0
  3
*MODEL_SPACE
  1

  0
ENDBLK
  5
21
330
1F
100
AcDbEntity
  8
0
100
AcDbBlockEnd
  0
BLOCK
  5
1C
330
1B
100
AcDbEntity
 67
     1
  8
0
100
AcDbBlockBegin
  2
*PAPER_SPACE
  1

  0
ENDBLK
  5
1D
330
1B
100
AcDbEntity
 67
     1
  8
0
100
AcDbBlockEnd
  0
ENDSEC
  0
SECTION
  2
ENTITIES
  0
SPLINE
  5
100
100
AcDbEntity
  8
Image
 62
7
100
AcDbSpline
 70
8
 71
3
 72
8
 73
4
 74
0
 40
0
 40
0
 40
0
 40
0
 40
1
 40
1
 40
1
 40
1
 10
63.588100
 20
157.920000
 30
0.0
 10
84.623400
 20
155.979420
 30
0.0
 10
112.874077
 20
126.228992
 30
0.0
 10
108.271627
 20
112.090760
 30
0.0
  0
SPLINE
  5
101
100
AcDbEntity
  8
Image
 62
7
100
AcDbSpline
 70
8
 71
3
 72
8
 73
4
 74
0
 40
0
 40
0
 40
0
 40
0
 40
1
 40
1
 40
1
 40
1
 10
108.271627
 20
112.090760
 30
0.0
 10
95.800237
 20
100.586334
 30
0.0
 10
81.706650
 20
93.613977
 30
0.0
 10
67.216251
 20
88.603262
 30
0.0
  0
SPLINE
  5
102
100
AcDbEntity
  8
Image
 62
7
100
AcDbSpline
 70
8
 71
3
 72
8
 73
4
 74
0
 40
0
 40
0
 40
0
 40
0
 40
1
 40
1
 40
1
 40
1
 10
67.216251
 20
88.603262
 30
0.0
 10
57.923095
 20
97.472350
 30
0.0
 10
48.152603
 20
96.376815
 30
0.0
 10
39.432251
 20
84.497714
 30
0.0
  0
SPLINE
  5
103
100
AcDbEntity
  8
Image
 62
7
100
AcDbSpline
 70
8
 71
3
 72
8
 73
4
 74
0
 40
0
 40
0
 40
0
 40
0
 40
1
 40
1
 40
1
 40
1
 10
39.432251
 20
84.497714
 30
0.0
 10
35.238994
 20
93.572372
 30
0.0
 10
31.530193
 20
106.729813
 30
0.0
 10
56.904667
 20
120.110859
 30
0.0
  0
SPLINE
  5
104
100
AcDbEntity
  8
Image
 62
7
100
AcDbSpline
 70
8
 71
3
 72
8
 73
4
 74
0
 40
0
 40
0
 40
0
 40
0
 40
1
 40
1
 40
1
 40
1
 10
56.904667
 20
120.110859
 30
0.0
 10
64.607127
 20
119.319304
 30
0.0
 10
72.042952
 20
119.540962
 30
0.0
 10
78.482610
 20
123.548054
 30
0.0
  0
SPLINE
  5
105
100
AcDbEntity
  8
Image
 62
7
100
AcDbSpline
 70
8
 71
3
 72
8
 73
4
 74
0
 40
0
 40
0
 40
0
 40
0
 40
1
 40
1
 40
1
 40
1
 10
77.336880
 20
125.839517
 30
0.0
 10
71.599358
 20
122.764901
 30
0.0
 10
65.506351
 20
121.467709
 30
0.0
 10
59.005174
 20
122.211367
 30
0.0
  0
SPLINE
  5
106
100
AcDbEntity
  8
Image
 62
7
100
AcDbSpline
 70
8
 71
3
 72
8
 73
4
 74
0
 40
0
 40
0
 40
0
 40
0
 40
1
 40
1
 40
1
 40
1
 10
59.005174
 20
122.211367
 30
0.0
 10
55.974545
 20
127.876373
 30
0.0
 10
58.459750
 20
133.636846
 30
0.0
 10
62.251393
 20
139.301852
 30
0.0
  0
SPLINE
  5
107
100
AcDbEntity
  8
Image
 62
7
100
AcDbSpline
 70
8
 71
3
 72
8
 73
4
 74
0
 40
0
 40
0
 40
0
 40
0
 40
1
 40
1
 40
1
 40
1
 10
62.251393
 20
139.301852
 30
0.0
 10
65.629009
 20
144.901814
 30
0.0
 10
69.702269
 20
149.474334
 30
0.0
 10
63.588100
 20
157.920000
 30
0.0
  0
LWPOLYLINE
  5
108
100
AcDbEntity
  8
Image
 62
7
100
AcDbPolyline
 90
2
 70
0
 10
78.482610
 20
123.548054
 30
0.0
 10
77.336880
 20
125.839517
 30
0.0
  0
SPLINE
  5
109
100
AcDbEntity
  8
Image
 62
7
100
AcDbSpline
 70
8
 71
3
 72
8
 73
4
 74
0
 40
0
 40
0
 40
0
 40
0
 40
1
 40
1
 40
1
 40
1
 10
55.554285
 20
82.347555
 30
0.0
 10
51.913957
 20
82.347555
 30
0.0
 10
48.632080
 20
79.114947
 30
0.0
 10
47.238987
 20
74.157090
 30
0.0
  0
SPLINE
  5
10a
100
AcDbEntity
  8
Image
 62
7
100
AcDbSpline
 70
8
 71
3
 72
8
 73
4
 74
0
 40
0
 40
0
 40
0
 40
0
 40
1
 40
1
 40
1
 40
1
 10
47.238987
 20
74.157090
 30
0.0
 10
45.845894
 20
69.199233
 30
0.0
 10
46.615931
 20
63.492493
 30
0.0
 10
49.190031
 20
59.697914
 30
0.0
  0
SPLINE
  5
10b
100
AcDbEntity
  8
Image
 62
7
100
AcDbSpline
 70
8
 71
3
 72
8
 73
4
 74
0
 40
0
 40
0
 40
0
 40
0
 40
1
 40
1
 40
1
 40
1
 10
49.190031
 20
59.697914
 30
0.0
 10
51.764132
 20
55.903335
 30
0.0
 10
55.635370
 20
54.768194
 30
0.0
 10
58.998594
 20
56.821805
 30
0.0
  0
SPLINE
  5
10c
100
AcDbEntity
  8
Image
 62
7
100
AcDbSpline
 70
8
 71
3
 72
8
 73
4
 74
0
 40
0
 40
0
 40
0
 40
0
 40
1
 40
1
 40
1
 40
1
 10
58.998594
 20
56.821805
 30
0.0
 10
62.361819
 20
58.875417
 30
0.0
 10
64.554699
 20
63.713357
 30
0.0
 10
64.554699
 20
69.079703
 30
0.0
  0
SPLINE
  5
10d
100
AcDbEntity
  8
Image
 62
7
100
AcDbSpline
 70
8
 71
3
 72
8
 73
4
 74
0
 40
0
 40
0
 40
0
 40
0
 40
1
 40
1
 40
1
 40
1
 10
64.554699
 20
69.079703
 30
0.0
 10
64.554699
 20
72.598556
 30
0.0
 10
63.606444
 20
75.973286
 30
0.0
 10
61.918539
 20
78.461491
 30
0.0
  0
SPLINE
  5
10e
100
AcDbEntity
  8
Image
 62
7
100
AcDbSpline
 70
8
 71
3
 72
8
 73
4
 74
0
 40
0
 40
0
 40
0
 40
0
 40
1
 40
1
 40
1
 40
1
 10
61.918539
 20
78.461491
 30
0.0
 10
60.230634
 20
80.949696
 30
0.0
 10
57.941343
 20
82.347555
 30
0.0
 10
55.554285
 20
82.347555
 30
0.0
  0
LWPOLYLINE
  5
10f
100
AcDbEntity
  8
Image
 62
7
100
AcDbPolyline
 90
1
 70
1
 10
63.588100
 20
157.920000
 30
0.0
  0
SPLINE
  5
110
100
AcDbEntity
  8
Image
 62
7
100
AcDbSpline
 70
8
 71
3
 72
8
 73
4
 74
0
 40
0
 40
0
 40
0
 40
0
 40
1
 40
1
 40
1
 40
1
 10
110.953380
 20
82.890683
 30
0.0
 10
107.313052
 20
82.890683
 30
0.0
 10
104.031175
 20
79.658074
 30
0.0
 10
102.638082
 20
74.700217
 30
0.0
  0
SPLINE
  5
111
100
AcDbEntity
  8
Image
 62
7
100
AcDbSpline
 70
8
 71
3
 72
8
 73
4
 74
0
 40
0
 40
0
 40
0
 40
0
 40
1
 40
1
 40
1
 40
1
 10
102.638082
 20
74.700217
 30
0.0
 10
101.244989
 20
69.742361
 30
0.0
 10
102.015026
 20
64.035621
 30
0.0
 10
104.589126
 20
60.241042
 30
0.0
  0
SPLINE
  5
112
100
AcDbEntity
  8
Image
 62
7
100
AcDbSpline
 70
8
 71
3
 72
8
 73
4
 74
0
 40
0
 40
0
 40
0
 40
0
 40
1
 40
1
 40
1
 40
1
 10
104.589126
 20
60.241042
 30
0.0
 10
107.163227
 20
56.446462
 30
0.0
 10
111.034465
 20
55.311321
 30
0.0
 10
114.397689
 20
57.364933
 30
0.0
  0
SPLINE
  5
113
100
AcDbEntity
  8
Image
 62
7
100
AcDbSpline
 70
8
 71
3
 72
8
 73
4
 74
0
 40
0
 40
0
 40
0
 40
0
 40
1
 40
1
 40
1
 40
1
 10
114.397689
 20
57.364933
 30
0.0
 10
117.760914
 20
59.418544
 30
0.0
 10
119.953794
 20
64.256485
 30
0.0
 10
119.953794
 20
69.622830
 30
0.0
  0
SPLINE
  5
114
100
AcDbEntity
  8
Image
 62
7
100
AcDbSpline
 70
8
 71
3
 72
8
 73
4
 74
0
 40
0
 40
0
 40
0
 40
0
 40
1
 40
1
 40
1
 40
1
 10
119.953794
 20
69.622830
 30
0.0
 10
119.953794
 20
73.141683
 30
0.0
 10
119.005539
 20
76.516413
 30
0.0
 10
117.317634
 20
79.004618
 30
0.0
  0
SPLINE
  5
115
100
AcDbEntity
  8
Image
 62
7
100
AcDbSpline
 70
8
 71
3
 72
8
 73
4
 74
0
 40
0
 40
0
 40
0
 40
0
 40
1
 40
1
 40
1
 40
1
 10
117.317634
 20
79.004618
 30
0.0
 10
115.629729
 20
81.492823
 30
0.0
 10
113.340438
 20
82.890683
 30
0.0
 10
110.953380
 20
82.890683
 30
0.0
  0
LWPOLYLINE
  5
116
100
AcDbEntity
  8
Image
 62
7
100
AcDbPolyline
 90
1
 70
1
 10
55.554285
 20
82.347555
 30
0.0
  0
SPLINE
  5
117
100
AcDbEntity
  8
Image
 62
7
100
AcDbSpline
 70
8
 71
3
 72
8
 73
4
 74
0
 40
0
 40
0
 40
0
 40
0
 40
1
 40
1
 40
1
 40
1
 10
110.548882
 20
38.359673
 30
0.0
 10
92.392875
 20
35.299613
 30
0.0
 10
74.486188
 20
35.547173
 30
0.0
 10
56.330179
 20
38.276565
 30
0.0
  0
SPLINE
  5
118
100
AcDbEntity
  8
Image
 62
7
100
AcDbSpline
 70
8
 71
3
 72
8
 73
4
 74
0
 40
0
 40
0
 40
0
 40
0
 40
1
 40
1
 40
1
 40
1
 10
56.330179
 20
38.276565
 30
0.0
 10
52.105188
 20
38.007353
 30
0.0
 10
52.421796
 20
36.711450
 30
0.0
 10
52.450690
 20
35.638508
 30
0.0
  0
SPLINE
  5
119
100
AcDbEntity
  8
Image
 62
7
100
AcDbSpline
 70
8
 71
3
 72
8
 73
4
 74
0
 40
0
 40
0
 40
0
 40
0
 40
1
 40
1
 40
1
 40
1
 10
52.450690
 20
35.638508
 30
0.0
 10
70.188883
 20
12.196995
 30
0.0
 10
99.372472
 20
16.012035
 30
0.0
 10
113.713500
 20
36.104048
 30
0.0
  0
SPLINE
  5
11a
100
AcDbEntity
  8
Image
 62
7
100
AcDbSpline
 70
8
 71
3
 72
8
 73
4
 74
0
 40
0
 40
0
 40
0
 40
0
 40
1
 40
1
 40
1
 40
1
 10
113.713500
 20
36.104048
 30
0.0
 10
114.390960
 20
37.309785
 30
0.0
 10
112.974840
 20
37.971345
 30
0.0
 10
110.548882
 20
38.359673
 30
0.0
  0
LWPOLYLINE
  5
11b
100
AcDbEntity
  8
Image
 62
7
100
AcDbPolyline
 90
1
 70
1
 10
110.953380
 20
82.890683
 30
0.0
  0
SPLINE
  5
11c
100
AcDbEntity
  8
Image
 62
7
100
AcDbSpline
 70
8
 71
3
 72
8
 73
4
 74
0
 40
0
 40
0
 40
0
 40
0
 40
1
 40
1
 40
1
 40
1
 10
63.079457
 20
5.166323
 30
0.0
 10
92.865990
 20
13.495035
 30
0.0
 10
126.509910
 20
17.795723
 30
0.0
 10
145.483065
 20
45.353513
 30
0.0
  0
SPLINE
  5
11d
100
AcDbEntity
  8
Image
 62
7
100
AcDbSpline
 70
8
 71
3
 72
8
 73
4
 74
0
 40
0
 40
0
 40
0
 40
0
 40
1
 40
1
 40
1
 40
1
 10
145.483065
 20
45.353513
 30
0.0
 10
155.577420
 20
42.006120
 30
0.0
 10
160.527630
 20
36.259643
 30
0.0
 10
163.366013
 20
30.782295
 30
0.0
  0
SPLINE
  5
11e
100
AcDbEntity
  8
Image
 62
7
100
AcDbSpline
 70
8
 71
3
 72
8
 73
4
 74
0
 40
0
 40
0
 40
0
 40
0
 40
1
 40
1
 40
1
 40
1
 10
163.366013
 20
30.782295
 30
0.0
 10
174.565718
 20
9.169770
 30
0.0
 10
144.318810
 20
-8.652682
 30
0.0
 10
63.578109
 20
5.249430
 30
0.0
  0
LWPOLYLINE
  5
11f
100
AcDbEntity
  8
Image
 62
7
100
AcDbPolyline
 90
1
 70
1
 10
110.548882
 20
38.359673
 30
0.0
  0
SPLINE
  5
120
100
AcDbEntity
  8
Image
 62
7
100
AcDbSpline
 70
8
 71
3
 72
8
 73
4
 74
0
 40
0
 40
0
 40
0
 40
0
 40
1
 40
1
 40
1
 40
1
 10
37.969852
 20
82.515083
 30
0.0
 10
35.588065
 20
71.780100
 30
0.0
 10
33.500523
 20
61.023330
 30
0.0
 10
43.674242
 20
49.358310
 30
0.0
  0
SPLINE
  5
121
100
AcDbEntity
  8
Image
 62
7
100
AcDbSpline
 70
8
 71
3
 72
8
 73
4
 74
0
 40
0
 40
0
 40
0
 40
0
 40
1
 40
1
 40
1
 40
1
 10
43.674242
 20
49.358310
 30
0.0
 10
36.187229
 20
48.095093
 30
0.0
 10
28.700216
 20
47.772810
 30
0.0
 10
21.213203
 20
47.932215
 30
0.0
  0
SPLINE
  5
122
100
AcDbEntity
  8
Image
 62
7
100
AcDbSpline
 70
8
 71
3
 72
8
 73
4
 74
0
 40
0
 40
0
 40
0
 40
0
 40
1
 40
1
 40
1
 40
1
 10
21.213203
 20
47.932215
 30
0.0
 10
15.815022
 20
68.612948
 30
0.0
 10
23.521420
 20
78.373193
 30
0.0
 10
37.969852
 20
82.515083
 30
0.0
  0
LWPOLYLINE
  5
123
100
AcDbEntity
  8
Image
 62
7
100
AcDbPolyline
 90
2
 70
0
 10
63.578109
 20
5.249430
 30
0.0
 10
63.079457
 20
5.166323
 30
0.0
  0
SPLINE
  5
124
100
AcDbEntity
  8
Image
 62
7
100
AcDbSpline
 70
8
 71
3
 72
8
 73
4
 74
0
 40
0
 40
0
 40
0
 40
0
 40
1
 40
1
 40
1
 40
1
 10
68.898345
 20
86.436853
 30
0.0
 10
77.756340
 20
89.047916
 30
0.0
 10
94.802678
 20
96.471770
 30
0.0
 10
109.096478
 20
109.878334
 30
0.0
  0
SPLINE
  5
125
100
AcDbEntity
  8
Image
 62
7
100
AcDbSpline
 70
8
 71
3
 72
8
 73
4
 74
0
 40
0
 40
0
 40
0
 40
0
 40
1
 40
1
 40
1
 40
1
 10
109.096478
 20
109.878334
 30
0.0
 10
126.239272
 20
106.465995
 30
0.0
 10
131.398725
 20
98.104334
 30
0.0
 10
127.635743
 20
85.902066
 30
0.0
  0
LWPOLYLINE
  5
126
100
AcDbEntity
  8
Image
 62
7
100
AcDbPolyline
 90
1
 70
1
 10
37.969852
 20
82.515083
 30
0.0
  0
SPLINE
  5
127
100
AcDbEntity
  8
Image
 62
7
100
AcDbSpline
 70
8
 71
3
 72
8
 73
4
 74
0
 40
0
 40
0
 40
0
 40
0
 40
1
 40
1
 40
1
 40
1
 10
126.031388
 20
84.654230
 30
0.0
 10
109.568183
 20
107.352728
 30
0.0
 10
88.126935
 20
86.722445
 30
0.0
 10
91.626780
 20
63.619283
 30
0.0
  0
SPLINE
  5
128
100
AcDbEntity
  8
Image
 62
7
100
AcDbSpline
 70
8
 71
3
 72
8
 73
4
 74
0
 40
0
 40
0
 40
0
 40
0
 40
1
 40
1
 40
1
 40
1
 10
91.626780
 20
63.619283
 30
0.0
 10
82.022985
 20
58.212075
 30
0.0
 10
76.438395
 20
56.944170
 30
0.0
 10
70.770099
 20
55.240965
 30
0.0
  0
SPLINE
  5
129
100
AcDbEntity
  8
Image
 62
7
100
AcDbSpline
 70
8
 71
3
 72
8
 73
4
 74
0
 40
0
 40
0
 40
0
 40
0
 40
1
 40
1
 40
1
 40
1
 10
70.770099
 20
55.240965
 30
0.0
 10
75.522188
 20
65.008208
 30
0.0
 10
76.924215
 20
74.776583
 30
0.0
 10
68.898345
 20
86.436853
 30
0.0
  0
LWPOLYLINE
  5
12a
100
AcDbEntity
  8
Image
 62
7
100
AcDbPolyline
 90
2
 70
0
 10
127.635743
 20
85.902066
 30
0.0
 10
126.031388
 20
84.654230
 30
0.0
  0
SPLINE
  5
12b
100
AcDbEntity
  8
Image
 62
7
100
AcDbSpline
 70
8
 71
3
 72
8
 73
4
 74
0
 40
0
 40
0
 40
0
 40
0
 40
1
 40
1
 40
1
 40
1
 10
0.178262
 20
17.627843
 30
0.0
 10
1.692143
 20
-1.714320
 30
0.0
 10
27.021085
 20
-0.190095
 30
0.0
 10
44.229576
 20
3.421868
 30
0.0
  0
SPLINE
  5
12c
100
AcDbEntity
  8
Image
 62
7
100
AcDbSpline
 70
8
 71
3
 72
8
 73
4
 74
0
 40
0
 40
0
 40
0
 40
0
 40
1
 40
1
 40
1
 40
1
 10
44.229576
 20
3.421868
 30
0.0
 10
88.119443
 20
12.634103
 30
0.0
 10
129.896310
 20
24.312345
 30
0.0
 10
140.902800
 20
43.065885
 30
0.0
  0
SPLINE
  5
12d
100
AcDbEntity
  8
Image
 62
7
100
AcDbSpline
 70
8
 71
3
 72
8
 73
4
 74
0
 40
0
 40
0
 40
0
 40
0
 40
1
 40
1
 40
1
 40
1
 10
140.902800
 20
43.065885
 30
0.0
 10
150.556710
 20
55.969590
 30
0.0
 10
151.124093
 20
74.326448
 30
0.0
 10
128.705318
 20
83.762919
 30
0.0
  0
LWPOLYLINE
  5
12e
100
AcDbEntity
  8
Image
 62
7
100
AcDbPolyline
 90
1
 70
1
 10
68.898345
 20
86.436853
 30
0.0
  0
SPLINE
  5
12f
100
AcDbEntity
  8
Image
 62
7
100
AcDbSpline
 70
8
 71
3
 72
8
 73
4
 74
0
 40
0
 40
0
 40
0
 40
0
 40
1
 40
1
 40
1
 40
1
 10
127.156897
 20
82.176780
 30
0.0
 10
140.227418
 20
54.422790
 30
0.0
 10
106.591125
 20
24.349643
 30
0.0
 10
92.339827
 20
61.123620
 30
0.0
  0
SPLINE
  5
130
100
AcDbEntity
  8
Image
 62
7
100
AcDbSpline
 70
8
 71
3
 72
8
 73
4
 74
0
 40
0
 40
0
 40
0
 40
0
 40
1
 40
1
 40
1
 40
1
 10
92.339827
 20
61.123620
 30
0.0
 10
84.414990
 20
57.902610
 30
0.0
 10
76.490145
 20
53.747753
 30
0.0
 10
68.565307
 20
52.255103
 30
0.0
  0
SPLINE
  5
131
100
AcDbEntity
  8
Image
 62
7
100
AcDbSpline
 70
8
 71
3
 72
8
 73
4
 74
0
 40
0
 40
0
 40
0
 40
0
 40
1
 40
1
 40
1
 40
1
 10
68.565307
 20
52.255103
 30
0.0
 10
58.377413
 20
40.590833
 30
0.0
 10
50.894804
 20
45.152205
 30
0.0
 10
46.448675
 20
47.125223
 30
0.0
  0
SPLINE
  5
132
100
AcDbEntity
  8
Image
 62
7
100
AcDbSpline
 70
8
 71
3
 72
8
 73
4
 74
0
 40
0
 40
0
 40
0
 40
0
 40
1
 40
1
 40
1
 40
1
 10
46.448675
 20
47.125223
 30
0.0
 10
37.420631
 20
46.090290
 30
0.0
 10
28.378371
 20
45.147780
 30
0.0
 10
19.020918
 20
46.254023
 30
0.0
  0
SPLINE
  5
133
100
AcDbEntity
  8
Image
 62
7
100
AcDbSpline
 70
8
 71
3
 72
8
 73
4
 74
0
 40
0
 40
0
 40
0
 40
0
 40
1
 40
1
 40
1
 40
1
 10
19.020918
 20
46.254023
 30
0.0
 10
3.646066
 20
38.624528
 30
0.0
 10
-0.567142
 20
28.102088
 30
0.0
 10
0.178262
 20
17.627843
 30
0.0
  0
LWPOLYLINE
  5
134
100
AcDbEntity
  8
Image
 62
7
100
AcDbPolyline
 90
2
 70
0
 10
128.705318
 20
83.762919
 30
0.0
 10
127.156897
 20
82.176780
 30
0.0
  0
LWPOLYLINE
  5
135
100
AcDbEntity
  8
Image
 62
7
100
AcDbPolyline
 90
1
 70
1
 10
0.178262
 20
17.627843
 30
0.0
  0
ENDSEC
  0
SECTION
  2
OBJECTS
  0
DICTIONARY
  5
C
330
0
100
AcDbDictionary
  3
ACAD_GROUP
350
D
  3
ACAD_MLINESTYLE
350
17
  0
DICTIONARY
  5
D
330
C
100
AcDbDictionary
  0
DICTIONARY
  5
1A
330
C
100
AcDbDictionary
  0
DICTIONARY
  5
17
330
C
100
AcDbDictionary
  3
STANDARD
350
18
  0
DICTIONARY
  5
19
330
C
100
AcDbDictionary
  0
ENDSEC
  0
EOF
