  0
SECTION
  2
HEADER
  9
$ACADVER
  1
AC1014
  9
$HANDSEED
  5
FFFF
  9
$MEASUREMENT
 70
     1
  0
ENDSEC
  0
SECTION
  2
TABLES
  0
TABLE
  2
VPORT
  5
8
330
0
100
AcDbSymbolTable
 70
     4
  0
VPORT
  5
2E
330
8
100
AcDbSymbolTableRecord
100
AcDbViewportTableRecord
  2
*ACTIVE
 70
     0
 10
0.0
 20
0.0
 11
1.0
 21
1.0
 12
210.0
 22
148.5
 13
0.0
 23
0.0
 14
10.0
 24
10.0
 15
10.0
 25
10.0
 16
0.0
 26
0.0
 36
1.0
 17
0.0
 27
0.0
 37
0.0
 40
341.0
 41
1.24
 42
50.0
 43
0.0
 44
0.0
 50
0.0
 51
0.0
 71
     0
 72
   100
 73
     1
 74
     3
 75
     0
 76
     0
 77
     0
 78
     0
  0
ENDTAB
  0
TABLE
  2
LTYPE
  5
5
330
0
100
AcDbSymbolTable
 70
     1
  0
LTYPE
  5
14
330
5
100
AcDbSymbolTableRecord
100
AcDbLinetypeTableRecord
  2
BYBLOCK
 70
     0
  3

 72
    65
 73
     0
 40
0.0
  0
LTYPE
  5
15
330
5
100
AcDbSymbolTableRecord
100
AcDbLinetypeTableRecord
  2
BYLAYER
 70
     0
  3

 72
    65
 73
     0
 40
0.0
  0
LTYPE
  5
16
330
5
100
AcDbSymbolTableRecord
100
AcDbLinetypeTableRecord
  2
CONTINUOUS
 70
     0
  3
Solid line
 72
    65
 73
     0
 40
0.0
  0
ENDTAB
  0
TABLE
  2
LAYER
  5
2
100
AcDbSymbolTable
 70
1
  0
LAYER
  5
50
100
AcDbSymbolTableRecord
100
AcDbLayerTableRecord
  2
0
 70
0
  6
CONTINUOUS
  0
ENDTAB
  0
TABLE
  2
STYLE
  5
3
330
0
100
AcDbSymbolTable
 70
     1
  0
STYLE
  5
11
330
3
100
AcDbSymbolTableRecord
100
AcDbTextStyleTableRecord
  2
STANDARD
 70
     0
 40
0.0
 41
1.0
 50
0.0
 71
     0
 42
2.5
  3
txt
  4

  0
ENDTAB
  0
TABLE
  2
VIEW
  5
6
330
0
100
AcDbSymbolTable
 70
     0
  0
ENDTAB
  0
TABLE
  2
UCS
  5
7
330
0
100
AcDbSymbolTable
 70
     0
  0
ENDTAB
  0
TABLE
  2
APPID
  5
9
330
0
100
AcDbSymbolTable
 70
     2
  0
APPID
  5
12
330
9
100
AcDbSymbolTableRecord
100
AcDbRegAppTableRecord
  2
ACAD
 70
     0
  0
ENDTAB
  0
TABLE
  2
DIMSTYLE
  5
A
330
0
100
AcDbSymbolTable
 70
     1
  0
DIMSTYLE
105
27
330
A
100
AcDbSymbolTableRecord
100
AcDbDimStyleTableRecord
  2
ISO-25
 70
     0
  3

  4

  5

  6

  7

 40
1.0
 41
2.5
 42
0.625
 43
3.75
 44
1.25
 45
0.0
 46
0.0
 47
0.0
 48
0.0
140
2.5
141
2.5
142
0.0
143
0.03937007874016
144
1.0
145
0.0
146
1.0
147
0.625
 71
     0
 72
     0
 73
     0
 74
     0
 75
     0
 76
     0
 77
     1
 78
     8
170
     0
171
     3
172
     1
173
     0
174
     0
175
     0
176
     0
177
     0
178
     0
270
     2
271
     2
272
     2
273
     2
274
     3
340
11
275
     0
280
     0
281
     0
282
     0
283
     0
284
     8
285
     0
286
     0
287
     3
288
     0
  0
ENDTAB
  0
TABLE
  2
BLOCK_RECORD
  5
1
330
0
100
AcDbSymbolTable
 70
     1
  0
BLOCK_RECORD
  5
1F
330
1
100
AcDbSymbolTableRecord
100
AcDbBlockTableRecord
  2
*MODEL_SPACE
  0
BLOCK_RECORD
  5
1B
330
1
100
AcDbSymbolTableRecord
100
AcDbBlockTableRecord
  2
*PAPER_SPACE
  0
ENDTAB
  0
ENDSEC
  0
SECTION
  2
BLOCKS
  0
BLOCK
  5
20
330
1F
100
AcDbEntity
  8
0
100
AcDbBlockBegin
  2
*MODEL_SPACE
 70
     0
 10
0.0
 20
0.0
 30
0.0
  3
*MODEL_SPACE
  1

  0
ENDBLK
  5
21
330
1F
100
AcDbEntity
  8
0
100
AcDbBlockEnd
  0
BLOCK
  5
1C
330
1B
100
AcDbEntity
 67
     1
  8
0
100
AcDbBlockBegin
  2
*PAPER_SPACE
  1

  0
ENDBLK
  5
1D
330
1B
100
AcDbEntity
 67
     1
  8
0
100
AcDbBlockEnd
  0
ENDSEC
  0
SECTION
  2
ENTITIES
  0
SPLINE
  5
100
100
AcDbEntity
  8
0
 62
7
100
AcDbSpline
 70
8
 71
3
 72
8
 73
4
 74
0
 40
0
 40
0
 40
0
 40
0
 40
1
 40
1
 40
1
 40
1
 10
416.716977
 20
477.787896
 30
0.0
 10
416.795929
 20
481.893298
 30
0.0
 10
417.605175
 20
484.636812
 30
0.0
 10
419.144715
 20
486.018438
 30
0.0
  0
SPLINE
  5
101
100
AcDbEntity
  8
0
 62
7
100
AcDbSpline
 70
8
 71
3
 72
8
 73
4
 74
0
 40
0
 40
0
 40
0
 40
0
 40
1
 40
1
 40
1
 40
1
 10
419.144715
 20
486.018438
 30
0.0
 10
420.565809
 20
487.321114
 30
0.0
 10
423.072472
 20
487.932977
 30
0.0
 10
426.664702
 20
487.854027
 30
0.0
  0
SPLINE
  5
102
100
AcDbEntity
  8
0
 62
7
100
AcDbSpline
 70
8
 71
3
 72
8
 73
4
 74
0
 40
0
 40
0
 40
0
 40
0
 40
1
 40
1
 40
1
 40
1
 10
426.664702
 20
487.854027
 30
0.0
 10
430.217457
 20
487.932977
 30
0.0
 10
432.882022
 20
487.439539
 30
0.0
 10
434.658400
 20
486.373712
 30
0.0
  0
SPLINE
  5
103
100
AcDbEntity
  8
0
 62
7
100
AcDbSpline
 70
8
 71
3
 72
8
 73
4
 74
0
 40
0
 40
0
 40
0
 40
0
 40
1
 40
1
 40
1
 40
1
 10
434.658400
 20
486.373712
 30
0.0
 10
436.355825
 20
485.228936
 30
0.0
 10
437.204538
 20
482.366997
 30
0.0
 10
437.204538
 20
477.787896
 30
0.0
  0
SPLINE
  5
104
100
AcDbEntity
  8
0
 62
7
100
AcDbSpline
 70
8
 71
3
 72
8
 73
4
 74
0
 40
0
 40
0
 40
0
 40
0
 40
1
 40
1
 40
1
 40
1
 10
437.559794
 20
459.195159
 30
0.0
 10
437.559794
 20
456.076632
 30
0.0
 10
436.632130
 20
454.063403
 30
0.0
 10
434.776801
 20
453.155473
 30
0.0
  0
SPLINE
  5
105
100
AcDbEntity
  8
0
 62
7
100
AcDbSpline
 70
8
 71
3
 72
8
 73
4
 74
0
 40
0
 40
0
 40
0
 40
0
 40
1
 40
1
 40
1
 40
1
 10
434.776801
 20
453.155473
 30
0.0
 10
432.921489
 20
452.168595
 30
0.0
 10
430.335875
 20
451.714632
 30
0.0
 10
427.019958
 20
451.793584
 30
0.0
  0
SPLINE
  5
106
100
AcDbEntity
  8
0
 62
7
100
AcDbSpline
 70
8
 71
3
 72
8
 73
4
 74
0
 40
0
 40
0
 40
0
 40
0
 40
1
 40
1
 40
1
 40
1
 10
427.019958
 20
451.793584
 30
0.0
 10
422.875084
 20
451.714632
 30
0.0
 10
420.111837
 20
452.780460
 30
0.0
 10
418.730218
 20
454.991068
 30
0.0
  0
SPLINE
  5
107
100
AcDbEntity
  8
0
 62
7
100
AcDbSpline
 70
8
 71
3
 72
8
 73
4
 74
0
 40
0
 40
0
 40
0
 40
0
 40
1
 40
1
 40
1
 40
1
 10
418.730218
 20
454.991068
 30
0.0
 10
417.309124
 20
457.083245
 30
0.0
 10
416.638043
 20
460.833372
 30
0.0
 10
416.716977
 20
466.241450
 30
0.0
  0
LWPOLYLINE
  5
108
100
AcDbEntity
  8
0
 62
7
100
AcDbPolyline
 90
2
 70
0
 10
437.204538
 20
477.787896
 30
0.0
 10
416.716977
 20
477.787896
 30
0.0
  0
SPLINE
  5
109
100
AcDbEntity
  8
0
 62
7
100
AcDbSpline
 70
8
 71
3
 72
8
 73
4
 74
0
 40
0
 40
0
 40
0
 40
0
 40
1
 40
1
 40
1
 40
1
 10
458.047328
 20
469.794201
 30
0.0
 10
458.126280
 20
482.544634
 30
0.0
 10
455.974891
 20
491.268615
 30
0.0
 10
451.593162
 20
495.966144
 30
0.0
  0
SPLINE
  5
10a
100
AcDbEntity
  8
0
 62
7
100
AcDbSpline
 70
8
 71
3
 72
8
 73
4
 74
0
 40
0
 40
0
 40
0
 40
0
 40
1
 40
1
 40
1
 40
1
 10
451.593162
 20
495.966144
 30
0.0
 10
447.014071
 20
500.426822
 30
0.0
 10
438.823003
 20
502.558472
 30
0.0
 10
427.019958
 20
502.361097
 30
0.0
  0
SPLINE
  5
10b
100
AcDbEntity
  8
0
 62
7
100
AcDbSpline
 70
8
 71
3
 72
8
 73
4
 74
0
 40
0
 40
0
 40
0
 40
0
 40
1
 40
1
 40
1
 40
1
 10
427.019958
 20
502.361097
 30
0.0
 10
414.545859
 20
502.440047
 30
0.0
 10
406.177159
 20
500.111020
 30
0.0
 10
401.913857
 20
495.374017
 30
0.0
  0
SPLINE
  5
10c
100
AcDbEntity
  8
0
 62
7
100
AcDbSpline
 70
8
 71
3
 72
8
 73
4
 74
0
 40
0
 40
0
 40
0
 40
0
 40
1
 40
1
 40
1
 40
1
 10
401.913857
 20
495.374017
 30
0.0
 10
397.690031
 20
490.439640
 30
0.0
 10
395.657070
 20
481.913035
 30
0.0
 10
395.814973
 20
469.794201
 30
0.0
  0
SPLINE
  5
10d
100
AcDbEntity
  8
0
 62
7
100
AcDbSpline
 70
8
 71
3
 72
8
 73
4
 74
0
 40
0
 40
0
 40
0
 40
0
 40
1
 40
1
 40
1
 40
1
 10
395.814973
 20
469.794201
 30
0.0
 10
395.657070
 20
458.070120
 30
0.0
 10
397.768983
 20
449.701417
 30
0.0
 10
402.150712
 20
444.688092
 30
0.0
  0
SPLINE
  5
10e
100
AcDbEntity
  8
0
 62
7
100
AcDbSpline
 70
8
 71
3
 72
8
 73
4
 74
0
 40
0
 40
0
 40
0
 40
0
 40
1
 40
1
 40
1
 40
1
 10
402.150712
 20
444.688092
 30
0.0
 10
406.532442
 20
439.674767
 30
0.0
 10
414.822190
 20
437.207581
 30
0.0
 10
427.019958
 20
437.286532
 30
0.0
  0
SPLINE
  5
10f
100
AcDbEntity
  8
0
 62
7
100
AcDbSpline
 70
8
 71
3
 72
8
 73
4
 74
0
 40
0
 40
0
 40
0
 40
0
 40
1
 40
1
 40
1
 40
1
 10
427.019958
 20
437.286532
 30
0.0
 10
431.599067
 20
437.286532
 30
0.0
 10
435.842639
 20
437.562854
 30
0.0
 10
439.750676
 20
438.115498
 30
0.0
  0
SPLINE
  5
110
100
AcDbEntity
  8
0
 62
7
100
AcDbSpline
 70
8
 71
3
 72
8
 73
4
 74
0
 40
0
 40
0
 40
0
 40
0
 40
1
 40
1
 40
1
 40
1
 10
439.750676
 20
438.115498
 30
0.0
 10
443.540268
 20
438.589191
 30
0.0
 10
446.777216
 20
439.556331
 30
0.0
 10
449.461520
 20
441.016919
 30
0.0
  0
SPLINE
  5
111
100
AcDbEntity
  8
0
 62
7
100
AcDbSpline
 70
8
 71
3
 72
8
 73
4
 74
0
 40
0
 40
0
 40
0
 40
0
 40
1
 40
1
 40
1
 40
1
 10
449.461520
 20
441.016919
 30
0.0
 10
452.264251
 20
442.556441
 30
0.0
 10
454.395902
 20
444.826249
 30
0.0
 10
455.856472
 20
447.826342
 30
0.0
  0
SPLINE
  5
112
100
AcDbEntity
  8
0
 62
7
100
AcDbSpline
 70
8
 71
3
 72
8
 73
4
 74
0
 40
0
 40
0
 40
0
 40
0
 40
1
 40
1
 40
1
 40
1
 10
455.856472
 20
447.826342
 30
0.0
 10
457.317043
 20
450.747500
 30
0.0
 10
458.047328
 20
454.537106
 30
0.0
 10
458.047328
 20
459.195159
 30
0.0
  0
LWPOLYLINE
  5
113
100
AcDbEntity
  8
0
 62
7
100
AcDbPolyline
 90
3
 70
0
 10
416.716977
 20
466.241450
 30
0.0
 10
458.047328
 20
466.241450
 30
0.0
 10
458.047328
 20
469.794201
 30
0.0
  0
LWPOLYLINE
  5
114
100
AcDbEntity
  8
0
 62
7
100
AcDbPolyline
 90
2
 70
0
 10
458.047328
 20
459.195159
 30
0.0
 10
437.559794
 20
459.195159
 30
0.0
  0
SPLINE
  5
115
100
AcDbEntity
  8
0
 62
7
100
AcDbSpline
 70
8
 71
3
 72
8
 73
4
 74
0
 40
0
 40
0
 40
0
 40
0
 40
1
 40
1
 40
1
 40
1
 10
491.265580
 20
437.997071
 30
0.0
 10
491.265580
 20
434.286413
 30
0.0
 10
490.535295
 20
431.128408
 30
0.0
 10
489.074725
 20
428.523056
 30
0.0
  0
SPLINE
  5
116
100
AcDbEntity
  8
0
 62
7
100
AcDbSpline
 70
8
 71
3
 72
8
 73
4
 74
0
 40
0
 40
0
 40
0
 40
0
 40
1
 40
1
 40
1
 40
1
 10
489.074725
 20
428.523056
 30
0.0
 10
488.245732
 20
427.338816
 30
0.0
 10
487.140426
 20
426.332209
 30
0.0
 10
485.758808
 20
425.503234
 30
0.0
  0
SPLINE
  5
117
100
AcDbEntity
  8
0
 62
7
100
AcDbSpline
 70
8
 71
3
 72
8
 73
4
 74
0
 40
0
 40
0
 40
0
 40
0
 40
1
 40
1
 40
1
 40
1
 10
485.758808
 20
425.503234
 30
0.0
 10
484.337713
 20
424.792669
 30
0.0
 10
482.521860
 20
424.397920
 30
0.0
 10
480.311248
 20
424.318986
 30
0.0
  0
SPLINE
  5
118
100
AcDbEntity
  8
0
 62
7
100
AcDbSpline
 70
8
 71
3
 72
8
 73
4
 74
0
 40
0
 40
0
 40
0
 40
0
 40
1
 40
1
 40
1
 40
1
 10
480.311248
 20
424.318986
 30
0.0
 10
479.127009
 20
424.318986
 30
0.0
 10
477.923022
 20
424.397928
 30
0.0
 10
476.699289
 20
424.555814
 30
0.0
  0
LWPOLYLINE
  5
119
100
AcDbEntity
  8
0
 62
7
100
AcDbPolyline
 90
8
 70
0
 10
527.266800
 20
501.650548
 30
0.0
 10
505.891059
 20
501.650548
 30
0.0
 10
495.588078
 20
449.898796
 30
0.0
 10
495.351250
 20
449.898796
 30
0.0
 10
482.738959
 20
501.650548
 30
0.0
 10
460.948749
 20
501.650548
 30
0.0
 10
479.837565
 20
437.997071
 30
0.0
 10
491.265580
 20
437.997071
 30
0.0
  0
SPLINE
  5
11a
100
AcDbEntity
  8
0
 62
7
100
AcDbSpline
 70
8
 71
3
 72
8
 73
4
 74
0
 40
0
 40
0
 40
0
 40
0
 40
1
 40
1
 40
1
 40
1
 10
476.699289
 20
410.107977
 30
0.0
 10
479.107262
 20
409.950073
 30
0.0
 10
481.495506
 20
409.831646
 30
0.0
 10
483.864020
 20
409.752694
 30
0.0
  0
SPLINE
  5
11b
100
AcDbEntity
  8
0
 62
7
100
AcDbSpline
 70
8
 71
3
 72
8
 73
4
 74
0
 40
0
 40
0
 40
0
 40
0
 40
1
 40
1
 40
1
 40
1
 10
483.864020
 20
409.752694
 30
0.0
 10
492.509052
 20
409.752694
 30
0.0
 10
498.805315
 20
411.489596
 30
0.0
 10
502.752810
 20
414.963398
 30
0.0
  0
SPLINE
  5
11c
100
AcDbEntity
  8
0
 62
7
100
AcDbSpline
 70
8
 71
3
 72
8
 73
4
 74
0
 40
0
 40
0
 40
0
 40
0
 40
1
 40
1
 40
1
 40
1
 10
502.752810
 20
414.963398
 30
0.0
 10
506.739781
 20
418.437201
 30
0.0
 10
509.581979
 20
424.259763
 30
0.0
 10
511.279405
 20
432.431084
 30
0.0
  0
LWPOLYLINE
  5
11d
100
AcDbEntity
  8
0
 62
7
100
AcDbPolyline
 90
2
 70
0
 10
476.699289
 20
424.555814
 30
0.0
 10
476.699289
 20
410.107977
 30
0.0
  0
LWPOLYLINE
  5
11e
100
AcDbEntity
  8
0
 62
7
100
AcDbPolyline
 90
2
 70
0
 10
511.279405
 20
432.431084
 30
0.0
 10
527.266800
 20
501.650548
 30
0.0
  0
SPLINE
  5
11f
100
AcDbEntity
  8
0
 62
7
100
AcDbSpline
 70
8
 71
3
 72
8
 73
4
 74
0
 40
0
 40
0
 40
0
 40
0
 40
1
 40
1
 40
1
 40
1
 10
403.924558
 20
375.205704
 30
0.0
 10
403.890110
 20
376.911032
 30
0.0
 10
404.174334
 20
378.237397
 30
0.0
 10
404.777231
 20
379.184800
 30
0.0
  0
SPLINE
  5
120
100
AcDbEntity
  8
0
 62
7
100
AcDbSpline
 70
8
 71
3
 72
8
 73
4
 74
0
 40
0
 40
0
 40
0
 40
0
 40
1
 40
1
 40
1
 40
1
 10
404.777231
 20
379.184800
 30
0.0
 10
405.380128
 20
380.097753
 30
0.0
 10
406.577297
 20
380.554230
 30
0.0
 10
408.368738
 20
380.554230
 30
0.0
  0
SPLINE
  5
121
100
AcDbEntity
  8
0
 62
7
100
AcDbSpline
 70
8
 71
3
 72
8
 73
4
 74
0
 40
0
 40
0
 40
0
 40
0
 40
1
 40
1
 40
1
 40
1
 10
408.368738
 20
380.554230
 30
0.0
 10
409.919038
 20
380.554230
 30
0.0
 10
410.909505
 20
380.166660
 30
0.0
 10
411.340141
 20
379.391519
 30
0.0
  0
SPLINE
  5
122
100
AcDbEntity
  8
0
 62
7
100
AcDbSpline
 70
8
 71
3
 72
8
 73
4
 74
0
 40
0
 40
0
 40
0
 40
0
 40
1
 40
1
 40
1
 40
1
 10
411.340141
 20
379.391519
 30
0.0
 10
411.684646
 20
378.616360
 30
0.0
 10
411.839675
 20
377.574210
 30
0.0
 10
411.805226
 20
376.265070
 30
0.0
  0
LWPOLYLINE
  5
123
100
AcDbEntity
  8
0
 62
7
100
AcDbPolyline
 90
4
 70
0
 10
394.829506
 20
387.220486
 30
0.0
 10
394.829506
 20
359.444396
 30
0.0
 10
403.924558
 20
359.444396
 30
0.0
 10
403.924558
 20
375.205704
 30
0.0
  0
SPLINE
  5
124
100
AcDbEntity
  8
0
 62
7
100
AcDbSpline
 70
8
 71
3
 72
8
 73
4
 74
0
 40
0
 40
0
 40
0
 40
0
 40
1
 40
1
 40
1
 40
1
 10
420.900278
 20
375.205704
 30
0.0
 10
420.865829
 20
376.756004
 30
0.0
 10
421.150053
 20
378.030696
 30
0.0
 10
421.752951
 20
379.029780
 30
0.0
  0
SPLINE
  5
125
100
AcDbEntity
  8
0
 62
7
100
AcDbSpline
 70
8
 71
3
 72
8
 73
4
 74
0
 40
0
 40
0
 40
0
 40
0
 40
1
 40
1
 40
1
 40
1
 10
421.752951
 20
379.029780
 30
0.0
 10
422.321381
 20
380.011631
 30
0.0
 10
423.449644
 20
380.519781
 30
0.0
 10
425.137739
 20
380.554230
 30
0.0
  0
SPLINE
  5
126
100
AcDbEntity
  8
0
 62
7
100
AcDbSpline
 70
8
 71
3
 72
8
 73
4
 74
0
 40
0
 40
0
 40
0
 40
0
 40
1
 40
1
 40
1
 40
1
 10
425.137739
 20
380.554230
 30
0.0
 10
426.016244
 20
380.554230
 30
0.0
 10
426.722487
 20
380.450875
 30
0.0
 10
427.256469
 20
380.244165
 30
0.0
  0
SPLINE
  5
127
100
AcDbEntity
  8
0
 62
7
100
AcDbSpline
 70
8
 71
3
 72
8
 73
4
 74
0
 40
0
 40
0
 40
0
 40
0
 40
1
 40
1
 40
1
 40
1
 10
427.256469
 20
380.244165
 30
0.0
 10
427.790469
 20
379.951342
 30
0.0
 10
428.143591
 20
379.598220
 30
0.0
 10
428.315834
 20
379.184800
 30
0.0
  0
SPLINE
  5
128
100
AcDbEntity
  8
0
 62
7
100
AcDbSpline
 70
8
 71
3
 72
8
 73
4
 74
0
 40
0
 40
0
 40
0
 40
0
 40
1
 40
1
 40
1
 40
1
 10
428.315834
 20
379.184800
 30
0.0
 10
428.677573
 20
378.271846
 30
0.0
 10
428.832610
 20
377.057453
 30
0.0
 10
428.780945
 20
375.541619
 30
0.0
  0
LWPOLYLINE
  5
129
100
AcDbEntity
  8
0
 62
7
100
AcDbPolyline
 90
4
 70
0
 10
411.805226
 20
376.265070
 30
0.0
 10
411.805226
 20
359.444396
 30
0.0
 10
420.900278
 20
359.444396
 30
0.0
 10
420.900278
 20
375.205704
 30
0.0
  0
SPLINE
  5
12a
100
AcDbEntity
  8
0
 62
7
100
AcDbSpline
 70
8
 71
3
 72
8
 73
4
 74
0
 40
0
 40
0
 40
0
 40
0
 40
1
 40
1
 40
1
 40
1
 10
437.901821
 20
378.435500
 30
0.0
 10
437.867372
 20
384.619447
 30
0.0
 10
434.637595
 20
387.651131
 30
0.0
 10
428.212488
 20
387.530552
 30
0.0
  0
SPLINE
  5
12b
100
AcDbEntity
  8
0
 62
7
100
AcDbSpline
 70
8
 71
3
 72
8
 73
4
 74
0
 40
0
 40
0
 40
0
 40
0
 40
1
 40
1
 40
1
 40
1
 10
428.212488
 20
387.530552
 30
0.0
 10
426.421047
 20
387.530552
 30
0.0
 10
424.758794
 20
387.125748
 30
0.0
 10
423.225727
 20
386.316141
 30
0.0
  0
SPLINE
  5
12c
100
AcDbEntity
  8
0
 62
7
100
AcDbSpline
 70
8
 71
3
 72
8
 73
4
 74
0
 40
0
 40
0
 40
0
 40
0
 40
1
 40
1
 40
1
 40
1
 10
423.225727
 20
386.316141
 30
0.0
 10
421.744325
 20
385.506551
 30
0.0
 10
420.831372
 20
384.094064
 30
0.0
 10
420.486866
 20
382.078680
 30
0.0
  0
LWPOLYLINE
  5
12d
100
AcDbEntity
  8
0
 62
7
100
AcDbPolyline
 90
4
 70
0
 10
428.780945
 20
375.541619
 30
0.0
 10
428.780945
 20
359.444396
 30
0.0
 10
437.901821
 20
359.444396
 30
0.0
 10
437.901821
 20
378.435500
 30
0.0
  0
SPLINE
  5
12e
100
AcDbEntity
  8
0
 62
7
100
AcDbSpline
 70
8
 71
3
 72
8
 73
4
 74
0
 40
0
 40
0
 40
0
 40
0
 40
1
 40
1
 40
1
 40
1
 10
420.073455
 20
382.078680
 30
0.0
 10
419.952876
 20
383.284457
 30
0.0
 10
419.651427
 20
384.257700
 30
0.0
 10
419.169109
 20
384.998410
 30
0.0
  0
SPLINE
  5
12f
100
AcDbEntity
  8
0
 62
7
100
AcDbSpline
 70
8
 71
3
 72
8
 73
4
 74
0
 40
0
 40
0
 40
0
 40
0
 40
1
 40
1
 40
1
 40
1
 10
419.169109
 20
384.998410
 30
0.0
 10
418.669576
 20
385.739102
 30
0.0
 10
418.015014
 20
386.290317
 30
0.0
 10
417.205425
 20
386.652056
 30
0.0
  0
SPLINE
  5
130
100
AcDbEntity
  8
0
 62
7
100
AcDbSpline
 70
8
 71
3
 72
8
 73
4
 74
0
 40
0
 40
0
 40
0
 40
0
 40
1
 40
1
 40
1
 40
1
 10
417.205425
 20
386.652056
 30
0.0
 10
416.395817
 20
387.031010
 30
0.0
 10
415.534537
 20
387.289384
 30
0.0
 10
414.621583
 20
387.427179
 30
0.0
  0
SPLINE
  5
131
100
AcDbEntity
  8
0
 62
7
100
AcDbSpline
 70
8
 71
3
 72
8
 73
4
 74
0
 40
0
 40
0
 40
0
 40
0
 40
1
 40
1
 40
1
 40
1
 10
414.621583
 20
387.427179
 30
0.0
 10
413.656965
 20
387.496094
 30
0.0
 10
412.666506
 20
387.530552
 30
0.0
 10
411.650206
 20
387.530552
 30
0.0
  0
SPLINE
  5
132
100
AcDbEntity
  8
0
 62
7
100
AcDbSpline
 70
8
 71
3
 72
8
 73
4
 74
0
 40
0
 40
0
 40
0
 40
0
 40
1
 40
1
 40
1
 40
1
 10
411.650206
 20
387.530552
 30
0.0
 10
410.065458
 20
387.530552
 30
0.0
 10
408.549616
 20
387.254944
 30
0.0
 10
407.102680
 20
386.703729
 30
0.0
  0
SPLINE
  5
133
100
AcDbEntity
  8
0
 62
7
100
AcDbSpline
 70
8
 71
3
 72
8
 73
4
 74
0
 40
0
 40
0
 40
0
 40
0
 40
1
 40
1
 40
1
 40
1
 10
407.102680
 20
386.703729
 30
0.0
 10
405.690176
 20
386.066383
 30
0.0
 10
404.665259
 20
384.938111
 30
0.0
 10
404.027931
 20
383.318914
 30
0.0
  0
LWPOLYLINE
  5
134
100
AcDbEntity
  8
0
 62
7
100
AcDbPolyline
 90
2
 70
0
 10
420.486866
 20
382.078680
 30
0.0
 10
420.073455
 20
382.078680
 30
0.0
  0
SPLINE
  5
135
100
AcDbEntity
  8
0
 62
7
100
AcDbSpline
 70
8
 71
3
 72
8
 73
4
 74
0
 40
0
 40
0
 40
0
 40
0
 40
1
 40
1
 40
1
 40
1
 10
451.596072
 20
376.807677
 30
0.0
 10
451.630521
 20
378.599136
 30
0.0
 10
451.983643
 20
379.796305
 30
0.0
 10
452.655437
 20
380.399184
 30
0.0
  0
SPLINE
  5
136
100
AcDbEntity
  8
0
 62
7
100
AcDbSpline
 70
8
 71
3
 72
8
 73
4
 74
0
 40
0
 40
0
 40
0
 40
0
 40
1
 40
1
 40
1
 40
1
 10
452.655437
 20
380.399184
 30
0.0
 10
453.275568
 20
380.967633
 30
0.0
 10
454.369390
 20
381.234633
 30
0.0
 10
455.936906
 20
381.200184
 30
0.0
  0
SPLINE
  5
137
100
AcDbEntity
  8
0
 62
7
100
AcDbSpline
 70
8
 71
3
 72
8
 73
4
 74
0
 40
0
 40
0
 40
0
 40
0
 40
1
 40
1
 40
1
 40
1
 10
455.936906
 20
381.200184
 30
0.0
 10
457.487188
 20
381.234633
 30
0.0
 10
458.649908
 20
381.019315
 30
0.0
 10
459.425066
 20
380.554230
 30
0.0
  0
SPLINE
  5
138
100
AcDbEntity
  8
0
 62
7
100
AcDbSpline
 70
8
 71
3
 72
8
 73
4
 74
0
 40
0
 40
0
 40
0
 40
0
 40
1
 40
1
 40
1
 40
1
 10
459.425066
 20
380.554230
 30
0.0
 10
460.165759
 20
380.054697
 30
0.0
 10
460.536105
 20
378.805846
 30
0.0
 10
460.536105
 20
376.807677
 30
0.0
  0
LWPOLYLINE
  5
139
100
AcDbEntity
  8
0
 62
7
100
AcDbPolyline
 90
4
 70
0
 10
404.027931
 20
383.318914
 30
0.0
 10
403.666193
 20
383.318914
 30
0.0
 10
403.666193
 20
387.220486
 30
0.0
 10
394.829506
 20
387.220486
 30
0.0
  0
SPLINE
  5
13a
100
AcDbEntity
  8
0
 62
7
100
AcDbSpline
 70
8
 71
3
 72
8
 73
4
 74
0
 40
0
 40
0
 40
0
 40
0
 40
1
 40
1
 40
1
 40
1
 10
460.691124
 20
368.694494
 30
0.0
 10
460.691124
 20
367.333671
 30
0.0
 10
460.286329
 20
366.455166
 30
0.0
 10
459.476740
 20
366.058979
 30
0.0
  0
SPLINE
  5
13b
100
AcDbEntity
  8
0
 62
7
100
AcDbSpline
 70
8
 71
3
 72
8
 73
4
 74
0
 40
0
 40
0
 40
0
 40
0
 40
1
 40
1
 40
1
 40
1
 10
459.476740
 20
366.058979
 30
0.0
 10
458.667132
 20
365.628343
 30
0.0
 10
457.538861
 20
365.430250
 30
0.0
 10
456.091925
 20
365.464699
 30
0.0
  0
SPLINE
  5
13c
100
AcDbEntity
  8
0
 62
7
100
AcDbSpline
 70
8
 71
3
 72
8
 73
4
 74
0
 40
0
 40
0
 40
0
 40
0
 40
1
 40
1
 40
1
 40
1
 10
456.091925
 20
365.464699
 30
0.0
 10
454.283251
 20
365.430250
 30
0.0
 10
453.077465
 20
365.895343
 30
0.0
 10
452.474568
 20
366.859979
 30
0.0
  0
SPLINE
  5
13d
100
AcDbEntity
  8
0
 62
7
100
AcDbSpline
 70
8
 71
3
 72
8
 73
4
 74
0
 40
0
 40
0
 40
0
 40
0
 40
1
 40
1
 40
1
 40
1
 10
452.474568
 20
366.859979
 30
0.0
 10
451.854455
 20
367.772932
 30
0.0
 10
451.561623
 20
369.409354
 30
0.0
 10
451.596072
 20
371.769243
 30
0.0
  0
LWPOLYLINE
  5
13e
100
AcDbEntity
  8
0
 62
7
100
AcDbPolyline
 90
2
 70
0
 10
460.536105
 20
376.807677
 30
0.0
 10
451.596072
 20
376.807677
 30
0.0
  0
SPLINE
  5
13f
100
AcDbEntity
  8
0
 62
7
100
AcDbSpline
 70
8
 71
3
 72
8
 73
4
 74
0
 40
0
 40
0
 40
0
 40
0
 40
1
 40
1
 40
1
 40
1
 10
469.631157
 20
373.319516
 30
0.0
 10
469.665606
 20
378.883351
 30
0.0
 10
468.726820
 20
382.690185
 30
0.0
 10
466.814800
 20
384.740018
 30
0.0
  0
SPLINE
  5
140
100
AcDbEntity
  8
0
 62
7
100
AcDbSpline
 70
8
 71
3
 72
8
 73
4
 74
0
 40
0
 40
0
 40
0
 40
0
 40
1
 40
1
 40
1
 40
1
 10
466.814800
 20
384.740018
 30
0.0
 10
464.816631
 20
386.686504
 30
0.0
 10
461.242339
 20
387.616682
 30
0.0
 10
456.091925
 20
387.530552
 30
0.0
  0
SPLINE
  5
141
100
AcDbEntity
  8
0
 62
7
100
AcDbSpline
 70
8
 71
3
 72
8
 73
4
 74
0
 40
0
 40
0
 40
0
 40
0
 40
1
 40
1
 40
1
 40
1
 10
456.091925
 20
387.530552
 30
0.0
 10
450.648670
 20
387.565000
 30
0.0
 10
446.996873
 20
386.548692
 30
0.0
 10
445.136535
 20
384.481626
 30
0.0
  0
SPLINE
  5
142
100
AcDbEntity
  8
0
 62
7
100
AcDbSpline
 70
8
 71
3
 72
8
 73
4
 74
0
 40
0
 40
0
 40
0
 40
0
 40
1
 40
1
 40
1
 40
1
 10
445.136535
 20
384.481626
 30
0.0
 10
443.293394
 20
382.328446
 30
0.0
 10
442.406282
 20
378.607743
 30
0.0
 10
442.475197
 20
373.319516
 30
0.0
  0
SPLINE
  5
143
100
AcDbEntity
  8
0
 62
7
100
AcDbSpline
 70
8
 71
3
 72
8
 73
4
 74
0
 40
0
 40
0
 40
0
 40
0
 40
1
 40
1
 40
1
 40
1
 10
442.475197
 20
373.319516
 30
0.0
 10
442.406282
 20
368.203551
 30
0.0
 10
443.327843
 20
364.551754
 30
0.0
 10
445.239881
 20
362.364126
 30
0.0
  0
SPLINE
  5
144
100
AcDbEntity
  8
0
 62
7
100
AcDbSpline
 70
8
 71
3
 72
8
 73
4
 74
0
 40
0
 40
0
 40
0
 40
0
 40
1
 40
1
 40
1
 40
1
 10
445.239881
 20
362.364126
 30
0.0
 10
447.151901
 20
360.176480
 30
0.0
 10
450.769249
 20
359.099891
 30
0.0
 10
456.091925
 20
359.134357
 30
0.0
  0
SPLINE
  5
145
100
AcDbEntity
  8
0
 62
7
100
AcDbSpline
 70
8
 71
3
 72
8
 73
4
 74
0
 40
0
 40
0
 40
0
 40
0
 40
1
 40
1
 40
1
 40
1
 10
456.091925
 20
359.134357
 30
0.0
 10
458.090076
 20
359.134357
 30
0.0
 10
459.941815
 20
359.254928
 30
0.0
 10
461.647143
 20
359.496069
 30
0.0
  0
SPLINE
  5
146
100
AcDbEntity
  8
0
 62
7
100
AcDbSpline
 70
8
 71
3
 72
8
 73
4
 74
0
 40
0
 40
0
 40
0
 40
0
 40
1
 40
1
 40
1
 40
1
 10
461.647143
 20
359.496069
 30
0.0
 10
463.300789
 20
359.702779
 30
0.0
 10
464.713276
 20
360.124807
 30
0.0
 10
465.884604
 20
360.762153
 30
0.0
  0
SPLINE
  5
147
100
AcDbEntity
  8
0
 62
7
100
AcDbSpline
 70
8
 71
3
 72
8
 73
4
 74
0
 40
0
 40
0
 40
0
 40
0
 40
1
 40
1
 40
1
 40
1
 10
465.884604
 20
360.762153
 30
0.0
 10
467.107614
 20
361.433948
 30
0.0
 10
468.037792
 20
362.424416
 30
0.0
 10
468.675138
 20
363.733556
 30
0.0
  0
SPLINE
  5
148
100
AcDbEntity
  8
0
 62
7
100
AcDbSpline
 70
8
 71
3
 72
8
 73
4
 74
0
 40
0
 40
0
 40
0
 40
0
 40
1
 40
1
 40
1
 40
1
 10
468.675138
 20
363.733556
 30
0.0
 10
469.312484
 20
365.008231
 30
0.0
 10
469.631157
 20
366.661876
 30
0.0
 10
469.631157
 20
368.694494
 30
0.0
  0
LWPOLYLINE
  5
149
100
AcDbEntity
  8
0
 62
7
100
AcDbPolyline
 90
3
 70
0
 10
451.596072
 20
371.769243
 30
0.0
 10
469.631157
 20
371.769243
 30
0.0
 10
469.631157
 20
373.319516
 30
0.0
  0
LWPOLYLINE
  5
14a
100
AcDbEntity
  8
0
 62
7
100
AcDbPolyline
 90
2
 70
0
 10
469.631157
 20
368.694494
 30
0.0
 10
460.691124
 20
368.694494
 30
0.0
  0
SPLINE
  5
14b
100
AcDbEntity
  8
0
 62
7
100
AcDbSpline
 70
8
 71
3
 72
8
 73
4
 74
0
 40
0
 40
0
 40
0
 40
0
 40
1
 40
1
 40
1
 40
1
 10
483.428754
 20
375.205704
 30
0.0
 10
483.394306
 20
376.911032
 30
0.0
 10
483.678530
 20
378.237397
 30
0.0
 10
484.281427
 20
379.184800
 30
0.0
  0
SPLINE
  5
14c
100
AcDbEntity
  8
0
 62
7
100
AcDbSpline
 70
8
 71
3
 72
8
 73
4
 74
0
 40
0
 40
0
 40
0
 40
0
 40
1
 40
1
 40
1
 40
1
 10
484.281427
 20
379.184800
 30
0.0
 10
484.884307
 20
380.097753
 30
0.0
 10
486.081476
 20
380.554230
 30
0.0
 10
487.872934
 20
380.554230
 30
0.0
  0
SPLINE
  5
14d
100
AcDbEntity
  8
0
 62
7
100
AcDbSpline
 70
8
 71
3
 72
8
 73
4
 74
0
 40
0
 40
0
 40
0
 40
0
 40
1
 40
1
 40
1
 40
1
 10
487.872934
 20
380.554230
 30
0.0
 10
489.423234
 20
380.554230
 30
0.0
 10
490.413701
 20
380.166660
 30
0.0
 10
490.844337
 20
379.391519
 30
0.0
  0
SPLINE
  5
14e
100
AcDbEntity
  8
0
 62
7
100
AcDbSpline
 70
8
 71
3
 72
8
 73
4
 74
0
 40
0
 40
0
 40
0
 40
0
 40
1
 40
1
 40
1
 40
1
 10
490.844337
 20
379.391519
 30
0.0
 10
491.188842
 20
378.616360
 30
0.0
 10
491.343871
 20
377.574210
 30
0.0
 10
491.309422
 20
376.265070
 30
0.0
  0
LWPOLYLINE
  5
14f
100
AcDbEntity
  8
0
 62
7
100
AcDbPolyline
 90
4
 70
0
 10
474.333702
 20
387.220486
 30
0.0
 10
474.333702
 20
359.444396
 30
0.0
 10
483.428754
 20
359.444396
 30
0.0
 10
483.428754
 20
375.205704
 30
0.0
  0
SPLINE
  5
150
100
AcDbEntity
  8
0
 62
7
100
AcDbSpline
 70
8
 71
3
 72
8
 73
4
 74
0
 40
0
 40
0
 40
0
 40
0
 40
1
 40
1
 40
1
 40
1
 10
500.404474
 20
375.205704
 30
0.0
 10
500.370025
 20
376.756004
 30
0.0
 10
500.654241
 20
378.030696
 30
0.0
 10
501.257120
 20
379.029780
 30
0.0
  0
SPLINE
  5
151
100
AcDbEntity
  8
0
 62
7
100
AcDbSpline
 70
8
 71
3
 72
8
 73
4
 74
0
 40
0
 40
0
 40
0
 40
0
 40
1
 40
1
 40
1
 40
1
 10
501.257120
 20
379.029780
 30
0.0
 10
501.825569
 20
380.011631
 30
0.0
 10
502.953840
 20
380.519781
 30
0.0
 10
504.641935
 20
380.554230
 30
0.0
  0
SPLINE
  5
152
100
AcDbEntity
  8
0
 62
7
100
AcDbSpline
 70
8
 71
3
 72
8
 73
4
 74
0
 40
0
 40
0
 40
0
 40
0
 40
1
 40
1
 40
1
 40
1
 10
504.641935
 20
380.554230
 30
0.0
 10
505.520440
 20
380.554230
 30
0.0
 10
506.226683
 20
380.450875
 30
0.0
 10
506.760665
 20
380.244165
 30
0.0
  0
SPLINE
  5
153
100
AcDbEntity
  8
0
 62
7
100
AcDbSpline
 70
8
 71
3
 72
8
 73
4
 74
0
 40
0
 40
0
 40
0
 40
0
 40
1
 40
1
 40
1
 40
1
 10
506.760665
 20
380.244165
 30
0.0
 10
507.294665
 20
379.951342
 30
0.0
 10
507.647787
 20
379.598220
 30
0.0
 10
507.820030
 20
379.184800
 30
0.0
  0
SPLINE
  5
154
100
AcDbEntity
  8
0
 62
7
100
AcDbSpline
 70
8
 71
3
 72
8
 73
4
 74
0
 40
0
 40
0
 40
0
 40
0
 40
1
 40
1
 40
1
 40
1
 10
507.820030
 20
379.184800
 30
0.0
 10
508.181769
 20
378.271846
 30
0.0
 10
508.336797
 20
377.057453
 30
0.0
 10
508.285115
 20
375.541619
 30
0.0
  0
LWPOLYLINE
  5
155
100
AcDbEntity
  8
0
 62
7
100
AcDbPolyline
 90
4
 70
0
 10
491.309422
 20
376.265070
 30
0.0
 10
491.309422
 20
359.444396
 30
0.0
 10
500.404474
 20
359.444396
 30
0.0
 10
500.404474
 20
375.205704
 30
0.0
  0
SPLINE
  5
156
100
AcDbEntity
  8
0
 62
7
100
AcDbSpline
 70
8
 71
3
 72
8
 73
4
 74
0
 40
0
 40
0
 40
0
 40
0
 40
1
 40
1
 40
1
 40
1
 10
517.406017
 20
378.435500
 30
0.0
 10
517.371568
 20
384.619447
 30
0.0
 10
514.141791
 20
387.651131
 30
0.0
 10
507.716684
 20
387.530552
 30
0.0
  0
SPLINE
  5
157
100
AcDbEntity
  8
0
 62
7
100
AcDbSpline
 70
8
 71
3
 72
8
 73
4
 74
0
 40
0
 40
0
 40
0
 40
0
 40
1
 40
1
 40
1
 40
1
 10
507.716684
 20
387.530552
 30
0.0
 10
505.925226
 20
387.530552
 30
0.0
 10
504.262963
 20
387.125748
 30
0.0
 10
502.729897
 20
386.316141
 30
0.0
  0
SPLINE
  5
158
100
AcDbEntity
  8
0
 62
7
100
AcDbSpline
 70
8
 71
3
 72
8
 73
4
 74
0
 40
0
 40
0
 40
0
 40
0
 40
1
 40
1
 40
1
 40
1
 10
502.729897
 20
386.316141
 30
0.0
 10
501.248512
 20
385.506551
 30
0.0
 10
500.335568
 20
384.094064
 30
0.0
 10
499.991062
 20
382.078680
 30
0.0
  0
LWPOLYLINE
  5
159
100
AcDbEntity
  8
0
 62
7
100
AcDbPolyline
 90
4
 70
0
 10
508.285115
 20
375.541619
 30
0.0
 10
508.285115
 20
359.444396
 30
0.0
 10
517.406017
 20
359.444396
 30
0.0
 10
517.406017
 20
378.435500
 30
0.0
  0
SPLINE
  5
15a
100
AcDbEntity
  8
0
 62
7
100
AcDbSpline
 70
8
 71
3
 72
8
 73
4
 74
0
 40
0
 40
0
 40
0
 40
0
 40
1
 40
1
 40
1
 40
1
 10
499.577651
 20
382.078680
 30
0.0
 10
499.457072
 20
383.284457
 30
0.0
 10
499.155623
 20
384.257700
 30
0.0
 10
498.673305
 20
384.998410
 30
0.0
  0
SPLINE
  5
15b
100
AcDbEntity
  8
0
 62
7
100
AcDbSpline
 70
8
 71
3
 72
8
 73
4
 74
0
 40
0
 40
0
 40
0
 40
0
 40
1
 40
1
 40
1
 40
1
 10
498.673305
 20
384.998410
 30
0.0
 10
498.173772
 20
385.739102
 30
0.0
 10
497.519202
 20
386.290317
 30
0.0
 10
496.709594
 20
386.652056
 30
0.0
  0
SPLINE
  5
15c
100
AcDbEntity
  8
0
 62
7
100
AcDbSpline
 70
8
 71
3
 72
8
 73
4
 74
0
 40
0
 40
0
 40
0
 40
0
 40
1
 40
1
 40
1
 40
1
 10
496.709594
 20
386.652056
 30
0.0
 10
495.900004
 20
387.031010
 30
0.0
 10
495.038733
 20
387.289384
 30
0.0
 10
494.125779
 20
387.427179
 30
0.0
  0
SPLINE
  5
15d
100
AcDbEntity
  8
0
 62
7
100
AcDbSpline
 70
8
 71
3
 72
8
 73
4
 74
0
 40
0
 40
0
 40
0
 40
0
 40
1
 40
1
 40
1
 40
1
 10
494.125779
 20
387.427179
 30
0.0
 10
493.161161
 20
387.496094
 30
0.0
 10
492.170694
 20
387.530552
 30
0.0
 10
491.154376
 20
387.530552
 30
0.0
  0
SPLINE
  5
15e
100
AcDbEntity
  8
0
 62
7
100
AcDbSpline
 70
8
 71
3
 72
8
 73
4
 74
0
 40
0
 40
0
 40
0
 40
0
 40
1
 40
1
 40
1
 40
1
 10
491.154376
 20
387.530552
 30
0.0
 10
489.569645
 20
387.530552
 30
0.0
 10
488.053803
 20
387.254944
 30
0.0
 10
486.606850
 20
386.703729
 30
0.0
  0
SPLINE
  5
15f
100
AcDbEntity
  8
0
 62
7
100
AcDbSpline
 70
8
 71
3
 72
8
 73
4
 74
0
 40
0
 40
0
 40
0
 40
0
 40
1
 40
1
 40
1
 40
1
 10
486.606850
 20
386.703729
 30
0.0
 10
485.194363
 20
386.066383
 30
0.0
 10
484.169447
 20
384.938111
 30
0.0
 10
483.532101
 20
383.318914
 30
0.0
  0
LWPOLYLINE
  5
160
100
AcDbEntity
  8
0
 62
7
100
AcDbPolyline
 90
2
 70
0
 10
499.991062
 20
382.078680
 30
0.0
 10
499.577651
 20
382.078680
 30
0.0
  0
LWPOLYLINE
  5
161
100
AcDbEntity
  8
0
 62
7
100
AcDbPolyline
 90
4
 70
0
 10
483.532101
 20
383.318914
 30
0.0
 10
483.170389
 20
383.318914
 30
0.0
 10
483.170389
 20
387.220486
 30
0.0
 10
474.333702
 20
387.220486
 30
0.0
  0
SPLINE
  5
162
100
AcDbEntity
  8
0
 62
7
100
AcDbSpline
 70
8
 71
3
 72
8
 73
4
 74
0
 40
0
 40
0
 40
0
 40
0
 40
1
 40
1
 40
1
 40
1
 10
532.624718
 20
364.250314
 30
0.0
 10
533.193166
 20
362.252163
 30
0.0
 10
534.166410
 20
360.899966
 30
0.0
 10
535.544448
 20
360.193722
 30
0.0
  0
SPLINE
  5
163
100
AcDbEntity
  8
0
 62
7
100
AcDbSpline
 70
8
 71
3
 72
8
 73
4
 74
0
 40
0
 40
0
 40
0
 40
0
 40
1
 40
1
 40
1
 40
1
 10
535.544448
 20
360.193722
 30
0.0
 10
536.922486
 20
359.487479
 30
0.0
 10
538.593356
 20
359.134357
 30
0.0
 10
540.557059
 20
359.134357
 30
0.0
  0
SPLINE
  5
164
100
AcDbEntity
  8
0
 62
7
100
AcDbSpline
 70
8
 71
3
 72
8
 73
4
 74
0
 40
0
 40
0
 40
0
 40
0
 40
1
 40
1
 40
1
 40
1
 10
540.557059
 20
359.134357
 30
0.0
 10
547.516147
 20
358.996544
 30
0.0
 10
551.030140
 20
362.398575
 30
0.0
 10
551.099038
 20
369.340447
 30
0.0
  0
LWPOLYLINE
  5
165
100
AcDbEntity
  8
0
 62
7
100
AcDbPolyline
 90
5
 70
0
 10
523.322973
 20
399.131896
 30
0.0
 10
523.322973
 20
359.444396
 30
0.0
 10
532.418025
 20
359.444396
 30
0.0
 10
532.211306
 20
364.250314
 30
0.0
 10
532.624718
 20
364.250314
 30
0.0
  0
SPLINE
  5
166
100
AcDbEntity
  8
0
 62
7
100
AcDbSpline
 70
8
 71
3
 72
8
 73
4
 74
0
 40
0
 40
0
 40
0
 40
0
 40
1
 40
1
 40
1
 40
1
 10
551.099038
 20
375.696639
 30
0.0
 10
551.236850
 20
383.740942
 30
0.0
 10
547.722857
 20
387.685580
 30
0.0
 10
540.557059
 20
387.530552
 30
0.0
  0
SPLINE
  5
167
100
AcDbEntity
  8
0
 62
7
100
AcDbSpline
 70
8
 71
3
 72
8
 73
4
 74
0
 40
0
 40
0
 40
0
 40
0
 40
1
 40
1
 40
1
 40
1
 10
540.557059
 20
387.530552
 30
0.0
 10
538.903413
 20
387.530552
 30
0.0
 10
537.404795
 20
387.289393
 30
0.0
 10
536.061206
 20
386.807075
 30
0.0
  0
SPLINE
  5
168
100
AcDbEntity
  8
0
 62
7
100
AcDbSpline
 70
8
 71
3
 72
8
 73
4
 74
0
 40
0
 40
0
 40
0
 40
0
 40
1
 40
1
 40
1
 40
1
 10
536.061206
 20
386.807075
 30
0.0
 10
534.683167
 20
386.204178
 30
0.0
 10
533.606578
 20
385.024233
 30
0.0
 10
532.831437
 20
383.267241
 30
0.0
  0
LWPOLYLINE
  5
169
100
AcDbEntity
  8
0
 62
7
100
AcDbPolyline
 90
2
 70
0
 10
551.099038
 20
369.340447
 30
0.0
 10
551.099038
 20
375.696639
 30
0.0
  0
SPLINE
  5
16a
100
AcDbEntity
  8
0
 62
7
100
AcDbSpline
 70
8
 71
3
 72
8
 73
4
 74
0
 40
0
 40
0
 40
0
 40
0
 40
1
 40
1
 40
1
 40
1
 10
537.430636
 20
366.110652
 30
0.0
 10
535.139644
 20
366.076204
 30
0.0
 10
533.718541
 20
366.627419
 30
0.0
 10
533.167325
 20
367.764298
 30
0.0
  0
SPLINE
  5
16b
100
AcDbEntity
  8
0
 62
7
100
AcDbSpline
 70
8
 71
3
 72
8
 73
4
 74
0
 40
0
 40
0
 40
0
 40
0
 40
1
 40
1
 40
1
 40
1
 10
533.167325
 20
367.764298
 30
0.0
 10
532.598877
 20
368.849513
 30
0.0
 10
532.349110
 20
370.718477
 30
0.0
 10
532.418025
 20
373.371189
 30
0.0
  0
SPLINE
  5
16c
100
AcDbEntity
  8
0
 62
7
100
AcDbSpline
 70
8
 71
3
 72
8
 73
4
 74
0
 40
0
 40
0
 40
0
 40
0
 40
1
 40
1
 40
1
 40
1
 10
532.418025
 20
373.371189
 30
0.0
 10
532.383577
 20
376.437340
 30
0.0
 10
532.753923
 20
378.426883
 30
0.0
 10
533.529064
 20
379.339819
 30
0.0
  0
SPLINE
  5
16d
100
AcDbEntity
  8
0
 62
7
100
AcDbSpline
 70
8
 71
3
 72
8
 73
4
 74
0
 40
0
 40
0
 40
0
 40
0
 40
1
 40
1
 40
1
 40
1
 10
533.529064
 20
379.339819
 30
0.0
 10
534.304205
 20
380.183875
 30
0.0
 10
535.604729
 20
380.588679
 30
0.0
 10
537.430636
 20
380.554230
 30
0.0
  0
SPLINE
  5
16e
100
AcDbEntity
  8
0
 62
7
100
AcDbSpline
 70
8
 71
3
 72
8
 73
4
 74
0
 40
0
 40
0
 40
0
 40
0
 40
1
 40
1
 40
1
 40
1
 10
537.430636
 20
380.554230
 30
0.0
 10
538.498618
 20
380.554230
 30
0.0
 10
539.351282
 20
380.416426
 30
0.0
 10
539.988628
 20
380.140819
 30
0.0
  0
SPLINE
  5
16f
100
AcDbEntity
  8
0
 62
7
100
AcDbSpline
 70
8
 71
3
 72
8
 73
4
 74
0
 40
0
 40
0
 40
0
 40
0
 40
1
 40
1
 40
1
 40
1
 10
539.988628
 20
380.140819
 30
0.0
 10
540.625956
 20
379.813529
 30
0.0
 10
541.082424
 20
379.331211
 30
0.0
 10
541.358032
 20
378.693865
 30
0.0
  0
SPLINE
  5
170
100
AcDbEntity
  8
0
 62
7
100
AcDbSpline
 70
8
 71
3
 72
8
 73
4
 74
0
 40
0
 40
0
 40
0
 40
0
 40
1
 40
1
 40
1
 40
1
 10
541.358032
 20
378.693865
 30
0.0
 10
541.823134
 20
377.470855
 30
0.0
 10
542.038452
 20
375.696630
 30
0.0
 10
542.003985
 20
373.371189
 30
0.0
  0
SPLINE
  5
171
100
AcDbEntity
  8
0
 62
7
100
AcDbSpline
 70
8
 71
3
 72
8
 73
4
 74
0
 40
0
 40
0
 40
0
 40
0
 40
1
 40
1
 40
1
 40
1
 10
542.003985
 20
373.371189
 30
0.0
 10
542.038452
 20
370.511767
 30
0.0
 10
541.771461
 20
368.582513
 30
0.0
 10
541.203012
 20
367.583429
 30
0.0
  0
SPLINE
  5
172
100
AcDbEntity
  8
0
 62
7
100
AcDbSpline
 70
8
 71
3
 72
8
 73
4
 74
0
 40
0
 40
0
 40
0
 40
0
 40
1
 40
1
 40
1
 40
1
 10
541.203012
 20
367.583429
 30
0.0
 10
540.600115
 20
366.567129
 30
0.0
 10
539.342656
 20
366.076204
 30
0.0
 10
537.430636
 20
366.110652
 30
0.0
  0
LWPOLYLINE
  5
173
100
AcDbEntity
  8
0
 62
7
100
AcDbPolyline
 90
4
 70
0
 10
532.831437
 20
383.267241
 30
0.0
 10
532.418025
 20
383.267241
 30
0.0
 10
532.418025
 20
399.131896
 30
0.0
 10
523.322973
 20
399.131896
 30
0.0
  0
SPLINE
  5
174
100
AcDbEntity
  8
0
 62
7
100
AcDbSpline
 70
8
 71
3
 72
8
 73
4
 74
0
 40
0
 40
0
 40
0
 40
0
 40
1
 40
1
 40
1
 40
1
 10
563.527231
 20
376.807677
 30
0.0
 10
563.561680
 20
378.599136
 30
0.0
 10
563.914802
 20
379.796305
 30
0.0
 10
564.586596
 20
380.399184
 30
0.0
  0
SPLINE
  5
175
100
AcDbEntity
  8
0
 62
7
100
AcDbSpline
 70
8
 71
3
 72
8
 73
4
 74
0
 40
0
 40
0
 40
0
 40
0
 40
1
 40
1
 40
1
 40
1
 10
564.586596
 20
380.399184
 30
0.0
 10
565.206709
 20
380.967633
 30
0.0
 10
566.300523
 20
381.234633
 30
0.0
 10
567.868038
 20
381.200184
 30
0.0
  0
SPLINE
  5
176
100
AcDbEntity
  8
0
 62
7
100
AcDbSpline
 70
8
 71
3
 72
8
 73
4
 74
0
 40
0
 40
0
 40
0
 40
0
 40
1
 40
1
 40
1
 40
1
 10
567.868038
 20
381.200184
 30
0.0
 10
569.418338
 20
381.234633
 30
0.0
 10
570.581058
 20
381.019315
 30
0.0
 10
571.356199
 20
380.554230
 30
0.0
  0
SPLINE
  5
177
100
AcDbEntity
  8
0
 62
7
100
AcDbSpline
 70
8
 71
3
 72
8
 73
4
 74
0
 40
0
 40
0
 40
0
 40
0
 40
1
 40
1
 40
1
 40
1
 10
571.356199
 20
380.554230
 30
0.0
 10
572.096909
 20
380.054697
 30
0.0
 10
572.467264
 20
378.805846
 30
0.0
 10
572.467264
 20
376.807677
 30
0.0
  0
LWPOLYLINE
  5
178
100
AcDbEntity
  8
0
 62
7
100
AcDbPolyline
 90
1
 70
1
 10
537.430636
 20
366.110652
 30
0.0
  0
SPLINE
  5
179
100
AcDbEntity
  8
0
 62
7
100
AcDbSpline
 70
8
 71
3
 72
8
 73
4
 74
0
 40
0
 40
0
 40
0
 40
0
 40
1
 40
1
 40
1
 40
1
 10
572.622283
 20
368.694494
 30
0.0
 10
572.622283
 20
367.333671
 30
0.0
 10
572.217488
 20
366.455166
 30
0.0
 10
571.407899
 20
366.058979
 30
0.0
  0
SPLINE
  5
17a
100
AcDbEntity
  8
0
 62
7
100
AcDbSpline
 70
8
 71
3
 72
8
 73
4
 74
0
 40
0
 40
0
 40
0
 40
0
 40
1
 40
1
 40
1
 40
1
 10
571.407899
 20
366.058979
 30
0.0
 10
570.598291
 20
365.628343
 30
0.0
 10
569.470020
 20
365.430250
 30
0.0
 10
568.023084
 20
365.464699
 30
0.0
  0
SPLINE
  5
17b
100
AcDbEntity
  8
0
 62
7
100
AcDbSpline
 70
8
 71
3
 72
8
 73
4
 74
0
 40
0
 40
0
 40
0
 40
0
 40
1
 40
1
 40
1
 40
1
 10
568.023084
 20
365.464699
 30
0.0
 10
566.214410
 20
365.430250
 30
0.0
 10
565.008624
 20
365.895343
 30
0.0
 10
564.405727
 20
366.859979
 30
0.0
  0
SPLINE
  5
17c
100
AcDbEntity
  8
0
 62
7
100
AcDbSpline
 70
8
 71
3
 72
8
 73
4
 74
0
 40
0
 40
0
 40
0
 40
0
 40
1
 40
1
 40
1
 40
1
 10
564.405727
 20
366.859979
 30
0.0
 10
563.785614
 20
367.772932
 30
0.0
 10
563.492782
 20
369.409354
 30
0.0
 10
563.527231
 20
371.769243
 30
0.0
  0
LWPOLYLINE
  5
17d
100
AcDbEntity
  8
0
 62
7
100
AcDbPolyline
 90
2
 70
0
 10
572.467264
 20
376.807677
 30
0.0
 10
563.527231
 20
376.807677
 30
0.0
  0
SPLINE
  5
17e
100
AcDbEntity
  8
0
 62
7
100
AcDbSpline
 70
8
 71
3
 72
8
 73
4
 74
0
 40
0
 40
0
 40
0
 40
0
 40
1
 40
1
 40
1
 40
1
 10
581.562316
 20
373.319516
 30
0.0
 10
581.596765
 20
378.883351
 30
0.0
 10
580.657970
 20
382.690185
 30
0.0
 10
578.745932
 20
384.740018
 30
0.0
  0
SPLINE
  5
17f
100
AcDbEntity
  8
0
 62
7
100
AcDbSpline
 70
8
 71
3
 72
8
 73
4
 74
0
 40
0
 40
0
 40
0
 40
0
 40
1
 40
1
 40
1
 40
1
 10
578.745932
 20
384.740018
 30
0.0
 10
576.747781
 20
386.686504
 30
0.0
 10
573.173498
 20
387.616682
 30
0.0
 10
568.023084
 20
387.530552
 30
0.0
  0
SPLINE
  5
180
100
AcDbEntity
  8
0
 62
7
100
AcDbSpline
 70
8
 71
3
 72
8
 73
4
 74
0
 40
0
 40
0
 40
0
 40
0
 40
1
 40
1
 40
1
 40
1
 10
568.023084
 20
387.530552
 30
0.0
 10
562.579829
 20
387.565000
 30
0.0
 10
558.928023
 20
386.548692
 30
0.0
 10
557.067667
 20
384.481626
 30
0.0
  0
SPLINE
  5
181
100
AcDbEntity
  8
0
 62
7
100
AcDbSpline
 70
8
 71
3
 72
8
 73
4
 74
0
 40
0
 40
0
 40
0
 40
0
 40
1
 40
1
 40
1
 40
1
 10
557.067667
 20
384.481626
 30
0.0
 10
555.224544
 20
382.328446
 30
0.0
 10
554.337432
 20
378.607743
 30
0.0
 10
554.406329
 20
373.319516
 30
0.0
  0
SPLINE
  5
182
100
AcDbEntity
  8
0
 62
7
100
AcDbSpline
 70
8
 71
3
 72
8
 73
4
 74
0
 40
0
 40
0
 40
0
 40
0
 40
1
 40
1
 40
1
 40
1
 10
554.406329
 20
373.319516
 30
0.0
 10
554.337432
 20
368.203551
 30
0.0
 10
555.259002
 20
364.551754
 30
0.0
 10
557.171040
 20
362.364126
 30
0.0
  0
SPLINE
  5
183
100
AcDbEntity
  8
0
 62
7
100
AcDbSpline
 70
8
 71
3
 72
8
 73
4
 74
0
 40
0
 40
0
 40
0
 40
0
 40
1
 40
1
 40
1
 40
1
 10
557.171040
 20
362.364126
 30
0.0
 10
559.083060
 20
360.176480
 30
0.0
 10
562.700408
 20
359.099891
 30
0.0
 10
568.023084
 20
359.134357
 30
0.0
  0
SPLINE
  5
184
100
AcDbEntity
  8
0
 62
7
100
AcDbSpline
 70
8
 71
3
 72
8
 73
4
 74
0
 40
0
 40
0
 40
0
 40
0
 40
1
 40
1
 40
1
 40
1
 10
568.023084
 20
359.134357
 30
0.0
 10
570.021235
 20
359.134357
 30
0.0
 10
571.872974
 20
359.254928
 30
0.0
 10
573.578302
 20
359.496069
 30
0.0
  0
SPLINE
  5
185
100
AcDbEntity
  8
0
 62
7
100
AcDbSpline
 70
8
 71
3
 72
8
 73
4
 74
0
 40
0
 40
0
 40
0
 40
0
 40
1
 40
1
 40
1
 40
1
 10
573.578302
 20
359.496069
 30
0.0
 10
575.231948
 20
359.702779
 30
0.0
 10
576.644435
 20
360.124807
 30
0.0
 10
577.815763
 20
360.762153
 30
0.0
  0
SPLINE
  5
186
100
AcDbEntity
  8
0
 62
7
100
AcDbSpline
 70
8
 71
3
 72
8
 73
4
 74
0
 40
0
 40
0
 40
0
 40
0
 40
1
 40
1
 40
1
 40
1
 10
577.815763
 20
360.762153
 30
0.0
 10
579.038773
 20
361.433948
 30
0.0
 10
579.968951
 20
362.424416
 30
0.0
 10
580.606297
 20
363.733556
 30
0.0
  0
SPLINE
  5
187
100
AcDbEntity
  8
0
 62
7
100
AcDbSpline
 70
8
 71
3
 72
8
 73
4
 74
0
 40
0
 40
0
 40
0
 40
0
 40
1
 40
1
 40
1
 40
1
 10
580.606297
 20
363.733556
 30
0.0
 10
581.243643
 20
365.008231
 30
0.0
 10
581.562316
 20
366.661876
 30
0.0
 10
581.562316
 20
368.694494
 30
0.0
  0
LWPOLYLINE
  5
188
100
AcDbEntity
  8
0
 62
7
100
AcDbPolyline
 90
3
 70
0
 10
563.527231
 20
371.769243
 30
0.0
 10
581.562316
 20
371.769243
 30
0.0
 10
581.562316
 20
373.319516
 30
0.0
  0
LWPOLYLINE
  5
189
100
AcDbEntity
  8
0
 62
7
100
AcDbPolyline
 90
2
 70
0
 10
581.562316
 20
368.694494
 30
0.0
 10
572.622283
 20
368.694494
 30
0.0
  0
SPLINE
  5
18a
100
AcDbEntity
  8
0
 62
7
100
AcDbSpline
 70
8
 71
3
 72
8
 73
4
 74
0
 40
0
 40
0
 40
0
 40
0
 40
1
 40
1
 40
1
 40
1
 10
609.105838
 20
377.272762
 30
0.0
 10
609.105838
 20
378.581902
 30
0.0
 10
609.071389
 20
379.856594
 30
0.0
 10
609.002491
 20
381.096838
 30
0.0
  0
SPLINE
  5
18b
100
AcDbEntity
  8
0
 62
7
100
AcDbSpline
 70
8
 71
3
 72
8
 73
4
 74
0
 40
0
 40
0
 40
0
 40
0
 40
1
 40
1
 40
1
 40
1
 10
609.002491
 20
381.096838
 30
0.0
 10
608.864679
 20
382.319848
 30
0.0
 10
608.571847
 20
383.413661
 30
0.0
 10
608.123995
 20
384.378279
 30
0.0
  0
SPLINE
  5
18c
100
AcDbEntity
  8
0
 62
7
100
AcDbSpline
 70
8
 71
3
 72
8
 73
4
 74
0
 40
0
 40
0
 40
0
 40
0
 40
1
 40
1
 40
1
 40
1
 10
608.123995
 20
384.378279
 30
0.0
 10
607.658911
 20
385.325682
 30
0.0
 10
606.969892
 20
386.100832
 30
0.0
 10
606.056938
 20
386.703729
 30
0.0
  0
SPLINE
  5
18d
100
AcDbEntity
  8
0
 62
7
100
AcDbSpline
 70
8
 71
3
 72
8
 73
4
 74
0
 40
0
 40
0
 40
0
 40
0
 40
1
 40
1
 40
1
 40
1
 10
606.056938
 20
386.703729
 30
0.0
 10
605.092303
 20
387.254944
 30
0.0
 10
603.817619
 20
387.530552
 30
0.0
 10
602.232889
 20
387.530552
 30
0.0
  0
SPLINE
  5
18e
100
AcDbEntity
  8
0
 62
7
100
AcDbSpline
 70
8
 71
3
 72
8
 73
4
 74
0
 40
0
 40
0
 40
0
 40
0
 40
1
 40
1
 40
1
 40
1
 10
602.232889
 20
387.530552
 30
0.0
 10
598.822233
 20
387.616682
 30
0.0
 10
596.496793
 20
386.152513
 30
0.0
 10
595.256567
 20
383.138045
 30
0.0
  0
LWPOLYLINE
  5
18f
100
AcDbEntity
  8
0
 62
7
100
AcDbPolyline
 90
3
 70
0
 10
600.915131
 20
375.102358
 30
0.0
 10
609.105838
 20
375.102358
 30
0.0
 10
609.105838
 20
377.272762
 30
0.0
  0
SPLINE
  5
190
100
AcDbEntity
  8
0
 62
7
100
AcDbSpline
 70
8
 71
3
 72
8
 73
4
 74
0
 40
0
 40
0
 40
0
 40
0
 40
1
 40
1
 40
1
 40
1
 10
595.153194
 20
376.110050
 30
0.0
 10
595.118746
 20
377.315827
 30
0.0
 10
595.342680
 20
378.357968
 30
0.0
 10
595.824998
 20
379.236473
 30
0.0
  0
SPLINE
  5
191
100
AcDbEntity
  8
0
 62
7
100
AcDbSpline
 70
8
 71
3
 72
8
 73
4
 74
0
 40
0
 40
0
 40
0
 40
0
 40
1
 40
1
 40
1
 40
1
 10
595.824998
 20
379.236473
 30
0.0
 10
596.290082
 20
380.080529
 30
0.0
 10
597.194420
 20
380.519781
 30
0.0
 10
598.538009
 20
380.554230
 30
0.0
  0
SPLINE
  5
192
100
AcDbEntity
  8
0
 62
7
100
AcDbSpline
 70
8
 71
3
 72
8
 73
4
 74
0
 40
0
 40
0
 40
0
 40
0
 40
1
 40
1
 40
1
 40
1
 10
598.538009
 20
380.554230
 30
0.0
 10
599.175355
 20
380.554230
 30
0.0
 10
599.666280
 20
380.450875
 30
0.0
 10
600.010786
 20
380.244165
 30
0.0
  0
SPLINE
  5
193
100
AcDbEntity
  8
0
 62
7
100
AcDbSpline
 70
8
 71
3
 72
8
 73
4
 74
0
 40
0
 40
0
 40
0
 40
0
 40
1
 40
1
 40
1
 40
1
 10
600.010786
 20
380.244165
 30
0.0
 10
600.338075
 20
379.985790
 30
0.0
 10
600.570617
 20
379.667117
 30
0.0
 10
600.708412
 20
379.288146
 30
0.0
  0
SPLINE
  5
194
100
AcDbEntity
  8
0
 62
7
100
AcDbSpline
 70
8
 71
3
 72
8
 73
4
 74
0
 40
0
 40
0
 40
0
 40
0
 40
1
 40
1
 40
1
 40
1
 10
600.708412
 20
379.288146
 30
0.0
 10
600.880674
 20
378.444107
 30
0.0
 10
600.949580
 20
377.488097
 30
0.0
 10
600.915131
 20
376.420115
 30
0.0
  0
LWPOLYLINE
  5
195
100
AcDbEntity
  8
0
 62
7
100
AcDbPolyline
 90
7
 70
0
 10
595.256567
 20
383.138045
 30
0.0
 10
594.894829
 20
383.138045
 30
0.0
 10
594.894829
 20
387.220486
 30
0.0
 10
586.058142
 20
387.220486
 30
0.0
 10
586.058142
 20
359.444396
 30
0.0
 10
595.153194
 20
359.444396
 30
0.0
 10
595.153194
 20
376.110050
 30
0.0
  0
LWPOLYLINE
  5
196
100
AcDbEntity
  8
0
 62
7
100
AcDbPolyline
 90
2
 70
0
 10
600.915131
 20
376.420115
 30
0.0
 10
600.915131
 20
375.102358
 30
0.0
  0
ENDSEC
  0
SECTION
  2
OBJECTS
  0
DICTIONARY
  5
C
330
0
100
AcDbDictionary
  3
ACAD_GROUP
350
D
  3
ACAD_MLINESTYLE
350
17
  0
DICTIONARY
  5
D
330
C
100
AcDbDictionary
  0
DICTIONARY
  5
1A
330
C
100
AcDbDictionary
  0
DICTIONARY
  5
17
330
C
100
AcDbDictionary
  3
STANDARD
350
18
  0
DICTIONARY
  5
19
330
C
100
AcDbDictionary
  0
ENDSEC
  0
EOF
